<?xml version="1.0" encoding="utf-8"?>
<!-- Generator: Adobe Illustrator 24.2.1, SVG Export Plug-In . SVG Version: 6.00 Build 0)  -->
<svg version="1.1" xmlns="http://www.w3.org/2000/svg" xmlns:xlink="http://www.w3.org/1999/xlink" x="0px" y="0px"
	 viewBox="0 0 750 500" style="enable-background:new 0 0 750 500;" xml:space="preserve">
<style type="text/css">
	.st0{fill:#FFFFFF;}
	.st1{fill:#AFB3BD;}
	.st2{fill:#133A50;}
	.st3{fill:#FEC4AD;}
	.st4{fill:#E84F5F;}
	.st5{fill:#613531;}
	.st6{fill:#542F38;}
	.st7{opacity:0.35;fill:#FFFFFF;}
	.st8{fill:#782F38;}
	.st9{fill:#F49A8A;}
	.st10{fill:#8E373F;}
	.st11{fill:#4FAE86;}
	.st12{fill:#F5C5B3;}
	.st13{fill:#E8D4E5;}
	.st14{fill:#7B2B1A;}
	.st15{fill:#864838;}
	.st16{fill:#97A3CC;}
	.st17{fill:url(#XMLID_2_);}
	.st18{fill:#DCA86E;}
	.st19{fill:#F3BA7A;}
	.st20{fill:#471A16;}
	.st21{fill:#42B2FC;}
	.st22{fill:#348EC9;}
	.st23{fill:#732A24;}
	.st24{fill:#808194;}
	.st25{fill:#006F9A;}
	.st26{opacity:0.7;fill:#FFFFFF;}
	.st27{fill:#562D22;}
	.st28{fill:#FDAF99;}
	.st29{fill:#EE6191;}
	.st30{fill:#CA5072;}
	.st31{fill:#57906F;}
	.st32{fill:#4EAC7E;}
	.st33{fill:#6BC971;}
	.st34{fill:#D2DCEB;}
	.st35{fill:#A6AEBA;}
</style>
<g id="BACKGROUND">
	<rect class="st0" width="750" height="500"/>
</g>
<g id="OBJECTS">
	<g>
		<g>
			<path class="st1" d="M175.5,269.1c-6.7,35.9-64.3,59.4-25.6,100.6h430.3c8.7-21.2,13.9-49,15.5-65.5c3.6-36.1-6.9-77.2-31.7-93.4
				c-33.5-21.8-79,8.2-109-21.2c-17.3-17-22.5-47.9-36-70c-29.9-48.8-93.8-73.4-149.2-64.8c-36.9,5.7-74.1,27.5-94.6,59.1
				c-16.7,25.7-28.6,68.5-14.2,97.4C167.7,224.6,180.4,243.4,175.5,269.1z"/>
			<g>
				<path class="st2" d="M346.9,364.1c0.9-28.3,1.9-49,1.9-49l37.6,2.8l37.4-3.9c0,0,3.3,20.6,4.4,50.2H346.9z"/>
				<g>
					<path class="st3" d="M306.6,154.5c-0.2,0.6,9.9-5.6,9.9-5.6l4.3-6.6c0,0,4.2-2.7,7.1-4.1c3-1.5,8.5-10.4,8.5-10.4l-2.2-2.7
						c0,0-3.1,3.8-4.2,4.4c-1,0.6-3.1,0.1-3.1,0.1s0.7-2.8,2.4-6.7c1.7-4,6.8-10.4,6.8-10.4l-1.9-2c0,0-3.1,2.9-4.2,4.4
						c-1.1,1.5-3.2,4.5-3.2,4.5s2.2-5.4,3.6-7.4c1.4-2,2.8-4.7,2.8-4.7l-2.2-1.5c0,0-2.6,3.2-3.9,5.6c-1.3,2.4-3.8,6.4-3.8,6.4
						s1.9-6.1,2.8-7.8c0.9-1.7,1.3-2.7,1.3-2.7l-2.6-0.9c0,0-1.9,2.4-3.1,5.5c-1.2,3.2-2,4.6-2,4.6s0.8-5.1,1.6-6.6
						c0.9-1.5,0.9-2.1,0.9-2.1l-2.1-0.4c0,0-4.1,7.5-6.2,12.2c-2.1,4.7-3.8,11-5,14.4c-1.2,3.4-2.8,15-2.8,15L306.6,154.5z"/>
					<path class="st4" d="M351.9,193.5l-34.1-3.2c0,0-1.4-12.2-0.6-26.5c0.9-15.5,2.8-19.8,2.8-19.8l-13.9-1.9
						c0,0-2.7,12.2-4.7,20.9c-4.4,19.4-8.3,37.6-5,41.6c4.8,5.9,39.6,22,54.3,33.1C359.7,244.3,349.8,213.2,351.9,193.5z"/>
				</g>
				<path class="st4" d="M399.9,185.9c-2.2-3.6-2.7-11.4-2.7-11.4H379c0,0-1.3,11.4-4,13.7c-3,2.5-10.9,6.4-16.9,9
					c0.9,8.7,2.1,17.4,3.3,26.1h49.3c0.9-9.3,1.9-18.7,3-28C409,193.1,402.1,189.5,399.9,185.9z"/>
				
					<rect x="375.2" y="178.4" transform="matrix(-1 -1.224647e-16 1.224647e-16 -1 776.5892 364.4151)" class="st4" width="26.2" height="7.5"/>
				<path class="st4" d="M349.4,256.4c0.3-12.2-4.9-62.1-4.9-62.1c12.7-2.5,28.1-4.6,28.1-4.6l14.7,16l16.6-15.5l27,10.9
					c0,0-6.5,37.7-4.5,49.7c2,12-0.5,69.4-1.6,71.5c-3.3,6.6-19.7,10.9-39.9,9.3c-25.1-2-36.4-6-36.4-6
					C347.8,306.5,348.9,281.1,349.4,256.4z"/>
				<path class="st3" d="M406.8,148.1c0,0-0.2-7.8-5-11.3c-4.8-3.5-14-3.8-14-3.8s-9.2,0.3-14,3.8c-4.8,3.5-5,11.3-5,11.3
					c0.2,1.5-1.5,12.7,2.2,22.1c2,5,5.7,10,9.5,12.4c6.9,4.3,11.3,2.1,15.7-0.3c4-2.1,7.3-7.3,9.1-12.3
					C407.6,163.3,406.9,149.2,406.8,148.1z"/>
				<path class="st5" d="M403.6,130.4c-7-6.3-21.7-9-32.3,1.4c-9.5,9.3-3.5,23.9-3.5,23.9c1.6,1-0.1,2.1,0.1,4.1l2.3,0.8
					c0,0-1.4-6.3,0.3-7.9c1.8-1.6,1.1-3.8,1.3-6.5c0.1-1.6,0.5-9.3,3.9-10.8c2.3-1,5.7,3.8,11.8,4c7.6,0,9.1-4.7,11.4-3.9
					c4.3,1.6,4.6,9.5,4.6,11.3c0,2.7-0.6,3.9,1.1,5.6c1.7,1.7,1,7.9,1,7.9l1.8-0.6c0.3-3.4-1.1-3.9,0.5-4.8
					C407.9,155,414.1,139.8,403.6,130.4z"/>
				<path class="st3" d="M406.2,160.3c0.3-2.8,1.1-6.1,2.7-7.4c1.6-1.3,3.7,1.2,3,5.3c-0.7,4.1-5.7,5.5-5.7,5.5V160.3z"/>
				<path class="st3" d="M369.3,160.3c-0.3-2.8-1.1-6.1-2.7-7.4s-3.7,1.2-3,5.3c0.7,4.1,5.7,7.2,5.7,7.2V160.3z"/>
				<path class="st3" d="M419.7,330.2L415,336c0,0,1.1,8.7,7.1,10.1c0,0,4.4-7.4,5.7-10.9L419.7,330.2z"/>
				<path class="st4" d="M430.9,201.1c0,0,11.9,6.6,15.4,15.7c3.4,9.1,9.6,60.3,9.6,72.8c0,12.5-27.9,52.2-27.9,52.2
					s-8.2-2.8-9.3-10.3l15.2-45.9c-2.3-14.8-11.6-35.8-11.6-57.4C422.4,206.6,430.9,201.1,430.9,201.1z"/>
				<g>
					<path class="st0" d="M399.9,153.8c0,0-0.7,1.3-2.5,2.2c-1.8,1-3,0.7-4.4-1.5C393,154.6,395.9,152.1,399.9,153.8z"/>
					<path class="st6" d="M397,153.4c0.6-0.1,1,0.5,0.8,1c-0.1,0.3-0.3,0.5-0.4,0.8c-0.3,0.5-0.7,1.1-2,1c-1.9-0.2-1.8-2.5-1.8-2.5
						L397,153.4z"/>
					<path class="st7" d="M396.3,153.6c0.8,0.1,1.1,1,0.6,1.3c-0.6,0.3-1.3,0.3-1.4-0.4C395.4,153.9,395.5,153.5,396.3,153.6z"/>
					<path class="st8" d="M401.5,154.3c0,0-5.2-1.4-9.5,0.6c0,0-0.2-0.9,0.9-1.5c0.6-0.3,2-0.7,3.4-0.6
						C401,152.9,401.5,154.3,401.5,154.3z"/>
				</g>
				<g>
					<g>
						<path class="st0" d="M376.4,153.6c0,0,0.6,1.3,2.4,2.3c1.8,1.1,3,0.8,4.5-1.2C383.3,154.7,380.4,152.1,376.4,153.6z"/>
						<path class="st6" d="M379.3,153.4c-0.6-0.1-1.1,0.5-0.8,1c0.1,0.3,0.2,0.5,0.4,0.9c0.2,0.5,0.4,1.3,1.9,1.1
							c1-0.1,1.9-2.4,1.9-2.4L379.3,153.4z"/>
						<path class="st7" d="M380.1,153.6c-0.8,0.1-1.2,1-0.6,1.3c0.6,0.3,1.3,0.4,1.4-0.3C380.9,154,380.9,153.6,380.1,153.6z"/>
						<path class="st8" d="M374.9,154.1c0,0,4.7-1.3,8.5,0.8c0,0,0.7-1.2-0.3-1.8c-0.6-0.3-1.8-0.6-3.1-0.6
							C375.6,152.6,374.9,154.1,374.9,154.1z"/>
					</g>
				</g>
				<path class="st9" d="M384.2,163.6c0.8-1,1.3-4,1.5-5.9c0.1-0.9,0.9-1.6,1.8-1.6l0,0c0.9,0,1.7,0.7,1.8,1.6
					c0.2,1.9,0.7,4.9,1.5,5.9c1.2,1.5,1.2,2.2,0.3,2.8c-0.9,0.6-1.3,0.3-1.9,1c-0.5,0.6-1.3,0.8-1.8,0.8c-0.5,0-1.2-0.2-1.8-0.8
					c-0.6-0.7-1-0.4-1.9-1C383,165.8,383,165.1,384.2,163.6z"/>
				<path class="st10" d="M384,150.2c0,0,0.8-0.9,0.5-2.1c0,0-4.5-1.8-10.2,0.5c0,0-0.6,0.4,0.4,0.4
					C375.8,148.9,381.6,148.1,384,150.2z"/>
				<path class="st10" d="M391.8,150.2c0,0-0.8-0.9-0.5-2.1c0,0,4.5-1.8,10.2,0.5c0,0,0.6,0.4-0.4,0.4
					C400,148.9,394.2,148.1,391.8,150.2z"/>
				<path class="st6" d="M382.6,170.3c0,0,1.3,3.4,5.1,3.4c3.9,0,5.3-3.4,5.3-3.4S388.4,172.4,382.6,170.3z"/>
			</g>
			<g>
				<path class="st11" d="M239.2,204.3c-7.4,4-9.7,9.1-13.4,19.2c-3.7,10.1-7.4,12.4-7.4,12.4s7.8,1.8,16.5,20.7
					c0,0,9.2-6.4,11.5-19.3C248.8,224.4,239.2,204.3,239.2,204.3z"/>
				<path class="st3" d="M209.5,256.1c0,0-0.6,7.4,3.1,11.5c3.7,4.1,7.7,12.3,7.7,12.3s5.7-12,8.3-15.8c2.6-3.8,10.1-12.4,10.3-20.4
					c0.2-8-12.9-19.9-12.9-19.9s-7.2,12.9-7.8,20.2C217.5,251.3,209.5,256.1,209.5,256.1z"/>
				<path class="st2" d="M307.5,366.6c-1.3-28.9-3.7-51-3.7-51l-57.5,0.5c0,0,5.6,24.5,11.5,50.5H307.5z"/>
				<path class="st3" d="M282.6,168.6c0,0-4.4,19.5-1,24c2,2.7,10.7,12.1,10.7,12.1s-28.6,15.1-37,15.1c-8.4,0-5.5-16.8-5.5-16.8
					s9.2-7.2,10.5-10.9c1.4-3.7,2.1-14.2,2.1-14.2L282.6,168.6z"/>
				<path class="st2" d="M227.6,366.6h38.3c0.2-4.6,0.4-7.4,0.4-7.4l-10.7-37.3l-22.8-6.1c0,0-9.7,18.4-7.1,22.7
					C227,340.8,227.3,352,227.6,366.6z"/>
				<path class="st11" d="M286.5,196.2l23,8.7c0,0,0.6,27.7,0.3,37.2c-0.3,9.4-3.7,84.1-3.7,84.1s-9,14-52.4,8.4
					c-16.7-2.1-24.9-10.3-24.9-10.3s4.7-82.2,6-91.6c1.3-9.4,4.5-28.3,4.5-28.3l14.1-4.4l5.8,8.6L286.5,196.2z"/>
				<polygon class="st11" points="281.6,192.6 259.1,208.5 266.3,216.8 286.5,196.2 				"/>
				<polygon class="st11" points="259.1,208.5 252,214.2 253.3,199.9 256,196.2 				"/>
				<g>
					<path class="st3" d="M295,279.3c6-9.6,20.3-39.4,20.3-39.4l-19-10.2l-10.1,32.4c-1.7-0.6-4.5-1.9-6.8-3.1
						c3.4,4.6,6.8,9.1,10.4,13.6C291.4,274.9,293.2,277.1,295,279.3z"/>
					<path class="st11" d="M321,221.8c0.1,10.8-11.2,42.5-11.2,42.5s-9.2-9.8-20.2-15.6c0,0,4-16.1,6.3-24.6
						c2.6-9.4,4.5-20.5,13-19.3C317.1,206,320.9,213.2,321,221.8z"/>
				</g>
				<g>
					<g>
						<path class="st12" d="M285,168.3c0,0-0.3-6.9,5.5-6.7c3.7,0.1,4,3.5,1.1,7.9c-1.2,1.8-1.3,6-2.8,7.3c-1.8,1.6-3.4-0.9-3.9-2
							C283.9,172.9,285,168.3,285,168.3z"/>
					</g>
					<g>
						<path class="st12" d="M253.8,168.3c0,0,0.3-6.9-5.5-6.7c-3.7,0.1-4,3.5-1.1,7.9c1.2,1.8,1.3,6,2.8,7.3c1.8,1.6,3.4-0.9,3.9-2
							C254.9,172.9,253.8,168.3,253.8,168.3z"/>
					</g>
					<path class="st12" d="M290.8,151.4c-0.1,2.2-0.6,3.7-1.2,7c-0.1,0.8-0.3,1.7-0.4,2.8c-1.2,8.3-2.7,19.6-3.4,21.3
						c-1.1,2.8-7,7.3-9.8,9c-2.8,1.7-9.9,1.3-12.7-0.3c-2.8-1.7-9.2-5.8-10.3-8.6c-0.7-1.7-2.2-13.3-3.4-21.8
						c-0.1-1-0.3-1.8-0.4-2.5c-0.6-3.3-1-4.6-1.1-6.8c-0.4-7,7.5-17.2,21.4-17.2C285.9,134.2,291.3,144.4,290.8,151.4z"/>
					<path class="st13" d="M255.1,142.6c0,0,11.8-5.3,25.5,0.9l4.9-3.1c0,0-7.2-3.7-17.5-3.7C257.7,136.8,255.1,142.6,255.1,142.6z"
						/>
					<g>
						<path class="st14" d="M289.7,158.4c-0.1,0.8-0.3,1.7-0.4,2.8c-1.2,8.3-2.7,19.6-3.4,21.3c-1.1,2.8-7,7.3-9.8,9
							c-2.8,1.7-9.9,1.3-12.7-0.3c-2.8-1.7-9.2-5.8-10.3-8.6c-0.7-1.7-2.2-13.3-3.4-21.8c-0.1-1-0.3-1.8-0.4-2.5l1.1-1.7
							c0,0,2,12,5.2,15.8c3.1,3.7,3.7,3.9,3.7,3.9s3.4-0.8,6.4-1.6c0.2,0,0.3-0.1,0.5-0.1c2.5-0.6,5-0.6,7.5,0.1
							c0.1,0,0.3,0.1,0.4,0.1l0.5,0.1l4.9,1.4c0,0,1.1-0.2,4.3-3.9c3.1-3.7,4.7-15.8,4.7-15.8L289.7,158.4z"/>
					</g>
					<g>
						<g>
							<path class="st0" d="M280.9,160.1c-0.2,0.5-1.8,1.7-2.7,1.9c-1.2,0.2-2.9,0.4-4.4-1.6C273.8,160.4,277,158.6,280.9,160.1z"/>
							<path class="st6" d="M277,158.9c0.6,0,1.8,0.1,1.8,0.9c0,0.4-0.2,1-0.3,1.3c-0.2,0.5-0.8,1.3-2.2,0.9
								c-1.7-0.5-1.8-2.4-1.8-2.4S274.7,158.9,277,158.9z"/>
							<path class="st7" d="M276.9,159.3c0.8,0.1,1.1,1,0.6,1.3c-0.5,0.3-1.2,0.4-1.3-0.3C276.1,159.6,276.1,159.3,276.9,159.3z"/>
							<path class="st15" d="M281.9,160.7c0,0-4.5-2.2-8.3-0.2c0,0-0.7-0.8,0.3-1.3c0.6-0.3,1.8-0.6,3-0.6
								C281.3,158.8,281.9,160.7,281.9,160.7z"/>
						</g>
					</g>
					<path class="st14" d="M266,153.3c0,0-3.6,0.2-6.7,0.2c-1.5,0-2.7,1.3-3.2,2.1c-0.1,0.2-0.3,1.5-0.1,1.9c0,0,1.8-1.7,2.5-1.7
						c0.9,0,4.3,0.1,6.4,0C266.2,155.8,266.2,153.8,266,153.3z"/>
					<path class="st14" d="M272.7,153.3c0,0,3.6,0.2,6.7,0.2c1.5,0,2.7,1.3,3.2,2.1c0.1,0.2,0.3,1.5,0.1,1.9c0,0-1.8-1.7-2.5-1.7
						c-0.9,0-4.3,0.1-6.4,0C272.5,155.8,272.5,153.8,272.7,153.3z"/>
					<g>
						<g>
							<path class="st0" d="M257.9,160.1c0.2,0.5,1.8,1.7,2.7,1.9c1.2,0.2,2.9,0.4,4.4-1.6C265,160.4,261.8,158.6,257.9,160.1z"/>
							<path class="st6" d="M261.8,158.9c-0.6,0-1.8,0.1-1.8,0.9c0,0.4,0.2,1,0.3,1.3c0.2,0.5,0.8,1.3,2.2,0.9
								c1.7-0.5,1.8-2.4,1.8-2.4S264.1,158.9,261.8,158.9z"/>
							<path class="st7" d="M261.9,159.3c-0.8,0.1-1.1,1-0.6,1.3c0.5,0.3,1.2,0.4,1.3-0.3C262.7,159.6,262.6,159.3,261.9,159.3z"/>
							<path class="st15" d="M256.9,160.7c0,0,4.5-2.2,8.3-0.2c0,0,0.7-0.8-0.3-1.3c-0.6-0.3-1.8-0.6-3-0.6
								C257.5,158.8,256.9,160.7,256.9,160.7z"/>
						</g>
					</g>
					<g>
						<path class="st6" d="M273.8,178.8c-0.3,0.7-1.2,2.5-3.9,2.7c-0.6,0-1.9-0.3-2.4-0.5c-1.6-0.8-2.3-2.2-2-2.2
							C267.5,179.3,272.1,179.2,273.8,178.8z"/>
					</g>
					<path class="st14" d="M291.8,146.9c0,0.2-1.2,8.4-1.6,9.7c-0.7,2-1.3,3.4-1.3,3.4l-0.8-1.8c-1.6-3.4-2.4-7.1-2.5-10.8l-0.1-7
						l2.3-2.1C292.4,139,292.9,141.7,291.8,146.9z"/>
					<path class="st14" d="M255.3,140.7L255.3,140.7l-1.1,7.3c-0.5,3.4-1.7,6.6-3.4,9.5l-0.1,0.2l-1.3,2.2c0,0-0.4-1.3-0.9-3.1
						c-0.4-1.3-1.3-8.2-1.6-9.2c-0.1-0.3-0.1-0.6-0.2-0.9c-1-5.1,0-7.3,4.5-8L255.3,140.7z"/>
					<path class="st14" d="M287.8,138.3l-2.3,2.1L281,142c-0.5-0.6-8.7-3.4-15.7-2.8c-8.9,0.7-10.1,3.3-10.3,3.4c0,0,0,0,0,0
						l-0.9-0.2l-4.4-1l-0.9-0.2c0,0,1-3.9,1.7-5c3.5-5.3,13.1-8.7,21.7-7.8c0.3,0,0.6,0.1,0.9,0.1c8.1,1.1,11.8,4.9,11.8,4.9
						L287.8,138.3z"/>
					<path class="st9" d="M272.8,170.5c-0.8-0.9-1.4-5.4-1.6-6.8c-0.1-0.6-0.8-1.1-1.6-1.1l0,0c-0.8,0-1.4,0.5-1.6,1.1
						c-0.3,1.4-0.8,5.9-1.6,6.8c-1.2,1.3-1.3,2-0.5,2.5c0.8,0.6,1.3,0.3,1.9,1c0.5,0.6,1.3,0.8,1.8,0.8c0.5,0,1.3-0.2,1.8-0.8
						c0.6-0.6,1-0.4,1.9-1C274.1,172.5,274.1,171.9,272.8,170.5z"/>
				</g>
				<path class="st3" d="M247.3,232.1c4.2,2.9,21.2,14.5,27.3,17.1c6.2,2.6,15.8,9.5,19.3,12.7c3.5,3.2,7.5,4.3,7.2,5.6
					c-0.3,1.3-6.9,14.8-9.7,14.3c-2.8-0.5-19.1-13.2-25.8-18.7c-6.7-5.5-15.5-18-19.9-20c-4.4-2-4.1-3.3-6.5-3.5
					c-2.5-0.2-2.1-0.1-4.3-0.8c-2.2-0.7-3.2-4.4-4.6-5.8c-1.4-1.3-3.6-2.8-3.2-3.7c0.4-0.9,0.7-2,5.8,0c0,0-4.8-2.7-7-3
					c-2.2-0.3-7.1-0.3-9.3-0.7c-2.2-0.3-3.8-2.1-2.1-2.4c1.6-0.4,8.6-1.3,11.2-0.8c2.6,0.4,10.7,0.8,13.7,1.7
					C242.6,225.1,244.8,230.3,247.3,232.1z"/>
				<g>
					<path id="XMLID_55_" class="st16" d="M247.6,258.5l-18.8,7.1c-1.9,0.7-5-0.3-6.8-2.2l-39.7-42.2c-1.8-1.9-1.7-4,0.2-4.7
						l18.5-7.1c3.7-0.6,5.9,0.1,7.8,2l39.6,41.9C250.4,255.1,250.6,256.6,247.6,258.5z"/>
					
						<linearGradient id="XMLID_2_" gradientUnits="userSpaceOnUse" x1="637.5314" y1="249.1503" x2="704.6354" y2="248.4439" gradientTransform="matrix(0.6544 -0.2963 0.7023 0.731 -408.8387 258.9827)">
						<stop  offset="0" style="stop-color:#EEF4FB"/>
						<stop  offset="0.3115" style="stop-color:#E3EDF8"/>
						<stop  offset="1" style="stop-color:#CFE1F3"/>
					</linearGradient>
					<path id="XMLID_37_" class="st17" d="M246.6,259l-18.8,7.1c-1.9,0.7-5-0.3-6.8-2.2l-39.9-42.4c-1.8-1.9-1.7-4,0.2-4.7l18.6-7.2
						c2-0.8,5.2,0.2,7,2.2l40,42.3C248.8,256,248.7,258.2,246.6,259z"/>
				</g>
				<path class="st3" d="M208.1,255.5c-2.8-0.8-6.4-1.1-7.4-2.9c-0.9-1.8-2.3-2.3-3.8-3.7c-1.5-1.4-0.6-2.8-2.5-4.4
					c-1.8-1.7,0-4.6-0.2-6.1c-0.2-1.5-0.3-4.6,0.3-7.4c0.6-2.8,3.1-3.4,6.3-4.4c3.2-1.1,5.5-1.1,5.5,0.6c0,1.7-3.4,4-3.4,4
					s5.5-1.8,7-2.5c1.5-0.6,4,0.8,2.9,2.8c-1.1,2-5.5,4.6-6.9,5.4c-1.4,0.8-2.1,2.3-2.1,2.3s4.1,0,7-1.2c2.9-1.2,5.5-4,7.5-2.8
					c2,1.2,0.9,2.8-1.1,4.4c0,0-4.3,2.9-5.7,3.5c0,0,4.3,0.2,6.4-0.8c2.1-0.9,3.2,0.2,2.6,1.8c-0.6,1.7-6.6,3.1-6.7,3.7
					c-0.2,0.6,1.1,2.1,1.8,4C216.7,253.6,208.1,255.5,208.1,255.5z"/>
				<path class="st3" d="M203.7,251c1.2,3.7,1.2,7.5,1.2,12.6c0,5.1-0.5,13.8,2.5,15.9c2.9,2.1,7,6.3,10.6,2.9
					c3.5-3.4,5.4-8.7,5.8-13.8c0.5-5.1-5.2-12.4-7.8-16.9L203.7,251z"/>
			</g>
			<g>
				<rect x="137.7" y="362" class="st18" width="474.6" height="15.2"/>
				<rect x="121.4" y="362" class="st19" width="507.2" height="10.1"/>
			</g>
			<g>
				<path class="st20" d="M497.2,167.3c-0.9,11.4,0.2,11.4,1.2,19.1c0.9,7.7,20.9,7.8,20.9,7.8s6.4,0.8,10.3,0.3
					c3.9-0.5,9.5-1.9,10.5-16c0.9-14.2-3.7-24.9-3.7-24.9l-34.7-3.3L497.2,167.3z"/>
				<path class="st3" d="M510.9,171.7c0,0,0.4,12.4-2.5,18c-2,3.9-9.4,5.2-9.4,5.2s-0.9,11.1,5.7,22.2c6.6,11.1,29.1,16.4,29.1,16.4
					s5-8.7,7.9-18.5c2.9-9.9,1.6-16.6,1.6-16.6s-10.6-3.7-13.4-5c-7-3.1-5.5-14.5-5.5-14.5L510.9,171.7z"/>
				<polygon id="XMLID_38_" class="st3" points="549.7,265.6 487.9,249.6 490.6,200.9 504,193.9 534.7,196.6 540.9,201.5 				"/>
				<path id="XMLID_241_" class="st3" d="M534.5,149.5c0.3,7.4,0.2,7.2-0.3,15.4c-0.5,7-2.5,11.4-3.5,14.4c-1,3.1-5.8,8.6-10.2,11
					c-0.9,0.5-3,0.7-4.7,0.2c-5.6-1.8-11.4-9.3-13.2-13.8c-1.3-3.3-2-9.3-2.1-14.9c-0.1-5.4-0.1-12.5,0-16.6
					C501.2,130.9,534.3,143.5,534.5,149.5z"/>
				<path class="st21" d="M497.9,203.2l1-8.4c0,0,10.6,9.9,19.6,9.9c12.9,0,14.2-9.9,14.2-9.9l4.7,0.7l-1.1,14.6l-9.7,56.7
					l-24.2-40.7L497.9,203.2z"/>
				<path class="st22" d="M566.9,269.3c-0.6-4.1-4-30.2-5-35.5c-2.4-12.6-5-21.6-7.9-26.4c-3-4.8-10.3-9.8-10.3-9.8l-4.4,26.7
					c0,0,3.4,31.7,8.2,39c1.7,2.5,6.7,4.4,8.3,6C556.2,267.3,564.9,276.5,566.9,269.3z"/>
				<path class="st22" d="M559.8,362.9c0.2-11.3-0.8-22.7-3.6-32.4c-1.1-3.8-2.1-7.5-3-10.9h-70c-2.2,10.3-4.2,20.8-4.2,31.9
					c0,4,0,7.8,0.1,11.5H559.8z"/>
				<path class="st21" d="M548.8,259.2c-2.1,8.9,5.8,54.5,7.6,66.6c0,0-5,9.8-34.3,11.5c-40.1,2.4-43-7.6-43-7.6
					c1.6-11.1,10.2-56,7.1-68.3c-3.9-15.4-5.9-34.3-5.9-34.3s0.8-22.3,2.1-26.2l16.6-6.1l29.5,54.4l9.1-53.7l6,2
					c1.3,3.9,5.3,21.4,7.8,29.8c1.3,4.1,2.6,9.8,1.5,17C552.2,249.5,550.3,252.8,548.8,259.2z"/>
				<path class="st22" d="M501.1,262.7c-0.8-13.9-0.4-28.3-1.2-37.7c-2-21.8-17.5-24.1-17.5-24.1s-4.5,0.5-5.6,14.1
					c-0.5,6.1-2.6,30.3-1,48.1c1.2,13.4,5.8,15.3,4.9,15.4c-1.2,0.1,20.2,6,25,3C503.1,272.8,501.3,274.9,501.1,262.7z"/>
				<path id="XMLID_286_" class="st23" d="M521.6,133.1c-2.3,1.4,1.7,6.7,2.3,9.8c0.6,3.1,7.5,8.7,9.3,18.1c2.2,11.9-3.8,29.2-6,35
					c0,0,5.5,0.2,9.9-4.6c3-3.3,5.2-8.6,5.2-15.2c0-6.6,0.4-22.3-3.6-32.3C535.6,135.7,527.2,129.9,521.6,133.1z"/>
				<path id="XMLID_285_" class="st23" d="M511.6,150.4c-8.5,3.7-9.3,11.1-9.8,19.2c-0.5,7.4-0.2,20.1,3,24c0,0-7,0.1-9.5-6.7
					c-2.5-6.9-1.7-33.5,0.7-40.2c2.4-6.7,7.5-11,13.5-13.7c6.7-3,17.9-2.8,18.6,1.4C528.8,138.4,521,146.3,511.6,150.4z"/>
				<path class="st3" d="M512.9,263.6c-1.5-3-4.8-6.6-5.4-10.2c-0.6-3.6-2.7-5.4-5.9-6.8c-3.2-1.4-6.2-2-7.9-2.5
					c-1.7-0.5-2.2,1.4,0.2,2.5c2.5,1.1,4.3,1.8,5.3,2.5c1,0.6,1.6,2.3,1.6,2.3s-3.8-1.7-7.5-1.6c-3.7,0.1-6.5-0.1-6.6,1
					c-0.1,1.1,1.6,2.2,5,2.3c3.4,0.1,5.5,0.6,6.3,1.5c0.7,0.9,1.8,1.3,1.8,1.3s-5.4-0.4-8.1-0.5c-2.7-0.1-4.8,2-3.2,2.6
					c1.6,0.6,4.8,0.4,7.3,0.5c2.5,0.1,4,2.8,4,2.8s-2.9,0.2-6,0.4c-3.1,0.1-4.2,1.2-2.2,2c2,0.7,6,0.3,8.2,0.6
					c2.2,0.3,6.7,1.8,6.7,1.8L512.9,263.6z"/>
				<g>
					<path class="st24" d="M512.2,276.7c-5.7,0.5-5.4-10.4-5.4-10.4s9.8-5.2,10.3-0.5C517.6,270.4,512.2,276.7,512.2,276.7z"/>
					<g>
						<path class="st3" d="M516.8,259.5c-3,0-7.9-3-12.6-0.1c-4.7,2.9-7.6,6-7.6,6s9.4-0.1,14.5,2.3c5.1,2.4,10.2,6.5,10.2,6.5
							L516.8,259.5z"/>
						<path class="st22" d="M516.8,259.5c1.4,2.3-5.9,15.4-6.5,17.7c0,0,9.6,2.8,23.7,3.4c16.4,0.7,28.3,0,32.1-2.6
							c3.8-2.6-0.8-20.8-10.5-17.1c-5.9,2.3-15.1,3.2-23.6,1.4C523.5,260.5,516.8,259.5,516.8,259.5z"/>
					</g>
				</g>
				<g>
					<g>
						<path class="st3" d="M529.9,259.2c3-0.3,7.6-3.9,12.5-1.5c5,2.3,8.3,5.1,8.3,5.1s-9.4,0.9-14.2,3.9c-4.8,3-9.4,7.7-9.4,7.7
							L529.9,259.2z"/>
						<path class="st22" d="M529.9,259.2c3.8,1.3,8.5,4,8.5,16.8c0,0-9.2,3.8-23.2,6.1c-16.2,2.6-28.1,0-32.1-2.1
							c-4-2.1-1.9-21.1,6.6-18.8c6.1,1.6,17.2,5.3,25.4,2.6C523.4,260.9,529.9,259.2,529.9,259.2z"/>
					</g>
				</g>
				<path class="st23" d="M506.5,140.7c0.5,3-0.5,13,1.9,12.6c1.2-0.2,14.4-1.2,20.7,0.2c0,0,6.7-16.7-1.2-18.1
					C520,134,506.5,140.7,506.5,140.7z"/>
				<g>
					<g id="XMLID_62_">
						<g id="XMLID_64_">
							<g id="XMLID_66_">
								<path id="XMLID_69_" class="st0" d="M526.5,166.5c-5.2-0.1-5.5-1.1-5.5-1.1l0.3-0.4c0.7-1.1,1.9-1.7,3.2-1.7h2.2l1.8,1.3
									C528.6,164.5,530.1,166.6,526.5,166.5z"/>
								<path id="XMLID_68_" class="st25" d="M526.5,164.5c0,0.9-0.7,1.6-1.6,1.6c-0.9,0-1.6-0.7-1.6-1.6c0-0.9,0.7-1.6,1.6-1.6
									C525.8,162.8,526.5,163.6,526.5,164.5z"/>
								<path id="XMLID_67_" class="st26" d="M525.7,163.8c0,0.4-0.2,0.7-0.4,0.7c-0.2,0-0.4-0.3-0.4-0.7c0-0.4,0.2-0.7,0.4-0.7
									C525.5,163.2,525.7,163.5,525.7,163.8z"/>
							</g>
							<path id="XMLID_65_" class="st27" d="M520.9,165.4c0,0,2.4-3.5,6.2-2.5c2.1,0.5,1.5,1.3,3.2,0.8c0,0-0.7,0.9-1.4,1
								c-1.1,0.1-1.1-0.7-2.9-1C523.2,163.3,520.9,165.4,520.9,165.4z"/>
						</g>
						<path id="XMLID_63_" class="st27" d="M520.2,160.6c0,0,1.1-1.9,1.7-2.1c1.9-0.5,3.6-0.2,5.2-0.2c1.6,0,3.2,1.6,3.8,2.8
							c0,0-1.7-1.4-3.7-1.3C525.7,159.9,524.5,159.9,520.2,160.6z"/>
					</g>
					<g id="XMLID_52_">
						<g id="XMLID_54_">
							<g id="XMLID_57_">
								<path id="XMLID_61_" class="st0" d="M509.1,166.5c5.2-0.1,5.5-1.1,5.5-1.1l-0.3-0.4c-0.7-1.1-1.9-1.7-3.2-1.7h-2.2l-1.8,1.3
									C507,164.5,505.5,166.6,509.1,166.5z"/>
								<path id="XMLID_59_" class="st25" d="M509.1,164.5c0,0.9,0.7,1.6,1.6,1.6c0.9,0,1.6-0.7,1.6-1.6c0-0.9-0.7-1.6-1.6-1.6
									C509.8,162.8,509.1,163.6,509.1,164.5z"/>
								<path id="XMLID_58_" class="st26" d="M509.9,163.8c0,0.4,0.2,0.7,0.4,0.7c0.2,0,0.4-0.3,0.4-0.7c0-0.4-0.2-0.7-0.4-0.7
									C510.1,163.2,509.9,163.5,509.9,163.8z"/>
							</g>
							<path id="XMLID_56_" class="st27" d="M514.7,165.4c0,0-2.4-3.5-6.2-2.5c-2.1,0.5-1.5,1.3-3.2,0.8c0,0,0.7,0.9,1.4,1
								c1.1,0.1,1.1-0.7,2.9-1C512.4,163.3,514.7,165.4,514.7,165.4z"/>
						</g>
						<path id="XMLID_53_" class="st27" d="M515.3,160.5c0,0-1.1-1.9-1.8-2.1c-2-0.5-3.6-0.1-5.2-0.1c-1.6,0-3.1,1.6-3.8,2.9
							c0,0,1.7-1.4,3.6-1.4C509.9,159.9,511.1,159.9,515.3,160.5z"/>
					</g>
					<path class="st28" d="M520.6,173.3c-0.7-0.8-1.1-3.3-1.3-4.9c-0.1-0.8-0.7-1.3-1.5-1.3l0,0c-0.8,0-1.4,0.6-1.5,1.3
						c-0.2,1.6-0.6,4-1.3,4.9c-1,1.2-1,1.8-0.3,2.3c0.7,0.5,1.1-0.2,1.6,0.3c0.4,0.5,1.1,0.7,1.5,0.7c0.4,0,1-0.2,1.5-0.7
						c0.5-0.5,0.9,0.1,1.6-0.3C521.5,175.1,521.5,174.5,520.6,173.3z"/>
					<g>
						<path class="st28" d="M508.1,168.6c0,0,1.5,0.6,3.4,0.1C511.5,168.8,509.8,171.3,508.1,168.6z"/>
						<path class="st28" d="M527.5,168.6c0,0-1.5,0.7-3.4,0.3C524.1,168.9,526,171.3,527.5,168.6z"/>
					</g>
					<g id="XMLID_46_">
						<g id="XMLID_48_">
							<g id="XMLID_49_">
								<path id="XMLID_51_" class="st29" d="M514.5,178.9c-0.4-0.1-0.6-0.1-0.9-0.2c0,0,1.1,1.6,2.7,2.9c1.2,0.9,2.7,0.7,3.9-0.1
									c1.1-0.8,2.7-2.9,2.7-2.9s-2,0.9-3.2,0.7C518.4,179,514.5,178.9,514.5,178.9z"/>
								<path id="XMLID_50_" class="st29" d="M515.9,178.8c0.8-0.2,1.2-0.3,1.6-0.3c0.4,0.2,0.8,0.2,1.2,0.1c0.7-0.3,1.4,0,1.8,0
									c1.7,0.3,2.4-0.1,2.4-0.1s-0.5,0.5-1.2,0.6c-0.7,0.2-1.2,0.5-1.9,0.6c-0.6,0.1-0.8,0.1-1.5,0.1c-1.1,0-1.2,0-2.2-0.2
									c-1.1-0.2-1.9-0.4-2.5-1C513.5,178.7,514.4,179.2,515.9,178.8z"/>
							</g>
						</g>
						<path id="XMLID_47_" class="st30" d="M514.1,179.2c0.1,0.1,1.3,0.9,2.5,1.2c1.3,0.3,2.2,0.1,2.9,0c1.1-0.2,2.5-1.2,2.5-1.2
							s-1.7,0.7-3,0.4c-1.9-0.3-1.9,0.1-3.4,0C515,179.5,514.1,179.2,514.1,179.2z"/>
					</g>
				</g>
				<path class="st22" d="M499.8,194.3c0,0-7.4,11.9,14.2,17.7c0,0,3.4-2.6,5.5-7.8C519.5,204.2,506.9,203,499.8,194.3z"/>
				<path class="st22" d="M532.8,194.9c0,0,7.6,11.1-8.8,17.1c0,0-3.4-2.6-5.5-7.8C518.6,204.2,525.7,203.6,532.8,194.9z"/>
			</g>
			<g>
				<g>
					<path class="st31" d="M584.8,348.3c-2.2-8.9-3.7-17.7-6.6-26.4c-2.4-7.3-7-16.2-11.3-19.3c-4.7-3.4-0.3,11,3.6,15.5
						c-2.7,1.6-1.6,4.7-0.1,6.8c0.9,1.3,5.2,4.8,5.2,6.4c0,0.7-1.5,1.9-1.5,3.1c0.1,2.1,2.4,3.9,3.6,5.5c3.3,4.4,5.9,9.2,8.2,14.1
						C585.6,352,585.2,350.1,584.8,348.3z"/>
				</g>
				<g>
					<path class="st32" d="M585.1,345.2c-1.9-12.7,6.6-22.8,19-24.7c1.6-0.2,11-1.5,11.8,0.3c1.5,3.2-9,4-10.3,4.3
						c5.8,3.4-8.8,6.3-11.1,7.6c4,2.2,0.2,3.9-1.9,5.6c-3.3,2.6-6.3,7-7,11.1C585.2,348,585.1,346.6,585.1,345.2z"/>
					<g>
						<path class="st32" d="M586,347.2c-1.7-4.4-2.8-9-5.3-12.9c-1.6-2.5-3.8-4.8-5.8-7.1c-5.2-5.8-12.1-8.4-19.8-8.9
							c1,5.7,4.5,7.6,9.6,9.5c-6.2,3.2,7.2,6.9,9.5,8c-3.7,2.5,1.4,4.4,3.4,5.6c4,2.4,7.3,5.9,9.8,9.9
							C586.9,349.9,586.5,348.5,586,347.2z"/>
					</g>
				</g>
				<path class="st33" d="M584,346.9c0.1-2.9,0.3-5.7,0.6-8.6c0.2-2,0.5-4.1,1-6.1c0.5-2,1.6-3.8,1.9-5.8c0.3-2.4-0.7-4.4-0.8-6.7
					c0-1.4,0.9-2.8,1.1-4.3c0.4-2.6-0.4-4.8-1.8-6.9c-0.8-1.2-0.8-0.7-1-1.9c-0.5-3.1,0.4-6.1-1-9.2c-0.7-1.7-1.7-3.1-3.3-4.1
					c-2-1.2-2-0.5-2.6,1.4c-0.8,2.8-1.2,5.8-0.7,8.6c0.2,1.3,1.5,3.4,1.4,4.6c0,0.4-1.1,1.5-1.2,1.9c-0.5,1.1-0.6,2.3-0.5,3.5
					c0.2,2,1.6,3.9,1.8,5.8c0.3,2.3-0.7,4.8-0.4,7.2c0.3,2.5,1.2,4.9,1.7,7.3c1.4,6.4,2.6,13.1,2.3,19.6
					C584,352.1,583.9,348.6,584,346.9z"/>
				<path class="st32" d="M583.2,345.7c0.2-2.9,0.2-5.8,0.1-8.6c-0.2-3.8-2.5-7.9-2-11.5c0.2-1.4,1.4-3.1,1.5-4.4
					c0.1-1.4-1.1-3-1-4.6c0.2-3.3,3.3-4.3,4-6.6c0.8-2.7,0.2-5.3,2-7.9c1-1.4,2.3-2.5,3.9-3.1c2.2-0.8,2.3-0.5,2.8,1.6
					c0.6,2.5,0.8,5.2-0.1,7.6c-0.3,1-2,3.1-2,3.9c0.1,1.5,1.8,2.4,1.6,4.4c-0.3,2.1-2.2,3.6-2.6,5.4c-0.4,1.7,0.3,3.9-0.1,5.8
					c-0.5,2.2-1.7,4.3-2.5,6.5c-2.1,5.5-4.2,11.4-4.5,17.4C582.9,350.4,583.2,347.3,583.2,345.7z"/>
				<path class="st31" d="M583.6,344.2c1.3-10.7,4.7-23,13-30.5c2.4-2.1,5.1-3.9,8.2-4.7c0.6-0.2,3.7-1.1,4.2-0.5
					c0.9,0.9-1,4-1.5,4.6c-1.3,1.5-3.4,2.3-5.2,3.3c4.2,4.7-5.8,8.8-8.6,11.1c3.3,3.5-0.9,6-3.1,8.6c-3.3,3.9-6,8.9-7.4,13.8
					C583.1,348,583.3,346.1,583.6,344.2z"/>
				<polygon class="st0" points="587.6,361.4 575.6,361.4 571.9,340.2 591.7,340.2 				"/>
				<polygon class="st34" points="589.3,361.4 577.3,361.4 573.6,340.2 593.4,340.2 				"/>
			</g>
			<g>
				<g>
					
						<rect x="413.6" y="358.4" transform="matrix(-1 -1.224647e-16 1.224647e-16 -1 875.0366 721.0948)" class="st0" width="47.9" height="4.3"/>
					<polygon class="st0" points="439.5,359.7 457.6,359.7 475.6,302.6 461.9,302.6 					"/>
					<polygon class="st34" points="444.7,359.7 515.2,359.7 533.3,302.6 462.8,302.6 					"/>
					
						<rect x="439.5" y="358.4" transform="matrix(-1 -1.224647e-16 1.224647e-16 -1 955.6723 721.0948)" class="st34" width="76.6" height="4.3"/>
					<path class="st35" d="M483.4,333.9c-2,4.4-0.6,9.1,3.2,10.6c3.8,1.5,8.6-0.9,10.6-5.3c2-4.4,0.6-9.1-3.2-10.6
						C490.2,327.2,485.5,329.5,483.4,333.9z"/>
				</g>
			</g>
			<g>
				<g>
					<g>
						<path class="st0" d="M176.3,360.2h-5.7c-2.4,0-4.4-1.7-4.7-4l-2.3-14.7h19.7l-2.3,14.7C180.6,358.5,178.6,360.2,176.3,360.2z"
							/>
						<g>
							<path class="st0" d="M181.5,357.1c-0.2,0-0.4,0-0.6,0l-0.3,0l-0.2-0.2c-0.1-0.1-3.5-2.7-3.5-6.4c0-3.8,2.5-6.9,5.6-6.9
								c1.9,0,3.5,0.7,4.6,1.9c0.7,0.9,1.5,2.5,1.1,5.1l0,0C187.5,354.7,185.1,357.1,181.5,357.1z M181.3,355.3
								c3.6,0.1,4.7-2.6,5.2-5l0,0c0.3-1.6,0.1-2.8-0.7-3.7c-0.7-0.8-1.9-1.3-3.2-1.3c-2.1,0-3.9,2.3-3.9,5.1
								C178.7,352.8,180.7,354.7,181.3,355.3z"/>
						</g>
					</g>
					<polygon class="st34" points="161.6,361.5 186.6,361.5 190.5,357.1 157.6,357.1 					"/>
				</g>
				<g>
					<g>
						<path class="st0" d="M331.1,360.2h5.7c2.4,0,4.4-1.7,4.7-4l2.3-14.7h-19.7l2.3,14.7C326.7,358.5,328.7,360.2,331.1,360.2z"/>
						<g>
							<path class="st0" d="M319.1,350.6L319.1,350.6c-0.5-2.6,0.3-4.2,1.1-5.1c1-1.2,2.7-1.9,4.6-1.9c3.1,0,5.6,3.1,5.6,6.9
								c0,3.7-3.3,6.3-3.5,6.4l-0.2,0.2l-0.3,0c-0.2,0-0.4,0-0.6,0C322.2,357.1,319.8,354.7,319.1,350.6z M328.6,350.4
								c0-2.8-1.7-5.1-3.9-5.1c-1.3,0-2.5,0.5-3.2,1.3c-0.7,0.9-0.9,2.1-0.7,3.7l0,0c0.4,2.4,1.6,5.1,5.2,5
								C326.6,354.7,328.6,352.8,328.6,350.4z"/>
						</g>
					</g>
					<polygon class="st34" points="345.7,361.5 320.8,361.5 316.8,357.1 349.7,357.1 					"/>
				</g>
			</g>
		</g>
	</g>
</g>
<g id="DESIGNED_BY_FREEPIK">
</g>
</svg>
