<?xml version="1.0" encoding="utf-8"?>
<!-- Generator: Adobe Illustrator 24.2.1, SVG Export Plug-In . SVG Version: 6.00 Build 0)  -->
<svg version="1.1" id="Ñëîé_1" xmlns="http://www.w3.org/2000/svg" xmlns:xlink="http://www.w3.org/1999/xlink" x="0px" y="0px"
	 viewBox="0 0 3800 2000" style="enable-background:new 0 0 3800 2000;" xml:space="preserve">
<style type="text/css">
	.st0{fill:#FFFFFF;}
	.st1{fill:#A2C3F2;}
	.st2{fill:#9B453A;}
	.st3{fill:#F69D85;}
	.st4{fill:#FF593A;}
	.st5{fill:#404D7F;}
	.st6{fill:#606A97;}
	.st7{fill:#30313C;}
	.st8{fill:#D1836B;}
	.st9{fill:#E58A76;}
	.st10{fill:#AF5945;}
	.st11{fill:#5E3628;}
	.st12{fill:#F1F3F2;}
	.st13{fill:#64656E;}
	.st14{fill:#305777;}
	.st15{fill:#2A3047;}
	.st16{fill:#3E8EDD;}
	.st17{fill:#B74F2A;}
	.st18{fill:#FFB12A;}
	.st19{fill:#818496;}
	.st20{fill:#997243;}
	.st21{fill:#60BF60;}
	.st22{fill:#349334;}
	.st23{fill:#B3D9FF;}
</style>
<rect id="_x31_0" class="st0" width="3800" height="2000"/>
<g>
	<path id="_x39_" class="st1" d="M398.7,1844c0,0-363.1-267.9-121.1-630.9s227.9-407.9,181.1-624.9
		C394.5,290.5,619,8.5,1058.3,246.9c390.7,211.9,481.1,233.7,752.8,192.1c271.7-41.6,387.5-305.9,739.5-281.3
		c402.9,28.1,399.6,407.4,735.9,552.3c351.2,151.3,429.9,660.2,148.2,1130.7L398.7,1844z"/>
	<g id="_x38_">
		<path class="st2" d="M1574.9,1444c0,0,7.3,31.7-17.7,53C1557.2,1497,1537.4,1466,1574.9,1444z"/>
		<path class="st3" d="M1592.4,1461.6l-108.5-40.2l-65.9-131.7c-5.4-10.7-18.4-15.1-29.2-9.7c-10.7,5.4-15.1,18.4-9.7,29.2
			l69.7,139.4l0.5,0.9c2.4,4.8,6.8,8.6,12.4,10.1l121.1,32.4c7.8,2.1,16.2-2.1,19.1-9.9C1604.8,1473.8,1600.6,1464.7,1592.4,1461.6z
			"/>
		<path class="st3" d="M1422.6,1635.5c-3.3,21.1-19,163.7-27.9,183.7c-9.8,18.3-38.9,15.3-45-4.3c-3.8-11-3-171.1-2.5-181.6
			C1353.7,1559.9,1427.2,1570.7,1422.6,1635.5z"/>
		<path class="st4" d="M1444.3,1260.1c0,0,24,9.2,39.8,44.3c14.4,32,14.6,104.5,14.6,104.5l76.2,35.1c0,0-21.9,21.7-17.7,53
			c0,0-87.9-4.4-135.7-21.3C1401.2,1468.5,1444.3,1260.1,1444.3,1260.1z"/>
		<path class="st5" d="M1346.5,1834c0.4,1.3,0.9,2.6,1.7,3.7c1.9,2.7,5,4.5,8.5,4.5l80.4,0.2c4,0,7-2.3,8.6-5.4c0.5-0.9,0.8-1.9,1-3
			c0.5-3.1-0.4-6.5-3.2-9l-11.1-10.1l-11.9-10.8c-37.2,5.6-72.8-4.4-72.8-4.4l-0.9,17.5l-0.7,13.4
			C1346.1,1831.7,1346.2,1832.9,1346.5,1834z"/>
		<path class="st5" d="M1427.1,1810c0,0-16.8-15.4-21.8-19.1c-5-3.7-17.5,0.9-16.2,6s10,13.2,10,13.2L1427.1,1810z"/>
		<path class="st6" d="M1346.5,1834c1.2,4.7,5.3,8.1,10.3,8.1l80.4,0.2c5.2,0,8.8-3.9,9.5-8.4L1346.5,1834z"/>
		<path class="st6" d="M1418.9,1833.9l12.2,5.2l14.5-2.2c0.5-0.9,0.8-1.9,1-3c0.5-3.1-0.4-6.5-3.2-9l-11.1-10.1
			C1432.4,1814.8,1418.9,1817.1,1418.9,1833.9z"/>
		<path class="st6" d="M1346.5,1834c0.4,1.3,0.9,2.6,1.7,3.7l19.5-3.7c0-16.4-20.9-16.9-20.9-16.9l-0.7,13.4
			C1346.1,1831.7,1346.2,1832.9,1346.5,1834z"/>
		<path class="st0" d="M1414.3,1820c-0.1,0-0.2,0-0.2-0.1c-0.5-0.2-0.7-0.8-0.4-1.3c4-8,12.9-9.5,13.3-9.6c0.5-0.1,1,0.3,1.1,0.8
			c0.1,0.5-0.3,1-0.8,1.1c-0.1,0-8.3,1.5-11.9,8.6C1415.1,1819.9,1414.7,1820.1,1414.3,1820z"/>
		<path class="st0" d="M1408.4,1814.6c-0.1,0-0.2,0-0.2-0.1c-0.5-0.2-0.7-0.8-0.4-1.3c4-8,12.9-9.5,13.3-9.6c0.5-0.1,1,0.3,1.1,0.8
			c0.1,0.5-0.3,1-0.8,1.1c-0.1,0-8.3,1.5-11.9,8.6C1409.2,1814.5,1408.8,1814.7,1408.4,1814.6z"/>
		<path class="st0" d="M1402.8,1809.5c-0.1,0-0.2,0-0.2-0.1c-0.5-0.2-0.7-0.8-0.4-1.3c4-8,12.9-9.5,13.3-9.6c0.5-0.1,1,0.3,1.1,0.8
			c0.1,0.5-0.3,1-0.8,1.1c-0.1,0-8.3,1.5-11.9,8.6C1403.6,1809.4,1403.2,1809.6,1402.8,1809.5z"/>
		<path class="st3" d="M1288.7,1636.4c-12.6,17.4-92.9,145.9-110.2,159.7c-17.1,11.9-41.7-4.2-38-24.4c1.7-11.6,83.6-171.3,89-180.5
			C1269.2,1528.4,1362.8,1524.7,1288.7,1636.4z"/>
		<path class="st5" d="M1129.2,1789.3c-0.2,1.4-0.2,2.7,0.1,4c0.7,3.2,2.9,6.1,6.1,7.5l73.7,31.9c3.7,1.6,7.4,0.7,10-1.5
			c0.8-0.7,1.5-1.5,2.1-2.4c1.7-2.7,2.2-6.2,0.7-9.6l-6.2-13.6l-6.7-14.7c-36.4-9.6-65.1-32.8-65.1-32.8l-7.7,15.8l-5.9,12.1
			C1129.7,1787.1,1129.4,1788.2,1129.2,1789.3z"/>
		<path class="st5" d="M1212.7,1799.2c0,0-9.3-20.8-12.5-26.2c-3.1-5.4-16.5-6.1-17.2-0.8c-0.8,5.2,4,16.1,4,16.1L1212.7,1799.2z"/>
		<path class="st6" d="M1129.2,1789.3c-0.7,4.8,1.7,9.5,6.2,11.5l73.7,31.9c4.8,2.1,9.6-0.1,12.1-3.9L1129.2,1789.3z"/>
		<path class="st6" d="M1195.8,1817.9l9.2,9.6l14.2,3.7c0.8-0.7,1.5-1.5,2.1-2.4c1.7-2.7,2.2-6.2,0.7-9.6l-6.2-13.6
			C1215.7,1805.7,1202.4,1802.5,1195.8,1817.9z"/>
		<path class="st6" d="M1129.2,1789.3c-0.2,1.4-0.2,2.7,0.1,4l19.4,4.3c6.5-15.1-12.5-23.7-12.5-23.7l-5.9,12.1
			C1129.7,1787.1,1129.4,1788.2,1129.2,1789.3z"/>
		<path class="st0" d="M1197.2,1803.4c-0.1-0.1-0.3-0.1-0.4-0.3c-0.3-0.4-0.3-1,0.1-1.3c6.9-5.7,15.7-3.6,16-3.5
			c0.5,0.1,0.8,0.6,0.7,1.2c-0.1,0.5-0.6,0.8-1.2,0.7c-0.1,0-8.2-1.9-14.3,3.1C1197.9,1803.5,1197.5,1803.5,1197.2,1803.4z"/>
		<path class="st0" d="M1193.9,1796.1c-0.1-0.1-0.3-0.1-0.4-0.3c-0.3-0.4-0.3-1,0.1-1.3c6.9-5.7,15.7-3.6,16-3.5
			c0.5,0.1,0.8,0.6,0.7,1.2c-0.1,0.5-0.6,0.8-1.2,0.7c-0.1,0-8.2-1.9-14.3,3.1C1194.6,1796.2,1194.2,1796.2,1193.9,1796.1z"/>
		<path class="st0" d="M1190.8,1789.2c-0.1-0.1-0.3-0.1-0.4-0.3c-0.3-0.4-0.3-1,0.1-1.3c6.9-5.7,15.7-3.6,16-3.5
			c0.5,0.1,0.8,0.6,0.7,1.2c-0.1,0.5-0.6,0.8-1.2,0.7c-0.1,0-8.2-1.9-14.3,3.1C1191.5,1789.3,1191.1,1789.3,1190.8,1789.2z"/>
		<path class="st7" d="M1225.6,1453.4c-13.2,38.6-30,116.1-30,116.1l-17.2,59.9c0,0,51.6,35.9,120.8,31.3l60.1-176.3
			C1359.2,1484.4,1236.3,1422,1225.6,1453.4z"/>
		<path class="st7" d="M1442.5,1477.2c0,0,3.7,73.3,3,109.1c-0.9,42.5-5.3,86.1-5.3,86.1s-49.1,19.5-123-6.9l-1.3-192.4
			L1442.5,1477.2z"/>
		<path class="st3" d="M1331.7,1504.4l2.8,0.9c43,14.2,88.7-6.9,102-47.1l28.4-85.7c13.3-40.3-2.1-110.4-45.1-124.6l-2.8-0.9
			c-35.9-11.9-88.7,6.9-102,47.1l-37,111.6C1264.6,1446,1288.7,1490.2,1331.7,1504.4z"/>
		
			<rect x="1378.7" y="1198.2" transform="matrix(0.3143 -0.9493 0.9493 0.3143 -187.4702 2194.2766)" class="st3" width="92.9" height="57.4"/>
		<path class="st8" d="M1405.2,1229.5c19,19.6,41.3,24.2,41.3,24.2l4-11.9l1.5-5.1L1405.2,1229.5z"/>
		<path class="st3" d="M1438.9,1241.5L1438.9,1241.5c41.6,3.8,79.1-26.9,83.6-68.5l4.3-39.1c4.6-41.6-25.5-78.5-67.1-82.3h0
			c-41.6-3.8-79.1,26.9-83.6,68.5l-4.3,39.1C1367.3,1200.9,1397.3,1237.7,1438.9,1241.5z"/>
		<path class="st3" d="M1347.2,1144.3c-1.2,11.3,6.7,21.4,17.8,22.4c11.1,1,21-7.4,22.3-18.7c1.2-11.3-6.7-21.4-17.8-22.4
			C1358.4,1124.5,1348.4,1132.9,1347.2,1144.3z"/>
		
			<ellipse transform="matrix(0.3818 -0.9243 0.9243 0.3818 -132.9082 2127.2722)" class="st3" cx="1523.7" cy="1163" rx="20.7" ry="20"/>
		<path class="st7" d="M1438.5,1141.1c-0.6,5.8-3.5,10.2-6.3,10c-2.9-0.3-4.7-5.1-4-10.9c0.6-5.8,3.5-10.2,6.3-10
			C1437.4,1130.4,1439.2,1135.3,1438.5,1141.1z"/>
		<path class="st7" d="M1484,1145.2c-0.6,5.8-3.5,10.2-6.3,10c-2.9-0.3-4.7-5.1-4-10.9c0.6-5.8,3.5-10.2,6.3-10
			S1484.7,1139.5,1484,1145.2z"/>
		<path class="st9" d="M1403.8,1158.7c-1.1,4,1.5,8.2,5.8,9.3c4.3,1.1,8.6-1.2,9.7-5.3c1.1-4-1.5-8.2-5.8-9.3
			C1409.2,1152.3,1404.8,1154.7,1403.8,1158.7z"/>
		<path class="st9" d="M1488.2,1169.8c-1.1,4,1.5,8.2,5.8,9.3c4.3,1.1,8.6-1.2,9.7-5.3c1.1-4-1.5-8.2-5.8-9.3
			C1493.6,1163.5,1489.2,1165.8,1488.2,1169.8z"/>
		<path class="st10" d="M1521.8,1175c-0.5-0.2-0.9-0.7-0.8-1.3c0.9-7.8,6.2-8.8,9.7-9.5c3.2-0.6,4.2-0.9,3.8-3.3
			c-1.2-7.3-9.4-8.6-9.8-8.6c-0.7-0.1-1.1-0.7-1-1.4c0.1-0.7,0.7-1.1,1.3-1c0.1,0,10.3,1.6,11.8,10.6c0.8,4.9-2.8,5.5-5.7,6.1
			c-3.5,0.6-7.1,1.3-7.8,7.4c-0.1,0.7-0.7,1.1-1.3,1C1521.9,1175.1,1521.8,1175,1521.8,1175z"/>
		<path class="st10" d="M1364,1159.3C1364,1159.3,1364,1159.3,1364,1159.3c-0.7-0.2-1-0.9-0.8-1.5c2-5.8-0.9-7.9-3.8-9.9
			c-2.4-1.7-5.4-3.8-2.5-7.9c5.3-7.5,14.9-4.7,15.3-4.6c0.6,0.2,1,0.9,0.8,1.5c-0.2,0.6-0.8,1-1.5,0.8c-0.3-0.1-8.4-2.4-12.7,3.7
			c-1.4,2.1-0.7,2.7,1.9,4.6c2.9,2.1,7.3,5.2,4.6,12.6C1365.3,1159.1,1364.6,1159.5,1364,1159.3z"/>
		<path class="st10" d="M1452.9,1175.9c-0.4-0.1-0.8-0.5-0.8-0.9c-0.1-0.6,0.3-1.3,1-1.4c2.8-0.5,8.7-2.3,8.7-4.7
			c0-3.3-3.3-17.5-5.1-24.5c-0.2-0.6,0.2-1.3,0.9-1.4c0.6-0.2,1.3,0.2,1.4,0.9c0.2,0.8,5.2,20.7,5.2,25.1c0,5.1-9.6,6.9-10.7,7.1
			C1453.2,1176,1453,1176,1452.9,1175.9z"/>
		<path class="st4" d="M1389.5,1243.1c0,0,16.7,22.3,34.9,25.2c16,2.5,19.9-8.2,19.9-8.2s32.2,35.4,30.8,100
			c-1.4,60.5-13.3,141.8-24.1,180c0,0-140.5,26-243.8-47.5c0,0,24.1-90.3,44.1-135.4C1291.3,1267.1,1325.3,1242.6,1389.5,1243.1z"/>
		<path class="st10" d="M1446,1115.5c0.7,0.3,1.1,1,1.1,1.8c0,1.1-1,2-2.1,1.9c-0.1,0-14.5-0.4-24.2,4.9c-1,0.5-2.2,0.2-2.7-0.8
			c-0.5-1-0.2-2.2,0.8-2.7c10.6-5.8,25.6-5.4,26.2-5.4C1445.5,1115.3,1445.8,1115.4,1446,1115.5z"/>
		<path class="st10" d="M1491.5,1132.6c-0.5-0.1-0.9-0.3-1.2-0.7c-6.8-8.2-19.9-9.5-20-9.5c-1.1-0.1-1.9-1.1-1.8-2.2
			c0.1-1.1,1.1-1.9,2.2-1.8c0.6,0.1,14.8,1.4,22.7,10.9c0.7,0.8,0.6,2.1-0.3,2.8C1492.6,1132.6,1492.1,1132.7,1491.5,1132.6z"/>
		<path class="st11" d="M1405.4,1047.8c-12.9-34.6,18-54.1,45.5-20c11.7-43.7,63.3-33,37.9,9c0,0,11.1-16.6,36.8-9.5
			c25.8,7,13,35.2-9.3,39.7c24.6-6.7,54.9,25.6,24.5,38.7c-0.7,8.9-3,25.8-14.9,36.8c0,0-3.1-22.4-12.8-35.6c0,0-8.7,3.1-22.5-2.2
			c-31.6-12.1-41.9-31.7-41.9-31.7c-3.8,13.3-26.6,27.9-49,21.7c0,0-14.6,9.8-23.9,32.7c0,0-20.2-24.5,1.1-44.3
			C1363.8,1070.5,1372.3,1038.2,1405.4,1047.8z"/>
		<path class="st3" d="M1567.2,1466.5c0,0,17.5-4.7,31,1.5c13.6,6.2,17.5,11.7,19,17.9c1.5,6.2-25.3,9.6-34.6,6.1
			C1573.4,1488.4,1564.2,1480.6,1567.2,1466.5z"/>
		<path class="st3" d="M1573.3,1463.4c10.4-3.3,21.5-4.5,32.3-3.5c1.4,0.2,3.6,0.4,5,0.8c2.8,0.2,6.2,1.7,5.5,5.1
			c-0.6,3.1-3.9,3.3-6.4,3c-10.7-0.3-21.5,2.4-31.1,7.1C1569.4,1481.5,1562.9,1466.2,1573.3,1463.4z"/>
		<path class="st3" d="M1598.5,1468c10.7,3.6,22.3,5.2,33.6,4.5c4.2-0.4,5.2,6.2,1.1,7c-4.6,1.2-9.3,1.9-14.1,2.3
			c-8.3,0.6-16.8,0.5-25-1C1584.2,1478.6,1589.3,1463.7,1598.5,1468z"/>
		<path class="st3" d="M1602.3,1473.4c6.8,3.3,14.3,5.4,21.8,6.5c4.2,1.6,13.7-1.9,14.3,4.2c0,6.2-17.3,4.6-21.9,4.9
			c-6.9-0.4-13.8-1.3-20.4-3.4C1586.3,1482,1593.7,1467.5,1602.3,1473.4z"/>
		<path class="st3" d="M1601.5,1478.9c9.1,6.3,20.2,10,31.3,10c4.2,0,4.7,6.5,0.5,7.1c-4.8,0.8-9.8,1.1-14.7,0.7
			c-9-0.8-18.1-3-26.1-7.4C1582.7,1483.5,1594.4,1470,1601.5,1478.9z"/>
		<path class="st3" d="M1586.7,1481c8.6,7.6,19.3,13.2,30.6,15.4c4.3,2,14.9-1.5,15.4,4.4c-0.4,8-24.4,3.5-29.8,2
			c-9.1-2.6-17.9-6.5-25.6-12.1C1569.4,1484.5,1580.2,1473.3,1586.7,1481z"/>
		<path class="st10" d="M1618.1,1480.2c-2.7-0.4-5.5-1-8-1.9c-0.3-0.1-0.5-0.5-0.4-0.8c0.1-0.3,0.5-0.5,0.8-0.4
			c7.4,2.7,18.1,2.6,18.2,2.6c0.4,0,0.7,0.3,0.7,0.7c0,0.4-0.3,0.7-0.7,0.7C1628.5,1481,1623.6,1481,1618.1,1480.2z"/>
		<path class="st10" d="M1619.6,1488.3c-2.5-0.4-5.2-0.9-7.5-1.6c-0.3-0.1-0.5-0.5-0.4-0.8c0.1-0.3,0.5-0.5,0.8-0.4
			c6.1,1.9,15.7,2.5,15.8,2.5c0.4,0,0.6,0.3,0.6,0.7c0,0.4-0.3,0.6-0.7,0.6C1627.9,1489.2,1624,1489,1619.6,1488.3z"/>
		<path class="st10" d="M1619.2,1497.2C1619.2,1497.2,1619.2,1497.2,1619.2,1497.2c-0.3-0.1-7.2-1.3-12.1-3.4
			c-0.3-0.1-0.5-0.5-0.3-0.9c0.1-0.3,0.5-0.5,0.9-0.3c4.7,2.1,11.7,3.3,11.8,3.3c0.4,0.1,0.6,0.4,0.5,0.8
			C1619.9,1497,1619.6,1497.2,1619.2,1497.2z"/>
		<path class="st2" d="M1547.2,1425.6c0,0,5.2,32.4-8.8,63.3C1538.4,1488.9,1521.4,1448.2,1547.2,1425.6z"/>
		<path class="st10" d="M1595.6,1487.9c-0.3,0-0.7-0.2-0.8-0.5c-1.7-4.2-6.1-7.8-6.1-7.8c-0.3-0.2-0.4-0.6-0.3-0.9
			c0.1-0.3,0.4-0.5,0.8-0.5c4.9,0.1,10.3-3.6,10.4-3.6c0.4-0.3,0.9-0.2,1.1,0.2c0.3,0.4,0.2,0.9-0.2,1.1c-0.2,0.1-4.6,3.1-9.3,3.8
			c1.6,1.5,3.9,4.1,5.1,7.1c0.2,0.4,0,0.9-0.5,1.1C1595.7,1487.8,1595.7,1487.9,1595.6,1487.9z"/>
		<path class="st3" d="M1574.1,1459c1.6-8.6-4.1-17-12.7-18.6l-147.7-27.6c0,0-22.8-135.1-60.6-142.7c-11.8-2.4-23.5,3.8-26.6,15.4
			c0,0,29.8,162.7,56.8,165.8l173.3,20.5C1564.8,1472.8,1572.6,1467.3,1574.1,1459z"/>
		<path class="st8" d="M1422.2,1179c-1,4.1,0.4,10.5,5.7,16.2c7.1,7.8,24,12.7,32.8,10.4c4.7-1.3,8.5-4.4,10.3-7.6
			c1.5-2.8,1.6-5.6-0.4-7.3c-4.3-3.6-19-3.6-27.4-9c-9-5.8-15.7-9.2-19.1-6.1C1423.2,1176.3,1422.6,1177.5,1422.2,1179z"/>
		<path class="st0" d="M1422.2,1179c18,14.4,45.7,18.5,48.8,19c1.5-2.8,1.6-5.6-0.4-7.3c-4.3-3.6-19-3.6-27.4-9
			c-9-5.8-15.7-9.2-19.1-6.1C1423.2,1176.3,1422.6,1177.5,1422.2,1179z"/>
		<path class="st10" d="M1427.1,1196c-5.9-6.4-6.9-13.1-5.9-17.2c0.4-1.7,1.2-3.1,2.2-4c3.9-3.5,10.7-0.3,20.5,6
			c4.3,2.8,10.5,4.1,16,5.3c5,1.1,9.3,2,11.5,3.8c2.3,1.9,2.5,5.2,0.7,8.7c-2.1,3.8-6.3,6.9-11,8.2c-7.5,2-19.4-0.8-27.8-5.9
			C1430.8,1199.4,1428.7,1197.7,1427.1,1196z M1459.4,1188.2c-5.6-1.2-12-2.6-16.7-5.6c-7.5-4.8-14.8-8.9-17.8-6.2
			c-0.7,0.6-1.3,1.7-1.6,2.9l0,0c-0.8,3.4,0.1,9.4,5.4,15.2c6.6,7.2,22.9,12.4,31.8,10.1c4.9-1.3,8.2-4.5,9.6-7.1
			c0.5-0.9,2-4.1-0.1-5.9c-0.2-0.2-0.4-0.3-0.7-0.5C1467.2,1189.8,1463.4,1189,1459.4,1188.2z"/>
		<path class="st12" d="M1655.9,1462c2.4-1.5,4-4.1,4-7.1c0-4.6-3.8-8.4-8.4-8.4c-0.7,0-1.4,0.1-2.1,0.3c0-0.1,0-0.2,0-0.3
			c0-9.5-7.7-17.3-17.3-17.3c-2.4,0-4.7,0.5-6.8,1.4c-1.9-9.9-10.6-17.4-21-17.4c-11.8,0-21.4,9.6-21.4,21.4c0,0.4,0,0.7,0.1,1
			c0,0,0,0-0.1,0c-7.8,0-14.1,6.3-14.1,14.1c0,1.2,0.2,2.4,0.5,3.5c-0.7-0.2-1.4-0.2-2.1-0.2c-5.2,0-9.4,4.2-9.4,9.4
			c0,3.5,1.9,6.5,4.7,8.1c-1.3,2.4-2,5.1-2,8c0,7.2,4.4,13.4,10.7,16c-1.2,1.4-1.9,3.3-1.9,5.3c0,4.6,3.8,8.4,8.4,8.4
			c1,0,2-0.2,2.9-0.5c2.4,7.9,9.7,13.7,18.4,13.7c8.4,0,15.5-5.4,18.1-12.9c1.8,0.9,3.9,1.4,6,1.4c7.8,0,14.1-6.3,14.1-14.1
			c0-2.1-0.5-4-1.2-5.8c2.4,1.3,5.2,2.1,8.2,2.1c9.5,0,17.3-7.7,17.3-17.3C1661.6,1469.7,1659.4,1465.1,1655.9,1462z"/>
		<g>
			<path class="st3" d="M1543.8,1442.7c0,0,17.5-4.7,31,1.5c13.6,6.2,17.5,11.7,19,17.9c1.5,6.2-25.3,9.6-34.6,6.1
				C1550,1464.6,1540.8,1456.8,1543.8,1442.7z"/>
			<path class="st3" d="M1549.8,1439.6c10.4-3.3,21.5-4.5,32.3-3.5c1.4,0.2,3.6,0.4,5,0.8c2.8,0.2,6.2,1.7,5.5,5.1
				c-0.6,3.1-3.9,3.3-6.4,3c-10.7-0.3-21.5,2.4-31.1,7.1C1546,1457.7,1539.4,1442.4,1549.8,1439.6z"/>
			<path class="st3" d="M1575,1444.2c10.7,3.6,22.3,5.2,33.6,4.5c4.2-0.4,5.2,6.2,1.1,7c-4.6,1.2-9.3,1.9-14.1,2.3
				c-8.3,0.6-16.8,0.5-25-1C1560.8,1454.8,1565.8,1439.9,1575,1444.2z"/>
			<path class="st3" d="M1578.8,1449.6c6.8,3.3,14.3,5.4,21.8,6.5c4.2,1.6,13.7-1.9,14.3,4.2c0,6.2-17.3,4.6-21.9,4.9
				c-6.9-0.4-13.8-1.3-20.4-3.4C1562.8,1458.2,1570.2,1443.7,1578.8,1449.6z"/>
			<path class="st3" d="M1578.1,1455.1c9.1,6.3,20.2,10,31.3,10c4.2,0,4.7,6.5,0.5,7.1c-4.8,0.8-9.8,1.1-14.7,0.7
				c-9-0.8-18.1-3-26.1-7.4C1559.3,1459.8,1570.9,1446.2,1578.1,1455.1z"/>
			<path class="st3" d="M1563.3,1457.2c8.6,7.6,19.3,13.2,30.6,15.4c4.3,2,14.9-1.5,15.4,4.4c-0.4,8-24.4,3.5-29.8,2
				c-9.1-2.6-17.9-6.5-25.6-12.1C1546,1460.7,1556.8,1449.5,1563.3,1457.2z"/>
			<path class="st10" d="M1594.6,1456.4c-2.7-0.4-5.5-1-8-1.9c-0.3-0.1-0.5-0.5-0.4-0.8c0.1-0.3,0.5-0.5,0.8-0.4
				c7.4,2.7,18.1,2.6,18.2,2.6c0.4,0,0.7,0.3,0.7,0.7c0,0.4-0.3,0.7-0.7,0.7C1605,1457.2,1600.1,1457.2,1594.6,1456.4z"/>
			<path class="st10" d="M1596.1,1464.6c-2.5-0.4-5.2-0.9-7.5-1.6c-0.3-0.1-0.5-0.5-0.4-0.8c0.1-0.3,0.5-0.5,0.8-0.4
				c6.1,1.9,15.7,2.5,15.8,2.5c0.4,0,0.6,0.3,0.6,0.7c0,0.4-0.3,0.6-0.7,0.6C1604.5,1465.5,1600.5,1465.2,1596.1,1464.6z"/>
			<path class="st10" d="M1595.8,1473.4C1595.8,1473.4,1595.7,1473.4,1595.8,1473.4c-0.3-0.1-7.2-1.3-12.1-3.4
				c-0.3-0.1-0.5-0.5-0.3-0.9c0.1-0.3,0.5-0.5,0.9-0.3c4.7,2.1,11.7,3.3,11.8,3.3c0.4,0.1,0.6,0.4,0.5,0.8
				C1596.4,1473.2,1596.1,1473.5,1595.8,1473.4z"/>
		</g>
		<path class="st4" d="M1375.2,1243.9c0,0,46.3,42.3,57.3,141.1l114.7,40.5c0,0-15.4,29.2-8.8,63.3c0,0-140.9-4.1-173.9-21.7
			c-33-17.6-49.6-128.4-49.5-170.8C1315,1264.5,1332.1,1246.6,1375.2,1243.9z"/>
		<path class="st2" d="M1547.2,1426.8c-0.1,0-0.3,0-0.4-0.1l-114.7-40.5c-0.3-0.1-0.6-0.4-0.7-0.8c-14.4-48.7-37-86.8-37.2-87.2
			c-0.3-0.5-0.1-1.2,0.4-1.6c0.5-0.3,1.2-0.1,1.6,0.4c0.2,0.4,22.8,38.4,37.3,87.2l114.2,40.4c0.6,0.2,0.9,0.9,0.7,1.5
			C1548.1,1426.5,1547.7,1426.8,1547.2,1426.8z"/>
		<path class="st2" d="M1538.4,1490.1C1538.4,1490.1,1538.4,1490.1,1538.4,1490.1c-5.8-0.1-142.4-2.8-177.2-23.6
			c-35-20.9-58-129.8-59-134.4c-0.1-0.6,0.3-1.2,0.9-1.4c0.6-0.1,1.2,0.3,1.4,0.9c0.2,1.1,23.8,112.6,57.9,132.9
			c34.3,20.4,174.6,23.2,176.1,23.3c0.6,0,1.1,0.5,1.1,1.2C1539.5,1489.6,1539,1490.1,1538.4,1490.1z"/>
		<path class="st2" d="M1473,1400.5c0,0-0.1,0-0.1,0c-0.6-0.1-1.1-0.6-1-1.2c3.8-43-8.8-78-8.9-78.4c-0.2-0.6,0.1-1.2,0.7-1.5
			c0.6-0.2,1.2,0.1,1.5,0.7c0.1,0.4,12.8,35.8,9,79.3C1474.1,1400.1,1473.6,1400.5,1473,1400.5z"/>
		<path class="st2" d="M1428.7,1283.4c-2.2,0-4.5-0.2-6.9-0.6c-24.8-4.3-46.6-36.8-47.5-38.2c-0.3-0.5-0.2-1.2,0.3-1.6
			c0.5-0.4,1.2-0.2,1.6,0.3c0.2,0.3,22.2,33,46,37.2c23.4,4.1,31.4-13.9,31.7-14.6c0.3-0.6,0.9-0.8,1.5-0.6c0.6,0.2,0.8,0.9,0.6,1.5
			C1455.8,1267,1448.6,1283.4,1428.7,1283.4z"/>
		<path class="st13" d="M1303.3,1645.1C1303.3,1645.1,1303.3,1645.1,1303.3,1645.1c-77.1-2.6-119.5-34.4-119.9-34.7
			c-0.5-0.4-0.6-1.1-0.2-1.6c0.4-0.5,1.1-0.6,1.6-0.2c0.4,0.3,42.3,31.7,118.6,34.2c0.6,0,1.1,0.5,1.1,1.2
			C1304.4,1644.7,1303.9,1645.1,1303.3,1645.1z"/>
		<path class="st13" d="M1396.8,1663c-43.8,0-79.6-12-80-12.2c-0.6-0.2-0.9-0.9-0.7-1.5c0.2-0.6,0.9-0.9,1.5-0.7
			c0.6,0.2,63.1,21.2,123.8,7.3c0.6-0.1,1.2,0.2,1.4,0.9c0.1,0.6-0.2,1.2-0.9,1.4C1426.6,1661.7,1411.2,1663,1396.8,1663z"/>
		<path class="st13" d="M1317.1,1609c-0.1,0-0.2,0-0.4-0.1c-0.6-0.2-0.9-0.9-0.7-1.5l15.8-46.5c0.2-0.6,0.9-0.9,1.5-0.7
			c0.6,0.2,0.9,0.9,0.7,1.5l-15.8,46.5C1318,1608.7,1317.6,1609,1317.1,1609z"/>
	</g>
	<g id="_x37_">
		<path class="st14" d="M1879.5,1462.7c0,0-2.1-29.3,25.9-66C1905.4,1396.7,1920.2,1434.3,1879.5,1462.7z"/>
		<path class="st15" d="M2179.6,1096.8c-56.4-92.8-140.2-89.4-176.2-31.2c-81.8,7.7-49.3,131-37.9,173.3c8.8,32.5,32.7,52.7,63.6,57
			c24.2,3.4,129.2,3.3,180.9-39.9C2235,1235.1,2196.7,1125.1,2179.6,1096.8z"/>
		<path class="st3" d="M2050.1,1803.7l19.2-16.1l54,11.6C2123.3,1799.2,2091.3,1826,2050.1,1803.7z"/>
		<path class="st3" d="M2237,1799.6l14.4-20.5l55.1-2.8C2306.5,1776.3,2282.6,1810.5,2237,1799.6z"/>
		<path class="st3" d="M2044.5,1310.1c-12.8-5.8-27.9-0.2-33.8,12.6l-49,107.5l-97.2-35.3c-7.6-2.8-16.2,0.4-20.1,7.7
			c-4.3,8-1.2,18,6.8,22.2l113.6,60.6c0.4,0.2,0.9,0.5,1.3,0.7c12,5.5,26.1,0.2,31.5-11.8l0.7-1.6l58.7-128.9
			C2063,1331,2057.3,1315.9,2044.5,1310.1z"/>
		<path class="st3" d="M2307.9,1790.3c0.4,20.9-26.3,33-41.4,18.8c-15-16.6-83.3-147.8-95.8-167.5c0,0-28.9-65.4-28.9-65.4
			c-18.3-53.3,74.9-91.1,89.1-24c15.8,40,75.4,224.1,75.4,224.1C2306.5,1776.3,2307.8,1785.9,2307.9,1790.3z"/>
		<path class="st3" d="M2107.9,1560.9c-2.8-2.4,17.5,222.8,15.4,238.2c-2.7,20.7-37.6,38-47.3,19.8c-5.8-10.1-5.2-20.8-6.7-31.4
			c0,0-51-180.8-58-231.1C2015.6,1484.2,2117.9,1504.1,2107.9,1560.9z"/>
		<path class="st4" d="M2124.6,1833.8c-0.4,1.3-0.9,2.6-1.7,3.7c-1.9,2.7-5,4.5-8.6,4.5l-80.9,0.3c-4,0-7.1-2.3-8.6-5.4
			c-0.5-0.9-0.8-2-1-3c-0.5-3.2,0.4-6.6,3.2-9.1l11.2-10.2l12-10.9c37.4,5.6,73.2-4.5,73.2-4.5l0.9,17.7l0.7,13.5
			C2125,1831.5,2124.8,1832.7,2124.6,1833.8z"/>
		<path class="st2" d="M2124.6,1833.8c-1.2,4.7-5.3,8.2-10.3,8.2l-80.9,0.3c-5.3,0-8.9-3.9-9.6-8.4L2124.6,1833.8z"/>
		<path class="st4" d="M2316.7,1809.4c0,1.4-0.2,2.7-0.7,4c-1.2,3.1-3.7,5.7-7.1,6.6l-78,21.2c-3.9,1.1-7.4-0.4-9.7-3
			c-0.7-0.8-1.3-1.7-1.7-2.7c-1.3-2.9-1.3-6.5,0.7-9.6l8.1-12.7l8.7-13.7c37.6-4.3,69.5-23.4,69.5-23.4l0.9,2.2c3.3,8,6,16.2,8,24.6
			l0.7,3C2316.5,1807.1,2316.7,1808.3,2316.7,1809.4z"/>
		<path class="st2" d="M2316.7,1809.4c0,4.8-3,9.3-7.8,10.6l-78,21.2c-5.1,1.4-9.6-1.5-11.5-5.6L2316.7,1809.4z"/>
		<path class="st3" d="M2141.7,1561.1l-2.9,0.6c-44.8,8.4-87.9-21.1-96.4-65.9l-23.3-124.2c-8.4-44.8,21.1-87.9,65.9-96.3l2.9-0.6
			c37.4-7,87.9,21.1,96.4,65.9l23.3,124.2C2216,1509.5,2186.5,1552.7,2141.7,1561.1z"/>
		
			<rect x="2053.6" y="1206.7" transform="matrix(0.9828 -0.1844 0.1844 0.9828 -195.4682 405.6001)" class="st3" width="57.7" height="93.5"/>
		<path class="st8" d="M2100.9,1253.6c-21.5,17-44.3,18.6-44.3,18.6l-1.5-8.1l-1.8-9.7L2100.9,1253.6z"/>
		<path class="st3" d="M2063.6,1264.5L2063.6,1264.5c-42.1,0.4-77.1-33.5-78.3-75.8l-1.1-39.7c-1.2-42.3,31.9-76.9,74-77.4l0,0
			c42.1-0.4,77.1,33.5,78.3,75.8l1.1,39.7C2138.8,1229.4,2105.7,1264.1,2063.6,1264.5z"/>
		
			<ellipse transform="matrix(0.9519 -0.3064 0.3064 0.9519 -256.5982 713.1121)" class="st3" cx="2143.3" cy="1173.9" rx="20.2" ry="20.8"/>
		<path class="st3" d="M2005.2,1178c0.3,11.5-8.5,20.9-19.6,21c-11.2,0.1-20.5-9.1-20.8-20.6c-0.3-11.5,8.5-20.9,19.6-21
			C1995.6,1157.3,2004.9,1166.5,2005.2,1178z"/>
		<path class="st7" d="M2072.1,1163.1c0.2,5.8,2.7,10.5,5.5,10.5c2.9,0,5.1-4.8,4.9-10.6c-0.2-5.8-2.7-10.5-5.5-10.5
			C2074.2,1152.5,2072,1157.3,2072.1,1163.1z"/>
		<path class="st7" d="M2026.2,1163.6c0.2,5.8,2.7,10.5,5.5,10.5c2.9,0,5.1-4.8,4.9-10.6c-0.2-5.8-2.7-10.5-5.5-10.5
			C2028.2,1153,2026,1157.8,2026.2,1163.6z"/>
		
			<ellipse transform="matrix(0.9942 -0.1079 0.1079 0.9942 -115.6476 233.3221)" class="st9" cx="2097.7" cy="1185" rx="8.1" ry="7.6"/>
		<path class="st9" d="M2020,1188c0.8,4.1-2.2,8.1-6.5,8.9c-4.4,0.8-8.5-1.9-9.3-6.1c-0.8-4.1,2.2-8.1,6.5-8.9
			C2015.1,1181.1,2019.3,1183.9,2020,1188z"/>
		<path class="st10" d="M1985.9,1190.5c-0.1,0-0.1,0-0.2,0c-0.7,0-1.2-0.5-1.2-1.2c-0.2-6.2-3.8-7.1-7.2-8c-2.9-0.8-6.4-1.7-5.2-6.6
			c2.2-8.9,12.6-9.7,12.7-9.7c0.7,0,1.2,0.5,1.3,1.1c0,0.7-0.5,1.2-1.1,1.3c-0.4,0-8.8,0.7-10.5,7.9c-0.6,2.4,0.4,2.8,3.5,3.7
			c3.5,0.9,8.7,2.3,9,10.3C1986.9,1189.8,1986.5,1190.3,1985.9,1190.5z"/>
		<path class="st10" d="M2145.4,1187.4c-0.6,0.1-1.2-0.2-1.4-0.9c-2-7.7,2.6-10.5,5.7-12.3c2.8-1.7,3.6-2.3,2.3-4.4
			c-3.8-6.5-12.1-4.8-12.4-4.7c-0.6,0.1-1.3-0.3-1.4-0.9c-0.1-0.6,0.3-1.3,0.9-1.4c0.4-0.1,10.3-2.1,15,5.9c2.6,4.3-0.6,6.2-3.1,7.7
			c-3,1.8-6.1,3.7-4.6,9.6C2146.5,1186.6,2146.1,1187.2,2145.4,1187.4C2145.4,1187.4,2145.4,1187.4,2145.4,1187.4z"/>
		<path class="st10" d="M2054.9,1196.9c-0.2,0-0.4,0-0.5,0c-1.1-0.3-10.6-2.8-10.1-8c0.4-4.4,6.9-23.9,7.2-24.8
			c0.2-0.6,0.9-1,1.5-0.8c0.6,0.2,1,0.9,0.8,1.5c-2.3,6.9-6.8,20.9-7.1,24.2c-0.2,2.5,5.5,4.7,8.3,5.4c0.6,0.2,1,0.8,0.9,1.5
			C2055.7,1196.5,2055.4,1196.9,2054.9,1196.9z"/>
		<path class="st10" d="M2057.5,1211.3c-4.7,1-10.4,1.1-16.9-0.7c-0.6-0.2-1-0.8-0.8-1.5c0.2-0.6,0.8-1,1.5-0.8
			c17.7,5.1,29.5-6,29.6-6.1c0.5-0.5,1.2-0.4,1.7,0c0.5,0.5,0.4,1.2,0,1.7C2072.2,1204.1,2066.7,1209.3,2057.5,1211.3z"/>
		<path class="st16" d="M2245.2,1402.2c-34.8-59.6-90.9-131.5-129.6-128.5c-2.7,7.7-49.6,40.8-56.9,9.6
			c-56.9,20.6-64.6,99.8-59.4,168.1c2.5,32.9-6.4,243.7-6.4,243.7c197,26,323.8-53.4,323.8-53.4S2268.9,1442.8,2245.2,1402.2z"/>
		<path class="st10" d="M2042.3,1144.8c-0.2,0-0.4,0.1-0.7,0c-13.3-1.6-20.9,4.2-21,4.3c-0.9,0.7-2.1,0.5-2.8-0.3
			c-0.7-0.9-0.5-2.1,0.3-2.8c0.4-0.3,9-6.9,24-5.1c1.1,0.1,1.9,1.1,1.8,2.2C2043.8,1144,2043.1,1144.6,2042.3,1144.8z"/>
		<path class="st14" d="M2172.9,1446.9c0,0,20.4,34.3,65.7,49.4C2238.6,1496.4,2228.2,1446.6,2172.9,1446.9z"/>
		<path class="st10" d="M2090.1,1148.9c-0.5,0.1-1,0-1.5-0.3c-11.3-7.2-21.7-3.3-21.8-3.3c-1,0.4-2.2-0.1-2.6-1.2
			c-0.4-1,0.1-2.2,1.2-2.6c0.5-0.2,12.4-4.6,25.4,3.6c0.9,0.6,1.2,1.8,0.6,2.8C2091.1,1148.5,2090.6,1148.8,2090.1,1148.9z"/>
		<path class="st3" d="M2268.1,1392.8l-1.3-1.4l-106.1-113c-9.6-10.3-25.8-10.8-36.1-1.1c-10.3,9.6-10.8,25.8-1.1,36.1l46.4,49.4
			l46.9,49.9l-46.4,81.4c-3.9,6.9-2.4,15.8,4,21c7.1,5.7,17.4,4.6,23.1-2.5l71.8-89.3C2276.4,1414.4,2276.1,1401.4,2268.1,1392.8z"
			/>
		<path class="st16" d="M2050.4,1283.1c0,0-55.9-0.6-94.9,127.5l-50.1-13.8c0,0-1.6,35.7-25.9,66c0,0,70.4,57.3,112.6,38.7
			c42.2-18.5,68.8-97.2,68.8-97.2L2050.4,1283.1z"/>
		<path class="st16" d="M2131.3,1266c0,0,40.5-16.9,94.5,40.3c60.1,63.7,70.4,98.4,66.7,120.1c-3.7,21.7-54,69.8-54,69.8
			s-21.4-47-65.7-49.4l20.6-35c0,0-61.6-64.6-77-95.7C2101.1,1285.2,2131.3,1266,2131.3,1266z"/>
		<path class="st12" d="M2131.3,1266c0,0-15.4,41.6-31.7,46.2c-17.6,4.9-22.8-10.1-22.8-10.1s-12.7,19.9-23.6,9.7
			c-10.9-10.2-2.8-28.7-2.8-28.7l7.4-5.5c0,0,6.6,16.9,18.5,16s30.7-13.9,37.9-27.4L2131.3,1266z"/>
		<path class="st15" d="M2018.5,1090.1c0,0,22,53,87,27.2c0,0,9.4,30.6,31.2,36.9c0,0,13-14.3,12.1-42.7
			c-1.4-44.2-39.4-60.1-66.4-65.4c-28.3-5.5-79.1,19.5-79.1,19.5S2004.5,1083.8,2018.5,1090.1z"/>
		<path class="st15" d="M2018.5,1090.1c0,0-4.7,50.8-34.1,67.4c0,0-20.8-32.1-16.4-57.2c4.3-25.1,35.4-34.6,35.4-34.6L2018.5,1090.1
			z"/>
		<path class="st12" d="M2121.1,1088.5c1.8,1.6-0.8,7.8-5.9,13.8c-5.1,6.1-10.8,9.8-12.6,8.2c-1.8-1.6,0.8-7.8,5.9-13.8
			C2113.6,1090.6,2119.3,1086.9,2121.1,1088.5z"/>
		
			<ellipse transform="matrix(0.6442 -0.7649 0.7649 0.6442 -92.2239 2016.4158)" class="st12" cx="2121.1" cy="1107.3" rx="14.4" ry="4.4"/>
		<g>
			<path class="st3" d="M2194.2,1486.2c0,0-17.9,4.8-26.8,17.3c-8.9,12.5-9.5,19.4-7.7,25.6c1.8,6.2,27.4-4.5,33.8-12.4
				C2199.9,1508.8,2204.1,1497.1,2194.2,1486.2z"/>
			<path class="st3" d="M2187.2,1486.6c-10.9,2.4-21.4,7-30.5,13.5c-1.1,0.9-3,2.2-4,3.2c-2.3,1.6-4.7,4.7-2.3,7.3
				c2.1,2.5,5.2,1,7.3-0.6c9.3-5.8,20.3-8.9,31.2-9.7C2200,1500.6,2197.9,1483.7,2187.2,1486.6z"/>
			<path class="st3" d="M2167.2,1503.5c-7.7,8.7-17.1,16.1-27.5,21.2c-3.9,1.9-1.4,8.1,2.7,6.8c4.7-1.3,9.3-3.1,13.7-5.1
				c7.7-3.7,15.1-8.1,21.6-13.7C2185.3,1505.6,2173.2,1495,2167.2,1503.5z"/>
			<path class="st3" d="M2166.6,1510.3c-4.4,6.4-9.9,12.1-16,16.9c-2.9,3.6-13.1,5.3-10.5,11.1c3.2,5.5,17.7-4.8,21.9-6.9
				c5.9-3.9,11.6-8.2,16.4-13.5C2185.2,1509.7,2171.2,1500.7,2166.6,1510.3z"/>
			<path class="st3" d="M2170.1,1514.8c-4.9,10.3-12.8,19.2-22.7,24.9c-3.8,2.2-0.8,8.2,3.2,6.5c4.7-1.7,9.2-4.1,13.4-6.9
				c7.6-5.3,14.6-12,19.4-20C2189.2,1509.3,2171.9,1503.2,2170.1,1514.8z"/>
			<path class="st3" d="M2184.3,1509c-3.8,11.1-10.4,21.6-19.2,29.4c-2.8,4-14,6.3-11.4,11.8c4.5,6.8,23.5-9.5,27.5-13.5
				c6.8-6.9,12.6-14.9,16.5-23.9C2201.5,1503.3,2186.1,1498.9,2184.3,1509z"/>
			<path class="st10" d="M2158.9,1543.6c-0.3,0-0.5-0.1-0.7-0.4c-0.2-0.4-0.1-0.9,0.3-1.1c0.1-0.1,9-5.6,14.4-11
				c0.3-0.3,0.8-0.3,1.1,0s0.3,0.8,0,1.1c-5.5,5.5-14.3,11-14.6,11.2C2159.2,1543.6,2159.1,1543.6,2158.9,1543.6z"/>
			<path class="st10" d="M2145.7,1531.3c-0.3,0-0.6-0.2-0.8-0.5c-0.2-0.4,0.1-0.9,0.5-1c0.1,0,12.3-4.7,20.3-11
				c0.3-0.3,0.9-0.2,1.1,0.1c0.3,0.3,0.2,0.9-0.1,1.1c-8.1,6.5-20.2,11-20.7,11.2C2145.9,1531.3,2145.8,1531.3,2145.7,1531.3z"/>
			<path class="st10" d="M2150.5,1538.6c-0.3,0-0.6-0.2-0.7-0.5c-0.2-0.4,0-0.9,0.4-1.1c0.1,0,10.9-4.7,18.7-11.3
				c0.3-0.3,0.8-0.2,1.1,0.1c0.3,0.3,0.2,0.8-0.1,1.1c-8,6.8-19,11.5-19.1,11.5C2150.7,1538.6,2150.6,1538.6,2150.5,1538.6z"/>
		</g>
		<g>
			<path class="st3" d="M1880.3,1410.5c0,0-11.9-14.2-27-16.9c-15-2.8-21.6-0.4-26.5,3.9c-4.9,4.3,15.6,22.9,25.5,25.4
				C1862.3,1425.2,1874.6,1424,1880.3,1410.5z"/>
			<path class="st3" d="M1877.1,1404.3c-6.8-8.9-15.4-16.4-25.1-21.9c-1.3-0.6-3.3-1.8-4.6-2.3c-2.5-1.4-6.2-2.3-7.6,1
				c-1.4,3,1.3,5.1,3.7,6.3c9.2,6,16.6,14.7,22,24.2C1869.7,1421.8,1884.2,1412.8,1877.1,1404.3z"/>
			<path class="st3" d="M1853.2,1393.4c-11.2-3.3-21.8-8.7-30.9-16c-3.4-2.8-8,2.1-5,5.3c3.2,3.7,6.7,7.1,10.4,10.2
				c6.6,5.4,13.8,10.3,21.6,13.8C1859,1410.6,1863.4,1395.2,1853.2,1393.4z"/>
			<path class="st3" d="M1846.8,1395.7c-7.7-1.3-15.2-3.9-22.1-7.4c-4.5-1.1-10.3-9.6-14.5-4.9c-3.6,5.2,11.8,14,15.5,16.9
				c6,3.7,12.4,7.1,19.2,9.1C1855.2,1412.3,1857.5,1395.8,1846.8,1395.7z"/>
			<path class="st3" d="M1844.2,1400.7c-11.4-0.1-22.8-3.5-32.2-10c-3.6-2.5-7.8,2.8-4.6,5.7c3.6,3.5,7.6,6.7,11.9,9.2
				c8.1,4.6,17,8.1,26.3,9.2C1857.3,1415.7,1855.4,1397.5,1844.2,1400.7z"/>
			<path class="st3" d="M1855.5,1411.2c-11.7,1.3-23.9-0.3-34.8-5c-4.8-0.9-11.6-10.1-15.5-5.4c-4.3,7,18.5,17.3,23.8,19.2
				c9.2,3.2,18.9,5.1,28.6,4.9C1867.9,1424.3,1865.4,1408.5,1855.5,1411.2z"/>
			<path class="st10" d="M1813.4,1402.8c-0.1-0.2-0.1-0.5,0.1-0.8c0.2-0.4,0.7-0.5,1.1-0.2c0.1,0.1,8.9,5.8,16,8.3
				c0.4,0.1,0.6,0.6,0.5,1s-0.6,0.6-1,0.5c-7.3-2.6-16-8.3-16.4-8.5C1813.5,1403.1,1813.4,1402.9,1813.4,1402.8z"/>
			<path class="st10" d="M1818.9,1385.6c-0.1-0.3-0.1-0.7,0.2-0.9c0.3-0.3,0.8-0.3,1.1,0c0.1,0.1,9.5,9.2,18.5,13.7
				c0.4,0.2,0.6,0.7,0.4,1.1c-0.2,0.4-0.7,0.6-1.1,0.4c-9.3-4.6-18.5-13.6-18.9-14C1819,1385.8,1819,1385.7,1818.9,1385.6z"/>
			<path class="st10" d="M1814.3,1393c-0.1-0.3-0.1-0.6,0.1-0.9c0.3-0.3,0.8-0.4,1.1-0.1c0.1,0.1,8.8,7.9,18.1,12.2
				c0.4,0.2,0.6,0.7,0.4,1.1c-0.2,0.4-0.7,0.6-1.1,0.4c-9.5-4.4-18.4-12.4-18.5-12.4C1814.5,1393.2,1814.4,1393.1,1814.3,1393z"/>
		</g>
		<path class="st14" d="M1893.7,1473.3c-0.3,0-0.6-0.1-0.8-0.3c-0.5-0.4-0.5-1.2,0-1.6c32.5-34,27.2-69.7,27.1-70.1
			c-0.1-0.6,0.3-1.2,0.9-1.3c0.6-0.1,1.2,0.3,1.3,0.9c0.1,0.4,5.6,37.1-27.7,72C1894.3,1473.1,1894,1473.3,1893.7,1473.3z"/>
		<path class="st14" d="M1999.7,1498.5c-0.6,0-1.1-0.4-1.1-1c-0.1-1.1-9.4-108.4,8.1-155.8c0.2-0.6,0.9-0.9,1.5-0.7
			c0.6,0.2,0.9,0.9,0.7,1.5c-17.4,47-8.1,153.8-8,154.8c0.1,0.6-0.4,1.2-1,1.2C1999.8,1498.5,1999.7,1498.5,1999.7,1498.5z"/>
		<path class="st14" d="M2172.9,1448.1c-0.2,0-0.4-0.1-0.6-0.2c-0.5-0.3-0.7-1-0.4-1.6l20.2-34.2c-15.3-15.3-56.9-65.8-57.3-66.3
			c-0.4-0.5-0.3-1.2,0.2-1.6c0.5-0.4,1.2-0.3,1.6,0.2c0.4,0.5,43.2,52.4,57.8,66.8c0.4,0.4,0.4,0.9,0.2,1.4l-20.6,35
			C2173.6,1447.9,2173.3,1448.1,2172.9,1448.1z"/>
		<path class="st14" d="M2238.6,1497.5c-0.3,0-0.6-0.1-0.8-0.3c-0.5-0.4-0.5-1.2,0-1.6l30.2-32c0.4-0.5,1.2-0.5,1.6,0
			c0.5,0.4,0.5,1.2,0,1.6l-30.2,32C2239.2,1497.4,2238.9,1497.5,2238.6,1497.5z"/>
		<path class="st14" d="M2250.4,1485c-0.4,0-0.8-0.2-1-0.6c-23.5-46.3-66.9-52.1-67.3-52.1c-0.6-0.1-1.1-0.6-1-1.3
			c0.1-0.6,0.6-1.1,1.3-1c0.4,0.1,45,5.9,69.1,53.4c0.3,0.6,0.1,1.3-0.5,1.5C2250.8,1484.9,2250.6,1485,2250.4,1485z"/>
		<path class="st14" d="M2061.3,1678.4c-41,0-67.3-4.1-67.6-4.2c-0.6-0.1-1-0.7-0.9-1.3c0.1-0.6,0.7-1,1.3-0.9
			c0.4,0.1,41.1,6.5,100.3,3.3c54.6-2.9,136.5-14.9,216.9-55c0.6-0.3,1.3-0.1,1.5,0.5c0.3,0.6,0.1,1.3-0.5,1.5
			c-80.7,40.3-163,52.3-217.8,55.3C2082.5,1678.1,2071.5,1678.4,2061.3,1678.4z"/>
		<path class="st14" d="M2074.4,1346.4c-5,0-9.1-4.1-9.1-9.1s4.1-9.1,9.1-9.1s9.1,4.1,9.1,9.1S2079.5,1346.4,2074.4,1346.4z
			 M2074.4,1330.4c-3.8,0-6.9,3.1-6.9,6.9s3.1,6.9,6.9,6.9s6.9-3.1,6.9-6.9S2078.2,1330.4,2074.4,1330.4z"/>
		<path class="st14" d="M2073.1,1378.7c-5,0-9.1-4.1-9.1-9.1s4.1-9.1,9.1-9.1s9.1,4.1,9.1,9.1S2078.2,1378.7,2073.1,1378.7z
			 M2073.1,1362.7c-3.8,0-6.9,3.1-6.9,6.9s3.1,6.9,6.9,6.9s6.9-3.1,6.9-6.9S2076.9,1362.7,2073.1,1362.7z"/>
		<path class="st14" d="M2074.4,1410.2c-5,0-9.1-4.1-9.1-9.1s4.1-9.1,9.1-9.1s9.1,4.1,9.1,9.1S2079.5,1410.2,2074.4,1410.2z
			 M2074.4,1394.2c-3.8,0-6.9,3.1-6.9,6.9s3.1,6.9,6.9,6.9s6.9-3.1,6.9-6.9S2078.2,1394.2,2074.4,1394.2z"/>
	</g>
	<g id="_x36_">
		
			<ellipse transform="matrix(0.1602 -0.9871 0.9871 0.1602 1234.4154 3689.7302)" class="st17" cx="2785.6" cy="1119.4" rx="48.3" ry="48.3"/>
		<path class="st3" d="M2424.2,1128.6c8.4-2.8,15.3-4.2,18.1,4.3l29.7,90.5l121.3,43.2c13,4.6,19.8,18.9,15.1,31.9
			c-4.6,13-18.9,19.8-31.9,15.1l-132.8-47.2l-1.9-0.7c-7.2-2.6-12.8-9-14-17.2l-14.7-102.3C2412.2,1138.6,2416.7,1131,2424.2,1128.6
			z"/>
		<path class="st3" d="M2902,1408.7l-83.9-20.9l-110.8-98.9c-0.3-0.2-0.6-0.5-0.9-0.7c-12.1-9.9-29.9-8.2-39.8,3.9
			c-9.9,12.1-8.2,29.9,3.9,39.8l119,97.8l1.9,1.6c2.9,2.4,6.6,3.9,10.6,4.2l94.9,6.2c7.9,0.5,15.4-4.7,17.3-12.7
			C2916.5,1420.1,2911,1411,2902,1408.7z"/>
		<path class="st12" d="M2691.5,1275.9c0,0,29-1.3,60.5,27.5c31.5,28.9,72.1,68.2,72.1,68.2s43.5,14.3,58.1,32.2
			c0,0-9.9,13.5-3.5,36.5c0,0-51.6,12.5-88,8.7c-36.4-3.8-83.4-56.8-83.4-56.8S2685.8,1324,2691.5,1275.9z"/>
		<circle class="st17" cx="2602.6" cy="1045.9" r="48.3"/>
		<path class="st12" d="M2583.9,1257.8c0,0-38.2-30-103.8-42.4c0,0-12.9-58.2-32.3-65.9c0,0-11.9,10.7-32.9,8
			c0,0-25.4,42.3,4.3,118.4c22.5,57.7,124.9,92,124.9,92L2583.9,1257.8z"/>
		<path class="st17" d="M2699.1,1048.2c0,0,41.4-5.1,61.8,46.1c16.7,41.8-9.7,94.9-32.8,116.2c-28.3,26.1-76.8,77.4-133.5,0.4
			C2553.5,1155.1,2548.7,1021.4,2699.1,1048.2z"/>
		<path class="st3" d="M2634.4,1554.2l-2.9,0c-44.6-0.7-98.3-34.9-97.7-79.4l20-126c0.7-44.6,37.3-80.2,81.9-79.5l2.9,0
			c37.2,0.6,62.6,37.9,79.5,81.9l17.2,122.3C2734.7,1518,2679,1554.9,2634.4,1554.2z"/>
		<polygon class="st3" points="2712.3,1414.9 2731.2,1571.2 2722.7,1553.5 2865.5,1724.8 2824.5,1761.4 2670.5,1600.2 
			2664.4,1593.8 2662,1582.5 2630,1428.4 		"/>
		<path class="st3" d="M2546,1804.5l18.8-15.7l52.8,11.3C2617.6,1800.1,2586.3,1826.3,2546,1804.5z"/>
		<path class="st3" d="M2812.9,1772.7l3-24.3l46.3-27.8C2862.1,1720.6,2857.2,1761.1,2812.9,1772.7z"/>
		<path class="st3" d="M2641.3,1364.5c-4,13.4-7.2,26.8-9.8,40.3c-10.8,54.4-13.1,109.2-22.9,164.8l5.7,145l3.3,85.6
			c0,0-0.9,11.9-2,15.1c-6.8,19.3-34.7,22.1-44.2,4.3c-5.7-9.9-5.1-20.4-6.5-30.7l-10.2-74.5l-20.8-152
			c4.2-70.7,17.1-138.2,13.2-208.9c-1.2-59.3,70-63.6,90.8-26.8C2643.3,1336.4,2645.3,1349.1,2641.3,1364.5z"/>
		<path class="st6" d="M2618.8,1834c-0.3,1.3-0.9,2.5-1.7,3.6c-1.9,2.7-4.9,4.4-8.4,4.4l-79.1,0.3c-3.9,0-6.9-2.2-8.4-5.3
			c-0.5-0.9-0.8-1.9-1-2.9c-0.5-3.1,0.4-6.4,3.1-8.9l10.9-9.9l11.7-10.7c36.6,5.5,71.6-4.4,71.6-4.4l0.9,17.3l0.7,13.2
			C2619.2,1831.8,2619.1,1832.9,2618.8,1834z"/>
		<path class="st5" d="M2618.8,1834c-1.2,4.6-5.2,8-10.1,8l-79.1,0.3c-5.1,0-8.7-3.8-9.4-8.2L2618.8,1834z"/>
		<path class="st6" d="M2886.1,1744.5c2.2,4.1,1.7,9.4-1.9,12.7l-57.5,54.2c-2.9,2.7-6.6,3.1-9.8,1.9c-9.9-2.7-5.5-17.7-5.4-24.8
			c0,0,1.3-15.8,1.3-15.8c30.4-21,49.2-52.1,49.2-52.1C2868.4,1727.2,2880.6,1737.4,2886.1,1744.5z"/>
		<path class="st5" d="M2886.1,1744.5c2.3,4.2,1.6,9.4-1.9,12.7l-57.5,54.2c-3.7,3.5-8.9,3.1-12.5,0.4L2886.1,1744.5z"/>
		<path class="st18" d="M2752.2,1474.7l24.3,101.4l90.8,102.3c0,0-36.5,61-93.1,73.5c0,0-94.4-64.6-130.8-147.8
			c-22.1-50.6-43.7-198.6-43.7-198.6S2681.5,1487.3,2752.2,1474.7z"/>
		<path class="st18" d="M2531.4,1374.1c0,0-20.3,56.1-25.7,140c-5.3,83.2,5.9,245.5,5.9,245.5s60.5,24.3,134,0c0,0-4.3-113-7-170
			c0,0,27.1-101.8,32.6-185.7C2671.1,1403.9,2585.6,1385.8,2531.4,1374.1z"/>
		
			<rect x="2592.8" y="1219.8" transform="matrix(1.485671e-02 -0.9999 0.9999 1.485671e-02 1351.483 3867.7112)" class="st3" width="91.4" height="56.5"/>
		<path class="st8" d="M2656.2,1252.5c-23.9,12.1-46.1,9.1-46.1,9.1V1244L2656.2,1252.5z"/>
		<path class="st3" d="M2609.5,1248.2L2609.5,1248.2c-37.3-17.3-54.2-61.6-37.7-99l15.5-35.1c16.5-37.4,60.1-53.7,97.4-36.4l0,0
			c37.3,17.3,54.2,61.6,37.7,99l-15.5,35.1C2690.4,1249.2,2646.8,1265.5,2609.5,1248.2z"/>
		
			<ellipse transform="matrix(0.1327 -0.9912 0.9912 0.1327 1163.2252 3737.0669)" class="st3" cx="2716.9" cy="1203.9" rx="20.4" ry="19.7"/>
		<path class="st3" d="M2593.3,1149.5c-4.5,10.3-16.2,14.9-26.2,10.3c-9.9-4.6-14.3-16.6-9.7-26.9c4.5-10.3,16.2-14.9,26.2-10.3
			C2593.5,1127.1,2597.8,1139.2,2593.3,1149.5z"/>
		<path class="st7" d="M2658.6,1164.5c-2.3,5.2-2.1,10.4,0.5,11.6c2.6,1.2,6.5-2.1,8.8-7.3c2.3-5.2,2.1-10.4-0.5-11.6
			S2660.9,1159.2,2658.6,1164.5z"/>
		<path class="st7" d="M2617.8,1145.6c-2.3,5.2-2.1,10.4,0.5,11.6s6.5-2.1,8.8-7.3c2.3-5.2,2.1-10.4-0.5-11.6
			C2624.1,1137.1,2620.1,1140.4,2617.8,1145.6z"/>
		<path class="st9" d="M2679.5,1196.6c-1.1,4-5.3,6.2-9.5,5.1c-4.2-1.2-6.7-5.3-5.7-9.3c1.1-4,5.3-6.2,9.5-5.1
			C2678.1,1188.5,2680.6,1192.7,2679.5,1196.6z"/>
		<path class="st9" d="M2602.2,1164.5c-1.1,4-5.3,6.2-9.5,5.1c-4.2-1.2-6.7-5.3-5.7-9.3c1.1-4,5.3-6.2,9.5-5.1
			C2600.7,1156.4,2603.3,1160.5,2602.2,1164.5z"/>
		<path class="st10" d="M2571,1152.3c-0.1,0-0.1,0-0.2-0.1c-0.6-0.3-0.9-0.9-0.6-1.5c2.4-5.5-0.3-7.9-3-10.1c-2.2-1.9-4.9-4.2-1.9-8
			c5.7-6.9,15.2-3.2,15.3-3.2c0.6,0.2,0.9,0.9,0.7,1.5c-0.2,0.6-0.9,0.9-1.5,0.7c-0.3-0.1-8-3.1-12.6,2.5c-1.6,1.9-0.9,2.6,1.6,4.7
			c2.7,2.3,6.7,5.7,3.6,12.8C2572.2,1152.2,2571.6,1152.5,2571,1152.3z"/>
		<path class="st10" d="M2713.1,1216.7c-0.6-0.1-1-0.7-0.9-1.4c1.4-7.7,6.7-8.1,10.2-8.5c3.2-0.3,4.1-0.5,3.9-3
			c-0.6-7.3-8.6-9.3-9-9.4c-0.6-0.2-1-0.8-0.9-1.4c0.2-0.6,0.8-1,1.4-0.9c0.4,0.1,10,2.5,10.8,11.5c0.4,4.9-3.1,5.2-6,5.5
			c-3.4,0.3-7,0.6-8.1,6.6C2714.4,1216.4,2713.8,1216.8,2713.1,1216.7C2713.1,1216.7,2713.1,1216.7,2713.1,1216.7z"/>
		<path class="st10" d="M2629.2,1187.1c-0.2,0-0.3-0.1-0.5-0.2c-0.8-0.7-8.2-6.9-5.6-11.3c2.2-3.7,16.2-18.2,16.8-18.8
			c0.4-0.5,1.2-0.5,1.7,0c0.5,0.5,0.5,1.2,0,1.7c-5,5.1-14.8,15.6-16.4,18.4c-1.2,2.1,2.9,6.5,5.1,8.3c0.5,0.4,0.6,1.2,0.2,1.7
			C2630.1,1187,2629.7,1187.2,2629.2,1187.1z"/>
		<path class="st10" d="M2640,1135.7c-0.2,0-0.4-0.1-0.6-0.3c-11-7-20.3-5.1-20.4-5.1c-1.1,0.2-2.1-0.4-2.4-1.5
			c-0.2-1.1,0.4-2.1,1.5-2.4c0.4-0.1,10.8-2.4,23.3,5.6c0.9,0.6,1.2,1.8,0.6,2.7C2641.7,1135.6,2640.8,1135.9,2640,1135.7z"/>
		<path class="st10" d="M2680.5,1159.5c-0.5-0.1-0.9-0.4-1.2-0.9c-7-11.1-17.7-12-17.8-12.1c-1.1-0.1-1.9-1-1.8-2.1
			c0.1-1.1,1-1.9,2.1-1.8c0.5,0,12.9,1.1,20.9,13.9c0.6,0.9,0.3,2.1-0.6,2.7C2681.5,1159.5,2681,1159.6,2680.5,1159.5z"/>
		<path class="st8" d="M2649.9,1207.1c-1.7,3.7-6.5,7.7-13.8,9c-10,1.7-25.7-4.4-31.1-11.4c-2.9-3.7-3.9-8.4-3.3-11.9
			c0.5-3,2.1-5.2,4.6-5.3c5.4-0.2,16.6,8.4,26.1,9.2c10.3,0.9,17.3,2.2,18.1,6.6C2650.7,1204.5,2650.5,1205.8,2649.9,1207.1z"/>
		<path class="st0" d="M2649.9,1207.1c-22.1,0.5-45.7-12.7-48.3-14.2c0.5-3,2.1-5.2,4.6-5.3c5.4-0.2,16.6,8.4,26.1,9.2
			c10.3,0.9,17.3,2.2,18.1,6.6C2650.7,1204.5,2650.5,1205.8,2649.9,1207.1z"/>
		<path class="st10" d="M2604.2,1205.4c-2.8-3.7-4.2-8.5-3.5-12.7c0.6-3.7,2.7-6.1,5.6-6.2c2.8-0.1,6.6,1.7,11,3.8
			c4.8,2.3,10.3,4.9,15.2,5.4c11.1,0.9,18.2,2.5,19.1,7.4c0.3,1.4,0,2.9-0.7,4.4c-1.7,3.7-6.4,8.2-14.6,9.6
			c-1.3,0.2-2.6,0.3-4.1,0.3C2622.3,1217.4,2609.3,1212,2604.2,1205.4z M2606.3,1188.6c-2.7,0.1-3.4,3.4-3.6,4.4
			c-0.4,2.8,0.2,7.2,3.1,11c5.3,6.9,20.8,12.6,30.1,11c7.4-1.3,11.7-5.3,13-8.4l0,0c0.5-1.1,0.7-2.2,0.5-3.1
			c-0.7-3.8-8.7-5-17.2-5.7c-5.3-0.4-11-3.2-16-5.6c-3.9-1.9-7.5-3.6-9.8-3.6C2606.4,1188.6,2606.4,1188.6,2606.3,1188.6z"/>
		<path class="st4" d="M2746.2,1155c-0.2,0-0.5,0-0.7,0c-3-0.4-5.2-3.2-4.8-6.2c4.1-32.3-1.1-57.4-15.3-74.5
			c-17.4-20.9-42.5-22.5-42.7-22.5c-3.1-0.2-5.4-2.8-5.2-5.8c0.2-3.1,2.8-5.4,5.8-5.2c1.2,0.1,30.2,2,50.6,26.5
			c16.3,19.6,22.3,47.5,17.8,83C2751.3,1152.9,2748.9,1155,2746.2,1155z"/>
		<path class="st17" d="M2717.1,1094.6c0,0-1.6-59.3-63.7-65c-62.1-5.7-82.2,47.4-57.8,72.1c17,17.2,74.5,23.3,100,17.5
			c0,0-6.6,29.3,25.3,46.7C2752.8,1183.4,2779.7,1120.9,2717.1,1094.6z"/>
		<path class="st12" d="M2610.2,1267.9c0,0-55.2,1.3-70.6,99.9c-7.2,46.1-31.1,158.5-31.1,158.5s106.9-12,243.7-51.7
			c0,0-4.6-77.5-26.7-119.9c-13.1-25-33.8-69.4-59.2-83.1C2666.2,1271.8,2611.3,1307.7,2610.2,1267.9z"/>
		<path class="st3" d="M2877.7,1425.2c0,0,8.6,14.7,23,17.8c14.4,3.1,20.9,1,25.8-3.1c5-4.1-13.9-22.8-23.3-25.5
			C2893.8,1411.8,2884,1412.1,2877.7,1425.2z"/>
		<path class="st3" d="M2894.2,1427.7c0,0.1,0.1,0.2,0.1,0.4l0.2,0.5l0.4,0.9c0.3,0.6,0.6,1.3,0.8,1.9c0.6,1.3,1.2,2.5,1.9,3.8
			c1.3,2.5,2.8,4.9,4.5,7.3c1.6,2.3,3.4,4.5,5.3,6.6c1.9,2.1,4,3.9,6.2,5.7l0.2,0.2c1.7,1.3,1.9,3.8,0.6,5.5c-1.2,1.5-3.3,1.9-5,0.9
			c-2.9-1.6-5.7-3.4-8.2-5.5c-2.6-2-5-4.3-7.3-6.6c-2.3-2.4-4.4-4.9-6.4-7.5c-1-1.3-2-2.7-2.9-4c-0.5-0.7-0.9-1.4-1.4-2.1l-0.7-1.1
			l-0.3-0.6c-0.1-0.2-0.2-0.4-0.4-0.7l-0.5-1c-1.7-3.4-0.4-7.5,3-9.2c3.4-1.7,7.5-0.4,9.2,3
			C2893.9,1426.5,2894.1,1427.1,2894.2,1427.7z"/>
		<path class="st3" d="M2906.3,1430.8l0.6,0.4l0.5,0.3l1.1,0.7c0.7,0.4,1.4,0.9,2,1.3c1.3,0.9,2.6,1.8,3.9,2.8c2.6,1.9,5,3.9,7.4,6
			c1.2,1,2.3,2.1,3.5,3.2c1.1,1.1,2.2,2.2,3.3,3.4c2.2,2.3,4.2,4.8,6.1,7.3c1.2,1.6,0.9,3.8-0.7,5c-1.4,1.1-3.3,0.9-4.6-0.2
			l-0.1-0.1c-2.1-1.9-4.3-3.8-6.6-5.5c-1.1-0.9-2.3-1.7-3.5-2.5c-1.2-0.8-2.4-1.6-3.6-2.3c-2.4-1.5-4.9-2.9-7.5-4.1
			c-1.3-0.6-2.6-1.2-3.8-1.8c-0.6-0.3-1.3-0.6-1.9-0.8l-0.9-0.4l-0.5-0.2c-0.1-0.1-0.3-0.1-0.4-0.1c-3.7-0.9-6-4.5-5.1-8.2
			c0.9-3.7,4.5-6,8.2-5.1c0.6,0.2,1.2,0.4,1.8,0.7L2906.3,1430.8z"/>
		<path class="st3" d="M2911.1,1428.1c0.3,0.1,0.5,0.2,0.7,0.3l0.6,0.3c0.4,0.2,0.8,0.4,1.2,0.5c0.8,0.4,1.5,0.7,2.3,1.1
			c1.5,0.8,2.9,1.6,4.4,2.4c2.9,1.7,5.6,3.5,8.3,5.4c1.3,0.9,2.6,2,3.9,3c1.2,1.1,2.5,2.1,3.7,3.2c2.4,2.2,4.6,4.6,6.8,7.1
			c1.3,1.5,1.1,3.7-0.4,5c-1.3,1.2-3.3,1.1-4.6,0.1l-0.1-0.1c-2.3-1.9-4.6-3.7-7.1-5.2c-1.2-0.8-2.5-1.5-3.7-2.3
			c-1.3-0.7-2.6-1.4-3.9-2c-2.6-1.3-5.3-2.5-8-3.5c-1.4-0.5-2.7-1-4.1-1.4c-0.7-0.2-1.4-0.4-2-0.6c-0.3-0.1-0.7-0.2-1-0.3l-0.5-0.1
			c-0.2,0-0.3-0.1-0.4-0.1c-3.8-0.2-6.7-3.4-6.5-7.2c0.2-3.8,3.4-6.7,7.2-6.5c0.7,0,1.4,0.2,2,0.4L2911.1,1428.1z"/>
		<path class="st3" d="M2911.4,1421.7c0.4,0.1,0.6,0.1,0.8,0.2c0.2,0.1,0.5,0.1,0.7,0.2c0.5,0.1,0.9,0.2,1.3,0.3
			c0.9,0.2,1.7,0.5,2.6,0.8c0.8,0.3,1.7,0.6,2.5,0.9l2.4,1c3.2,1.3,6.3,2.9,9.3,4.7c1.5,0.9,2.9,1.9,4.3,2.9c1.4,1.1,2.8,2.1,4,3.3
			c2.6,2.2,4.9,4.8,7.1,7.5c1.2,1.5,1,3.8-0.5,5c-1.4,1.1-3.3,1-4.6-0.1l-0.2-0.2c-2.2-1.9-4.5-3.8-7-5.3c-1.2-0.8-2.5-1.4-3.8-2.1
			c-1.3-0.6-2.6-1.3-4-1.8c-2.7-1.1-5.5-2-8.3-2.6l-2.1-0.4c-0.7-0.1-1.4-0.2-2.1-0.4c-0.7-0.1-1.4-0.2-2.1-0.3
			c-0.3,0-0.7-0.1-1-0.1c-0.2,0-0.3,0-0.5,0c-0.2,0-0.3,0-0.4,0c-3.7,1.4-7.9-0.5-9.3-4.2c-1.4-3.7,0.5-7.9,4.2-9.3
			c1.2-0.4,2.5-0.6,3.6-0.4L2911.4,1421.7z"/>
		<path class="st3" d="M2901.2,1409c1.3,0.2,2.3,0.5,3.4,0.8c1.1,0.3,2.1,0.6,3.2,0.9c2.1,0.6,4.2,1.3,6.3,2c4.1,1.4,8.2,3.1,12.1,5
			c3.9,1.9,7.7,4.2,11.4,6.7c3.6,2.6,7,5.5,10,8.8c1.3,1.4,1.2,3.7-0.2,5c-1.3,1.2-3.3,1.3-4.7,0.1l-0.1-0.1c-3-2.5-6.1-4.6-9.6-6.4
			c-3.5-1.8-7-3.3-10.7-4.6c-3.7-1.2-7.5-2.3-11.4-3.1c-1.9-0.4-3.9-0.8-5.8-1c-1-0.2-1.9-0.3-2.9-0.4c-0.9-0.1-2-0.2-2.7-0.3
			c-3.7-0.2-6.6-3.4-6.4-7.1s3.4-6.6,7.1-6.4c0.3,0,0.6,0.1,0.9,0.1L2901.2,1409z"/>
		<path class="st10" d="M2930.7,1452.1c-0.2,0-0.5-0.1-0.6-0.3c-0.1-0.1-10.6-10.9-20-14c-0.5-0.2-0.7-0.7-0.6-1.1
			c0.2-0.5,0.7-0.7,1.1-0.6c9.8,3.3,20.3,14,20.8,14.4c0.3,0.4,0.3,0.9,0,1.3C2931.2,1452.1,2930.9,1452.1,2930.7,1452.1z"/>
		<path class="st10" d="M2934.8,1444.1c-0.2,0-0.4-0.1-0.6-0.2c-0.1-0.1-10.7-9-18.8-12.8c-0.4-0.2-0.6-0.7-0.4-1.2
			c0.2-0.4,0.7-0.6,1.2-0.4c8.3,3.9,18.7,12.6,19.2,13c0.4,0.3,0.4,0.9,0.1,1.3C2935.3,1444,2935.1,1444.1,2934.8,1444.1z"/>
		<path class="st10" d="M2939.4,1436.7c-0.2,0-0.4-0.1-0.6-0.2c-0.1-0.1-9.6-8.3-17.6-11.4c-0.5-0.2-0.7-0.7-0.5-1.2
			c0.2-0.5,0.7-0.7,1.2-0.5c8.3,3.3,17.7,11.4,18.1,11.7c0.4,0.3,0.4,0.9,0.1,1.3C2939.9,1436.6,2939.6,1436.7,2939.4,1436.7z"/>
		<path class="st18" d="M2610.2,1267.9c0,0-33,36.3-41.8,118.5c0,0,47.5,14.9,97.2,7c0,0-6.5-53.6,0.6-121.7c0,0,16.4-5.3,25.3,4.1
			c0,0,0.6,104.8,12.6,145.3c12,40.5,48,53.6,48,53.6s6.6,39.6,8.8,91.9h-255.1c0,0-7.6-179.8,78.1-308.9
			C2583.9,1257.8,2606,1254.3,2610.2,1267.9z"/>
		<g>
			<path class="st3" d="M2444.4,1144.9c0,0-4.4-18-16.7-27.1c-12.3-9.1-19.2-9.9-25.5-8.2c-6.3,1.7,3.9,27.4,11.7,34
				C2421.7,1150.2,2433.3,1154.6,2444.4,1144.9z"/>
			<path class="st3" d="M2444.2,1138c-2.2-11-6.6-21.5-12.9-30.8c-0.9-1.1-2.2-3-3.1-4.1c-1.6-2.4-4.6-4.8-7.3-2.4
				c-2.5,2.1-1.1,5.1,0.5,7.3c5.6,9.5,8.5,20.5,9,31.4C2429.9,1150.4,2446.8,1148.7,2444.2,1138z"/>
			<path class="st3" d="M2427.6,1117.6c-8.6-7.8-15.8-17.4-20.7-28c-1.8-4-8.1-1.6-6.8,2.5c1.2,4.7,2.9,9.4,4.9,13.8
				c3.6,7.8,7.8,15.3,13.3,21.9C2425.1,1135.6,2436,1123.7,2427.6,1117.6z"/>
			<path class="st3" d="M2420.8,1116.9c-6.3-4.5-11.9-10.2-16.6-16.4c-3.6-3-5-13.2-10.9-10.8c-5.6,3.1,4.4,17.8,6.5,22
				c3.7,6,8,11.8,13.2,16.7C2421.1,1135.5,2430.4,1121.7,2420.8,1116.9z"/>
			<path class="st3" d="M2416.3,1120.3c-10.2-5.1-19-13.2-24.5-23.2c-2.1-3.8-8.2-0.9-6.6,3.1c1.6,4.7,3.9,9.3,6.6,13.5
				c5.2,7.7,11.7,14.8,19.6,19.8C2421.4,1139.5,2427.8,1122.3,2416.3,1120.3z"/>
			<path class="st3" d="M2421.8,1134.6c-11.1-4-21.4-10.8-29-19.8c-3.9-2.9-6-14.2-11.5-11.6c-6.9,4.3,9,23.7,12.9,27.7
				c6.8,6.9,14.7,12.9,23.5,17C2427.2,1151.9,2431.9,1136.6,2421.8,1134.6z"/>
			<path class="st10" d="M2387.7,1108.5c0-0.3,0.1-0.5,0.4-0.7c0.4-0.2,0.9-0.1,1.1,0.3c0.1,0.1,5.4,9.1,10.7,14.6
				c0.3,0.3,0.3,0.8,0,1.1c-0.3,0.3-0.8,0.3-1.1,0c-5.4-5.6-10.7-14.5-10.9-14.9C2387.7,1108.8,2387.7,1108.6,2387.7,1108.5z"/>
			<path class="st10" d="M2400.3,1095.5c0-0.3,0.2-0.6,0.5-0.7c0.4-0.1,0.9,0.1,1,0.5c0,0.1,4.4,12.4,10.6,20.5
				c0.3,0.4,0.2,0.9-0.2,1.1c-0.4,0.3-0.9,0.2-1.1-0.2c-6.3-8.3-10.6-20.4-10.8-20.9C2400.3,1095.7,2400.3,1095.6,2400.3,1095.5z"/>
			<path class="st10" d="M2392.9,1100.2c0-0.3,0.2-0.6,0.5-0.7c0.4-0.2,0.9,0,1,0.4c0,0.1,4.4,11,10.9,18.9c0.3,0.3,0.2,0.8-0.1,1.1
				c-0.3,0.3-0.8,0.2-1.1-0.1c-6.6-8.1-11.1-19.2-11.1-19.3C2392.9,1100.4,2392.9,1100.3,2392.9,1100.2z"/>
		</g>
		<path class="st19" d="M2419.1,1177.2c-6.2,0-10.5-0.6-11-0.7c-0.6-0.1-1.1-0.7-1-1.3s0.7-1.1,1.3-1c0.3,0.1,34.2,4.9,50.8-13.5
			c0.4-0.5,1.1-0.5,1.6-0.1c0.5,0.4,0.5,1.1,0.1,1.6C2449.5,1175,2430.9,1177.2,2419.1,1177.2z"/>
		<path class="st19" d="M2863,1444.9c-0.4,0-0.9-0.3-1.1-0.7c-9.8-22.8,3.8-52,4.4-53.2c0.3-0.6,1-0.8,1.5-0.5
			c0.6,0.3,0.8,1,0.5,1.5c-0.1,0.3-13.7,29.5-4.3,51.3c0.3,0.6,0,1.3-0.6,1.5C2863.3,1444.8,2863.2,1444.9,2863,1444.9z"/>
		<path class="st19" d="M2746.7,1429.4c-0.5,0-1-0.4-1.1-0.9c-0.1-0.5-11.1-46.4-23-81.4c-0.2-0.6,0.1-1.2,0.7-1.5
			c0.6-0.2,1.2,0.1,1.5,0.7c11.9,35.1,23,81.1,23.1,81.6c0.1,0.6-0.2,1.2-0.8,1.4C2746.9,1429.4,2746.8,1429.4,2746.7,1429.4z"/>
		<path class="st20" d="M2550,1395.4c-5.6,0-10.1-4.5-10.1-10.1s4.5-10.1,10.1-10.1s10.1,4.5,10.1,10.1S2555.6,1395.4,2550,1395.4z
			 M2550,1377.5c-4.3,0-7.8,3.5-7.8,7.8s3.5,7.8,7.8,7.8s7.8-3.5,7.8-7.8S2554.3,1377.5,2550,1377.5z"/>
		<path class="st20" d="M2683.2,1407.3c-5.6,0-10.1-4.5-10.1-10.1s4.5-10.1,10.1-10.1s10.1,4.5,10.1,10.1
			S2688.7,1407.3,2683.2,1407.3z M2683.2,1389.4c-4.3,0-7.8,3.5-7.8,7.8s3.5,7.8,7.8,7.8s7.8-3.5,7.8-7.8
			S2687.5,1389.4,2683.2,1389.4z"/>
		<path class="st20" d="M2638.5,1590.8c-0.5,0-0.9-0.3-1.1-0.8c-0.1-0.4-11.6-35.7-18.9-71.5c-0.1-0.6,0.3-1.2,0.9-1.3
			c0.6-0.1,1.2,0.3,1.3,0.9c7.3,35.7,18.7,70.9,18.8,71.3c0.2,0.6-0.1,1.2-0.7,1.4C2638.8,1590.7,2638.7,1590.8,2638.5,1590.8z"/>
		<path class="st20" d="M2579.9,1750.9c-39.7,0-69.4-8.6-69.8-8.7c-0.6-0.2-0.9-0.8-0.8-1.4c0.2-0.6,0.8-0.9,1.4-0.8
			c0.7,0.2,66.8,19.4,133.8,0c0.6-0.2,1.2,0.2,1.4,0.8c0.2,0.6-0.2,1.2-0.8,1.4C2622.5,1748.7,2599.9,1750.9,2579.9,1750.9z"/>
		<path class="st20" d="M2583.5,1729.7c-39.8,0-74.1-7.8-74.6-7.9c-0.6-0.1-1-0.8-0.9-1.4c0.1-0.6,0.8-1,1.4-0.9
			c0.8,0.2,77.7,17.6,134.3,0c0.6-0.2,1.2,0.1,1.4,0.8c0.2,0.6-0.1,1.2-0.8,1.4C2625.2,1727.7,2603.7,1729.7,2583.5,1729.7z"/>
		<path class="st20" d="M2759.6,1742.2c-0.5,0-0.9-0.3-1.1-0.8c-0.2-0.6,0.1-1.2,0.7-1.4c0.7-0.2,68.2-22.2,94.5-76.2
			c0.3-0.6,1-0.8,1.5-0.5c0.6,0.3,0.8,1,0.5,1.5c-26.8,54.8-95.2,77.1-95.9,77.4C2759.8,1742.2,2759.7,1742.2,2759.6,1742.2z"/>
		<path class="st20" d="M2742.6,1728.3c-0.5,0-0.9-0.3-1.1-0.8c-0.2-0.6,0.1-1.2,0.7-1.4c0.7-0.2,71.3-24.3,97.3-78.3
			c0.3-0.6,1-0.8,1.5-0.5c0.6,0.3,0.8,1,0.5,1.5c-26.5,54.9-98,79.3-98.7,79.5C2742.8,1728.3,2742.7,1728.3,2742.6,1728.3z"/>
	</g>
	<g id="_x35_">
		<path class="st3" d="M3187.6,1332.2c-27.5,34.9-58.3,72.3-86.6,106.6c-30.5,27.6-64.2,57.1-95.4,83.8c-16.3,13.8-38.7-9.1-24.6-25
			c26.8-30.4,56.9-63,84.5-92.8l-2.4,2.7c24.8-36.1,52-75.3,77.5-110.7C3164.4,1265.4,3211.3,1300.7,3187.6,1332.2z"/>
		<path class="st21" d="M3173.4,1270c0,0-18.8-4.4-41.9,19.5c-23.1,23.9-71.3,98.6-71.3,98.6s17.9,44.8,73.6,51L3173.4,1270z"/>
		<path class="st3" d="M3090,1626.4c-1.1,21.1-14.9,162.5-10.3,183.6c5.7,19.7,34.6,22.7,44.4,5c5.9-9.8,37.7-165.1,39.3-175.5
			C3172.1,1567.2,3098.7,1562.7,3090,1626.4z"/>
		<path class="st5" d="M3123.4,1834.2c-0.6,1.2-1.4,2.3-2.4,3.2c-2.4,2.2-5.8,3.3-9.2,2.6l-77.9-16.2c-3.9-0.8-6.4-3.7-7.2-6.9
			c-0.3-1-0.4-2.1-0.3-3.1c0.1-3.1,1.7-6.3,4.9-8.1l12.8-7.5l13.8-8.1c34.9,13,71.4,10.5,71.4,10.5l-2.7,17.2l-2.1,13.2
			C3124.3,1832.1,3124,1833.2,3123.4,1834.2z"/>
		<path class="st5" d="M3050.2,1794.6c0,0,19.4-11.5,25-14.1c5.6-2.6,16.8,4.5,14.4,9.1c-2.4,4.7-12.4,10.8-12.4,10.8L3050.2,1794.6
			z"/>
		<path class="st6" d="M3123.4,1834.2c-2.1,4.3-6.8,6.8-11.6,5.8l-77.9-16.2c-5.1-1-7.7-5.6-7.5-10L3123.4,1834.2z"/>
		<path class="st6" d="M3053.2,1819.4l-12.9,2.5l-13.6-5.1c-0.3-1-0.4-2.1-0.3-3.1c0.1-3.1,1.7-6.3,4.9-8.1l12.8-7.5
			C3044.1,1798.2,3056.7,1803.1,3053.2,1819.4z"/>
		<path class="st6" d="M3123.4,1834.2c-0.6,1.2-1.4,2.3-2.4,3.2l-18.1-7.5c3.4-15.9,23.7-12.1,23.7-12.1l-2.1,13.2
			C3124.3,1832.1,3124,1833.2,3123.4,1834.2z"/>
		<path class="st0" d="M3060.6,1806.9c0.1,0,0.2,0,0.2,0c0.5-0.1,0.8-0.7,0.7-1.2c-2.3-8.5-10.6-11.8-11-12c-0.5-0.2-1,0.1-1.2,0.5
			c-0.2,0.5,0.1,1,0.5,1.2c0.1,0,7.8,3.1,9.8,10.7C3059.8,1806.6,3060.2,1806.9,3060.6,1806.9z"/>
		<path class="st0" d="M3067.4,1802.8c0.1,0,0.2,0,0.2,0c0.5-0.1,0.8-0.7,0.7-1.2c-2.3-8.5-10.6-11.8-11-12c-0.5-0.2-1,0.1-1.2,0.5
			c-0.2,0.5,0.1,1,0.5,1.2c0.1,0,7.8,3.1,9.8,10.7C3066.6,1802.5,3067,1802.8,3067.4,1802.8z"/>
		<path class="st0" d="M3073.9,1799.1c0.1,0,0.2,0,0.2,0c0.5-0.1,0.8-0.7,0.7-1.2c-2.3-8.5-10.6-11.8-11-12c-0.5-0.2-1,0.1-1.2,0.5
			c-0.2,0.5,0.1,1,0.5,1.2c0.1,0,7.8,3.1,9.8,10.7C3073.1,1798.8,3073.4,1799.1,3073.9,1799.1z"/>
		<path class="st3" d="M3222.9,1632.6c4.7,20.7,27.7,169,37.9,188.3c10.9,17.5,39.5,12.5,44.1-7.3c3-11.2-9.3-188.5-10.6-198.9
			C3282.8,1541.9,3199.1,1502.1,3222.9,1632.6z"/>
		<path class="st5" d="M3308.4,1833.9c-0.3,1.3-0.9,2.5-1.7,3.6c-1.9,2.7-5,4.4-8.4,4.4l-79.5,0.3c-4,0-7-2.3-8.5-5.3
			c-0.5-0.9-0.8-1.9-1-3c-0.5-3.1,0.4-6.5,3.1-9l11-10l11.8-10.7c36.8,5.5,72-4.5,72-4.5l0.9,17.4l0.7,13.3
			C3308.8,1831.7,3308.7,1832.9,3308.4,1833.9z"/>
		<path class="st5" d="M3228.6,1810.3c0,0,16.6-15.3,21.6-19c4.9-3.7,17.4,0.9,16,6c-1.4,5.1-9.9,13.1-9.9,13.1L3228.6,1810.3z"/>
		<path class="st6" d="M3308.4,1833.9c-1.2,4.6-5.3,8-10.1,8.1l-79.5,0.3c-5.2,0-8.7-3.9-9.4-8.3L3308.4,1833.9z"/>
		<path class="st6" d="M3236.7,1834l-12.1,5.2l-14.3-2.2c-0.5-0.9-0.8-1.9-1-3c-0.5-3.1,0.4-6.5,3.1-9l11-10
			C3223.4,1815.1,3236.7,1817.3,3236.7,1834z"/>
		<path class="st6" d="M3308.4,1833.9c-0.3,1.3-0.9,2.5-1.7,3.6l-19.3-3.6c0-16.3,20.7-16.7,20.7-16.7l0.7,13.3
			C3308.8,1831.7,3308.7,1832.9,3308.4,1833.9z"/>
		<path class="st0" d="M3241.1,1820.2c0.1,0,0.3,0,0.4-0.1c0.5-0.2,0.6-0.8,0.4-1.3c-4-7.9-12.8-9.4-13.2-9.5
			c-0.5-0.1-1,0.3-1.1,0.8c-0.1,0.5,0.3,1,0.8,1.1c0.1,0,8.2,1.4,11.8,8.5C3240.4,1820,3240.8,1820.2,3241.1,1820.2z"/>
		<path class="st0" d="M3246.9,1814.8c0.1,0,0.3,0,0.4-0.1c0.5-0.2,0.6-0.8,0.4-1.3c-4-7.9-12.8-9.4-13.2-9.5
			c-0.5-0.1-1,0.3-1.1,0.8c-0.1,0.5,0.3,1,0.8,1.1c0.1,0,8.2,1.4,11.8,8.5C3246.2,1814.6,3246.6,1814.8,3246.9,1814.8z"/>
		<path class="st0" d="M3252.5,1809.8c0.1,0,0.3,0,0.4-0.1c0.5-0.2,0.6-0.8,0.4-1.3c-4-7.9-12.8-9.4-13.2-9.5
			c-0.5-0.1-1,0.3-1.1,0.8c-0.1,0.5,0.3,1,0.8,1.1c0.1,0,8.2,1.4,11.8,8.5C3251.8,1809.6,3252.1,1809.8,3252.5,1809.8z"/>
		<path class="st12" d="M3326,1489.8c4.9,40.1-2.6,118.8-2.6,118.8l7.6,164.1c0,0-43.6,23.5-110.5,9.3l-38.4-289.1
			C3182.2,1493,3322,1457.2,3326,1489.8z"/>
		<path class="st12" d="M3102.9,1469c0,0-6.5,49.2-20.8,103.4c-10.8,40.7-21.7,192-21.7,192s36,25.7,101.3,21.4l64.7-295.1
			L3102.9,1469z"/>
		<path class="st3" d="M3205,1534.2l-2.9,0c-44.8-0.7-80.7-35.2-80.1-77.2l1.7-116.4c0.6-42,37.5-75.5,82.3-74.8l2.9,0
			c37.4,0.6,80.7,35.2,80.1,77.2l-1.7,116.4C3286.7,1501.4,3249.9,1534.8,3205,1534.2z"/>
		
			<rect x="3161.9" y="1215.9" transform="matrix(1.485694e-02 -0.9999 0.9999 1.485694e-02 1915.9927 4433.3403)" class="st3" width="92" height="56.8"/>
		<path class="st8" d="M3225.7,1253.2c-24.1,12.2-46.5,9.3-46.5,9.3l0.3-17.8L3225.7,1253.2z"/>
		<path class="st3" d="M3181.8,1247.4L3181.8,1247.4c-37.5-17.4-54.4-62.3-37.6-100.2l15.8-35.7c16.8-37.9,60.8-54.6,98.3-37.2l0,0
			c37.5,17.4,54.4,62.3,37.6,100.2l-15.8,35.7C3263.4,1248.2,3219.4,1264.8,3181.8,1247.4z"/>
		<path class="st3" d="M3308.7,1209.6c-4.6,10.3-16.3,15-26.3,10.3c-10-4.6-14.4-16.7-9.8-27.1c4.6-10.3,16.4-15,26.3-10.3
			C3308.9,1187.2,3313.2,1199.3,3308.7,1209.6z"/>
		
			<ellipse transform="matrix(0.133 -0.9911 0.9911 0.133 1601.5477 4107.0024)" class="st3" cx="3148.2" cy="1138.1" rx="20.5" ry="19.8"/>
		<path class="st7" d="M3232,1161.6c-2.3,5.3-2.1,10.5,0.5,11.7c2.6,1.2,6.6-2.1,8.9-7.3s2.1-10.5-0.5-11.7
			S3234.3,1156.3,3232,1161.6z"/>
		<path class="st7" d="M3191,1142.6c-2.3,5.3-2.1,10.5,0.5,11.7c2.6,1.2,6.6-2.1,8.9-7.3c2.3-5.3,2.1-10.5-0.5-11.7
			C3197.3,1134,3193.3,1137.3,3191,1142.6z"/>
		<path class="st9" d="M3253,1193.9c-1.1,4-5.3,6.3-9.6,5.1c-4.2-1.2-6.8-5.3-5.7-9.3s5.3-6.3,9.6-5.1
			C3251.5,1185.8,3254.1,1190,3253,1193.9z"/>
		
			<ellipse transform="matrix(0.3301 -0.9439 0.9439 0.3301 1027.5052 3766.7764)" class="st9" cx="3167.6" cy="1159.5" rx="7.5" ry="7.9"/>
		<path class="st10" d="M3143.9,1149.4c0.5,0.1,1.1-0.1,1.4-0.7c3.1-7.2-1-10.6-3.6-12.9c-2.4-2.1-3.1-2.8-1.6-4.7
			c4.6-5.6,12.3-2.7,12.7-2.5c0.6,0.2,1.3-0.1,1.5-0.7c0.2-0.6-0.1-1.3-0.7-1.5c-0.1,0-9.7-3.8-15.4,3.2c-3.1,3.8-0.3,6.1,1.9,8
			c2.7,2.3,5.4,4.6,3,10.2c-0.3,0.6,0,1.3,0.6,1.6C3143.7,1149.3,3143.8,1149.3,3143.9,1149.4z"/>
		<path class="st10" d="M3286.8,1214.1C3286.8,1214.1,3286.8,1214.2,3286.8,1214.1c0.7,0.1,1.3-0.3,1.4-0.9c1.1-6,4.7-6.3,8.1-6.6
			c2.9-0.3,6.5-0.6,6.1-5.5c-0.8-9-10.4-11.5-10.8-11.6c-0.6-0.2-1.3,0.2-1.4,0.9c-0.2,0.6,0.2,1.3,0.9,1.4c0.3,0.1,8.4,2.1,9,9.5
			c0.2,2.5-0.7,2.7-3.9,3c-3.5,0.3-8.8,0.8-10.2,8.5C3285.8,1213.4,3286.2,1214,3286.8,1214.1z"/>
		<path class="st10" d="M3202.4,1184.3c0.4,0.1,0.9,0,1.2-0.4c0.4-0.5,0.3-1.2-0.2-1.7c-2.2-1.8-6.3-6.3-5.1-8.4
			c1.6-2.8,11.5-13.3,16.6-18.5c0.5-0.5,0.4-1.2,0-1.7c-0.5-0.5-1.2-0.4-1.7,0c-0.6,0.6-14.7,15.2-16.9,18.9
			c-2.6,4.4,4.8,10.7,5.6,11.4C3202.1,1184.2,3202.3,1184.3,3202.4,1184.3z"/>
		<path class="st21" d="M3235.9,1270.3c0,0-22.6,15.5-40.6,12.3c-15.8-2.8-16.2-14.2-16.2-14.2s-42.7,7.1-62.3,68
			c-18.4,57-32.4,152.4-34.8,191.8c0,0,116.7,40.9,252.3,6c0,0-8.7-59.6-10.9-99.3C3319.7,1365.1,3297.6,1273.6,3235.9,1270.3z"/>
		<path class="st3" d="M3159.8,1460.9l126.5-24.8l-34.9-114.2c-4.1-13.3,3.4-27.3,16.7-31.3c13.3-4.1,27.3,3.4,31.3,16.7l43.1,140.8
			l0.4,1.4c0.5,1.6,0.8,3.3,0.9,5c1.1,13.2-8.8,24.7-22,25.8l-157.7,12.6c-8.1,0.7-15.6-4.8-17.1-13
			C3145.3,1471.2,3151,1462.7,3159.8,1460.9z"/>
		<path class="st10" d="M3253.4,1159.1c0.7,0.2,1.5-0.1,2-0.7c0.7-0.8,0.6-2.1-0.2-2.8c-0.1-0.1-11-9.3-14.7-19.5
			c-0.4-1-1.5-1.6-2.5-1.2c-1,0.4-1.6,1.5-1.2,2.5c4,11.3,15.4,20.8,15.9,21.2C3252.8,1158.9,3253.1,1159,3253.4,1159.1z"/>
		<path class="st10" d="M3190.7,1130.6c0.4,0.1,0.9,0.1,1.4-0.2c9.4-4.9,21.8-1,21.9-1c1,0.3,2.2-0.2,2.5-1.3c0.3-1-0.2-2.2-1.3-2.5
			c-0.6-0.2-14.1-4.4-24.9,1.3c-1,0.5-1.4,1.7-0.8,2.7C3189.7,1130.1,3190.1,1130.5,3190.7,1130.6z"/>
		<path class="st8" d="M3213.6,1201.9c-0.3,5.8-6,10.3-12.7,9.9c-6.7-0.3-12-5.3-11.7-11.2c0.1-1.3,0.4-2.6,1-3.7
			c1.9-3.9,6.5-6.5,11.7-6.2c4.6,0.2,8.4,2.6,10.4,5.9C3213.2,1198.2,3213.7,1200,3213.6,1201.9z"/>
		<path class="st0" d="M3212.3,1196.7c-14.6,5.7-22.1,0.4-22.1,0.4l0,0c1.9-3.9,6.5-6.5,11.7-6.2
			C3206.5,1191,3210.3,1193.3,3212.3,1196.7z"/>
		<path class="st15" d="M3310.4,1094.2c16.7-29.6-19.9-96.6-108.4-81.7c-34.3,5.8-59.5,41.6-40,68c-3.8,7.9-10.3,23.6-5.5,38.9
			c0,0,7.9-16.4,13-23.8c0,0,17.5,8.2,31.7,11.5c29.2,6.8,86.2,6.9,86.2,6.9s10.7,39.4,5.1,66.8
			C3292.5,1180.8,3360.3,1126.8,3310.4,1094.2z"/>
		<path class="st21" d="M3246.2,1271.7c0,0,36.5-8.6,62,25.7c25.5,34.3,42.2,110.7,42.2,110.7s-28.9,31.4-83.4,19.1
			c0,0-28.3-92-31.8-106.5C3231.6,1306.2,3246.2,1271.7,3246.2,1271.7z"/>
		<g>
			<path class="st3" d="M3182.6,1469.3c0,0-16.5-8.4-31.4-5.1c-14.9,3.3-20.1,8-22.9,13.8c-2.8,5.8,23.3,15,33.4,13.5
				C3171.6,1489.9,3182.6,1484,3182.6,1469.3z"/>
			<path class="st3" d="M3177.2,1464.9c-9.7-5.5-20.6-9.1-31.7-10.4c-1.4-0.1-3.7-0.3-5.1-0.3c-2.8-0.4-6.6,0.3-6.6,3.9
				c-0.1,3.3,3.2,4.2,5.8,4.4c10.8,2,21,7.1,29.7,13.8C3177.2,1483.9,3187,1469.9,3177.2,1464.9z"/>
			<path class="st3" d="M3150.9,1464.1c-11.6,1.3-23.5,0.5-34.7-2.7c-4.2-1.3-6.5,5.1-2.6,6.8c4.3,2.1,9,4,13.6,5.4
				c8.2,2.4,16.7,4.1,25.3,4.3C3162.9,1477.8,3161,1461.8,3150.9,1464.1z"/>
			<path class="st3" d="M3145.9,1468.7c-7.6,1.8-15.5,2.3-23.3,1.8c-4.6,0.7-13.3-4.9-15.3,1.2c-1.3,6.2,16.4,8.3,20.9,9.6
				c7,1.1,14.2,1.7,21.2,1C3160.1,1480.7,3155.8,1464.6,3145.9,1468.7z"/>
			<path class="st3" d="M3145.5,1474.3c-10.5,4.3-22.4,5.7-33.6,3.3c-4.2-0.9-6.1,5.6-2,7c4.7,1.9,9.6,3.2,14.6,3.9
				c9.2,1.1,18.8,0.9,27.8-1.8C3163.4,1483.1,3154.6,1467,3145.5,1474.3z"/>
			<path class="st3" d="M3159.9,1479.6c-10.3,5.7-22.2,9.1-34,8.9c-4.7,1.1-14.6-4.7-16.4,1.1c-1.3,8.1,23.8,8.7,29.4,8.4
				c9.7-0.6,19.4-2.6,28.2-6.6C3176.5,1486.9,3168.1,1473.3,3159.9,1479.6z"/>
			<path class="st10" d="M3117.9,1488.3c-0.2-0.2-0.3-0.5-0.3-0.7c0.1-0.4,0.5-0.7,0.9-0.6c0.1,0,10.4,1.9,18,1.5
				c0.4,0,0.8,0.3,0.8,0.8c0,0.4-0.3,0.8-0.8,0.8c-7.8,0.4-18-1.4-18.4-1.5C3118.1,1488.4,3118,1488.4,3117.9,1488.3z"/>
			<path class="st10" d="M3116.3,1470.2c-0.2-0.2-0.3-0.6-0.2-0.9c0.2-0.4,0.6-0.6,1-0.5c0.1,0,12.3,4.8,22.4,5.4
				c0.4,0,0.8,0.4,0.7,0.9c0,0.4-0.4,0.8-0.9,0.7c-10.4-0.7-22.4-5.4-22.9-5.6C3116.5,1470.4,3116.4,1470.3,3116.3,1470.2z"/>
			<path class="st10" d="M3115,1478.9c-0.2-0.2-0.3-0.5-0.2-0.9c0.1-0.4,0.6-0.6,1-0.5c0.1,0,11.2,3.9,21.4,4.2
				c0.4,0,0.8,0.4,0.8,0.8c0,0.4-0.4,0.8-0.8,0.8c-10.5-0.3-21.8-4.2-21.9-4.3C3115.1,1479,3115.1,1478.9,3115,1478.9z"/>
		</g>
		<g>
			<path class="st3" d="M3003.3,1493.1c0,0-18,4.6-27,16.9c-9,12.4-9.8,19.3-8,25.5c1.7,6.3,27.4-4.1,33.9-11.9
				C3008.7,1515.7,3013,1504.1,3003.3,1493.1z"/>
			<path class="st3" d="M2996.3,1493.3c-10.9,2.3-21.5,6.7-30.7,13.1c-1.1,0.9-3,2.2-4.1,3.2c-2.4,1.6-4.7,4.6-2.4,7.3
				c2.1,2.5,5.2,1,7.3-0.6c9.4-5.6,20.4-8.6,31.3-9.3C3008.9,1507.5,3007,1490.6,2996.3,1493.3z"/>
			<path class="st3" d="M2976.1,1510c-7.8,8.6-17.3,15.9-27.8,20.9c-4,1.8-1.5,8.1,2.6,6.8c4.7-1.3,9.3-3,13.7-5
				c7.7-3.6,15.2-8,21.8-13.4C2994.1,1512.4,2982.2,1501.6,2976.1,1510z"/>
			<path class="st3" d="M2975.4,1516.8c-4.5,6.4-10.1,12-16.3,16.7c-3,3.6-13.2,5.1-10.7,11c3.1,5.6,17.8-4.6,22-6.6
				c6-3.8,11.7-8.1,16.6-13.3C2994,1516.5,2980.2,1507.2,2975.4,1516.8z"/>
			<path class="st3" d="M2978.8,1521.3c-5,10.2-13.1,19.1-23,24.7c-3.8,2.1-0.9,8.2,3.1,6.6c4.7-1.7,9.3-3.9,13.5-6.7
				c7.7-5.2,14.7-11.8,19.7-19.7C2998,1516.1,2980.8,1509.8,2978.8,1521.3z"/>
			<path class="st3" d="M2993.1,1515.8c-3.9,11.1-10.6,21.4-19.6,29.2c-2.8,3.9-14.1,6.1-11.6,11.6c4.4,6.9,23.6-9.2,27.6-13.1
				c6.9-6.9,12.8-14.8,16.8-23.6C3010.4,1510.2,2995.1,1505.6,2993.1,1515.8z"/>
			<path class="st10" d="M2967.3,1550.1c-0.3,0-0.5-0.1-0.7-0.4c-0.2-0.4-0.1-0.9,0.3-1.1c0.1-0.1,9.1-5.5,14.5-10.8
				c0.3-0.3,0.8-0.3,1.1,0c0.3,0.3,0.3,0.8,0,1.1c-5.5,5.5-14.4,10.8-14.8,11.1C2967.6,1550,2967.4,1550.1,2967.3,1550.1z"/>
			<path class="st10" d="M2954.2,1537.6c-0.3,0-0.6-0.2-0.7-0.5c-0.2-0.4,0.1-0.9,0.5-1c0.1,0,12.4-4.5,20.4-10.7
				c0.4-0.3,0.9-0.2,1.1,0.1c0.3,0.4,0.2,0.9-0.1,1.1c-8.2,6.3-20.3,10.8-20.8,11C2954.4,1537.5,2954.3,1537.6,2954.2,1537.6z"/>
			<path class="st10" d="M2958.9,1544.9c-0.3,0-0.6-0.2-0.7-0.5c-0.2-0.4,0-0.9,0.4-1c0.1,0,11-4.5,18.8-11c0.3-0.3,0.8-0.2,1.1,0.1
				c0.3,0.3,0.2,0.8-0.1,1.1c-8.1,6.7-19.2,11.2-19.3,11.3C2959.1,1544.9,2959,1544.9,2958.9,1544.9z"/>
		</g>
		<path class="st22" d="M3096.4,1426.5c-0.1,0-0.1,0-0.2,0c-0.6-0.1-1-0.7-0.9-1.3c0.1-0.5,9.3-55.1,27.1-97.9
			c0.2-0.6,0.9-0.9,1.5-0.6c0.6,0.2,0.9,0.9,0.6,1.5c-17.6,42.6-26.8,96.9-26.9,97.4C3097.4,1426.1,3096.9,1426.5,3096.4,1426.5z"/>
		<path class="st22" d="M3282.9,1431C3282.9,1431,3282.8,1431,3282.9,1431c-0.3,0-4.9-0.3-16.1-2.6c-0.4-0.1-0.7-0.3-0.8-0.7
			c-0.1-0.4-14.2-36.8-26.1-98.2c-0.1-0.6,0.3-1.2,0.9-1.3c0.6-0.1,1.2,0.3,1.3,0.9c11.1,57,24,92.3,25.8,97.2
			c10.6,2.1,15.1,2.4,15.1,2.4c0.6,0,1.1,0.6,1.1,1.2C3284,1430.5,3283.5,1431,3282.9,1431z"/>
		<path class="st22" d="M3276.2,1413.1c-4.8,0-9.7-0.3-14.9-0.9c-0.6-0.1-1.1-0.6-1-1.3c0.1-0.6,0.6-1.1,1.3-1
			c50.6,6.1,83-21.5,83.3-21.8c0.5-0.4,1.2-0.4,1.6,0.1c0.4,0.5,0.4,1.2-0.1,1.6C3346.1,1390.1,3319.2,1413.1,3276.2,1413.1z"/>
		<path class="st22" d="M3099.4,1411c-0.2,0-0.4,0-0.5-0.1c-20.8-11-30.3-34.9-30.7-35.9c-0.2-0.6,0.1-1.3,0.6-1.5
			c0.6-0.2,1.3,0.1,1.5,0.6c0.1,0.2,9.7,24.2,29.7,34.8c0.6,0.3,0.8,1,0.5,1.5C3100.2,1410.8,3099.8,1411,3099.4,1411z"/>
		<path class="st22" d="M3198.1,1293.5c-0.8,0-1.6,0-2.4-0.1c-23.4-1.6-23.4-23.2-23.4-23.4c0-0.6,0.5-1.1,1.1-1.1c0,0,0,0,0,0
			c0.6,0,1.1,0.5,1.1,1.2c0,0.8,0.1,19.6,21.3,21.1c0.7,0.1,1.5,0.1,2.2,0.1c21.5,0,47.1-20.2,47.4-20.4c0.5-0.4,1.2-0.3,1.6,0.2
			c0.4,0.5,0.3,1.2-0.2,1.6C3245.8,1273.5,3220.3,1293.5,3198.1,1293.5z"/>
		<path class="st22" d="M3217.7,1530.2c-20.8,0-39.8-1.4-55.7-3.3c-46.1-5.4-77.7-15.7-78-15.8c-0.6-0.2-0.9-0.8-0.7-1.4
			c0.2-0.6,0.8-0.9,1.4-0.7c0.3,0.1,31.7,10.3,77.6,15.7c42.3,5,106,6.8,168.8-13c0.6-0.2,1.2,0.1,1.4,0.7c0.2,0.6-0.1,1.2-0.7,1.4
			C3292.2,1526.3,3252.4,1530.2,3217.7,1530.2z"/>
		<path class="st19" d="M3150.1,1769.3c-49.4,0-88.7-23.5-89.2-23.8c-0.5-0.3-0.7-1-0.4-1.6c0.3-0.5,1-0.7,1.6-0.4
			c0.5,0.3,47.8,28.6,103.5,22.7c0.6-0.1,1.2,0.4,1.3,1c0.1,0.6-0.4,1.2-1,1.3C3160.6,1769,3155.3,1769.3,3150.1,1769.3z"/>
		<path class="st19" d="M3254.7,1767.6c-11,0-23.1-0.7-36.2-2.5c-0.6-0.1-1.1-0.7-1-1.3c0.1-0.6,0.7-1.1,1.3-1
			c70.6,9.7,110.3-11.6,110.7-11.9c0.6-0.3,1.2-0.1,1.6,0.4c0.3,0.6,0.1,1.2-0.4,1.6C3330.3,1753.1,3303.4,1767.6,3254.7,1767.6z"/>
		<path class="st19" d="M3198.7,1618.5c-0.6,0-1-0.4-1.1-1l-8.2-51.7c-0.1-0.6,0.3-1.2,0.9-1.3c0.6-0.1,1.2,0.3,1.3,0.9l8.2,51.7
			c0.1,0.6-0.3,1.2-0.9,1.3C3198.8,1618.4,3198.7,1618.5,3198.7,1618.5z"/>
		<path class="st10" d="M3187.9,1200.6c0.1-1.5,0.4-2.9,1.1-4.2c2.2-4.5,7.3-7.2,12.9-6.9c4.8,0.2,9.2,2.7,11.4,6.5
			c1.1,1.8,1.6,3.9,1.5,5.9c0,0,0,0,0,0c-0.2,3.2-1.7,6.1-4.4,8.2c-2.6,2.1-6.1,3.1-9.6,2.9c-1,0-1.9-0.2-2.9-0.4
			C3192,1211.2,3187.7,1206.3,3187.9,1200.6z M3212.3,1201.8c0.1-1.6-0.3-3.1-1.1-4.6c-1.8-3.1-5.4-5.1-9.3-5.3
			c-4.5-0.2-8.8,2-10.6,5.6c-0.5,1-0.8,2.1-0.9,3.2c-0.2,5.1,4.5,9.5,10.5,9.8c3,0.1,5.8-0.7,7.9-2.4
			C3211,1206.6,3212.2,1204.3,3212.3,1201.8L3212.3,1201.8z"/>
	</g>
	<g id="_x34__1_">
		<path class="st13" d="M1047.7,575.8c0,0,45.4,0.4,73.7,35.9C1121.4,611.6,1076.4,622.9,1047.7,575.8z"/>
		<path class="st17" d="M685.6,514.2c0,0-28,19.2-47,68c-13.8,35.3-49.2,93.7-63.9,127.7c-59.6,137.3-7.5,209.1,175.4,203.6
			c86.4-2.6,105.9-69.4,91.8-128c-14-58.3-31.3-114.6-17-178.7c0,0-14.1-57.1-47.8-67.7C743.3,528.4,685.6,514.2,685.6,514.2z"/>
		
			<rect x="702.9" y="643.8" transform="matrix(0.9993 -3.671942e-02 3.671942e-02 0.9993 -25.0321 27.4856)" class="st3" width="65.6" height="102.9"/>
		<path class="st8" d="M721.7,700.2c0,0,20.8,15.6,47.5,10.2l-1.3-35.8L721.7,700.2z"/>
		<path class="st3" d="M749.9,704.7L749.9,704.7c38.1-1.9,67.4-34.3,65.5-72.4l-1.8-35.8c-1.9-38.1-34.3-67.4-72.4-65.5l0,0
			c-38.1,1.9-67.4,34.3-65.5,72.4l1.8,35.8C679.5,677.3,711.9,706.6,749.9,704.7z"/>
		<path class="st3" d="M739.7,1119.9c60.6-2.2,126.7-11.4,100.1-93.6c-13.7-42.3-7.6-110.2,1.9-187.1c7.4-60.2-41.4-120.4-103-120.1
			l-4,0.1c-59.1,3.1-85.9,63.1-77.5,123.2c10.9,77.4-5.2,132-19.9,171.6C596.9,1122.4,739.7,1119.9,739.7,1119.9z"/>
		<g id="_x33__2_">
			<path class="st3" d="M768.7,1118.2l-64.2,310.1l-1.5,7c-0.3,1.3-0.7,2.7-1.2,3.9l-113,287.6c-8.2,20.8-31.6,31-52.4,22.8
				c-20.8-8.2-31-31.6-22.8-52.4l112.9-287.7l-6.8-305.7c-0.5-41.6,32.2-60.3,73.8-60.9c41.6-0.5,76.2,17.3,76.7,58.9
				C770.4,1107.4,769.8,1113.1,768.7,1118.2z"/>
			<path class="st3" d="M862.5,1110.4l12.3,316.4l0.3,7.2c0.1,1.3,0,2.8-0.2,4.1l-40.6,306.4c-2.9,22.1-23.3,37.7-45.4,34.8
				c-22.1-2.9-37.7-23.2-34.8-45.4l40.5-306.4l-80.1-295.1c-10.5-40.2,13.5-81.3,53.7-91.8c40.2-10.5,81.3,13.5,91.8,53.7
				C861.5,1099.5,862.3,1105.2,862.5,1110.4z"/>
			<path class="st16" d="M839.8,1026.2c0,0,62.5,129.6,85.4,349.6c10.2,98.4-36,317.9-36,317.9s-91.9,24.5-170.7-6.5l36.4-253.9
				c0,0-13-142.6-39-213.6c-26-71-19.2-186.3-19.2-186.3C764.2,1039.2,839.8,1026.2,839.8,1026.2z"/>
			<path class="st5" d="M908,1842.3l-97.5-1.2l-20.4-43.8l-8.8,43.4l-28.2-0.3c-25.7-53.9,1.9-121.1,1.9-121.1s40.8,8.3,89.7,1.5
				l-1.1,43.7l72.7,53C927,1825.3,921.4,1842.4,908,1842.3z"/>
			<path class="st6" d="M767.1,1781.1c-1.1,0-2.1-0.2-3.1-0.6c-2-0.9-3.6-2.5-4.5-4.5c-0.8-2.1-0.8-4.3,0-6.4c0.9-2,2.5-3.6,4.5-4.5
				c2-0.8,4.3-0.8,6.4,0c2,0.9,3.6,2.5,4.5,4.5l0,0c1.7,4.2-0.3,9.1-4.5,10.8C769.3,1780.9,768.2,1781.2,767.1,1781.1z
				 M767.2,1766.7c-0.8,0-1.6,0.1-2.4,0.5c-1.5,0.6-2.7,1.8-3.3,3.3c-0.6,1.5-0.6,3.2,0,4.7c0.6,1.5,1.8,2.7,3.3,3.3
				c1.5,0.6,3.2,0.6,4.7,0c3.1-1.3,4.6-4.9,3.4-8c-0.6-1.5-1.8-2.7-3.3-3.3C768.8,1766.8,768,1766.7,767.2,1766.7z"/>
			<path class="st16" d="M789.5,1032.4c0,0,7,139.5-23.7,358.6c-13.7,98-111.4,299.9-111.4,299.9s-95.1,1.7-164.1-47.4l96.4-237.7
				c0,0-6-140.5-5.4-218.7c0.8-117.5,45.5-178.5,45.5-178.5C690.8,1030.4,789.5,1032.4,789.5,1032.4z"/>
			<path class="st5" d="M637,1839.6l-94.4-24.6l-9.3-47.4l-19,40l-27.3-7.1c-12-58.5,30.9-117.1,30.9-117.1s37.6,17.9,86.8,23
				l-11.6,42.1l57.8,68.9C659.5,1827.7,649.9,1843,637,1839.6z"/>
			<path class="st6" d="M514.9,1746.4c-1-0.3-2-0.7-2.9-1.4c-1.8-1.3-2.9-3.3-3.3-5.4c-0.3-2.2,0.2-4.4,1.5-6.2
				c1.3-1.8,3.3-2.9,5.4-3.3c2.2-0.3,4.4,0.2,6.2,1.5c1.8,1.3,2.9,3.3,3.3,5.4l0,0c0.7,4.5-2.5,8.8-7,9.4
				C517.1,1746.7,515.9,1746.7,514.9,1746.4z M518.5,1732.4c-0.8-0.2-1.6-0.2-2.4-0.1c-1.6,0.2-3.1,1.1-4,2.4
				c-1,1.3-1.4,2.9-1.1,4.6c0.2,1.6,1.1,3.1,2.4,4c1.3,1,2.9,1.4,4.6,1.1c3.4-0.5,5.7-3.6,5.2-7c-0.2-1.6-1.1-3.1-2.4-4
				C520,1732.9,519.2,1732.6,518.5,1732.4z"/>
		</g>
		<path class="st3" d="M757.1,779.7c-3-22.2,12.6-42.6,34.8-45.5L973.4,710l99.7-153.8c7-10.8,20.9-15,32.9-9.5
			c13.1,6.1,18.8,21.6,12.7,34.7l-86.1,185.9c-5,10.5-15.1,18.6-27.5,20.2l-202.5,27C780.4,817.4,760.1,801.8,757.1,779.7z"/>
		<path class="st7" d="M734.9,612.4c0.3,5.1-1.7,9.4-4.3,9.5c-2.6,0.1-5-3.9-5.2-9.1c-0.3-5.1,1.7-9.4,4.3-9.5
			C732.4,603.2,734.7,607.2,734.9,612.4z"/>
		<path class="st7" d="M769.7,723.9c0,0,72.1-15.4,195.5-20.5c0,0,50.7-84,82.5-127.6c0,0,27.9,33.5,73.7,35.9
			c0,0-54.2,163.1-99.6,181.9c-45.4,18.7-176.2,37.3-176.2,37.3L769.7,723.9z"/>
		<path class="st7" d="M776.6,610.3c0.3,5.1-1.7,9.4-4.3,9.5c-2.6,0.1-5-3.9-5.2-9.1c-0.3-5.1,1.7-9.4,4.3-9.5
			C774,601.1,776.3,605.1,776.6,610.3z"/>
		<path class="st9" d="M706.1,632.2c-0.4,3.7,2.5,7,6.5,7.4c4,0.4,7.6-2.2,8-5.8c0.4-3.7-2.5-7-6.5-7.4
			C710.1,625.9,706.5,628.6,706.1,632.2z"/>
		<path class="st9" d="M783.8,631.4c-0.4,3.7,2.5,7,6.5,7.4c4,0.4,7.6-2.2,8-5.8c0.4-3.7-2.5-7-6.5-7.4
			C787.8,625.1,784.2,627.7,783.8,631.4z"/>
		<path class="st7" d="M769.7,723.9c0,0,33,6.1,66.8,53.6c9.3,13,30.6,48,31.4,68.8c0.8,22.7-21,51.5-19.5,92.5
			c1.5,40.7,8.6,72-8.5,87.4c-13.5,12.1-138.3,30.5-203.8-8.4c-36.4-21.6,23.3-70.5,5.2-182.2c-13.8-85,32.9-100.4,62.8-109.4
			c0,0,31.6,60.5,54.1,58.5C781.3,782.8,769.7,723.9,769.7,723.9z"/>
		<path class="st3" d="M654.9,625.9c0.5,10.1,9.1,17.9,19.2,17.4c10.1-0.5,17.9-9.1,17.4-19.2c-0.5-10.1-9.1-17.9-19.2-17.4
			C662.1,607.1,654.4,615.7,654.9,625.9z"/>
		<path class="st17" d="M767.8,516.7c0,0,31.7-10.8,53.8,18.8c19.3,25.9,11.4,54.5-0.4,81C821.2,616.5,777.1,558.7,767.8,516.7z"/>
		
			<ellipse transform="matrix(0.9014 -0.4329 0.4329 0.9014 -188.4789 413.9722)" class="st3" cx="814.8" cy="620.9" rx="18.3" ry="18.3"/>
		<path class="st8" d="M743.2,657c0,5,4.8,9,10.6,9c5.8,0,10.4-4.1,10.4-9.1c0-1.1-0.3-2.2-0.7-3.2c-1.5-3.4-5.4-5.8-9.8-5.8
			c-3.9,0-7.3,1.9-9.1,4.7C743.6,653.9,743.1,655.4,743.2,657z"/>
		<path class="st10" d="M815.7,631.6c0.5-0.1,0.9-0.6,0.9-1.1c-0.3-5.4,2.8-6.5,5.8-7.5c1.8-0.6,3.5-1.2,4.2-2.7
			c0.5-0.9,0.4-2.1-0.1-3.4c-2.7-7.7-11.9-7.6-12.3-7.6c-0.6,0-1.1,0.5-1.1,1.1c0,0.6,0.5,1.1,1.1,1.1c0.3,0,8,0,10.2,6.2
			c0.3,0.8,0.3,1.4,0.1,1.8c-0.3,0.7-1.6,1.2-3,1.6c-3.1,1.1-7.7,2.7-7.2,9.7c0,0.6,0.5,1,1.1,1
			C815.6,631.6,815.7,631.6,815.7,631.6z"/>
		<path class="st10" d="M673.9,635.5c0.5-0.1,0.8-0.5,0.9-1c0.6-7-3.9-8.7-6.9-9.9c-1.4-0.5-2.6-1-2.9-1.7c-0.2-0.4-0.1-1,0.2-1.8
			c2.4-6.2,10.3-5.8,10.4-5.8c0.6,0,1.1-0.4,1.1-1c0-0.6-0.4-1.1-1-1.1c-0.4,0-9.5-0.4-12.5,7.2c-0.5,1.4-0.6,2.5-0.2,3.4
			c0.7,1.5,2.4,2.2,4.1,2.9c3,1.1,6.1,2.3,5.6,7.7c-0.1,0.6,0.4,1.1,1,1.2C673.7,635.5,673.8,635.5,673.9,635.5z"/>
		<path class="st17" d="M792.6,536.9c0,0-14.3,37.6-51.9,38.5c-44.2,1.1-62.4,57.4-62.4,57.4S652.7,590.4,660,560
			C676.8,490.5,748.6,473.3,792.6,536.9z"/>
		<path class="st10" d="M781.8,591.5c0.2,0,0.5-0.1,0.7-0.3c0.8-0.6,1-1.7,0.5-2.5c-0.2-0.3-4.3-6.2-10.9-7.1
			c-3.9-0.5-7.7,0.9-11.4,4.1c-0.8,0.7-0.8,1.8-0.2,2.5c0.7,0.8,1.8,0.8,2.5,0.2c2.9-2.5,5.8-3.6,8.6-3.2c5,0.6,8.3,5.5,8.4,5.5
			C780.4,591.4,781.2,591.7,781.8,591.5z"/>
		<path class="st10" d="M740.4,590.2c0.3-0.1,0.6-0.2,0.9-0.4c0.7-0.7,0.8-1.8,0.1-2.5c-0.2-0.2-4.2-4.5-10.1-4.3
			c-4.2,0.1-8.1,2.4-11.7,6.8c-0.6,0.8-0.5,1.9,0.2,2.5c0.8,0.6,1.9,0.5,2.5-0.2c2.9-3.5,5.9-5.4,9-5.5c4.2-0.1,7.3,3.1,7.3,3.2
			C739.1,590.1,739.8,590.3,740.4,590.2z"/>
		<path class="st10" d="M753.7,640.9c0.1,0,0.1,0,0.2,0c0.9-0.3,9.2-3.5,8.2-8c-0.8-3.8-9-20.2-9.3-20.9c-0.3-0.5-0.9-0.7-1.4-0.5
			c-0.5,0.3-0.7,0.9-0.5,1.4c2.3,4.7,8.5,17.5,9.2,20.5c0.5,2.1-4.4,4.7-6.9,5.6c-0.6,0.2-0.8,0.8-0.6,1.4
			C752.7,640.7,753.2,641,753.7,640.9z"/>
		<path class="st3" d="M1072.7,564.5c0,0,15.3-25,38.2-32.9c22.9-7.9,33.7-5.8,42.4-0.2c8.7,5.5-19.1,39.6-34,45.8
			C1104.5,583.3,1084.9,584.4,1072.7,564.5z"/>
		<path class="st3" d="M1071.4,559.1l0.7-1.4c0.2-0.5,0.4-0.8,0.6-1.1c0.2-0.3,0.4-0.7,0.5-1c0.4-0.6,0.7-1.2,1.1-1.8
			c0.7-1.2,1.4-2.4,2.2-3.5c0.7-1.2,1.5-2.3,2.3-3.4l2.4-3.3c3.2-4.4,6.6-8.5,10.3-12.5c3.6-4,7.6-7.7,11.7-11.2l3.2-2.6l3.3-2.4
			l1.6-1.2l1.7-1.1l3.4-2.2c2.6-1.6,6-1.2,8.1,1.2c2.3,2.6,2,6.6-0.6,8.9l-0.4,0.3l-2.6,2.3l-1.3,1.1l-1.3,1.2l-2.5,2.5l-1.6,1.8
			c0.9-0.5,1.9-0.9,2.8-1.4c2-1.1,4-2.2,6-3.4c4-2.3,7.9-4.9,11.6-7.6c1.9-1.3,3.7-2.8,5.6-4.2l2.7-2.2l1.3-1.1l1.3-1.2
			c3.5-3,6.8-6.3,9.9-9.8l0.2-0.2c1.9-2,5-2.5,7.4-0.9c2.7,1.7,3.5,5.3,1.7,8c-2.8,4.3-5.7,8.6-9,12.6l-1.2,1.5l-1.3,1.5l-0.9,1
			c0.3-0.2,0.6-0.4,0.9-0.6l2.8-2.1l1.4-1.1l1.4-1.1c3.7-2.9,7.2-6.1,10.6-9.3l0.2-0.2c2-1.9,5.1-2.2,7.4-0.5
			c2.6,1.9,3.2,5.5,1.3,8.1c-3,4.2-6.2,8.4-9.7,12.2l-1.2,1.4l1-0.6l2.9-2.1l1.5-1l1.4-1.1l2.8-2.2l0.4-0.3c2.2-1.7,5.3-1.7,7.5,0.2
			c2.4,2.1,2.6,5.8,0.5,8.2l-2.7,3.1l-1.4,1.5l-1.4,1.4l-2.9,2.9l-3,2.7c-1.6,1.4-3.3,2.8-5,4.1l2.5-1.6l1.8-1.2l1.7-1.3l3.4-2.6
			l0.4-0.3c2.2-1.7,5.5-1.6,7.6,0.4c2.3,2.2,2.3,5.9,0.1,8.2l-3.4,3.5l-1.7,1.8l-1.8,1.6l-3.7,3.2l-3.9,3c-0.7,0.5-1.3,1-2,1.5
			l-2.1,1.3c-1.4,0.9-2.7,1.8-4.2,2.6l-4.3,2.4c-1.4,0.8-2.9,1.5-4.4,2.2c-5.9,2.9-12,5.4-18.2,7.4l-4.7,1.4
			c-1.6,0.4-3.2,0.9-4.8,1.3c-1.6,0.4-3.2,0.8-4.9,1.1c-0.8,0.2-1.7,0.3-2.5,0.5c-0.4,0.1-0.9,0.1-1.3,0.2c-0.4,0.1-0.9,0.1-1.5,0.2
			l-1.4,0.2c-0.8,0.1-1.6,0.1-2.4,0c-6.1-0.7-10.4-6.2-9.7-12.2c0.7-6.1,6.2-10.4,12.2-9.7c0.1,0,0.4,0,0.7,0
			c-0.4-1.1-0.7-2.3-0.8-3.5c-0.1-1.3,0.1-2.5,0.4-3.6c-0.2-0.4-0.3-0.7-0.4-1.1c-5.1,0.5-10.1-2.6-11.7-7.7
			c-0.1-0.4-0.2-0.9-0.3-1.3c-2.1,3.3-4.1,6.6-5.9,10.1l-1.6,3.1c-0.5,1.1-1,2.1-1.5,3.2c-0.5,1.1-0.9,2.1-1.4,3.2
			c-0.2,0.5-0.4,1-0.6,1.6c-0.1,0.3-0.2,0.5-0.3,0.8c-0.1,0.2-0.2,0.5-0.2,0.6c-0.2,0.9-0.5,1.8-0.9,2.6c-2.7,5.5-9.4,7.7-14.9,5
			C1070.9,571.2,1068.7,564.6,1071.4,559.1z"/>
		<path class="st10" d="M1144,563.6c0.1,0,0.1,0,0.2-0.1c13.6-5.7,24.8-15.7,24.9-15.8c0.4-0.4,0.5-1.1,0.1-1.5
			c-0.4-0.4-1.1-0.5-1.5-0.1c-0.1,0.1-11,9.9-24.3,15.4c-0.5,0.2-0.8,0.9-0.6,1.4C1143,563.4,1143.6,563.7,1144,563.6z"/>
		<path class="st10" d="M1142.2,549.7c0.1,0,0.3-0.1,0.4-0.2c14.7-9.5,24.8-19.7,24.9-19.8c0.4-0.4,0.4-1.1,0-1.5
			c-0.4-0.4-1.1-0.4-1.5,0c-0.1,0.1-10,10.1-24.5,19.5c-0.5,0.3-0.6,1-0.3,1.5C1141.3,549.6,1141.7,549.8,1142.2,549.7z"/>
		<path class="st10" d="M1132,540.9c0.1,0,0.3-0.1,0.4-0.2c9.1-6.1,19.1-16.8,19.5-17.2c0.4-0.4,0.4-1.1-0.1-1.5
			c-0.4-0.4-1.1-0.4-1.5,0.1c-0.1,0.1-10.2,10.9-19.1,16.9c-0.5,0.3-0.6,1-0.3,1.5C1131.1,540.8,1131.6,540.9,1132,540.9z"/>
		<path class="st10" d="M1120.3,560.9c0.3-0.1,0.6-0.3,0.8-0.6c0.3-0.5,0-1.2-0.5-1.4c-4.6-2.2-10.5-2.5-13.7-2.5
			c4.6-6.8,6.1-15.5,6.1-16c0.1-0.6-0.3-1.1-0.9-1.2c-0.6-0.1-1.1,0.3-1.2,0.9c0,0.1-1.8,10.3-7,16.8c-0.3,0.3-0.3,0.8-0.1,1.2
			c0.2,0.4,0.6,0.6,1,0.6c0.1,0,8.9-0.5,14.9,2.3C1119.9,560.9,1120.1,561,1120.3,560.9z"/>
		<path class="st0" d="M744.5,652.6c12.3,5.4,18.9,1.1,18.9,1.1l0,0c-1.5-3.4-5.4-5.8-9.8-5.8C749.7,647.9,746.3,649.8,744.5,652.6z
			"/>
		<path class="st10" d="M753.7,667.1c-3.1,0-6-1-8.1-2.9c-2.2-1.9-3.5-4.5-3.5-7.2c0,0,0,0,0,0c0-1.8,0.5-3.5,1.5-5
			c2-3.2,5.9-5.2,10-5.2c4.8,0,9.1,2.5,10.8,6.4c0.5,1.2,0.8,2.4,0.8,3.7c0,4.8-3.8,8.9-9,10C755.4,667,754.6,667.1,753.7,667.1z
			 M745.4,653.2c-0.8,1.2-1.2,2.5-1.1,3.9c0,2.1,1,4.1,2.7,5.6c1.8,1.5,4.2,2.4,6.7,2.3c5.2,0,9.4-3.7,9.3-8.1c0-1-0.2-1.9-0.6-2.8
			c-1.4-3.1-5-5.2-8.9-5.1c-0.7,0-1.4,0.1-2.1,0.2C748.9,649.7,746.7,651.1,745.4,653.2z"/>
		<path class="st13" d="M659.5,1100.5c0,0-29.1,34.9-74.5,34.2C585,1134.7,604.9,1092.8,659.5,1100.5z"/>
		<path class="st3" d="M686.5,746.6c19,11.8,24.9,36.8,13,55.8L603,958l55.5,174.7c3.9,12.2-1.7,25.7-13.6,31.4
			c-13,6.3-28.6,0.8-34.9-12.2l-88.9-184.6c-5-10.5-4.8-23.5,1.8-34.1l107.8-173.6C642.5,740.6,667.5,734.8,686.5,746.6z"/>
		<path class="st7" d="M705.7,801.1c-7.1,45.8-44.9,94.1-92.3,154.7c0,0,32.7,92.5,46.2,144.8c0,0-43.6,0.3-74.5,34.2
			c0,0-93.9-146.2-77.2-192.5c89.7-249.2,196.3-216,196.3-216S708.6,782.4,705.7,801.1z"/>
		<path class="st3" d="M641.1,1113c0,0,18.5,22.8,18.2,47.1c-0.3,24.2-5.9,33.7-14,40c-8.1,6.3-30.9-31.2-31.8-47.3
			C612.7,1136.6,618.2,1117.8,641.1,1113z"/>
		<path class="st3" d="M646.6,1113.5l1.1,1.2c0.4,0.4,0.6,0.6,0.8,0.9c0.3,0.3,0.5,0.6,0.7,0.8c0.5,0.5,0.9,1.1,1.4,1.6
			c0.9,1.1,1.7,2.2,2.6,3.2c0.8,1.1,1.6,2.2,2.4,3.3l2.3,3.3c3,4.5,5.8,9.1,8.3,13.9c2.5,4.8,4.7,9.7,6.6,14.8l1.3,3.8l1.1,3.9
			l0.6,2l0.4,2l0.9,4c0.7,3-0.9,6.1-3.9,7.2c-3.2,1.3-6.9-0.3-8.2-3.6l-0.2-0.5l-1.3-3.3l-0.6-1.6l-0.7-1.6l-1.5-3.2l-1.1-2.1
			c0.1,1,0.3,2.1,0.4,3.1c0.3,2.3,0.7,4.5,1.1,6.8c0.9,4.5,1.9,9.1,3.2,13.5c0.6,2.2,1.4,4.4,2.1,6.7l1.2,3.3l0.6,1.6l0.7,1.6
			c1.7,4.4,3.7,8.5,5.9,12.6l0.1,0.2c1.3,2.4,0.6,5.5-1.6,7.3c-2.5,2-6.2,1.5-8.1-1.1c-3.1-4.1-6.2-8.3-8.8-12.7l-1-1.6l-1-1.7
			l-0.7-1.2c0.1,0.3,0.2,0.7,0.3,1l1,3.4l0.5,1.7l0.6,1.7c1.5,4.5,3.3,8.8,5.3,13.1l0.1,0.2c1.1,2.5,0.3,5.6-2,7.2
			c-2.6,1.8-6.3,1.1-8.1-1.5c-2.9-4.3-5.8-8.6-8.2-13.2l-0.9-1.6l0.3,1.1l1,3.4l0.5,1.7l0.6,1.7l1.2,3.4l0.2,0.4
			c0.9,2.6-0.2,5.6-2.7,7c-2.8,1.6-6.3,0.5-7.9-2.3l-2-3.6l-1-1.8l-0.9-1.8l-1.7-3.7l-1.5-3.8c-0.8-2-1.5-4-2.2-6.1l0.7,2.9l0.5,2.1
			l0.7,2l1.3,4.1l0.2,0.5c0.9,2.7-0.3,5.7-2.9,7c-2.9,1.4-6.3,0.2-7.7-2.6l-2.2-4.4l-1.1-2.2l-0.9-2.3l-1.8-4.6l-1.5-4.7
			c-0.2-0.8-0.5-1.6-0.7-2.4l-0.6-2.4c-0.4-1.6-0.8-3.2-1.1-4.8l-0.9-4.8c-0.3-1.6-0.4-3.2-0.6-4.9c-0.8-6.5-1-13.1-0.8-19.6
			l0.2-4.9c0.1-1.6,0.2-3.3,0.4-4.9c0.2-1.6,0.4-3.3,0.6-5c0.1-0.8,0.3-1.7,0.4-2.5c0.1-0.4,0.1-0.9,0.2-1.3
			c0.1-0.4,0.2-0.9,0.3-1.5l0.3-1.4c0.2-0.8,0.5-1.5,0.8-2.2c2.7-5.5,9.3-7.8,14.8-5.1c5.5,2.7,7.8,9.3,5.1,14.8
			c-0.1,0.1-0.2,0.4-0.3,0.7c1.2-0.1,2.4,0.1,3.6,0.4c1.2,0.4,2.3,0.9,3.3,1.6c0.4,0,0.8,0,1.2,0c1.2-5,5.8-8.7,11.2-8.4
			c0.5,0,0.9,0.1,1.4,0.1c-2.4-3.1-4.9-6.1-7.5-8.9l-2.4-2.5c-0.8-0.8-1.7-1.7-2.5-2.4c-0.8-0.8-1.7-1.6-2.5-2.3
			c-0.4-0.4-0.8-0.7-1.3-1.1c-0.2-0.2-0.4-0.4-0.6-0.5c-0.2-0.2-0.4-0.3-0.5-0.4c-0.7-0.5-1.5-1.1-2.1-1.7
			c-4.3-4.4-4.1-11.4,0.3-15.7C635.4,1109,642.4,1109.1,646.6,1113.5z"/>
		<path class="st10" d="M618,1180.5c0,0.1,0,0.1,0,0.2c0.8,14.7,6.5,28.6,6.6,28.8c0.2,0.5,0.9,0.8,1.4,0.6c0.5-0.2,0.8-0.9,0.6-1.4
			c-0.1-0.1-5.6-13.7-6.4-28.1c0-0.6-0.5-1-1.1-1C618.5,1179.6,618.1,1180,618,1180.5z"/>
		<path class="st10" d="M631.8,1183.4c0,0.1,0,0.3,0,0.4c4,17.1,10.2,29.9,10.3,30c0.3,0.5,0.9,0.8,1.4,0.5c0.5-0.3,0.8-0.9,0.5-1.4
			c-0.1-0.1-6.2-12.8-10.1-29.6c-0.1-0.6-0.7-0.9-1.3-0.8C632.1,1182.6,631.8,1183,631.8,1183.4z"/>
		<path class="st10" d="M643.5,1176.8c0,0.1,0,0.3,0,0.4c2.7,10.6,9.4,23.6,9.7,24.1c0.3,0.5,0.9,0.7,1.4,0.5
			c0.5-0.3,0.7-0.9,0.5-1.4c-0.1-0.1-6.9-13.3-9.5-23.7c-0.1-0.6-0.7-0.9-1.3-0.8C643.8,1176,643.5,1176.4,643.5,1176.8z"/>
		<path class="st13" d="M640.2,922.2c-0.2,0-0.5-0.1-0.6-0.2c-0.4-0.4-0.5-1-0.1-1.4c0.2-0.3,24.1-29.1,38.4-60.3
			c0.2-0.5,0.8-0.7,1.3-0.5c0.5,0.2,0.7,0.8,0.5,1.3c-14.4,31.5-38.4,60.4-38.6,60.7C640.8,922.1,640.5,922.2,640.2,922.2z"/>
		<path class="st13" d="M761.1,798.6c-38.3,0-71.2-70.3-72.6-73.3c-0.2-0.5,0-1.1,0.5-1.3c0.5-0.2,1.1,0,1.3,0.5
			c0.3,0.7,34.9,74.6,72.6,72.1c7-0.5,12.5-3.4,16.3-8.7c13.7-19.6,0.8-65.3,0.6-65.8c-0.2-0.5,0.2-1.1,0.7-1.2
			c0.5-0.2,1.1,0.2,1.2,0.7c0.6,1.9,13.4,47.1-0.9,67.5c-4.1,5.8-10.1,9.1-17.8,9.6C762.4,798.6,761.8,798.6,761.1,798.6z"/>
		<path class="st13" d="M1115.5,629.6C1115.4,629.6,1115.4,629.6,1115.5,629.6c-51.8-2.8-79.5-37.1-79.7-37.4
			c-0.3-0.4-0.3-1.1,0.2-1.4c0.4-0.3,1.1-0.3,1.4,0.2c0.3,0.3,27.4,33.9,78.2,36.6c0.6,0,1,0.5,0.9,1.1
			C1116.4,629.2,1116,629.6,1115.5,629.6z"/>
		<path class="st13" d="M574.2,1118.2c-0.2,0-0.5-0.1-0.6-0.2c-0.4-0.4-0.5-1-0.1-1.4c0.3-0.3,30.1-34.6,80.7-36.7c0.6,0,1,0.4,1,1
			c0,0.6-0.4,1-1,1c-49.6,2-78.9,35.7-79.2,36C574.7,1118,574.4,1118.2,574.2,1118.2z"/>
		<path class="st19" d="M634.1,1017.6c-0.4,0-0.8-0.3-0.9-0.7c-4.3-13-10-29.9-10.1-30.1c-0.2-0.5,0.1-1.1,0.6-1.3
			c0.5-0.2,1.1,0.1,1.3,0.6c0.1,0.2,5.8,17.1,10.1,30.1c0.2,0.5-0.1,1.1-0.6,1.3C634.3,1017.6,634.2,1017.6,634.1,1017.6z"/>
		<path class="st13" d="M863.7,829c-0.4,0-0.8-0.2-0.9-0.6c-6.9-17.7-25.2-47.5-27.1-50.4c-0.3-0.5-0.2-1.1,0.2-1.4
			c0.5-0.3,1.1-0.2,1.4,0.2c2,2.8,20.4,32.9,27.4,50.8c0.2,0.5-0.1,1.1-0.6,1.3C863.9,829,863.8,829,863.7,829z"/>
		<path class="st14" d="M752.4,1449.2c-0.1,0-0.3,0-0.4-0.1c-0.5-0.2-0.7-0.8-0.5-1.3c0.1-0.2,8.3-19.6,13.2-57
			c5-37.5,22.6-242.8,22.7-244.9c0-0.6,0.5-1,1.1-0.9c0.6,0,1,0.5,0.9,1.1c-0.2,2.1-17.8,207.4-22.7,245
			c-5,37.7-13.3,57.3-13.4,57.5C753.2,1449,752.8,1449.2,752.4,1449.2z"/>
		<path class="st14" d="M668,1662.9C668,1662.9,668,1662.9,668,1662.9c-98.2-1.5-167.1-44-167.7-44.5c-0.5-0.3-0.6-0.9-0.3-1.4
			c0.3-0.5,0.9-0.6,1.4-0.3c0.7,0.4,69.1,42.6,166.7,44.1c0.6,0,1,0.5,1,1C669,1662.4,668.5,1662.9,668,1662.9z"/>
		<path class="st14" d="M678.1,1640.7C678,1640.7,678,1640.7,678.1,1640.7c-103.4-7.3-167.2-46.6-167.8-47c-0.5-0.3-0.6-0.9-0.3-1.4
			c0.3-0.5,0.9-0.6,1.4-0.3c0.6,0.4,64,39.4,166.8,46.7c0.6,0,1,0.5,0.9,1.1C679,1640.3,678.6,1640.7,678.1,1640.7z"/>
		<path class="st14" d="M818.2,1676.7c-58.5,0-95.8-14.4-96.3-14.6c-0.5-0.2-0.8-0.8-0.6-1.3c0.2-0.5,0.8-0.8,1.3-0.6
			c0.7,0.3,71.6,27.7,171.6,6.4c0.5-0.1,1.1,0.2,1.2,0.8c0.1,0.5-0.2,1.1-0.8,1.2C866.5,1674.6,840.8,1676.7,818.2,1676.7z"/>
		<path class="st14" d="M829.2,1647c-59,0-102.7-12.2-103.3-12.4c-0.5-0.2-0.8-0.7-0.7-1.2c0.2-0.5,0.7-0.8,1.2-0.7
			c0.8,0.2,82.2,23,173,6.1c0.5-0.1,1.1,0.3,1.2,0.8c0.1,0.5-0.3,1.1-0.8,1.2C875.1,1645.3,851,1647,829.2,1647z"/>
	</g>
	<g id="_x33_">
		<path class="st16" d="M1735.9,1540.7c-6.3,0-11.4-5.1-11.4-11.4V1443c0-9.1-7.4-16.5-16.5-16.5h-4.4c-9.1,0-16.5,7.4-16.5,16.5
			c0,6.3-5.1,11.4-11.4,11.4s-11.4-5.1-11.4-11.4c0-21.7,17.7-39.4,39.4-39.4h4.4c21.7,0,39.4,17.7,39.4,39.4v86.3
			C1747.4,1535.5,1742.2,1540.7,1735.9,1540.7z"/>
		<path class="st12" d="M1849.5,1593.4h-228.8l-13.8-33.4c-5.9-14.3,3.2-30.8,16.9-30.8h222.6c13.7,0,22.8,16.5,16.9,30.8
			L1849.5,1593.4z"/>
		<rect x="1579.8" y="1585.5" class="st18" width="310.6" height="256.8"/>
		<circle class="st16" cx="1704.5" cy="1508.5" r="20.8"/>
		<circle class="st16" cx="1767.4" cy="1508.5" r="20.8"/>
		<path class="st20" d="M1735,1843.4c-0.6,0-1.1-0.5-1.1-1.1v-256.8c0-0.6,0.5-1.1,1.1-1.1s1.1,0.5,1.1,1.1v256.8
			C1736.2,1842.9,1735.7,1843.4,1735,1843.4z"/>
		<path class="st20" d="M1702,1725.2c-6.2,0-11.3-5.1-11.3-11.3c0-6.2,5.1-11.3,11.3-11.3c6.2,0,11.3,5.1,11.3,11.3
			C1713.3,1720.1,1708.2,1725.2,1702,1725.2z M1702,1704.9c-5,0-9,4-9,9c0,5,4,9,9,9c5,0,9-4,9-9
			C1711,1708.9,1707,1704.9,1702,1704.9z"/>
		<path class="st20" d="M1768.1,1725.2c-6.2,0-11.3-5.1-11.3-11.3c0-6.2,5.1-11.3,11.3-11.3c6.2,0,11.3,5.1,11.3,11.3
			C1779.4,1720.1,1774.3,1725.2,1768.1,1725.2z M1768.1,1704.9c-5,0-9,4-9,9c0,5,4,9,9,9c5,0,9-4,9-9
			C1777.1,1708.9,1773.1,1704.9,1768.1,1704.9z"/>
	</g>
	<g id="_x32__2_">
		<g>
			<path class="st16" d="M1564.4,749c-17,0-33.8-2.5-50-7.4c-28.4-8.6-54.3-24.5-74.8-46c-30.8-32.2-47.7-74.6-47.7-119.2
				c0-46.1,18-89.4,50.5-122c32.6-32.6,75.9-50.5,122-50.5c46.1,0,89.4,18,122,50.5s50.5,75.9,50.5,122c0,44.6-17,86.9-47.7,119.2
				c-20.6,21.6-46.5,37.5-74.8,46.1C1598.2,746.5,1581.4,749,1564.4,749z"/>
			<path class="st23" d="M1719.1,576.4c0,41.4-16.3,79.1-42.8,106.8c-18.2,19.1-41.2,33.5-67.1,41.3c-14.2,4.3-29.2,6.6-44.8,6.6
				c-15.6,0-30.6-2.3-44.8-6.6c-25.9-7.8-48.9-22.2-67.1-41.3c-26.5-27.8-42.8-65.4-42.8-106.8c0-85.5,69.3-154.7,154.7-154.7
				C1649.9,421.7,1719.1,490.9,1719.1,576.4z"/>
			<path class="st3" d="M1492.6,545l1,106.5c0.1,8-6.4,14.6-14.4,14.7c-8.7,0.1-15.7-7.5-14.5-16.6l14.9-105.5
				c0.5-3.6,3.8-6.1,7.4-5.6C1490.2,539.1,1492.6,541.8,1492.6,545z"/>
			<path class="st3" d="M1463.7,596.7c4.4,15.1,10.2,31.6,19.1,50.6c0.3,0.7,2.8,5.8,3.3,6.7c4,6.7,1.8,15.4-5,19.3
				c-6.7,4-15.4,1.8-19.3-5c-1.2-2.1-1.6-3.6-2.3-6.8c-4.6-19.9-7.6-41.2-8.7-62.9c-0.2-3.6,2.6-6.7,6.2-6.9
				C1460,591.6,1462.8,593.5,1463.7,596.7z"/>
			<path class="st3" d="M1517.7,538.8l-9.4,107.2c-0.7,8-7.8,13.9-15.7,13.2c-8.6-0.8-14.9-8.9-12.9-17.9l25.2-104.6
				c0.8-3.5,4.4-5.7,7.9-4.8C1515.9,532.6,1517.9,535.6,1517.7,538.8z"/>
			<path class="st3" d="M1541,547.7l-20.5,106.1c-1.5,7.9-9.1,13-17,11.5c-8.5-1.6-13.9-10.5-11-19.1l35.8-101.9
				c1.2-3.4,4.9-5.2,8.3-4C1539.8,541.3,1541.6,544.5,1541,547.7z"/>
			<path class="st3" d="M1556.1,571.3c-5.8,30.5-13.5,54.9-24.6,83.8c-2.6,6.4-4.7,11.9-7.9,18.9c-3.3,7.3-11.9,10.6-19.2,7.2
				c-8.1-3.7-11-13.6-6.2-21.1c4.3-6.7,5.6-9,9.9-16.3c15-26.4,25.6-48.2,35.4-75.8c1.3-3.8,5.2-5.3,8.4-4.1
				C1555,565,1556.7,568.2,1556.1,571.3z"/>
			<path class="st3" d="M1529.3,657.5l-9.7,67.1c-25.9-7.8-48.9-22.2-67.1-41.3l6.4-26.1l13.6,0.1l43.4,0.2L1529.3,657.5z"/>
			<path class="st3" d="M1649.2,544.2l14.9,105.5c1.1,7.9-4.4,15.3-12.4,16.4c-8.6,1.2-16.6-5.4-16.6-14.5l1-106.5
				c0-3.6,3-6.5,6.6-6.5C1646,538.6,1648.7,541,1649.2,544.2z"/>
			<path class="st3" d="M1678,598.6c-1.8,38-9.5,66.2-9.4,66c-1.9,7.6-9.6,12.1-17.2,10.2c-9-2.3-13.5-12.6-8.7-20.9
				c0.2-0.3,0.6-1.1,0.8-1.6c8.4-17,15.9-35.9,21.6-55.7c1.1-3.8,4.8-5.6,8.2-4.6C1676.2,592.9,1678.1,595.7,1678,598.6z"/>
			<path class="st3" d="M1624,536.7l25.2,104.6c1.9,7.8-2.9,15.7-10.7,17.5c-8.4,2-17-3.7-17.9-12.9l-9.4-107.2
				c-0.3-3.6,2.3-6.8,5.9-7.1C1620.3,531.4,1623.3,533.6,1624,536.7z"/>
			<path class="st3" d="M1600.4,544.3l35.8,101.9c2.7,7.6-1.3,15.9-8.9,18.5c-8.2,2.9-17.3-2-19.1-11l-20.5-106.1
				c-0.7-3.5,1.6-7,5.2-7.7C1596.2,539.4,1599.4,541.2,1600.4,544.3z"/>
			<path class="st3" d="M1585.3,568c8.5,23.9,18.1,45.5,35.4,75.8c7.5,12.7,10,16.3,9.9,16.2c4.4,6.7,2.5,15.7-4.2,20.1
				s-15.7,2.5-20.1-4.2c-1.8-2.8-7.7-17.8-9-20.9c-11.4-29.8-18.9-54.1-24.6-83.8c-0.7-3.5,1.6-7,5.2-7.6
				C1580.9,563.1,1584.1,564.7,1585.3,568z"/>
			<path class="st3" d="M1676.3,683.2c-18.2,19.1-41.2,33.5-67.1,41.3l-9.7-67.1l13.4-0.1l43.4-0.2l13.6-0.1L1676.3,683.2z"/>
			<path class="st16" d="M1556.6,516.6c0,11.5,4.6,16.3,10.3,16.3c5.7,0,10.3-4.8,10.3-16.3c0-11.5-10.3-25.4-10.3-25.4
				S1556.6,505.1,1556.6,516.6z"/>
			<path class="st16" d="M1514.1,491.1c0,11.5,4.6,16.3,10.3,16.3c5.7,0,10.3-4.8,10.3-16.3c0-11.5-10.3-25.4-10.3-25.4
				S1514.1,479.6,1514.1,491.1z"/>
			<path class="st16" d="M1599.2,491.1c0,11.5,4.6,16.3,10.3,16.3c5.7,0,10.3-4.8,10.3-16.3c0-11.5-10.3-25.4-10.3-25.4
				S1599.2,479.6,1599.2,491.1z"/>
		</g>
		<g>
			<path class="st16" d="M1971.9,749c-29.1,0-57.9-7.4-83.2-21.4c-25.6-14.1-47.4-34.7-63-59.5c-17.3-27.5-26.4-59.2-26.4-91.8
				c0-46.1,18-89.4,50.5-122c32.6-32.6,75.9-50.5,122-50.5s89.4,18,122,50.5c32.6,32.6,50.5,75.9,50.5,122
				c0,43.4-16.2,85-45.6,116.9c-19.2,20.9-43.4,36.8-70.1,46.1C2010.6,745.7,1991.5,749,1971.9,749z"/>
			<path class="st23" d="M2126.7,576.4c0,40.4-15.5,77.2-40.9,104.8c-17,18.5-38.6,32.9-62.8,41.3c-16,5.6-33.1,8.6-51,8.6
				c-27.1,0-52.5-6.9-74.6-19.1c-23-12.7-42.5-31.1-56.5-53.3c-15-23.8-23.7-52-23.7-82.3c0-85.5,69.3-154.7,154.7-154.7
				C2057.4,421.7,2126.7,490.9,2126.7,576.4z"/>
			<path class="st3" d="M1972,518.2l-48.2,95c-3.6,7.2-12.4,10-19.5,6.4c-7.2-3.6-10-12.4-6.4-19.5c0.3-0.6,0.7-1.3,1.1-1.9
				l61.9-86.7c2.1-2.9,6.2-3.6,9.1-1.5C1972.7,511.8,1973.5,515.3,1972,518.2z"/>
			<path class="st3" d="M1922.6,550.7c-3.1,15.4-5.5,32.7-6.4,53.7c0,0.7-0.2,6.4-0.2,7.4c0.4,7.8-5.5,14.5-13.3,14.9
				c-7.8,0.4-14.5-5.5-14.9-13.3c-0.1-2.4,0.3-4,1.1-7.1c5.1-19.7,12.2-40,21.3-59.8c1.5-3.3,5.4-4.7,8.7-3.2
				C1921.6,544.5,1923.3,547.5,1922.6,550.7z"/>
			<path class="st3" d="M1997.2,524.1l-57.7,90.8c-4.3,6.8-13.3,8.8-20.1,4.5c-6.8-4.3-8.8-13.3-4.5-20.1c0.4-0.6,0.8-1.2,1.3-1.7
				l70.5-81.2c2.4-2.7,6.5-3,9.2-0.7C1998.4,517.8,1998.9,521.5,1997.2,524.1z"/>
			<path class="st3" d="M2013.7,542.8l-67,84.7c-5,6.3-14.1,7.4-20.4,2.4c-6.3-5-7.4-14.1-2.4-20.4c0.4-0.5,1-1.1,1.5-1.6l78.8-74
				c2.6-2.5,6.8-2.3,9.2,0.3C2015.6,536.6,2015.7,540.3,2013.7,542.8z"/>
			<path class="st3" d="M2016.3,570.7c-19.2,24.4-37.4,42.5-60.5,63c-5.2,4.5-9.7,8.4-15.8,13.2c-6.3,5-15.4,3.9-20.4-2.4
				c-5.5-7-3.5-17.2,4.2-21.6c7-4,9.2-5.4,16.3-9.9c25.5-16.4,45-31,66.4-51c2.9-2.7,7-2.3,9.4,0.2
				C2018.2,564.6,2018.3,568.2,2016.3,570.7z"/>
			<path class="st3" d="M1952.8,634.9c-18.3,25.4-36.8,51.2-55.4,77.2c-23-12.7-42.5-31.1-56.5-53.3l49.6-56.5
				C1893.8,603.9,1952.3,634.6,1952.8,634.9z"/>
			<path class="st12" d="M2055.4,571.2c3.7-2.3,6.1-6.4,6.1-11c0-7.2-5.8-13-13-13c-1.1,0-2.2,0.2-3.3,0.4c0-0.1,0-0.3,0-0.4
				c0-14.8-12-26.7-26.7-26.7c-3.7,0-7.3,0.8-10.5,2.1c-2.9-15.3-16.3-26.9-32.5-26.9c-18.3,0-33.1,14.8-33.1,33.1
				c0,0.5,0,1.1,0,1.6c0,0,0,0,0,0c-12,0-21.8,9.7-21.8,21.8c0,1.9,0.2,3.7,0.7,5.5c-1-0.2-2.1-0.4-3.3-0.4c-8,0-14.5,6.5-14.5,14.5
				c0,5.3,2.9,10,7.2,12.5c-1.9,3.7-3,7.9-3,12.4c0,11.2,6.9,20.8,16.6,24.8c-1.8,2.2-2.9,5.1-2.9,8.1c0,7.2,5.8,13,13,13
				c1.6,0,3-0.3,4.4-0.8c3.7,12.2,15.1,21.2,28.5,21.2c13,0,24-8.3,28.1-19.9c2.8,1.3,6,2.1,9.3,2.1c12,0,21.8-9.7,21.8-21.8
				c0-3.2-0.7-6.2-1.9-8.9c3.8,2,8.1,3.2,12.7,3.2c14.8,0,26.7-12,26.7-26.7C2064.2,583.2,2060.8,576.1,2055.4,571.2z"/>
			<path class="st3" d="M1949.5,565.3l70.4,79.9c5.3,6,4.7,15.2-1.3,20.5c-6.5,5.7-16.8,4.6-21.8-3l-57.7-89.6c-2-3-1.1-7.1,2-9
				C1943.8,562.3,1947.4,562.9,1949.5,565.3z"/>
			<path class="st3" d="M1961.4,623.3c13.2,8.6,28.3,17.2,47.5,25.8c0.7,0.3,5.9,2.6,6.8,2.9c7.4,2.5,11.4,10.5,8.9,17.9
				s-10.5,11.4-17.9,8.9c-2.3-0.8-3.6-1.7-6.2-3.6c-16.6-12.1-32.7-26.2-47.7-41.9c-2.5-2.6-2.4-6.8,0.2-9.3
				C1955.3,621.9,1958.7,621.5,1961.4,623.3z"/>
			<path class="st3" d="M1964.4,544.2l63,87.2c4.7,6.5,3.2,15.6-3.3,20.3c-7,5.1-17.1,3-21.4-5.1l-49.4-95.6
				c-1.7-3.2-0.4-7.2,2.8-8.8C1959,540.7,1962.5,541.6,1964.4,544.2z"/>
			<path class="st3" d="M1987.8,535.7l53.9,93.7c4,7,1.6,15.8-5.3,19.8c-7.5,4.3-17.4,1.2-20.8-7.3L1976,541.3
				c-1.3-3.4,0.3-7.2,3.7-8.5C1982.8,531.7,1986.2,532.9,1987.8,535.7z"/>
			<path class="st3" d="M2014.7,543.7c15.2,26.4,25.4,49.7,36.2,79.5c2.3,6.5,4.2,12.1,6.4,19.5c2.3,7.7-2.1,15.8-9.8,18.1
				c-8.5,2.5-17.3-3.1-18.5-11.9c-1.1-7.9-1.6-10.6-3.1-18.8c-6.7-34.2-13.5-56.9-22.8-80.5c-1.5-3.7,0.5-7.4,3.7-8.6
				C2009.7,539.7,2013.1,540.9,2014.7,543.7z"/>
			<path class="st3" d="M2085.8,681.2c-17,18.5-38.6,32.9-62.8,41.3l-25.7-50.3l10.4-8.9l32.9-28.2l10.2-8.7L2085.8,681.2z"/>
		</g>
		<g>
			<path class="st16" d="M2379.5,749c-9.9,0-19.7-0.8-29.3-2.5c-10.2-1.7-20.3-4.4-30-8c-32.9-12-61-33.5-81.4-62.2
				c-20.8-29.3-31.8-63.8-31.8-99.9c0-46.1,18-89.4,50.5-122s75.9-50.5,122-50.5c46.1,0,89.4,18,122,50.5
				c32.6,32.6,50.5,75.9,50.5,122c0,35.8-10.9,70.2-31.5,99.4c-20.1,28.5-48,50.1-80.5,62.3c-11.3,4.3-23.2,7.3-35.2,9.1
				C2396.5,748.4,2388,749,2379.5,749z"/>
			<path class="st23" d="M2534.2,576.4c0,66.4-41.8,123-100.5,144.9c-10.1,3.8-20.6,6.5-31.5,8.1c-7.4,1.1-15,1.7-22.8,1.7
				c-9,0-17.8-0.8-26.3-2.2c-9.3-1.6-18.3-4-26.9-7.2c-59.2-21.7-101.5-78.6-101.5-145.3c0-85.5,69.3-154.7,154.7-154.7
				C2465,421.7,2534.2,490.9,2534.2,576.4z"/>
			<path class="st3" d="M2404.5,492.7l6,106.3c0.5,8-5.7,14.9-13.7,15.3c-8.7,0.5-16.1-6.7-15.3-15.9l9.9-106.1
				c0.3-3.6,3.5-6.2,7.1-5.9C2401.8,486.8,2404.3,489.5,2404.5,492.7z"/>
			<path class="st3" d="M2428.6,549.4c-0.7,5.4-1.5,10.8-2.5,16.1c-1,5.4-2.1,10.7-3.3,16c-1.2,5.3-2.5,10.6-4,15.9
				c-0.7,2.6-1.5,5.3-2.3,7.9l-1.2,4l-0.6,2l-0.3,1l-0.4,1.1l-0.3,0.9c-2.6,7.4-10.6,11.3-18,8.7c-7.4-2.6-11.3-10.6-8.7-18
				c0.4-1.3,1.1-2.5,1.8-3.6c0.1-0.2,0.3-0.5,0.5-0.7l0.5-0.8l1-1.6l1.9-3.3c1.3-2.2,2.5-4.4,3.8-6.7c2.5-4.5,4.8-9.1,7.1-13.7
				c2.3-4.6,4.5-9.3,6.5-14c2.1-4.7,4-9.5,5.8-14.4l0.1-0.1c1.3-3.4,5.1-5.1,8.5-3.8C2427.3,543.5,2429,546.4,2428.6,549.4z"/>
			<path class="st3" d="M2380,483.1l16.3,106.3c1.2,7.9-4.2,15.4-12.2,16.6c-8.6,1.3-16.6-5.1-16.7-14.3l-0.4-107.6
				c0-3.6,2.9-6.5,6.5-6.6C2376.8,477.5,2379.5,479.9,2380,483.1z"/>
			<path class="st3" d="M2355.9,488.7l27.2,104.6c2,7.8-2.6,15.7-10.4,17.7c-8.4,2.2-17.1-3.4-18.1-12.5L2343,491
				c-0.4-3.6,2.2-6.8,5.8-7.2C2352.1,483.5,2355.1,485.6,2355.9,488.7z"/>
			<path class="st3" d="M2338.8,511.1c6.4,24.5,14.3,46.8,29,78.5c6.4,13.3,8.6,17.1,8.5,17c3.8,7.1,1.2,15.9-5.9,19.7
				c-7.1,3.8-15.9,1.2-19.7-5.9c-1.6-2.9-6.2-18.3-7.2-21.6c-8.8-30.4-14.3-55.3-17.5-85.6c-0.4-3.6,2.2-6.8,5.8-7.2
				C2334.8,505.8,2337.9,507.7,2338.8,511.1z"/>
			<path class="st3" d="M2433.8,721.4c-10.1,3.8-20.6,6.5-31.5,8.1c-7.4,1.1-15,1.7-22.8,1.7c-9,0-17.8-0.8-26.3-2.2l-4.2-69
				l-0.3-4.6l-0.1-1.5l-2.2-35.5l0-0.4l-0.5-8.6l-0.5-7.9l6.1,0.5l1,0.1l3.9,0.3l2.4,0.2l10.4,0.8l17.3,1.4l3.2,0.2l10.5,0.8
				l1.8,0.1l2.5,0.2l6.4,0.5l3,0.2l1.6,0.1l0.2,1.6l0.6,3.9l0.2,1l3.2,20.2L2433.8,721.4z"/>
			<path class="st12" d="M2451,571.7c3.7-2.3,6.1-6.4,6.1-11c0-7.2-5.8-13-13-13c-1.1,0-2.2,0.2-3.3,0.4c0-0.1,0-0.3,0-0.4
				c0-14.8-12-26.7-26.7-26.7c-3.7,0-7.3,0.8-10.5,2.1c-2.9-15.3-16.3-26.9-32.5-26.9c-18.3,0-33.1,14.8-33.1,33.1
				c0,0.5,0,1.1,0,1.6c0,0,0,0,0,0c-12,0-21.8,9.7-21.8,21.8c0,1.9,0.2,3.7,0.7,5.5c-1-0.2-2.1-0.4-3.3-0.4c-8,0-14.5,6.5-14.5,14.5
				c0,5.3,2.9,10,7.2,12.5c-1.9,3.7-3,7.9-3,12.4c0,11.2,6.9,20.8,16.6,24.8c-1.8,2.2-2.9,5.1-2.9,8.1c0,7.2,5.8,13,13,13
				c1.6,0,3-0.3,4.4-0.8c3.7,12.2,15.1,21.2,28.5,21.2c13,0,24-8.3,28.1-19.9c2.8,1.3,6,2.1,9.3,2.1c12,0,21.8-9.7,21.8-21.8
				c0-3.2-0.7-6.2-1.9-8.9c3.8,2,8.1,3.2,12.7,3.2c14.8,0,26.7-12,26.7-26.7C2459.8,583.6,2456.4,576.6,2451,571.7z"/>
			<path class="st3" d="M2354.9,540.2l13.4,105.7c1,8-4.6,15.2-12.6,16.3c-8.6,1.1-16.5-5.6-16.4-14.8l2.5-106.5
				c0.1-3.6,3.1-6.5,6.7-6.4C2351.8,534.5,2354.5,537,2354.9,540.2z"/>
			<path class="st3" d="M2332.2,594.8c6,14.4,13.7,30,24.9,48c0.4,0.7,3.4,5.4,4,6.2c4.7,6.2,3.5,15.1-2.6,19.8
				c-6.2,4.7-15.1,3.5-19.8-2.7c-1.5-1.9-2-3.4-3.1-6.5c-6.9-19.4-12.4-40.1-16-61.4c-0.6-3.6,1.8-6.9,5.4-7.5
				C2328,590.3,2331,591.8,2332.2,594.8z"/>
			<path class="st3" d="M2379,531l3.2,107.5c0.2,8-6.1,14.7-14.1,15c-8.6,0.3-15.9-7.1-14.9-16.2l12.7-106.8
				c0.4-3.6,3.7-6.1,7.3-5.7C2376.5,525.1,2378.9,527.8,2379,531z"/>
			<path class="st3" d="M2403.2,537.1l-7.9,107.8c-0.6,8-7.5,14-15.6,13.4c-8.6-0.6-15.1-8.7-13.1-17.7l23.7-105.4
				c0.8-3.5,4.3-5.7,7.8-4.9C2401.3,531,2403.4,533.9,2403.2,537.1z"/>
			<path class="st3" d="M2421,558.8c-2.2,30.9-7,56.1-14.6,86.1c-1.8,6.8-3.3,12.4-5.6,19.7c-2.4,7.7-10.6,11.9-18.3,9.5
				c-8.4-2.7-12.6-12.2-8.7-20.2c3.5-7.2,4.5-9.6,8-17.4c11.8-27.9,19.8-50.9,26.3-79.4c0.9-3.9,4.5-5.8,7.9-5.1
				C2419.1,552.7,2421.2,555.6,2421,558.8z"/>
			<path class="st3" d="M2404.5,647.5l-2.2,82c-7.4,1.1-15,1.7-22.8,1.7c-9,0-17.8-0.8-26.3-2.2c-9.3-1.6-18.3-4-26.9-7.2l8.2-66.3
				l7.5-0.9l6.1-0.7l0.6-0.1l39.7-4.5l2.8-0.3L2404.5,647.5z"/>
		</g>
		<g>
			<path class="st16" d="M2787,749c-12.3,0-24.6-1.3-36.5-3.9c-28.6-6.2-55.4-19.7-77.5-39.1c-37.2-32.8-58.6-80-58.6-129.6
				c0-46.1,18-89.4,50.5-122s75.9-50.5,122-50.5c46.1,0,89.4,18,122,50.5c32.6,32.6,50.5,75.9,50.5,122c0,43.6-16.3,85.2-45.9,117.1
				c-20,21.6-45.3,37.8-73.1,46.9C2823.4,746.1,2805.4,749,2787,749z"/>
			<path class="st23" d="M2941.8,576.4c0,40.5-15.6,77.4-41.1,105c-17.7,19.1-40.2,33.8-65.5,42.1c-15.1,4.9-31.3,7.6-48.1,7.6
				c-11.2,0-22.2-1.2-32.7-3.5c-26.3-5.6-50-18-69.5-35.1c-32.2-28.4-52.5-69.9-52.5-116.2c0-85.5,69.3-154.7,154.7-154.7
				C2872.5,421.7,2941.8,490.9,2941.8,576.4z"/>
			<path class="st3" d="M2701.6,493.6l76.5,74.2c5.8,5.6,5.9,14.8,0.3,20.6c-6,6.2-16.4,5.9-22-1.3l-64.5-84.7
				c-2.2-2.9-1.6-7,1.2-9.2C2695.7,491.1,2699.3,491.4,2701.6,493.6z"/>
			<path class="st3" d="M2718,550.5c13.8,7.5,29.6,15,49.4,22c0.7,0.2,6.1,2.1,7.1,2.3c7.6,1.9,12.2,9.6,10.3,17.1
				c-1.9,7.6-9.6,12.2-17.1,10.3c-2.3-0.6-3.7-1.5-6.4-3.1c-17.7-10.9-34.9-23.7-50.8-38c-2.7-2.4-2.9-6.6-0.5-9.3
				C2711.9,549.6,2715.1,548.9,2718,550.5z"/>
			<path class="st3" d="M2714.7,471.4l69.6,82c5.2,6.1,4.4,15.3-1.7,20.5c-6.6,5.6-16.8,4.4-21.8-3.4l-56.7-91.4
				c-1.9-3.1-1-7.1,2.1-9C2709.1,468.4,2712.7,469,2714.7,471.4z"/>
			<path class="st3" d="M2737.4,461.1l61.1,89.1c4.5,6.6,2.9,15.7-3.8,20.2c-7.2,4.9-17.2,2.6-21.3-5.6l-47.3-97.1
				c-1.6-3.2-0.2-7.2,3-8.7C2732.1,457.5,2735.6,458.5,2737.4,461.1z"/>
			<path class="st3" d="M2764.9,466.9c17.4,25.3,29.4,47.9,42.3,76.4c2.8,6.4,5.1,11.7,7.9,18.9c2.9,7.5-0.9,15.9-8.4,18.8
				c-8.3,3.2-17.4-1.7-19.4-10.4c-1.8-7.8-2.4-10.3-4.6-18.5c-8.2-29.2-16.3-52.1-29-78.5c-1.7-3.6-0.1-7.4,3-8.9
				C2759.6,463.3,2763.1,464.3,2764.9,466.9z"/>
			<path class="st3" d="M2900.7,681.4c-17.7,19.1-40.2,33.8-65.5,42.1l-16.8-27.6l-15.1-24.8l-1.8-2.9l-6.1-10l-1.1-1.8l-1.1-1.8
				l-7.4-12.1l-4.7-7.6l-4.1-6.7v0l-0.1-0.1l-9.7-15.9l-3.5-5.7l-3.1-5.2l-1.5-2.5l-1.4-2.2l9.6-9.7l13.9-14l9.2-9.2l7.5-7.5
				l9.5-9.5l15.4,22.2l3.9,5.6l5,7.2l3.2,4.6l1.9,2.7l10.3,14.8l2.1,3l1,1.4l5.3,7.6l20.2,29.2L2900.7,681.4z"/>
			<path class="st12" d="M2884.4,604.8c0-8-6.5-14.5-14.5-14.5c-1.1,0-2.2,0.1-3.3,0.4c0.4-1.7,0.7-3.6,0.7-5.5
				c0-12-9.7-21.8-21.8-21.8c0,0,0,0,0,0c0-0.5,0-1.1,0-1.6c0-18.3-14.8-33.1-33.1-33.1c-16.2,0-29.6,11.6-32.5,26.9
				c-3.2-1.4-6.8-2.1-10.5-2.1c-14.8,0-26.7,12-26.7,26.7c0,0.1,0,0.3,0,0.4c-1-0.3-2.1-0.4-3.3-0.4c-7.2,0-13,5.8-13,13
				c0,4.6,2.4,8.7,6.1,11c-5.4,4.9-8.7,11.9-8.7,19.8c0,14.8,12,26.7,26.7,26.7c4.6,0,8.9-1.2,12.7-3.2c-1.2,2.7-1.9,5.7-1.9,8.9
				c0,12,9.7,21.8,21.8,21.8c3.3,0,6.5-0.8,9.3-2.1c4.1,11.6,15.1,19.9,28.1,19.9c13.5,0,24.8-8.9,28.5-21.2
				c1.4,0.5,2.9,0.8,4.4,0.8c7.2,0,13-5.8,13-13c0-3.1-1.1-5.9-2.9-8.1c9.7-4,16.6-13.6,16.6-24.8c0-4.5-1.1-8.7-3-12.4
				C2881.5,614.8,2884.4,610.2,2884.4,604.8z"/>
			<path class="st3" d="M2860.3,607.8l-75,75.6c-5.7,5.7-14.9,5.7-20.6,0.1c-6.2-6.1-5.7-16.5,1.6-22l85.5-63.5
				c2.9-2.2,7-1.6,9.1,1.3C2862.9,601.9,2862.6,605.6,2860.3,607.8z"/>
			<path class="st3" d="M2834.3,663.7c-31.5,21.6-58.7,32.5-58.3,32.3c-7.2,3-15.5-0.4-18.5-7.5c-3.6-8.6,1.9-18.4,11.4-19.5
				c0.3,0,1.1-0.2,1.7-0.3c18.7-3.6,38.2-9,57.4-16.4c3.7-1.4,7.4,0.5,8.6,3.7C2837.8,658.8,2836.7,662,2834.3,663.7z"/>
			<path class="st3" d="M2851.1,583.2l-68.2,83.2c-5.1,6.2-14.2,7.1-20.5,2c-6.7-5.5-7.3-15.8-0.5-22l79.7-72.2
				c2.7-2.4,6.8-2.2,9.2,0.5C2853.1,577.1,2853.1,580.8,2851.1,583.2z"/>
			<path class="st3" d="M2830.8,569l-59.6,90.1c-4.4,6.7-13.4,8.5-20.1,4.1c-7.2-4.8-8.8-15-2.8-21.8l72.2-80.4
				c2.4-2.7,6.5-2.9,9.2-0.5C2832.2,562.7,2832.6,566.4,2830.8,569z"/>
			<path class="st3" d="M2802.7,571.3c-16,24.4-27,46-39,74c-5.6,13.7-7,17.8-7,17.7c-2.7,7.6-11,11.5-18.6,8.8s-11.5-11-8.8-18.6
				c1.1-3.2,9.5-16.9,11.2-19.8c16.8-27.1,31.7-47.8,51.9-70.2c2.4-2.7,6.5-2.9,9.2-0.5C2804,564.8,2804.7,568.4,2802.7,571.3z"/>
			<path class="st3" d="M2782.8,692.6l-28.4,35.1c-26.3-5.6-50-18-69.5-35.1l47.9-48.6l7.3-7.4l8.2,10.7l2.7,3.5l23.7,31
				L2782.8,692.6z"/>
		</g>
		<g>
			<path class="st16" d="M3194.6,749c-19.4,0-38.5-3.2-56.7-9.5c-26.1-9.1-50-24.5-69-44.8c-30.2-32.1-46.9-74.1-46.9-118.3
				c0-46.1,18-89.4,50.5-122c32.6-32.6,75.9-50.5,122-50.5c46.1,0,89.4,18,122,50.5c32.6,32.6,50.5,75.9,50.5,122
				c0,23.4-4.6,46.2-13.7,67.6c-8.8,20.7-21.4,39.2-37.4,55.1c-21.4,21.2-48,36.4-76.9,44.1C3224.7,747,3209.7,749,3194.6,749z"/>
			<path class="st23" d="M3349.3,576.4c0,43-17.6,81.9-45.9,110c-18.9,18.7-42.5,32.5-68.9,39.6c-12.7,3.4-26.1,5.2-39.9,5.2
				c-17.8,0-34.9-3-50.8-8.5c-23.8-8.3-45-22.2-61.9-40.2c-26.1-27.7-42-65-42-106c0-85.5,69.3-154.7,154.7-154.7
				C3280,421.7,3349.3,490.9,3349.3,576.4z"/>
			<path class="st3" d="M3189.3,588.6l-39.4,98.9c-3,7.5-11.4,11.1-18.9,8.1c-8.1-3.2-11.7-12.9-7.2-20.8l53.8-92
				c1.8-3.1,5.8-4.2,8.9-2.3C3189.3,582.2,3190.4,585.6,3189.3,588.6z"/>
			<path class="st3" d="M3187.2,650.2c-20.5,32.3-41.3,52.9-41,52.6c-5.4,5.6-14.4,5.7-20,0.3c-6.7-6.5-5.4-17.7,2.9-22.4
				c0.3-0.2,0.9-0.6,1.5-0.9c15.6-10.5,31.5-23.2,46.4-37.6c2.9-2.8,7-2.4,9.4,0C3188.5,644.3,3188.8,647.7,3187.2,650.2z"/>
			<path class="st3" d="M3171.1,569.6L3141,672.8c-2.2,7.7-10.3,12.1-18,9.9c-8.3-2.4-12.9-11.7-9.1-20l45.1-97.7
				c1.5-3.3,5.4-4.7,8.7-3.2C3170.6,563.2,3172,566.5,3171.1,569.6z"/>
			<path class="st3" d="M3146.9,564.5l-19.5,106.3c-1.5,7.9-9,13.1-16.9,11.7c-8.5-1.6-14-10.3-11.1-19l35-102.2
				c1.2-3.4,4.9-5.2,8.3-4.1C3145.7,558.2,3147.5,561.3,3146.9,564.5z"/>
			<path class="st3" d="M3122,577.6c-5.2,28.9-6.9,53.2-6.9,83.4c0.2,14.8,0.5,19.1,0.5,19c0.5,8-5.7,14.9-13.7,15.4
				c-8,0.5-14.9-5.7-15.4-13.7c-0.2-3.3,2.1-19.3,2.6-22.6c4.8-31.3,10.4-56.2,20.3-84.9c1.2-3.4,4.9-5.2,8.3-4.1
				C3120.6,571.1,3122.6,574.1,3122,577.6z"/>
			<path class="st3" d="M3151.1,697l-7.3,25.6c-23.8-8.3-45-22.2-61.9-40.2l8-20.2l11.7,6.6l37.7,21.4L3151.1,697z"/>
			<path class="st3" d="M3223.4,551.8l36.4,100.1c2.7,7.5-1.2,15.9-8.7,18.6c-8.2,3-17.3-1.8-19.2-10.8l-21-104.4
				c-0.7-3.5,1.6-7,5.1-7.7C3219.1,547,3222.3,548.8,3223.4,551.8z"/>
			<path class="st3" d="M3213.3,610.2c9.1,12.8,20.1,26.4,34.8,41.3c0.6,0.6,4.5,4.5,5.3,5.2c6,5,6.8,13.9,1.8,19.9
				c-5,6-13.9,6.8-19.9,1.8c-1.9-1.6-2.7-2.9-4.4-5.6c-11.1-17.4-21-36.5-29.1-56.4c-1.4-3.4,0.2-7.2,3.6-8.5
				C3208.1,606.7,3211.4,607.4,3213.3,610.2z"/>
			<path class="st3" d="M3244.9,537.6l26.8,104.2c2,7.8-2.7,15.7-10.5,17.7c-8.4,2.2-17.1-3.4-18.1-12.6l-11.1-107
				c-0.4-3.6,2.2-6.8,5.8-7.2C3241.1,532.4,3244.1,534.5,3244.9,537.6z"/>
			<path class="st3" d="M3269.8,538.2l16,106.9c1.2,7.9-4.3,15.3-12.2,16.5c-8.6,1.3-16.6-5.2-16.7-14.4l-0.1-108.1
				c0-3.6,2.9-6.5,6.5-6.5C3266.6,532.7,3269.3,535.1,3269.8,538.2z"/>
			<path class="st3" d="M3292,555.5c4.6,30.4,5.5,55.9,4.7,87.2c-0.3,7-0.5,12.8-1.2,20.5c-0.7,8-7.7,13.9-15.7,13.2
				c-8.8-0.8-14.9-9.2-12.9-17.8c1.8-7.8,2.3-10.4,3.9-18.7c5.4-30.1,8.1-54.2,8.2-83.3c0-4,3.1-6.7,6.5-6.7
				C3288.8,549.9,3291.5,552.3,3292,555.5z"/>
			<path class="st3" d="M3303.4,686.4c-18.9,18.7-42.5,32.5-68.9,39.6l-5.6-57.1l12.9-4.5l41-14.3l12.7-4.4L3303.4,686.4z"/>
			<path class="st16" d="M3176.3,529c0,11.5,4.6,16.3,10.3,16.3c5.7,0,10.3-4.8,10.3-16.3c0-11.5-10.3-25.4-10.3-25.4
				S3176.3,517.4,3176.3,529z"/>
			<path class="st16" d="M3131.5,518.6c0,11.5,4.6,16.3,10.3,16.3s10.3-4.8,10.3-16.3c0-11.5-10.3-25.4-10.3-25.4
				S3131.5,507.1,3131.5,518.6z"/>
			<path class="st16" d="M3221.2,501.9c0,11.5,4.6,16.3,10.3,16.3s10.3-4.8,10.3-16.3c0-11.5-10.3-25.4-10.3-25.4
				S3221.2,490.3,3221.2,501.9z"/>
		</g>
	</g>
	<path id="_x31__1_" class="st7" d="M3566.7,1846.1H238.1c-2.1,0-3.8-1.7-3.8-3.8s1.7-3.8,3.8-3.8h3328.6c2.1,0,3.8,1.7,3.8,3.8
		S3568.8,1846.1,3566.7,1846.1z"/>
</g>
</svg>
