<?xml version="1.0" encoding="utf-8"?>
<!-- Generator: Adobe Illustrator 24.2.1, SVG Export Plug-In . SVG Version: 6.00 Build 0)  -->
<svg version="1.1" id="Capa_1" xmlns="http://www.w3.org/2000/svg" xmlns:xlink="http://www.w3.org/1999/xlink" x="0px" y="0px"
	 viewBox="0 0 425.2 425.2" style="enable-background:new 0 0 425.2 425.2;" xml:space="preserve">
<style type="text/css">
	.st0{fill:#FFFFFF;}
	.st1{fill:#F4D49D;}
	.st2{fill:#C1C3C3;}
	.st3{fill:#E6E7E8;}
	.st4{fill:#C02D33;}
	.st5{fill:#D1BCC7;}
	.st6{fill:#DEDFE0;}
	.st7{fill:none;stroke:#DADBDC;stroke-width:2.6996;stroke-miterlimit:10;}
	.st8{fill:#DADBDC;}
	.st9{fill:#C4C6C8;}
	.st10{fill:#DE2F35;}
	.st11{fill:none;}
	.st12{fill:#C0C2C4;}
	.st13{fill:#D58621;}
	.st14{fill:#C9751F;}
	.st15{fill:#FFDF9B;}
	.st16{opacity:0.5;fill:#FFFFFF;}
	.st17{fill:#E7B57C;}
	.st18{fill:#E8A123;}
	.st19{fill:#FFC421;}
	.st20{fill:#EFE6DB;}
	.st21{fill:#DC8745;}
	.st22{fill:#D16F34;}
	.st23{fill:#754C29;}
	.st24{fill:#6A3F22;}
	.st25{fill:#573717;}
	.st26{fill:#82552F;}
	.st27{fill:#EFCEA5;}
	.st28{fill:#A395C8;}
	.st29{fill:#FFC820;}
	.st30{fill:#D7DF23;}
	.st31{fill:#E36856;}
</style>
<g>
	<rect x="0" y="0" class="st0" width="425.2" height="425.2"/>
	<path class="st1" d="M330.3,383.7c44.4,14.1,64.9-25.4,50.6-63.4c-6.2-16.5-11.5-35.1-9.4-53.4c1.4-11.8,9.5-20.1,13.4-31
		c3.9-10.8,5.4-24.3,7.5-35.7c4.4-23.7-10.9-42.9-9.8-67.2c1.3-29.6,16.5-64.2-21.2-76.8c-23.6-7.8-48.8,1-71.6-10.5
		c-12.6-6.4-22-15.4-36.1-19.1c-13.1-3.5-27.9-5.5-41.5-4.1c-11.2,1.2-21.5,5.5-29.9,12.9c-10,8.7-20.3,18.8-35.2,14.4
		c-6.7-2-12-7.6-18.4-10.4c-7.8-3.4-16.8-5.2-24.9-7.2c-14.4-3.6-31.4-5.2-45.3,1.2C25.1,48.8,25,98.5,38.7,127.8
		c8.7,18.6,25.5,30.9,28.8,52.6c2.2,14.2-1.6,23.6-10.1,34.1c-11.2,13.7-26,32.7-26,51.4c0,21.9,24.8,29.1,30.2,48.2
		c5.4,19.1-9.5,37.9-7.1,57.5c3.4,27.8,39.3,29.6,60.6,22.8c10.3-3.2,18.9-10.9,29.2-12.9c10.1-2,22.2,2,32,4.3
		c17.7,4.2,35.6,12.5,53.3,14.9c15.9,2.1,30.2-9.8,44.3-15.2c14-5.2,26.8-9.1,42.2-9.1L330.3,383.7z"/>
</g>
<path class="st2" d="M302.4,301.7c-37.8,0-70,9.2-81.8,22.1c-19.3-5.2-46.7-9.9-77.2-13.1c-59.6-6.1-108.7-3.7-109.7,5.5
	c-0.9,9.2,46.6,21.6,106.3,27.7c32.3,3.3,61.5,4.1,81.6,2.7c12.6,12.3,44,21.1,80.7,21.1c47.8,0,86.6-14.8,86.6-33
	C389,316.5,350.2,301.7,302.4,301.7z"/>
<g>
	<g>
		<path class="st3" d="M166.4,267c2.5,29.2,4.6,54.8,4.6,57.6c0,8.5,17.5,15.3,39.1,15.3s39.1-6.9,39.1-15.3
			c0-2.8,2.1-28.3,4.6-57.6H166.4z"/>
		<path class="st4" d="M267.3,147.2c0-9.4-25.6-17.1-57.1-17.1c-31.6,0-57.1,7.7-57.1,17.1c0,7.9,13.5,159.3,13.5,166.7
			c0,9.4,19.5,17.1,43.6,17.1s43.6-7.7,43.6-17.1C253.8,306.5,267.3,155,267.3,147.2z"/>
		<path class="st5" d="M209.3,275.9c-16.8-22.1-22.5-55.2-22.4-82.3c0-21.1,3-42.3,8.3-62.9c-24.3,2-42.2,8.6-42.2,16.5
			c0,7.9,13.5,159.3,13.5,166.7c0,9.4,19.5,17.1,43.6,17.1s43.6-7.7,43.6-17.1c0-0.6,0.1-2.1,0.3-4.5
			C236.1,304.4,219.8,289.7,209.3,275.9z"/>
		<path class="st5" d="M200.2,307.3c-20.8-20-29.1-51.5-32.3-79.4c-3.6-31.3-0.2-63.6,8.5-94.5c-14.2,3.1-23.4,8.1-23.4,13.8
			c0,7.9,13.5,159.3,13.5,166.7c0,9.4,19.5,17.1,43.6,17.1c11.7,0,22.2-1.8,30.1-4.7C225.3,323.4,211.3,318,200.2,307.3z"/>
		<path class="st6" d="M270.6,147.2c0,10-27.1,18.1-60.5,18.1c-33.4,0-60.5-8.1-60.5-18.1c0-2.1,0-17.1,0-17.1s34-1,60.5-1
			c27,0,60.5,1,60.5,1S270.6,145.3,270.6,147.2z"/>
		<path class="st0" d="M270.6,130.1c0,10-27.1,18.1-60.5,18.1c-33.4,0-60.5-8.1-60.5-18.1c0-10,27.1-18.1,60.5-18.1
			C243.5,112,270.6,120.1,270.6,130.1z"/>
		<path class="st7" d="M261.5,130.1c0,8.5-23,15.4-51.4,15.4c-28.4,0-51.4-6.9-51.4-15.4c0-8.5,23-15.4,51.4-15.4
			C238.5,114.7,261.5,121.6,261.5,130.1z"/>
		<path class="st8" d="M227.1,130.1c0,2.8-7.6,5.1-17,5.1c-9.4,0-17-2.3-17-5.1c0-2.8,7.6-5.1,17-5.1
			C219.5,125,227.1,127.3,227.1,130.1z"/>
		<path class="st9" d="M210.1,127.7c7.8,0,14.4,1.6,16.4,3.7c0.4-0.4,0.6-0.9,0.6-1.4c0-2.8-7.6-5.1-17-5.1c-9.4,0-17,2.3-17,5.1
			c0,0.5,0.2,0.9,0.6,1.4C195.7,129.3,202.3,127.7,210.1,127.7z"/>
		<path class="st0" d="M217.5,71.9c0-1.5-3.3-2.7-7.4-2.7c-4.1,0-7.4,1.2-7.4,2.7c0,1.3,0,56.9,0,58.2c0,1.5,3.3,2.7,7.4,2.7
			c4.1,0,7.4-1.2,7.4-2.7C217.5,128.8,217.5,73.2,217.5,71.9z"/>
		<path class="st10" d="M250.2,301.2c-10-8.8-22.2-14.7-30.6-25.4c-26.5-34-28-97.7-23.4-101.3c5.3-4.1,15.1-1.7,21.6-2
			c12.7-0.6,32.2,1.9,43.8-2.8C262.6,179.3,250.2,301.2,250.2,301.2z"/>
		<g>
			<path class="st11" d="M212.7,69.3v63.3c0.8-0.1,1.5-0.3,2.2-0.5V69.8C214.2,69.6,213.5,69.5,212.7,69.3z"/>
			<path class="st11" d="M216.2,70.4v61.3c0.8-0.4,1.3-1,1.3-1.5c0-1.3,0-56.9,0-58.2C217.5,71.3,217,70.8,216.2,70.4z"/>
			<path class="st11" d="M205.4,69.8v62.3c0.7,0.2,1.5,0.4,2.4,0.5V69.3C206.9,69.4,206.1,69.6,205.4,69.8z"/>
			<path class="st11" d="M210.1,69.2c-0.3,0-0.7,0-1,0v63.6c0.3,0,0.7,0,1,0c0.4,0,0.8,0,1.2,0V69.2
				C210.9,69.2,210.5,69.2,210.1,69.2z"/>
			<path class="st11" d="M202.8,71.9c0,1.3,0,56.9,0,58.2c0,0.6,0.5,1.1,1.3,1.5V70.4C203.2,70.8,202.8,71.3,202.8,71.9z"/>
			<path class="st10" d="M204.1,70.4v61.3c0.4,0.2,0.8,0.4,1.3,0.5V69.8C204.9,70,204.4,70.2,204.1,70.4z"/>
			<path class="st10" d="M207.8,69.3v63.3c0.4,0.1,0.9,0.1,1.3,0.1V69.2C208.6,69.2,208.2,69.3,207.8,69.3z"/>
			<path class="st10" d="M214.8,69.8v62.3c0.5-0.2,1-0.3,1.3-0.5V70.4C215.8,70.2,215.4,70,214.8,69.8z"/>
			<path class="st10" d="M211.3,69.2v63.5c0.5,0,0.9-0.1,1.3-0.1V69.3C212.2,69.3,211.8,69.2,211.3,69.2z"/>
		</g>
		<path class="st12" d="M207.5,115.4c-1.5-9.8,0.2-18.7,0.4-28.5c0.1-5.9,0.1-11.8,0.8-17.7c-3.4,0.3-5.9,1.3-5.9,2.7v58.2
			c0,1.5,3.3,2.7,7.4,2.7c4.1,0,7.4-1.2,7.4-2.7v-1.8C212.4,125.6,208.4,121.2,207.5,115.4z"/>
	</g>
	<g>
		<path class="st13" d="M171.1,203.9c-12.2-6-8.2-4.4-44.1-9.5c-30.5-4.3-38.2-6.9-38.2-6.9l-20-26.8c0,0,25.7-12,65-3.5
			c39.9,8.6,55,28.8,55,28.8S175.4,201.9,171.1,203.9z"/>
		<path class="st14" d="M166.7,201.3c-10.9-5.4-7.3-4-39.5-8.5c-27.3-3.9-34.2-6.2-34.2-6.2l-18-24c0,0,23.1-10.7,58.2-3.1
			c35.7,7.7,49.3,25.8,49.3,25.8S170.6,199.5,166.7,201.3z"/>
		<g>
			<path class="st15" d="M73.6,172.7c0.3-3.1-2.2-10.5,4.2-12.1c3.2-0.8,7.2-2,9.4-4.7c2.6-3.1,3.7-5.6,7.9-6.8
				c8.8-2.5,22.4,2.8,23.4,12.8c0.4,4.5-2.5,7.4-5.3,10.4c-1.5,1.7-3.5,3.3-4.6,5.3c-1.2,2.2-0.9,4.9-1.5,7.3
				c-2.5,9-14.1,12.4-20.6,5.5c-2.8-3-1.7-5.7-5.9-7c-2.7-0.8-6.4,0.6-8.4-2C70.4,178.7,73.3,175.8,73.6,172.7z"/>
			<path class="st16" d="M78,168.8c0.2-2.2-1.6-7.7,3.1-8.8c2.4-0.6,5.2-1.9,6.8-3.9c1.9-2.3,3.1-4.8,6.2-5.6
				c6.4-1.8,16.8-0.5,17.6,6.8c0.3,3.3,0.3,6.8-4.4,9.7c-1.4,0.9-2.9,3.9-3.6,5.4c-0.8,1.6-0.6,3.6-1.1,5.3c-1.8,6.5-10.3,9-15,4
				c-2-2.2-1.3-4.1-4.3-5.1c-2-0.6-4.7,0.5-6.1-1.5C75.7,173.2,77.8,171.1,78,168.8z"/>
			<g>
				<path class="st17" d="M73.4,166.8c-0.1,1.6,0.2,3.3,0.2,4.6C73.7,170.2,73.5,168.6,73.4,166.8z"/>
				<path class="st17" d="M113.3,171c-1.5,1.7-3.5,3.3-4.6,5.3c-1.2,2.2-0.9,4.9-1.5,7.3c-2.5,9-14.1,12.4-20.6,5.5
					c-2.8-3-1.7-5.7-5.9-7c-2.7-0.8-6.4,0.6-8.4-2c-0.3-0.5-0.5-1-0.6-1.4c-0.1,0.9,0,1.8,0.6,2.7c2,2.7,5.7,1.2,8.4,2
					c4.2,1.3,3.1,4,5.9,7c6.5,6.9,18.1,3.5,20.6-5.5c0.7-2.4,0.4-5.1,1.5-7.3c1.1-2,3-3.6,4.6-5.3c2.7-2.9,5.6-5.8,5.3-10.1
					C118.3,165.8,115.8,168.4,113.3,171z"/>
			</g>
			<g>
				<path class="st17" d="M83.5,167.4c-0.9,0-0.9,1.4,0,1.4C84.4,168.7,84.4,167.4,83.5,167.4z"/>
				<path class="st17" d="M82.9,170.6c0-0.1-0.1-0.2-0.1-0.3c-0.1-0.2-0.5-0.2-0.6,0c-0.1,0.1-0.1,0.1-0.1,0.3
					c-0.1,0.3,0.1,0.6,0.4,0.6C82.7,171.2,82.9,170.9,82.9,170.6z"/>
				<path class="st17" d="M84,171.5c-0.5,0-0.5,0.8,0,0.8C84.5,172.4,84.5,171.5,84,171.5z"/>
				<path class="st17" d="M85.5,169.1c-0.6,0-0.6,1,0,1C86.1,170.1,86.1,169.1,85.5,169.1z"/>
				<path class="st17" d="M87,171.7c-0.5,0-0.5,0.8,0,0.8C87.5,172.5,87.5,171.7,87,171.7z"/>
				<path class="st17" d="M85.6,176.7C85.6,176.7,85.6,176.8,85.6,176.7C85.7,176.8,85.7,176.7,85.6,176.7z"/>
				<path class="st17" d="M84.7,176c-0.4,0-0.4,0.6,0,0.6C85.1,176.5,85.1,176,84.7,176z"/>
				<path class="st17" d="M82.6,174.8c-0.3,0-0.3,0.4,0,0.4C82.9,175.2,82.9,174.8,82.6,174.8z"/>
				<path class="st17" d="M79.8,170.8c-0.6,0-0.6,1,0,1C80.5,171.8,80.5,170.8,79.8,170.8z"/>
				<path class="st17" d="M78.2,167.9c-0.5,0-0.5,0.7,0,0.7C78.7,168.7,78.7,167.9,78.2,167.9z"/>
				<path class="st17" d="M85.3,166.5C85.3,166.5,85.2,166.5,85.3,166.5c-0.1,0-0.1,0-0.2,0c0,0,0,0,0,0c-0.1,0-0.2,0.1-0.2,0.3
					c0,0.1,0,0.2,0.2,0.3c0,0,0,0,0,0c0.1,0,0.1,0,0.2,0c0,0,0,0,0,0C85.5,166.9,85.5,166.5,85.3,166.5z"/>
				<path class="st17" d="M88.4,176.4c-0.6,0-0.6,0.9,0,0.9C89,177.3,89,176.4,88.4,176.4z"/>
				<path class="st17" d="M79.4,178.3c-0.6,0-0.6,0.9,0,0.9C80,179.2,80,178.3,79.4,178.3z"/>
				<path class="st17" d="M77.1,176.5c-0.6,0-0.6,0.9,0,0.9C77.7,177.4,77.7,176.5,77.1,176.5z"/>
				<path class="st17" d="M79.7,176.3c-0.6,0-0.6,1,0,1S80.4,176.3,79.7,176.3z"/>
				<path class="st17" d="M78.6,174.3c-0.7,0-0.7,1.1,0,1.1C79.3,175.4,79.3,174.3,78.6,174.3z"/>
				<path class="st17" d="M76.8,174.1c-0.3,0-0.3,0.4,0,0.4C77,174.5,77,174.1,76.8,174.1z"/>
				<path class="st17" d="M75.3,173c-0.5,0-0.5,0.8,0,0.8C75.8,173.8,75.8,173,75.3,173z"/>
				<path class="st17" d="M74.2,175.2c-0.6,0-0.6,0.9,0,0.9C74.7,176,74.7,175.2,74.2,175.2z"/>
			</g>
			<g>
				<path class="st17" d="M100.1,152.3c-0.9,0-0.9,1.4,0,1.4C101,153.6,101,152.3,100.1,152.3z"/>
				<path class="st17" d="M99.5,155.5c0-0.1-0.1-0.2-0.1-0.2c-0.1-0.2-0.5-0.2-0.6,0c-0.1,0.1-0.1,0.1-0.1,0.2
					c-0.1,0.3,0.1,0.6,0.5,0.6C99.4,156.1,99.6,155.8,99.5,155.5z"/>
				<path class="st17" d="M100.6,156.4c-0.5,0-0.5,0.8,0,0.8C101.2,157.3,101.2,156.4,100.6,156.4z"/>
				<path class="st17" d="M102.1,154c-0.6,0-0.6,1,0,1C102.7,155,102.7,154,102.1,154z"/>
				<path class="st17" d="M103.6,156.6c-0.5,0-0.5,0.8,0,0.8C104.1,157.4,104.1,156.6,103.6,156.6z"/>
				<path class="st17" d="M102.3,161.6C102.3,161.6,102.3,161.7,102.3,161.6C102.3,161.7,102.3,161.6,102.3,161.6z"/>
				<path class="st17" d="M101.4,160.9c-0.4,0-0.4,0.6,0,0.6C101.7,161.4,101.7,160.9,101.4,160.9z"/>
				<path class="st17" d="M99.3,159.7c-0.3,0-0.3,0.4,0,0.4C99.6,160.1,99.6,159.7,99.3,159.7z"/>
				<path class="st17" d="M96.5,155.7c-0.6,0-0.6,1,0,1C97.1,156.7,97.1,155.7,96.5,155.7z"/>
				<path class="st17" d="M94.9,152.8c-0.5,0-0.5,0.7,0,0.7C95.4,153.6,95.4,152.8,94.9,152.8z"/>
				<path class="st17" d="M101.9,151.4C101.9,151.4,101.9,151.4,101.9,151.4c-0.1,0-0.1,0-0.2,0c0,0,0,0,0,0c-0.1,0-0.2,0.1-0.2,0.3
					c0,0.1,0,0.2,0.2,0.3c0,0,0,0,0,0c0.1,0,0.1,0,0.2,0c0,0,0,0,0,0C102.2,151.8,102.2,151.4,101.9,151.4z"/>
				<path class="st17" d="M105,161.3c-0.6,0-0.6,0.9,0,0.9C105.6,162.2,105.6,161.3,105,161.3z"/>
				<path class="st17" d="M96.1,163.2c-0.6,0-0.6,0.9,0,0.9C96.7,164.1,96.7,163.2,96.1,163.2z"/>
				<path class="st17" d="M93.7,161.4c-0.6,0-0.6,0.9,0,0.9C94.3,162.3,94.3,161.4,93.7,161.4z"/>
				<path class="st17" d="M96.4,161.2c-0.6,0-0.6,1,0,1C97,162.1,97,161.2,96.4,161.2z"/>
				<path class="st17" d="M95.2,159.2c-0.7,0-0.7,1.1,0,1.1C95.9,160.3,95.9,159.2,95.2,159.2z"/>
				<path class="st17" d="M93.4,159c-0.3,0-0.3,0.4,0,0.4C93.7,159.4,93.7,159,93.4,159z"/>
				<path class="st17" d="M91.9,157.9c-0.5,0-0.5,0.8,0,0.8C92.4,158.6,92.4,157.9,91.9,157.9z"/>
				<path class="st17" d="M90.8,160.1c-0.6,0-0.6,0.9,0,0.9C91.4,160.9,91.4,160.1,90.8,160.1z"/>
			</g>
			<g>
				<path class="st17" d="M102.3,166.5c-0.9,0-0.9,1.4,0,1.4C103.2,167.8,103.2,166.5,102.3,166.5z"/>
				<path class="st17" d="M101.7,169.7c0-0.1-0.1-0.2-0.1-0.3c-0.1-0.2-0.5-0.2-0.6,0c-0.1,0.1-0.1,0.1-0.1,0.3
					c-0.1,0.3,0.1,0.6,0.4,0.6C101.6,170.3,101.8,170,101.7,169.7z"/>
				<path class="st17" d="M102.8,170.6c-0.5,0-0.5,0.8,0,0.8C103.4,171.5,103.4,170.6,102.8,170.6z"/>
				<path class="st17" d="M104.3,168.2c-0.6,0-0.6,1,0,1S104.9,168.2,104.3,168.2z"/>
				<path class="st17" d="M105.8,170.8c-0.5,0-0.5,0.8,0,0.8C106.3,171.6,106.3,170.8,105.8,170.8z"/>
				<path class="st17" d="M104.5,175.8C104.5,175.8,104.5,175.9,104.5,175.8C104.5,175.9,104.5,175.8,104.5,175.8z"/>
				<path class="st17" d="M103.6,175.1c-0.4,0-0.4,0.6,0,0.6C103.9,175.6,103.9,175.1,103.6,175.1z"/>
				<path class="st17" d="M101.5,173.9c-0.3,0-0.3,0.4,0,0.4C101.8,174.3,101.8,173.9,101.5,173.9z"/>
				<path class="st17" d="M98.7,169.9c-0.6,0-0.6,1,0,1C99.3,170.9,99.3,169.9,98.7,169.9z"/>
				<path class="st17" d="M97.1,167c-0.5,0-0.5,0.7,0,0.7C97.6,167.8,97.6,167,97.1,167z"/>
				<path class="st17" d="M104.1,165.6C104.1,165.6,104.1,165.6,104.1,165.6c-0.1,0-0.1,0-0.2,0c0,0,0,0,0,0c-0.1,0-0.2,0.1-0.2,0.3
					c0,0.1,0,0.2,0.2,0.3c0,0,0,0,0,0c0.1,0,0.1,0,0.2,0c0,0,0,0,0,0C104.4,166,104.4,165.6,104.1,165.6z"/>
				<path class="st17" d="M107.2,175.5c-0.6,0-0.6,0.9,0,0.9C107.8,176.4,107.8,175.5,107.2,175.5z"/>
				<path class="st17" d="M98.3,177.4c-0.6,0-0.6,0.9,0,0.9C98.9,178.3,98.9,177.4,98.3,177.4z"/>
				<path class="st17" d="M95.9,175.6c-0.6,0-0.6,0.9,0,0.9C96.5,176.5,96.5,175.6,95.9,175.6z"/>
				<path class="st17" d="M98.6,175.4c-0.6,0-0.6,1,0,1C99.2,176.4,99.2,175.4,98.6,175.4z"/>
				<path class="st17" d="M97.4,173.4c-0.7,0-0.7,1.1,0,1.1C98.1,174.5,98.1,173.4,97.4,173.4z"/>
				<path class="st17" d="M95.6,173.2c-0.3,0-0.3,0.4,0,0.4C95.9,173.6,95.9,173.2,95.6,173.2z"/>
				<path class="st17" d="M94.1,172.1c-0.5,0-0.5,0.8,0,0.8C94.6,172.9,94.6,172.1,94.1,172.1z"/>
				<path class="st17" d="M93,174.3c-0.6,0-0.6,0.9,0,0.9C93.6,175.1,93.6,174.3,93,174.3z"/>
			</g>
		</g>
		<g>
			<path class="st15" d="M152.5,183.7c0.3-2.6-1.9-9,3.6-10.3c2.8-0.7,6.1-1.7,8-4c2.2-2.7,3.2-4.8,6.8-5.8
				c7.5-2.1,19.1,2.4,19.9,10.9c0.4,3.8-2.1,6.3-4.5,8.8c-1.3,1.4-3,2.8-3.9,4.5c-1,1.9-0.7,4.2-1.3,6.3c-2.1,7.6-12,10.6-17.6,4.7
				c-2.4-2.5-1.5-4.9-5-5.9c-2.3-0.7-5.5,0.5-7.1-1.7C149.7,188.7,152.2,186.3,152.5,183.7z"/>
			<path class="st16" d="M156.3,180.3c0.2-1.9-1.4-6.5,2.6-7.5c2-0.5,4.4-1.6,5.8-3.3c1.6-1.9,2.6-4.1,5.3-4.8
				c5.5-1.5,14.4-0.4,15,5.8c0.3,2.8,0.3,5.8-3.8,8.3c-1.2,0.7-2.4,3.3-3.1,4.6c-0.7,1.4-0.5,3.1-1,4.6c-1.5,5.6-8.8,7.7-12.8,3.4
				c-1.7-1.8-1.1-3.5-3.7-4.3c-1.7-0.5-4,0.4-5.2-1.3C154.3,184,156.1,182.3,156.3,180.3z"/>
			<g>
				<path class="st17" d="M152.3,178.6c0,1.4,0.1,2.8,0.2,3.9C152.6,181.6,152.4,180.1,152.3,178.6z"/>
				<path class="st17" d="M186.3,182.2c-1.3,1.4-3,2.8-3.9,4.5c-1,1.9-0.7,4.2-1.3,6.3c-2.1,7.6-12,10.6-17.6,4.7
					c-2.4-2.5-1.5-4.9-5-5.9c-2.3-0.7-5.5,0.5-7.1-1.7c-0.3-0.4-0.5-0.8-0.5-1.2c-0.1,0.8,0,1.5,0.5,2.3c1.7,2.3,4.8,1,7.1,1.7
					c3.5,1.1,2.7,3.4,5,5.9c5.5,5.9,15.4,3,17.6-4.7c0.6-2.1,0.3-4.3,1.3-6.3c0.9-1.7,2.6-3.1,3.9-4.5c2.3-2.5,4.8-4.9,4.5-8.6
					C190.6,177.8,188.4,180,186.3,182.2z"/>
			</g>
			<g>
				<path class="st17" d="M160.9,179.1c-0.7,0-0.7,1.2,0,1.2C161.6,180.2,161.6,179.1,160.9,179.1z"/>
				<path class="st17" d="M160.4,181.9c0-0.1-0.1-0.1-0.1-0.2c-0.1-0.1-0.4-0.1-0.5,0c-0.1,0.1-0.1,0.1-0.1,0.2
					c-0.1,0.2,0.1,0.5,0.4,0.5C160.2,182.4,160.4,182.1,160.4,181.9z"/>
				<path class="st17" d="M161.3,182.6c-0.5,0-0.5,0.7,0,0.7C161.8,183.4,161.8,182.6,161.3,182.6z"/>
				<path class="st17" d="M162.6,180.6c-0.5,0-0.5,0.8,0,0.8C163.1,181.4,163.1,180.6,162.6,180.6z"/>
				<path class="st17" d="M163.9,182.8c-0.4,0-0.4,0.7,0,0.7C164.3,183.5,164.3,182.8,163.9,182.8z"/>
				<path class="st17" d="M162.7,187.1C162.7,187.1,162.7,187.1,162.7,187.1C162.8,187.1,162.8,187.1,162.7,187.1z"/>
				<path class="st17" d="M162,186.4c-0.3,0-0.3,0.5,0,0.5C162.3,186.9,162.3,186.4,162,186.4z"/>
				<path class="st17" d="M160.2,185.5c-0.2,0-0.2,0.3,0,0.3C160.4,185.8,160.4,185.5,160.2,185.5z"/>
				<path class="st17" d="M157.8,182.1c-0.5,0-0.5,0.8,0,0.8S158.3,182.1,157.8,182.1z"/>
				<path class="st17" d="M156.4,179.6c-0.4,0-0.4,0.6,0,0.6C156.8,180.2,156.8,179.6,156.4,179.6z"/>
				<path class="st17" d="M162.4,178.3C162.4,178.3,162.4,178.3,162.4,178.3c-0.1,0-0.1,0-0.2,0c0,0,0,0,0,0c-0.1,0-0.2,0.1-0.2,0.2
					c0,0.1,0,0.2,0.2,0.2c0,0,0,0,0,0c0.1,0,0.1,0,0.1,0c0,0,0,0,0,0C162.6,178.7,162.6,178.4,162.4,178.3z"/>
				<path class="st17" d="M165.1,186.8c-0.5,0-0.5,0.8,0,0.8C165.6,187.6,165.6,186.8,165.1,186.8z"/>
				<path class="st17" d="M157.4,188.4c-0.5,0-0.5,0.8,0,0.8C157.9,189.2,157.9,188.4,157.4,188.4z"/>
				<path class="st17" d="M155.4,186.9c-0.5,0-0.5,0.8,0,0.8C155.9,187.6,155.9,186.9,155.4,186.9z"/>
				<path class="st17" d="M157.7,186.7c-0.5,0-0.5,0.8,0,0.8C158.2,187.5,158.2,186.7,157.7,186.7z"/>
				<path class="st17" d="M156.7,185c-0.6,0-0.6,0.9,0,0.9C157.3,185.9,157.3,185,156.7,185z"/>
				<path class="st17" d="M155.2,184.8c-0.2,0-0.2,0.3,0,0.3C155.4,185.2,155.4,184.8,155.2,184.8z"/>
				<path class="st17" d="M153.9,183.9c-0.4,0-0.4,0.7,0,0.7C154.3,184.5,154.3,183.9,153.9,183.9z"/>
				<path class="st17" d="M153,185.7c-0.5,0-0.5,0.8,0,0.8C153.4,186.5,153.4,185.7,153,185.7z"/>
			</g>
			<g>
				<path class="st17" d="M175.1,166.2c-0.7,0-0.7,1.2,0,1.2C175.9,167.4,175.9,166.2,175.1,166.2z"/>
				<path class="st17" d="M174.6,169c0-0.1-0.1-0.1-0.1-0.2c-0.1-0.1-0.4-0.1-0.5,0c-0.1,0.1-0.1,0.1-0.1,0.2
					c-0.1,0.3,0.1,0.5,0.4,0.5C174.5,169.5,174.6,169.2,174.6,169z"/>
				<path class="st17" d="M175.5,169.8c-0.5,0-0.5,0.7,0,0.7C176,170.5,176,169.8,175.5,169.8z"/>
				<path class="st17" d="M176.8,167.7c-0.5,0-0.5,0.8,0,0.8C177.3,168.5,177.3,167.7,176.8,167.7z"/>
				<path class="st17" d="M178.1,169.9c-0.4,0-0.4,0.7,0,0.7C178.5,170.6,178.5,169.9,178.1,169.9z"/>
				<path class="st17" d="M177,174.2C176.9,174.2,176.9,174.3,177,174.2C177,174.3,177,174.2,177,174.2z"/>
				<path class="st17" d="M176.2,173.6c-0.3,0-0.3,0.5,0,0.5C176.5,174,176.5,173.6,176.2,173.6z"/>
				<path class="st17" d="M174.4,172.6c-0.2,0-0.2,0.3,0,0.3C174.6,172.9,174.6,172.6,174.4,172.6z"/>
				<path class="st17" d="M172,169.2c-0.5,0-0.5,0.8,0,0.8C172.5,170,172.5,169.2,172,169.2z"/>
				<path class="st17" d="M170.6,166.7c-0.4,0-0.4,0.6,0,0.6C171.1,167.3,171.1,166.7,170.6,166.7z"/>
				<path class="st17" d="M176.6,165.4C176.6,165.4,176.6,165.4,176.6,165.4c-0.1,0-0.1,0-0.2,0c0,0,0,0,0,0c-0.1,0-0.2,0.1-0.2,0.2
					c0,0.1,0,0.2,0.2,0.2c0,0,0,0,0,0c0.1,0,0.1,0,0.1,0c0,0,0,0,0,0C176.8,165.8,176.8,165.5,176.6,165.4z"/>
				<path class="st17" d="M179.3,173.9c-0.5,0-0.5,0.8,0,0.8C179.8,174.7,179.8,173.9,179.3,173.9z"/>
				<path class="st17" d="M171.6,175.5c-0.5,0-0.5,0.8,0,0.8C172.1,176.3,172.1,175.5,171.6,175.5z"/>
				<path class="st17" d="M169.6,174c-0.5,0-0.5,0.8,0,0.8C170.2,174.8,170.2,174,169.6,174z"/>
				<path class="st17" d="M171.9,173.8c-0.5,0-0.5,0.8,0,0.8C172.5,174.6,172.5,173.8,171.9,173.8z"/>
				<path class="st17" d="M170.9,172.1c-0.6,0-0.6,0.9,0,0.9C171.5,173,171.5,172.1,170.9,172.1z"/>
				<path class="st17" d="M169.4,171.9c-0.2,0-0.2,0.3,0,0.3C169.6,172.3,169.6,171.9,169.4,171.9z"/>
				<path class="st17" d="M168.1,171c-0.4,0-0.4,0.7,0,0.7C168.5,171.7,168.5,171,168.1,171z"/>
				<path class="st17" d="M167.2,172.9c-0.5,0-0.5,0.8,0,0.8C167.7,173.6,167.7,172.9,167.2,172.9z"/>
			</g>
			<g>
				<path class="st17" d="M177,178.3c-0.7,0-0.7,1.2,0,1.2C177.7,179.5,177.7,178.3,177,178.3z"/>
				<path class="st17" d="M176.5,181.1c0-0.1-0.1-0.1-0.1-0.2c-0.1-0.1-0.4-0.1-0.5,0c-0.1,0.1-0.1,0.1-0.1,0.2
					c-0.1,0.2,0.1,0.5,0.4,0.5C176.3,181.6,176.5,181.4,176.5,181.1z"/>
				<path class="st17" d="M177.4,181.9c-0.5,0-0.5,0.7,0,0.7C177.9,182.6,177.9,181.9,177.4,181.9z"/>
				<path class="st17" d="M178.7,179.8c-0.5,0-0.5,0.8,0,0.8C179.2,180.7,179.2,179.8,178.7,179.8z"/>
				<path class="st17" d="M180,182c-0.4,0-0.4,0.7,0,0.7C180.4,182.7,180.4,182,180,182z"/>
				<path class="st17" d="M178.8,186.3C178.8,186.3,178.8,186.4,178.8,186.3C178.9,186.4,178.9,186.3,178.8,186.3z"/>
				<path class="st17" d="M178.1,185.7c-0.3,0-0.3,0.5,0,0.5C178.4,186.2,178.4,185.7,178.1,185.7z"/>
				<path class="st17" d="M176.3,184.7c-0.2,0-0.2,0.3,0,0.3C176.5,185,176.5,184.7,176.3,184.7z"/>
				<path class="st17" d="M173.9,181.3c-0.5,0-0.5,0.8,0,0.8C174.4,182.1,174.4,181.3,173.9,181.3z"/>
				<path class="st17" d="M172.5,178.8c-0.4,0-0.4,0.6,0,0.6C172.9,179.4,172.9,178.8,172.5,178.8z"/>
				<path class="st17" d="M178.5,177.6C178.5,177.6,178.5,177.6,178.5,177.6c-0.1,0-0.1,0-0.2,0c0,0,0,0,0,0c-0.1,0-0.2,0.1-0.2,0.2
					c0,0.1,0,0.2,0.2,0.2c0,0,0,0,0,0c0.1,0,0.1,0,0.1,0c0,0,0,0,0,0C178.7,177.9,178.7,177.6,178.5,177.6z"/>
				<path class="st17" d="M181.2,186c-0.5,0-0.5,0.8,0,0.8C181.7,186.8,181.7,186,181.2,186z"/>
				<path class="st17" d="M173.5,187.7c-0.5,0-0.5,0.8,0,0.8C174,188.4,174,187.7,173.5,187.7z"/>
				<path class="st17" d="M171.5,186.1c-0.5,0-0.5,0.8,0,0.8C172,186.9,172,186.1,171.5,186.1z"/>
				<path class="st17" d="M173.8,185.9c-0.5,0-0.5,0.8,0,0.8C174.3,186.8,174.3,185.9,173.8,185.9z"/>
				<path class="st17" d="M172.8,184.3c-0.6,0-0.6,0.9,0,0.9C173.4,185.2,173.4,184.3,172.8,184.3z"/>
				<path class="st17" d="M171.2,184.1c-0.2,0-0.2,0.3,0,0.3C171.5,184.4,171.5,184.1,171.2,184.1z"/>
				<path class="st17" d="M170,183.1c-0.4,0-0.4,0.7,0,0.7C170.4,183.8,170.4,183.1,170,183.1z"/>
				<path class="st17" d="M169,185c-0.5,0-0.5,0.8,0,0.8C169.5,185.7,169.5,185,169,185z"/>
			</g>
		</g>
		<g>
			<path class="st15" d="M107.3,152.8c2.2-2.2,4.9-9.6,10.9-6.7c3,1.4,6.8,3,10.3,2.3c4-0.8,6.4-2,10.4-0.3
				c8.4,3.6,15.6,16.3,10.1,24.7c-2.5,3.8-6.6,4.1-10.6,4.7c-2.2,0.3-4.8,0.3-6.9,1.2c-2.3,1-3.8,3.3-5.8,4.7
				c-7.6,5.4-18.8,0.7-19.4-8.7c-0.3-4,2.3-5.5-0.2-9.1c-1.6-2.3-5.4-3.6-5.2-6.9C101,155.4,105.1,155,107.3,152.8z"/>
			<path class="st16" d="M113.1,152.5c1.6-1.6,3.6-7,8-4.9c2.2,1,5.2,1.8,7.8,1.3c2.9-0.6,5.4-1.7,8.3-0.5
				c6.1,2.6,13.4,10.2,9.3,16.3c-1.8,2.7-4,5.5-9.6,4.7c-1.6-0.2-4.7,1.2-6.2,1.9c-1.7,0.7-2.8,2.4-4.2,3.4
				c-5.5,3.9-13.7,0.5-14.1-6.4c-0.2-2.9,1.6-4-0.1-6.6c-1.1-1.7-3.9-2.6-3.8-5C108.6,154.4,111.5,154.1,113.1,152.5z"/>
			<g>
				<path class="st17" d="M110.8,148c-1.1,1.2-1.9,2.6-2.7,3.7C108.9,150.9,109.8,149.5,110.8,148z"/>
				<path class="st17" d="M139.1,176.5c-2.2,0.3-4.8,0.3-6.9,1.2c-2.3,1-3.8,3.3-5.8,4.7c-7.6,5.4-18.8,0.7-19.4-8.7
					c-0.3-4,2.3-5.5-0.2-9.1c-1.6-2.3-5.4-3.6-5.2-6.9c0-0.6,0.2-1.1,0.4-1.5c-0.7,0.6-1.2,1.4-1.2,2.5c-0.2,3.3,3.6,4.5,5.2,6.9
					c2.4,3.6-0.1,5.1,0.2,9.1c0.6,9.4,11.8,14.1,19.4,8.7c2-1.4,3.5-3.7,5.8-4.7c2.1-0.9,4.6-0.9,6.9-1.2c4-0.6,8-0.9,10.5-4.5
					C146.3,175.6,142.7,176,139.1,176.5z"/>
			</g>
			<g>
				<path class="st17" d="M118.3,154.8c-0.7-0.6-1.5,0.5-0.9,1.1C118.1,156.4,119,155.4,118.3,154.8z"/>
				<path class="st17" d="M115.7,157c0-0.1,0.1-0.2,0.1-0.3c0-0.2-0.3-0.4-0.5-0.4c-0.1,0-0.2,0-0.3,0.1c-0.2,0.2-0.3,0.5,0,0.7
					C115.3,157.4,115.6,157.2,115.7,157z"/>
				<path class="st17" d="M116,158.4c-0.4-0.3-1,0.3-0.5,0.7C115.9,159.4,116.5,158.7,116,158.4z"/>
				<path class="st17" d="M118.7,157.5c-0.5-0.4-1.1,0.4-0.6,0.7C118.6,158.6,119.2,157.9,118.7,157.5z"/>
				<path class="st17" d="M118.2,160.4c-0.4-0.3-0.9,0.3-0.5,0.6C118.1,161.3,118.6,160.7,118.2,160.4z"/>
				<path class="st17" d="M114,163.5C114,163.5,114,163.5,114,163.5C114,163.5,114.1,163.5,114,163.5z"/>
				<path class="st17" d="M113.8,162.3c-0.3-0.2-0.6,0.2-0.4,0.4C113.7,163,114.1,162.5,113.8,162.3z"/>
				<path class="st17" d="M112.9,160.1c-0.2-0.2-0.4,0.1-0.3,0.3C112.9,160.6,113.1,160.3,112.9,160.1z"/>
				<path class="st17" d="M113.3,155.2c-0.5-0.4-1.1,0.4-0.6,0.8C113.1,156.4,113.8,155.6,113.3,155.2z"/>
				<path class="st17" d="M113.9,152c-0.4-0.3-0.8,0.3-0.5,0.6C113.8,152.8,114.2,152.3,113.9,152z"/>
				<path class="st17" d="M120.2,155.3C120.2,155.3,120.2,155.3,120.2,155.3c-0.1-0.1-0.1-0.1-0.1-0.1c0,0,0,0,0,0
					c-0.1-0.1-0.2,0-0.3,0.1c-0.1,0.1-0.1,0.2,0,0.3c0,0,0,0,0,0c0,0.1,0.1,0.1,0.1,0.1c0,0,0,0,0,0
					C120.2,155.8,120.4,155.5,120.2,155.3z"/>
				<path class="st17" d="M116.4,164.9c-0.4-0.4-1,0.3-0.6,0.7C116.3,166,116.8,165.3,116.4,164.9z"/>
				<path class="st17" d="M108.2,160.7c-0.5-0.4-1.1,0.3-0.6,0.7C108.1,161.9,108.7,161.1,108.2,160.7z"/>
				<path class="st17" d="M107.6,157.9c-0.5-0.4-1,0.3-0.6,0.7C107.4,158.9,108,158.2,107.6,157.9z"/>
				<path class="st17" d="M109.8,159.4c-0.5-0.4-1.1,0.4-0.6,0.8C109.6,160.6,110.3,159.8,109.8,159.4z"/>
				<path class="st17" d="M110.1,157.1c-0.5-0.4-1.2,0.4-0.7,0.8C109.9,158.4,110.6,157.6,110.1,157.1z"/>
				<path class="st17" d="M108.8,155.8c-0.2-0.2-0.5,0.1-0.3,0.3C108.8,156.3,109,156,108.8,155.8z"/>
				<path class="st17" d="M108.4,154c-0.4-0.3-0.9,0.3-0.5,0.6C108.3,154.9,108.8,154.3,108.4,154z"/>
				<path class="st17" d="M106.1,155c-0.4-0.4-1,0.3-0.6,0.7C106,156.1,106.6,155.4,106.1,155z"/>
			</g>
			<g>
				<path class="st17" d="M140.7,153.6c-0.7-0.5-1.5,0.5-0.9,1.1C140.6,155.2,141.4,154.2,140.7,153.6z"/>
				<path class="st17" d="M138.2,155.8c0-0.1,0.1-0.2,0.1-0.3c0-0.2-0.3-0.4-0.5-0.4c-0.1,0-0.2,0-0.3,0.1c-0.2,0.2-0.3,0.5,0,0.7
					C137.7,156.1,138,156,138.2,155.8z"/>
				<path class="st17" d="M138.5,157.2c-0.4-0.3-1,0.3-0.5,0.7C138.4,158.2,138.9,157.5,138.5,157.2z"/>
				<path class="st17" d="M141.2,156.3c-0.5-0.4-1.1,0.4-0.6,0.7C141,157.4,141.6,156.7,141.2,156.3z"/>
				<path class="st17" d="M140.7,159.2c-0.4-0.3-0.9,0.3-0.5,0.6C140.6,160.1,141.1,159.5,140.7,159.2z"/>
				<path class="st17" d="M136.5,162.3C136.5,162.2,136.4,162.3,136.5,162.3C136.5,162.3,136.5,162.3,136.5,162.3z"/>
				<path class="st17" d="M136.3,161.1c-0.3-0.2-0.6,0.2-0.4,0.4C136.2,161.8,136.5,161.3,136.3,161.1z"/>
				<path class="st17" d="M135.4,158.9c-0.2-0.2-0.4,0.1-0.3,0.3C135.3,159.4,135.6,159.1,135.4,158.9z"/>
				<path class="st17" d="M135.7,154c-0.5-0.4-1.1,0.4-0.6,0.8C135.6,155.2,136.2,154.4,135.7,154z"/>
				<path class="st17" d="M136.3,150.8c-0.4-0.3-0.8,0.3-0.5,0.6C136.2,151.6,136.7,151.1,136.3,150.8z"/>
				<path class="st17" d="M142.7,154.1C142.7,154.1,142.7,154,142.7,154.1c-0.1-0.1-0.1-0.1-0.1-0.1c0,0,0,0,0,0
					c-0.1-0.1-0.2,0-0.3,0.1c-0.1,0.1-0.1,0.2,0,0.3c0,0,0,0,0,0c0,0.1,0.1,0.1,0.1,0.1c0,0,0,0,0,0
					C142.6,154.6,142.8,154.3,142.7,154.1z"/>
				<path class="st17" d="M138.8,163.7c-0.4-0.4-1,0.3-0.6,0.7C138.7,164.8,139.3,164.1,138.8,163.7z"/>
				<path class="st17" d="M130.7,159.5c-0.5-0.4-1.1,0.3-0.6,0.7C130.6,160.6,131.1,159.9,130.7,159.5z"/>
				<path class="st17" d="M130,156.7c-0.5-0.4-1,0.3-0.6,0.7C129.9,157.7,130.5,157,130,156.7z"/>
				<path class="st17" d="M132.2,158.2c-0.5-0.4-1.1,0.4-0.6,0.8C132.1,159.3,132.7,158.6,132.2,158.2z"/>
				<path class="st17" d="M132.5,155.9c-0.5-0.4-1.2,0.4-0.7,0.8C132.4,157.2,133.1,156.4,132.5,155.9z"/>
				<path class="st17" d="M131.3,154.6c-0.2-0.2-0.4,0.1-0.3,0.3C131.2,155.1,131.5,154.7,131.3,154.6z"/>
				<path class="st17" d="M130.8,152.8c-0.4-0.3-0.9,0.3-0.5,0.6C130.7,153.7,131.2,153.1,130.8,152.8z"/>
				<path class="st17" d="M128.6,153.8c-0.4-0.4-1,0.3-0.6,0.7C128.5,154.9,129,154.2,128.6,153.8z"/>
			</g>
			<g>
				<path class="st17" d="M133.5,166c-0.7-0.6-1.5,0.5-0.9,1.1C133.3,167.6,134.2,166.6,133.5,166z"/>
				<path class="st17" d="M130.9,168.2c0-0.1,0.1-0.2,0.1-0.3c0-0.2-0.3-0.4-0.5-0.4c-0.1,0-0.2,0-0.3,0.1c-0.2,0.2-0.3,0.5,0,0.7
					C130.4,168.6,130.8,168.4,130.9,168.2z"/>
				<path class="st17" d="M131.2,169.6c-0.4-0.3-1,0.3-0.5,0.7C131.1,170.6,131.7,169.9,131.2,169.6z"/>
				<path class="st17" d="M133.9,168.7c-0.5-0.4-1.1,0.4-0.6,0.7C133.8,169.8,134.4,169.1,133.9,168.7z"/>
				<path class="st17" d="M133.4,171.6c-0.4-0.3-0.9,0.3-0.5,0.6C133.3,172.5,133.8,171.9,133.4,171.6z"/>
				<path class="st17" d="M129.2,174.7C129.2,174.7,129.2,174.7,129.2,174.7C129.2,174.7,129.3,174.7,129.2,174.7z"/>
				<path class="st17" d="M129,173.5c-0.3-0.2-0.6,0.2-0.4,0.4C128.9,174.2,129.3,173.7,129,173.5z"/>
				<path class="st17" d="M128.1,171.3c-0.2-0.2-0.4,0.1-0.3,0.3C128.1,171.8,128.3,171.5,128.1,171.3z"/>
				<path class="st17" d="M128.4,166.4c-0.5-0.4-1.1,0.4-0.6,0.8C128.3,167.6,128.9,166.8,128.4,166.4z"/>
				<path class="st17" d="M129.1,163.2c-0.4-0.3-0.8,0.3-0.5,0.6C129,164,129.4,163.5,129.1,163.2z"/>
				<path class="st17" d="M135.4,166.5C135.4,166.5,135.4,166.5,135.4,166.5c-0.1-0.1-0.1-0.1-0.1-0.1c0,0,0,0,0,0
					c-0.1-0.1-0.2,0-0.3,0.1c-0.1,0.1-0.1,0.2,0,0.3c0,0,0,0,0,0c0,0.1,0.1,0.1,0.1,0.1c0,0,0,0,0,0
					C135.3,167,135.6,166.7,135.4,166.5z"/>
				<path class="st17" d="M131.6,176.1c-0.4-0.4-1,0.3-0.6,0.7C131.5,177.2,132,176.5,131.6,176.1z"/>
				<path class="st17" d="M123.4,171.9c-0.5-0.4-1.1,0.3-0.6,0.7C123.3,173.1,123.9,172.3,123.4,171.9z"/>
				<path class="st17" d="M122.8,169.1c-0.5-0.4-1,0.3-0.6,0.7C122.6,170.1,123.2,169.4,122.8,169.1z"/>
				<path class="st17" d="M125,170.6c-0.5-0.4-1.1,0.4-0.6,0.8C124.8,171.8,125.4,171,125,170.6z"/>
				<path class="st17" d="M125.3,168.3c-0.5-0.4-1.2,0.4-0.7,0.8C125.1,169.6,125.8,168.8,125.3,168.3z"/>
				<path class="st17" d="M124,167c-0.2-0.2-0.5,0.1-0.3,0.3C124,167.5,124.2,167.2,124,167z"/>
				<path class="st17" d="M123.6,165.2c-0.4-0.3-0.9,0.3-0.5,0.6C123.5,166.1,124,165.5,123.6,165.2z"/>
				<path class="st17" d="M121.3,166.2c-0.4-0.4-1,0.3-0.6,0.7C121.2,167.3,121.8,166.6,121.3,166.2z"/>
			</g>
		</g>
		<g>
			<path class="st15" d="M127.9,172.5c2.2-2.2,4.9-9.6,10.9-6.7c3,1.4,6.8,3,10.3,2.3c4-0.8,6.4-2,10.4-0.3
				c8.4,3.6,15.6,16.3,10.1,24.7c-2.5,3.8-6.6,4.1-10.7,4.7c-2.2,0.3-4.8,0.3-6.9,1.2c-2.3,1-3.8,3.3-5.8,4.7
				c-7.6,5.4-18.8,0.7-19.4-8.7c-0.3-4,2.3-5.5-0.2-9.1c-1.6-2.3-5.4-3.6-5.2-6.9C121.7,175.1,125.8,174.7,127.9,172.5z"/>
			<path class="st16" d="M133.8,172.2c1.6-1.6,3.6-7,8-4.9c2.2,1,5.2,1.8,7.7,1.3c2.9-0.6,5.4-1.7,8.3-0.5
				c6.1,2.6,13.4,10.2,9.3,16.3c-1.8,2.7-4,5.5-9.6,4.7c-1.6-0.2-4.7,1.2-6.2,1.9c-1.7,0.7-2.8,2.4-4.2,3.4
				c-5.5,3.9-13.7,0.5-14.1-6.4c-0.2-2.9,1.6-4-0.1-6.6c-1.1-1.7-3.9-2.6-3.8-5C129.3,174.1,132.2,173.8,133.8,172.2z"/>
			<g>
				<path class="st17" d="M131.5,167.7c-1.1,1.2-1.9,2.6-2.7,3.7C129.6,170.6,130.4,169.1,131.5,167.7z"/>
				<path class="st17" d="M159.8,196.2c-2.2,0.3-4.8,0.3-6.9,1.2c-2.3,1-3.8,3.3-5.8,4.7c-7.6,5.4-18.8,0.7-19.4-8.7
					c-0.3-4,2.3-5.5-0.2-9.1c-1.6-2.3-5.4-3.6-5.2-6.9c0-0.6,0.2-1.1,0.4-1.5c-0.7,0.6-1.2,1.4-1.2,2.5c-0.2,3.3,3.6,4.5,5.2,6.9
					c2.4,3.6-0.1,5.1,0.2,9.1c0.7,9.4,11.8,14.1,19.4,8.7c2-1.5,3.5-3.7,5.8-4.7c2.1-0.9,4.6-0.9,6.9-1.2c4-0.5,8-0.9,10.5-4.5
					C167,195.3,163.4,195.7,159.8,196.2z"/>
			</g>
			<g>
				<path class="st17" d="M139,174.5c-0.7-0.6-1.5,0.5-0.9,1.1C138.8,176.1,139.6,175.1,139,174.5z"/>
				<path class="st17" d="M136.4,176.7c0-0.1,0.1-0.2,0.1-0.3c0-0.2-0.3-0.4-0.5-0.4c-0.1,0-0.2,0-0.3,0.1c-0.2,0.2-0.3,0.5,0,0.7
					C135.9,177,136.3,176.9,136.4,176.7z"/>
				<path class="st17" d="M136.7,178.1c-0.4-0.3-1,0.3-0.5,0.7C136.6,179.1,137.1,178.4,136.7,178.1z"/>
				<path class="st17" d="M139.4,177.2c-0.5-0.4-1.1,0.4-0.6,0.7C139.3,178.3,139.9,177.5,139.4,177.2z"/>
				<path class="st17" d="M138.9,180.1c-0.4-0.3-0.9,0.3-0.5,0.6C138.8,181,139.3,180.4,138.9,180.1z"/>
				<path class="st17" d="M134.7,183.2C134.7,183.1,134.7,183.2,134.7,183.2C134.7,183.2,134.8,183.2,134.7,183.2z"/>
				<path class="st17" d="M134.5,182c-0.3-0.2-0.6,0.2-0.4,0.4C134.4,182.7,134.8,182.2,134.5,182z"/>
				<path class="st17" d="M133.6,179.8c-0.2-0.2-0.4,0.1-0.2,0.3C133.6,180.3,133.8,179.9,133.6,179.8z"/>
				<path class="st17" d="M133.9,174.9c-0.5-0.4-1.1,0.4-0.6,0.8C133.8,176.1,134.4,175.3,133.9,174.9z"/>
				<path class="st17" d="M134.6,171.6c-0.4-0.3-0.8,0.3-0.5,0.6C134.5,172.5,134.9,172,134.6,171.6z"/>
				<path class="st17" d="M140.9,175C140.9,175,140.9,174.9,140.9,175c-0.1-0.1-0.1-0.1-0.1-0.1c0,0,0,0,0,0c-0.1-0.1-0.2,0-0.3,0.1
					c-0.1,0.1-0.1,0.2,0,0.3c0,0,0,0,0,0c0,0.1,0.1,0.1,0.1,0.1c0,0,0,0,0,0C140.8,175.4,141.1,175.1,140.9,175z"/>
				<path class="st17" d="M137.1,184.6c-0.4-0.4-1,0.3-0.6,0.7C136.9,185.7,137.5,185,137.1,184.6z"/>
				<path class="st17" d="M128.9,180.4c-0.5-0.4-1.1,0.3-0.6,0.7C128.8,181.5,129.4,180.8,128.9,180.4z"/>
				<path class="st17" d="M128.3,177.6c-0.5-0.4-1,0.3-0.6,0.7C128.1,178.6,128.7,177.9,128.3,177.6z"/>
				<path class="st17" d="M130.4,179.1c-0.5-0.4-1.1,0.4-0.6,0.8C130.3,180.2,130.9,179.5,130.4,179.1z"/>
				<path class="st17" d="M130.8,176.8c-0.5-0.4-1.2,0.4-0.7,0.8C130.6,178.1,131.3,177.3,130.8,176.8z"/>
				<path class="st17" d="M129.5,175.5c-0.2-0.2-0.5,0.1-0.3,0.3C129.5,175.9,129.7,175.6,129.5,175.5z"/>
				<path class="st17" d="M129.1,173.7c-0.4-0.3-0.9,0.3-0.5,0.6C128.9,174.6,129.4,174,129.1,173.7z"/>
				<path class="st17" d="M126.8,174.7c-0.4-0.4-1,0.3-0.6,0.7C126.7,175.7,127.3,175.1,126.8,174.7z"/>
			</g>
			<g>
				<path class="st17" d="M161.4,173.3c-0.7-0.6-1.5,0.5-0.9,1.1C161.2,174.9,162.1,173.9,161.4,173.3z"/>
				<path class="st17" d="M158.9,175.5c0-0.1,0.1-0.2,0.1-0.3c0-0.2-0.3-0.4-0.5-0.4c-0.1,0-0.2,0-0.3,0.1c-0.2,0.2-0.3,0.5,0,0.7
					C158.4,175.8,158.7,175.7,158.9,175.5z"/>
				<path class="st17" d="M159.2,176.9c-0.4-0.3-1,0.3-0.5,0.7C159.1,177.9,159.6,177.2,159.2,176.9z"/>
				<path class="st17" d="M161.8,176c-0.5-0.4-1.1,0.4-0.6,0.7C161.7,177.1,162.3,176.3,161.8,176z"/>
				<path class="st17" d="M161.4,178.9c-0.4-0.3-0.9,0.3-0.5,0.6C161.3,179.8,161.8,179.2,161.4,178.9z"/>
				<path class="st17" d="M157.2,182C157.1,181.9,157.1,182,157.2,182C157.2,182,157.2,182,157.2,182z"/>
				<path class="st17" d="M156.9,180.8c-0.3-0.2-0.6,0.2-0.4,0.4C156.9,181.5,157.2,181,156.9,180.8z"/>
				<path class="st17" d="M156.1,178.6c-0.2-0.2-0.5,0.2-0.3,0.3C156,179,156.3,178.7,156.1,178.6z"/>
				<path class="st17" d="M156.4,173.7c-0.5-0.4-1.1,0.4-0.6,0.8C156.3,174.9,156.9,174.1,156.4,173.7z"/>
				<path class="st17" d="M157,170.4c-0.4-0.3-0.8,0.3-0.5,0.6C156.9,171.3,157.4,170.7,157,170.4z"/>
				<path class="st17" d="M163.4,173.8C163.4,173.7,163.4,173.7,163.4,173.8c-0.1-0.1-0.1-0.1-0.1-0.1c0,0,0,0,0,0
					c-0.1-0.1-0.2,0-0.3,0.1c-0.1,0.1-0.1,0.2,0,0.3c0,0,0,0,0,0c0,0.1,0.1,0.1,0.1,0.1c0,0,0,0,0,0
					C163.3,174.2,163.5,173.9,163.4,173.8z"/>
				<path class="st17" d="M159.5,183.4c-0.4-0.4-1,0.3-0.6,0.7C159.4,184.5,160,183.8,159.5,183.4z"/>
				<path class="st17" d="M151.4,179.2c-0.5-0.4-1.1,0.3-0.6,0.7C151.2,180.3,151.8,179.6,151.4,179.2z"/>
				<path class="st17" d="M150.7,176.3c-0.5-0.4-1,0.3-0.6,0.7C150.6,177.4,151.2,176.7,150.7,176.3z"/>
				<path class="st17" d="M152.9,177.9c-0.5-0.4-1.1,0.4-0.6,0.8C152.8,179,153.4,178.3,152.9,177.9z"/>
				<path class="st17" d="M153.2,175.6c-0.5-0.4-1.2,0.4-0.7,0.8C153.1,176.9,153.7,176.1,153.2,175.6z"/>
				<path class="st17" d="M152,174.3c-0.2-0.2-0.4,0.1-0.3,0.3C151.9,174.7,152.2,174.4,152,174.3z"/>
				<path class="st17" d="M151.5,172.5c-0.4-0.3-0.9,0.3-0.5,0.6C151.4,173.4,151.9,172.8,151.5,172.5z"/>
				<path class="st17" d="M149.3,173.5c-0.4-0.4-1,0.3-0.6,0.7C149.2,174.5,149.7,173.9,149.3,173.5z"/>
			</g>
			<g>
				<path class="st17" d="M154.2,185.7c-0.7-0.6-1.5,0.5-0.9,1.1C154,187.3,154.8,186.3,154.2,185.7z"/>
				<path class="st17" d="M151.6,187.9c0-0.1,0.1-0.2,0.1-0.3c0-0.2-0.3-0.4-0.5-0.4c-0.1,0-0.2,0-0.3,0.1c-0.2,0.2-0.3,0.5,0,0.7
					C151.1,188.2,151.5,188.1,151.6,187.9z"/>
				<path class="st17" d="M151.9,189.3c-0.4-0.3-1,0.3-0.5,0.7C151.8,190.3,152.3,189.6,151.9,189.3z"/>
				<path class="st17" d="M154.6,188.4c-0.5-0.4-1.1,0.4-0.6,0.7C154.5,189.5,155.1,188.8,154.6,188.4z"/>
				<path class="st17" d="M154.1,191.3c-0.4-0.3-0.9,0.3-0.5,0.6C154,192.2,154.5,191.6,154.1,191.3z"/>
				<path class="st17" d="M149.9,194.4C149.9,194.3,149.9,194.4,149.9,194.4C149.9,194.4,149.9,194.4,149.9,194.4z"/>
				<path class="st17" d="M149.7,193.2c-0.3-0.2-0.6,0.2-0.4,0.4C149.6,193.9,150,193.4,149.7,193.2z"/>
				<path class="st17" d="M148.8,191c-0.2-0.2-0.4,0.1-0.3,0.3C148.8,191.5,149,191.1,148.8,191z"/>
				<path class="st17" d="M149.1,186.1c-0.5-0.4-1.1,0.4-0.6,0.8C149,187.3,149.6,186.5,149.1,186.1z"/>
				<path class="st17" d="M149.8,182.8c-0.4-0.3-0.8,0.3-0.5,0.6C149.7,183.7,150.1,183.2,149.8,182.8z"/>
				<path class="st17" d="M156.1,186.2C156.1,186.2,156.1,186.1,156.1,186.2c-0.1-0.1-0.1-0.1-0.1-0.1c0,0,0,0,0,0
					c-0.1-0.1-0.2,0-0.3,0.1c-0.1,0.1-0.1,0.2,0,0.3c0,0,0,0,0,0c0,0.1,0.1,0.1,0.1,0.1c0,0,0,0,0,0
					C156,186.7,156.3,186.4,156.1,186.2z"/>
				<path class="st17" d="M152.3,195.8c-0.4-0.4-1,0.3-0.6,0.7C152.1,196.9,152.7,196.2,152.3,195.8z"/>
				<path class="st17" d="M144.1,191.6c-0.5-0.4-1.1,0.3-0.6,0.7C144,192.7,144.6,192,144.1,191.6z"/>
				<path class="st17" d="M143.4,188.8c-0.5-0.4-1,0.3-0.6,0.7C143.3,189.8,143.9,189.1,143.4,188.8z"/>
				<path class="st17" d="M145.6,190.3c-0.5-0.4-1.1,0.4-0.6,0.8C145.5,191.4,146.1,190.7,145.6,190.3z"/>
				<path class="st17" d="M146,188c-0.5-0.4-1.2,0.4-0.7,0.8C145.8,189.3,146.5,188.5,146,188z"/>
				<path class="st17" d="M144.7,186.7c-0.2-0.2-0.5,0.1-0.3,0.3C144.7,187.2,144.9,186.8,144.7,186.7z"/>
				<path class="st17" d="M144.2,184.9c-0.4-0.3-0.9,0.3-0.5,0.6C144.1,185.8,144.6,185.2,144.2,184.9z"/>
				<path class="st17" d="M142,185.9c-0.4-0.4-1,0.3-0.6,0.7C141.9,186.9,142.5,186.3,142,185.9z"/>
			</g>
		</g>
		<path class="st18" d="M164.6,332.4c0,0-20.8,7.8-55.3-2.6c-29.5-8.9-63.6-14.7-63.6-14.7l9.5-14.3l105.2,17.1L164.6,332.4z"/>
		<path class="st19" d="M55.2,300.8c0,0-6.9-9.5-2.6-32.4c4.3-22.9,8.7-34.2,11.2-48.4c2.6-14.3-3-15.1-1.7-27.7
			c1.3-12.5,7.4-19.9,7.4-19.9s22.5,12.6,52.6,17.3c38.7,6.1,46.5-4.2,60.2,4.7c1.4,8.2-2.6,15.4-8.6,42.3
			c-1.7,7.8-3.4,36.8-4.3,46.8c-1.7,19-8.5,34.4-8.5,34.4s-13.2,5.2-50.3-3.7C73.4,305.2,55.2,300.8,55.2,300.8z"/>
		<path class="st0" d="M63.8,219.9c-0.7,4-1.6,7.7-2.5,11.6c5.2,11.1,14.7,21.6,22.3,30.2c10.2,11.4,21,22.2,34.3,30
			c13.3,7.8,27.1,14.5,42.1,18c1.2,0.3,2.3,0.6,3.5,0.8c2.1-6.3,4.8-16.1,5.8-27.1c0.4-4.7,1-13.7,1.7-22.7
			c-45.3-8.9-85.8-38.3-106-80.5c-1.3,3.2-2.5,7.2-3,12C60.8,204.8,66.4,205.7,63.8,219.9z"/>
		<g>
			<polygon class="st19" points="61.6,301.6 57.6,310.6 60,301.1 			"/>
		</g>
		<g>
			<polygon class="st19" points="77.4,304.5 73.4,313.4 75.8,303.9 			"/>
		</g>
		<g>
			<polygon class="st19" points="69.6,303 65.6,311.9 67.9,302.4 			"/>
		</g>
		<g>
			<polygon class="st19" points="92.8,309.1 88.8,318 91.1,308.5 			"/>
		</g>
		<g>
			<polygon class="st19" points="85.1,307.6 81.1,316.5 83.5,307 			"/>
		</g>
		<g>
			<polygon class="st19" points="110,313.6 106,322.6 108.4,313.1 			"/>
		</g>
		<g>
			<polygon class="st19" points="100.9,310.9 96.9,319.8 99.3,310.3 			"/>
		</g>
		<g>
			<polygon class="st19" points="122.8,316.8 118.8,325.8 121.2,316.2 			"/>
		</g>
		<g>
			<polygon class="st19" points="134.6,316.5 133.8,327 132.9,316.5 			"/>
		</g>
		<g>
			<polygon class="st19" points="148.4,319.3 148.7,328 146.7,319.6 			"/>
		</g>
		<g>
			<polygon class="st19" points="157.7,317.4 158,326.1 155.9,317.6 			"/>
		</g>
		<path class="st20" d="M110.8,294.6c-10.3-15.8-10.7-39.2-9.1-57.4c1.9-22.5,1.7-31,13.3-48.7c-27.3-5-45.5-16-45.5-16
			s-6.1,7.3-7.4,19.9c-1.3,12.5,4.3,13.4,1.7,27.7c-2.6,14.3-6.9,25.5-11.2,48.4c-4.3,22.9,2.6,32.4,2.6,32.4s18.2,4.4,55.4,13.4
			c18.9,4.6,31.5,5.5,39.4,5.2C134.4,315.7,119.3,307.7,110.8,294.6z"/>
		<path class="st20" d="M87.3,180.7c-11.2-4.3-17.9-8.3-17.9-8.3s-6.1,7.3-7.4,19.9c-1.3,12.5,4.3,13.4,1.7,27.7
			c-2.6,14.3-6.9,25.5-11.2,48.4c-4.3,22.9,2.6,32.4,2.6,32.4s13,3.2,39.3,9.5C72.1,272.3,75.2,224.6,87.3,180.7z"/>
		<path class="st18" d="M182.2,194.4c-12.2-6-27.4,1.1-63.4-4c-30.5-4.3-49.4-18-49.4-18l-0.7-11.7c0,0,30.4,13.3,53.3,16.7
			c30.4,4.6,66.8,8.6,66.8,8.6S186.6,192.4,182.2,194.4z"/>
		<g>
			<path class="st19" d="M73.1,163.3c0,0,0.2,0.7,0.4,1.6c0.1,0.5,0.2,1.1,0.2,1.7c0.1,0.6,0.1,1.3,0.1,1.9c0,1.3,0,2.6-0.2,3.6
				c-0.1,1-0.3,1.7-0.3,1.7s-0.2-0.7-0.4-1.6c-0.2-1-0.3-2.3-0.4-3.6c0-0.7,0-1.3,0-1.9c0-0.6,0.1-1.2,0.1-1.7
				C72.9,164,73.1,163.3,73.1,163.3z"/>
		</g>
		<g>
			<path class="st19" d="M83,167.2c0,0,0.2,0.7,0.4,1.8c0.1,0.5,0.2,1.1,0.2,1.8c0.1,0.7,0.1,1.4,0.1,2.1c0,1.4,0,2.8-0.2,3.9
				c-0.1,1.1-0.3,1.8-0.3,1.8c0,0-0.2-0.7-0.4-1.8c-0.2-1.1-0.3-2.5-0.4-3.9c0-0.7,0-1.4,0-2.1c0-0.7,0.1-1.3,0.2-1.8
				C82.8,167.9,83,167.2,83,167.2z"/>
		</g>
		<g>
			<path class="st19" d="M95.2,172.4c0,0,0.2,0.7,0.3,1.7c0.1,0.5,0.1,1.1,0.1,1.7c0,0.6,0,1.3,0,2c-0.1,1.3-0.3,2.7-0.5,3.7
				c-0.2,1-0.5,1.7-0.5,1.7s-0.2-0.7-0.3-1.7c-0.1-1-0.1-2.4,0-3.7c0.1-0.7,0.1-1.3,0.2-2c0.1-0.6,0.2-1.2,0.3-1.7
				C94.9,173,95.2,172.4,95.2,172.4z"/>
		</g>
		<g>
			<path class="st19" d="M110.9,177c0,0,0.2,0.7,0.3,1.7c0.1,0.5,0.1,1.1,0.1,1.7c0,0.6,0,1.3,0,2c-0.1,1.3-0.3,2.7-0.5,3.7
				c-0.2,1-0.5,1.7-0.5,1.7s-0.2-0.7-0.3-1.7c-0.1-1-0.1-2.4,0-3.7c0.1-0.7,0.1-1.3,0.2-2c0.1-0.6,0.2-1.2,0.3-1.7
				C110.6,177.7,110.9,177,110.9,177z"/>
		</g>
		<g>
			<path class="st19" d="M130.4,180.3c0,0,0.2,0.7,0.3,1.7c0.1,0.5,0.1,1.1,0.1,1.7c0,0.6,0,1.3,0,2c-0.1,1.3-0.3,2.7-0.5,3.7
				c-0.2,1-0.5,1.7-0.5,1.7s-0.2-0.7-0.3-1.7c-0.1-1-0.1-2.4,0-3.7c0.1-0.7,0.1-1.3,0.2-2c0.1-0.6,0.2-1.2,0.3-1.7
				C130.1,181,130.4,180.3,130.4,180.3z"/>
		</g>
		<g>
			<path class="st19" d="M148.8,182.4c0,0,0.2,0.6,0.3,1.4c0.1,0.4,0.1,0.9,0.1,1.4c0,0.5,0,1,0,1.6c-0.1,1.1-0.3,2.1-0.5,2.9
				c-0.2,0.8-0.5,1.3-0.5,1.3c0,0-0.2-0.6-0.3-1.4c-0.1-0.8-0.1-1.9,0-3c0.1-0.5,0.1-1.1,0.2-1.6c0.1-0.5,0.2-1,0.3-1.4
				C148.6,182.9,148.8,182.4,148.8,182.4z"/>
		</g>
		<g>
			<path class="st19" d="M165.9,184c0,0,0.1,0.5,0,1.2c0,0.4-0.1,0.8-0.2,1.2c-0.1,0.4-0.2,0.9-0.4,1.3c-0.3,0.9-0.7,1.7-1.1,2.3
				c-0.4,0.6-0.7,1-0.7,1s-0.1-0.5,0-1.2c0.1-0.7,0.3-1.6,0.5-2.5c0.2-0.4,0.3-0.9,0.5-1.3c0.2-0.4,0.4-0.8,0.6-1.1
				C165.5,184.4,165.9,184,165.9,184z"/>
		</g>
		<g>
			<path class="st19" d="M181,186.7c0,0-0.1,0.5-0.3,1.1c-0.1,0.3-0.3,0.6-0.4,1c-0.2,0.3-0.4,0.7-0.6,1c-0.5,0.7-1,1.3-1.5,1.7
				c-0.5,0.4-0.9,0.6-0.9,0.6s0.1-0.5,0.3-1.1c0.2-0.6,0.6-1.3,1.1-2c0.2-0.3,0.5-0.7,0.8-0.9c0.3-0.3,0.5-0.5,0.8-0.8
				C180.6,186.9,181,186.7,181,186.7z"/>
		</g>
	</g>
</g>
<g>
	<path class="st21" d="M382.8,274.2c-5.7-26.3-39.7-38-80.3-38c-40.6,0-70.2,12.2-79.8,38.6c-1.6,4.4-30.3,77.5,79.8,77.5
		C412.5,352.4,383.8,278.8,382.8,274.2z"/>
	<path class="st22" d="M382.8,274.2c-0.9-4.3-2.6-8.1-4.9-11.6c7.9,28.7-4.7,64.5-35.4,74.5c-12.6,4.1-26,4.1-39.2,3.9
		c-13.9-0.2-27.7,0.3-41.4-1.6c-13-1.8-26.6-7.7-37.6-16.4c9.1,15.8,30.8,29.5,78.3,29.5C412.5,352.4,383.8,278.8,382.8,274.2z"/>
	<path class="st23" d="M381.5,269.7c3,10.4-0.6,19.6-8,21.8c-4.5,1.4-10.6-8.4-19.7-4.6c-9.1,3.8-2,27.6-13.2,32.4
		c-11.1,4.8-1.5-15.7-18.7-15.7c-17.2,0-13.1,19.7-27.1,20c-14,0.3-13.1-24.2-25.1-24c-4.7,0.1-15.1,11.5-19.5,11.4
		c-7.9-0.2-10.5-15.2-16.5-16.6c-7.2-1.7-10.3,7.3-13.5,3.1c-6.6-8.6-2.1-17.5,3.2-27.7c9.5-18.4,35.4-37.5,79-37.5
		C346.1,232.2,375.7,249.8,381.5,269.7z"/>
	<path class="st24" d="M381.5,269.7c-1.6-5.4-4.9-10.7-9.8-15.5c4.8,8-2,40.1-67.5,40.1c-65.5,0-77.6-25-73.7-34.8
		c-2.9,3.3-5.2,6.8-7,10.2c-5.3,10.3-9.8,19.1-3.2,27.7c3.2,4.2,6.3-4.8,13.5-3.1c6,1.4,8.5,16.4,16.5,16.6
		c4.4,0.1,14.8-11.3,19.5-11.4c11.9-0.2,11.1,24.3,25.1,24c14-0.3,9.9-20,27.1-20c17.2,0,7.6,20.5,18.7,15.7
		c11.1-4.8,4.1-28.6,13.2-32.4c9.1-3.8,15.2,5.9,19.7,4.6C380.9,289.3,384.5,280.1,381.5,269.7z"/>
	<ellipse class="st25" cx="303.6" cy="257.9" rx="27.1" ry="12.1"/>
	<g>
		<path class="st21" d="M280.1,263.9c4.7,3.6,13.4,6,23.5,6c10,0,18.8-2.4,23.5-6c-4.7-3.6-13.4-6-23.5-6
			C293.6,257.9,284.8,260.3,280.1,263.9z"/>
	</g>
	<path class="st26" d="M337.7,281.8c0,4.3-17,7.8-38,7.8c-21,0-38-3.5-38-7.8c0-4.3,17,1.4,38,1.4
		C320.7,283.2,337.7,277.6,337.7,281.8z"/>
	<path class="st26" d="M243.7,275.1c-4.2-0.7-10.3-5.7-9-13.5c1.3-7.8,19.3-16.4,23.5-15.7c4.2,0.7-15.9,9-17.2,16.8
		C239.8,270.5,248,275.8,243.7,275.1z"/>
	<g>
		<g>
			<path class="st27" d="M231.8,295.8c-1.9,0-1.9,3,0,3C233.7,298.8,233.7,295.8,231.8,295.8z"/>
			<path class="st27" d="M231.2,301c0-0.2-0.2-0.4-0.3-0.6c-0.3-0.4-1.1-0.4-1.4,0c-0.1,0.2-0.2,0.3-0.3,0.6c-0.1,0.6,0.3,1.3,1,1.3
				C230.9,302.3,231.3,301.6,231.2,301z"/>
			<path class="st27" d="M233.7,302.9c-1.2,0-1.2,1.9,0,1.9C234.9,304.8,234.9,302.9,233.7,302.9z"/>
			<path class="st27" d="M237,297.7c-1.4,0-1.4,2.1,0,2.1C238.4,299.8,238.4,297.7,237,297.7z"/>
			<path class="st27" d="M240.3,303.4c-1.1,0-1.1,1.7,0,1.7C241.4,305.1,241.4,303.4,240.3,303.4z"/>
			<path class="st27" d="M237.4,314.4c-0.1,0-0.1,0.1,0,0.1C237.4,314.5,237.4,314.4,237.4,314.4z"/>
			<path class="st27" d="M235.3,312.8c-0.8,0-0.8,1.2,0,1.2C236.1,314,236.1,312.8,235.3,312.8z"/>
			<path class="st27" d="M230.8,310.2c-0.6,0-0.6,0.9,0,0.9C231.3,311.1,231.3,310.2,230.8,310.2z"/>
			<path class="st27" d="M224.5,301.4c-1.4,0-1.4,2.2,0,2.2C225.9,303.6,225.9,301.4,224.5,301.4z"/>
			<path class="st27" d="M219.8,299c-1.1,0-1.1,1.7,0,1.7C220.9,300.6,220.9,299,219.8,299z"/>
			<path class="st27" d="M237.6,308.6C237.5,308.6,237.5,308.6,237.6,308.6c-0.2-0.1-0.3-0.1-0.4,0c0,0,0,0-0.1,0
				c-0.3,0.1-0.4,0.3-0.4,0.6c0,0.3,0.1,0.5,0.4,0.6c0,0,0,0,0.1,0c0.1,0,0.3,0,0.4,0c0,0,0.1,0,0.1,0
				C238.1,309.5,238.1,308.7,237.6,308.6z"/>
			<path class="st27" d="M243.4,313.7c-1.3,0-1.3,2,0,2C244.7,315.7,244.7,313.7,243.4,313.7z"/>
			<path class="st27" d="M223.6,317.9c-1.3,0-1.3,2.1,0,2.1C224.9,319.9,224.9,317.9,223.6,317.9z"/>
			<path class="st27" d="M224.3,313.4c-1.4,0-1.4,2.2,0,2.2C225.7,315.6,225.7,313.4,224.3,313.4z"/>
			<path class="st27" d="M221.8,309.1c-1.5,0-1.5,2.3,0,2.3C223.3,311.4,223.3,309.1,221.8,309.1z"/>
			<path class="st27" d="M220.2,305.7c-0.6,0-0.6,0.9,0,0.9C220.8,306.5,220.8,305.7,220.2,305.7z"/>
			<path class="st27" d="M229.2,318.7c-1.1,0-1.1,1.8,0,1.8C230.3,320.5,230.3,318.7,229.2,318.7z"/>
			<path class="st27" d="M226.5,307.2c-1.3,0-1.3,2,0,2C227.8,309.1,227.8,307.2,226.5,307.2z"/>
		</g>
		<g>
			<path class="st27" d="M270.6,303.5c-1.9,0-1.9,3,0,3C272.5,306.5,272.5,303.5,270.6,303.5z"/>
			<path class="st27" d="M269.2,310.7c0-0.2-0.2-0.4-0.3-0.6c-0.3-0.4-1.1-0.4-1.4,0c-0.1,0.2-0.3,0.3-0.3,0.6
				c-0.1,0.6,0.3,1.3,1,1.3C268.9,312,269.4,311.4,269.2,310.7z"/>
			<path class="st27" d="M271.7,312.7c-1.2,0-1.2,1.9,0,1.9C272.9,314.5,272.9,312.7,271.7,312.7z"/>
			<path class="st27" d="M275,307.4c-1.4,0-1.4,2.1,0,2.1C276.4,309.5,276.4,307.4,275,307.4z"/>
			<path class="st27" d="M278.3,313.1c-1.1,0-1.1,1.7,0,1.7C279.4,314.8,279.4,313.1,278.3,313.1z"/>
			<path class="st27" d="M275.4,324.2c-0.1,0-0.1,0.1,0,0.1C275.5,324.3,275.5,324.2,275.4,324.2z"/>
			<path class="st27" d="M273.4,322.5c-0.8,0-0.8,1.2,0,1.2C274.2,323.8,274.2,322.5,273.4,322.5z"/>
			<path class="st27" d="M268.8,319.9c-0.6,0-0.6,0.9,0,0.9C269.3,320.8,269.3,319.9,268.8,319.9z"/>
			<path class="st27" d="M262.6,311.2c-1.4,0-1.4,2.2,0,2.2C264,313.3,264,311.2,262.6,311.2z"/>
			<path class="st27" d="M257.5,309.8c-1.1,0-1.1,1.6,0,1.6C258.5,311.5,258.5,309.8,257.5,309.8z"/>
			<path class="st27" d="M265.8,305.1C265.7,305.1,265.7,305.1,265.8,305.1c-0.2-0.1-0.3-0.1-0.4,0c0,0,0,0,0,0
				c-0.3,0.1-0.4,0.3-0.4,0.6c0,0.2,0.1,0.5,0.4,0.6c0,0,0,0,0,0c0.1,0,0.3,0,0.4,0c0,0,0.1,0,0.1,0
				C266.3,306.1,266.3,305.2,265.8,305.1z"/>
			<path class="st27" d="M281.4,323.4c-1.3,0-1.3,2,0,2C282.7,325.4,282.7,323.4,281.4,323.4z"/>
			<path class="st27" d="M261.6,327.6c-1.3,0-1.3,2.1,0,2.1C263,329.7,263,327.6,261.6,327.6z"/>
			<path class="st27" d="M256.5,323.6c-1.3,0-1.3,2,0,2C257.8,325.6,257.8,323.6,256.5,323.6z"/>
			<path class="st27" d="M262.4,323.2c-1.4,0-1.4,2.2,0,2.2C263.8,325.3,263.8,323.2,262.4,323.2z"/>
			<path class="st27" d="M259.8,318.9c-1.5,0-1.5,2.3,0,2.3C261.3,321.2,261.3,318.9,259.8,318.9z"/>
			<path class="st27" d="M255.8,318.3c-0.6,0-0.6,0.9,0,0.9C256.3,319.2,256.3,318.3,255.8,318.3z"/>
			<path class="st27" d="M252.5,315.8c-1.1,0-1.1,1.8,0,1.8C253.6,317.6,253.6,315.8,252.5,315.8z"/>
			<path class="st27" d="M250.1,320.7c-1.3,0-1.3,2,0,2C251.4,322.7,251.4,320.7,250.1,320.7z"/>
		</g>
		<g>
			<path class="st27" d="M314.3,320.5c-1.9,0-1.9,3,0,3C316.3,323.5,316.3,320.5,314.3,320.5z"/>
			<path class="st27" d="M312.9,327.7c0-0.2-0.2-0.4-0.3-0.6c-0.3-0.4-1.1-0.4-1.4,0c-0.1,0.2-0.2,0.3-0.3,0.6
				c-0.1,0.6,0.3,1.3,1,1.3C312.6,329,313.1,328.4,312.9,327.7z"/>
			<path class="st27" d="M315.4,329.7c-1.2,0-1.2,1.9,0,1.9C316.6,331.5,316.6,329.7,315.4,329.7z"/>
			<path class="st27" d="M318.7,324.4c-1.4,0-1.4,2.1,0,2.1C320.1,326.5,320.1,324.4,318.7,324.4z"/>
			<path class="st27" d="M322,330.1c-1.1,0-1.1,1.7,0,1.7C323.1,331.8,323.1,330.1,322,330.1z"/>
			<path class="st27" d="M319.1,341.2c-0.1,0-0.1,0.1,0,0.1C319.2,341.3,319.2,341.2,319.1,341.2z"/>
			<path class="st27" d="M317.1,339.5c-0.8,0-0.8,1.2,0,1.2C317.9,340.8,317.9,339.5,317.1,339.5z"/>
			<path class="st27" d="M312.5,337c-0.6,0-0.6,0.9,0,0.9C313.1,337.8,313.1,337,312.5,337z"/>
			<path class="st27" d="M306.3,328.2c-1.4,0-1.4,2.2,0,2.2C307.7,330.3,307.7,328.2,306.3,328.2z"/>
			<path class="st27" d="M302.8,321.7c-1.1,0-1.1,1.7,0,1.7C303.8,323.4,303.8,321.7,302.8,321.7z"/>
			<path class="st27" d="M318.3,318.5C318.3,318.5,318.2,318.5,318.3,318.5c-0.2-0.1-0.3-0.1-0.4,0c0,0,0,0-0.1,0
				c-0.3,0.1-0.4,0.3-0.4,0.6c0,0.3,0.1,0.5,0.4,0.6c0,0,0,0,0.1,0c0.1,0,0.3,0,0.4,0c0,0,0.1,0,0.1,0
				C318.8,319.5,318.8,318.6,318.3,318.5z"/>
			<path class="st27" d="M325.1,340.5c-1.3,0-1.3,2,0,2C326.4,342.4,326.4,340.5,325.1,340.5z"/>
			<path class="st27" d="M305.3,344.6c-1.3,0-1.3,2.1,0,2.1C306.7,346.7,306.7,344.6,305.3,344.6z"/>
			<path class="st27" d="M300.2,340.6c-1.3,0-1.3,2,0,2C301.5,342.6,301.5,340.6,300.2,340.6z"/>
			<path class="st27" d="M306.1,340.2c-1.4,0-1.4,2.2,0,2.2S307.5,340.2,306.1,340.2z"/>
			<path class="st27" d="M303.5,335.9c-1.5,0-1.5,2.3,0,2.3C305,338.2,305,335.9,303.5,335.9z"/>
			<path class="st27" d="M299.5,335.3c-0.6,0-0.6,0.9,0,0.9C300,336.2,300,335.3,299.5,335.3z"/>
			<path class="st27" d="M296.2,332.9c-1.1,0-1.1,1.8,0,1.8C297.3,334.6,297.3,332.9,296.2,332.9z"/>
			<path class="st27" d="M293.8,337.7c-1.3,0-1.3,2,0,2C295.1,339.7,295.1,337.7,293.8,337.7z"/>
		</g>
		<g>
			<path class="st27" d="M354,308.6c-1.9,0-1.9,3,0,3C355.9,311.6,355.9,308.6,354,308.6z"/>
			<path class="st27" d="M352.6,315.8c0-0.2-0.2-0.4-0.3-0.6c-0.3-0.4-1.1-0.4-1.4,0c-0.1,0.2-0.2,0.3-0.3,0.6
				c-0.1,0.7,0.3,1.3,1,1.3C352.3,317.1,352.8,316.5,352.6,315.8z"/>
			<path class="st27" d="M355.1,317.8c-1.2,0-1.2,1.9,0,1.9C356.3,319.6,356.3,317.8,355.1,317.8z"/>
			<path class="st27" d="M358.4,312.5c-1.4,0-1.4,2.1,0,2.1C359.8,314.6,359.8,312.5,358.4,312.5z"/>
			<path class="st27" d="M361.7,318.2c-1.1,0-1.1,1.7,0,1.7C362.8,319.9,362.8,318.2,361.7,318.2z"/>
			<path class="st27" d="M358.8,329.3c-0.1,0-0.1,0.1,0,0.1C358.8,329.4,358.8,329.3,358.8,329.3z"/>
			<path class="st27" d="M356.8,327.6c-0.8,0-0.8,1.2,0,1.2C357.6,328.9,357.6,327.6,356.8,327.6z"/>
			<path class="st27" d="M352.2,325.1c-0.6,0-0.6,0.9,0,0.9C352.7,325.9,352.7,325.1,352.2,325.1z"/>
			<path class="st27" d="M345.9,316.3c-1.4,0-1.4,2.2,0,2.2C347.3,318.4,347.3,316.3,345.9,316.3z"/>
			<path class="st27" d="M342.5,309.8c-1.1,0-1.1,1.7,0,1.7C343.5,311.5,343.5,309.8,342.5,309.8z"/>
			<path class="st27" d="M358,306.6C357.9,306.6,357.9,306.6,358,306.6c-0.2-0.1-0.3-0.1-0.4,0c0,0,0,0,0,0
				c-0.3,0.1-0.4,0.3-0.4,0.6c0,0.2,0.1,0.5,0.4,0.6c0,0,0,0,0,0c0.1,0,0.3,0,0.4,0c0,0,0.1,0,0.1,0
				C358.5,307.6,358.5,306.7,358,306.6z"/>
			<path class="st27" d="M364.8,328.6c-1.3,0-1.3,2,0,2C366.1,330.5,366.1,328.6,364.8,328.6z"/>
			<path class="st27" d="M345,332.7c-1.3,0-1.3,2.1,0,2.1C346.4,334.8,346.4,332.7,345,332.7z"/>
			<path class="st27" d="M339.9,328.7c-1.3,0-1.3,2,0,2C341.2,330.7,341.2,328.7,339.9,328.7z"/>
			<path class="st27" d="M345.8,328.3c-1.4,0-1.4,2.2,0,2.2C347.2,330.4,347.2,328.3,345.8,328.3z"/>
			<path class="st27" d="M343.2,324c-1.5,0-1.5,2.3,0,2.3C344.7,326.3,344.7,324,343.2,324z"/>
			<path class="st27" d="M339.2,323.4c-0.6,0-0.6,0.9,0,0.9C339.7,324.3,339.7,323.4,339.2,323.4z"/>
			<path class="st27" d="M335.9,321c-1.1,0-1.1,1.8,0,1.8C337,322.7,337,321,335.9,321z"/>
			<path class="st27" d="M333.5,325.8c-1.3,0-1.3,2,0,2C334.7,327.8,334.7,325.8,333.5,325.8z"/>
		</g>
		<g>
			<path class="st27" d="M348.1,334.2c-1.9,0-1.9,3,0,3C350,337.2,350,334.2,348.1,334.2z"/>
			<path class="st27" d="M346.7,341.4c0-0.2-0.2-0.4-0.3-0.6c-0.3-0.4-1.1-0.4-1.4,0c-0.1,0.2-0.3,0.3-0.3,0.6
				c-0.1,0.6,0.3,1.3,1,1.3C346.4,342.7,346.9,342.1,346.7,341.4z"/>
			<path class="st27" d="M349.2,343.4c-1.2,0-1.2,1.9,0,1.9C350.4,345.3,350.4,343.4,349.2,343.4z"/>
			<path class="st27" d="M352.5,338.1c-1.4,0-1.4,2.1,0,2.1S353.9,338.1,352.5,338.1z"/>
			<path class="st27" d="M359.4,337.3c-1.1,0-1.1,1.7,0,1.7C360.5,339,360.5,337.3,359.4,337.3z"/>
			<path class="st27" d="M352.9,354.9c-0.1,0-0.1,0.1,0,0.1C353,355,353,354.9,352.9,354.9z"/>
			<path class="st27" d="M337.7,345.9c-0.8,0-0.8,1.2,0,1.2C338.5,347.1,338.5,345.9,337.7,345.9z"/>
			<path class="st27" d="M332.8,341.4c-0.6,0-0.6,0.9,0,0.9C333.4,342.3,333.4,341.4,332.8,341.4z"/>
			<path class="st27" d="M340.1,341.9c-1.4,0-1.4,2.2,0,2.2C341.5,344.1,341.5,341.9,340.1,341.9z"/>
			<path class="st27" d="M336.6,335.4c-1.1,0-1.1,1.7,0,1.7C337.6,337.1,337.6,335.4,336.6,335.4z"/>
			<path class="st27" d="M352.1,332.3C352,332.3,352,332.2,352.1,332.3c-0.2-0.1-0.3-0.1-0.5,0c0,0,0,0,0,0
				c-0.3,0.1-0.4,0.3-0.4,0.6c0,0.3,0.1,0.5,0.4,0.6c0,0,0,0,0,0c0.1,0,0.3,0,0.4,0c0,0,0.1,0,0.1,0
				C352.6,333.2,352.6,332.4,352.1,332.3z"/>
			<path class="st27" d="M333.3,349c-0.6,0-0.6,0.9,0,0.9C333.8,349.9,333.8,349,333.3,349z"/>
			<path class="st27" d="M330,346.6c-1.1,0-1.1,1.8,0,1.8C331.1,348.3,331.1,346.6,330,346.6z"/>
		</g>
		<g>
			<path class="st27" d="M385.5,303.6c0.2-0.1,0.4-0.2,0.5-0.4c0.3-0.4,0.2-1.1-0.2-1.4c-0.2-0.1-0.4-0.2-0.6-0.2
				c-0.7,0-1.3,0.5-1.2,1.2C384.2,303.5,384.9,303.9,385.5,303.6z"/>
			<path class="st27" d="M383.9,306.4c-0.2-1.2-2-0.9-1.8,0.3C382.2,307.8,384.1,307.6,383.9,306.4z"/>
			<path class="st27" d="M384.4,313c-0.2-1.1-1.8-0.8-1.7,0.2C382.9,314.3,384.5,314.1,384.4,313z"/>
			<path class="st27" d="M373,311.6c0-0.1-0.1-0.1-0.1,0C372.9,311.7,373,311.7,373,311.6z"/>
			<path class="st27" d="M374.4,309.4c-0.1-0.8-1.3-0.6-1.2,0.2C373.3,310.3,374.5,310.2,374.4,309.4z"/>
			<path class="st27" d="M376.3,304.5c-0.1-0.6-0.9-0.4-0.9,0.1C375.5,305.2,376.4,305,376.3,304.5z"/>
			<path class="st27" d="M384.1,297.1c-0.2-1.4-2.3-1.1-2.1,0.3C382.2,298.8,384.3,298.5,384.1,297.1z"/>
			<path class="st27" d="M384.1,289.8C384.1,289.8,384.1,289.7,384.1,289.8c0-0.2,0-0.3,0-0.5c0,0,0,0,0,0c-0.1-0.3-0.4-0.4-0.6-0.3
				c-0.3,0-0.5,0.2-0.5,0.5c0,0,0,0,0,0.1c0,0.1,0,0.3,0.1,0.4c0,0,0,0.1,0,0.1C383.2,290.4,384.1,290.3,384.1,289.8z"/>
			<path class="st27" d="M374.6,317.5c-0.2-1.3-2.1-1-1.9,0.3C372.8,319,374.8,318.7,374.6,317.5z"/>
			<path class="st27" d="M367.7,298.5c-0.2-1.3-2.2-1-2,0.3C365.9,300.1,367.9,299.8,367.7,298.5z"/>
			<path class="st27" d="M371,292.8c-0.2-1.3-2.2-1-2,0.3C369.2,294.4,371.2,294.1,371,292.8z"/>
			<path class="st27" d="M372.2,298.6c-0.2-1.4-2.3-1.1-2.1,0.3C370.3,300.3,372.4,300,372.2,298.6z"/>
			<path class="st27" d="M376.1,295.4c-0.2-1.5-2.5-1.2-2.3,0.3C374,297.2,376.3,296.9,376.1,295.4z"/>
			<path class="st27" d="M376.1,291.4c-0.1-0.6-0.9-0.4-0.9,0.1C375.3,292,376.2,291.9,376.1,291.4z"/>
			<path class="st27" d="M370.9,306.4c-0.2-1.1-1.9-0.9-1.7,0.2C369.3,307.7,371,307.5,370.9,306.4z"/>
			<path class="st27" d="M362.7,293.8c-0.2-1.3-2.1-1-1.9,0.3C360.9,295.3,362.9,295.1,362.7,293.8z"/>
		</g>
		<g>
			<path class="st27" d="M272.8,330c-1.9,0-1.9,3,0,3C274.7,333,274.7,330,272.8,330z"/>
			<path class="st27" d="M271.4,337.2c0-0.2-0.2-0.4-0.3-0.6c-0.3-0.4-1.1-0.4-1.4,0c-0.1,0.2-0.2,0.3-0.3,0.6
				c-0.1,0.6,0.3,1.3,1,1.3C271.1,338.5,271.5,337.9,271.4,337.2z"/>
			<path class="st27" d="M273.9,339.2c-1.2,0-1.2,1.9,0,1.9C275.1,341.1,275.1,339.2,273.9,339.2z"/>
			<path class="st27" d="M277.2,333.9c-1.4,0-1.4,2.1,0,2.1C278.6,336.1,278.6,333.9,277.2,333.9z"/>
			<path class="st27" d="M280.5,339.6c-1.1,0-1.1,1.7,0,1.7C281.6,341.3,281.6,339.6,280.5,339.6z"/>
			<path class="st27" d="M277.6,350.7c-0.1,0-0.1,0.1,0,0.1C277.6,350.8,277.6,350.7,277.6,350.7z"/>
			<path class="st27" d="M277.1,345.9c-0.8,0-0.8,1.2,0,1.2C277.9,347.1,277.9,345.9,277.1,345.9z"/>
			<path class="st27" d="M271,346.5c-0.6,0-0.6,0.9,0,0.9C271.5,347.3,271.5,346.5,271,346.5z"/>
			<path class="st27" d="M264.7,337.7c-1.4,0-1.4,2.2,0,2.2C266.1,339.9,266.1,337.7,264.7,337.7z"/>
			<path class="st27" d="M261.2,331.2c-1.1,0-1.1,1.7,0,1.7C262.3,332.9,262.3,331.2,261.2,331.2z"/>
			<path class="st27" d="M276.8,328.1C276.7,328.1,276.7,328,276.8,328.1c-0.2-0.1-0.3-0.1-0.5,0c0,0,0,0,0,0
				c-0.3,0.1-0.4,0.3-0.4,0.6c0,0.3,0.1,0.5,0.4,0.6c0,0,0,0,0,0c0.1,0,0.3,0,0.4,0c0,0,0.1,0,0.1,0
				C277.3,329,277.3,328.2,276.8,328.1z"/>
			<path class="st27" d="M284.6,345.5c-1.3,0-1.3,2,0,2C285.8,347.5,285.8,345.5,284.6,345.5z"/>
		</g>
	</g>
	<g>
		<path class="st28" d="M343.7,248.1c-2.6,0.3-3.9,3.6-1.4,5.1c1.5,0.9,3.4,1.6,5,2.1c1.7,0.6,2.6,1.5,4.4,1.1c0.4-0.1,0.9-0.5,1-1
			C353.4,251.4,347.4,247.7,343.7,248.1z"/>
		<path class="st28" d="M260.6,269.7c-1.6-0.7-2.7-1.8-4.5-2.3c-1.6-0.5-3-1.2-4.6-1.7c-2.6-0.8-4.4,2.5-2.6,4.4
			c1.3,1.4,3.2,2.2,4.9,2.9c0.8,0.3,1.7,0.8,2.6,0.8c1,0,1.9-0.2,3-0.1C261.6,273.9,262.6,270.6,260.6,269.7z"/>
		<path class="st28" d="M296.7,235.8c-3.1-1.7-7,1.1-9.9,2.5c-3.1,1.5-0.9,6.8,2.4,5.6c1.4-0.5,2.8-1,4.2-1.5
			c1.7-0.6,3.4-0.9,4.3-2.6C298.5,238.4,298.1,236.6,296.7,235.8z"/>
		<path class="st28" d="M331.4,267.6c-3.1,0.4-6,1.9-8.9,2.8c-3.3,1-2.8,6.6,0.8,6.2c3.1-0.4,6.1-0.7,9.2-1
			C338.3,274.9,337.2,266.8,331.4,267.6z"/>
		<path class="st29" d="M271.3,254.7c-0.2-1.2-0.3-2.5-0.7-3.7c-0.9-2.4-4.4-2.7-5.2,0c-0.4,1.3-0.2,2.6-0.1,3.9
			c0.2,1.7,0.5,3.1,1.7,4.4c1.4,1.5,3.6,0.6,4.2-1.1C271.6,257.1,271.5,255.9,271.3,254.7z"/>
		<path class="st29" d="M340.3,256.3c-1.6,0.5-2.5,1.9-3.8,2.7c-0.6,0.3-1.3,0.4-1.9,0.8c-0.9,0.5-1.4,1.7-1.1,2.7
			c1.2,4.4,8.8,0.6,10.1-1.9C344.7,258.4,342.8,255.5,340.3,256.3z"/>
		<path class="st29" d="M318.5,241.2c-1.9-0.5-3.8-0.4-5.8-0.2c-1.1,0.1-2.1,0.3-2.7,1.4c-0.3,0.5-0.5,1-0.2,1.5
			c0.8,1.4,1.8,1.7,3.4,1.8c1.5,0.1,3,0.3,4.6,0.5C320.7,246.5,321.1,241.9,318.5,241.2z"/>
		<path class="st29" d="M291.8,274.2c-1.1-0.8-2.7-1.3-3.9-1.9c-1.5-0.7-3-2-4.7-1.5c-1.1,0.3-1.6,1.4-1.4,2.5
			c0.3,1.5,2.1,2.6,3.2,3.5c1.5,1.2,3.5,2.5,5.4,2.4C293.2,278.8,294,275.8,291.8,274.2z"/>
		<path class="st30" d="M260.3,255.7c-0.3-0.7-0.8-1.1-1.4-1.4c-0.2-0.1-0.4-0.2-0.6-0.3c-0.3-0.2-0.4-0.3-0.2-0.1
			c-0.8-0.7-2.1-1.4-3.2-1.4c-1,0.1-1.9,0.6-2.2,1.7c-0.7,2.8,3.2,6.5,6,5.5C260.5,259,261,257.4,260.3,255.7z"/>
		<path class="st30" d="M273.6,277c-0.7-0.9-1-1.6-2.2-1.8c-0.3-0.1-0.6,0-0.8,0.3c-1.1,1.6-0.1,4.7,1.5,5.7
			c1.1,0.7,2.7-0.2,2.6-1.5C274.7,278.5,274.2,277.8,273.6,277z"/>
		<path class="st30" d="M333,240.2c-1,0.6-1.9,1.7-2.6,2.7c-0.5,0.8-0.7,1.7-1.1,2.5c-0.4,0.7-0.1,1.8,0.8,2
			c1.2,0.2,2.4,0.2,3.5-0.5c1.1-0.7,2.3-1.9,3-3.1C337.9,241.6,335.3,238.9,333,240.2z"/>
		<path class="st30" d="M307.4,236.9c-1.5-1.5-4.3-1.2-5.4,0.7c-0.1,0.2-0.3,0.5-0.4,0.7c0.1-0.1-0.4,0.4-0.4,0.5
			c-0.8,0.8-1.4,1.5-1.4,2.8c0,1,0.6,2,1.4,2.5c2.3,1.3,4.7-0.5,6.2-2.3C308.6,240.3,308.8,238.3,307.4,236.9z"/>
		<path class="st30" d="M313,274.9c-0.1,0-0.2-0.1-0.2-0.1c-0.3-0.1-0.5-0.3-0.7-0.4c-0.3-0.1-0.5-0.3-0.8-0.4c0,0-0.7-0.6-0.4-0.3
			c-0.7-0.6-1.2-1.1-2.1-1.4c-1-0.4-2.3,0.2-2.8,1c-1,1.8,0.1,3.4,1.2,4.9c1.1,1.3,2.5,2.1,4.1,2.6c1.6,0.6,3.4-0.6,3.8-2.2
			C315.6,277,314.6,275.5,313,274.9z"/>
		<path class="st31" d="M278.5,242.5c-1.2-0.7-2.6-1-3.9-1.6c-1.7-0.7-3.7,0.2-3.9,2.1c-0.1,1.5,1,2.4,2,3.2
			c1.1,0.7,2.1,1.4,3.4,1.8C279.4,249.2,281.5,244.2,278.5,242.5z"/>
		<path class="st31" d="M273.3,266.9c-1.1-0.2-2.5-0.5-3.6-0.2c-1,0.3-2,1.3-1.8,2.4c0.3,2.1,2.3,2.4,4,2.8c1.4,0.4,2.8-0.4,3.2-1.8
			C275.5,268.8,274.7,267,273.3,266.9z"/>
		<path class="st31" d="M349.2,263.1c-1.6,0.1-3.4,0.2-5,0.6c-1.6,0.4-3.4,2.2-2.6,3.8c1.3,2.7,5,2.6,7.6,2.3
			c1.8-0.2,3.3-1.4,3.3-3.3C352.6,264.7,351,263,349.2,263.1z"/>
		<path class="st31" d="M306.1,284.4c-0.4-0.6-0.8-0.9-1.3-1.3c-0.5-0.4-1.4-0.5-2.1-0.7c-0.4-0.2-0.8-0.4-1.1-0.6
			c-0.6-0.3-1.3-0.3-2-0.3c-0.5,0-1.1,0.3-1.2,0.9c-0.4,1.8,0.6,2.9,2,3.9c1.4,1.1,3.3,1.9,5,0.9
			C306.2,286.5,306.7,285.3,306.1,284.4z"/>
		<path class="st31" d="M321.8,236.3c-1.5-0.8-4.1-0.9-5.3,0.4c-0.7,0.7-0.7,1.6-0.3,2.4c0.8,1.7,3.5,2,5.1,1.8
			C323.4,240.6,323.6,237.3,321.8,236.3z"/>
		<path class="st0" d="M345.7,249c-0.3-0.1-0.6-0.3-0.9-0.4c-1.3-0.4-1.8,1.6-0.6,2c0.1,0.1,0.3,0.1,0.4,0.1
			C345.9,251.4,346.9,249.6,345.7,249z"/>
		<path class="st0" d="M350.1,251.5c-0.4-0.5-0.8-0.8-1.4-1c-1.2-0.2-1.8,1.2-0.8,1.9c0.4,0.3,0.9,0.4,1.4,0.6
			C350.2,253.3,350.6,252.1,350.1,251.5z"/>
		<path class="st0" d="M351.3,253.2c-0.3-0.3-0.5-0.4-0.9-0.4c-0.1,0-0.1,0.1-0.1,0.2c0.2,0.4,0.3,0.6,0.7,0.7
			C351.3,253.8,351.4,253.4,351.3,253.2z"/>
		<path class="st0" d="M332.9,241.2c-0.6,0.6-1.2,1.2-1.6,1.9c-0.6,0.9,0.6,2.2,1.5,1.5c0.9-0.6,1.1-1.4,1.7-2.2
			C335.2,241.4,333.7,240.5,332.9,241.2z"/>
		<path class="st0" d="M337.5,259c-0.5,0-0.7,0.1-1.1,0.5c-0.6,0.5,0,1.4,0.7,1.3c0.5-0.1,0.7-0.3,0.9-0.7
			C338.3,259.6,338.1,258.9,337.5,259z"/>
		<path class="st0" d="M342.4,257.2c-0.6-1-1.9-0.7-2.3,0.3c-0.4,0-0.8,0.1-1,0.5c-0.1,0.2-0.2,0.3-0.3,0.5
			c-0.7,0.2-0.2,1.3,0.5,0.8c0.1,0,0.3,0.1,0.4,0.1c0.4,0.1,0.8-0.1,1.1-0.5C341.8,259.6,343,258.3,342.4,257.2z"/>
		<path class="st0" d="M345.4,264.5c-1.6,0-1.6,2.5,0,2.5C347,267,347,264.5,345.4,264.5z"/>
		<path class="st0" d="M350.4,264.8c-0.5-0.1-1-0.2-1.6-0.1c-0.9,0.1-1.1,1.3-0.2,1.6c0.6,0.2,1.2,0.2,1.8,0.2
			C351.4,266.4,351.4,264.9,350.4,264.8z"/>
		<path class="st0" d="M318.6,236.8c-0.6,0-0.6,0.9,0,0.9C319.1,237.6,319.1,236.8,318.6,236.8z"/>
		<path class="st0" d="M320.4,236.4c-1.6,0-1.6,2.5,0,2.5C322,238.8,322,236.4,320.4,236.4z"/>
		<path class="st0" d="M316.2,241.5c-0.1,0-0.2,0-0.3,0c-0.3,0-0.5,0.1-0.7,0.2c-0.2-0.1-0.4-0.1-0.7,0c-0.1,0-0.2,0.1-0.3,0.1
			c-0.8,0.3-1.1,1.4-0.2,1.9c0.1,0,0.2,0.1,0.3,0.1c0.4,0.2,0.6,0.2,0.9,0.1c0.1,0.1,0.3,0.2,0.4,0.3c0.1,0,0.2,0.1,0.3,0.1
			C317.7,245.1,318.4,241.5,316.2,241.5z"/>
		<path class="st0" d="M326.2,271.3c-0.3-0.9-1.9-0.7-1.7,0.2C324.7,272.8,326.5,272.5,326.2,271.3z"/>
		<path class="st0" d="M331.2,268.6c-0.7,0-1.2,0.3-1.5,0.8c-0.3-0.3-0.6-0.5-1.1-0.5c-2.1,0-2.1,3.3,0,3.3c0.5,0,0.9-0.2,1.2-0.5
			c0.3,0.4,0.8,0.7,1.4,0.7C333.7,272.3,333.7,268.6,331.2,268.6z"/>
		<path class="st0" d="M312.3,275.8c-0.4-0.3-0.6-0.5-0.9-0.9c-0.2-0.4-0.4-0.5-0.7-0.4c-0.1-0.4-0.3-0.8-0.8-0.8
			c-1.2,0-1.2,1.8,0,1.8c0,0,0.1,0,0.1,0c0,0.3,0.2,0.6,0.7,0.6c0.5,0,0.9,0,1.4,0.1C312.4,276.1,312.4,275.9,312.3,275.8z"/>
		<path class="st0" d="M304.3,284.5c-0.3-0.9-1.3-1-1.9-0.6c-0.1-0.1-0.2-0.3-0.4-0.3c0-0.3,0-0.5-0.3-0.8l-0.2-0.2
			c-1-1.1-2.5,0.9-1.2,1.6c0.1,0,0.2,0.1,0.3,0.1c0.4,0.2,0.7,0.1,1,0c0.1,0.1,0.2,0.1,0.4,0.2c-0.1,0.2-0.1,0.4-0.1,0.6
			C302.3,286.6,304.7,286,304.3,284.5z"/>
		<path class="st0" d="M290.6,237.6c-0.2-0.1-0.4-0.2-0.7-0.2c-1.3-0.3-2.6,0.9-2.2,2.2c0.4,1.4,2,1.6,3,0.8
			c0.2-0.1,0.3-0.3,0.5-0.4C292.4,239.5,291.9,237.4,290.6,237.6z"/>
		<path class="st0" d="M294.5,237.2c-0.3-0.6-1.3-0.5-1.4,0.2c0,0.2-0.1,0.4-0.2,0.7c0,0.1,0,0.1,0.1,0.2c0.2,0,0.4,0.1,0.6,0.2
			C294.3,238.5,294.9,237.7,294.5,237.2z"/>
		<path class="st0" d="M302.7,238.4l-0.4,1c0,0.1,0,0.2-0.1,0.3c-0.1,0-0.2,0-0.3,0c-0.4,0-0.9,0.2-1.1,0.6c0,0.1-0.1,0.1-0.1,0.2
			c-0.2,0.4-0.2,0.9,0.2,1.2c0,0,0.1,0.1,0.1,0.1c0.4,0.3,1,0.5,1.5,0.2c0.5-0.3,0.7-0.7,0.8-1c0.4,0,0.8,0,1-0.3
			c0.3-0.2,0.5-0.5,0.8-0.7C306.8,238.5,303.7,236,302.7,238.4z"/>
		<path class="st0" d="M278.4,243.9c-0.3-0.7-0.9-0.9-1.6-1c-0.2,0-0.4-0.1-0.6-0.1c0,0,0,0,0,0c-0.2-0.1-0.4-0.3-0.5-0.4
			c-1.5-1.1-3.2,1.7-1.5,2.6c0.3,0.2,0.6,0.2,0.9,0.3c0,0,0.1,0.1,0.2,0.2c0.2,0.1,0.4,0.2,0.5,0.2c0.8,0.4,1.8,0.6,2.5-0.2
			C278.6,245,278.6,244.5,278.4,243.9z"/>
		<path class="st0" d="M269.5,252.7c-0.4-1.6-2.9-0.6-2.1,0.9c0.5,0.9,0.5,1.8,0.7,2.8c0.3,1.4,2.5,1.1,2.5-0.3
			C270.6,254.8,269.8,253.9,269.5,252.7z"/>
		<path class="st0" d="M257.5,254.4c-0.5-0.4-0.9-0.6-1.5-0.7c-0.9-0.1-1.5,0.9-1.3,1.7c0.2,0.6,0.5,1,1,1.3
			C257.1,257.6,258.9,255.5,257.5,254.4z"/>
		<path class="st0" d="M256.8,268.7c-0.1-0.1-0.2-0.1-0.3-0.2c-1.6-0.8-2.4,1.9-0.6,2c0.1,0,0.2,0,0.3,0
			C257.3,270.7,257.7,269.1,256.8,268.7z"/>
		<path class="st0" d="M258.4,269.8c-0.1,0-0.1,0.2,0,0.2C258.5,270,258.5,269.8,258.4,269.8z"/>
		<path class="st0" d="M252.9,267.3c-1.4,0-1.4,2.2,0,2.2C254.3,269.4,254.3,267.3,252.9,267.3z"/>
		<path class="st0" d="M271.8,268.1C271.8,268.1,271.7,268.1,271.8,268.1c-0.1-0.1-0.1-0.1-0.2-0.1c0,0,0-0.1,0-0.1
			c-0.2-0.3-0.3-0.4-0.6-0.6c-0.8-0.5-1.3,0.9-0.5,1.1c0.4,0.1,0.5,0.1,0.9,0c0,0,0,0,0.1-0.1c0,0,0,0,0,0
			C271.7,268.6,272,268.3,271.8,268.1z"/>
		<path class="st0" d="M273.8,268.7c-0.1-0.1-0.1-0.2-0.2-0.2c-1-1.5-2.9,0.5-1.5,1.5c0.1,0.1,0.2,0.1,0.2,0.2
			C273.3,270.6,274.4,269.5,273.8,268.7z"/>
		<path class="st0" d="M273.1,278.5C273.1,278.5,273.1,278.5,273.1,278.5c0.1-0.3,0-0.9-0.5-0.9c-0.7,0-0.7,1-0.1,1.1
			c-0.5,0.5-0.3,1.5,0.6,1.5C274.2,280.2,274.2,278.5,273.1,278.5z"/>
		<path class="st0" d="M290.4,274.8c0.1-1.2-0.9-2-2.1-2.2c-0.6-1-2.2-1.5-3.3-0.9c-0.4,0.2-0.7,0.7-0.6,1.1c0.1,1.1,1,2,2.1,2.2
			c0.6,1.1,2.1,1.7,3.2,1C290.3,276,290.6,275.3,290.4,274.8z"/>
	</g>
</g>
</svg>
