<?xml version="1.0" encoding="utf-8"?>
<!-- Generator: Adobe Illustrator 24.2.1, SVG Export Plug-In . SVG Version: 6.00 Build 0)  -->
<svg version="1.1" xmlns="http://www.w3.org/2000/svg" xmlns:xlink="http://www.w3.org/1999/xlink" x="0px" y="0px"
	 viewBox="0 0 2500 2500" style="enable-background:new 0 0 2500 2500;" xml:space="preserve">
<style type="text/css">
	.st0{fill:#FFFFFF;}
	.st1{fill:#F2E6DC;}
	.st2{fill:#E6D0BE;}
	.st3{fill:#D3BBA3;}
	.st4{fill:#F7F1EB;}
	.st5{fill:#D87355;}
	.st6{fill:#8B865C;}
	.st7{fill:#BC8271;}
	.st8{fill:#363E44;}
	.st9{fill:#E2A18D;}
	.st10{fill:#84524D;}
	.st11{fill:#9E6C5A;}
	.st12{fill:#EFBC73;}
	.st13{fill:#776E42;}
	.st14{fill:#40484C;}
	.st15{fill:#E0AA63;}
</style>
<g id="Background">
	<rect class="st0" width="2500" height="2500"/>
</g>
<g id="Illustration">
	<g id="School_reopening_1_">
		<g>
			<ellipse class="st1" cx="1250.6" cy="1250" rx="913.9" ry="915"/>
			<path class="st2" d="M2165.4,1249.1c0,505.8-409.9,915.9-915.4,915.9s-915.4-410-915.4-915.9c0-28.6,3.5-56.8,6.1-84.8h1820.9
				C2164.1,1192.3,2165.4,1220.6,2165.4,1249.1z"/>
		</g>
		<g>
			<rect x="697.8" y="735.3" class="st3" width="940.7" height="432.6"/>
			<rect x="697.8" y="955.4" class="st1" width="940.9" height="12.5"/>
			<rect x="697" y="715.3" class="st0" width="942.1" height="43.1"/>
			<path class="st1" d="M1637.3,739.1H699.1c-0.6,0-1-0.4-1-1c0-0.6,0.4-1,1-1h938.2c0.6,0,1,0.4,1,1
				C1638.3,738.6,1637.8,739.1,1637.3,739.1z"/>
			<rect x="960.2" y="644.1" class="st2" width="418.4" height="523.8"/>
			<polygon class="st3" points="1410.8,654.7 927.9,654.7 1169.3,525.4 			"/>
			<path class="st1" d="M1336.3,635.7h-333.9c-0.5,0-0.9-0.3-1-0.8c-0.1-0.4,0.1-0.9,0.5-1.1l167-89.4c0.3-0.2,0.6-0.2,0.9,0
				l167,89.4c0.4,0.2,0.6,0.7,0.5,1.1S1336.8,635.7,1336.3,635.7z M1006.4,633.7h326l-163-87.2L1006.4,633.7z"/>
			<path class="st4" d="M1336.5,1157.2H999.6c-0.6,0-1-0.4-1-1s0.4-1,1-1h336.9c0.6,0,1,0.4,1,1S1337.1,1157.2,1336.5,1157.2z"/>
			<path class="st4" d="M1336.5,1141.9H999.6c-0.6,0-1-0.4-1-1s0.4-1,1-1h336.9c0.6,0,1,0.4,1,1S1337.1,1141.9,1336.5,1141.9z"/>
			<path class="st4" d="M1336.5,1126.5H999.6c-0.6,0-1-0.4-1-1s0.4-1,1-1h336.9c0.6,0,1,0.4,1,1S1337.1,1126.5,1336.5,1126.5z"/>
			<rect x="1056.8" y="983.8" class="st3" width="216.7" height="139.2"/>
			<rect x="1172.8" y="983.6" class="st1" width="92.3" height="131.6"/>
			<rect x="958.5" y="877.4" class="st1" width="425.1" height="32.4"/>
			<g>
				<rect x="1017" y="687.9" class="st3" width="26.4" height="70.9"/>
				<rect x="1017" y="779.9" class="st3" width="26.4" height="70.9"/>
				<rect x="1072.4" y="687.9" class="st3" width="26.4" height="70.9"/>
				<rect x="1072.4" y="779.9" class="st3" width="26.4" height="70.9"/>
				<rect x="1127.8" y="687.9" class="st3" width="26.4" height="70.9"/>
				<rect x="1127.8" y="779.9" class="st3" width="26.4" height="70.9"/>
				<rect x="1183.3" y="687.9" class="st3" width="26.4" height="70.9"/>
				<rect x="1183.3" y="779.9" class="st3" width="26.4" height="70.9"/>
				<rect x="1238.7" y="687.9" class="st3" width="26.4" height="70.9"/>
				<rect x="1238.7" y="779.9" class="st3" width="26.4" height="70.9"/>
				<rect x="1294.1" y="687.9" class="st3" width="26.4" height="70.9"/>
				<rect x="1294.1" y="779.9" class="st3" width="26.4" height="70.9"/>
			</g>
			<path class="st2" d="M1382.6,894.6H960.2c-0.6,0-1-0.4-1-1c0-0.6,0.4-1,1-1h422.4c0.6,0,1,0.4,1,1
				C1383.6,894.2,1383.1,894.6,1382.6,894.6z"/>
			<g>
				<rect x="723.3" y="777.6" class="st2" width="34.7" height="70.9"/>
				<rect x="723.3" y="869.6" class="st2" width="34.7" height="70.9"/>
				<rect x="784" y="777.6" class="st2" width="34.7" height="70.9"/>
				<rect x="784" y="869.6" class="st2" width="34.7" height="70.9"/>
				<rect x="844.6" y="777.6" class="st2" width="34.7" height="70.9"/>
				<rect x="844.6" y="869.6" class="st2" width="34.7" height="70.9"/>
				<rect x="905.3" y="777.6" class="st2" width="34.7" height="70.9"/>
				<rect x="905.3" y="869.6" class="st2" width="34.7" height="70.9"/>
			</g>
			<g>
				<rect x="723.3" y="984.8" class="st2" width="34.7" height="70.9"/>
				<rect x="723.3" y="1076.8" class="st2" width="34.7" height="70.9"/>
				<rect x="784" y="984.8" class="st2" width="34.7" height="70.9"/>
				<rect x="784" y="1076.8" class="st2" width="34.7" height="70.9"/>
				<rect x="844.6" y="984.8" class="st2" width="34.7" height="70.9"/>
				<rect x="844.6" y="1076.8" class="st2" width="34.7" height="70.9"/>
				<rect x="905.3" y="984.8" class="st2" width="34.7" height="70.9"/>
				<rect x="905.3" y="1076.8" class="st2" width="34.7" height="70.9"/>
			</g>
			<g>
				<rect x="1396.4" y="777.6" class="st2" width="34.7" height="70.9"/>
				<rect x="1396.4" y="869.6" class="st2" width="34.7" height="70.9"/>
				<rect x="1457.1" y="777.6" class="st2" width="34.7" height="70.9"/>
				<rect x="1457.1" y="869.6" class="st2" width="34.7" height="70.9"/>
				<rect x="1517.7" y="777.6" class="st2" width="34.7" height="70.9"/>
				<rect x="1517.7" y="869.6" class="st2" width="34.7" height="70.9"/>
				<rect x="1578.4" y="777.6" class="st2" width="34.7" height="70.9"/>
				<rect x="1578.4" y="869.6" class="st2" width="34.7" height="70.9"/>
			</g>
			<g>
				<rect x="1396.4" y="984.8" class="st2" width="34.7" height="70.9"/>
				<rect x="1396.4" y="1076.8" class="st2" width="34.7" height="70.9"/>
				<rect x="1457.1" y="984.8" class="st2" width="34.7" height="70.9"/>
				<rect x="1457.1" y="1076.8" class="st2" width="34.7" height="70.9"/>
				<rect x="1517.7" y="984.8" class="st2" width="34.7" height="70.9"/>
				<rect x="1517.7" y="1076.8" class="st2" width="34.7" height="70.9"/>
				<rect x="1578.4" y="984.8" class="st2" width="34.7" height="70.9"/>
				<rect x="1578.4" y="1076.8" class="st2" width="34.7" height="70.9"/>
			</g>
			<rect x="1050.2" y="974.1" class="st3" width="229.8" height="10.4"/>
			<path class="st3" d="M2013.8,1168.9L2013.8,1168.9l-1672.3-2.5c-0.6,0-1-0.4-1-1c0-0.6,0.4-1,1-1h0l1672.3,2.5c0.6,0,1,0.4,1,1
				C2014.8,1168.4,2014.4,1168.9,2013.8,1168.9z"/>
			<g>
				<path class="st3" d="M521.6,979.7c2,20.6,2.6,45.2,0,72.7c-4.6,47.4-17.3,86-29,113.4c27.1,3.9,50.2-2.4,77.3,1.5
					c-8.8-21.3-13.3-37-19.2-66.9c-11.8-60.5-7.6-112.6-1.5-148.3C540,961.3,530.8,970.5,521.6,979.7z"/>
				<path class="st2" d="M636.8,887.2c-3.9-4.5-9.5-4.9-17.2-2.7c0-2.9,0-5.8,0-8.8c6.2-8.7,12.1-19.5,7.9-26.1
					c-0.7-1-3.3-4.7-9.5-4.1c-0.9-10-2.1-19.7-3.6-29.2c8.7-31.1,9.8-46.4,2.8-50.5c-2.9-1.7-7-1.9-13.2,2.4
					c-0.5-1.9-1.1-3.8-1.6-5.6c5-13.6,10.9-33.2,2.8-39.9c-1.8-1.5-7.4-4.6-16.3,2c-0.9-2.1-1.8-4.2-2.7-6.2
					c5.3-20,3.1-30.4-1.6-32.8c-2.9-1.5-8.1-2-14.1,3.8c-14.1-21.7-29-34.1-41.4-34.1c-13.7,0-28.4,13.3-42,37.1
					c-3.2-3.3-6.4-5-9.4-3.8c-7,2.6-7.4,22.3-6.6,37.7c-1.5,3.7-2.9,7.6-4.3,11.5c-6.2-6.1-9.4-5.9-12.3-4.6
					c-4.6,2.2-4.3,20.5,0.9,41.5c-0.5,2-1,4-1.5,6c-7.8-9.7-10.2-7.6-12.7-6.7c-7.6,2.8-3.2,34.1,1.7,60.5c-0.7,4.3-1.4,8.6-2,13
					c-5.3,37.4-4,67.1,1.8,90.4c-7.2-1.4-10.5-0.7-11.6,1.1c-3.1,5,8.5,22.6,28.2,36.9c18.7,27,46.7,37,72.1,37
					c35.9,0,65.2-20.9,79.3-65.2C633.2,924.1,644.4,896,636.8,887.2z"/>
				<path class="st3" d="M455.1,896.1c-0.5,0-0.9-0.4-1-0.9c-3.2-24-0.9-36.8,6.8-37.9c7-1,13.8,10.2,17.6,17.7
					c-0.9-9.1,0.7-14.1,4.8-15.5c6.4-2.1,16.2,5.9,23,18.7c0.3,0.5,0.1,1.1-0.4,1.4c-0.5,0.3-1.1,0.1-1.4-0.4
					c-6.8-12.9-16-19.3-20.6-17.8c-3.9,1.3-4.8,8.1-2.5,20.3c0.1,0.5-0.2,1-0.7,1.1c-0.5,0.1-1-0.1-1.2-0.6
					c-2.7-6.7-11.3-24-18.4-22.9c-6.2,0.9-8.1,13.6-5.1,35.7c0.1,0.5-0.3,1.1-0.9,1.1C455.2,896.1,455.1,896.1,455.1,896.1z"/>
				<path class="st3" d="M586.3,961.2c0,0-0.1,0-0.1,0c-0.5-0.1-0.9-0.6-0.9-1.1c2.4-18.2,0.9-29.1-4.2-29.9
					c-5.9-0.9-13.3,14-15.4,19.2c-0.2,0.5-0.7,0.7-1.2,0.6c-0.5-0.1-0.8-0.6-0.7-1.1c1.9-10.1,1.2-15.8-2-16.9
					c-3.8-1.3-11.5,4.1-17.2,14.9c-0.3,0.5-0.9,0.7-1.4,0.4c-0.5-0.3-0.7-0.9-0.4-1.4c5.7-10.8,14.1-17.7,19.6-15.9
					c4.1,1.4,4.8,6.8,4.3,12.4c3.3-6.3,8.9-15.1,14.6-14.3c6.6,1,8.6,11.8,5.9,32.1C587.2,960.8,586.8,961.2,586.3,961.2z"/>
				<path class="st3" d="M574,805c0,0-0.1,0-0.1,0c-0.5-0.1-0.9-0.6-0.9-1.1c2.4-18.2,0.9-29.1-4.2-29.9c-5.9-0.9-13.3,14-15.4,19.2
					c-0.2,0.5-0.7,0.7-1.2,0.6c-0.5-0.1-0.8-0.6-0.7-1.1c1.9-10.1,1.2-15.8-2-16.9c-3.8-1.3-11.5,4.1-17.2,14.9
					c-0.3,0.5-0.9,0.7-1.4,0.4c-0.5-0.3-0.7-0.9-0.4-1.4c5.7-10.8,14.1-17.7,19.6-15.9c4.1,1.4,4.8,6.8,4.3,12.4
					c3.3-6.3,8.9-15.1,14.6-14.3c6.6,1,8.6,11.8,5.9,32.1C574.9,804.6,574.5,805,574,805z"/>
			</g>
		</g>
		<g>
			<path class="st5" d="M1522.2,1913.2c0,4.4,2.2,89.7,2.2,89.7l89.6-46.7L1522.2,1913.2z"/>
			<path class="st5" d="M1074.1,1911c0,4.4-2.2,89.7-2.2,89.7l-89.6-46.7L1074.1,1911z"/>
			<g>
				<rect x="1053" y="1933.6" class="st5" width="480.9" height="46"/>
			</g>
		</g>
		<g>
			
				<rect x="1467.3" y="404.9" transform="matrix(-1 -1.224647e-16 1.224647e-16 -1 3629.2507 1670.8093)" class="st0" width="694.6" height="861"/>
			<path class="st6" d="M2133.2,1245.6h-694.6c-0.6,0-1-0.4-1-1v-861c0-0.6,0.4-1,1-1h694.6c0.6,0,1,0.4,1,1v861
				C2134.2,1245.1,2133.8,1245.6,2133.2,1245.6z M1439.6,1243.6h692.6v-859h-692.6V1243.6z"/>
			<g>
				<g>
					<path class="st6" d="M2042.6,461.4h-491.1c-0.6,0-1-0.4-1-1c0-0.6,0.4-1,1-1h491.1c0.6,0,1,0.4,1,1
						C2043.6,461,2043.2,461.4,2042.6,461.4z"/>
					<path class="st6" d="M2042.6,494.4h-491.6c-0.6,0-1-0.4-1-1c0-0.6,0.4-1,1-1h491.6c0.6,0,1,0.4,1,1
						C2043.6,494,2043.2,494.4,2042.6,494.4z"/>
				</g>
			</g>
			<g>
				<g>
					<rect x="1749.9" y="600.3" class="st1" width="330.9" height="33.9"/>
					<rect x="1749.9" y="652.5" class="st1" width="330.9" height="33.9"/>
				</g>
				<g>
					<rect x="1749.9" y="1057.6" class="st1" width="330.9" height="33.9"/>
					<rect x="1749.9" y="1107.6" class="st1" width="330.9" height="33.9"/>
				</g>
				<g>
					<rect x="1749.9" y="854.4" class="st1" width="330.9" height="33.9"/>
					<rect x="1749.9" y="905.6" class="st1" width="330.9" height="33.9"/>
					<rect x="1749.9" y="803.1" class="st1" width="330.9" height="33.9"/>
				</g>
			</g>
			<g>
				<g>
					<ellipse class="st0" cx="1618.2" cy="1102.4" rx="102" ry="102.2"/>
					<g>
						<path class="st7" d="M1720.2,1102.4c0-28.3-11.5-53.9-30.1-72.4c-15.8,5.9-67.4,24.6-72.3,26.6c-2,0.8-5.5,2.2-9.3,5.2
							c-14.3,11.1-10.1,26.5-20.6,44.7c-2.5,4.3-30.6,24.6-26.8,32.3c1.8,3.8,9,3.7,22.8-2.2c0,0,0,0,0,0
							c-9.9,5.7-23.1,13.9-20,19.4c4,6.2,14.8,1.9,24.1-3.1c-10.7,5.7-10,9.4-7.5,12c4,4.1,14.3,1.3,29.7-7.7l0,0
							c-8.9,9.2-9.6,12.8-6.9,14.5c5.1,3.2,17.6-4.4,27.6-12.9c11.3-9.5,16.7-20.9,19.9-28.1c0,0,0,0,0,0
							c26-7.3,48.2-13.5,68.9-19.2C1720.1,1108.6,1720.2,1105.5,1720.2,1102.4z"/>
						<path class="st7" d="M1600.9,1091.5c-22.3,7.3-31.9,5.1-33,1.6c-1.7-6,14.8-20,46.1-34.8
							C1611.2,1067.9,1603.7,1082,1600.9,1091.5z"/>
						<path class="st8" d="M1617.4,1100.6c-7.1,0-15.7-1.9-23.9-5.7c-0.5-0.2-0.7-0.8-0.5-1.3c0.2-0.5,0.8-0.7,1.3-0.5
							c16.7,7.7,32.9,6.8,36.1,0.7c0.3-0.5,0.9-0.7,1.4-0.4c0.5,0.3,0.7,0.9,0.4,1.4C1630.2,1098.6,1624.5,1100.6,1617.4,1100.6z"/>
						<path class="st8" d="M1584,1136.9c-0.3,0-0.6-0.2-0.8-0.4c-0.3-0.5-0.2-1.1,0.3-1.4c3.4-2.3,6.4-5,9-8.1
							c1.8-2.1,3.4-4.4,4.8-6.9c0.3-0.5,0.9-0.6,1.4-0.4c0.5,0.3,0.6,0.9,0.4,1.4c-1.5,2.5-3.2,4.9-5.1,7.2
							c-2.7,3.2-5.9,6.1-9.4,8.4C1584.4,1136.8,1584.2,1136.9,1584,1136.9z"/>
						<path class="st8" d="M1592.9,1150.1c-0.3,0-0.6-0.2-0.8-0.4c-0.3-0.5-0.2-1.1,0.3-1.4c3.4-2.3,6.4-5,9-8.1
							c1.8-2.1,3.4-4.4,4.8-6.9c0.3-0.5,0.9-0.6,1.4-0.4c0.5,0.3,0.6,0.9,0.4,1.4c-1.5,2.5-3.2,4.9-5.1,7.2
							c-2.7,3.2-5.9,6.1-9.4,8.4C1593.2,1150,1593.1,1150.1,1592.9,1150.1z"/>
						<path class="st8" d="M1610.5,1158c-0.3,0-0.6-0.2-0.8-0.4c-0.3-0.5-0.2-1.1,0.3-1.4c3.4-2.3,6.4-5,9-8.1
							c1.8-2.1,3.4-4.4,4.8-6.9c0.3-0.5,0.9-0.6,1.4-0.4c0.5,0.3,0.6,0.9,0.4,1.4c-1.5,2.5-3.2,4.9-5.1,7.2
							c-2.7,3.2-5.9,6.1-9.4,8.4C1610.9,1157.9,1610.7,1158,1610.5,1158z"/>
					</g>
					<g>
						<g>
							<path class="st9" d="M1630.8,1115.5c-23.4-1.6-31.5-7.2-31.2-10.9c0.6-6.2,21.2-13.1,55.7-15
								C1649.2,1097.4,1637,1107.7,1630.8,1115.5z"/>
							<path class="st9" d="M1720.2,1102.4c0-4-0.2-8-0.7-11.8c-27.5-0.7-51.6-1.3-59.9-1.2c-2.1,0-5.9,0-10.6,1.4
								c-17.4,5-19.8,20.2-35.7,33.8c-18.1,15.4-35.8,9.8-35.8,15.9c0,4.2,5.9,10.9,20.9,10.5v0c-11.5,1.5-26.7,4.3-25.8,10.6
								c1.4,7.2,19.7,6.1,30.8,4.8c-13.4,1.5-20.1,6.3-18.8,9.7c2.1,5.3,12.9,6.6,30.4,3.9l0,0c-11.3,5.2-13.7,8.2-11.7,10.9
								c3.5,4.9,18,2.5,30.4-1.7c14-4.7,23.3-13.1,29-18.6c0,0,0,0,0,0c10.3,1.1,19.7,2.1,28.6,3.1
								C1709.2,1155.3,1720.2,1130.2,1720.2,1102.4z"/>
							<path class="st8" d="M1623.5,1116.2c-0.2,0-0.4-0.1-0.6-0.2c-0.4-0.3-0.5-1-0.1-1.4c1.8-2.2,3.4-4.3,4.9-6.4
								c3.3-4.5,6.5-8.7,10.5-12c0.4-0.4,1.1-0.3,1.4,0.1c0.4,0.4,0.3,1.1-0.1,1.4c-3.9,3.2-6.9,7.3-10.2,11.7
								c-1.6,2.1-3.2,4.3-5,6.5C1624.1,1116,1623.8,1116.2,1623.5,1116.2z"/>
							<path class="st8" d="M1598.7,1151.4c-0.5,0-0.9-0.3-1-0.8c-0.1-0.5,0.2-1.1,0.8-1.2c4-0.9,7.8-2.3,11.4-4.1
								c2.5-1.3,4.8-2.8,7-4.6c0.4-0.3,1.1-0.3,1.4,0.2c0.3,0.4,0.3,1.1-0.2,1.4c-2.3,1.8-4.8,3.4-7.4,4.8c-3.7,2-7.8,3.4-11.9,4.3
								C1598.8,1151.3,1598.7,1151.4,1598.7,1151.4z"/>
							<path class="st8" d="M1602,1166.9c-0.5,0-0.9-0.3-1-0.8c-0.1-0.5,0.2-1.1,0.8-1.2c4-0.9,7.8-2.3,11.4-4.1
								c2.5-1.3,4.8-2.8,7-4.6c0.4-0.3,1.1-0.3,1.4,0.2c0.3,0.4,0.3,1.1-0.2,1.4c-2.3,1.8-4.8,3.4-7.4,4.8c-3.7,2-7.7,3.4-11.9,4.3
								C1602.1,1166.9,1602,1166.9,1602,1166.9z"/>
							<path class="st8" d="M1615.4,1180.8c-0.5,0-0.9-0.3-1-0.8c-0.1-0.5,0.2-1.1,0.8-1.2c4-0.9,7.8-2.3,11.4-4.1
								c2.5-1.3,4.8-2.8,7-4.6c0.4-0.3,1.1-0.3,1.4,0.2c0.3,0.4,0.3,1.1-0.2,1.4c-2.3,1.8-4.8,3.4-7.4,4.8c-3.7,2-7.8,3.4-11.9,4.3
								C1615.5,1180.8,1615.5,1180.8,1615.4,1180.8z"/>
						</g>
					</g>
					<path class="st2" d="M1613.2,1123.3c0,14.7-10.8,26.7-24.2,26.7s-24.2-11.9-24.2-26.7c0-14.7,22.3-42.2,25.3-41.1
						C1591.4,1082.7,1613.2,1108.6,1613.2,1123.3z"/>
					<path class="st6" d="M1586.6,1027.5h-16.1l-23.1-0.1c-5.9,6.1-10.6,13.9-15.1,20.9h38.9v15.8l17.7-0.7l-1.4-35.9H1586.6z"/>
					<path class="st8" d="M1617.2,1205.8c-56.8,0-103-46.3-103-103.2s46.2-103.2,103-103.2s103,46.3,103,103.2
						S1674,1205.8,1617.2,1205.8z M1617.2,1001.5c-55.7,0-101,45.4-101,101.2s45.3,101.2,101,101.2s101-45.4,101-101.2
						S1672.9,1001.5,1617.2,1001.5z"/>
				</g>
				<g>
					<ellipse class="st0" cx="1621.2" cy="871.3" rx="102" ry="102.2"/>
					<g>
						<path class="st9" d="M1723.2,872.5c0-21.7-6.8-41.9-18.3-58.4c-38.9,10.8-66.1,18.1-78.1,21.8c-2.3,0.7-6.2,1.9-10.8,4.8
							c-16.9,10.7-14.7,27.6-27.3,47c-14.3,22-35,26.3-33.1,32.7c1.3,4.5,10.1,5,25.1,0v0c-11.5,5.2-1,19.4,10.3,14.6
							c-13.7,5.8-1.1,18.7,16.7,10.6h0c-10.7,9.2,10.8,12.4,22.7,4.1c13.4-9.3,20.6-21.1,24.9-28.7c0,0,0,0,0,0
							c22.4-4.1,42.2-7.6,60.7-10.9C1720.7,898.4,1723.2,885.7,1723.2,872.5z"/>
						<g>
							<path class="st8" d="M1656.5,910.7c-0.2,0-0.4,0-0.5-0.1c-0.5-0.3-0.6-0.9-0.3-1.4l3.5-5.8c0.3-0.5,0.9-0.6,1.4-0.3
								c0.5,0.3,0.6,0.9,0.3,1.4l-3.5,5.8C1657.2,910.5,1656.8,910.7,1656.5,910.7z"/>
							<path class="st8" d="M1647.6,925.5c-0.2,0-0.4,0-0.5-0.1c-0.5-0.3-0.6-0.9-0.3-1.4l3.5-5.8c0.3-0.5,0.9-0.6,1.4-0.3
								c0.5,0.3,0.6,0.9,0.3,1.4l-3.5,5.8C1648.2,925.3,1647.9,925.5,1647.6,925.5z"/>
							<path class="st8" d="M1638.6,940.7c-0.2,0-0.4,0-0.5-0.1c-0.5-0.3-0.6-0.9-0.3-1.4l3.5-5.8c0.3-0.5,0.9-0.6,1.4-0.3
								c0.5,0.3,0.6,0.9,0.3,1.4l-3.5,5.8C1639.3,940.5,1639,940.7,1638.6,940.7z"/>
							<path class="st8" d="M1630.2,954.3c-0.2,0-0.4,0-0.5-0.1c-0.5-0.3-0.6-0.9-0.3-1.4l3.5-5.8c0.3-0.5,0.9-0.6,1.4-0.3
								c0.5,0.3,0.6,0.9,0.3,1.4l-3.5,5.8C1630.9,954.1,1630.6,954.3,1630.2,954.3z"/>
							<path class="st7" d="M1637.6,883.6c-6.9-3.6-75-35.7-109.7-53.6c-5.9,12.9-8.7,27.4-8.7,42.5c0,14.1,2.9,27.5,8,39.8
								c14.8,7.1,31.3,14.9,49.1,22.9c23.8,10.7,45,21.4,57.2,27.8c4.6,1.2,9.4-0.2,12-3.5c2.4-3.1,2.2-6.6,2.1-7.6
								c5,2,10.3,0,12.3-4c1.4-2.9,1-6.5-1-9.4c0.4,0.1,6.1,0.7,9.8-3.7c2.8-3.3,3.3-8.1,1.2-12.2c4.1-1,7.3-3.7,8.3-7.1
								C1681,905.2,1651.3,890.8,1637.6,883.6z"/>
						</g>
						<path class="st9" d="M1621.2,872.5c-25.3,5.6-52.5,2.3-53.3-1.7c-1.3-6.8,18.4-20.5,54.4-33.4
							C1618.2,847.6,1625.3,862.2,1621.2,872.5z"/>
						<path class="st9" d="M1569,911.4l4,0.3c4.9,0.3,8.6,4.6,8.3,9.5l2.2,11.6c-0.3,4.9-7.5,7.1-12.4,6.8l-4-0.3
							c-4.9-0.3-8.6-4.6-8.3-9.5l0.7-10.1C1559.8,914.8,1564.1,911,1569,911.4z"/>
						<path class="st9" d="M1615.1,927.8l1.5,0.1c4.9,0.3,8.6,4.6,8.3,9.5l-0.9,12.9c-0.3,4.9-4.6,8.6-9.5,8.3l-1.5-0.1
							c-4.9-0.3-8.6-4.6-8.3-9.5l0.9-12.9C1605.9,931.2,1610.2,927.5,1615.1,927.8z"/>
						<path class="st9" d="M1594.3,913.5h3.7c4.9,0.3,9.3,7,9,11.9l-1.1,16.3c-0.3,4.9-4.6,8.6-9.5,8.3l-3.5-0.2
							c-7.9-0.9-11.7-9.1-11.3-14l4.2-11.8C1585.9,919,1589.3,913.1,1594.3,913.5z"/>
						<path class="st8" d="M1582,935.1c0,0-0.1,0-0.1,0c-0.5-0.1-0.9-0.5-0.9-1l0.2-6.7c0.3-8.8-4.7-15.3-12.5-16.1
							c-5.7,0.2-7.4,3.9-8.3,9.8c-0.1,0.5-0.6,0.9-1.1,0.8c-0.5-0.1-0.9-0.6-0.8-1.1c0.9-5.8,2.8-11.3,10.3-11.5c0,0,0.1,0,0.1,0
							c8.3,0.9,13.8,7.2,14.4,16l1.1-4.2c1.4-5.5,6.5-9.3,12.2-8.9c5.4,0.3,9.9,4.3,10.9,9.7c0.1,0.5-0.3,1.1-0.8,1.2
							c-0.5,0.1-1.1-0.3-1.2-0.8c-0.8-4.4-4.5-7.8-9-8c-4.7-0.3-9,2.8-10.1,7.4l-3.2,12.9C1582.9,934.8,1582.5,935.1,1582,935.1z"/>
						<path class="st8" d="M1622.8,949.6C1622.8,949.6,1622.8,949.6,1622.8,949.6c-0.6,0-1-0.5-1-1.1l0.8-12.4
							c0.2-3.9-2.4-7.3-6.3-8c-0.4-0.1-0.8-0.1-1.2-0.1c-0.6,0-1-0.5-1-1c0-0.6,0.5-1,1-1c0.5,0,1,0.1,1.5,0.1
							c4.8,0.9,8.2,5.2,7.9,10.1l-0.8,12.4C1623.8,949.2,1623.4,949.6,1622.8,949.6z"/>
					</g>
					<path class="st8" d="M1621.2,974.5c-56.8,0-103-46.3-103-103.2c0-56.9,46.2-103.2,103-103.2s103,46.3,103,103.2
						C1724.2,928.2,1678,974.5,1621.2,974.5z M1621.2,770.2c-55.7,0-101,45.4-101,101.2c0,55.8,45.3,101.2,101,101.2
						s101-45.4,101-101.2C1722.2,815.5,1676.9,770.2,1621.2,770.2z"/>
					<path class="st8" d="M1586.9,968.3c-0.1,0-0.3,0-0.4-0.1c-0.5-0.2-0.8-0.8-0.5-1.3l76.7-188.2c0.2-0.5,0.8-0.8,1.3-0.5
						c0.5,0.2,0.8,0.8,0.5,1.3l-76.7,188.2C1587.6,968,1587.2,968.3,1586.9,968.3z"/>
				</g>
				<g>
					<ellipse class="st0" cx="1619.1" cy="643.4" rx="102" ry="102.2"/>
					<g>
						<path class="st10" d="M1592.4,565.5c-7.2,0-17.2,2-21.1,5.5l8.6,26.4l-14.4-17.6c-7.8,19.5,1.8,52.8,4.4,60.7
							c5.7,17.4,13.2,31.4,27.3,40.9c15.6,10.6,39.8,15.7,59.9,3.7c25.5-15.2,25.6-46.8,25.6-52.5
							C1682.7,600.6,1635.5,565.5,1592.4,565.5z"/>
						<g>
							<path class="st9" d="M1594.1,742.4c8,2,16.4,3.1,25,3.1c13.5,0,26.4-2.6,38.2-7.4l1.9-40.7l-62.9-2.9L1594.1,742.4z"/>
							<path class="st9" d="M1577,658.3c1.2,26.3,16.9,67.3,50.8,65.7c33.9-1.6,45.6-43.9,44.4-70.2c-1.2-26.3-23.8-39.7-50-38.5
								C1595.8,616.6,1575.7,632,1577,658.3z"/>
							<path class="st9" d="M1662.4,665.2c-4,10.4-1.7,21,5.2,23.7c6.9,2.7,15.8-3.6,19.9-14c4-10.4,1.7-21-5.2-23.7
								C1675.3,648.5,1666.4,654.8,1662.4,665.2z"/>
							
								<ellipse transform="matrix(0.8946 -0.4469 0.4469 0.8946 -135.4216 775.3608)" class="st9" cx="1575.9" cy="674.7" rx="13.5" ry="20.2"/>
							<path class="st8" d="M1574.8,684.9c-0.2,0-0.3,0-0.5-0.1c-2.3-1.3-4.3-3.6-5.7-6.3c-2.9-5.9-2-12.3,2.1-14.3
								c0.4-0.2,0.9-0.4,1.3-0.5c0.5-0.1,1.1,0.2,1.2,0.8c0.1,0.5-0.2,1.1-0.8,1.2c-0.3,0.1-0.6,0.2-0.9,0.3
								c-3.1,1.5-3.6,6.8-1.2,11.6c1.2,2.4,3,4.4,4.9,5.5c0.5,0.3,0.6,0.9,0.4,1.4C1575.5,684.7,1575.1,684.9,1574.8,684.9z"/>
							<path class="st8" d="M1676.5,680.1c-0.3,0-0.6-0.1-0.8-0.4c-0.3-0.5-0.2-1.1,0.2-1.4c1.9-1.3,3.4-3.4,4.4-5.9
								c2-5.1,1-10.2-2.2-11.5c-0.3-0.1-0.6-0.2-0.9-0.2c-0.5-0.1-0.9-0.6-0.9-1.1c0.1-0.5,0.6-0.9,1.1-0.9c0.5,0.1,0.9,0.2,1.4,0.4
								c4.2,1.6,5.8,8,3.4,14.1c-1.1,2.9-2.9,5.3-5.1,6.9C1676.9,680.1,1676.7,680.1,1676.5,680.1z"/>
							<g>
								<path class="st0" d="M1579.8,658c0,0,2.6,3.3,7.1,6.4c3,2,11.6,1.1,11.6,1.1s10,3.7,13.9,2.5c3.9-1.2,6.4-2.7,6.4-2.7
									s-1.5-1.8-4-4c-3.2-2.7-15.4-2.1-15.4-2.1s-8.5-5.3-12.3-4.2C1582.7,656.4,1579.8,658,1579.8,658z"/>
								<path class="st8" d="M1600.7,654.2c6,1.1,10.8,4.4,14,7.1c-0.2,2.4-1,4.7-2.4,6.7c-3.9,1.2-9.1,2.2-14.5,1.2
									c-4.3-0.8-8.1-2.8-11.1-4.8c-1-3.1-0.9-6.4,0.2-9.3C1590.9,654,1595.7,653.2,1600.7,654.2z"/>
							</g>
							<g>
								<path class="st0" d="M1669.7,658.6c0,0-3.1,3.8-8.1,7c-2.8,1.8-10.7-0.5-10.7-0.5s-9.4,4.6-13.1,3.4c-4.3-1.3-7.1-3-7.1-3
									s1.4-1.8,4-3.9c3.2-2.7,14.9-2.7,14.9-2.7s9.3-4.4,13.1-3.3C1666.9,656.9,1669.7,658.6,1669.7,658.6z"/>
								<path class="st8" d="M1634.6,661.6c3.2-2.7,8.2-6.1,14.2-7.1c5-0.9,9.9-0.1,13.7,1.1c0.8,2.9,0.6,6.1-0.6,9.1
									c-0.1,0.3-0.3,0.6-0.4,0.9c-2.8,1.8-6.2,3.3-10,4c-5,0.9-9.9,0.1-13.7-1.1C1636.1,666.5,1635,664.2,1634.6,661.6z"/>
							</g>
							<path class="st8" d="M1625.1,689.4c-0.1,0-0.3,0-0.4-0.1c-2.6-1.2-4.1-2.8-4.4-4.5c-0.3-1.6,0.3-2.8,1-4.1
								c0.5-0.9,1-1.9,1.3-3.1c0.5-1.9,0.5-3.9,0-6c-0.1-0.5,0.2-1.1,0.7-1.2c0.5-0.1,1.1,0.2,1.2,0.7c0.6,2.4,0.6,4.8,0,7
								c-0.4,1.5-1,2.6-1.5,3.5c-0.7,1.2-1,1.9-0.8,2.8c0.2,1.1,1.3,2.2,3.3,3.1c0.5,0.2,0.7,0.8,0.5,1.3
								C1625.8,689.2,1625.5,689.4,1625.1,689.4z"/>
							<path class="st8" d="M1630.3,698.5c-1.2,0-2.5-0.2-3.5-0.7c-0.5-0.2-0.7-0.8-0.5-1.3c0.2-0.5,0.8-0.7,1.3-0.5
								c2,0.9,4.6,0.7,6.6-0.5c1.2-0.7,2.1-1.8,2.6-3c0.2-0.5,0.8-0.8,1.3-0.5c0.5,0.2,0.8,0.8,0.5,1.3c-0.7,1.6-1.9,3-3.5,3.9
								C1633.7,698,1632,698.5,1630.3,698.5z"/>
							<path class="st8" d="M1579.2,672.8c12.2,66.7,84,71,92.2-2.2C1642.6,680.6,1611.6,680.2,1579.2,672.8z"/>
							<path class="st8" d="M1582.4,686.5c-0.4,0-0.8-0.3-0.9-0.7c-2.5-7.2-4.3-14.9-5.1-22.3c-0.1-0.5,0.3-1,0.9-1.1
								c0.6-0.1,1,0.3,1.1,0.9c0.8,7.2,2.5,14.8,5,21.8c0.2,0.5-0.1,1.1-0.6,1.3C1582.6,686.5,1582.5,686.5,1582.4,686.5z"/>
							<path class="st8" d="M1668.6,684.9c-0.1,0-0.2,0-0.3,0c-0.5-0.1-0.8-0.7-0.7-1.2c2.4-8.5,3.7-18,3.6-26.7c0-0.6,0.4-1,1-1
								c0,0,0,0,0,0c0.5,0,1,0.4,1,1c0.1,8.8-1.2,18.5-3.7,27.2C1669.4,684.6,1669,684.9,1668.6,684.9z"/>
							<path class="st8" d="M1626.1,725.9c-12.4,0-22.6-7.7-30.3-14.4c-0.4-0.4-0.5-1-0.1-1.4c0.4-0.4,1-0.5,1.4-0.1
								c7.7,6.9,18.2,14.6,30.6,13.9c12.4-0.8,21.8-9.2,29.3-17.4c0.4-0.4,1-0.4,1.4-0.1c0.4,0.4,0.4,1,0.1,1.4
								c-7.3,8-17.4,17.3-30.6,18.1C1627.3,725.9,1626.7,725.9,1626.1,725.9z"/>
						</g>
					</g>
					<path class="st8" d="M1620.8,746.5c-56.8,0-103-46.3-103-103.2s46.2-103.2,103-103.2s103,46.3,103,103.2
						S1677.6,746.5,1620.8,746.5z M1620.8,542.2c-55.7,0-101,45.4-101,101.2c0,55.8,45.3,101.2,101,101.2s101-45.4,101-101.2
						C1721.9,587.6,1676.5,542.2,1620.8,542.2z"/>
				</g>
			</g>
		</g>
		<g>
			<g>
				<g>
					<polygon class="st7" points="1173.4,1707.8 1233.4,1707.8 1239.6,1462.1 1167.2,1462.1 					"/>
					<g>
						<path class="st11" d="M1115.1,1745.7h119.6v-54.8h-64.8C1139.6,1690.9,1115.1,1715.5,1115.1,1745.7L1115.1,1745.7z"/>
						<path class="st8" d="M1170.7,1702.9c-0.3,0-0.5-0.1-0.7-0.3l-10.5-10.6c-0.4-0.4-0.4-1,0-1.4c0.4-0.4,1-0.4,1.4,0l10.5,10.6
							c0.4,0.4,0.4,1,0,1.4C1171.2,1702.8,1170.9,1702.9,1170.7,1702.9z"/>
						<path class="st8" d="M1158.7,1706.5c-0.3,0-0.5-0.1-0.7-0.3l-10.5-10.6c-0.4-0.4-0.4-1,0-1.4c0.4-0.4,1-0.4,1.4,0l10.5,10.6
							c0.4,0.4,0.4,1,0,1.4C1159.2,1706.4,1158.9,1706.5,1158.7,1706.5z"/>
					</g>
				</g>
				<g>
					<polygon class="st7" points="1313.2,1708.1 1372.1,1696.9 1342,1586.7 1332.5,1454.4 1261.3,1467.9 1276.7,1595.1 					"/>
					<g>
						<path class="st11" d="M1276.2,1771.7l112.3-41.1l-18.8-51.4l-61,22.3C1280.4,1711.8,1265.8,1743.2,1276.2,1771.7
							L1276.2,1771.7z"/>
						<path class="st8" d="M1313.4,1712.4c-0.1,0-0.3,0-0.4-0.1l-13.5-6.3c-0.5-0.2-0.7-0.8-0.5-1.3c0.2-0.5,0.8-0.7,1.3-0.5
							l13.5,6.3c0.5,0.2,0.7,0.8,0.5,1.3C1314.1,1712.1,1313.8,1712.4,1313.4,1712.4z"/>
						<path class="st8" d="M1303.4,1719.9c-0.1,0-0.3,0-0.4-0.1l-13.5-6.3c-0.5-0.2-0.7-0.8-0.5-1.3c0.2-0.5,0.8-0.7,1.3-0.5
							l13.5,6.3c0.5,0.2,0.7,0.8,0.5,1.3C1304.1,1719.6,1303.7,1719.9,1303.4,1719.9z"/>
					</g>
				</g>
			</g>
			<g>
				
					<rect x="1222" y="1112.4" transform="matrix(-1 -1.224647e-16 1.224647e-16 -1 2493.1533 2284.4631)" class="st7" width="49.2" height="59.7"/>
				<g>
					<path class="st7" d="M1288.9,1082.4c-4.7,10.2-2.9,21.1,4,24.2c6.9,3.1,16.2-2.6,20.9-12.8c4.7-10.2,2.9-21.1-4-24.2
						C1302.9,1066.5,1293.5,1072.2,1288.9,1082.4z"/>
				</g>
				<g>
					
						<ellipse transform="matrix(0.9103 -0.414 0.414 0.9103 -343.5966 590.6058)" class="st7" cx="1191" cy="1088.1" rx="13.7" ry="20.3"/>
				</g>
				<ellipse class="st8" cx="1246.6" cy="1083.6" rx="51.6" ry="60.4"/>
				<path class="st8" d="M1322.6,1162.6c4.3-6.4,4.5-15-0.2-21.7c-3-4.2-7.4-6.8-12.1-7.7c2.2-6.7,1.3-14.2-3.1-20.4
					c-3.1-4.4-7.6-7.4-12.4-8.7c6.9-14.6,11-30.5,11-43.3c0-32.7-26.5-56.7-59.2-56.7c-32.7,0-59.2,24-59.2,56.7
					c0,12.9,4.1,28.8,11.1,43.4c-4.8,1.4-9.2,4.3-12.3,8.7c-4.4,6.1-5.2,13.7-3.1,20.4c-4.7,0.8-9.1,3.5-12.1,7.7
					c-4.7,6.6-4.5,15.3-0.2,21.7c-11.1-0.6-27.3,10.5-40.1,28.3l37.2,26.5c12.6-17.9,17.7-36.9,13.5-47.2c7.4,2,15.6-0.6,20.4-7.3
					c3-4.2,4-9.2,3.3-13.9c7-0.1,13.9-3.4,18.2-9.6c0.4-0.5,0.7-1,1-1.5c6.9,5.1,14.4,8.1,22.3,8.1c7.9,0,15.5-3.1,22.4-8.2
					c0.3,0.5,0.6,1.1,1,1.6c4.4,6.1,11.2,9.5,18.2,9.6c-0.7,4.7,0.3,9.7,3.3,13.9c4.7,6.6,12.9,9.3,20.4,7.3
					c-4.2,10.3,0.9,29.3,13.5,47.2l37.2-26.5C1349.9,1173.1,1333.7,1162,1322.6,1162.6z"/>
			</g>
			<g>
				<g>
					<g>
						<g>
							<path class="st7" d="M1405.2,1280.9c-24.4,5.3-82.3,15-88,16.1c-10.5,2.2-66.6,15.4-65.6,23.7c0.5,4,11.4,1.9,15.1,1.1
								c-2.6,2.1-13.7,9.1-12,13.3c2,4.9,16.4-1.4,16.7-1.4c-2.9,1.9-14.8,8.9-13.6,12c1.5,4.1,14.5,0.9,18.3-0.2
								c-0.2,0.6-12.5,5.6-10.9,10.6c1.1,3.7,13.1,0.7,18.2-0.5c9.3-1.9,119.2-18.5,139.2-24.2
								C1430.5,1329.2,1417.2,1287,1405.2,1280.9z"/>
						</g>
						<g>
							<path class="st7" d="M1366.4,1216.1c21.6,23.1,87.6,86.1,62.3,111.7c-20.9,21.2-82.7-42.8-105.5-64.4
								C1337.6,1247.6,1352,1231.8,1366.4,1216.1z"/>
							<path class="st8" d="M1400.8,1328.2c-0.1,0-0.3,0-0.4-0.1c-12.7-6.2-28.7-18.1-48.9-36.5c-0.4-0.4-0.4-1-0.1-1.4
								c0.4-0.4,1-0.4,1.4-0.1c20,18.2,35.8,30.1,48.4,36.2c0.5,0.2,0.7,0.8,0.5,1.3C1401.5,1328,1401.2,1328.2,1400.8,1328.2z"/>
						</g>
					</g>
					<g>
						<g>
							<path class="st7" d="M1067.3,1324c2.4,5.4,7.2,6.6,12.4,9.9c23.8,15,59.2,35.9,63.2,38.4c9.2,5.6,59.2,34.3,64.1,27.5
								c2.4-3.2-7-9.2-10.3-11.1c3.4,0.3,16.2,2.7,17.8-1.5c1.9-4.9-13-10.2-13.2-10.4c3.4,0.6,16.8,3.6,18.2,0.5
								c1.7-4-9.9-10.6-13.5-12.4c0.6-0.3,13,4.4,15.2-0.3c1.7-3.5-9-9.5-13.7-12.1c-8.1-5-99.7-67.9-118.2-77.5
								c-6.2-3.2-21,25.5-22.3,41.8C1066.8,1319.6,1066.5,1322.2,1067.3,1324z"/>
						</g>
						<g>
							<path class="st7" d="M1132.2,1216.1c-21.6,23.1-87.6,86.1-62.3,111.7c20.9,21.2,82.7-42.8,105.5-64.4
								C1161,1247.6,1146.6,1231.8,1132.2,1216.1z"/>
							<path class="st8" d="M1097.8,1328.2c-0.4,0-0.7-0.2-0.9-0.6c-0.2-0.5,0-1.1,0.5-1.3c12.6-6.1,28.4-17.9,48.4-36.2
								c0.4-0.4,1-0.3,1.4,0.1s0.3,1-0.1,1.4c-20.1,18.4-36.1,30.3-48.9,36.5C1098.1,1328.2,1098,1328.2,1097.8,1328.2z"/>
						</g>
					</g>
					<path class="st0" d="M1375.9,1213.3c0,0-54.8-43.4-128.5-43.8c-81-0.5-123.8,46.6-123.8,46.6l45.3,57.5v98.6h164.1l5.4-95.2
						L1375.9,1213.3z"/>
					<g>
						<polygon class="st12" points="1136.5,1518.1 1365.8,1518.1 1333.5,1294.3 1168.8,1294.3 						"/>
						<polygon class="st12" points="1195.9,1305.4 1213.9,1314.7 1325.1,1185 1305.7,1178.1 						"/>
						<polygon class="st12" points="1229.7,1217.1 1304,1305.4 1286,1314.7 1176.9,1181.7 1194.9,1175.7 1229.7,1217.1 						"/>
					</g>
				</g>
				<g>
					<path class="st6" d="M1154,1254.6v-55.7c0-17.1,13.8-30.9,30.9-30.9h128.3c17,0,30.9,13.8,30.9,30.9v55.7v30.6v104
						c0,17.1-13.8,30.9-30.9,30.9h-128.3c-17,0-30.9-13.8-30.9-30.9v-104V1254.6z"/>
					<rect x="1177.8" y="1320.1" class="st13" width="142.4" height="65.8"/>
					<rect x="1175.4" y="1227.9" class="st13" width="142.4" height="27"/>
					<path class="st13" d="M1312.1,1218.4h-130.4c-0.6,0-1-0.4-1-1s0.4-1,1-1h130.4c0.6,0,1,0.4,1,1S1312.6,1218.4,1312.1,1218.4z"
						/>
				</g>
			</g>
			<path class="st8" d="M1322.6,1162.6c4.3-6.4,4.5-15-0.2-21.7c-3-4.2-7.4-6.8-12.1-7.7c2.2-6.7,1.3-14.2-3.1-20.4
				c-3.1-4.4-7.6-7.4-12.4-8.7c6.9-14.6,11-30.5,11-43.3c0-32.7-26.5-56.7-59.2-56.7c-32.7,0-59.2,24-59.2,56.7
				c0,12.9,4.1,28.8,11.1,43.4c-4.8,1.4-9.2,4.3-12.3,8.7c-4.4,6.1-5.2,13.7-3.1,20.4c-4.7,0.8-9.1,3.5-12.1,7.7
				c-4.7,6.6-4.5,15.3-0.2,21.7c-11.1-0.6-27.3,10.5-40.1,28.3l37.2,26.5c12.6-17.9,17.7-36.9,13.5-47.2c7.4,2,15.6-0.6,20.4-7.3
				c3-4.2,4-9.2,3.3-13.9c7-0.1,13.9-3.4,18.2-9.6c0.4-0.5,0.7-1,1-1.5c6.9,5.1,14.4,8.1,22.3,8.1c7.9,0,15.5-3.1,22.4-8.2
				c0.3,0.5,0.6,1.1,1,1.6c4.4,6.1,11.2,9.5,18.2,9.6c-0.7,4.7,0.3,9.7,3.3,13.9c4.7,6.6,12.9,9.3,20.4,7.3
				c-4.2,10.3,0.9,29.3,13.5,47.2l37.2-26.5C1349.9,1173.1,1333.7,1162,1322.6,1162.6z"/>
		</g>
		<g>
			<path class="st8" d="M1836.8,2148.2c-79.5,0-154.2-6.2-210.4-17.3c-56.7-11.3-87.9-26.5-87.9-42.8s31.2-31.5,87.9-42.8
				c56.2-11.2,130.9-17.3,210.4-17.3s154.2,6.2,210.4,17.3c56.7,11.3,87.9,26.5,87.9,42.8s-31.2,31.5-87.9,42.8
				C1991,2142,1916.3,2148.2,1836.8,2148.2z M1836.8,2030c-79.3,0-153.9,6.1-210,17.3c-54.8,10.9-86.3,25.8-86.3,40.8
				c0,15,31.4,29.9,86.3,40.8c56.1,11.1,130.7,17.3,210,17.3s153.9-6.1,210-17.3c54.8-10.9,86.3-25.8,86.3-40.8
				c0-15-31.4-29.9-86.3-40.8C1990.7,2036.1,1916.1,2030,1836.8,2030z"/>
			<g>
				<g>
					<g>
						<polygon class="st9" points="1773.4,2046.4 1848.1,2046.4 1855.8,1740.5 1765.7,1740.5 						"/>
						<g>
							<path class="st6" d="M1700.8,2093.5h148.8v-68.2h-80.7C1731.3,2025.4,1700.8,2055.9,1700.8,2093.5L1700.8,2093.5z"/>
							<path class="st8" d="M1770,2039.9c-0.3,0-0.5-0.1-0.7-0.3l-13.1-13.1c-0.4-0.4-0.4-1,0-1.4c0.4-0.4,1-0.4,1.4,0l13.1,13.1
								c0.4,0.4,0.4,1,0,1.4C1770.5,2039.8,1770.2,2039.9,1770,2039.9z"/>
							<path class="st8" d="M1755,2044.4c-0.3,0-0.5-0.1-0.7-0.3l-13.1-13.1c-0.4-0.4-0.4-1,0-1.4c0.4-0.4,1-0.4,1.4,0l13.1,13.1
								c0.4,0.4,0.4,1,0,1.4C1755.5,2044.3,1755.3,2044.4,1755,2044.4z"/>
						</g>
					</g>
					<g>
						<polygon class="st9" points="1947.4,2046.7 2020.7,2032.8 1983.2,1895.6 1971.4,1730.9 1882.8,1747.7 1902,1906.1 						"/>
						<g>
							<path class="st6" d="M1901.4,2125.8l139.8-51.1l-23.4-64l-75.9,27.8c-35.3,12.9-53.5,52-40.6,87.3L1901.4,2125.8z"/>
							<path class="st8" d="M1947.6,2051.8c-0.1,0-0.3,0-0.4-0.1l-16.8-7.8c-0.5-0.2-0.7-0.8-0.5-1.3c0.2-0.5,0.8-0.7,1.3-0.5
								l16.8,7.8c0.5,0.2,0.7,0.8,0.5,1.3C1948.4,2051.6,1948,2051.8,1947.6,2051.8z"/>
							<path class="st8" d="M1935.1,2061.1c-0.1,0-0.3,0-0.4-0.1l-16.8-7.8c-0.5-0.2-0.7-0.8-0.5-1.3c0.2-0.5,0.8-0.7,1.3-0.5
								l16.8,7.8c0.5,0.2,0.7,0.8,0.5,1.3C1935.9,2060.9,1935.5,2061.1,1935.1,2061.1z"/>
						</g>
					</g>
					<g>
						<polygon class="st12" points="1741.9,2008.3 1859.9,2008.3 1869.2,1773.6 1882.8,1903.2 1918.3,2022.3 2020.7,1993 
							1992.6,1884.5 1972.6,1628.5 1767.7,1628.5 						"/>
					</g>
					<path class="st8" d="M1870.2,1781.6c-0.5,0-0.9-0.4-1-0.8l-6.3-40c-0.1-0.5,0.3-1.1,0.8-1.1c0.5-0.1,1.1,0.3,1.1,0.8l6.3,40
						c0.1,0.5-0.3,1.1-0.8,1.1C1870.3,1781.6,1870.2,1781.6,1870.2,1781.6z"/>
				</g>
				<g>
					<path class="st14" d="M1924.2,1443.4c0,0,54.1-0.9,71.9,85c20.2,97.7-19.9,145.7-19.9,145.7l-9.6-122.5L1924.2,1443.4z"/>
					<path class="st9" d="M1986.5,1512.8C1986.5,1512.8,1986.4,1512.8,1986.5,1512.8c47.4,49.4,83.5,93.4,112.3,60.3
						c16.5-19-18-69.2-59-115.1c0,0,0,0,0,0L1986.5,1512.8z"/>
					<g>
						<path class="st9" d="M1783.8,1389.4c-68.2,63.4-139,106.9-104,140.9c20.7,20.1,89-39.1,148.8-90.8
							C1812.5,1421.9,1800,1406.9,1783.8,1389.4z"/>
						<path class="st9" d="M1653.9,1517.1c-16.6-20.9-20-23.4-46.2-70.8c-11.1-20.2-19.4-37.5-26.3-47.6
							c-1.6-3.9-21.1-24.2-15.3-28.9c4.3-3.6,18.7,12.7,23.1,16.2c-2.3-4.1-27.1-27.7-20.5-33.1c6.9-5.6,27.4,19.5,30.5,22.7
							c-0.1-0.4-27.1-33.3-21.1-39.1c5.8-5.7,27.6,22.8,33.3,28.8c-4.1-6-22.4-32.7-17.5-36.7c7.5-6.1,28.9,23.6,43,44.6
							c3.7-10.9,7.6-15.9,10.6-14.5c1.5,0.7,4.8,13.4,1.2,32.4c5.2,7.8,34.2,52.1,52.1,77.9c-1.2,21.7-2.2,42.9-3.5,64.5
							C1675.8,1537.7,1660.4,1525.2,1653.9,1517.1z"/>
						<path class="st8" d="M1627.4,1412.9c-0.3,0-0.7-0.2-0.9-0.5c-9.7-16.1,2.8-26.4,2.9-26.5c0.4-0.3,1.1-0.3,1.4,0.2
							c0.3,0.4,0.3,1.1-0.2,1.4c-0.5,0.4-11.2,9.3-2.5,23.9c0.3,0.5,0.1,1.1-0.3,1.4C1627.8,1412.8,1627.6,1412.9,1627.4,1412.9z"/>
						<path class="st8" d="M1691.7,1484.9c-0.1,0-0.2,0-0.3-0.1c-0.5-0.2-0.8-0.8-0.6-1.3l6.8-18.4c0.2-0.5,0.8-0.8,1.3-0.6
							c0.5,0.2,0.8,0.8,0.6,1.3l-6.8,18.4C1692.4,1484.6,1692.1,1484.9,1691.7,1484.9z"/>
					</g>
					<path class="st5" d="M1776.1,1539.8l-9.8,96.5l216.9-5.2l-4.7-119.1l17.4,12.1l52.9-74.8c0,0-25.5-27.4-66.5-50.7
						c-6.3-3.5-12.9-7-19.9-10.3c-18-8.4-38.1-15.4-59.8-19.1c-27.5-4.7-53.1-2.5-75.6,3c-7.8,1.9-15.2,4.2-22.1,6.7
						c-42.6,15.5-69.5,40.1-69.5,40.1l47.4,54.5l-3.2,31.7L1776.1,1539.8z"/>
					<g>
						<path class="st8" d="M1945.4,1513.6c7.2,18,24.8,34.2,41.1,43.1l-1.5-26.9l-2.4-1.9c-10.3-11-19.3-25.6-20.8-44.1
							c-2.9-34.9,12-68.8,20.6-85.2c-6.3-3.5-12.9-7-19.9-10.3C1954.5,1405.4,1927.3,1468.7,1945.4,1513.6z"/>
						<path class="st8" d="M1776.1,1539.8c10.8-7.4,20.8-16.3,28.2-26.8c30.5-43.3,25.3-117.4,22.7-140.8
							c-7.8,1.9-15.2,4.2-22.1,6.7c3.1,21.2,7.3,63-5.8,99.1c-4.3,11.9-12.5,22.4-19.9,30.3L1776.1,1539.8z"/>
					</g>
					<g>
						<path class="st9" d="M2074.8,1513.4c-27.4,15.3-93.8,48.3-100.2,51.8c-11.9,6.5-71,36.5-63.4,47.2c2.9,4.1,7.5,3.6,11.6,1.3
							c-2.4,3.5-7.6,8.6-4.1,13c4.2,5.2,13.7-0.3,14.1-0.4c-2.8,3.3-7,10.4-4.4,13.8c3.3,4.4,10.2,1.6,14.4-1.2
							c-0.1,0.9-9.1,7.4-5.4,12.8c2.7,4,12.1,0.1,17.9-3.4c10.6-5.8,110.7-52.6,132.8-66.8
							C2096.7,1575.9,2091.4,1516.4,2074.8,1513.4z"/>
						<path class="st8" d="M2012.1,1546.9c-0.4,0-0.7-0.2-0.9-0.5c-0.3-0.5-0.1-1.1,0.4-1.3c8.2-4.3,16.5-8.8,24.5-13.1
							c4-2.2,7.9-4.3,11.6-6.3c0.5-0.3,1.1-0.1,1.4,0.4c0.3,0.5,0.1,1.1-0.4,1.4c-3.7,2-7.6,4.1-11.6,6.2
							c-8.1,4.3-16.4,8.8-24.6,13.1C2012.4,1546.8,2012.2,1546.9,2012.1,1546.9z"/>
						<g>
							<path class="st8" d="M1922.4,1614.3c-0.2,0-0.5-0.1-0.7-0.2c-0.4-0.4-0.5-1-0.1-1.4c1.9-2.2,4-4.2,6.1-6.1
								c3.9-3.4,8.2-6.3,12.9-8.6c0.5-0.2,1.1,0,1.3,0.4c0.2,0.5,0,1.1-0.4,1.3c-4.5,2.3-8.7,5.1-12.5,8.3c-2.1,1.8-4.1,3.8-6,5.9
								C1922.9,1614.1,1922.7,1614.3,1922.4,1614.3z"/>
							<path class="st8" d="M1932.4,1627c-0.3,0-0.5-0.1-0.7-0.3c-0.4-0.4-0.3-1,0.1-1.4c0.4-0.4,0.9-0.8,1.4-1.2
								c3.9-3.4,8.2-6.3,12.9-8.6c0.5-0.2,1.1,0,1.3,0.4c0.2,0.5,0,1.1-0.4,1.3c-4.5,2.3-8.7,5.1-12.5,8.3c-0.5,0.4-0.9,0.8-1.3,1.2
								C1932.8,1627,1932.6,1627,1932.4,1627z"/>
							<path class="st8" d="M1943,1639.5c-0.3,0-0.6-0.1-0.8-0.4c-0.3-0.4-0.2-1.1,0.2-1.4c2.7-2,5.7-3.8,8.7-5.3
								c0.5-0.2,1.1,0,1.3,0.4c0.2,0.5,0,1.1-0.4,1.3c-2.9,1.5-5.8,3.2-8.4,5.1C1943.4,1639.4,1943.2,1639.5,1943,1639.5z"/>
						</g>
					</g>
				</g>
				<g>
					<path class="st9" d="M1891,1413L1891,1413c17.8,0.2,32.4-14.1,32.6-31.9l0.6-61.4c0.2-17.8-14.1-32.4-31.9-32.6l0,0
						c-17.8-0.2-32.4,14.1-32.6,31.9l-0.6,61.4C1858.8,1398.2,1873.1,1412.8,1891,1413z"/>
					<path class="st9" d="M1903.8,1198.4c-3.2-1.1-33.6-11.3-57.3,4.5c-17.7,11.7-24.2,30.8-30.1,64.4c-6.9,39.6-5.3,64.4,4.4,75
						c15.4,16.7,77.3,3.3,106.5-25.5c21.1-20.8,27.2-52.9,17.4-81.1C1935.1,1207.5,1905.8,1199.1,1903.8,1198.4z"/>
					<path class="st11" d="M1973.5,1244.7c-9.7-30.9-41.9-42.7-46.6-44.3c-19.9-17.6-47.5-23.5-72.4-15.1
						c-36.3,12.1-46.8,47.7-47.6,50.6c15.4,1.2,36,5.6,49.3,11.5l19.5-19.4l-10.2,24.5c9.8,6.2,21,15.7,24.7,22.8
						c1-0.7,8.9-5.2,16.3-2.7c9,3,12.9,13.2,10.3,22c-3.5,12.1-13.7,20-15.9,21.5c15.7,13.1,27.9,12.7,32.6,12.1
						C1961.9,1324.5,1984.6,1279.8,1973.5,1244.7z"/>
					<g>
						<path class="st0" d="M1874.6,1270.1c0,0-6.2,13.9-18,17.4c-11.8,3.6-24.6-4.5-24.6-4.5s1.6-3.6,4.8-7.6
							c3-3.8,16.4-0.3,16.4-0.3s6-10.4,10-9.5C1869.9,1267,1874.6,1270.1,1874.6,1270.1z"/>
						<path class="st8" d="M1850.1,1265.5c-5.8,1.7-10.2,6-13.2,9.8c0.1,0.6,0.2,1.3,0.4,1.9c2.3,7.6,10.3,11.9,18,9.6
							c7.6-2.3,11.9-10.3,9.6-18c-0.4-1.2-0.9-2.4-1.6-3.4C1859.2,1264.5,1854.5,1264.2,1850.1,1265.5z"/>
					</g>
					<path class="st8" d="M1901.4,1302.8c-0.3,0-0.6-0.1-0.8-0.4c-0.3-0.4-0.2-1.1,0.2-1.4c5.2-3.9,6.2-10.2,3.9-13.7
						c-2.1-3.1-6.5-3.2-7.3-3.3c-0.6,0-1-0.5-1-1c0-0.5,0.5-1,1-1c0,0,0,0,0,0c1,0,6.3,0.2,9,4.1c2.9,4.2,2.1,11.6-4.3,16.4
						C1901.8,1302.7,1901.6,1302.8,1901.4,1302.8z"/>
					<path class="st8" d="M1819,1294.2c-0.3,0-0.6-0.1-0.8-0.4c-2.3-2.8-3-5.2-2.4-7.2c0.5-1.4,1.5-2.2,2.5-2.9
						c0.7-0.5,1.5-1.1,2.3-2c1.4-1.6,2.3-3.6,2.8-6c0.1-0.5,0.6-0.9,1.2-0.8c0.5,0.1,0.9,0.6,0.8,1.2c-0.5,2.8-1.6,5.2-3.3,7
						c-0.9,1-1.9,1.7-2.6,2.2c-1,0.7-1.6,1.2-1.8,1.9c-0.4,1.3,0.3,3.1,2.1,5.3c0.3,0.4,0.3,1.1-0.2,1.4
						C1819.5,1294.2,1819.3,1294.2,1819,1294.2z"/>
					<path class="st8" d="M1835.7,1312.3c-2,0-4.1-0.3-6-0.9c-0.5-0.2-0.8-0.7-0.6-1.3c0.2-0.5,0.7-0.8,1.3-0.6
						c2.5,0.8,5.2,1,7.8,0.7c4.8-0.7,8.1-3.2,9.7-4.7c0.4-0.4,1-0.4,1.4,0s0.4,1,0,1.4c-1.7,1.6-5.4,4.5-10.7,5.2
						C1837.5,1312.2,1836.6,1312.3,1835.7,1312.3z"/>
					<g>
						<path class="st0" d="M1890.2,1275.3c-18.4,10.5-24.8,32.1-72.3,6.8l-8.2,9.7c-0.1,13,2.5,18,2.7,29.2
							c0.4,15.6,15.4,30.9,28,30.1c26.9-1.7,35.5-1.6,55-13.4c0,0-5.8-12.6-7.6-26.4C1885.7,1294.6,1890.2,1275.3,1890.2,1275.3z"/>
						<path class="st8" d="M1845.4,1352c-9.7,0-17.5-2.9-23.3-8.7c-9.4-9.5-13.6-26.6-12.7-52.4c0-0.6,0.5-1,1-1c0.6,0,1,0.5,1,1
							c-0.9,25.2,3.1,41.9,12.1,50.9c5.7,5.7,13.3,8.4,23.2,8.1c18.6-0.5,32.6-4.4,48.2-13.2c0.5-0.3,1.1-0.1,1.4,0.4
							c0.3,0.5,0.1,1.1-0.4,1.4c-16,9-30.2,12.9-49.2,13.5C1846.3,1352,1845.9,1352,1845.4,1352z"/>
					</g>
				</g>
			</g>
		</g>
		<g>
			<g>
				<g>
					<g>
						<polygon class="st9" points="439.6,1917.8 395.7,1867.8 423.9,1842.9 467.9,1892.8 						"/>
						<g>
							<path class="st8" d="M475.7,2018.4l-140.2-106.8l57.6-47.8l68.8,52.3C493.8,1940.6,500,1986.3,475.7,2018.4L475.7,2018.4z"/>
							<path class="st0" d="M452.1,1928c-0.5,0-0.9-0.4-1-0.9c-0.1-0.5,0.3-1.1,0.9-1.1l19.7-2.7c0.5-0.1,1.1,0.3,1.1,0.9
								c0.1,0.5-0.3,1.1-0.9,1.1l-19.7,2.7C452.1,1928,452.1,1928,452.1,1928z"/>
							<path class="st0" d="M461.9,1941.5c-0.5,0-0.9-0.4-1-0.9c-0.1-0.5,0.3-1.1,0.9-1.1l19.7-2.7c0.5-0.1,1.1,0.3,1.1,0.9
								c0.1,0.5-0.3,1.1-0.9,1.1l-19.7,2.7C462,1941.5,461.9,1941.5,461.9,1941.5z"/>
						</g>
					</g>
					<g>
						
							<rect x="712.4" y="1948.5" transform="matrix(0.9998 -1.875445e-02 1.875445e-02 0.9998 -36.7653 14.3294)" class="st9" width="66.5" height="37.7"/>
						<g>
							<path class="st8" d="M879.6,2021.3l-172.8,43.4l-1.3-75.7l84.7-21.3C829.7,1957.7,869.7,1981.7,879.6,2021.3L879.6,2021.3z"
								/>
							<path class="st0" d="M792.6,1983.2c-0.2,0-0.4,0-0.5-0.1c-0.5-0.3-0.6-0.9-0.3-1.4l10.3-17.3c0.3-0.5,0.9-0.6,1.4-0.3
								c0.5,0.3,0.6,0.9,0.3,1.4l-10.3,17.3C793.3,1983,793,1983.2,792.6,1983.2z"/>
							<path class="st0" d="M809.5,1984c-0.2,0-0.4,0-0.5-0.1c-0.5-0.3-0.6-0.9-0.3-1.4l10.3-17.3c0.3-0.5,0.9-0.6,1.4-0.3
								c0.5,0.3,0.6,0.9,0.3,1.4l-10.3,17.3C810.1,1983.8,809.8,1984,809.5,1984z"/>
						</g>
					</g>
					<g>
						<path class="st6" d="M687.4,1620.1c0,0-28.9,148.8-63,185.8c-33.2,36-146.3,97.8-146.3,97.8l-63.2-55.7l127.8-112.7l18-181.8
							L687.4,1620.1z"/>
						<path class="st6" d="M728.3,1588.1c0,0,69,134.8,76.5,184.5c7.3,48.5-15.9,180.2-15.9,180.2l-87.1,18.9l-7.6-183.6
							l-85.6-161.2L728.3,1588.1z"/>
					</g>
				</g>
				<g>
					<path class="st15" d="M613.5,1382.9c0,0-80.8-2.3-99.2,117.3c-16.2,105.1,42.9,128.2,42.9,128.2l53.4-111.1L613.5,1382.9z"/>
					<g>
						<g>
							<path class="st9" d="M743.6,1380.9c11.5,15.4,29.5,25.9,41.2,40.3c53.8,66.5,100.5,120.8,62,146.7
								c-27.7,18.7-105.7-70.1-163.3-141.4C705.6,1409.8,721.6,1397.6,743.6,1380.9z"/>
							<path class="st9" d="M795.6,1517.6c29.4-17.1,96.8-60.9,103.5-64.9c12.6-7.5,81.3-45.9,87.9-36.5c3.2,4.5-9.7,12.5-14.2,15.1
								c4.6-0.3,22.2-3.4,24.3,2.5c2.5,6.8-17.9,13.7-18.1,14c4.6-0.8,23-4.6,24.8-0.3c2.3,5.6-13.7,14.4-18.6,16.8
								c0.8,0.4,17.8-5.8,20.8,0.7c2.2,4.8-12.5,12.8-18.9,16.3c-11.2,6.7-117.9,78.5-143.5,88.4
								C833,1573.6,789.1,1534.9,795.6,1517.6z"/>
							<path class="st8" d="M806,1511c-0.3,0-0.7-0.2-0.9-0.5c-0.3-0.5-0.1-1.1,0.3-1.4c4.9-3,10.9-6.5,17.8-10.6
								c4-2.3,8.3-4.9,12.9-7.7c0.5-0.3,1.1-0.1,1.4,0.3c0.3,0.5,0.1,1.1-0.3,1.4c-4.7,2.8-9,5.3-12.9,7.7
								c-6.9,4.1-12.9,7.6-17.8,10.6C806.4,1511,806.2,1511,806,1511z"/>
							<g>
								<path class="st8" d="M957.4,1436.4c-0.3,0-0.7-0.2-0.8-0.5c-0.3-0.5-0.2-1.1,0.3-1.4c4.1-2.6,14.1-5.3,16.5-5.8
									c0.5-0.1,1.1,0.3,1.2,0.8c0.1,0.5-0.3,1.1-0.8,1.2c-2.6,0.5-12.1,3.1-15.8,5.5C957.7,1436.3,957.6,1436.4,957.4,1436.4z"/>
								<path class="st8" d="M963.1,1455.1c-0.3,0-0.7-0.2-0.8-0.5c-0.3-0.5-0.2-1.1,0.3-1.4c4.7-3,9.8-5.5,15.1-7.3
									c0.6-0.2,1.3-0.4,1.9-0.6c0.5-0.2,1.1,0.1,1.2,0.7c0.2,0.5-0.1,1.1-0.7,1.2c-0.6,0.2-1.2,0.4-1.8,0.6
									c-5.1,1.7-10.1,4.1-14.7,7C963.5,1455,963.3,1455.1,963.1,1455.1z"/>
								<path class="st8" d="M976,1469.4c-0.3,0-0.7-0.2-0.8-0.5c-0.3-0.5-0.2-1.1,0.3-1.4c3.1-2,6.4-3.7,9.7-5.2
									c0.5-0.2,1.1,0,1.3,0.5c0.2,0.5,0,1.1-0.5,1.3c-3.2,1.4-6.4,3.1-9.4,5C976.4,1469.3,976.2,1469.4,976,1469.4z"/>
								<path class="st8" d="M937,1462.4c-0.4,0-0.8-0.3-0.9-0.7c-0.2-0.5,0.1-1.1,0.6-1.3c16.3-6,24-13.1,23.3-15.9
									c-0.7-3-10.9-5.2-26-3.6c-0.6,0.1-1-0.3-1.1-0.9c-0.1-0.5,0.3-1,0.9-1.1c12.6-1.3,26.8-0.3,28.2,5.2
									c1.2,4.9-9.1,12.6-24.5,18.3C937.2,1462.4,937.1,1462.4,937,1462.4z"/>
							</g>
						</g>
					</g>
					<g>
						<path class="st9" d="M557.6,1450.9C557.6,1450.9,557.7,1450.9,557.6,1450.9c-67.1,8.9-127.8,41.7-140.4-4.5
							c-6.4-23.5,73.3-57.7,133.2-67.8c0,0,0,0,0,0L557.6,1450.9z"/>
						<g>
							<path class="st9" d="M416.9,1444.6c6.4,28.1,18.2,94.9,19.6,101.4c2.6,12.1,18.6,88.3,31.8,82.5c4.2-1.8-1.6-20.3-2.6-24.5
								c2.5,3,10.4,29.4,17.1,26.7c7.2-2.9-3.5-31.9-3.5-32.2c2.2,3.3,8.2,23.4,13.7,22c6.8-1.8,1.2-23.1-0.1-27.6
								c0.7,0.3,5.1,15.9,10.8,14c4.2-1.4,2.3-16.6,0.7-22.6c-2.3-10.8-22-114.8-23.2-144.5C480.9,1430.4,425.7,1432.5,416.9,1444.6
								z"/>
							<g>
								<path class="st8" d="M479.1,1599.7c-0.4,0-0.7-0.2-0.9-0.6c-0.2-0.5-0.5-1-0.7-1.5c-2-4.3-3.4-8.9-4.2-13.6
									c-0.1-0.5,0.3-1.1,0.8-1.2c0.6-0.1,1.1,0.3,1.2,0.8c0.8,4.5,2.2,8.9,4.1,13.1c0.2,0.5,0.5,1,0.7,1.5c0.2,0.5,0,1.1-0.5,1.3
									C479.3,1599.7,479.2,1599.7,479.1,1599.7z"/>
								<path class="st8" d="M492.7,1593.6c-0.4,0-0.8-0.3-0.9-0.7c-1-2.9-1.8-5.9-2.4-9c-0.1-0.5,0.3-1.1,0.8-1.2
									c0.5-0.1,1.1,0.3,1.2,0.8c0.5,3,1.3,5.9,2.3,8.7c0.2,0.5-0.1,1.1-0.6,1.3C492.9,1593.5,492.8,1593.6,492.7,1593.6z"/>
								<path class="st8" d="M465.3,1605.2c-0.3,0-0.7-0.2-0.8-0.5c-1.4-2.2-2.7-4.6-3.8-7c-2-4.3-3.4-8.9-4.2-13.6
									c-0.1-0.5,0.3-1.1,0.8-1.2c0.5-0.1,1.1,0.3,1.2,0.8c0.8,4.5,2.2,8.9,4.1,13.1c1,2.3,2.3,4.6,3.6,6.7
									c0.3,0.5,0.2,1.1-0.3,1.4C465.6,1605.1,465.5,1605.2,465.3,1605.2z"/>
							</g>
							<path class="st8" d="M484.8,1466.4c-0.5,0-0.9-0.4-1-0.9c-1.1-7.4-1.4-11.3-2.1-23.8c0-0.6,0.4-1,0.9-1.1
								c0.6,0,1,0.4,1.1,0.9c0.7,12.4,1,16.3,2.1,23.6c0.1,0.5-0.3,1.1-0.8,1.1C484.9,1466.4,484.8,1466.4,484.8,1466.4z"/>
						</g>
					</g>
					<path class="st0" d="M494.3,1381.4c65.3-19.3,105.6-35.2,189.4-23.6c72.1,10,112,54.1,143.7,106.4
						c-22,13.2-59.7,30.2-69.7,35.4c1.9,37.1,12,125.3,12.9,149.9c-39.5-1.4-235.8-20.2-235.8-20.2l18.8-160l-36.4,1.8
						C517.1,1471.1,510.3,1424.3,494.3,1381.4z"/>
					<g>
						<path class="st12" d="M746.9,1378.1c0,0-1.7,19.7,0.6,53.5c1.4,20.4,12.6,83.3,12.6,83.3s-30.3-26.3-39.1-148.1
							c0,0,12,3.9,17.7,6.5C743.4,1375.4,746.9,1378.1,746.9,1378.1z"/>
						<path class="st12" d="M568.4,1359.6l24-4.5c0,0,41.1,78.8,19.6,132.1c-16.4,40.8-76.9,71.4-76.9,71.4l3.7-31.4
							c0,0,52.5-23,56.4-70.4C599.4,1407.2,568.4,1359.6,568.4,1359.6z"/>
					</g>
				</g>
				<g>
					<path class="st9" d="M658,1398.3L658,1398.3c-15.2-1.9-26-15.7-24.1-30.9l6.5-52.3c1.9-15.2,15.7-26,30.9-24.1l0,0
						c15.2,1.9,26,15.7,24.1,30.9l-6.5,52.3C687,1389.4,673.2,1400.1,658,1398.3z"/>
					<path class="st9" d="M671.6,1214.1c2.8-0.6,29.9-5.8,48.3,10.4c13.7,12,17.1,29,18.2,58.3c1.4,34.5-3.9,52.1-14.8,58.3
						c-16.9,9.7-63.8-1-85.4-28.9c-15.6-20.1-17.1-48.1-5.6-71C643.9,1218.3,669.8,1214.5,671.6,1214.1z"/>
					<path class="st8" d="M692.2,1345.3c-0.1,0-0.2,0-0.3,0c-10.3-3.1-20.8-7.9-30.4-14c-0.5-0.3-0.6-0.9-0.3-1.4
						c0.3-0.5,0.9-0.6,1.4-0.3c9.4,6,19.8,10.7,29.9,13.7c0.5,0.2,0.8,0.7,0.7,1.2C693,1345,692.6,1345.3,692.2,1345.3z"/>
					<path class="st8" d="M658.9,1300.9c-0.3,0-0.5-0.1-0.7-0.3c-4.9-4.9-4.8-11.4-1.8-14.6c2.8-3,7.3-2.6,8.2-2.5
						c0.5,0.1,0.9,0.6,0.9,1.1c-0.1,0.5-0.6,0.9-1.1,0.9c-0.7-0.1-4.4-0.4-6.5,1.9c-2.4,2.6-2.2,8,1.7,11.9c0.4,0.4,0.4,1,0,1.4
						C659.5,1300.8,659.2,1300.9,658.9,1300.9z"/>
					<path class="st8" d="M734.2,1305.8c-0.3,0-0.5-0.1-0.7-0.3c-0.4-0.4-0.4-1,0-1.4c1.2-1.1,2.6-2.8,2.3-4.2
						c-0.1-0.6-0.5-1-1.3-1.8c-0.6-0.5-1.3-1.2-2-2.2c-1.2-1.8-1.9-3.9-2-6.4c0-0.6,0.4-1,1-1c0.6,0,1,0.4,1,1
						c0.1,2.1,0.6,3.9,1.6,5.4c0.6,0.8,1.1,1.4,1.7,1.9c0.8,0.8,1.6,1.6,1.9,2.9c0.3,1.8-0.6,3.8-2.9,6
						C734.7,1305.7,734.4,1305.8,734.2,1305.8z"/>
					<path class="st8" d="M715.3,1324.5c-0.1,0-0.2,0-0.3,0c-1.7-0.4-4.9-1.7-7.1-4.7c-2.2-3.1-2.6-7.3-1.9-9.6
						c0.4-1.3,1-1.8,1.5-1.9c1.3-0.5,2.3,0.5,3.3,1.6c1.2,1.3,2.8,3,5.5,3.7c2.1,0.6,4.4,0.7,6.7,0.3c0.5-0.1,1.1,0.3,1.2,0.8
						c0.1,0.5-0.3,1.1-0.8,1.2c-2.5,0.5-5.1,0.3-7.5-0.4c-3.2-0.9-5.1-2.9-6.4-4.3c-0.4-0.4-0.9-0.9-1.1-1.1c-0.1,0.1-0.3,0.4-0.4,1
						c-0.4,1.9,0.1,5.1,1.8,7.4c1.8,2.5,4.5,3.6,5.9,3.9c0.5,0.1,0.9,0.7,0.7,1.2C716.1,1324.2,715.7,1324.5,715.3,1324.5z"/>
					<path class="st8" d="M744.1,1190.8c-4.7-0.7-9.8-1.5-15-2.2c0,3.2-0.9,7.1-3.6,10.7c-6.2,8.2-16.4,7.1-16.8,7
						c1.2-0.8,7.3-4.9,8.9-13c0.5-2.3,0.4-4.4,0.2-6.3c-8-1.2-15.9-2.3-22.9-3.4c-0.8,2.7-2.4,6.5-5.8,9.3c-7.9,6.7-18.3,3.1-29,3.9
						c-12.4,1-27,10.3-27.6,29c-7.1,3-19.4,12.7-21.3,34.5c-3,34.7,25.7,57.6,28.3,59.7c3-2,7.3-6.7,14-13.7c-0.7-0.6-1.4-1.2-2-1.8
						c-7.2-7.5-7.8-18.6-1.4-24.8c5.3-5.1,13.8-5.2,20.7-0.9c1.1-3.3,2-6.7,2.6-10.4c1.1-6.9,1-13.3,0.2-18.8
						c30.4,3.6,58.9-9.5,67.4-30.2C745.7,1208.4,746,1197.9,744.1,1190.8z"/>
					<g>
						<path class="st0" d="M689.9,1277c0,0,4.8,10.9,13.9,13.8c9.2,2.9,19.3-3.3,19.3-3.3s-1.2-2.8-3.6-6c-2.3-3-11.5,3.8-11.5,3.8
							s-6-12.5-9.1-11.8C693.8,1274.6,689.9,1277,689.9,1277z"/>
						<path class="st8" d="M719.1,1282.9c0.2-0.5,0.3-1,0.3-1.5c-2.3-3-5.8-6.4-10.3-7.8c-3.5-1.1-7.2-0.9-10.3-0.2
							c-0.5,0.8-1,1.7-1.3,2.7c-1.9,6,1.4,12.3,7.4,14.2C711,1292.2,717.3,1288.9,719.1,1282.9z"/>
					</g>
					<g>
						<path class="st0" d="M671.8,1277.4c14.6,11.4,17.4,31,61.7,15.1l5.9,5.8c-1.6,11.2-4.4,19-6.1,28.6
							c-2.3,13.4-17.3,24.8-28.1,22.5c-23.1-4.9-30.5-5.9-45.9-18.7c0,0,6.6-10.2,9.9-21.9C673.2,1294.8,671.8,1277.4,671.8,1277.4z
							"/>
						<path class="st8" d="M705.1,1350.1c-1.8,0-3.6-0.2-5.5-0.5c-16.4-2.9-28.2-8.1-40.9-18c-0.4-0.3-0.5-1-0.2-1.4
							c0.3-0.4,1-0.5,1.4-0.2c12.4,9.7,24,14.8,40,17.6c7.6,1.3,14.3-0.2,19.9-4.5c10-7.6,16.6-23.5,18.6-44.9
							c0.1-0.5,0.5-1,1.1-0.9c0.5,0.1,1,0.5,0.9,1.1c-2.1,21.9-8.9,38.3-19.3,46.3C716.4,1348.3,711,1350.1,705.1,1350.1z"/>
					</g>
				</g>
			</g>
			<path class="st8" d="M659.3,2114.1c-79.5,0-154.2-6.2-210.4-17.3c-56.7-11.3-87.9-26.5-87.9-42.8s31.2-31.5,87.9-42.8
				c56.2-11.2,130.9-17.3,210.4-17.3c79.5,0,154.2,6.2,210.4,17.3c56.7,11.3,87.9,26.5,87.9,42.8s-31.2,31.5-87.9,42.8
				C813.4,2107.9,738.7,2114.1,659.3,2114.1z M659.3,1995.9c-79.3,0-153.9,6.1-210,17.3c-54.8,10.9-86.3,25.8-86.3,40.8
				s31.4,29.9,86.3,40.8c56.1,11.1,130.7,17.3,210,17.3c79.3,0,153.9-6.1,210-17.3c54.8-10.9,86.3-25.8,86.3-40.8
				s-31.4-29.9-86.3-40.8C813.2,2002,738.6,1995.9,659.3,1995.9z"/>
		</g>
		<g>
			<ellipse class="st5" cx="670.7" cy="644.1" rx="233.2" ry="233.5"/>
			<ellipse class="st1" cx="671.2" cy="645.5" rx="185.6" ry="185.8"/>
			<g>
				<ellipse class="st8" cx="666.3" cy="641.8" rx="77.9" ry="78"/>
				<ellipse class="st0" cx="666.3" cy="641.8" rx="65.8" ry="65.9"/>
				<ellipse class="st2" cx="666.3" cy="641.8" rx="55.9" ry="56"/>
				<ellipse class="st8" cx="666.3" cy="641.8" rx="38.9" ry="39"/>
				
					<ellipse transform="matrix(1 -1.137260e-03 1.137260e-03 1 -0.7845 0.8933)" class="st8" cx="785.1" cy="690.3" rx="24.4" ry="24.4"/>
				<ellipse class="st8" cx="813.8" cy="608.5" rx="17.3" ry="17.3"/>
				<ellipse class="st8" cx="778.6" cy="543.5" rx="17.3" ry="17.3"/>
				<ellipse class="st8" cx="666" cy="781.3" rx="17.3" ry="17.3"/>
				
					<ellipse transform="matrix(1 -1.065944e-03 1.065944e-03 1 -0.7666 0.5933)" class="st8" cx="556.2" cy="719.4" rx="23.8" ry="23.8"/>
				
					<ellipse transform="matrix(1 -1.148753e-03 1.148753e-03 1 -0.7417 0.6326)" class="st8" cx="550.3" cy="646" rx="17.3" ry="17.3"/>
				<ellipse class="st8" cx="581.4" cy="551.7" rx="25.7" ry="25.7"/>
				
					<ellipse transform="matrix(1.033563e-03 -1 1 1.033563e-03 148.6554 1201.7419)" class="st8" cx="675.8" cy="526.5" rx="17.3" ry="17.3"/>
				<path class="st8" d="M785.1,691.3c-0.1,0-0.2,0-0.3-0.1l-52.5-18c-0.5-0.2-0.8-0.7-0.6-1.3c0.2-0.5,0.7-0.8,1.3-0.6l52.5,18
					c0.5,0.2,0.8,0.7,0.6,1.3C785.9,691,785.5,691.3,785.1,691.3z"/>
				<path class="st8" d="M735.3,622.8c-0.5,0-0.9-0.3-1-0.8c-0.1-0.5,0.2-1.1,0.8-1.2l73.6-16c0.5-0.1,1.1,0.2,1.2,0.8
					c0.1,0.5-0.2,1.1-0.8,1.2l-73.6,16C735.4,622.8,735.4,622.8,735.3,622.8z"/>
				<path class="st8" d="M716,589.9c-0.3,0-0.6-0.1-0.8-0.4c-0.3-0.4-0.2-1.1,0.2-1.4l62.6-45.5c0.4-0.3,1.1-0.2,1.4,0.2
					c0.3,0.4,0.2,1.1-0.2,1.4l-62.6,45.5C716.4,589.9,716.2,589.9,716,589.9z"/>
				<path class="st8" d="M675.2,570.2C675.2,570.2,675.2,570.2,675.2,570.2c-0.6,0-1-0.5-1-1l0.6-42.7c0-0.6,0.5-1,1-1
					c0.6,0,1,0.5,1,1l-0.6,42.7C676.2,569.7,675.7,570.2,675.2,570.2z"/>
				<path class="st8" d="M613.7,592.5c-0.3,0-0.5-0.1-0.7-0.3l-36.9-38.6c-0.4-0.4-0.4-1,0-1.4c0.4-0.4,1-0.4,1.4,0l36.9,38.6
					c0.4,0.4,0.4,1,0,1.4C614.2,592.4,614,592.5,613.7,592.5z"/>
				<path class="st8" d="M549.7,643.8c-0.5,0-0.9-0.4-1-0.9c-0.1-0.5,0.3-1,0.9-1.1l42.5-4.8c0.6-0.1,1,0.3,1.1,0.9
					c0.1,0.5-0.3,1-0.9,1.1l-42.5,4.8C549.8,643.8,549.8,643.8,549.7,643.8z"/>
				<path class="st8" d="M564.4,714.7c-0.3,0-0.6-0.1-0.8-0.4c-0.3-0.4-0.3-1.1,0.2-1.4l41.7-32.2c0.4-0.3,1.1-0.3,1.4,0.2
					c0.3,0.4,0.3,1.1-0.2,1.4l-41.7,32.2C564.9,714.6,564.7,714.7,564.4,714.7z"/>
				<path class="st8" d="M666,782.3L666,782.3c-0.6,0-1-0.4-1-1l0.1-66.6c0-0.6,0.4-1,1-1h0c0.6,0,1,0.4,1,1l-0.1,66.6
					C667,781.8,666.6,782.3,666,782.3z"/>
			</g>
			<polygon class="st5" points="587.9,819.5 557.6,802 769.4,434.6 799.7,452.1 			"/>
			<path class="st0" d="M658.6,878.6c-62.6,0-121.4-24.4-165.6-68.7c-44.2-44.3-68.6-103.2-68.6-165.8s24.4-121.5,68.6-165.8
				c44.2-44.3,103.1-68.7,165.6-68.7s121.4,24.4,165.6,68.7c44.2,44.3,68.6,103.2,68.6,165.8s-24.4,121.5-68.6,165.8
				C780,854.2,721.2,878.6,658.6,878.6z M658.6,411.5c-128.1,0-232.2,104.3-232.2,232.5s104.2,232.5,232.2,232.5
				s232.2-104.3,232.2-232.5S786.7,411.5,658.6,411.5z"/>
		</g>
	</g>
</g>
</svg>
