<?xml version="1.0" encoding="utf-8"?>
<!-- Generator: Adobe Illustrator 24.2.1, SVG Export Plug-In . SVG Version: 6.00 Build 0)  -->
<svg version="1.1" id="Layer_1" xmlns="http://www.w3.org/2000/svg" xmlns:xlink="http://www.w3.org/1999/xlink" x="0px" y="0px"
	 viewBox="0 0 1320 990" style="enable-background:new 0 0 1320 990;" xml:space="preserve">
<style type="text/css">
	.st0{fill:#8EFCFF;}
	.st1{fill:#FFFFFF;}
	.st2{fill:#FFF239;}
	.st3{fill:#48BBD7;}
	.st4{fill:#3C95B1;}
	.st5{fill:#C4C424;}
	.st6{fill:#00D3D0;}
	.st7{fill:#B0FFFA;}
	.st8{fill:url(#SVGID_1_);}
	.st9{fill:#2241CD;}
	.st10{fill:#FFC53A;}
	.st11{fill:#FF940F;}
	.st12{fill:#8D9800;}
	.st13{fill:#AEB200;}
	.st14{fill:#7F8200;}
	.st15{fill:#A63F40;}
	.st16{fill:#882E33;}
	.st17{fill:#C6C600;}
	.st18{fill:#EBC5BA;}
	.st19{fill:#B48F86;}
	.st20{fill:#FF2222;}
	.st21{fill:url(#SVGID_2_);}
	.st22{fill:#762200;}
	.st23{fill:url(#SVGID_3_);}
	.st24{fill:url(#SVGID_4_);}
	.st25{fill:url(#SVGID_5_);}
	.st26{fill:url(#SVGID_6_);}
	.st27{fill:url(#SVGID_7_);}
	.st28{fill:url(#SVGID_8_);}
	.st29{fill:url(#SVGID_9_);}
	.st30{fill:url(#SVGID_10_);}
	.st31{opacity:0.5;fill:#6C8C8C;}
	.st32{fill:url(#SVGID_11_);}
	.st33{fill:url(#SVGID_12_);}
	.st34{fill:url(#SVGID_13_);}
	.st35{fill:url(#SVGID_14_);}
	.st36{fill:url(#SVGID_15_);}
	.st37{fill:url(#SVGID_16_);}
	.st38{fill:url(#SVGID_17_);}
	.st39{fill:url(#SVGID_18_);}
	.st40{fill:url(#SVGID_19_);}
	.st41{fill:url(#SVGID_20_);}
	.st42{fill:url(#SVGID_21_);}
	.st43{opacity:0.4;fill:#584F3F;}
	.st44{fill:#63575D;}
	.st45{fill:#00ED8F;}
	.st46{fill:#00B26F;}
	.st47{fill:#472A35;}
</style>
<g>
	<g>
		<g>
			<path class="st0" d="M43.6,652c0.1,22.8,1.1,45.4,3,67.2c0.5,5.5,1,10.9,1.6,16.3c0.8,7.1,1.9,15.3,3.3,24.2
				c0.8,5.1,1.7,10.4,2.6,15.9c3.6,20.6,8.5,44,14.5,68c2.5,9.8,5.1,19.6,8,29.4c2.5,8.4,5,16.8,7.8,25h1009.5
				c3.2-4.2,7.4-15.7,11.6-28.3c2.5-7.4,4.9-15.3,7.2-22.3c0.9-2.8,1.7-5.4,2.5-7.8c1.5-4.7,3-9.3,4.5-13.8
				c9.6-29.7,17.9-57.5,24.9-83.5c1.1-3.9,2.1-7.8,3.1-11.7c5.6-21.6,10.4-42,14.4-61.2c100-484.3-318.8-226.8-407.5-343.6
				c-53.3-70.1-100.1-137.5-176.9-200.5c-81.6-67-194.3-51.6-277.2-3.8c-85.1,49-140.8,126-195.4,230.8
				C62.7,433.5,43.1,545.9,43.6,652z"/>
			<path class="st1" d="M807.2,581.9H581.2c-9-9.3,13-22.6,28.3-9.4c-2.5-19.5,20.7-24.7,25.3-5.3c19.3-29.7,37.2-26.7,59.2-4.9
				c3.7-15.7,19-13.8,28.7-4.9c6.1-11.4,21.1-15.3,27.7-2.3c12.1-24.1,45.6-4.1,27.5,12.7c8.6-2.8,29.4-10.1,35.1,1.2
				C816.1,574.9,812.7,579.2,807.2,581.9z"/>
			<path class="st1" d="M335.9,526.3H-34.4c-14.7-15.3,21.2-37,46.4-15.4c-4-32,34-40.5,41.5-8.7c31.5-48.7,61-43.7,96.9-8
				c6-25.8,31.1-22.5,46.9-7.9c10-18.7,34.6-25,45.4-3.7c19.8-39.4,74.7-6.8,45.1,20.8c14.1-4.6,48.1-16.6,57.6,2
				C350.3,515,344.9,522,335.9,526.3z"/>
			<g>
				
					<ellipse transform="matrix(0.9871 -0.1602 0.1602 0.9871 -28.4468 73.7077)" class="st2" cx="443" cy="213.3" rx="72.9" ry="72.9"/>
				<path class="st1" d="M438.9,236.1H212.8c-9-9.3,13-22.6,28.3-9.4c-2.5-19.5,20.7-24.7,25.3-5.3c19.3-29.7,37.2-26.7,59.2-4.9
					c3.7-15.7,19-13.8,28.7-4.9c6.1-11.4,21.1-15.3,27.7-2.3c12.1-24.1,45.6-4.1,27.5,12.7c8.6-2.8,29.4-10.1,35.1,1.2
					C447.7,229.2,444.4,233.4,438.9,236.1z"/>
				<path class="st1" d="M631.4,302.5h-287c-11.4-11.9,16.5-28.7,36-11.9c-3.1-24.8,26.3-31.4,32.2-6.8
					c24.4-37.7,47.3-33.8,75.1-6.2c4.7-20,24.1-17.5,36.4-6.2c7.8-14.5,26.8-19.4,35.2-2.9c15.3-30.6,57.9-5.2,34.9,16.1
					c10.9-3.6,37.3-12.8,44.6,1.5C642.6,293.7,638.4,299.1,631.4,302.5z"/>
			</g>
		</g>
		<g>
			<path class="st3" d="M751.1,695.3l393.5,46.8c1.1-3.9,2.1-7.8,3.1-11.7c5.6-21.6,10.4-42,14.4-61.2l-30.8-18.3
				c-18.1,6.1-33.7,13.4-51.2,13.1c-17.8-0.3-34.3-2.2-52.5,1.5c-19.4,4-28,11.1-48.6,2.7c-20-8.2-27.2-13.5-48.6-9
				c-38.1,7.9-74.3,14.8-111.9,6.5C786.2,658.5,775.1,673.7,751.1,695.3z"/>
			<g>
				<path class="st4" d="M43.6,652c0,12.5,0.4,25,1,37.3c0.5,10.1,1.2,20.1,2,30c0.5,5.5,1,10.9,1.6,16.3c0.3,3,0.7,6.1,1.1,9.5
					c0.6,4.6,1.3,9.5,2.1,14.7c10.2-1,20.4-2.2,29.8-3.6c55.6-8.1,110.8-11.9,166.4-19.1c112.5-14.5,225.1-40.3,338.3-44.3
					c-1.2-2.4-2.6-4.5-4.4-6.5c-20.2-22.4-74.9-13.4-99.4-22.1c-1.2-0.4-2.4-0.9-3.5-1.4c-17.6-7.4-32.7-22.1-50.9-27.2
					c-18.3-5.1-32.2,2.7-50.8,7.4c-15,3.7-37.1,10.8-52.3,9.6c-15-1.2-28.9-16.3-44.4-16.9c-32.6-1.3-45.1,31.6-82.9,12.6
					C171.1,635,137.1,611,108.8,615C97.6,616.6,66.3,636.6,43.6,652z"/>
				<path class="st5" d="M44.6,689.3c0.5,10.1,1.2,20.1,2,30c0.5,5.5,1,10.9,1.6,16.3c0.3,3,0.7,6.1,1.1,9.5
					c19.3-2.9,38.6-6.4,57.3-9c79.5-11.1,159.2-29.9,240.4-34.4c50.9-2.8,102.5-2.8,152.6-10c23.6-3.4,54.9-1.4,82-5.2
					c12.4-1.8,23.9-4.7,33.4-10c-39.5-14.6-91.2-16.5-134.6-18.8c-5.2-0.3-11.9,4.6-16.7,3.9c-33.9-5.1-69.3,0.1-103.6,2.2
					c-34.6,2.1-70.4,2.2-105.6,2.2C184.1,665.7,114.3,683.2,44.6,689.3z"/>
			</g>
			<path class="st6" d="M46.6,719.2c0.5,5.5,1,10.9,1.6,16.3c1.2,11.2,3.2,24.8,5.9,40.1c3.6,20.6,8.5,44,14.5,68
				c2.5,9.8,5.1,19.6,8,29.4c2.5,8.4,5,16.8,7.8,25h1009.5c3.2-4.2,7.4-15.7,11.6-28.3c2.5-7.4,4.9-15.3,7.2-22.3
				c0.9-2.8,1.7-5.4,2.5-7.8c1.5-4.7,3-9.3,4.5-13.8c11-34.2,20.3-65.8,28-95.3c-166.4-34.2-365.7-54.1-579.8-54.1
				C378.3,676.3,200.4,691.9,46.6,719.2z"/>
			<path class="st7" d="M2.5,856.6c8.1,14.6,24.4,15.7,43.4,16.2c10.2,0.3,20.5,0.3,30.8,0.2c51.4-0.7,103.6-6,154.7-8.2
				c107.5-4.5,215.7-2.8,323.2-2.6c115.9,0.2,400.4-5.3,550.9,7.4c17.7,1.5,33.5,3.2,47,5.3l-3.1-19.9c-10.2-2.7-22.4-5.2-36.7-7.7
				c0.9-2.8,1.7-5.4,2.5-7.8c1.5-4.7,3-9.3,4.5-13.8c-24.5-11.3-48.9-27.4-73.4-21c-14.9,3.9-25.6,12.7-41.7,13.2
				c-17.2,0.6-32.7-6.9-48.6-10.1c-17.2-3.4-33-1.1-50.7-0.5c-20.6,0.8-32.4-5.7-50.8-12.7c-30.7-11.6-65.5-13.9-99.3-18.9
				c-37.4-5.6-67.1-9.8-105.1-1.8c-32.6,6.9-64.1,12.9-99.8,8c-37.9-5.2-61.8-3.9-97.2,6.3c-32.6,9.4-65.9-2-99.3-2.1
				c-32.5-0.1-63.3,15.2-97.2,16.9c-35.4,1.7-72.2-0.1-105.6-8.4c-25.6-6.4-64.4-17.9-96.9-19.1c3.6,20.6,8.5,44,14.5,68
				C40.8,847.6,18.4,852,2.5,856.6z"/>
		</g>
	</g>
	
		<linearGradient id="SVGID_1_" gradientUnits="userSpaceOnUse" x1="4104.9556" y1="726.816" x2="4104.9556" y2="715.9113" gradientTransform="matrix(1 0 0 1 -3392.6113 0)">
		<stop  offset="0" style="stop-color:#DA7900"/>
		<stop  offset="0.2725" style="stop-color:#E2912D"/>
		<stop  offset="0.8871" style="stop-color:#F4CC9E"/>
		<stop  offset="1" style="stop-color:#F8D7B3"/>
	</linearGradient>
	<path class="st8" d="M707.9,715.3c0,0,1.7,0.6,2.9,2.4c1.2,1.8,4.5,6.2,3.9,8.6c0,0,0.3,0.1,1-1.4c0.7-1.5,1.5-3.4,0.8-5.6
		c-0.7-2.2-2.1-3.2-3.7-3.6C711.2,715.4,707.9,715.3,707.9,715.3z"/>
	<path class="st9" d="M401.2,802.8c0,0,12.9,1.5,26.9-8.2c0,0,6.9-6.9,6.8-7.9c-0.1-1-1-1.6-2.3-1.5c-1.3,0.1-1.1,0.2-2.2,0
		c-1.1-0.2-1.4,0.3-2.3,0c-1-0.3-2.2-0.4-2.9-0.1c-0.6,0.3-1.7-0.1-2.2-0.2c-0.6-0.1-8.5-0.3-12.6-0.5c-4.1-0.3-6-0.8-9.2,0
		c-3.1,0.8-4.2-0.2-5.8,0c-1.6,0.2-3.4-0.2-4.6,0c-1.1,0.2-20.4-0.2-20.4-0.2l-5.6,7.3C364.9,791.4,380.4,800,401.2,802.8z"/>
	<path class="st10" d="M210.1,888.4c4,0.2,5.7,2.4,9.8,2c4.1-0.4,6.3-2.6,10.6-1.3c3.5,1.1,4.6,4.5,7.6,5.8c3.6,1.6,5.4-0.3,9.3-0.2
		c7.4,0.1,13.9,10.5,6.3,10.6l-57.7-2.8C198.3,896.1,201.6,888,210.1,888.4z"/>
	<path class="st10" d="M434.4,865.1c3.2,0,4.6,1.6,7.9,1.2c3.3-0.5,4.9-2.3,8.3-1.4c2.8,0.7,3.8,3.4,6.2,4.3
		c2.9,1.1,4.3-0.4,7.4-0.5c5.9-0.2,11.4,7.8,5.4,8.1l-45.8,0C425.3,871.6,427.6,865.1,434.4,865.1z"/>
	<g>
		<g>
			<path class="st11" d="M-25.8,873.4c0,29,241.9,52.8,550.3,55.3c1.3,0,2.6,0,4,0c11.9,0.1,23.9,0.1,35.9,0.2c3,0,6,0,9.1,0
				c3,0,6,0,9.1,0c2.9,0,5.8,0,8.6,0c245-0.5,454.2-14.3,544.5-33.9c30.6-6.6,47.5-14,47.5-21.6c0-4.5-5.7-8.8-16.5-13
				c-4.8-1.8-10.6-3.6-17.4-5.4c-10.2-2.7-22.4-5.2-36.7-7.7c-75-12.9-204.1-22.8-359.6-27.1c-1.6,0-3.3-0.1-4.9-0.1
				c-0.9,0-1.9,0-2.8-0.1c-0.7,0-1.4,0-2-0.1c-12.2-0.3-24.5-0.6-37-0.8c-1.5,0-3.1-0.1-4.6-0.1h0c-0.8,0-1.5,0-2.3,0
				c-0.9,0-1.8,0-2.8,0c-4.5-0.1-9.1-0.2-13.7-0.2c-1.4,0-2.9,0-4.3-0.1c-1,0-2,0-3-0.1h0c-2.5,0-4.9-0.1-7.4-0.1
				c-1.4,0-2.7,0-4.1-0.1c-1.5,0-2.9,0-4.4-0.1c-0.7,0-1.4,0-2.2,0c-0.9,0-1.7,0-2.6,0c-17.7-0.2-35.6-0.3-53.7-0.4
				c-1.4,0-2.8,0-4.2,0c-0.2,0-0.4,0-0.6,0h-2.5c-0.7,0-1.3,0-2,0c-4.4,0-8.7,0-13.1,0c-1.9,0-3.8,0-5.7,0c-0.6,0-1.2,0-1.8,0h-4.8
				c-1,0-2,0-3,0c-2.6,0-5.2,0-7.7,0c-1.7,0-3.3,0-5,0c-0.5,0-1.1,0-1.6,0c-2.3,0-4.5,0-6.8,0h0c-2.5,0-4.9,0-7.3,0
				c-1.7,0-3.3,0-5,0c-0.5,0-1.1,0-1.6,0c-0.8,0-1.5,0-2.3,0h0c-1.3,0-2.6,0-3.9,0c-8,0.1-16,0.1-24,0.2
				c-25.1,0.3-49.7,0.8-73.7,1.3c-0.8,0-1.6,0-2.4,0.1c-0.5,0-1,0-1.4,0c-1.7,0-3.3,0.1-5,0.1c-4.8,0.1-9.6,0.3-14.4,0.4h0
				c-2.4,0.1-4.8,0.1-7.2,0.2c-0.5,0-1,0-1.5,0c-1.5,0-3,0.1-4.6,0.1c-0.2,0-0.4,0-0.6,0c-0.8,0-1.7,0-2.5,0.1c-0.4,0-0.9,0-1.3,0
				c-1.7,0-3.4,0.1-5.1,0.2c-4.4,0.1-8.8,0.3-13.1,0.4c-3.1,0.1-6.3,0.2-9.4,0.3h0c-0.6,0-1.2,0-1.8,0.1c-0.9,0-1.8,0.1-2.6,0.1
				c-1.6,0.1-3.3,0.1-4.9,0.2c-1.7,0.1-3.4,0.1-5,0.2c-15.1,0.6-29.9,1.2-44.4,1.9c-0.9,0-1.8,0.1-2.6,0.1c-0.7,0-1.3,0.1-2,0.1
				c-1.5,0.1-3,0.1-4.4,0.2c-6.5,0.3-12.9,0.7-19.3,1c-2.6,0.1-5.2,0.3-7.7,0.4c-1.1,0.1-2.3,0.1-3.4,0.2h0c-0.8,0-1.6,0.1-2.4,0.1
				h0c-0.5,0-1,0.1-1.5,0.1c-0.3,0-0.5,0-0.8,0c-0.4,0-0.8,0.1-1.3,0.1c-1.5,0.1-3,0.2-4.5,0.3c-15.4,0.9-30.3,1.9-44.7,3
				c-0.6,0-1.2,0.1-1.8,0.1c-1,0.1-2.1,0.2-3.1,0.2c-1.7,0.1-3.3,0.3-5,0.4c-48.3,3.7-90.2,8-124,12.9c-27.8,4-50.2,8.4-66.2,13
				c-9.3,2.7-16.5,5.5-21.2,8.3c-4.2,2.5-6.6,5.1-7,7.7C-25.8,872.9-25.8,873.2-25.8,873.4z"/>
			<g>
				<g>
					<path class="st12" d="M924.8,307.1c-2.3-5.8-1.4-21.6-4.7-26.4c-2.1,7.7-5.5,18.5-8.7,25.8c-27.3-19.3-69.5-40-98.8-56.7
						c9.5-3.9,66-16,72.7-21.7c3.5,2.2,12.6,17.9,15.1,21.4c6.1,9.8-8.4-19.7-9.9-23.1c4-0.1,30.6-3,56.4,3.4c0.8,1.9,1.4,3.9,2,5.8
						c2.8,9.6,4,20.1,7.8,29c-1.8-10.6-2.6-21.7-3.2-32.9c10.4,3.3,20.3,8.4,28.2,16.1c9.1,9,23.1,46,9.1,74.9
						C985.1,334.3,937,307.5,924.8,307.1z"/>
					<path class="st12" d="M1052.1,307c2.7-5.6,2.7-21.5,6.4-26c1.6,7.8,4.4,18.8,7.1,26.3c28.4-17.6,65.5-33.8,95.7-48.6
						c-9.2-4.5-58.4-21.9-64.7-28c-3.7,2-13.7,17.1-16.4,20.4c-6.7,9.4,9.6-19.1,11.3-22.4c-4-0.3-30.4-5-56.5-0.2
						c-0.9,1.9-1.7,3.8-2.4,5.7c-3.4,9.4-5.3,19.8-9.6,28.4c2.4-10.4,3.9-21.5,5.2-32.6c-10.6,2.7-20.8,7.1-29.1,14.3
						c-9.7,8.4-25.9,44.4-13.8,74.2C990.1,330.4,1039.8,306.7,1052.1,307z"/>
					<path class="st13" d="M1053.5,298.4c-8.6-11.2-18.1-20.5-29.4-28.7c-8.3-6-18.4-9.3-26.6-15.5l-7.6,7.9
						c-14.5,11.1-24.4,29.8-35.3,45c5,4.3,15.5,13.4,15.5,13.4s13.1-15.4,19.9-18.3c-4.8,6.3-11.3,16.8-17.1,21
						c14,13.3,36.1,25.8,52.1,38c3.3-5.2,6.2-11.2,9.3-16.7c3.5,8,1,27.4,1,27.4s9.3,7.9,14.3,11.7c1.9-9.1,1.9-21.7,1.4-31.5
						c4.3,10.3,5.3,25.3,12.5,34.1c5.5,6.7,18.2,9.6,25.4,14.6C1086.5,364.9,1075.6,327.2,1053.5,298.4z"/>
					<path class="st14" d="M1078.2,273.5c-12.1-7.4-24.3-12.7-37.7-16.2c-9.9-2.6-20.6-2.1-30.4-4.9l-4.2,10.1
						c-9.5,15.6-12.1,36.6-16.8,54.6c6.2,2.2,19.3,6.9,19.3,6.9s6.6-19.1,12-24.2c-2.2,7.6-4.5,19.8-8.4,25.7
						c17.9,7.4,43,11,62.3,16.7c1.2-6,1.8-12.7,2.7-19c6.2,6.2,10.8,25.2,10.8,25.2s11.5,4,17.6,5.8c-1.5-9.2-6-20.9-10.1-29.9
						c7.8,8.1,14,21.7,23.9,27.3c7.5,4.3,20.4,2.4,28.9,4.5C1132.9,323.7,1109.1,292.4,1078.2,273.5z"/>
					<path class="st14" d="M894.1,277.2c12.5-6.6,25-11.1,38.7-13.7c10.1-2,20.7-0.7,30.6-2.9l3.6,10.4c8.5,16.1,9.7,37.3,13.2,55.6
						c-6.4,1.8-19.7,5.7-19.7,5.7s-5.4-19.5-10.4-24.9c1.7,7.8,3.2,20,6.8,26.2c-18.3,6.2-43.6,8.2-63.2,12.7
						c-0.8-6.1-0.9-12.8-1.4-19.1c-6.6,5.8-12.4,24.5-12.4,24.5s-11.7,3.3-17.9,4.6c2.1-9.1,7.4-20.5,12-29.2
						c-8.3,7.6-15.4,20.8-25.6,25.7c-7.8,3.8-20.5,1.1-29.2,2.6C836.3,323.8,862,294,894.1,277.2z"/>
					<g>
						<path class="st15" d="M1033,581c-0.8,18.8-1.9,37.5-3.4,55.9c-1.5,18.4-3.3,36.5-5.3,54c-2,17.5-4.1,34.3-6.4,50.3
							c-2.2,15.9-4.5,31-6.7,44.8c-2.2,13.9-4.3,26.5-6.2,37.8c-1,5.6-1.9,10.9-2.7,15.7c-0.2,1.4-0.5,2.7-0.7,4h-40.4
							c0.8-3.6,1.7-7.5,2.7-11.7c1.1-4.8,2.2-9.9,3.4-15.4c0.1-0.3,0.1-0.6,0.2-1c2.4-10.8,5-22.8,7.7-36
							c2.2-10.4,4.4-21.5,6.6-33.1c0.2-1.2,0.5-2.5,0.7-3.8c0.4-2.3,0.9-4.6,1.3-7c2.9-15.6,5.8-32,8.6-49.1
							c5.5-34.1,10.4-70.6,13.6-107.2c0.2-2,0.3-4,0.5-6c0.2-2.3,0.4-4.6,0.5-6.9c1.1-14,1.9-28,2.5-41.9c0.7-18.1,1-35.9,0.7-53.1
							c0-1.1,0-2.2,0-3.2c0-1.1,0-2.1-0.1-3.2c-0.1-2.1-0.1-4.2-0.2-6.3c-0.1-2.1-0.1-4.2-0.2-6.3c-0.1-2.1-0.2-4.2-0.3-6.3
							c-0.1-2.1-0.2-4.2-0.3-6.2c-0.1-2-0.2-4.1-0.3-6.1c-0.1-2-0.2-4.1-0.3-6.1c-0.1-1-0.1-2-0.2-3c0-0.3,0-0.7-0.1-1
							c0-0.7-0.1-1.3-0.1-2c-0.1-0.9-0.1-1.8-0.2-2.6c-0.9-14.9-2.1-28.9-3.4-41.8c-0.4-3.4-0.7-6.8-1.1-10.1
							c-0.4-3.3-0.8-6.5-1.2-9.6c-0.1-0.8-0.2-1.6-0.3-2.3c-0.1-0.8-0.2-1.5-0.3-2.3c-0.2-1.5-0.4-3-0.6-4.5
							c-0.4-2.9-0.8-5.8-1.2-8.5c-0.9-5.6-1.7-10.8-2.5-15.6c-0.4-2.5-0.7-4.9-1.1-7.1c-0.3-2.2-0.6-4.3-0.9-6.3
							c-0.6-4-1.2-7.4-1.8-10.3c-0.3-1.5-0.6-2.8-0.9-4c-0.3-1.2-0.6-2.2-0.9-3.1c-0.6-1.8-1.1-2.9-1.4-3.5c0-0.1,0,0,0-0.1l0,0
							c0,0,0-0.1,0-0.1c0,0,0,0,0,0c0,0,0-0.1-0.1-0.1c0-0.1-0.1-0.1-0.1-0.2c-0.2-0.2-0.2-0.4-0.2-0.4l10.4-7.5
							c0,0,0.1,0.1,0.3,0.3c0,0.1,0.1,0.1,0.1,0.2c0,0,0.1,0.1,0.1,0.1c0,0.1,0.1,0.1,0.2,0.2c0.1,0.2,0.2,0.3,0.3,0.5
							c0.1,0.1,0.1,0.2,0.2,0.3c0.1,0.1,0.1,0.2,0.2,0.3c0.8,1.4,1.7,3.3,2.6,5.6c1.7,4.7,3.3,11.2,4.9,19.3c0.4,2,0.8,4.1,1.2,6.3
							c0.4,2.2,0.9,4.5,1.4,6.8c1,4.8,2.1,10,3.3,15.5c0.5,2.8,1.1,5.7,1.7,8.7c0.3,1.5,0.6,3,0.9,4.6c0.2,0.8,0.3,1.5,0.4,2.3
							c0.1,0.8,0.3,1.6,0.4,2.4c0.5,3.2,1.1,6.4,1.7,9.7c0.5,3.3,1,6.7,1.6,10.2c0,0.2,0.1,0.4,0.1,0.6c2.1,13.7,4,28.6,5.7,44.4
							c0.1,1,0.2,2,0.3,3c0.1,1,0.2,2,0.3,3c0.2,2,0.4,4.1,0.6,6.1c0.1,1,0.2,2.1,0.3,3.1c0.1,0.5,0.1,1,0.2,1.6l0.1,0.8l0.1,0.9
							c0.2,2.1,0.4,4.1,0.6,6.2c0.2,2.1,0.4,4.2,0.6,6.3c0.2,2.1,0.3,4.3,0.5,6.5c0.2,2.2,0.3,4.4,0.5,6.5c0.1,1.1,0.1,2.2,0.2,3.3
							c0.1,1.1,0.1,2.2,0.2,3.3c1.1,17.6,1.7,35.8,1.8,54.3C1034.1,543.5,1033.7,562.2,1033,581z"/>
						<g>
							<path class="st16" d="M1010.5,605.5C1010.4,605.5,1010.4,605.5,1010.5,605.5C1010.4,605.5,1010.4,605.5,1010.5,605.5z"/>
							<path class="st16" d="M1033,581c-0.8,18.8-1.9,37.5-3.4,55.9c-1.5,18.4-3.3,36.5-5.3,54c-2,17.5-4.1,34.3-6.4,50.3
								c-2.2,15.9-4.5,31-6.7,44.8c-2.2,13.9-4.3,26.5-6.2,37.8c-1,5.6-1.9,10.9-2.7,15.7c-0.2,1.4-0.5,2.7-0.7,4h-40.4
								c0.8-3.6,1.7-7.5,2.7-11.7c1.1-4.8,2.2-9.9,3.4-15.4c0.1-0.3,0.1-0.6,0.2-1c13.3-6.6,35.5-21.5,42.4-61c-8.3-3.1-18.2-6-28-8
								c0.2-1.2,0.5-2.5,0.7-3.8c12.2-0.1,25.4-0.5,29.7-5.5c2.4-2.7,3-23.1,2.2-26.8c-1.8-8.7-7.5-10.6-16.5-13.8
								c14.4-6.8,11.5-27.3,13.6-42.4c1.4-10.1,10.9-37.1,1.3-42.7c2-0.5,4.1-2.1,6.2-2.5c-2.7-1.5-4.8-3.3-8.7-3.3
								c1.1,0,5.6-1,7.5-1c2.2-9,2.5-19.5,3.4-28.9c-4.7-0.7-9.8-1.4-14.8-2.3c0.2-2.3,0.4-4.6,0.5-6.9c6.6-1.2,13.3-2.5,19.8-3.6
								c1.2-23.7,3.5-47.5,2.2-71.6c-4.6-0.2-9.4-0.2-14-0.1c4.2-1.5,8.4-1.7,12.9-2.5c-0.3-22.2-4.9-44.1-4.5-66
								c-5,0.3-10.1,0.7-15.1,1.1c0-0.7-0.1-1.3-0.1-2c-0.1-0.9-0.1-1.8-0.2-2.6c5.3-1.5,10.7-2.8,15.4-3.6
								c0.5-10.6-1.2-20.9-1.2-31.2c-4.6,1.5-9.5,2.6-13.9,4.5c5.1-3.6,9.2-8.5,13.5-13.1c2.1,13.7,4,28.6,5.7,44.4
								c0.1,1,0.2,2,0.3,3c0.1,1,0.2,2,0.3,3c0.2,2,0.4,4.1,0.6,6.1c0.1,1,0.2,2.1,0.3,3.1c0.1,0.5,0.1,1,0.2,1.6l0.1,0.8l0.1,0.9
								c0.2,2.1,0.4,4.1,0.6,6.2c0.2,2.1,0.4,4.2,0.6,6.3c0.2,2.1,0.3,4.3,0.5,6.5c0.2,2.2,0.3,4.4,0.5,6.5c0.1,1.1,0.1,2.2,0.2,3.3
								c0.1,1.1,0.1,2.2,0.2,3.3c1.1,17.6,1.7,35.8,1.8,54.3C1034.1,543.5,1033.7,562.2,1033,581z"/>
						</g>
					</g>
					<path class="st17" d="M1025.1,271c-3.4,17-15,43-14.9,51.4c-5.7,2.6-21.5,2.3-26.1,5.9c7.8,1.8,18.8,4.7,26.1,7.6
						c-18.1,28.1-36.9,71.2-52.3,101.2c-4.3-9.3-18.9-65.2-24.9-71.7c2.1-3.6,17.4-13.4,20.7-16c9.5-6.6-19.3,9.3-22.6,10.9
						c-0.3-4-4.4-30.5,0.9-56.5c1.9-0.8,3.8-1.6,5.7-2.3c9.4-3.3,19.9-4.9,28.6-9.1c-10.5,2.3-21.6,3.5-32.7,4.6
						c1.2-4.5,2.8-8.9,4.7-13.1c2.6-5.7,5.9-11.1,10.2-15.8c8.6-9.5,44.9-25.1,74.4-12.4C1026.5,257.4,1026.6,263.3,1025.1,271z"/>
				</g>
				<g>
					<path class="st12" d="M1005.6,531.2c-1.3-3.6-0.4-13.3-2.4-16.4c-1.5,4.7-3.8,11.3-5.9,15.7c-16.4-12.4-42.1-26-59.9-36.8
						c5.9-2.2,41-8.7,45.2-12.1c2.1,1.4,7.4,11.3,8.9,13.5c3.6,6.2-4.8-12.3-5.7-14.4c2.5,0,19-1.3,34.7,3.1
						c0.4,1.2,0.8,2.4,1.1,3.6c1.6,5.9,2.1,12.5,4.3,18c-0.9-6.5-1.2-13.4-1.4-20.3c6.4,2.3,12.4,5.6,17.1,10.5
						c5.5,5.7,13.4,28.8,4.2,46.4C1042.3,549.1,1013.2,531.7,1005.6,531.2z"/>
					<path class="st12" d="M1084.1,533.6c1.7-3.4,2.1-13.2,4.4-15.9c0.9,4.9,2.3,11.7,3.9,16.3c17.9-10.3,41-19.6,60-28.2
						c-5.6-2.9-35.6-14.6-39.4-18.5c-2.3,1.2-8.8,10.3-10.5,12.3c-4.3,5.7,6.3-11.6,7.4-13.6c-2.5-0.3-18.7-3.6-34.8-1.2
						c-0.6,1.1-1.1,2.3-1.6,3.4c-2.3,5.7-3.6,12.1-6.5,17.4c1.7-6.4,2.8-13.2,3.8-20c-6.6,1.4-13,4-18.2,8.3
						c-6.1,5-16.8,26.9-9.9,45.5C1045.5,546.8,1076.6,533.1,1084.1,533.6z"/>
					<path class="st13" d="M1085.2,528.3c-5.1-7.1-10.8-13-17.6-18.2c-5-3.9-11.2-6.1-16.1-10l-4.8,4.7
						c-9.1,6.6-15.6,17.9-22.6,27.1c3,2.8,9.3,8.5,9.3,8.5s8.3-9.3,12.6-10.9c-3.1,3.8-7.3,10.2-11,12.6
						c8.4,8.5,21.8,16.6,31.4,24.4c2.1-3.2,4-6.8,6.1-10.2c2,5,0.1,16.9,0.1,16.9s5.6,5.1,8.6,7.5c1.4-5.6,1.6-13.3,1.4-19.4
						c2.5,6.5,2.8,15.7,7.1,21.2c3.3,4.2,11,6.3,15.4,9.5C1104.3,569.9,1098.3,546.4,1085.2,528.3z"/>
					<path class="st14" d="M1100.9,513.4c-7.3-4.8-14.7-8.3-23-10.7c-6.1-1.8-12.6-1.7-18.6-3.6l-2.8,6.2
						c-6.2,9.4-8.1,22.4-11.4,33.4c3.8,1.5,11.8,4.6,11.8,4.6s4.4-11.7,7.9-14.7c-1.5,4.7-3.2,12.1-5.7,15.7
						c10.9,4.9,26.3,7.6,38.1,11.5c0.8-3.7,1.3-7.8,2-11.7c3.7,4,6.2,15.8,6.2,15.8s7,2.7,10.7,3.9c-0.8-5.7-3.3-13-5.6-18.6
						c4.6,5.1,8.3,13.7,14.2,17.3c4.6,2.8,12.6,1.9,17.8,3.3C1133.7,545.4,1119.6,525.6,1100.9,513.4z"/>
					<path class="st14" d="M987.3,512.2c7.9-3.8,15.6-6.4,24.1-7.8c6.2-1,12.8-0.1,18.9-1.2l2,6.5c5,10.1,5.3,23.2,7.1,34.5
						c-4,1-12.3,3.1-12.3,3.1s-3-12.1-6-15.6c0.9,4.8,1.6,12.4,3.7,16.3c-11.4,3.5-27,4.3-39.2,6.6c-0.4-3.8-0.3-7.9-0.5-11.8
						c-4.2,3.5-8.1,14.9-8.1,14.9s-7.3,1.8-11.1,2.5c1.5-5.6,4.9-12.5,7.9-17.8c-5.2,4.5-9.9,12.5-16.3,15.4
						c-4.9,2.2-12.7,0.3-18,1.1C950.7,539.9,967.2,522,987.3,512.2z"/>
					<g>
						<path class="st15" d="M1067.2,702.2c-0.8,11.6-1.9,23.1-3.1,34.4c-1.3,11.3-2.7,22.5-4.3,33.2c-1.5,10.7-3.2,21.1-4.9,30.9
							c-1.7,9.8-3.4,19-5,27.5c-1.6,8.5-3.2,16.3-4.6,23.2c-0.7,3.4-1.4,6.7-2,9.6c-0.2,0.8-0.3,1.6-0.5,2.4l-24.9-0.8
							c0.6-2.2,1.2-4.6,1.9-7.2c0.7-2.9,1.5-6.1,2.4-9.4c0-0.2,0.1-0.4,0.2-0.6c1.7-6.6,3.5-14,5.4-22c1.5-6.4,3.1-13.2,4.7-20.3
							c0.2-0.8,0.3-1.5,0.5-2.3c0.3-1.4,0.6-2.8,0.9-4.3c2.1-9.5,4.2-19.6,6.2-30.1c4-20.9,7.7-43.3,10.4-65.9
							c0.1-1.2,0.3-2.5,0.4-3.7c0.2-1.4,0.3-2.8,0.5-4.2c0.9-8.6,1.7-17.2,2.3-25.8c0.8-11.1,1.3-22.1,1.4-32.7c0-0.7,0-1.3,0-2
							c0-0.7,0-1.3,0-2c0-1.3,0-2.6,0-3.9c0-1.3,0-2.6,0-3.9c0-1.3,0-2.6,0-3.9c0-1.3,0-2.6,0-3.9c0-1.3-0.1-2.5-0.1-3.7
							c0-1.3-0.1-2.5-0.1-3.7c0-0.6,0-1.2,0-1.9c0-0.2,0-0.4,0-0.6c0-0.4,0-0.8,0-1.2c0-0.5,0-1.1-0.1-1.6
							c-0.3-9.2-0.8-17.8-1.3-25.9c-0.2-2.1-0.3-4.2-0.5-6.2c-0.2-2-0.4-4-0.5-5.9c0-0.5-0.1-1-0.1-1.4c0-0.5-0.1-1-0.1-1.4
							c-0.1-0.9-0.2-1.9-0.3-2.8c-0.2-1.8-0.4-3.6-0.6-5.3c-0.4-3.5-0.9-6.7-1.3-9.7c-0.2-1.6-0.4-3-0.5-4.4
							c-0.2-1.4-0.3-2.7-0.5-3.9c-0.3-2.4-0.6-4.6-0.9-6.4c-0.2-0.9-0.3-1.7-0.5-2.5c-0.2-0.7-0.3-1.4-0.5-1.9
							c-0.3-1.1-0.6-1.8-0.8-2.2c0,0,0,0,0,0l0,0c0,0,0,0,0,0c0,0,0,0,0,0c0,0,0,0,0-0.1c0,0-0.1-0.1-0.1-0.1
							c-0.1-0.1-0.1-0.2-0.1-0.2l6.6-4.4c0,0,0.1,0.1,0.2,0.2c0,0,0.1,0.1,0.1,0.1c0,0,0,0.1,0.1,0.1c0,0,0.1,0.1,0.1,0.1
							c0.1,0.1,0.1,0.2,0.2,0.3c0,0.1,0.1,0.1,0.1,0.2c0,0.1,0.1,0.1,0.1,0.2c0.5,0.9,1,2,1.5,3.5c1,2.9,1.8,7,2.7,12
							c0.2,1.2,0.4,2.6,0.6,3.9c0.2,1.4,0.4,2.8,0.7,4.2c0.5,3,1.1,6.2,1.7,9.6c0.3,1.8,0.6,3.6,0.9,5.4c0.1,0.9,0.3,1.9,0.4,2.8
							c0.1,0.5,0.1,1,0.2,1.4c0.1,0.5,0.1,1,0.2,1.5c0.3,2,0.6,4,0.8,6c0.3,2.1,0.5,4.2,0.8,6.3c0,0.1,0,0.3,0,0.4
							c1,8.5,1.9,17.7,2.7,27.5c0,0.6,0.1,1.2,0.2,1.9c0,0.6,0.1,1.2,0.1,1.9c0.1,1.3,0.2,2.5,0.3,3.8c0,0.6,0.1,1.3,0.1,1.9
							c0,0.3,0,0.6,0.1,1l0,0.5l0,0.5c0.1,1.3,0.2,2.6,0.2,3.9c0.1,1.3,0.2,2.6,0.2,3.9c0.1,1.3,0.1,2.7,0.2,4
							c0.1,1.3,0.1,2.7,0.2,4c0,0.7,0.1,1.4,0.1,2c0,0.7,0,1.4,0.1,2c0.3,10.9,0.4,22.1,0.1,33.5
							C1068.6,679.1,1068,690.6,1067.2,702.2z"/>
						<g>
							<path class="st16" d="M1052.9,716.9C1052.9,716.9,1052.9,716.9,1052.9,716.9C1052.9,716.9,1052.9,716.9,1052.9,716.9z"/>
							<path class="st16" d="M1067.2,702.2c-0.8,11.6-1.9,23.1-3.1,34.4c-1.3,11.3-2.7,22.5-4.3,33.2c-1.5,10.7-3.2,21.1-4.9,30.9
								c-1.7,9.8-3.4,19-5,27.5c-1.6,8.5-3.2,16.3-4.6,23.2c-0.7,3.4-1.4,6.7-2,9.6c-0.2,0.8-0.3,1.6-0.5,2.4l-24.9-0.8
								c0.6-2.2,1.2-4.6,1.9-7.2c0.7-2.9,1.5-6.1,2.4-9.4c0-0.2,0.1-0.4,0.2-0.6c8.3-3.9,22.3-12.6,27.3-36.8
								c-5-2.1-11.1-4.1-17.1-5.5c0.2-0.8,0.3-1.5,0.5-2.3c7.5,0.2,15.6,0.1,18.4-2.9c1.5-1.6,2.3-14.2,1.9-16.5
								c-1-5.4-4.4-6.7-9.9-8.8c9-4,7.6-16.6,9.2-25.9c1.1-6.2,7.4-22.7,1.6-26.3c1.2-0.3,2.6-1.2,3.9-1.4c-1.7-1-2.9-2.1-5.3-2.2
								c0.7,0,3.5-0.5,4.7-0.5c1.5-5.5,1.9-12,2.6-17.8c-2.9-0.5-6-1.1-9.1-1.7c0.2-1.4,0.3-2.8,0.5-4.2c4.1-0.6,8.2-1.3,12.3-1.8
								c1.2-14.6,3-29.2,2.7-44.1c-2.8-0.2-5.8-0.3-8.7-0.3c2.6-0.8,5.2-0.9,8-1.3c0.3-13.7-2.2-27.3-1.5-40.8
								c-3.1,0.1-6.2,0.2-9.3,0.4c0-0.4,0-0.8,0-1.2c0-0.5,0-1.1-0.1-1.6c3.3-0.8,6.7-1.5,9.6-1.9c0.5-6.5-0.3-12.9-0.1-19.3
								c-2.9,0.8-5.9,1.4-8.7,2.5c3.2-2.1,5.9-5,8.6-7.8c1,8.5,1.9,17.7,2.7,27.5c0,0.6,0.1,1.2,0.2,1.9c0,0.6,0.1,1.2,0.1,1.9
								c0.1,1.3,0.2,2.5,0.3,3.8c0,0.6,0.1,1.3,0.1,1.9c0,0.3,0,0.6,0.1,1l0,0.5l0,0.5c0.1,1.3,0.2,2.6,0.2,3.9
								c0.1,1.3,0.2,2.6,0.2,3.9c0.1,1.3,0.1,2.7,0.2,4c0.1,1.3,0.1,2.7,0.2,4c0,0.7,0.1,1.4,0.1,2c0,0.7,0,1.4,0.1,2
								c0.3,10.9,0.4,22.1,0.1,33.5C1068.6,679.1,1068,690.6,1067.2,702.2z"/>
						</g>
					</g>
					<path class="st17" d="M1068.2,510.9c-2.4,10.4-10.1,26.2-10.2,31.4c-3.6,1.5-13.3,1-16.2,3.2c4.8,1.2,11.5,3.3,16,5.2
						c-11.7,17-24.1,43.2-34.1,61.4c-2.5-5.8-10.5-40.6-14-44.7c1.3-2.2,11-7.9,13.1-9.5c6-3.9-12.1,5.4-14.1,6.3
						c-0.1-2.5-2.1-18.9,1.6-34.8c1.2-0.5,2.4-0.9,3.6-1.3c5.9-1.8,12.4-2.7,17.8-5.1c-6.5,1.2-13.4,1.8-20.3,2.2
						c0.8-2.7,1.9-5.4,3.1-8c1.7-3.5,3.9-6.7,6.6-9.5c5.5-5.7,28.2-14.6,46.1-6.3C1069.3,502.5,1069.3,506.1,1068.2,510.9z"/>
				</g>
				<g>
					<path class="st12" d="M739,444.9c-3.8-3.9-8.4-16.9-12.7-19.6c0.9,6.9,1.8,16.8,1.7,23.7c-28.5-6.4-69.5-8.7-98.7-12.2
						c6.3-6.3,47.7-35.2,51.1-42.1c3.6,0.6,16.2,10.2,19.4,12.1c8.3,5.8-13.4-13-15.7-15.2c3.2-1.4,23.6-12.8,46.5-16.3
						c1.3,1.3,2.5,2.6,3.6,4c5.5,6.7,10,14.8,16.1,20.7c-5-7.9-9.4-16.6-13.7-25.4c9.5-0.8,19.2-0.1,28.1,3.4
						c10.4,4.1,34.1,29.2,32.7,57.2C796.8,446.4,749,441.1,739,444.9z"/>
					<path class="st12" d="M841.4,401.8c0.2-5.4-5.1-18.2-3.7-23.1c4,5.7,9.9,13.7,14.6,18.7c16.9-23.8,41.3-49.3,60.6-71.5
						c-8.9-0.5-54.4,2.1-61.6-0.7c-2.3,2.8-5.2,18.4-6.3,22c-2.2,9.9,1.3-18.7,1.5-21.8c-3.3,1.1-26.1,6.3-45.5,19
						c-0.1,1.8-0.1,3.6,0,5.4c0.4,8.7,2.4,17.7,1.9,26.1c-1.6-9.2-4.1-18.6-6.8-28c-7.6,5.7-14.4,12.8-18.6,21.3
						c-5,10-5.8,44.5,14,64.4C799.4,441.5,831.4,405.7,841.4,401.8z"/>
					<path class="st13" d="M839.7,394.4c-10.7-6.1-21.5-10.4-33.3-13.2c-8.7-2-18-1.3-26.6-3.5l-3.4,8.9
						c-7.9,13.8-9.6,32.2-13.2,48.1c5.5,1.8,17,5.5,17,5.5s5.3-16.8,9.8-21.4c-1.7,6.7-3.4,17.4-6.7,22.7c15.8,6,37.8,8.5,54.8,12.9
						c0.8-5.3,1.2-11.1,1.8-16.6c5.6,5.3,10.1,21.7,10.1,21.7s10.1,3.2,15.5,4.6c-1.6-8-5.8-18.1-9.5-25.8
						c7,6.9,12.8,18.6,21.6,23.2c6.7,3.5,17.9,1.6,25.4,3.2C888.7,436.8,867.2,410.1,839.7,394.4z"/>
					<path class="st14" d="M851.1,366c-12.2-1.9-23.8-2-35.8-0.3c-8.9,1.2-17.2,5.3-26.1,6.3l0,9.6c-2.4,15.7,2.7,33.5,5,49.6
						c5.8-0.3,17.9-1,17.9-1s-1.1-17.6,1.5-23.5c0.8,6.9,3.1,17.5,1.9,23.6c16.9-0.1,38.3-5.7,55.7-7.6c-1.1-5.3-2.9-10.8-4.3-16.2
						c7.1,2.9,17.2,16.7,17.2,16.7s10.6-0.6,16.1-1.3c-4.3-6.9-11.9-14.8-18.2-20.7c9,3.9,18.6,12.7,28.5,13.9
						c7.5,0.9,17.2-5,24.8-6.2C912.1,387.9,882.4,370.8,851.1,366z"/>
					<path class="st14" d="M704.2,431.2c7.9-9.5,16.4-17.4,26.5-24.1c7.4-5,16.4-7.6,23.6-12.7l6.4,7.1
						c12.3,10.1,20.4,26.7,29.4,40.3c-4.5,3.6-13.9,11.2-13.9,11.2s-10.9-13.9-16.8-16.5c4,5.7,9.4,15,14.3,18.8
						c-12.6,11.2-32.3,21.4-46.6,31.6c-2.7-4.7-5.1-10-7.6-14.9c-3.3,6.9-1.7,23.9-1.7,23.9s-8.3,6.6-12.9,9.8c-1.4-8-1-19-0.3-27.5
						c-4.1,8.9-5.4,21.9-11.9,29.3c-5,5.7-16.2,7.8-22.6,12C673.5,488.2,684.1,455.6,704.2,431.2z"/>
					<g>
						<path class="st15" d="M918.7,628.7c5.7,15.4,11.1,30.8,16.2,46.1c5,15.3,9.7,30.5,14,45.2c4.3,14.7,8.3,29,11.9,42.6
							c3.6,13.6,6.9,26.4,9.8,38.3c2.9,11.9,5.5,22.8,7.7,32.5c1.1,4.8,2.1,9.4,3.1,13.6c0.3,1.2,0.5,2.3,0.8,3.4l-32.5,13.6
							c-0.6-3.2-1.2-6.6-1.8-10.3c-0.8-4.2-1.6-8.7-2.4-13.5c-0.1-0.3-0.1-0.6-0.2-0.9c-1.7-9.4-3.7-20.1-6-31.6
							c-1.8-9.1-3.7-18.7-5.8-28.9c-0.2-1.1-0.5-2.2-0.7-3.3c-0.4-2-0.9-4-1.3-6.1c-2.9-13.5-6.1-27.7-9.7-42.4
							c-7.1-29.3-15.5-60.3-25.3-90.9c-0.5-1.7-1.1-3.3-1.6-5c-0.6-1.9-1.2-3.8-1.9-5.7c-3.9-11.6-7.9-23.2-12.2-34.5
							c-5.5-14.8-11.3-29.2-17.4-43c-0.4-0.9-0.7-1.7-1.1-2.6c-0.4-0.9-0.7-1.7-1.1-2.6c-0.8-1.7-1.5-3.4-2.3-5
							c-0.8-1.7-1.5-3.3-2.3-5c-0.8-1.7-1.6-3.3-2.3-5c-0.8-1.7-1.6-3.3-2.3-4.9c-0.8-1.6-1.5-3.2-2.3-4.8c-0.8-1.6-1.5-3.2-2.3-4.8
							c-0.4-0.8-0.8-1.6-1.1-2.4c-0.1-0.3-0.3-0.5-0.4-0.8c-0.3-0.5-0.5-1-0.8-1.6c-0.3-0.7-0.7-1.4-1-2.1
							c-5.8-11.6-11.5-22.5-16.9-32.5c-1.5-2.6-2.9-5.2-4.3-7.7c-1.4-2.5-2.8-4.9-4.2-7.3c-0.3-0.6-0.7-1.2-1-1.8
							c-0.3-0.6-0.7-1.2-1-1.7c-0.7-1.1-1.3-2.3-2-3.4c-1.3-2.2-2.6-4.4-3.9-6.5c-2.6-4.2-5.1-8.1-7.3-11.7
							c-1.2-1.9-2.2-3.7-3.3-5.3c-1-1.7-2-3.3-2.9-4.8c-1.8-3-3.5-5.6-4.9-7.7c-0.7-1.1-1.4-2-2.1-2.9c-0.6-0.9-1.2-1.6-1.8-2.2
							c-1.1-1.2-1.8-2-2.3-2.4c0,0,0,0,0,0l0,0c0,0,0,0,0-0.1c0,0,0,0,0,0c0,0-0.1,0-0.1-0.1c-0.1,0-0.1-0.1-0.2-0.1
							c-0.2-0.1-0.3-0.2-0.3-0.2l5.9-9.6c0,0,0.1,0.1,0.3,0.2c0.1,0,0.1,0.1,0.2,0.1c0,0,0.1,0,0.1,0.1c0.1,0,0.1,0.1,0.2,0.1
							c0.1,0.1,0.3,0.2,0.4,0.3c0.1,0.1,0.2,0.1,0.2,0.2c0.1,0.1,0.2,0.1,0.2,0.2c1.1,0.8,2.5,2.1,4,3.6c3,3.2,6.5,7.9,10.5,13.9
							c1,1.5,2,3,3.1,4.7c1.1,1.6,2.2,3.3,3.4,5c2.4,3.5,5.1,7.3,7.9,11.4c1.4,2.1,2.8,4.3,4.3,6.5c0.7,1.1,1.5,2.2,2.2,3.4
							c0.4,0.6,0.7,1.1,1.1,1.7c0.4,0.6,0.7,1.2,1.1,1.8c1.5,2.4,3,4.8,4.6,7.3c1.6,2.5,3.1,5.1,4.7,7.7c0.1,0.2,0.2,0.3,0.3,0.5
							c6.3,10.4,12.9,21.7,19.6,33.8c0.4,0.8,0.9,1.5,1.3,2.3c0.4,0.8,0.8,1.6,1.3,2.3c0.9,1.6,1.7,3.1,2.6,4.7
							c0.4,0.8,0.9,1.6,1.3,2.4c0.2,0.4,0.4,0.8,0.7,1.2l0.3,0.6l0.4,0.7c0.8,1.6,1.7,3.2,2.6,4.8c0.9,1.6,1.7,3.2,2.6,4.9
							c0.9,1.7,1.7,3.4,2.6,5c0.9,1.7,1.7,3.4,2.6,5.1c0.4,0.9,0.9,1.7,1.3,2.6c0.4,0.9,0.8,1.7,1.3,2.6
							c6.8,13.8,13.5,28.2,19.8,43.1C906.9,598.1,913,613.4,918.7,628.7z"/>
						<g>
							<path class="st16" d="M908.9,656C908.9,656,908.8,656,908.9,656C908.8,656,908.9,656,908.9,656z"/>
							<path class="st16" d="M918.7,628.7c5.7,15.4,11.1,30.8,16.2,46.1c5,15.3,9.7,30.5,14,45.2c4.3,14.7,8.3,29,11.9,42.6
								c3.6,13.6,6.9,26.4,9.8,38.3c2.9,11.9,5.5,22.8,7.7,32.5c1.1,4.8,2.1,9.4,3.1,13.6c0.3,1.2,0.5,2.3,0.8,3.4l-32.5,13.6
								c-0.6-3.2-1.2-6.6-1.8-10.3c-0.8-4.2-1.6-8.7-2.4-13.5c-0.1-0.3-0.1-0.6-0.2-0.9c8.4-9.8,21.3-29.3,13.5-63.4
								c-7.7,0.3-16.7,1.3-25.3,3c-0.2-1.1-0.5-2.2-0.7-3.3c9.7-4.2,20.2-9,22.1-14.5c1-3-5.4-19.6-7.3-22.3
								c-4.4-6.4-9.6-6-17.9-5.5c9.2-10.4,0-25.8-3.4-38.8c-2.3-8.6-3.8-33.6-13.4-34.8c1.4-1.1,2.6-3.1,4.2-4.1
								c-2.7-0.3-5-1-8.1,0.3c0.9-0.4,4.2-2.7,5.7-3.4c-1.3-8-4.6-16.5-7.1-24.4c-4.1,1.1-8.3,2.2-12.7,3.2
								c-0.6-1.9-1.2-3.8-1.9-5.7c4.9-3.2,9.8-6.5,14.8-9.6c-7-19.5-13.3-39.4-22.4-58.4c-3.8,1.4-7.6,3-11.3,4.7
								c2.9-2.6,6.2-4.2,9.6-6.4c-7.7-17.8-18.8-33.8-25.9-51.6c-4,1.9-7.9,4-11.8,6c-0.3-0.5-0.5-1-0.8-1.6c-0.3-0.7-0.7-1.4-1-2.1
								c3.8-3,7.7-5.9,11.2-8.1c-3.2-8.7-8-16.4-11.5-24.7c-3.2,2.7-6.8,5.3-9.7,8.3c2.9-4.6,4.6-9.9,6.4-15.1
								c6.3,10.4,12.9,21.7,19.6,33.8c0.4,0.8,0.9,1.5,1.3,2.3c0.4,0.8,0.8,1.6,1.3,2.3c0.9,1.6,1.7,3.1,2.6,4.7
								c0.4,0.8,0.9,1.6,1.3,2.4c0.2,0.4,0.4,0.8,0.7,1.2l0.3,0.6l0.4,0.7c0.8,1.6,1.7,3.2,2.6,4.8c0.9,1.6,1.7,3.2,2.6,4.9
								c0.9,1.7,1.7,3.4,2.6,5c0.9,1.7,1.7,3.4,2.6,5.1c0.4,0.9,0.9,1.7,1.3,2.6c0.4,0.9,0.8,1.7,1.3,2.6
								c6.8,13.8,13.5,28.2,19.8,43.1C906.9,598.1,913,613.4,918.7,628.7z"/>
						</g>
					</g>
					<path class="st17" d="M807.6,381.9c3,14.9,2.4,39.6,5.3,46.4c-3.7,4-16.5,9.1-19,13.6c6.9-1.2,16.7-2.5,23.6-2.7
						c-5.1,28.7-5.6,69.8-7.9,99.1c-6.6-6-37.3-46-44.3-49.2c0.4-3.6,9.5-16.6,11.3-19.9c5.5-8.5-12.4,14-14.5,16.4
						c-1.6-3.1-13.8-23-18.4-45.7c1.2-1.3,2.5-2.6,3.8-3.8c6.5-5.8,14.3-10.7,19.9-17c-7.7,5.3-16.2,10.1-24.8,14.8
						c-0.5-4-0.8-8.1-0.7-12.1c0.2-5.5,1-10.9,2.9-16.1c3.7-10.6,27.7-35.4,55.7-35.2C804.1,370.5,806.2,375.2,807.6,381.9z"/>
				</g>
				<path class="st12" d="M805.2,845.3l26.5-18.4l-22.9,21c27.4,19.2,57.7,31.4,65.4,25.4c0,0,4.1-34.5-39.6-86.1
					c-1.8,2.5-12.8,13.9-14,15.7c6.3-12.3,2.3-22-6.8-29.6c-5.3,6.9-12.4,15.4-18.4,19.8c2.5-6.6,7.6-15.9,11.1-24.9
					c-22.5-13.3-60.3-18.6-71-19.6c4.5,21.5,19.8,33.5,26.9,52.7c5.9-4.8,12.1-10.1,18.1-12.5c-3.1,4.4-7.9,16.5-11.1,21.2
					C777.6,822.5,790.8,834.8,805.2,845.3z"/>
				<path class="st13" d="M841.8,808.8l31.7,5.6l-31-1.2c5.9,32.9,18.9,62.9,28.6,64.1c0,0,27.1-21.6,32.5-89.1
					c-3,0.5-18.9,0.9-21,1.3c13.1-4.3,17.1-14,16-25.8c-8.6,1.1-19.6,2.2-27,1c6.5-2.9,16.6-6,25.4-9.9
					c-6.6-25.3-29.7-55.6-36.7-63.9c-11.9,18.4-9.5,37.7-18,56.4c7.6,0.7,15.7,1.3,21.6,3.8c-5.3,0.9-17.3,6.2-22.8,7.2
					C838.3,773.2,839,791.3,841.8,808.8z"/>
				<g>
					<g>
						<path class="st18" d="M840.3,887.2c0.4-1.1,0.7-2.1,1-2.9c0.1-0.2,0.1-0.4,0.2-0.6c0.1-0.3,0.2-0.5,0.3-0.8
							c0.3-0.7,0.5-1.3,0.7-1.8c0.1-0.2,0.1-0.3,0.2-0.4c0,0,0,0,0,0c0.3-0.6,0.6-1.2,0.9-1.9c0.2-0.5,0.5-1,0.8-1.6
							c0.3-0.6,0.6-1.3,1-2c0-0.1,0.1-0.2,0.1-0.3c0.1-0.1,0.1-0.3,0.2-0.4c0.1-0.2,0.2-0.3,0.2-0.5c0.1-0.2,0.2-0.4,0.3-0.6
							c0,0,0,0,0-0.1c0.1-0.3,0.2-0.5,0.4-0.8c0,0,0,0,0,0c0.2-0.4,0.4-0.9,0.6-1.3c0,0,0-0.1,0-0.1c0.1-0.2,0.2-0.5,0.3-0.7
							c0,0,0-0.1,0.1-0.1c0.1-0.2,0.1-0.3,0.2-0.5c0.5-1.2,1-2.5,1.6-4c0.1-0.3,0.2-0.6,0.3-0.9c0.2-0.5,0.4-0.9,0.5-1.4
							c0.2-0.5,0.4-0.9,0.5-1.4c0.1-0.2,0.2-0.4,0.2-0.6c0.4-1,0.7-1.7,0.9-2.3c0,0,0,0,0,0c0,0,0,0,0,0c0,0,0,0,0,0c0,0,0,0,0,0
							l0,0c0,0,0,0,0,0c0,0,0,0,0,0c0,0,0,0,0,0c0,0,0,0,0-0.1c0,0,0,0,0,0c0,0,0,0,0,0c0,0,0-0.1,0-0.1c0,0,0,0,0,0c0,0,0,0,0,0
							l0-0.1c0,0,0-0.1,0-0.1c0,0,0,0,0-0.1c0,0,0-0.1,0-0.1c0,0,0,0,0-0.1c0,0,0,0,0,0c0,0,0-0.1,0-0.1c0,0,0-0.1,0-0.1
							c0,0,0,0,0-0.1c0,0,0-0.1,0-0.1c0,0,0-0.1,0-0.1c0,0,0,0,0-0.1c0,0,0,0,0,0c0,0,0,0,0-0.1c0,0,0-0.1,0-0.1c0,0,0,0,0,0
							c0,0,0-0.1,0-0.1c0,0,0,0,0,0c0,0,0,0,0,0c0,0,0,0,0,0c0,0,0,0,0,0c0,0,0,0,0,0v0c0,0,0,0,0,0l0,0v0c0.1-0.2,0.1-0.4,0.2-0.6
							c0-0.1,0-0.1,0.1-0.2c0-0.1,0-0.1,0.1-0.2c0,0,0-0.1,0-0.1c0-0.1,0.1-0.1,0.1-0.2c0,0,0,0,0,0c0.1-0.1,0.1-0.2,0.2-0.4
							c0.1-0.1,0.1-0.2,0.2-0.3c0.1-0.1,0.1-0.2,0.2-0.3c0.9-1.3,2.2-3,4-4.9c0,0,0,0,0,0h0c0.5-0.6,1-1.1,1.6-1.7
							c0.2-0.2,0.4-0.4,0.5-0.6c0.2-0.2,0.5-0.5,0.7-0.7c0.4-0.4,0.9-0.9,1.3-1.4c3-3,6.4-6.4,10.1-9.8c2.1-1.9,4.2-3.9,6.4-5.8
							c0.3-0.3,0.7-0.6,1.1-0.9c1.8-1.6,3.6-3.2,5.5-4.8c0.2-0.2,0.4-0.3,0.6-0.5c0.3-0.2,0.5-0.5,0.8-0.7c0.3-0.3,0.7-0.6,1-0.9
							c2.8-2.4,5.6-4.7,8.1-6.8c0.2-0.2,0.4-0.3,0.6-0.5c0.3-0.2,0.6-0.5,0.9-0.7c1.7-1.4,3.4-2.7,4.9-3.8c0.2-0.2,0.4-0.3,0.6-0.5
							c1.5-1.1,2.8-2.1,4-2.9c0.7-0.5,1.4-0.9,1.9-1.2c0.2-0.1,0.3-0.2,0.5-0.3c0.3-0.2,0.6-0.3,0.9-0.4c0.9-0.4,2.1-0.5,3.5-0.5
							c3.9,0.1,9.6,1.4,15.7,3.2c0.1,0,0.1,0,0.2,0c2.2,0.7,4.4,1.4,6.6,2.1c3.9,1.3,7.7,2.8,11.1,4.1c5.8,2.3,10.4,4.4,11.9,5.4
							c1.7,1.1,3.7,2.3,6,3.2c4.1,1.7,8.9,2.7,13,1.6c6.3-1.6,17.4-6.4,23.7-6.4c1.5,0,3.1,0.7,4.7,1.9c5,3.6,9.5,11,9.5,11l0.9,1.1
							l0,0l8.6,10.2l10.7,9l2.6,2.2l0.9,0.8l0,0l1,0.8l2.6,2.2l2.4,2l2.4,2l4.3,3.6l0.7,2l0.4,1.2l1.4,4l1.4,4.2l1.1,3.2l3.8,11.1
							H838.8C839.3,889.8,839.8,888.8,840.3,887.2z"/>
						<path class="st19" d="M838.8,890.4h119.4c0.5-4.2,1.2-8.4,2.5-12.6c12.4-1.7,24.4,3.8,37.1,3c-24.7-16.3-58.9-22.9-85.8-35.6
							c8.3-0.2,14.9,1.2,22.6,3.4c-7.1-4.6-14.1-9.5-21-14.7c19,5.7,45.2,4.8,65.3,4.9c-25.3-3.1-50.6-13.6-75.2-19.7
							c2.1-4.8,5.8-9.7,9.7-14.6c-1.5,0-2.7,0.1-3.5,0.5c-7.9,3.2-53.7,43.4-56.9,51.5c-0.1,0.2-0.2,0.4-0.2,0.6v0c0,0,0,0,0,0
							c0,0,0,0,0,0v0c0,0,0,0,0,0c0,0,0,0,0,0c0,0,0,0,0,0c0,0,0,0,0,0c0,0,0,0,0,0c0,0,0,0.1,0,0.1c0,0,0,0,0,0c0,0,0,0,0,0
							c0,0,0,0,0,0c0,0,0,0.1,0,0.1c0,0,0,0,0,0.1c0,0,0,0,0,0c0,0,0,0,0,0.1c0,0,0,0.1-0.1,0.1v0c0,0,0,0.1,0,0.1c0,0,0,0.1,0,0.1
							c0,0,0,0.1,0,0.1c0,0,0,0.1,0,0.1c0,0,0,0,0,0c0,0,0,0,0,0c0,0,0,0.1,0,0.1c0,0,0,0,0,0c0,0,0,0.1,0,0.1c0,0,0,0.1,0,0.1
							c0,0,0,0,0,0c0,0,0,0,0,0c0,0,0,0,0,0c0,0,0,0.1,0,0.1c0,0,0,0,0,0c0,0,0,0,0,0.1c0,0,0,0,0,0.1c0,0,0,0,0,0c0,0,0,0,0,0
							c0,0,0,0,0,0l0,0c0,0,0,0,0,0c0,0,0,0,0,0c0,0,0,0,0,0v0c0,0,0,0,0,0c-0.5,1.2-1.2,2.9-2.2,5.6c-6.3,16.1-6.3,12.9-9.5,22.5
							C839.8,888.8,839.3,889.8,838.8,890.4z"/>
					</g>
					<g>
						<g>
							<path class="st18" d="M1119.4,875.7c-1.9,2.1-3.6,3.7-3.6,3.7s-14.2,14.8-22.5,12.9c-2.6-0.6-4.7-0.4-6.6,0.2h-56.1
								c-1.9-0.8-3.3-1.7-4.6-2.9c-3.2-3-10.5-7-13.7-13.2c-3.2-6.1-2.2-6.2-0.3-12.4c1.9-6.3,5-8.4,12.2-11.6
								c7.2-3.3,8.3-1.2,12.3-4.4c1.5-1.1,3.2-1.8,5-2.1c3.2-0.7,6.7-0.6,9.4-1.3c4.1-1.1,38.4,3.3,43.5,2.2
								c5.1-1.1,7.3,0.9,11.4,0.8c4.1-0.1,8.4,5,11.5,7c3.1,2,8.1,9.5,7.5,13.3C1124.5,869.8,1121.8,873.1,1119.4,875.7z"/>
							<g>
								<path class="st19" d="M1115.7,879.4c0,0-14.2,14.8-22.5,12.9c-2.6-0.6-4.7-0.4-6.6,0.2h-56.1c-1.9-0.8-3.3-1.7-4.6-2.9
									c-3.2-3-10.5-7-13.7-13.2c-3.2-6.1-2.2-6.2-0.3-12.4c1.9-6.3,5-8.4,12.2-11.6c7.2-3.3,8.3-1.2,12.3-4.4
									c1.5-1.1,3.2-1.8,5-2.1c6.8,0.6,13.5,3.6,20.2,3.7c-4.2,2.2-10.5,1.6-15.1,2.9c3.1,1.9,34.6,6.8,37.8,8.5
									c-1,1-33.2-0.3-33.6,1.2c-0.3,1.2,2.7,5.9,3.3,7.2c2.2,4.4,4.5,9.3,7.7,13.2c4.9-1.7,14.3-2.8,19.4-2.8
									c-2.1,2-5.7,3.6-8,5.1c5.1-1.7,10.7,0.4,16,0.3c5.6-0.1,10.9-1.5,15.3-4.6c5.4-3.8,7.8-6.4,14.5-5c0.2,0,0.4,0.1,0.6,0.1
									C1117.4,877.8,1115.7,879.4,1115.7,879.4z"/>
							</g>
						</g>
						<g>
							<path class="st18" d="M1029.3,890.5c-0.7,0.8-1.4,1.5-1.9,1.9h-69.9c-0.3-0.5-0.7-1-0.9-1.5c-2.2-4.2-1.5-4.2-0.2-8.4
								c1.3-4.2,3.4-5.7,8.3-7.9c4.9-2.2,5.6-0.8,8.4-3c1-0.8,2.2-1.2,3.4-1.5c2.2-0.4,4.6-0.4,6.4-0.9c2.8-0.8,26,2.3,29.5,1.5
								c3.5-0.8,4.9,0.6,7.7,0.5c2.8-0.1,5.7,3.4,7.8,4.8c2.1,1.4,5.5,6.5,5.1,9C1032.8,886.5,1031,888.7,1029.3,890.5z"/>
							<g>
								<path class="st19" d="M982.7,881.2c-0.2,0.8,1.8,4,2.2,4.9c1,2.1,2.1,4.3,3.3,6.3h-30.7c-0.3-0.5-0.7-1-0.9-1.5
									c-2.2-4.2-1.5-4.2-0.2-8.4c1.3-4.2,3.4-5.7,8.3-7.9c4.9-2.2,5.6-0.8,8.4-3c1-0.8,2.2-1.2,3.4-1.5c4.6,0.4,9.1,2.4,13.7,2.5
									c-2.9,1.5-7.1,1.1-10.2,2c2.1,1.3,23.5,4.6,25.6,5.8C1004.8,881.1,983,880.2,982.7,881.2z"/>
								<path class="st19" d="M1027.4,892.4h-6.5c2.5-1.8,4.3-2.8,8-2c0.1,0,0.3,0.1,0.4,0.1C1028.6,891.3,1027.9,892,1027.4,892.4z
									"/>
							</g>
						</g>
					</g>
					<g>
						<path class="st18" d="M912.8,896.6H795.2c-2.6-7-1.5-7.7,0.5-16c2.1-9,5.4-12.1,13.2-16.9c7.8-4.7,8.9-1.7,13.4-6.4
							c1.6-1.7,3.5-2.6,5.5-3.1c3.5-1,7.3-0.8,10.2-1.8c4.5-1.6,41.6,4.8,47.1,3.2c5.6-1.7,7.9,1.3,12.4,1.2
							c4.5-0.1,9.1,7.2,12.5,10.1c3.4,2.9,8.8,13.8,8.1,19.2C917.7,888.8,915.2,893,912.8,896.6z"/>
						<g>
							<path class="st19" d="M837.7,877.9c-0.4,1.7,2.9,8.6,3.6,10.4c1,2.7,2,5.5,3.1,8.3h-49.1c-2.6-7-1.5-7.7,0.5-16
								c2.1-9,5.4-12.1,13.2-16.9c7.8-4.7,8.9-1.7,13.4-6.4c1.6-1.7,3.5-2.6,5.5-3.1c7.3,0.8,14.6,5.2,21.8,5.3
								c-4.6,3.2-11.4,2.4-16.3,4.2c3.3,2.8,37.5,9.9,40.9,12.4C873,877.6,838.1,875.7,837.7,877.9z"/>
						</g>
					</g>
				</g>
			</g>
			<g>
				<g>
					<path class="st20" d="M559.2,804.3c0,0-15,1.7-31.2-9.6c0,0-8-8-7.9-9.2c0.1-1.2,1.1-1.8,2.7-1.7c1.6,0.1,1.3,0.2,2.5,0
						c1.3-0.3,1.6,0.4,2.7,0c1.1-0.4,2.6-0.4,3.3-0.1c0.7,0.4,1.9-0.2,2.6-0.3c0.6-0.1,9.9-0.3,14.7-0.6c4.8-0.3,7-1,10.6,0
						c3.6,1,4.9-0.3,6.7,0c1.8,0.3,4-0.3,5.3,0c1.3,0.3,23.7-0.3,23.7-0.3l6.5,8.4C601.4,791.1,583.4,801.1,559.2,804.3z"/>
				</g>
				<g>
					<path class="st10" d="M-25.8,873.4c0,29,241.9,52.8,550.3,55.3c1.3,0,2.6,0,4,0c11.9,0.1,23.9,0.1,35.9,0.2c3,0,6,0,9.1,0
						c3,0,6,0,9.1,0c2.9,0,5.8,0,8.6,0c245-0.5,454.2-14.3,544.5-33.9c30.6-6.6,47.5-14,47.5-21.6c0-4.5-5.7-8.8-16.5-13
						c-29.2-5.3-55.2,2.8-86.4,5.5c-38.7,3.4-72.5-24.8-112.5-21.4c-35.9,3.1-72,19.5-106.2,28.4c-40.9,10.7-59.8,10.9-94.6-1.2
						c-1.7-0.6-3.5-1.2-5.3-1.9h0c-1.4-0.5-2.8-1-4.2-1.6c-0.4-0.1-0.8-0.3-1.2-0.5h0c-0.4-0.2-0.9-0.3-1.3-0.5
						c-0.5-0.2-0.9-0.4-1.4-0.5c-6.2-2.4-12.5-4.1-18.8-5.2c-2-0.4-3.9-0.7-5.9-1c-1.4-0.2-2.8-0.4-4.2-0.5
						c-2.6-0.3-5.2-0.5-7.8-0.7c-21-1.4-42.5,0.2-63.4-2.9c-1.5-0.2-3-0.5-4.6-0.8c-0.5-0.1-1-0.2-1.4-0.3c-0.9-0.2-1.8-0.4-2.7-0.6
						c-1.4-0.3-2.7-0.6-4.1-1c-11.6-3-22.6-6.7-33.4-10.2c-1.8-0.6-3.6-1.1-5.4-1.7c-1.1-0.3-2.1-0.7-3.2-1c-0.5-0.2-1-0.3-1.6-0.5
						c-4.5-1.3-8.9-2.5-13.4-3.6c-3.3-0.8-6.6-1.5-9.9-2h0c-1.9-0.3-3.9-0.6-5.8-0.9h0c-0.1,0-0.1,0-0.2,0c-0.5-0.1-1-0.1-1.5-0.2
						c0,0-0.1,0-0.1,0c-1-0.1-2.1-0.2-3.2-0.3c-0.4,0-0.7-0.1-1.1-0.1c-1.1-0.1-2.2-0.2-3.3-0.2c-0.1,0-0.2,0-0.4,0
						c-7.4-0.4-15.1-0.1-23.2,1.1c-1.4,0.2-2.7,0.4-4.1,0.6c-1.7,0.3-3.5,0.5-5.2,0.8c-0.3,0-0.7,0.1-1,0.2c-1,0.1-2,0.3-3,0.5
						c-4.2,0.7-8.5,1.4-12.8,2.1c-6.4,1-12.9,2.1-19.3,3.2c-19.1,3.2-38.4,6.3-57.6,8.9c-1.1,0.1-2.2,0.3-3.3,0.4
						c-0.1,0-0.3,0-0.4,0c-1.6,0.2-3.2,0.4-4.9,0.6c-5.5,0.7-10.9,1.3-16.3,1.8c-11.2,1.1-22.1,0.8-32.9-0.2
						c-2.2-0.2-4.3-0.4-6.5-0.7c-2.3-0.3-4.7-0.6-7-0.9c-0.3,0-0.5-0.1-0.8-0.1c-0.6-0.1-1.2-0.2-1.9-0.2c-0.9-0.1-1.8-0.2-2.7-0.4
						c-2-0.3-3.9-0.5-5.9-0.8c-0.4-0.1-0.8-0.1-1.1-0.2c-1.1-0.2-2.1-0.3-3.2-0.5c-1.6-0.2-3.2-0.5-4.9-0.7
						c-12.4-1.7-24.7-3.1-37.1-2.9c-0.9,0-1.9,0-2.8,0.1c-0.5,0-1.1,0-1.6,0.1c-1.5,0.1-3.1,0.2-4.6,0.3c-0.9,0.1-1.7,0.1-2.6,0.2
						c-21.1,2.1-40.5,6.7-60.2,10.7c-0.9,0.2-1.7,0.3-2.6,0.5c-2.1,0.4-4.3,0.8-6.5,1.2c-1.5,0.3-3.1,0.6-4.6,0.8c-2,0.3-4,0.7-6,1
						h0c-6,0.9-12,1.7-18.2,2.2c-0.4,0-0.8,0.1-1.1,0.1c-1.3,0.1-2.6,0.2-3.9,0.3c-1.6,0.1-3.2,0.2-4.9,0.3
						c-3.3,0.1-6.7,0.2-10.1,0.1c-41.5-0.5-74.7-12.5-115.3-4.8c-27.5,5.2-51.9,6.4-77.1,6.1c-4.2,2.5-6.6,5.1-7,7.7
						C-25.8,872.9-25.8,873.2-25.8,873.4z"/>
				</g>
				<g>
					
						<linearGradient id="SVGID_2_" gradientUnits="userSpaceOnUse" x1="4049.7712" y1="865.9131" x2="4049.7712" y2="795.356" gradientTransform="matrix(1 0 0 1 -3392.6113 0)">
						<stop  offset="0" style="stop-color:#CA6C21"/>
						<stop  offset="0.1389" style="stop-color:#D07630"/>
						<stop  offset="0.3413" style="stop-color:#D67F3E"/>
						<stop  offset="0.588" style="stop-color:#DA8446"/>
						<stop  offset="1" style="stop-color:#DB8649"/>
					</linearGradient>
					<path class="st21" d="M650.7,865.9c0,0-2.8,0-4.8-0.3l-0.7-2.4l18.5-67.9l5.5,4.7L650.7,865.9z"/>
					<path class="st22" d="M641.9,864.6l18.7-67.1l4.6,1.2l-19.4,66.9c0,0-1.6,0.1-2.3-0.5C642.9,864.6,641.9,864.6,641.9,864.6z"/>
					
						<linearGradient id="SVGID_3_" gradientUnits="userSpaceOnUse" x1="4165.7832" y1="909.6194" x2="4124.6323" y2="760.1044" gradientTransform="matrix(1 0 0 1 -3392.6113 0)">
						<stop  offset="0" style="stop-color:#CA6C21"/>
						<stop  offset="0.1389" style="stop-color:#D07630"/>
						<stop  offset="0.3413" style="stop-color:#D67F3E"/>
						<stop  offset="0.588" style="stop-color:#DA8446"/>
						<stop  offset="1" style="stop-color:#DB8649"/>
					</linearGradient>
					<path class="st23" d="M730,749.7c0,0,1.6,0,2.4,0c0.8,0,1.7,0.5,2.1,2.2c0.4,1.7,33.7,124.3,34.2,126.2c0.5,1.8,0.8,4.4,0,5.2
						c-0.8,0.8-1.3,1.4-2.6,1.4c-1.4,0-4.5,0-4.5,0l-33.3-132.8L730,749.7z"/>
					<path class="st22" d="M729.5,751.9c0,0,34,125,34.5,126.7c0.4,1.7,0.4,3.5,0,4.2c-0.4,0.7-1.8,1.8-2.1,1.9
						c-0.4,0-1.2-0.7-1.2-0.7l-4.1-14.7l-29.9-110.6L729.5,751.9z"/>
					<g>
						
							<linearGradient id="SVGID_4_" gradientUnits="userSpaceOnUse" x1="3783.8191" y1="454.5168" x2="3850.1331" y2="454.5168" gradientTransform="matrix(0.9151 0.4032 -0.7284 1.6534 -2449.4802 -1535.2292)">
							<stop  offset="0" style="stop-color:#CA6C21"/>
							<stop  offset="0.1389" style="stop-color:#D07630"/>
							<stop  offset="0.3413" style="stop-color:#D67F3E"/>
							<stop  offset="0.588" style="stop-color:#DA8446"/>
							<stop  offset="1" style="stop-color:#DB8649"/>
						</linearGradient>
						<path class="st24" d="M731.5,771.3c0.1-0.2,0.1-0.4,0.2-0.6c0.1-0.2,5.6,3,5.7,2.6c0.5-1.8-4.6-7.1-4.3-9
							c0-0.1,0.1-1.4,0.2-2.2c-9.6-6-33.6-21-34.5-21.4c-1.1-0.5-11.5-1.5-13.2-2.3c-1.7-0.8-2.1-0.1-2.1-0.1l46.8,33.2
							C730.4,771.7,730.9,771.6,731.5,771.3z"/>
						<path class="st22" d="M737,785.3c1.3-3.2-1-9.4-1.8-12.7c-0.5-0.2-50.4-33.4-51.2-34c-0.8-0.5-1,0.1-1.5,1.1
							c-0.5,1-1.9,4.3-2.3,5.3c-0.4,1-0.5,1.5,0.8,2.4C681,747.4,736,785.3,737,785.3z"/>
					</g>
					
						<linearGradient id="SVGID_5_" gradientUnits="userSpaceOnUse" x1="4087.8826" y1="755.6888" x2="4148.8687" y2="755.6888" gradientTransform="matrix(1 0 0 1 -3392.6113 0)">
						<stop  offset="0" style="stop-color:#CA6C21"/>
						<stop  offset="0.1389" style="stop-color:#D07630"/>
						<stop  offset="0.3413" style="stop-color:#D67F3E"/>
						<stop  offset="0.588" style="stop-color:#DA8446"/>
						<stop  offset="1" style="stop-color:#DB8649"/>
					</linearGradient>
					<path class="st25" d="M700.6,834.5c0,0,54.7-149.7,55.2-151.1c0.5-1.4,0.6-2.9,0.1-3.8c-0.5-0.9-1.5-2-1.8-2.4
						c-0.4-0.4-0.6-0.4-1.5-0.4c-0.7,0-4.3,0.2-4.3,0.2l-53,153.7L700.6,834.5z"/>
					<path class="st22" d="M696.9,832.1c0,0,53.5-147.9,54-149c0.4-1.1,0.5-2.4,0.2-3.1c-0.4-0.7-1.3-1.7-2-2.4
						c-0.7-0.7-1.2-0.6-1.5,0.3L693,828.9L696.9,832.1z"/>
					
						<linearGradient id="SVGID_6_" gradientUnits="userSpaceOnUse" x1="4044.6152" y1="849.5272" x2="4168.6206" y2="849.5272" gradientTransform="matrix(1 0 0 1 -3392.6113 0)">
						<stop  offset="0" style="stop-color:#CA6C21"/>
						<stop  offset="0.1389" style="stop-color:#D07630"/>
						<stop  offset="0.3413" style="stop-color:#D67F3E"/>
						<stop  offset="0.588" style="stop-color:#DA8446"/>
						<stop  offset="1" style="stop-color:#DB8649"/>
					</linearGradient>
					<path class="st26" d="M660.7,800.4l113.5,93.8c1.1,0.9,1.9,1.6,1.8,2.9c-0.1,1.3-0.2,2-0.5,3c0,0-0.5-0.1-1.5,0
						c-1,0.1-1.7,0.2-2.5,0.2c-0.8,0.1-2.4-0.2-2.4-0.2l0-2.3l-117.1-99L660.7,800.4z"/>
					<path class="st22" d="M647.6,801.3L760.3,896c0,0,7.4,4,8.8,4.1c1.4,0.1,1.7-1.1,1.8-2c0.1-1,0.1-2.1-0.7-2.8
						c-0.8-0.7-113.5-94.9-113.5-94.9L647.6,801.3z"/>
					<path class="st22" d="M637.5,900.3c0,0-2.1-1.1-7.4-2.8c-5.3-1.7-8.9-6-11.7-7.4c-2.8-1.5-103.1-98.2-103.1-98.2
						s-1.6-1.6-2.2-2.2c-0.6-0.5-0.7-1.5-0.6-2.3c0-0.9,0.3-2.7,0.3-3.5c0-0.8,0.5-1.5,1.4-0.7C515,784.1,637.5,900.3,637.5,900.3z"
						/>
					
						<linearGradient id="SVGID_7_" gradientUnits="userSpaceOnUse" x1="3906.0308" y1="841.4831" x2="4035.5276" y2="841.4831" gradientTransform="matrix(1 0 0 1 -3392.6113 0)">
						<stop  offset="0" style="stop-color:#CA6C21"/>
						<stop  offset="0.1389" style="stop-color:#D07630"/>
						<stop  offset="0.3413" style="stop-color:#D67F3E"/>
						<stop  offset="0.588" style="stop-color:#DA8446"/>
						<stop  offset="1" style="stop-color:#DB8649"/>
					</linearGradient>
					<path class="st27" d="M513.4,782.9c0,0,2.9-0.3,3.8-0.3c1.1,0,1.6,0.5,2,0.9c0.5,0.5,0.9,0.9,0.9,0.9l122.8,116
						c-2.4-0.5-5.5,0-5.5,0L513.9,785.1L513.4,782.9z"/>
					
						<linearGradient id="SVGID_8_" gradientUnits="userSpaceOnUse" x1="3924.8704" y1="865.6446" x2="3924.8704" y2="767.6111" gradientTransform="matrix(1 0 0 1 -3392.6113 0)">
						<stop  offset="0" style="stop-color:#CA6C21"/>
						<stop  offset="0.1389" style="stop-color:#D07630"/>
						<stop  offset="0.3413" style="stop-color:#D67F3E"/>
						<stop  offset="0.588" style="stop-color:#DA8446"/>
						<stop  offset="1" style="stop-color:#DB8649"/>
					</linearGradient>
					<path class="st28" d="M518.3,865.6c0,0,3.9-0.3,5,0l22.7-92.9c0,0,0.5-1.7-0.2-2.9c-0.4-0.6-0.8-1.3-1.1-1.5
						c-0.3-0.2-0.7-0.7-1.3-0.7c-0.6,0-4.3,0-4.3,0L518.3,865.6z"/>
					<path class="st22" d="M518.3,865.6c0,0,20.4-83.1,21.4-87.1c0.3-1.4,0.8-3.6,1.4-6c0,0,0.5-2.3-0.2-3.1c-0.7-0.8-1.5-2-2-1.7
						c-0.5,0.2-0.7,0.7-1.1,2.2c-0.3,1.5-23.1,95-23.1,95s0.7,0,1.8,0.4C517.6,865.6,518.3,865.6,518.3,865.6z"/>
					<path class="st22" d="M761.5,875.9c0-1.5-0.7-2.7-1.6-2.7l-145.9,5.3v5.4l145.9-5.3C760.8,878.6,761.5,877.3,761.5,875.9z"/>
					<g>
						
							<linearGradient id="SVGID_9_" gradientUnits="userSpaceOnUse" x1="3657.4653" y1="492.5114" x2="3717.2395" y2="492.5114" gradientTransform="matrix(0.9151 0.4032 -0.7284 1.6534 -2449.4802 -1535.2292)">
							<stop  offset="0" style="stop-color:#CA6C21"/>
							<stop  offset="0.1389" style="stop-color:#D07630"/>
							<stop  offset="0.3413" style="stop-color:#D67F3E"/>
							<stop  offset="0.588" style="stop-color:#DA8446"/>
							<stop  offset="1" style="stop-color:#DB8649"/>
						</linearGradient>
						<path class="st29" d="M588.2,783.2c0.1-0.2,0.1-0.4,0.2-0.6c0.1-0.2,0.1-0.5,0.2-0.8c0.5-1.8,0.9-3.6,1.2-5.5
							c0-0.1,0.1-1.4,0.2-2.2c-9.6-6-33.6-21-34.5-21.4c-1.1-0.5-11.5-1.5-13.2-2.3c-1.7-0.8-2.1-0.1-2.1-0.1l46.8,33.2
							C587.1,783.6,587.6,783.4,588.2,783.2z"/>
						<path class="st22" d="M585.6,790.3c0.1-0.4,0.3-0.8,0.4-1.1c0.7-1.8,1.4-3.6,2-5.4c0.2-0.5,0.3-0.9,0.4-1.1
							c0-0.2,0.1-0.5,0.2-0.8c-0.5-0.2-1.3-0.6-2.4-1.2c-2.6-1.6-44.8-29.6-45.6-30.1c-0.8-0.5-1,0.1-1.5,1.1
							c-0.5,1-1.9,4.3-2.3,5.3c-0.4,1-0.5,1.5,0.8,2.4l45.7,30.3C583.4,789.5,584.5,790.3,585.6,790.3z"/>
					</g>
					<g>
						<path class="st22" d="M749,685c0-1.5-0.7-2.7-1.6-2.7l-135.6,0.6l-0.1,5.8l135.7-1C748.3,687.6,749,686.4,749,685z"/>
						
							<linearGradient id="SVGID_10_" gradientUnits="userSpaceOnUse" x1="3952.8643" y1="759.0236" x2="4008.3987" y2="759.0236" gradientTransform="matrix(1 0 0 1 -3392.6113 0)">
							<stop  offset="0" style="stop-color:#CA6C21"/>
							<stop  offset="0.1389" style="stop-color:#D07630"/>
							<stop  offset="0.3413" style="stop-color:#D67F3E"/>
							<stop  offset="0.588" style="stop-color:#DA8446"/>
							<stop  offset="1" style="stop-color:#DB8649"/>
						</linearGradient>
						<path class="st30" d="M608.2,677.7c0,0,3.7,0,4.5,0c0.7,0,1,0,1.4,0.6c0.5,0.6,1,1.4,1.4,2.1c0.4,0.7,0.5,1.9-0.2,4.1
							c-0.6,2.2-48.6,153.1-48.6,153.1c-0.3,0.8-0.7,1.9-0.9,2.2c-0.2,0.3-0.2,0.4-2,0.4c-1.9,0-3.5-0.1-3.5-0.1l0.1-2L608.2,677.7z
							"/>
						<g>
							<path class="st1" d="M741.9,687.4l-1.2,5.9c-2.5,9.6-7.9,32-15.7,53c-4.5,12-9.8,23.5-15.9,31.8c-4.1,5.6-8.1,9.9-12,13.1
								c-9.1,7.6-17.4,9.4-24.1,10.1c-1.3,0.1-2.5,0.2-3.6,0.3c-1.8,0.1-6.6,0.3-13.1,0.5h0c-4.9,0.1-10.8,0.3-17.2,0.5
								c-5.2,0.1-10.8,0.3-16.5,0.4c-5.7,0.1-11.5,0.3-17.2,0.4c-5.7,0.1-11.2,0.3-16.4,0.4c-16,0.4-28.4,0.6-29.6,0.6
								c-0.1,0-0.1,0-0.1,0c0,0,0.1,0,0.1,0c22-5.2,33-23.1,40-40.3c2.5-6.2,4.5-12.2,6.3-17.6c6.8-20.3,13.3-50.5,14.7-56.8
								c1.4-6.3-1.4-6.8-1.4-6.8s4.9-0.1,12.7-0.3c3.8-0.1,8.2-0.2,13.1-0.3c6.3-0.1,13.4-0.3,20.7-0.4c4.3-0.1,8.7-0.2,13.1-0.3
								c7.2-0.1,14.2-0.3,20.7-0.4c4.7-0.1,9.2-0.2,13.1-0.3c9.5-0.2,16-0.3,16.8-0.4c1.5-0.1,2.8-0.1,3.9-0.1
								c1.4,0,2.6,0.2,4.1,0.5C740,681.5,741.9,687.4,741.9,687.4z"/>
							<path class="st20" d="M644.7,682.3c-2.5,51.3-23.5,97-39.4,121c-5.7,0.1-11.2,0.3-16.4,0.4c6.1-7.7,15.2-21.9,23.7-42
								c8.2-19.4,17.3-47.4,19-79.1C635.4,682.5,639.8,682.4,644.7,682.3z"/>
							<path class="st20" d="M678.5,681.7c-2.6,51.3-23.6,97-39.5,120.8c-5.2,0.1-10.8,0.3-16.5,0.4c6.1-7.7,15.3-22,24-42.3
								c8.2-19.3,17.2-47.1,18.9-78.7C669.7,681.8,674.1,681.7,678.5,681.7z"/>
							<path class="st20" d="M712.3,681c-2.7,51-23.6,96.4-39.4,120.2c-1.3,0.1-2.5,0.2-3.6,0.3c-1.8,0.1-6.6,0.3-13.1,0.5
								c6.1-7.6,15.4-22,24.1-42.5c8.2-19.2,17.1-46.9,18.9-78.3C704,681.1,708.4,681,712.3,681z"/>
							<path class="st20" d="M741.9,687.4l-1.2,5.9c-4,15-14.9,61.8-31.7,84.8c-4.1,5.6-8.1,9.9-12,13.1c5.2-8,11.3-19,17.1-32.7
								c8.1-19.2,17.1-46.7,18.9-78c1.4,0,2.6,0.2,4.1,0.5C740,681.5,741.9,687.4,741.9,687.4z"/>
							<path class="st31" d="M725,746.2c-4.5,12-9.8,23.5-15.9,31.8c-4.1,5.6-8.1,9.9-12,13.1c-9.1,7.6-17.4,9.4-24.1,10.1
								c-1.3,0.1-2.5,0.2-3.6,0.3c-1.8,0.1-6.6,0.3-13.1,0.5h0c-4.9,0.1-10.8,0.3-17.2,0.5c-5.2,0.1-10.8,0.3-16.5,0.4
								c-5.7,0.1-11.5,0.3-17.2,0.4c-5.7,0.1-11.2,0.3-16.4,0.4c-16,0.4-28.4,0.6-29.6,0.6l0,0c22-5.2,33-23.1,40-40.3
								c4.2,1.8,8.9,3.1,11.2,3.7c17,4.4,35.2,4.4,52.5,2.1c18.8-2.4,38.6-9,54.7-19C720,749.4,722.5,747.9,725,746.2z"/>
						</g>
						<path class="st22" d="M562.9,833.5c0,0,47.2-148.7,47.5-149.6c0.3-0.9,0.6-1.9,0.2-2.7c-0.4-0.8-1.6-2.6-1.9-3.1
							c-0.5-0.7-1.2-0.5-1.9,1.8l-47.4,150.9c0,0-0.2,0.5-0.8,2.1c-0.5,1.6-0.8,3.1-0.5,4c0.4,0.9,1.2,2.3,1.5,2.9
							c0.3,0.5,1.1,0.8,1.6-0.8C561.8,837.4,562.9,833.5,562.9,833.5z"/>
						<g>
							
								<linearGradient id="SVGID_11_" gradientUnits="userSpaceOnUse" x1="3972.8379" y1="821.4136" x2="4009.7222" y2="821.4136" gradientTransform="matrix(1 0 0 1 -3392.6113 0)">
								<stop  offset="0" style="stop-color:#CA6C21"/>
								<stop  offset="0.1389" style="stop-color:#D07630"/>
								<stop  offset="0.3413" style="stop-color:#D67F3E"/>
								<stop  offset="0.588" style="stop-color:#DA8446"/>
								<stop  offset="1" style="stop-color:#DB8649"/>
							</linearGradient>
							<path class="st32" d="M580.2,752.4c0,0,3.6,0,4.4,0c0.8,0,1.2,0.6,1.6,2.2c0.4,1.5,30.6,130.5,30.6,130.5
								c0.2,1,0.4,1.9,0.3,2.6c-0.1,0.7-1,1.8-1.5,2.3c-0.5,0.5-0.7,0.5-1.8,0.5c-1.1,0-5.1-0.3-5.1-0.3L580.2,752.4z"/>
							<path class="st22" d="M578.9,761.3c0,0,27.9,122.1,28.4,124.3c0.5,2.2,0.9,4.5,1.4,4.5c0.5,0,3.3-2.1,3.3-3
								c0-0.9-30-130.9-30.2-131.8c-0.2-0.9-1.1-3.2-1.7-3c-0.6,0.1-1.9,1.8-2.1,2.3c-0.2,0.5-0.3,1.4,0,2.9
								C578.3,759,578.9,761.3,578.9,761.3z"/>
						</g>
					</g>
				</g>
				<path class="st10" d="M581.4,890.6c5.8-1.6,8.2-4.2,13.3-7c5.6-3,10.2-2.5,15.4-3.5c11.8-2.3,19,0.5,30.3,5.9
					c9.6,4.6,22.2,12,32.2,14.4c6.4,1.5,13.3-0.6,19.5,0c7.3,0.7,11,1.4,18.2-0.5c12.4-3.1,21.1,2.5,33.4-5.3
					c4.9-3.1,9.8-7.6,15.6-8c5.9-0.4,11.8,2.5,18.2,1.8c15.3-1.6,25.4,8.4,39.1,15.4l-262.9,2.5C562.9,899,569.5,894,581.4,890.6z"
					/>
				<g>
					<path class="st22" d="M312,897.1c0,0,2.1-1.1,7.4-2.8c5.3-1.7,8.9-6,11.7-7.4c2.8-1.5,103.1-98.2,103.1-98.2s1.6-1.6,2.2-2.2
						c0.6-0.5,0.7-1.5,0.6-2.3c0-0.9-0.3-2.7-0.3-3.5c0-0.8-0.5-1.5-1.4-0.7C434.4,780.8,312,897.1,312,897.1z"/>
					
						<linearGradient id="SVGID_12_" gradientUnits="userSpaceOnUse" x1="-1916.0233" y1="838.2073" x2="-1786.5271" y2="838.2073" gradientTransform="matrix(-1 0 0 1 -1480 0)">
						<stop  offset="0" style="stop-color:#CA6C21"/>
						<stop  offset="0.1389" style="stop-color:#D07630"/>
						<stop  offset="0.3413" style="stop-color:#D67F3E"/>
						<stop  offset="0.588" style="stop-color:#DA8446"/>
						<stop  offset="1" style="stop-color:#DB8649"/>
					</linearGradient>
					<path class="st33" d="M436,779.6c0,0-2.9-0.3-3.8-0.3c-1.1,0-1.6,0.5-2,0.9c-0.5,0.5-0.9,0.9-0.9,0.9l-122.8,116
						c2.4-0.5,5.5,0,5.5,0l123.6-115.3L436,779.6z"/>
					
						<linearGradient id="SVGID_13_" gradientUnits="userSpaceOnUse" x1="-1897.1847" y1="862.3693" x2="-1897.1847" y2="764.3357" gradientTransform="matrix(-1 0 0 1 -1480 0)">
						<stop  offset="0" style="stop-color:#CA6C21"/>
						<stop  offset="0.1389" style="stop-color:#D07630"/>
						<stop  offset="0.3413" style="stop-color:#D67F3E"/>
						<stop  offset="0.588" style="stop-color:#DA8446"/>
						<stop  offset="1" style="stop-color:#DB8649"/>
					</linearGradient>
					<path class="st34" d="M431.1,862.4c0,0-3.9-0.3-5,0l-22.7-92.9c0,0-0.5-1.7,0.2-2.9c0.4-0.6,0.8-1.3,1.1-1.5
						c0.3-0.2,0.7-0.7,1.3-0.7c0.6,0,4.3,0,4.3,0L431.1,862.4z"/>
					<path class="st22" d="M431.1,862.4c0,0-20.4-83.1-21.4-87.1c-0.3-1.4-0.8-3.6-1.4-6c0,0-0.5-2.3,0.2-3.1c0.7-0.8,1.5-2,2-1.7
						c0.5,0.2,0.8,0.7,1.1,2.2c0.3,1.5,23.1,95,23.1,95s-0.7,0-1.8,0.4C431.8,862.3,431.1,862.4,431.1,862.4z"/>
					<g>
						
							<linearGradient id="SVGID_14_" gradientUnits="userSpaceOnUse" x1="-1682.7648" y1="1793.2998" x2="-1622.9908" y2="1793.2998" gradientTransform="matrix(-0.9151 0.4032 0.7284 1.6534 -2423.1316 -1535.2292)">
							<stop  offset="0" style="stop-color:#CA6C21"/>
							<stop  offset="0.1389" style="stop-color:#D07630"/>
							<stop  offset="0.3413" style="stop-color:#D67F3E"/>
							<stop  offset="0.588" style="stop-color:#DA8446"/>
							<stop  offset="1" style="stop-color:#DB8649"/>
						</linearGradient>
						<path class="st35" d="M373.5,780.7c-0.1-0.2-0.1-0.4-0.2-0.6c-0.1-0.2-0.1-0.5-0.2-0.8c-0.5-1.8-0.9-3.6-1.2-5.5
							c0-0.1-0.1-1.4-0.2-2.2c9.6-6,33.6-21,34.5-21.4c1.1-0.5,11.5-1.5,13.2-2.3c1.7-0.8,2.1-0.1,2.1-0.1l-46.8,33.2
							C374.6,781.1,374.1,781,373.5,780.7z"/>
						<path class="st22" d="M376.2,787.8c-0.1-0.4-0.3-0.8-0.4-1.1c-0.7-1.8-1.4-3.6-2-5.4c-0.2-0.5-0.3-0.9-0.4-1.1
							c-0.1-0.2-0.1-0.5-0.2-0.8c0.5-0.2,1.3-0.6,2.4-1.2c2.6-1.6,44.8-29.6,45.6-30.1c0.8-0.5,1,0.1,1.5,1.1c0.5,1,1.9,4.3,2.3,5.3
							c0.4,1,0.5,1.5-0.8,2.4L378.4,787C378.4,787,377.2,787.9,376.2,787.8z"/>
					</g>
					<g>
						<path class="st20" d="M331.9,683c0,0,0.3,17,1.8,23.3c0,0-9-9.7-9.3-9.9c-0.3-0.3-0.7-11-0.8-11.2
							C323.4,684.9,331.9,683,331.9,683z"/>
						<path class="st22" d="M200.4,681.7c0-1.5,0.7-2.7,1.6-2.7l135.6,0.6l0.1,5.8l-135.7-1C201.1,684.4,200.4,683.2,200.4,681.7z"
							/>
						
							<linearGradient id="SVGID_15_" gradientUnits="userSpaceOnUse" x1="-1772.2837" y1="862.6378" x2="-1772.2837" y2="792.0804" gradientTransform="matrix(-1 0 0 1 -1480 0)">
							<stop  offset="0" style="stop-color:#CA6C21"/>
							<stop  offset="0.1389" style="stop-color:#D07630"/>
							<stop  offset="0.3413" style="stop-color:#D67F3E"/>
							<stop  offset="0.588" style="stop-color:#DA8446"/>
							<stop  offset="1" style="stop-color:#DB8649"/>
						</linearGradient>
						<path class="st36" d="M298.8,862.6c0,0,2.8,0,4.8-0.3l0.7-2.4l-18.5-67.9l-5.5,4.7L298.8,862.6z"/>
						<path class="st22" d="M307.6,861.3l-18.7-67.1l-4.6,1.2l19.4,66.9c0,0,1.6,0.1,2.3-0.5C306.5,861.4,307.6,861.3,307.6,861.3z"
							/>
						
							<linearGradient id="SVGID_16_" gradientUnits="userSpaceOnUse" x1="-1656.2722" y1="906.3439" x2="-1697.423" y2="756.8297" gradientTransform="matrix(-1 0 0 1 -1480 0)">
							<stop  offset="0" style="stop-color:#CA6C21"/>
							<stop  offset="0.1389" style="stop-color:#D07630"/>
							<stop  offset="0.3413" style="stop-color:#D67F3E"/>
							<stop  offset="0.588" style="stop-color:#DA8446"/>
							<stop  offset="1" style="stop-color:#DB8649"/>
						</linearGradient>
						<path class="st37" d="M219.5,746.4c0,0-1.6,0-2.4,0c-0.8,0-1.7,0.5-2.1,2.2c-0.4,1.7-33.7,124.3-34.2,126.2
							c-0.5,1.8-0.8,4.4,0,5.2c0.8,0.8,1.3,1.4,2.6,1.4c1.4,0,4.5,0,4.5,0l33.3-132.8L219.5,746.4z"/>
						<path class="st22" d="M219.9,748.6c0,0-34,125-34.5,126.7c-0.4,1.7-0.4,3.5,0,4.2c0.4,0.7,1.8,1.8,2.1,1.9
							c0.4,0,1.2-0.7,1.2-0.7l4.1-14.7l29.9-110.6L219.9,748.6z"/>
						<g>
							
								<linearGradient id="SVGID_17_" gradientUnits="userSpaceOnUse" x1="-1545.4995" y1="1752.1498" x2="-1479.1863" y2="1752.1498" gradientTransform="matrix(-0.9151 0.4032 0.7284 1.6534 -2423.1316 -1535.2292)">
								<stop  offset="0" style="stop-color:#CA6C21"/>
								<stop  offset="0.1389" style="stop-color:#D07630"/>
								<stop  offset="0.3413" style="stop-color:#D67F3E"/>
								<stop  offset="0.588" style="stop-color:#DA8446"/>
								<stop  offset="1" style="stop-color:#DB8649"/>
							</linearGradient>
							<path class="st38" d="M217.9,768c-0.1-0.2-0.1-0.4-0.2-0.6c-0.1-0.2-5.6,3-5.7,2.6c-0.5-1.8,4.6-7.1,4.3-9
								c0-0.1-0.1-1.4-0.2-2.2c9.6-6,33.6-21,34.5-21.4c1.1-0.5,11.5-1.5,13.2-2.3c1.7-0.8,2.1-0.1,2.1-0.1l-46.8,33.2
								C219.1,768.4,218.5,768.3,217.9,768z"/>
							<path class="st22" d="M212.4,782c-1.3-3.2,1-9.4,1.8-12.7c0.5-0.2,50.4-33.4,51.2-34c0.8-0.5,1,0.1,1.5,1.1
								c0.5,1,1.9,4.3,2.3,5.3c0.4,1,0.5,1.5-0.8,2.4C268.5,744.1,213.5,782.1,212.4,782z"/>
						</g>
						
							<linearGradient id="SVGID_18_" gradientUnits="userSpaceOnUse" x1="-1734.172" y1="752.4131" x2="-1673.1866" y2="752.4131" gradientTransform="matrix(-1 0 0 1 -1480 0)">
							<stop  offset="0" style="stop-color:#CA6C21"/>
							<stop  offset="0.1389" style="stop-color:#D07630"/>
							<stop  offset="0.3413" style="stop-color:#D67F3E"/>
							<stop  offset="0.588" style="stop-color:#DA8446"/>
							<stop  offset="1" style="stop-color:#DB8649"/>
						</linearGradient>
						<path class="st39" d="M248.8,831.3c0,0-54.7-149.7-55.2-151.1c-0.5-1.4-0.6-2.9-0.1-3.8c0.5-0.9,1.5-2,1.8-2.4
							c0.4-0.4,0.6-0.4,1.5-0.4c0.7,0,4.3,0.2,4.3,0.2l53,153.7L248.8,831.3z"/>
						<path class="st22" d="M252.5,828.8c0,0-53.5-147.9-54-149c-0.4-1.1-0.5-2.4-0.2-3.1c0.4-0.7,1.3-1.7,2-2.4
							c0.7-0.7,1.2-0.6,1.5,0.3l54.5,151.1L252.5,828.8z"/>
						
							<linearGradient id="SVGID_19_" gradientUnits="userSpaceOnUse" x1="-1777.4402" y1="846.2518" x2="-1653.4347" y2="846.2518" gradientTransform="matrix(-1 0 0 1 -1480 0)">
							<stop  offset="0" style="stop-color:#CA6C21"/>
							<stop  offset="0.1389" style="stop-color:#D07630"/>
							<stop  offset="0.3413" style="stop-color:#D67F3E"/>
							<stop  offset="0.588" style="stop-color:#DA8446"/>
							<stop  offset="1" style="stop-color:#DB8649"/>
						</linearGradient>
						<path class="st40" d="M288.7,797.1l-113.5,93.8c-1.1,0.9-1.9,1.6-1.8,2.9c0.1,1.3,0.2,2,0.5,3c0,0,0.5-0.1,1.5,0
							c1,0.1,1.7,0.2,2.5,0.2c0.8,0.1,2.4-0.2,2.4-0.2l0-2.3l117.1-99L288.7,797.1z"/>
						<path class="st22" d="M301.8,798l-112.7,94.7c0,0-7.4,4-8.8,4.1c-1.4,0.1-1.7-1.1-1.8-2c-0.1-1-0.1-2.1,0.7-2.8
							c0.8-0.7,113.5-94.9,113.5-94.9L301.8,798z"/>
						
							<linearGradient id="SVGID_20_" gradientUnits="userSpaceOnUse" x1="-1869.1903" y1="755.7482" x2="-1813.6564" y2="755.7482" gradientTransform="matrix(-1 0 0 1 -1480 0)">
							<stop  offset="0" style="stop-color:#CA6C21"/>
							<stop  offset="0.1389" style="stop-color:#D07630"/>
							<stop  offset="0.3413" style="stop-color:#D67F3E"/>
							<stop  offset="0.588" style="stop-color:#DA8446"/>
							<stop  offset="1" style="stop-color:#DB8649"/>
						</linearGradient>
						<path class="st41" d="M341.3,674.5c0,0-3.7,0-4.5,0c-0.7,0-1,0-1.4,0.6c-0.5,0.6-1,1.4-1.4,2.1c-0.4,0.7-0.5,1.9,0.2,4.1
							c0.6,2.2,48.6,153.1,48.6,153.1c0.3,0.8,0.7,1.9,0.9,2.2c0.2,0.3,0.2,0.4,2,0.4c1.9,0,3.5-0.1,3.5-0.1l-0.1-2L341.3,674.5z"/>
						<g>
							<path class="st1" d="M207.5,684.1l1.2,5.9c2.5,9.6,7.9,32,15.7,53c4.5,12,9.8,23.5,15.9,31.8c4.1,5.6,8.1,9.9,12,13.1
								c9.1,7.5,17.4,9.4,24.1,10.1c1.3,0.1,2.5,0.2,3.6,0.3c1.8,0.1,6.6,0.3,13.1,0.5h0c4.9,0.1,10.8,0.3,17.2,0.5
								c5.2,0.1,10.8,0.3,16.5,0.4c5.7,0.1,11.5,0.3,17.2,0.4c5.7,0.1,11.2,0.3,16.4,0.4c16,0.4,28.4,0.6,29.6,0.6
								c0.1,0,0.1,0,0.1,0c0,0-0.1,0-0.1,0c-22-5.2-33-23.1-40-40.3c-2.5-6.2-4.5-12.2-6.3-17.6c-6.8-20.3-13.3-50.5-14.7-56.8
								c-1.4-6.3,1.4-6.8,1.4-6.8s-4.9-0.1-12.7-0.3c-3.8-0.1-8.2-0.2-13.1-0.3c-6.3-0.1-13.4-0.3-20.7-0.4
								c-4.3-0.1-8.7-0.2-13.1-0.3c-7.2-0.1-14.2-0.3-20.7-0.4c-4.7-0.1-9.2-0.2-13.1-0.3c-9.5-0.2-16-0.3-16.8-0.4
								c-1.5-0.1-2.8-0.1-3.9-0.1c-1.4,0-2.6,0.2-4.1,0.5C209.5,678.2,207.5,684.1,207.5,684.1z"/>
							<path class="st9" d="M304.8,679.1c2.5,51.3,23.5,97,39.4,121c5.7,0.1,11.2,0.3,16.4,0.4c-6.1-7.7-15.2-21.9-23.7-42
								c-8.2-19.4-17.3-47.4-19-79.1C314.1,679.2,309.6,679.2,304.8,679.1z"/>
							<path class="st9" d="M270.9,678.4c2.6,51.3,23.6,97,39.5,120.8c5.2,0.1,10.8,0.3,16.5,0.4c-6.1-7.7-15.3-22-24-42.3
								c-8.2-19.3-17.2-47.1-18.9-78.7C279.7,678.6,275.3,678.5,270.9,678.4z"/>
							<path class="st9" d="M237.1,677.7c2.7,51,23.6,96.4,39.4,120.2c1.3,0.1,2.5,0.2,3.6,0.3c1.8,0.1,6.6,0.3,13.1,0.5
								c-6.1-7.6-15.4-22-24.1-42.5C261,737,252,709.4,250.2,678C245.5,677.9,241,677.8,237.1,677.7z"/>
							<path class="st9" d="M207.5,684.1l1.2,5.9c4,15,14.9,61.8,31.7,84.8c4.1,5.6,8.1,9.9,12,13.1c-5.2-8-11.3-19-17.1-32.7
								c-8.1-19.2-17.1-46.7-18.9-78c-1.4,0-2.6,0.2-4.1,0.5C209.5,678.2,207.5,684.1,207.5,684.1z"/>
							<path class="st31" d="M224.5,743c4.5,12,9.8,23.5,15.9,31.8c4.1,5.6,8.1,9.9,12,13.1c9.1,7.5,17.4,9.4,24.1,10.1
								c1.3,0.1,2.5,0.2,3.6,0.3c1.8,0.1,6.6,0.3,13.1,0.5h0c4.9,0.1,10.8,0.3,17.2,0.5c5.2,0.1,10.8,0.3,16.5,0.4
								c5.7,0.1,11.5,0.3,17.2,0.4c5.7,0.1,11.2,0.3,16.4,0.4c16,0.4,28.4,0.6,29.6,0.6l0,0c-22-5.2-33-23.1-40-40.3
								c-4.2,1.8-8.9,3.1-11.2,3.7c-17,4.4-35.2,4.4-52.5,2.1c-18.8-2.4-38.6-9-54.7-19C229.5,746.1,227,744.6,224.5,743z"/>
						</g>
						<path class="st22" d="M386.5,830.2c0,0-47.2-148.7-47.5-149.6c-0.3-0.9-0.6-1.9-0.2-2.7c0.4-0.8,1.6-2.6,1.9-3.1
							c0.5-0.7,1.2-0.5,1.9,1.8l47.4,150.9c0,0,0.2,0.5,0.8,2.1c0.5,1.6,0.8,3.1,0.5,4c-0.4,0.9-1.2,2.3-1.5,2.9
							c-0.3,0.5-1.1,0.8-1.6-0.8C387.7,834.1,386.5,830.2,386.5,830.2z"/>
						<g>
							
								<linearGradient id="SVGID_21_" gradientUnits="userSpaceOnUse" x1="-1849.2175" y1="818.1379" x2="-1812.3331" y2="818.1379" gradientTransform="matrix(-1 0 0 1 -1480 0)">
								<stop  offset="0" style="stop-color:#CA6C21"/>
								<stop  offset="0.1389" style="stop-color:#D07630"/>
								<stop  offset="0.3413" style="stop-color:#D67F3E"/>
								<stop  offset="0.588" style="stop-color:#DA8446"/>
								<stop  offset="1" style="stop-color:#DB8649"/>
							</linearGradient>
							<path class="st42" d="M369.2,749.1c0,0-3.6,0-4.4,0c-0.8,0-1.2,0.6-1.6,2.2c-0.4,1.5-30.6,130.5-30.6,130.5
								c-0.2,1-0.4,1.9-0.3,2.6c0.1,0.7,1,1.8,1.5,2.3c0.5,0.5,0.7,0.5,1.8,0.5c1.1,0,5.1-0.3,5.1-0.3L369.2,749.1z"/>
							<path class="st22" d="M370.6,758.1c0,0-27.9,122.1-28.4,124.3c-0.5,2.2-0.9,4.5-1.4,4.5c-0.5,0-3.3-2.1-3.3-3
								c0-0.9,30-130.9,30.2-131.8c0.2-0.9,1.1-3.2,1.7-3c0.6,0.1,1.9,1.8,2.1,2.3c0.2,0.5,0.3,1.4,0,2.9
								C371.1,755.7,370.6,758.1,370.6,758.1z"/>
						</g>
					</g>
					<path class="st22" d="M187.9,872.6c0-1.5,0.7-2.7,1.6-2.7l145.9,5.3v5.4l-145.9-5.3C188.6,875.3,187.9,874.1,187.9,872.6z"/>
				</g>
				<path class="st10" d="M308.7,890.4c5.8-1.2,8.2-3.2,13.3-5.3c5.6-2.3,10.2-1.9,15.4-2.6c11.8-1.7,19,0.4,30.3,4.5
					c9.6,3.5,22.2,9.1,32.2,10.9c6.4,1.2,13.3-0.5,19.5,0c7.3,0.6,11,1,18.2-0.3c12.4-2.4,21.1,1.9,33.4-4c4.9-2.4,9.8-5.8,15.6-6
					c5.9-0.3,11.8,1.9,18.2,1.4c15.3-1.2,25.4,6.4,39.1,11.6l-262.9,1.9C290.2,896.7,296.8,892.9,308.7,890.4z"/>
				<path class="st10" d="M421.6,861.7c3.7-3.1,4.4-2.7,8.4-2.1c6.9,1,14.3,2.4,20.9,5.9l-38.8,3.8
					C413.3,867.3,419.3,863.7,421.6,861.7z"/>
				<path class="st10" d="M288.2,861c3.7-3.1,4.4-2.7,8.4-2.1c6.9,1,14.3,2.4,20.9,5.9l-38.8,3.8C279.9,866.5,285.8,862.9,288.2,861
					z"/>
				<path class="st10" d="M161.6,892.1c6.2-5.1,7.2-4.5,13.9-3.5c11.4,1.7,23.5,4,34.4,9.6l-63.9,6.3
					C148,901.3,157.7,895.3,161.6,892.1z"/>
				<path class="st43" d="M228.9,857.6c11.1,6.1,23.7,11.2,28.7,13.9c65.5,34.3,163.5,36.6,235.5,36.6c72.3,0,128.6-7.1,198.6-21
					c12.8-2.5,53.6-5.6,63.1-19.8c-0.5-0.2-0.9-0.4-1.4-0.5c-6.2-2.4-12.5-4.1-18.8-5.2c-2-0.4-3.9-0.7-5.9-1
					c-1.4-0.2-2.8-0.4-4.2-0.5c-2.6-0.3-5.2-0.5-7.8-0.7c-21-1.4-42.5,0.2-63.4-2.9c-1.5-0.2-3-0.5-4.6-0.8c-0.5-0.1-1-0.2-1.4-0.3
					c-0.9-0.2-1.8-0.4-2.7-0.6c-1.4-0.3-2.7-0.6-4.1-1c-11.6-3-22.6-6.7-33.4-10.2c-1.8-0.6-3.6-1.1-5.4-1.7c-1.1-0.3-2.1-0.7-3.2-1
					c-0.5-0.2-1-0.3-1.6-0.5c-4.5-1.3-8.9-2.5-13.4-3.6c-3.3-0.8-6.6-1.5-9.9-2h0c-1.9-0.3-3.9-0.6-5.8-0.9h0c-0.1,0-0.1,0-0.2,0
					c-0.5-0.1-1-0.1-1.5-0.2c0,0-0.1,0-0.1,0c-1-0.1-2.1-0.2-3.2-0.3c-0.4,0-0.7-0.1-1.1-0.1c-1.1-0.1-2.2-0.2-3.3-0.2
					c-0.1,0-0.2,0-0.4,0c-7.4-0.4-15.1-0.1-23.2,1.1c-1.4,0.2-2.7,0.4-4.1,0.6c-1.7,0.3-3.5,0.5-5.2,0.8c-0.3,0-0.7,0.1-1,0.2
					c-1,0.1-2,0.3-3,0.5c-4.2,0.7-8.5,1.4-12.8,2.1c-6.4,1-12.9,2.1-19.3,3.2c-19.1,3.2-38.4,6.3-57.6,8.9c-1.1,0.1-2.2,0.3-3.3,0.4
					c-0.1,0-0.3,0-0.4,0c-1.6,0.2-3.2,0.4-4.9,0.6c-5.5,0.7-10.9,1.3-16.3,1.8c-11.2,1.1-22.1,0.8-32.9-0.2
					c-2.2-0.2-4.3-0.4-6.5-0.7c-2.3-0.3-4.7-0.6-7-0.9c-0.3,0-0.5-0.1-0.8-0.1c-0.6-0.1-1.2-0.2-1.9-0.2c-0.9-0.1-1.8-0.2-2.7-0.4
					c-2-0.3-3.9-0.5-5.9-0.8c-0.4-0.1-0.8-0.1-1.1-0.2c-1.1-0.2-2.1-0.3-3.2-0.5c-1.6-0.2-3.2-0.5-4.9-0.7
					c-12.4-1.7-24.7-3.1-37.1-2.9c-0.9,0-1.9,0-2.8,0.1c-0.5,0-1.1,0-1.6,0.1c-1.5,0.1-3.1,0.2-4.6,0.3c-0.9,0.1-1.7,0.1-2.6,0.2
					c-21.1,2.1-40.5,6.7-60.2,10.7C230.6,857.3,229.8,857.5,228.9,857.6z"/>
			</g>
		</g>
		<g>
			<g>
				<polygon class="st44" points="460.8,878.6 466.5,878.6 397,410.5 390,412.1 				"/>
				<g>
					<path class="st45" d="M416.9,387.7c29.5-16.5,59.8-4,90.5,4.8l-165.8,42.7C364.4,416.4,389.8,402.8,416.9,387.7z"/>
					<path class="st46" d="M293.9,463.1c7.5-14.4,32.7-37.7,47.2-45c13.9-7,20.3-4.1,35.2-2.8c12.4,1.1,29.1,6.4,36.3,4.7
						l-134.3,64.2C284.9,479.7,288.9,472.8,293.9,463.1z"/>
					<path class="st46" d="M605.3,415.8c0,0,1.6,29,3.3,43c2.3,18.4,9.1,40.6,18.7,56.8l-23.9-0.4c-16.1-8.3-31-24.1-46.5-34.9
						c-21.9-15.4-45.2-27.5-69.6-38.8c-34.7-16.1-76.6-19.7-113.1-18.7C472.5,360.2,605.3,415.8,605.3,415.8z"/>
					<path class="st45" d="M207.7,552.4l1.1,86.2c0,0,29.9-39.6,31.1-20.8l14,3.2c8.6-15.9,11.9-37.4,18.4-55.1
						c9.3-25.1,21.6-48.2,35.3-71.5c19.4-33,51.9-59.7,82.5-79.6C284.6,427.7,207.7,552.4,207.7,552.4z"/>
					<path class="st46" d="M214.8,599.3c10.8-37.6,32.6-73.9,59.9-101.5c32.6-33.1,58.6-56.3,100.4-77.4l15.1,36.5
						c2.1,16.7-1.3,35.6-0.5,52.7c0.9,18.6,17.5,33.9,20,52.4c4,30-1.2,54.4,8.9,84.2c-45.7-31.6-120.5-43.3-209.6-7.6
						C210.4,627.9,211.7,610,214.8,599.3z"/>
					<path class="st45" d="M381,527.7c-9.8-58.8-7.3-106.7-7.3-106.7c34-12.2,93.8-0.9,128.2,11.4c23.9,8.5,47.7,15.9,68.9,30.5
						c16.3,11.2,48,35.3,56.6,52.6c-39,6.9-132.9,24.2-208.8,130.7C403.1,613.4,386.9,563.2,381,527.7z"/>
					<path class="st47" d="M363.4,420.4c0.8-15.7,22.2-18.7,26.2-5.8C394.1,429,362.5,437.4,363.4,420.4z"/>
				</g>
			</g>
		</g>
	</g>
</g>
</svg>
