<?xml version="1.0" encoding="utf-8"?>
<!-- Generator: Adobe Illustrator 24.2.1, SVG Export Plug-In . SVG Version: 6.00 Build 0)  -->
<svg version="1.1" xmlns="http://www.w3.org/2000/svg" xmlns:xlink="http://www.w3.org/1999/xlink" x="0px" y="0px"
	 viewBox="0 0 750 500" style="enable-background:new 0 0 750 500;" xml:space="preserve">
<style type="text/css">
	.st0{fill:#FFFFFF;}
	.st1{fill:#BDCAE0;}
	.st2{fill:#CDDCF4;}
	.st3{fill:#B0BDD1;}
	.st4{fill:#DBE9FF;}
	.st5{fill:#F6A397;}
	.st6{fill:#D65863;}
	.st7{fill:#5470D3;}
	.st8{fill:#314EC6;}
	.st9{fill:#504984;}
	.st10{fill:#372D5B;}
	.st11{fill:#BA6454;}
	.st12{fill:#874438;}
	.st13{fill:#3F1751;}
	.st14{fill:#BA5E5B;}
	.st15{fill:#FFA6A4;}
	.st16{fill:#E67471;}
	.st17{fill:#282142;}
	.st18{fill:#7F74D1;}
	.st19{fill:#8E5058;}
	.st20{fill:#64364A;}
	.st21{clip-path:url(#SVGID_2_);}
	.st22{fill:#FFC5C7;}
	.st23{fill:#DCEDFF;}
	.st24{fill:#FE8A8B;}
	.st25{fill:#0C0835;}
	.st26{fill:#252384;}
	.st27{fill:#57AFF7;}
	.st28{fill:#C31F2A;}
	.st29{fill:#FB8384;}
	.st30{fill:#D1C8D9;}
	.st31{font-family:'BebasKai';}
	.st32{font-size:20.4596px;}
</style>
<g id="BACKGROUND">
	<rect class="st0" width="750" height="500"/>
</g>
<g id="OBJECTS">
	<path class="st1" d="M671.7,370.7c-26,39.5-70.6,62.7-117.9,62.7H161.6c-78.8,0-123.1-92.2-71.9-144.1c51.1-51.9,6-96.2,84.8-137.9
		c76.4-40.3,102.5,45.6,172.9-10.6c70.4-56.2,172.9-50.9,195.4,6.4c22.5,57.3,17.2,77.5,65,90.2c47.8,12.7,94.4,84.9,65.8,130.5
		C672.9,368.9,672.3,369.8,671.7,370.7z"/>
	<g>
		<g>
			<path class="st2" d="M654.3,386.7c-41.3,3.5-69.2,81-172.5,34.4c0,0,11.3-33.8,62.2-54.9C594.7,345.2,654.3,386.7,654.3,386.7z"
				/>
			<path class="st3" d="M495.9,415.3c10.8-5.6,22-10.4,33.4-14.6c2.8-1.1,5.7-2.1,8.6-3c2.9-1,5.8-1.9,8.7-2.8
				c2.9-0.9,5.9-1.7,8.8-2.5c1.5-0.4,2.9-0.8,4.4-1.2l4.4-1.1l4.5-1l4.5-0.9l4.5-0.9c1.5-0.3,3-0.5,4.5-0.7c3-0.4,6-1,9.1-1.2
				c3-0.3,6.1-0.8,9.1-0.9c12.2-0.9,24.5-0.7,36.5,1.3c-12.2-0.3-24.2,0.4-36.2,1.9l-2.2,0.3l-2.2,0.3l-4.5,0.7
				c-3,0.4-5.9,1-8.9,1.5c-1.5,0.3-3,0.5-4.4,0.8l-4.4,0.9l-4.4,0.9l-4.4,1.1l-4.4,1c-1.5,0.4-2.9,0.7-4.4,1.1l-4.4,1.1
				c-1.5,0.4-2.9,0.8-4.4,1.2c-2.9,0.8-5.8,1.6-8.7,2.5c-2.9,0.9-5.8,1.7-8.7,2.6C518.8,407.3,507.3,411.3,495.9,415.3z"/>
		</g>
		<g>
			<path class="st4" d="M659.3,254.9c-50.4,36-27.1,156.8-195.4,175.8c0,0-11.2-52.1,38-118C551.1,246.9,659.3,254.9,659.3,254.9z"
				/>
			<path class="st2" d="M475.1,416.2c7.3-15.9,16.4-31,26.6-45.3c10.2-14.3,21.6-27.8,34-40.3c12.4-12.5,25.9-24,40.5-33.9
				c14.5-9.9,30.2-18.5,46.9-23.8c-15.5,8.1-29.9,17.8-43.5,28.4c-13.6,10.7-26.5,22.2-38.6,34.5c-12.2,12.2-23.7,25.2-34.6,38.6
				C495.4,387.8,485.1,401.8,475.1,416.2z"/>
		</g>
		<g>
			<path class="st2" d="M115.4,376c41,6.4,63.3,85.6,169.6,46.5c0,0-8.9-34.5-58.1-59.1C177.7,338.7,115.4,376,115.4,376z"/>
			<path class="st3" d="M271.4,415.6c-11.2-4.8-22.3-9.6-33.5-14c-2.8-1.1-5.6-2.1-8.5-3.2c-2.8-1.1-5.7-2.1-8.5-3.1
				c-1.4-0.5-2.8-1-4.3-1.5l-4.3-1.4c-1.4-0.5-2.9-1-4.3-1.4l-4.3-1.3l-4.3-1.4l-4.3-1.2l-4.3-1.2c-1.4-0.4-2.9-0.7-4.4-1.1
				c-2.9-0.7-5.8-1.5-8.8-2.1l-4.4-1l-2.2-0.5l-2.2-0.4c-11.8-2.3-23.8-3.9-35.9-4.4c12.1-1.2,24.4-0.5,36.5,1.2c3,0.3,6,1,9,1.5
				c3,0.5,6,1.2,9,1.9c1.5,0.3,3,0.7,4.5,1.1l4.4,1.2l4.4,1.2l4.4,1.3l4.4,1.4c1.4,0.5,2.9,1,4.3,1.5c2.9,1,5.8,2,8.6,3.1
				c2.8,1.1,5.7,2.2,8.5,3.4c2.8,1.2,5.6,2.3,8.4,3.6C250.2,403.7,261,409.3,271.4,415.6z"/>
		</g>
		<g>
			<path class="st4" d="M142.6,249.4c45.4,37.6,15.2,150.5,173.5,179.8c0,0,14.1-48.7-28.1-114.4C245.8,249,142.6,249.4,142.6,249.4
				z"/>
			<path class="st2" d="M306.5,414.6c-8.6-14.3-17.4-28.2-26.8-41.7c-9.5-13.5-19.5-26.5-30.3-38.9c-10.7-12.4-22.1-24.2-34.3-35.3
				c-12.2-11-25.2-21.1-39.3-30c15.5,6.1,29.8,15.2,43,25.6c13.2,10.4,25.2,22.2,36.1,34.9c10.9,12.7,20.8,26.3,29.5,40.6
				C293.1,384.1,300.7,399,306.5,414.6z"/>
		</g>
	</g>
	<g>
		<g>
			<path class="st5" d="M409.7,354.5c-5.7,6.7-10.8,17.9-14,19.7c-3.2,1.8-8.6,2.4-13.7,18.8c-5.1,16.4,20.6,14.2,20.6,14.2
				s11-6.3,15.4-21.6l11-9.8L409.7,354.5z"/>
			<path class="st6" d="M389.8,405.4c0,0,8.3-2.7,15.4-10.2c7.1-7.5,8-20.8,8-20.8l3.4,6.3l6.8-7.3l3.3-0.3l2.4,2.7l-11,9.8
				c-4.4,15.3-15.4,21.6-15.4,21.6s-7.1,0.6-13.1-1.2C389.6,405.6,389.8,405.4,389.8,405.4z"/>
			<path class="st7" d="M448.2,295.8c-7.9,5.8-12.6,9.9-16.5,17.8c-3.9,7.8-28.5,36-30,38.5c-1.6,2.5,13.8,29.1,26.1,35.7
				c0,0,18.6-21.4,29.3-29.5c10.7-8.1,7.1-36.8,2.1-46.5C454.2,302.1,448.2,295.8,448.2,295.8z"/>
			<path class="st8" d="M447.9,347.6v-16c0,0,2.1-0.8,3.7,4.6c0.7,2.2,0.6,4.4,0.3,6.4l12-9c0.5,10.1-1.1,20.3-6.8,24.6
				c-10.7,8.1-29.3,29.5-29.3,29.5c-3.2-1.7-6.5-4.7-9.8-8.3C425.5,371.9,439.9,357.4,447.9,347.6z"/>
			<path class="st5" d="M371.6,400.9c-2,0.6-3.6,1.6-3.6,4.2c0,2.6,0.4,6.7,1.4,8.3c1,1.6,6,2.6,6,2.6s-0.3-10.6-1.4-12.6
				C373,401.3,371.6,400.9,371.6,400.9z"/>
			<path class="st6" d="M369.4,413.3c-0.3-0.4-0.5-1.1-0.7-1.9c1.1,1.1,1.5,1.1,2.8,1.2l3.8,1.2c0.1,1.2,0.1,2,0.1,2
				S370.4,414.9,369.4,413.3z"/>
			<path class="st5" d="M376.4,397c-2.5,0.3-5,2.1-5,4.7s-0.9,9.8,0,10.9c0.9,1.2,5.2,4.4,6.7,4.7c1.5,0.3,4.1-0.2,3.7-1
				C381.6,415.5,376.4,397,376.4,397z"/>
			<path class="st6" d="M371.1,410.7c1.9,2.1,6.7,1.9,6.7,1.9s2.1,2.3,2.4,3c0.2,0.4,1,1,1.1,1.5c-0.8,0.3-2.2,0.4-3.1,0.2
				c-1.5-0.3-5.7-3.4-6.7-4.6L371.1,410.7C371.1,410.7,371.1,410.7,371.1,410.7z"/>
			<path class="st5" d="M385.8,392.7c-7.6,0.4-9.1,1.1-9.3,4.2c-0.3,3.1-0.1,12.2,0.9,14.5c1,2.3,1.5,4.4,2.8,5.6
				c1.2,1.2,3.1,1.2,3.1,1.2s4.2-6.1,4.4-11.3C387.7,401.9,385.8,392.7,385.8,392.7z"/>
			<path class="st6" d="M381.4,413.2c0.4-2.1,1.2-4.4,1.4-11.4c0-2.7,2.5,11.2,1.4,15c-0.5,0.9-0.9,1.5-0.9,1.5s-1.9,0-3.1-1.2
				c-1.2-1.2-1.8-3.3-2.8-5.6c-0.1-0.2-0.1-0.3-0.2-0.5C377.6,412.2,379.2,413.1,381.4,413.2z"/>
			<path class="st5" d="M402.5,408.4c-0.5,4.2-6,5.8-6.7,7.9c-0.6,2.1-0.2,4.1-1.2,4.6c-1.1,0.5-5.5-2-5.3-4.8c0,0-1.2,2.4-3.7,2.8
				c-2.6,0.4-3.2-1.4-2.8-4.3c0.4-2.8,0.4-4.3,0.3-7.7c-0.1-3.4-0.9-6.5,0.6-10.2c1.5-3.7,3.6-7,7.6-6.4c4.1,0.6,6.6,5.8,8.8,7.5
				C402.3,399.6,403,403.6,402.5,408.4z"/>
			<path class="st6" d="M389.2,416.1c0.2-5.4,0.5-9.8,0.5-10.7c0-0.9-0.3-6.6,1.8-6.9c0.3-0.1,4.8,2.8,4.9,4.7
				c0.1,1.9,0,5.4-1.4,6.3C393.6,410.5,389.2,416.1,389.2,416.1z"/>
		</g>
		<g>
			<path class="st7" d="M574.3,307.3c-8.1-10.3-10.9-11.3-19.2-16.2c-8.4-4.9-40-17.2-46.6-18.8c-6.5-1.6-32.9,10.7-41.5,14.6
				c-8.6,3.9-19.6,7.8-21.5,11.6c-6.3,12.8,6.1,30.9,6.2,68.8c0,19.9,4.6,64.6,4.6,64.6s99.5,0.2,100.9-1.9
				c1.4-2.1,4.9-73.5,6.6-88.1C565.5,327.3,574.3,307.3,574.3,307.3z"/>
			<g>
				<path class="st8" d="M445.8,318.5c-0.7-2.4-1.2-4.8-1.6-7.3c-0.3-2.5-0.6-4.9-0.6-7.4c0.7,2.4,1.2,4.8,1.6,7.3
					C445.6,313.5,445.9,316,445.8,318.5z"/>
			</g>
			<path class="st8" d="M483.1,303.6c-3.8-1.4-13,1.1-14.6,1.6c-1.7,0.6,1-6.5,2-7.4c1-0.9,2.5-2.9,5.5-2c3,0.9,5.5,4.4,6,5.5
				C482.3,302.4,483.1,303.6,483.1,303.6z"/>
			<path class="st8" d="M515.1,309.5c-1.4-0.1-9.4-3.7-11.3-4.7s-10.6-1.3-16.4,0.3c0,0,11.2-7.6,17.7-7.5c6.5,0.1,9,2.4,9.5,4.5
				C515.2,304.2,515.1,309.5,515.1,309.5z"/>
			<path class="st8" d="M472.3,415.9c1.1-1,66,1,67.4-5.7c1.3-6.8,2.2-19.1,2.2-19.1c-7.8,4.2-19.2,2.4-19.2,2.4
				c7.6-2.5,18.5-14.9,19.1-18.6c1.6-11.3-4.4-42.3-4.4-42.3l4.4-8.9l5.2-2.9c0,0,9.8,4.9,18.1,13.8c-0.6,2.5-1,4.9-1.3,7.2
				c-1.6,13.8-4.8,78-6.4,87.1c-20.1,0.7-56.6,2.1-81,2.9c-11.8,0-20.1,0-20.1,0s-0.2-5.9-0.5-14.3
				C462.6,417.2,471.7,416.6,472.3,415.9z"/>
			<path class="st7" d="M485.5,305.5c7-0.8,18.3-6.9,22.7-4.8c4.4,2.1,5.5,7.4,6.4,8.4s4.8-3.7,4.8-14.9c0-11.2,0.3-22.7-7.9-24.3
				c-8.3-1.6-29.7,6.5-34,9.8c-4.3,3.3-6.1,6.6-7.3,9.7c-1.2,3.2-4.3,16-2.9,16.1c1.4,0.1,5.5-8.2,8.5-8.5
				C478.8,296.7,483.6,305.7,485.5,305.5z"/>
			<path class="st8" d="M481.5,295.4c-1.8-4.2-3.7-8-3.7-10.9c0.1-2.9,0.7-5,4-5.9c3.3-0.9,4.6,0.8,4.8,5.3
				C486.8,288.4,481.5,295.4,481.5,295.4z"/>
			<path class="st8" d="M507.1,287.5c6.8-6.2,7.6-13.1,7-14.5c-0.6-1.4-3.5-2.5-3.5-2.5s-1.1,4.5-0.5,5.6
				C510.8,277.2,507.1,287.5,507.1,287.5z"/>
			<g>
				<path class="st8" d="M496.3,302.5c1.7-0.7,3.4-1.3,5.2-1.8c1.8-0.4,3.6-0.8,5.5-0.7c0.9,0.1,1.9,0.3,2.8,0.9
					c0.7,0.7,1.3,1.3,1.9,2c1.2,1.4,2.1,3.1,2.9,4.7c0.2,0.4,0.4,0.8,0.6,0.8c0,0,0,0,0.1-0.1c0.1-0.1,0.3-0.2,0.4-0.4
					c0.5-0.7,0.9-1.5,1.3-2.3c0.8-1.6,1.3-3.3,1.6-5.1c0.3-1.8,0.5-3.6,0.7-5.4c0.2-1.8,0.2-3.6,0.2-5.4c0.4,3.6,0.4,7.3-0.1,10.9
					c-0.2,1.8-0.7,3.7-1.5,5.4c-0.4,0.8-0.8,1.7-1.4,2.4c-0.2,0.2-0.3,0.4-0.6,0.6c-0.1,0.1-0.3,0.2-0.5,0.2c-0.2,0-0.5,0-0.6-0.1
					c-0.4-0.2-0.5-0.4-0.7-0.7c-0.1-0.2-0.3-0.4-0.4-0.6c-0.8-1.7-1.6-3.2-2.7-4.6c-0.6-0.7-1.2-1.4-1.8-2c-0.6-0.5-1.4-0.7-2.3-0.8
					c-1.7-0.2-3.6,0-5.3,0.4C499.7,301.5,498,301.9,496.3,302.5z"/>
			</g>
			<g>
				<path class="st8" d="M480.2,300.1c-0.8-0.7-1.5-1.3-2.3-1.9c-0.4-0.3-0.8-0.5-1.2-0.7c-0.2-0.1-0.4-0.1-0.6-0.2
					c-0.1,0-0.2,0-0.2,0c-0.1,0-0.1,0-0.2,0.1c-1.7,1-3,2.5-4.1,4.1c-0.6,0.8-1.1,1.7-1.7,2.5c-0.3,0.4-0.7,0.8-1.1,1.1
					c-0.2,0.2-0.5,0.4-0.9,0.4c-0.2,0-0.5-0.1-0.7-0.2c-0.2-0.2-0.3-0.3-0.3-0.5c-0.2-0.6-0.1-1.1-0.1-1.7c0.1-0.5,0.2-1,0.3-1.5
					c0.2-1,0.5-2,0.9-2.9c-0.1,1-0.3,2-0.4,3c-0.1,0.5-0.1,1-0.1,1.5c0,0.5,0,1,0.2,1.3c0,0.1,0.1,0.1,0.1,0.1c0,0,0,0,0,0
					c0.1,0,0.3-0.1,0.4-0.3c0.3-0.3,0.6-0.7,0.9-1c0.6-0.8,1.1-1.6,1.7-2.5c0.6-0.8,1.2-1.7,2-2.4c0.8-0.7,1.6-1.3,2.5-1.8
					c0.1-0.1,0.3-0.1,0.5-0.2c0.2,0,0.3,0,0.5,0c0.3,0.1,0.6,0.2,0.8,0.3c0.5,0.3,0.9,0.6,1.3,0.9
					C478.9,298.6,479.6,299.3,480.2,300.1z"/>
			</g>
			<path class="st5" d="M480.6,269.9c0,2.8,0.1,5.5,0.4,8.3c0.7,6.7,0,15.6,0.5,17.3c0.6,1.8,4.1,8.4,4.1,8.4s6.3-2.9,8.9-6
				s6-3.3,10.6-7.9c4.6-4.6,7.7-12,6.7-18.1c-0.1-0.8-0.9-8.6-1.1-16.7c-0.2-8.1-8.7-14.2-16.8-14.2c-8.1,0-12.9,12-13.2,20.1
				C480.6,264.3,480.5,267.4,480.6,269.9z"/>
			<path class="st6" d="M510.6,255.1c0.2,8.1,1,15.9,1.1,16.7c0.3,1.9,0.2,3.9-0.2,5.9c-1.8,0.3-24.8,0.9-30.8-1.9
				c-0.1-2-0.2-3.9-0.2-5.9c0-2.5,0-5.6,0.1-9c0.1-3.4,1-7.6,2.7-11.2l19-6.7C507,245.5,510.5,249.9,510.6,255.1z"/>
		</g>
		<g>
			<path class="st9" d="M466.4,221.4c-12.3,0-16.8,9.4-16.8,16.5c0,6.3,2,16.5,16.8,16.5c7.4,0,12.4-7.4,12.4-16.5
				C478.8,228.8,473.8,221.4,466.4,221.4z"/>
			<path class="st10" d="M465.8,225.4c-9.3,0-12.7,7.1-12.7,12.4c0,4.8,1.5,12.4,12.7,12.4c5.6,0,9.4-5.6,9.4-12.4
				C475.2,231,471.4,225.4,465.8,225.4z"/>
			<path class="st5" d="M450.9,226.9c0.7,4.3,2.8,5.9,3.8,11.7c0.9,5.8-1.6,14.2,2.2,21.5c3.8,7.3,9.9,17,13.4,17.4
				c3.5,0.4,31.8-4.4,41.3-23.3c2.7-5.4,8.6-26.8,3.6-39.8c-5-13-13.1-25-31.9-25.3C464.4,188.8,447.1,204.2,450.9,226.9z"/>
			<path class="st6" d="M466.6,250.4c1,0,2.1-0.4,2.6-1c0.4-0.6,0.6-1.3,0.5-2c-1.5,1.2-3.3,1.4-5.1,1.1
				C464.4,249.8,465.5,250.4,466.6,250.4z"/>
			<path class="st11" d="M499.9,226.9c-0.7-4.5-3.7-7-3.7-7s-7.2-3-12.7-3.5c-5.6-0.5-11.3-2.2-11.3-2.2s1.8,4.5,4.7,6.4
				c0,0-13.3-0.7-17.5-4.6c0,0,0.8,3.2,1.6,5.4c0,0-6.5-0.7-8.5-3.2c0,0-1.6,5.7-1.6,8.8c0,0-7.8-10.7-5.8-19.2
				c2-8.5,4.7-11.8,4.7-11.8s-5.6,0.5-8.7,0c0,0,7.2-6.3,12.7-10.5c5.4-4.2,21.7-4.3,21.7-4.3s-1.3-4.3,0.2-11.2
				c0,0,7,10.2,14.3,13.3s6.4,2.9,14.2,4.8c7.8,2,15.2,7,18.4,11.2c3.1,4.2,6.5,8.5,8.5,9.2c0,0-4.9-0.7-7.3-2.7
				c0,0,4.1,9.2-1.3,21.1c-5.4,11.9-18.9,8.4-21.5,5.8C498.3,230.1,499.9,226.9,499.9,226.9z"/>
			<path class="st12" d="M500.9,232.7c-2.6-2.6-1-5.8-1-5.8c-0.4-2.7-1.7-4.7-2.6-5.9c2-11.9,1.2-24.2-2.3-35.7c2,0.8,3.2,1.2,6.2,2
				c3.6,5.4,6.3,11.5,8.2,17.7c2.4,7.9,3.5,16.4,1.3,24.3c-0.6,2-1.4,4-2.4,5.9C504.8,235,502,233.8,500.9,232.7z"/>
			<path class="st9" d="M504.6,222.5c0,0,0.9-29.7-14.7-39.2c0,0,12.1-1.4,19,10.7c6.9,12.1,6.4,22.4,6.3,28.2
				C515,228,504.6,222.5,504.6,222.5z"/>
			<path class="st9" d="M509.4,221.4c12.3,0,16.8,9.4,16.8,16.5c0,6.3-2,16.5-16.8,16.5c-7.4,0-12.4-7.4-12.4-16.5
				C497,228.8,502,221.4,509.4,221.4z"/>
			<path class="st10" d="M502.8,237.8c0-8.1,5.3-14.6,11.9-14.6c6.6,0,11.5,6.5,11.5,14.6c0,8.1-5,14.6-11.5,14.6
				C508.1,252.5,502.8,245.9,502.8,237.8z"/>
			<ellipse class="st9" cx="516.2" cy="237.8" rx="8.1" ry="9.9"/>
			<g>
				<path class="st6" d="M478.3,254.3c-3.3,1.8-14.1,2.4-14.9,2.3c-0.7-0.1,0.8,8.1,3.4,8.4c2.6,0.3,7.9-0.4,10.2-2.5
					C479.3,260.4,478.3,254.3,478.3,254.3z"/>
				<path class="st0" d="M477.6,256.7c-0.2-0.7-0.4-1.3-0.5-1.9c-3.6,1.2-10.8,1.8-13,1.8c0.2,1.1,0.5,2.2,0.9,3.3
					c0.1,0,0,0.1,0.1,0.1C469.9,260.8,474.7,259.2,477.6,256.7z"/>
			</g>
			<path class="st13" d="M476.9,234.7c0-1.5,0.7-2.7,1.7-2.7c0.9,0,1.7,1.2,1.7,2.7c0,1.5-0.7,2.7-1.7,2.7
				C477.6,237.4,476.9,236.2,476.9,234.7z"/>
			<path class="st13" d="M458,235.9c0-1.5,0.6-2.7,1.4-2.7c0.8,0,1.4,1.2,1.4,2.7s-0.6,2.7-1.4,2.7C458.6,238.7,458,237.4,458,235.9
				z"/>
			<path class="st13" d="M486.1,224.1c-1.1-0.6-2.3-1-3.6-1.4c-1.3-0.3-2.5-0.5-3.9-0.6c-1.3-0.1-2.7-0.1-4,0.4
				c-1.3,0.4-2.4,1.2-3.3,2.3l0.1,0.2c1.4-0.1,2.5-0.5,3.7-0.6c1.2-0.2,2.3-0.6,3.5-0.7c2.4-0.2,4.9,0,7.3,0.7L486.1,224.1z"/>
			<path class="st13" d="M453.2,227.6c0.6-0.2,1.2-0.4,1.8-0.4c0.6-0.1,1.2-0.1,1.8-0.1c0.6,0,1.2,0.2,1.8,0.1
				c0.3-0.1,0.6-0.1,0.9-0.3c0.3-0.1,0.6-0.2,1-0.5l0-0.2c-0.6-0.6-1.3-0.8-1.9-0.9c-0.7-0.1-1.4,0.1-2,0.3
				c-0.7,0.2-1.3,0.4-1.9,0.7c-0.6,0.3-1.2,0.7-1.7,1.2L453.2,227.6z"/>
		</g>
		<g>
			<path class="st9" d="M472.3,422.4c0,0.4-0.6,1-2,1c-1.4,0-40.1,0-45.3,0c-5.2,0-6.4-2.1-4.9-4.7c1.6-2.6,8.2-8.4,24.5-12.4
				c16.4-4,25,5.4,27.6,9.6C474.3,419,472.3,422.4,472.3,422.4z"/>
			<path class="st10" d="M419.7,419.5c0.9,3,35.5,1.4,35.5,1.4s-3.5-4.7-7.4-4.9c-3.9-0.1-5.8,1.2-11,2.1c-5.2,0.9-1.3-2.1-1.3-2.1
				s-3.7-0.8-5.2-2c0,0,8.6-2.5,12.2-3.1c3.6-0.6,12.7-0.2,13.9,0c0.8,0.1,5-2.3,10.1-1.1c2.8,2.1,4.7,4.4,5.7,6c2,3.1,0,6.4,0,6.4
				c0,0.4-0.6,1-2,1c-1.4,0-40.1,0-45.3,0C420.3,423.4,418.9,421.7,419.7,419.5z"/>
			<path class="st5" d="M567.6,394.1c0,0-32.2,5-49.7,8.1c-16.5,3-30.8,4.2-34.9,3.5c-4-0.8-17.9-5.9-22.3-7.7s-13.3-2.9-17.9-1.4
				c-4.6,1.4-8.3,3-10.1,3s-1.5,3,1,3.6c2.4,0.6,4.6,0.5,4.6,0.5s-8.3,4.5-9.7,5s0.3,3.1,2.3,3c0,0-1.8,1-1.1,2.1c0.6,1,5,1,5,1
				s-5.3,2.6-0.9,3.7c4.4,1,9.7-3.9,11.9-4.4c2.2-0.4,7.2-0.2,9.7,1.7c2.4,1.8,12.9,10.3,27.2,5.2c0,0,96.9,3.9,106.6,3.9
				c9.7,0,15.5-8.5,12.4-25c-3.1-16.5-9.1-28.7-9.1-28.7l-33.4,2.4L567.6,394.1z"/>
			<g>
				<path class="st6" d="M445.9,401c0.9-0.2,1.5-0.3,2-0.3C447.8,400.6,447,400.8,445.9,401z"/>
				<path class="st6" d="M438.2,403.6c0,0-2.2,0.1-4.6-0.5c-0.7-0.2-1.2-0.5-1.6-1c2.7,1.2,6,0.4,7.9,0c1.2-0.3,4-0.8,5.9-1.1
					C443.9,401.4,441.1,402.3,438.2,403.6z"/>
			</g>
			<g>
				<path class="st6" d="M438.7,407.5c0.2-0.1,0.4-0.2,0.5-0.2C439.2,407.3,439,407.4,438.7,407.5z"/>
				<path class="st6" d="M428.5,410.5c0,0,1,0.9,3,0c1.7-0.7,5.7-2.4,7.2-3c-1.8,0.8-6.6,3.5-7.9,4
					C429.9,411.6,429,411.1,428.5,410.5z"/>
			</g>
			<path class="st6" d="M433.5,413.7c1.5-0.4,4.6-2.3,6.5-3.2c1.9-0.9,4.3-1,4.3-1s-0.7,0.1-2.6,1c-1.9,0.9-7.1,4.2-7.1,4.2
				s-2.8,0-4.2-0.5C430.4,414.1,432,414.1,433.5,413.7z"/>
			<path class="st6" d="M461.1,415.8c2.7,1.7,10.8,3.9,15.7,3c4.8-0.9,5.9-5,5.9-5l1.3,4.4c0,0,67.2,1.9,80.9,1.3
				c13.5-0.6,34.6-0.9,37.3-9c-0.8,9.4-5.9,14.3-13.1,14.3c-9.7,0-106.6-3.9-106.6-3.9c-14.3,5-24.7-3.4-27.2-5.2
				c-2-1.5-5.9-2-8.3-1.8c0,0,0,0,0,0C450.7,412.5,458.3,414.1,461.1,415.8z"/>
			<path class="st6" d="M567.6,394.1c0,0,12.6-1.7,15.1-2l-1.9-7.8l-15.9,3.2L567.6,394.1z"/>
			<path class="st7" d="M601.2,372.1c0.5,1.2,0.2,2.6-0.8,3.5c-5.9,5.7-13.5,13.5-21.4,14.7c-8.6,1.3-23,1.8-23.8,0
				s-3.7-25.1-8.9-36.8c-5.2-11.8-8.6-17.8-9.9-24.5c-1.3-6.8,10.4-22.7,15.7-24c5.2-1.3,17.2-2.1,22.2,2.4
				c5,4.4,8.6,21.4,14.4,34.2C593.3,351.8,599.1,366.8,601.2,372.1z"/>
			<g>
				<path class="st8" d="M568.9,304.7c-1.6-0.2-3.2-0.3-4.8-0.4c-1.6-0.1-3.2-0.1-4.8,0c-1.6,0.1-3.2,0.3-4.7,0.5
					c-0.8,0.1-1.6,0.3-2.3,0.5c-0.7,0.3-1.5,0.5-2.1,0.9c-0.7,0.3-1.3,0.8-2,1.2c-0.6,0.5-1.2,1-1.7,1.6c-1.1,1.1-2.1,2.3-3.1,3.6
					c-1,1.3-1.8,2.6-2.6,4c-0.8,1.4-1.6,2.8-2.3,4.2c1.1-3,2.6-5.9,4.4-8.6c0.9-1.3,1.9-2.6,3.1-3.8c0.5-0.6,1.2-1.1,1.8-1.7
					c0.7-0.5,1.3-1,2.1-1.4c0.7-0.4,1.5-0.7,2.3-0.9c0.8-0.2,1.6-0.4,2.4-0.5c1.6-0.2,3.2-0.4,4.9-0.4
					C562.5,303.6,565.7,304,568.9,304.7z"/>
			</g>
			<path class="st8" d="M594.7,376.9c0-4.2-8.9-42.4-16.6-63.7l0,0c3.3,7.3,6.4,18.9,10.6,28.3c4.6,10.3,10.5,25.2,12.5,30.6
				c0.5,1.2,0.2,2.6-0.8,3.5c-2.2,2.2-4.8,4.7-7.4,7C593.2,382.4,594.7,380.8,594.7,376.9z"/>
		</g>
	</g>
	<g>
		<g>
			<g>
				<path class="st14" d="M174.6,333.9c-0.2,1.3,0.1,2.6,0.7,3.7c2.3,4.1,3.4,8.9,3.3,13.6c-0.1,3.1-0.7,6.3,0.1,9.3
					c1.5,5.2,6.9,8.4,8.7,13.5c1.6,4.5,0.1,10.2,3.3,13.7c0.8,0.9,2,1.5,3.1,1.1c0.6-0.2,1-0.7,1.4-1.1c3.7-4.2,7.7-9.3,6.5-14.8
					c-1.1-5.2-6.4-8.7-7.4-13.8c-0.8-4.2,1.3-9.1-1.1-12.7c-0.7-1-1.6-1.7-2.4-2.7c-2.9-3.7-1.8-9.6-5.1-12.9
					c-1.1-1.1-2.4-1.7-3.9-2C178.4,327.9,175.1,330.3,174.6,333.9L174.6,333.9z"/>
			</g>
			<g>
				<path class="st15" d="M195.7,399.5c0.2-2.8,0.3-5.5,0.4-8.3c-0.1-2.8-0.3-5.5-0.5-8.3c-0.2-2.8-0.5-5.5-1-8.2
					c-0.5-2.7-1.1-5.5-2.3-8.1c-2-5.1-3.6-10.3-5.2-15.6l-2.4-7.9c-1-2.6-1.9-5.2-2.8-7.8c0.4,2.7,1,5.4,1.6,8.1l2.4,7.9
					c1.6,5.3,3.2,10.5,5.3,15.7c1.1,2.5,1.7,5.1,2.2,7.8c0.5,2.7,0.8,5.4,1,8.1c0.2,2.7,0.4,5.5,0.5,8.2L195.7,399.5z"/>
				<path class="st15" d="M181.2,343.6c0.5,0.7,1,1.2,1.7,1.7c0.3,0.2,0.7,0.4,1.1,0.5c0.4,0.2,0.7,0.4,1,0.7l0.1,0.1l0.1-0.2
					c0.3-0.4,0.6-0.8,0.8-1.2c0.2-0.4,0.5-0.8,0.7-1.2c0.4-0.9,0.7-1.8,0.9-2.8l-0.1,0c-0.7,0.7-1.2,1.5-1.7,2.4
					c-0.2,0.4-0.4,0.9-0.6,1.3c-0.2,0.4-0.3,0.9-0.4,1.4l0.2-0.1c-0.3-0.2-0.6-0.4-0.9-0.7c-0.3-0.3-0.5-0.6-0.8-0.8
					C182.7,344.2,182,343.8,181.2,343.6L181.2,343.6z"/>
				<path class="st15" d="M181.9,353.1c0.5,0.4,1,0.8,1.5,1.2c0.5,0.4,1,0.7,1.6,1c0.6,0.3,1.2,0.5,1.7,0.8c0.5,0.3,1,0.7,1.5,1.1
					l0.2,0.1l0.2-0.2c0.8-1,1.4-2,2-3.1c0.6-1.1,1.1-2.2,1.5-3.4l-0.1,0c-0.8,0.9-1.5,2-2.2,3c-0.6,1.1-1.2,2.2-1.6,3.3l0.3-0.1
					c-0.6-0.3-1.1-0.5-1.7-0.9c-0.5-0.4-1-0.8-1.5-1.2c-0.5-0.4-1.1-0.7-1.6-1C183.1,353.4,182.5,353.1,181.9,353.1L181.9,353.1z"/>
				<path class="st15" d="M185.2,365.5c0.5,0.5,1.1,0.9,1.7,1.3c0.6,0.4,1.2,0.6,1.9,0.8c0.7,0.2,1.3,0.5,1.9,0.9
					c0.6,0.4,1.1,0.9,1.6,1.2l0.4,0.3l0.3-0.5c0.5-0.7,0.9-1.4,1.2-2.2c0.3-0.8,0.6-1.5,0.8-2.4l-0.1-0.1c-0.6,0.6-1.1,1.3-1.6,1.9
					c-0.5,0.7-0.8,1.4-1.2,2.2l0.7-0.2c-0.6-0.3-1.3-0.5-2-0.8c-0.7-0.2-1.3-0.6-1.8-1c-0.5-0.5-1.1-0.8-1.8-1.1
					C186.7,365.7,186,365.5,185.2,365.5L185.2,365.5z"/>
			</g>
		</g>
		<g>
			<g>
				<path class="st16" d="M200.1,400c2.2-0.4,10.2-2.9,9.7-5c-2.4-9.1-4.8-19.3,3.5-23.7c4-2.1,9.1-3.2,11.4-7.2
					c2.4-4.1,0.6-9.2-1.5-13.4c-2.1-4.2-4.7-8.7-3.8-13.3c1-4.8,5.5-8.4,6.2-13.3c1-6.6-5.5-12-11.7-14.6c-2.1-0.9-4.4-1.6-6.6-1.1
					c-1.6,0.4-3,1.4-4.1,2.6c-4.4,4.9-4.2,12.2-3.2,18.7s2.5,13.3,0.1,19.3c-1.7,4.3-5.4,8.4-4.4,12.9c0.4,1.8,1.5,3.4,2,5.2
					c1.2,4.9-2.9,9.3-4.7,13.9c-2.4,6-0.8,13.3,3.8,17.9C197.7,399.8,198.9,400.2,200.1,400L200.1,400z"/>
			</g>
			<g>
				<path class="st15" d="M199.4,400.1c0.5-3.6,1-7.2,1.6-10.7c0.2-0.9,0.3-1.8,0.5-2.7c0.1-0.9,0.2-1.8,0.4-2.7
					c0.3-1.8,0.6-3.5,0.9-5.3c0.7-3.5,1.5-7,2.7-10.3c0.6-1.7,1.3-3.3,2.3-4.7c0.5-0.7,1-1.3,1.6-1.7c0.8-0.5,1.6-1.2,2.2-2
					c1.2-1.6,1.6-3.7,1.6-5.6c0-1.9-0.4-3.7-0.8-5.5c-0.8-3.6-1.9-7-2.5-10.5c-0.6-3.5-0.7-7,0.2-10.4c0.3-0.8,0.5-1.6,0.8-2.5
					c0.3-0.8,0.6-1.6,1-2.4c0.8-1.6,1.9-3,3-4.4c-1.4,1.1-2.7,2.4-3.8,3.9c-0.6,0.7-1.1,1.5-1.5,2.4c-0.5,0.8-0.8,1.7-1,2.6
					c-1,3.7-0.9,7.5-0.3,11.1c0.6,3.6,1.7,7.1,2.5,10.6c0.4,1.7,0.7,3.5,0.8,5.2c0,1.7-0.3,3.4-1.2,4.6c-0.5,0.6-1.1,1.2-1.8,1.6
					c-0.9,0.6-1.5,1.4-2.1,2.2c-1.1,1.6-1.8,3.3-2.4,5c-1.3,3.5-2.1,7-2.8,10.6c-0.3,1.8-0.6,3.6-0.9,5.4c-0.1,0.9-0.3,1.8-0.4,2.7
					c-0.1,0.9-0.1,1.8-0.2,2.7C199.4,392.9,199.3,396.5,199.4,400.1z"/>
				<path class="st15" d="M213.7,329.5c-0.6,0.2-1.1,0.6-1.6,1c-0.5,0.4-0.9,0.8-1.3,1.3c-0.3,0.5-0.6,1.1-1.1,1.5
					c-0.4,0.4-0.9,0.8-1.4,1.2l0.6,0c-0.2-0.5-0.5-0.9-0.7-1.3c-0.3-0.4-0.5-0.9-0.8-1.3c-0.3-0.4-0.6-0.8-0.9-1.2
					c-0.3-0.4-0.7-0.8-0.9-1.2l-0.1,0c0,0.6,0.1,1.1,0.3,1.6c0.2,0.5,0.4,1,0.7,1.4c0.2,0.5,0.5,0.9,0.8,1.3c0.3,0.4,0.6,0.8,1,1.2
					l0.4,0.4l0.2-0.4c0.3-0.5,0.6-1.1,1-1.5c0.4-0.5,0.9-0.8,1.4-1.2c0.5-0.4,0.9-0.8,1.3-1.3C213.1,330.6,213.4,330.1,213.7,329.5
					L213.7,329.5z"/>
				<path class="st15" d="M205.8,343.2c0.3,0.6,0.6,1.2,1,1.7c0.4,0.5,0.8,1,1.2,1.5c0.5,0.4,1,0.8,1.5,1.2c0.5,0.4,0.9,0.9,1.3,1.4
					l0.1,0.2l0.2-0.1c0.7-0.5,1.2-1,1.7-1.5c0.5-0.6,1-1.1,1.5-1.7c0.5-0.6,0.9-1.2,1.3-1.8c0.4-0.6,0.8-1.3,1.2-1.8l-0.1-0.1
					c-0.7,0.3-1.3,0.9-1.8,1.4c-0.5,0.5-1,1.1-1.5,1.6c-0.5,0.6-0.9,1.2-1.3,1.8c-0.4,0.6-0.8,1.3-1.2,1.8l0.3,0
					c-0.5-0.4-0.9-0.9-1.3-1.4c-0.4-0.5-0.7-1.1-1.1-1.6c-0.4-0.5-0.9-0.9-1.3-1.4C207,343.9,206.5,343.5,205.8,343.2L205.8,343.2z"
					/>
				<path class="st15" d="M220.2,353.8c-0.7,0.8-1.4,1.5-2.1,2.2c-0.7,0.7-1.5,1.3-2.3,2c-0.8,0.7-1.6,1.2-2.6,1.5
					c-1,0.3-2,0.3-3,0.3l0.4,0.3c-0.2-0.8-0.4-1.6-0.7-2.4c-0.3-0.8-0.6-1.6-1-2.3c-0.4-0.7-0.9-1.5-1.5-2.1
					c-0.6-0.6-1.3-1.2-2.1-1.5l-0.1,0.1c0.6,0.6,1.1,1.2,1.5,1.9c0.4,0.7,0.8,1.4,1.1,2.1l1,2.2c0.3,0.7,0.6,1.5,0.9,2.3l0.1,0.4
					l0.3,0c1.1-0.2,2.1-0.5,3.1-0.9c1-0.4,2-0.7,2.9-1.2c1-0.5,1.8-1.2,2.5-2C219.5,355.8,220,354.9,220.2,353.8L220.2,353.8z"/>
				<path class="st15" d="M200.8,361.9c-0.3,0.8-0.4,1.7-0.4,2.5c0,0.9,0.2,1.7,0.5,2.5c0.3,0.8,0.8,1.5,1.3,2.2l1.5,2l0.1,0.1
					l0.2-0.1c0.8-0.6,1.7-1,2.6-1.5c0.9-0.5,1.8-0.9,2.7-1.3c0.9-0.4,1.8-0.8,2.8-1.1c0.9-0.4,1.9-0.7,2.9-1.1l0-0.1
					c-2.1,0-4.2,0.4-6.1,1.2c-1,0.4-1.9,1-2.7,1.5c-0.9,0.6-1.6,1.3-2.4,2l0.3,0c-0.6-0.6-1.1-1.2-1.4-2c-0.4-0.7-0.5-1.5-0.8-2.3
					c-0.5-1.5-0.8-3-0.9-4.7L200.8,361.9z"/>
			</g>
		</g>
		<g>
			<g>
				<g>
					<path class="st9" d="M185.5,423.4h23.1c2.1,0,4-1.8,4.3-4.4l3.6-28.4c0.4-3.1-1.6-5.9-4.3-5.9h-30.4c-2.7,0-4.7,2.8-4.3,5.9
						l3.6,28.4C181.5,421.6,183.3,423.4,185.5,423.4z"/>
				</g>
			</g>
			<path class="st10" d="M181.8,384.8h15.5c-2.7,0-4.7,2.8-4.3,5.9l3.6,28.4c0.3,2.5,2.1,4.4,4.3,4.4h-15.5c-2.1,0-4-1.8-4.3-4.4
				l-3.6-28.4C177.1,387.6,179.2,384.8,181.8,384.8z"/>
		</g>
	</g>
	<g>
		<g>
			<path class="st17" d="M392,415.6h-96.4c-1,0-1.8,0.8-1.8,1.8v4.3c0,1,0.8,1.8,1.8,1.8H392V415.6z"/>
			<path class="st9" d="M416.8,421v1.7c0,0.4-0.3,0.7-0.7,0.7h-24.3c-0.8,0-1.4-0.6-1.4-1.4V417c0-0.8,0.7-1.5,1.5-1.4l24.2,4.7
				C416.6,420.4,416.8,420.6,416.8,421z"/>
		</g>
		<g>
			<g>
				<path class="st9" d="M223.5,251.7h180.2c3.6,0,6.9,2.3,8.1,5.7l39.4,109.5c1.6,5.6-2.5,9.9-9.1,10.6c-1,0.1-5.9-2.1-13.5-5.6
					H267.6c-3.6,0-6.9-2.3-8.1-5.7l-35.6-98.9c-6-3.1-9.5-4.9-9.5-4.9S212.1,251.7,223.5,251.7z"/>
				<path class="st10" d="M398.1,257.4H217.8c-2.6,0-4.3,2.5-3.5,4.9l39.4,109.5c1.2,3.4,4.5,5.7,8.1,5.7h180.2
					c2.6,0,4.3-2.5,3.5-4.9l-39.4-109.5C405,259.6,401.7,257.4,398.1,257.4z"/>
				<polygon class="st17" points="357.4,377.5 349.4,347.8 319.1,377.5 				"/>
				<path class="st9" d="M313.5,295.8c0.8,4.9,4,6.9,7.8,6.9c3.8,0,6.6-3.1,6-6.9c-0.7-3.7-4-6.9-7.8-6.9S312.9,292.1,313.5,295.8z"
					/>
				<g>
					<polygon class="st17" points="398.2,359.3 395.9,352.8 398.8,352.8 401.1,359.3 					"/>
					<polygon class="st17" points="392.1,359.3 389.8,352.8 392.7,352.8 395,359.3 					"/>
					<polygon class="st17" points="385.9,359.3 383.6,352.8 386.5,352.8 388.9,359.3 					"/>
					<polygon class="st17" points="379.8,359.3 377.5,352.8 380.4,352.8 382.7,359.3 					"/>
				</g>
				<g>
					<polygon class="st17" points="292.7,359.3 290.4,352.8 293.3,352.8 295.6,359.3 					"/>
					<polygon class="st17" points="286.5,359.3 284.2,352.8 287.1,352.8 289.4,359.3 					"/>
					<polygon class="st17" points="280.4,359.3 278.1,352.8 281,352.8 283.3,359.3 					"/>
					<polygon class="st17" points="274.3,359.3 271.9,352.8 274.9,352.8 277.2,359.3 					"/>
				</g>
			</g>
			<g>
				<path class="st10" d="M296.5,412.8c1.8-5.1,23.3-74.7,23.3-74.7h27.7l1.8,9.7c0,0-18.6,59.9-20.3,65c-0.1,0.4-0.3,0.8-0.4,1.2
					l0,0c-1.6,5,2.7,5,7.5,5c4.8,0,48.8,0,48.8,0v4.4h-48.8h-32.5C293.9,423.4,294.7,417.9,296.5,412.8z"/>
				<path class="st9" d="M347.6,338.1c0,0-21.6,69.6-23.3,74.7c-1.8,5.1-2.7,10.6,7.1,10.6h-32.5c-9.8,0-8.9-5.5-7.1-10.6
					c1.8-5.1,23.3-74.7,23.3-74.7H347.6z"/>
				<path class="st18" d="M340.8,338.1c-2.1-0.1-4.3-0.1-6.4-0.2c-2.1-0.1-4.3-0.1-6.4-0.1c-2.1,0-4.3-0.1-6.4-0.1l-6.4,0l-0.4,0
					l-0.1,0.3c-0.9,2.8-1.8,5.6-2.6,8.4l-2.6,8.4c-1.7,5.6-3.3,11.3-4.8,17c2-5.5,3.8-11.1,5.7-16.7l2.7-8.4
					c0.9-2.8,1.8-5.6,2.6-8.4l-0.5,0.3l6.4,0c2.1,0,4.3-0.1,6.4-0.1c2.1,0,4.3-0.1,6.4-0.1C336.5,338.3,338.6,338.2,340.8,338.1z"/>
			</g>
		</g>
	</g>
	<g>
		<path class="st19" d="M152.2,440.5h477.3c4.7,0,8.5-3.8,8.5-8.5l0,0c0-4.7-3.8-8.5-8.5-8.5H152.2c-4.7,0-8.5,3.8-8.5,8.5l0,0
			C143.6,436.7,147.5,440.5,152.2,440.5z"/>
		<path class="st20" d="M152.2,440.5h477.3c4.7,0,8.5-3.8,8.5-8.5l0,0H143.6l0,0C143.6,436.7,147.5,440.5,152.2,440.5z"/>
	</g>
	<g>
		
			<ellipse id="XMLID_2_" transform="matrix(0.2279 -0.9737 0.9737 0.2279 -9.1089 294.5681)" class="st7" cx="181.2" cy="153" rx="71.9" ry="71.9"/>
		<g>
			<defs>
				<path id="SVGID_1_" d="M253,153c0,39.7-32.2,71.9-71.9,71.9c-39.7,0-71.9-32.2-71.9-71.9c0-39.7,32.2-85.8,71.9-85.8
					C220.9,67.2,253,113.3,253,153z"/>
			</defs>
			<clipPath id="SVGID_2_">
				<use xlink:href="#SVGID_1_"  style="overflow:visible;"/>
			</clipPath>
			<g class="st21">
				<g>
					<g>
						<path class="st22" d="M282.2,210.4c1.4,6.9-5,13-7,14.1c-2,1.1-15.3,6.5-23.3,6.7c-8,0.2-18.6-16.8-14.3-18.7
							c4.3-1.9,33.8-4,37-4C277.9,208.5,282.2,210.4,282.2,210.4z"/>
						<path class="st0" d="M261.2,206.7c-3.5,20.6-11.8,36.6-14.4,36.8c-2.6,0.3-27.5-8.3-34.4-11.4c-6.9-3.1,2.1-51.4,6.4-50.6
							c4.3,0.8,13.6,10.1,21.4,14.6C247.9,200.6,261.2,206.7,261.2,206.7z"/>
						<path class="st23" d="M220.2,215.3c2.4,4.1,22.2,14.5,33.1,18.4c-2.7,6.1-5.2,9.8-6.5,9.9c-2.2,0.2-20.8-6-30.4-9.8
							C217.2,226.2,220.2,215.3,220.2,215.3z"/>
						<path class="st22" d="M282.2,209.4c0.2,8.2-7.2,9.3-16,7.2c-8.8-2.1-23.2-21.9-29.6-30.8c-6.4-8.9-18.3-24.9-20.8-26.3
							c-2.5-1.4-8.1-2.2-13-10.2c-4.8-8,1.5-24.9,3.8-26.9c2.3-2,21.9,4.7,24.2,8.1c2.3,3.4-1.6,21.5-0.9,23.8
							c0.7,2.3,17.4,20.9,24.7,25.5C262,184.3,282.1,203.5,282.2,209.4z"/>
						<path class="st24" d="M216.8,135.8c-2.3-1.1-2.9-6.3-1.4-5.4c1.5,0.9,4,0.9,7.4,0.8c3.4,0,4.8-0.3,4.8-0.3s0.4,2.2,0.3,4.1
							C228,135,219.1,137,216.8,135.8z"/>
						<path class="st24" d="M201.6,137c1.4-2.6,2.5-4.6,2.5-4.6l13.5,13c3.7-3.2,8.2-6.1,8.2-6.1l1.2,2.1
							c-2.2,3.7-4.1,11.5-4.1,13.4c0,0-2.1,2.3-3.2,2.5c0,0,14.4,22.9,23.7,34.1c9.2,11.2,15.5,20.8,19.9,23.9
							c-8.8-5.1-20.7-21.5-26.4-29.5c-6.4-9-18.3-24.9-20.8-26.3c-2.5-1.4-8.1-2.2-13-10.2C201.1,146.1,200.9,141.5,201.6,137z"/>
						<path class="st25" d="M229.6,138.3c-0.2,1.3-13.6,12.9-15,14.3c-0.1,0.1-1.2,0.3-1.4,0c-3.6-3.1-19.1-31.4-19.4-32.4
							c-0.3-1,10.1-10.7,13.2-13.3c0.4-0.4,2.2-0.1,2.5,0.3C212.7,111.9,229.9,136.6,229.6,138.3z"/>
						<path class="st26" d="M228.2,138.3c-0.2,1.3-13.6,12.9-15,14.3c-1.4,1.3-20.5-31.3-20.8-32.4c-0.3-1,11.2-10.5,14.4-13.1
							c0.4-0.4,1-0.3,1.3,0.1C211.3,111.9,228.4,136.6,228.2,138.3z"/>
						<path class="st27" d="M225.9,136.4c-0.2,1.2-12.7,12.1-14,13.4c-1.3,1.2-19.2-29.3-19.5-30.3c-0.2-0.9,10.5-9.8,13.5-12.3
							c0.4-0.3,1-0.3,1.2,0.1C210.1,111.7,226.1,134.8,225.9,136.4z"/>
						<path class="st22" d="M217.9,120.5c-2.1-1.3-4.6-5.5-4.9-6.9c-0.2-1.4-0.1-2.7,1-3c1.1-0.3,4.6,4.2,6.3,5.5
							c1.7,1.3,3.8,4.1,2.9,6c-0.8,1.9-4.7,1.1-5.1,0.9C217.8,122.6,217.9,120.5,217.9,120.5z"/>
						<path class="st24" d="M213.4,110.9c-0.7,1.6,3.6,8.1,7.4,10l-1.4,1.6c0,0-0.6-0.1-1.4-0.3c-0.1-0.7-0.1-1.7-0.1-1.7
							c-2.1-1.3-4.6-5.5-4.9-6.9C212.9,112.5,212.9,111.5,213.4,110.9z"/>
						<path class="st22" d="M222.7,127c-3.6-1.9-6.4-1.7-8.3-2.5c-1.9-0.8-2.3-3.8-1-4.3c1.3-0.5,9.4,0.8,11.4,1.7
							c2.1,0.9,3.1,5.2,3.1,5.2L222.7,127z"/>
						<path class="st24" d="M221.2,124.8c2,0.4,2.7,0,2.7,0c-0.1,0.8,0.7,1.2,1.5,2.3l-2.7-0.1c-3.6-1.9-6.4-1.7-8.3-2.5
							c-0.9-0.4-1.4-1.2-1.6-2C213.6,124.2,219.2,124.4,221.2,124.8z"/>
						<path class="st22" d="M231,130.4c-1.9,2.6-11.2,1.5-13.1,1.2c-1.9-0.3-3.1-1.5-2.9-2.7c0.4-2.4,12.7-2,13.8-1.6
							C229.7,127.7,231,130.4,231,130.4z"/>
						<path class="st24" d="M215,129.5c1.3,1.3,4.3,2,7.7,2.3c2.9,0.2,4.6,0.1,5,0.1c-3.5,0.6-8.5-0.1-9.8-0.3
							C216.3,131.4,215.2,130.5,215,129.5z"/>
					</g>
					<g>
						<path class="st0" d="M187.2,167.3c19.8,10.1,23.1,9.7,31.6,14.3c8.5,4.6,6,52.7,5.4,60.2c-0.5,7.4-2.6,36.9-1.5,44.9
							c1.1,8,5.5,37.7,7.5,42.3c2,4.6,5.7,12.3-0.1,16.9c-5.8,4.6-17.9,7.7-44.4,6c-26.5-1.7-55-18-56.2-20.3
							c-1.3-2.3,12.6-44.3,13.2-52.3c0.6-8,2.2-14,3-17.7c0.8-3.7-7.6-21.1-8.9-32.3c-1.3-11.1-13.4-41.9-11.2-47.5
							c2.3-5.6,23.4-11.9,37.7-19.1C177.8,155.6,187.2,167.3,187.2,167.3z"/>
						<path class="st23" d="M206.9,179.8c-3.3,10.7-9.9,20.4-18.8,27.3c-10.7-2.6-21.7-7.4-30.5-14.1c9.8,7.2,20.5,13.3,32,17.5
							C199.4,202.6,205.2,192.2,206.9,179.8z"/>
						<path class="st22" d="M202.9,174.7c-3.8-1.6-8.7-3.9-15.6-7.4c0,0-9.4-11.7-23.8-4.6c-5,2.5-10.8,4.9-16.3,7.1
							c8.6,14.5,22.4,25.9,38.4,31.3C194,194.6,200.1,185.1,202.9,174.7z"/>
						<path class="st23" d="M129.6,331.6c-1.3-2.3,12.6-44.3,13.2-52.3c0.6-8,2.2-14,3-17.7c0.8-3.7-7.6-21.1-8.9-32.3
							c-0.2-1.9-0.8-4.5-1.5-7.4l8.9-6.7c5.2,14.6,8.5,40.3,13.5,46.6c5,6.3,17.4,8.9,17.4,8.9s-12.2,2.9-17.6,1.7
							c0,0-5.7,22.6-5.8,33.7c-0.1,11.1,1,28,1.1,30.3c0,0.9-0.1,3.8-0.4,7.2C139.7,338.6,130.3,332.9,129.6,331.6z"/>
						<path class="st22" d="M165.7,142.5c-0.2,11.9-1,20.1-3.6,22.4c0,0,4.5,19.8,22.7,18.1c6.1-0.6,5.6-10.9,2.5-15.6l1.8-14.6
							L165.7,142.5z"/>
						<path class="st24" d="M163.5,162.8L163.5,162.8c1.6-3.7,2.1-10.8,2.3-20.3l23.3,10.2l-1.2,9.4l0,0
							C183.8,163.9,163.5,162.8,163.5,162.8z"/>
					</g>
					<g>
						<path class="st22" d="M101.5,238.9c-4,5.5-9.4,19.2-7.4,25.5c2,6.3,22.8,34.3,32.4,44.7s11.7,12.2,13.3,15.6
							c1.7,3.4,9.8,17.6,11.9,19.7c2.1,2.1,6,2.4,6,2.4s2.9,3.1,8.4,2.6c0,0,4.8,3.3,8.6,4.1c0,0,1.3,2.4,2.5,2.6
							c1.3,0.2,2.9-2.4,0.5-7.5c-2.3-5.1-6.2-7.3-6.8-10.6c-0.6-3.3-3.6-10-3.6-10s6.7,6.8,10.8,7.3s4.7-2,2.4-4
							c-2.3-2-5.2-5-7.9-8.9c-2.7-3.9-6.1-6.4-11.3-7.1c-5.2-0.7-8.9-1.3-10.3-2.3c-1.4-1-8.2-10.7-12.9-21.2
							c-4.7-10.5-8.9-23.9-20.7-35.6l5.2-9.1L101.5,238.9z"/>
						<path class="st24" d="M174.4,352.9c-1-2.9-2.9-5.4-4.9-7.6l-0.8-0.8c-0.2-0.2-0.7-0.6-0.8-0.7c-0.4-0.5-0.8-1.2-1.2-1.8
							c-0.8-1.3-1.5-2.6-2.3-3.9c0.4,1.5,0.9,2.9,1.5,4.3c0.3,0.7,0.6,1.4,1.1,2.1c0.3,0.5,0.6,0.6,0.8,0.9l0.8,0.8
							c1,1.1,2,2.2,3,3.3C172.6,350.6,173.5,351.7,174.4,352.9z"/>
						<path class="st24" d="M165.8,348.5c-0.8-1.5-1.7-2.9-2.6-4.3c-0.9-1.4-1.6-2.8-2.4-4.3c-0.1,1.8,0.6,3.5,1.5,4.9
							C163.1,346.3,164.3,347.6,165.8,348.5z"/>
						<path class="st24" d="M161.6,349.1c-2.6-0.7-4-2.2-4-2.2s-3.8-0.3-6-2.4c-0.9-0.9-2.7-3.8-4.8-7.1c0,0.1,2.4,2.7,4.2,4.8
							c2.4,3,5.9,2,5.9,2l-0.5-2.8C156.5,341.4,158.8,347.7,161.6,349.1z"/>
						<path class="st24" d="M94,257.4c0.1,2.6,0.1,4.7,4,11.5c4.4,7.7,30.5,40.1,36.2,46.1c5.7,6,5.5,6.4,8.9,15.9
							c-1.5-2.7-2.8-5-3.3-6.2c-1.7-3.4-3.8-5.1-13.3-15.6s-30.3-38.5-32.4-44.7C93.5,262.6,93.5,260.1,94,257.4z"/>
						<path class="st24" d="M114.5,249.9l-2.1,3.5c0,0,2.9,0.8,5,2.9l4.1-7L114.5,249.9z"/>
						<path class="st0" d="M139.5,230.5c5.5-10.7,7.6-28.2,2.7-37.3c-4.9-9.2-14.2-12.5-16.5-11.4c-2.3,1.1-8.5,15.4-14.3,22
							c-5.8,6.6-21.6,25.1-22.1,26.7c-0.5,1.6,11.5,14.2,33.9,23.4C125.9,255,139.5,230.5,139.5,230.5z"/>
						<path class="st23" d="M122.9,238.9l-3.6,7.3c0,0,17.6-17.7,25-30.9c-0.9,5.5-2.5,10.9-4.7,15.2c0,0-13.6,24.5-16.3,23.4
							c-3.8-1.6-7.3-3.3-10.6-5L122.9,238.9z"/>
					</g>
					<g>
						<path class="st10" d="M190.4,143.5c-1.2-4.9-1.2-9.9-1.5-15c-0.2-3.8-0.4-7.2-3.8-9.4c-2.5-1.6-5.6-2-8.5-1.6
							c-7.9,1-9.6,8.7-9,15.9c0.5,5.6,2.6,10.9,4.8,16c-2.9-0.1-6.9-1.6-8.6-4.1c0.8,3.2,2.2,6.1,4.6,8.3c-8.4-0.1-16.2-5.6-20.6-13
							c-4.4-7.4-5.9-16.4-5.4-25.1c0.6-10.3,3.8-20.6,10.2-28.6c12.8-16,37.5-17.8,52.6-4.1c5.2,4.7,8.9,11,10.8,17.9
							c2.5,9,2.4,18.7,0.5,27.8c-0.8,3.8-1.2,7-1.5,10.8c-0.1,1.2-1.5,14.8-0.7,14.7c-5.3,0.3-11.4-0.7-15-4.8
							c1.6,2.8,3,5.5,4.6,8.3C197,156.6,192.1,150.3,190.4,143.5z"/>
						<path class="st22" d="M162.9,125c-2.4-1.4-5.2-2.2-7.4,0.1c-3.2,3.3,1.4,18.6,8.3,14.9c0,0,10.1,14.1,17.5,18.1
							c7.4,4,12.7,2,15.5-0.9c2.8-2.9,12.3-14.6,14-27c0.6-4.4,0-13.1,0.1-15c0.4-5.7,2.6-10.4-1.9-14.9c-4.6-4.5-10.9-7.3-17.3-7.5
							c-8.1-0.3-16.2,3.3-21.5,9.4C164.3,108.9,163.2,116.5,162.9,125z"/>
						<path class="st24" d="M156.6,129.2c0.6-2.8,3-3.4,4.8-1.4c1.8,2,2.1,8.3,1.7,9.3c-0.5,0.9-3.6,0.9-4.2-1.1
							c-0.6-1.9,1.2-3.1,3-2.6c0,0,0.5-2.8-0.9-4.6c-1.4-1.8-2.9-1.1-3.3-0.7C157.2,128.6,156.6,129.2,156.6,129.2z"/>
						<g>
							<path class="st13" d="M175.9,116.9c0.7-0.6,1.4-1.2,2.1-1.8c0.8-0.5,1.6-1,2.4-1.4c0.9-0.4,1.7-0.8,2.7-0.9
								c0.9-0.1,1.9,0,2.7,0.4l0,0.1c-0.5,0.2-0.9,0.3-1.3,0.4l-1.3,0.3c-0.8,0.2-1.7,0.3-2.5,0.6c-0.8,0.3-1.6,0.6-2.4,1
								c-0.8,0.4-1.6,0.9-2.4,1.3L175.9,116.9z"/>
							<path class="st13" d="M207.5,113.6c-0.8-0.4-1.6-0.7-2.4-0.9c-0.8-0.2-1.7-0.3-2.6-0.3c-0.9,0-1.7,0.2-2.6,0.2
								c-0.9,0-1.7,0-2.7-0.1l0-0.1c0.8-0.6,1.7-0.9,2.7-1.1c0.9-0.2,1.9,0,2.8,0.1c0.9,0.1,1.8,0.4,2.6,0.7
								c0.8,0.4,1.6,0.8,2.3,1.4L207.5,113.6z"/>
							<path class="st13" d="M184.4,121.9c0-1.2-0.6-2.1-1.4-2.1c-0.7,0.1-1.3,1.1-1.2,2.3c0,1.2,0.6,2.1,1.4,2.1
								C183.9,124.1,184.5,123.1,184.4,121.9z"/>
							<path class="st13" d="M203.5,120.3c0-1.2-0.5-2.1-1.1-2.1c-0.6,0.1-1,1.1-1,2.3c0,1.2,0.5,2.1,1.1,2.1
								C203.1,122.6,203.5,121.6,203.5,120.3z"/>
							<path class="st24" d="M190.4,133.6c1.7,1.1,4.1,1.1,5.9-0.1c-0.2,0.9-0.6,1.8-1.5,2.2c-0.9,0.3-1.9,0.2-2.7-0.1
								C191.2,135.2,190.9,134.4,190.4,133.6z"/>
							<g>
								<path class="st28" d="M183.8,140.7c4,0.1,13.6-0.7,16.7-1.1c-1.2,4-4.5,8-9,8C187.4,147.6,184.8,144.3,183.8,140.7z"/>
								<path class="st29" d="M187.4,146.3c1.6-0.5,3.2-0.2,3.8,0c0,0,2.1-1.5,5.2-0.5c-1.4,1.1-3.1,1.9-5,1.9
									C189.9,147.6,188.6,147.1,187.4,146.3z"/>
								<path class="st0" d="M197.8,143c-4,1.3-8.4,0.9-12.2-0.5c0-0.6-0.1-1.2-0.1-1.8c3.9-0.1,10.3-0.6,13.7-0.9
									C198.8,140.9,198.4,142,197.8,143z"/>
							</g>
						</g>
						<path class="st10" d="M166.9,111.8c6.5-0.3,12.9-1.7,19-4.2c1.1-2.6,1.2-5,1.4-7.9c1.6,3,2.6,6.3,2.8,9.8
							c3.8-0.2,7.6-0.4,11.4-0.7c1.1-3,1.2-6.1,1-9.3c1.3,3,1.9,6.7,2.4,10c2.3-0.8,5.2,0.4,7.6,0.8c3-6.6,2.8-18.5-3.5-23.5
							c-6.1-4.9-16.7-6.2-24.1-5.1c-15.8,2.3-28.3,15.4-27.3,31.8c0.6,9.3,5.2,18.2,12,24.7C165.3,130.3,164.5,120.5,166.9,111.8z"
							/>
					</g>
				</g>
			</g>
		</g>
	</g>
	<g>
		
			<ellipse transform="matrix(0.2515 -0.9678 0.9678 0.2515 90.0239 432.0168)" class="st16" cx="324.3" cy="157.8" rx="41.8" ry="41.8"/>
		<g>
			<path class="st4" d="M303.7,174.2h41.2c1.9,0,3.4-1.5,3.4-3.4v-25.9c0-1.9-1.5-3.4-3.4-3.4h-41.2c-1.9,0-3.4,1.5-3.4,3.4v25.9
				C300.3,172.6,301.8,174.2,303.7,174.2z"/>
			<path class="st2" d="M303.7,174.2h41.2c1.9,0,3.4-1.5,3.4-3.4l-24-15.1l-24,15.1C300.3,172.6,301.8,174.2,303.7,174.2z"/>
			<path class="st7" d="M303.7,141.4h41.2c1.9,0,3.4,1.5,3.4,3.4l-24,15.1l-24-15.1C300.3,143,301.8,141.4,303.7,141.4z"/>
		</g>
	</g>
	<g>
		
			<ellipse transform="matrix(0.9742 -0.2257 0.2257 0.9742 -33.1747 145.6905)" class="st16" cx="620.6" cy="217.9" rx="41.8" ry="41.8"/>
		<g>
			<g>
				<path class="st4" d="M632.3,209.8h-4.2c-0.4-1.7-1-3.2-1.9-4.6l3-3c0.4-0.4,0.4-1.1,0-1.5l-3.3-3.3c-0.4-0.4-1.1-0.4-1.5,0l-3,3
					c-1.4-0.9-2.9-1.5-4.6-1.9v-4.2c0-0.6-0.5-1-1-1h-4.7c-0.6,0-1,0.5-1,1v4.2c-1.7,0.4-3.2,1-4.6,1.9l-3-3c-0.4-0.4-1.1-0.4-1.5,0
					l-3.3,3.3c-0.4,0.4-0.4,1.1,0,1.5l3,3c-0.9,1.4-1.5,2.9-1.9,4.6h-4.2c-0.6,0-1,0.5-1,1v4.7c0,0.6,0.5,1,1,1h4.2
					c0.4,1.7,1,3.2,1.9,4.6l-3,3c-0.4,0.4-0.4,1.1,0,1.5l3.3,3.3c0.4,0.4,1.1,0.4,1.5,0l3-3c1.4,0.9,2.9,1.5,4.6,1.9v4.2
					c0,0.6,0.5,1,1,1h4.7c0.6,0,1-0.5,1-1v-4.2c1.7-0.4,3.2-1,4.6-1.9l3,3c0.4,0.4,1.1,0.4,1.5,0l3.3-3.3c0.4-0.4,0.4-1.1,0-1.5
					l-3-3c0.9-1.4,1.5-2.9,1.9-4.6h4.2c0.6,0,1-0.5,1-1v-4.7C633.3,210.2,632.9,209.8,632.3,209.8z M613.4,219.6
					c-3.6,0-6.4-2.9-6.4-6.4c0-3.6,2.9-6.4,6.4-6.4c3.6,0,6.4,2.9,6.4,6.4C619.9,216.7,617,219.6,613.4,219.6z"/>
				<path class="st7" d="M613.4,204.2c-5,0-9,4-9,9c0,5,4,9,9,9c5,0,9-4,9-9C622.4,208.2,618.4,204.2,613.4,204.2z M613.4,218.6
					c-3,0-5.5-2.5-5.5-5.5s2.5-5.5,5.5-5.5c3,0,5.5,2.5,5.5,5.5S616.4,218.6,613.4,218.6z"/>
			</g>
			<g>
				<path class="st4" d="M650.2,228.2h-2.1c-0.2-0.8-0.5-1.6-1-2.4l1.5-1.5c0.2-0.2,0.2-0.5,0-0.8l-1.7-1.7c-0.2-0.2-0.5-0.2-0.8,0
					l-1.5,1.5c-0.7-0.4-1.5-0.8-2.4-1v-2.1c0-0.3-0.2-0.5-0.5-0.5h-2.4c-0.3,0-0.5,0.2-0.5,0.5v2.1c-0.8,0.2-1.6,0.5-2.4,1l-1.5-1.5
					c-0.2-0.2-0.5-0.2-0.8,0l-1.7,1.7c-0.2,0.2-0.2,0.5,0,0.8l1.5,1.5c-0.4,0.7-0.8,1.5-1,2.4H631c-0.3,0-0.5,0.2-0.5,0.5v2.4
					c0,0.3,0.2,0.5,0.5,0.5h2.1c0.2,0.8,0.5,1.6,1,2.4l-1.5,1.5c-0.2,0.2-0.2,0.5,0,0.8l1.7,1.7c0.2,0.2,0.5,0.2,0.8,0l1.5-1.5
					c0.7,0.4,1.5,0.8,2.4,1v2.1c0,0.3,0.2,0.5,0.5,0.5h2.4c0.3,0,0.5-0.2,0.5-0.5v-2.1c0.8-0.2,1.6-0.5,2.4-1l1.5,1.5
					c0.2,0.2,0.5,0.2,0.8,0l1.7-1.7c0.2-0.2,0.2-0.5,0-0.8l-1.5-1.5c0.4-0.7,0.8-1.5,1-2.4h2.1c0.3,0,0.5-0.2,0.5-0.5v-2.4
					C650.8,228.4,650.5,228.2,650.2,228.2z M640.6,233.2c-1.8,0-3.3-1.5-3.3-3.3c0-1.8,1.5-3.3,3.3-3.3s3.3,1.5,3.3,3.3
					C643.9,231.7,642.4,233.2,640.6,233.2z"/>
				<path class="st7" d="M640.6,225.3c-2.5,0-4.6,2.1-4.6,4.6c0,2.5,2.1,4.6,4.6,4.6c2.5,0,4.6-2.1,4.6-4.6
					C645.2,227.4,643.1,225.3,640.6,225.3z M640.6,232.7c-1.5,0-2.8-1.3-2.8-2.8c0-1.5,1.3-2.8,2.8-2.8c1.5,0,2.8,1.3,2.8,2.8
					C643.4,231.4,642.1,232.7,640.6,232.7z"/>
			</g>
		</g>
	</g>
	<g>
		
			<ellipse transform="matrix(0.9278 -0.3731 0.3731 0.9278 -5.9536 168.4005)" class="st16" cx="432.1" cy="99.6" rx="41.8" ry="41.8"/>
		<g>
			<path class="st0" d="M411.3,121.1h41.5c1.8,0,3.3-1.5,3.3-3.3V83.2c0-1.8-1.5-3.3-3.3-3.3h-41.5c-1.8,0-3.3,1.5-3.3,3.3v34.5
				C408,119.6,409.5,121.1,411.3,121.1z"/>
			<path class="st7" d="M408,88.5h48.1v-5.3c0-1.8-1.5-3.3-3.3-3.3h-41.5c-1.8,0-3.3,1.5-3.3,3.3V88.5z"/>
			<g>
				<g>
					<g>
						<g>
							<path class="st0" d="M444.6,81.8L444.6,81.8c0.5,0,1-0.4,1-1v-1.7c0-0.5-0.4-1-1-1l0,0c-0.5,0-1,0.4-1,1v1.7
								C443.6,81.3,444.1,81.8,444.6,81.8z"/>
							<path class="st0" d="M447.4,81.8L447.4,81.8c0.5,0,1-0.4,1-1v-1.7c0-0.5-0.4-1-1-1l0,0c-0.5,0-1,0.4-1,1v1.7
								C446.4,81.3,446.9,81.8,447.4,81.8z"/>
						</g>
					</g>
					<g>
						<g>
							<path class="st0" d="M416.7,81.8L416.7,81.8c0.5,0,1-0.4,1-1v-1.7c0-0.5-0.4-1-1-1l0,0c-0.5,0-1,0.4-1,1v1.7
								C415.7,81.3,416.2,81.8,416.7,81.8z"/>
							<path class="st0" d="M419.5,81.8L419.5,81.8c0.5,0,1-0.4,1-1v-1.7c0-0.5-0.4-1-1-1l0,0c-0.5,0-1,0.4-1,1v1.7
								C418.5,81.3,419,81.8,419.5,81.8z"/>
						</g>
					</g>
				</g>
			</g>
			<g>
				<g>
					<g>
						<path class="st4" d="M435.1,97.8h2.6c0.4,0,0.8-0.4,0.8-0.8v-2.6c0-0.4-0.4-0.8-0.8-0.8h-2.6c-0.4,0-0.8,0.4-0.8,0.8V97
							C434.3,97.5,434.7,97.8,435.1,97.8z"/>
					</g>
					<g>
						<path class="st4" d="M425.2,97.8h2.6c0.4,0,0.8-0.4,0.8-0.8v-2.6c0-0.4-0.4-0.8-0.8-0.8h-2.6c-0.4,0-0.8,0.4-0.8,0.8V97
							C424.4,97.5,424.7,97.8,425.2,97.8z"/>
					</g>
					<g>
						<path class="st4" d="M415.3,97.8h2.6c0.4,0,0.8-0.4,0.8-0.8v-2.6c0-0.4-0.4-0.8-0.8-0.8h-2.6c-0.4,0-0.8,0.4-0.8,0.8V97
							C414.5,97.5,414.8,97.8,415.3,97.8z"/>
					</g>
					<g>
						<path class="st4" d="M445,106.4h2.6c0.4,0,0.8-0.4,0.8-0.8V103c0-0.4-0.4-0.8-0.8-0.8H445c-0.4,0-0.8,0.4-0.8,0.8v2.6
							C444.2,106,444.6,106.4,445,106.4z"/>
					</g>
					<g>
						<path class="st4" d="M435.1,106.4h2.6c0.4,0,0.8-0.4,0.8-0.8V103c0-0.4-0.4-0.8-0.8-0.8h-2.6c-0.4,0-0.8,0.4-0.8,0.8v2.6
							C434.3,106,434.7,106.4,435.1,106.4z"/>
					</g>
					<g>
						<path class="st4" d="M425.2,106.4h2.6c0.4,0,0.8-0.4,0.8-0.8V103c0-0.4-0.4-0.8-0.8-0.8h-2.6c-0.4,0-0.8,0.4-0.8,0.8v2.6
							C424.4,106,424.7,106.4,425.2,106.4z"/>
					</g>
					<g>
						<path class="st4" d="M415.3,106.4h2.6c0.4,0,0.8-0.4,0.8-0.8V103c0-0.4-0.4-0.8-0.8-0.8h-2.6c-0.4,0-0.8,0.4-0.8,0.8v2.6
							C414.5,106,414.8,106.4,415.3,106.4z"/>
					</g>
					<g>
						<path class="st4" d="M445,114.9h2.6c0.4,0,0.8-0.4,0.8-0.8v-2.6c0-0.4-0.4-0.8-0.8-0.8H445c-0.4,0-0.8,0.4-0.8,0.8v2.6
							C444.2,114.5,444.6,114.9,445,114.9z"/>
					</g>
					<g>
						<path class="st4" d="M435.1,114.9h2.6c0.4,0,0.8-0.4,0.8-0.8v-2.6c0-0.4-0.4-0.8-0.8-0.8h-2.6c-0.4,0-0.8,0.4-0.8,0.8v2.6
							C434.3,114.5,434.7,114.9,435.1,114.9z"/>
					</g>
					<g>
						<path class="st4" d="M425.2,114.9h2.6c0.4,0,0.8-0.4,0.8-0.8v-2.6c0-0.4-0.4-0.8-0.8-0.8h-2.6c-0.4,0-0.8,0.4-0.8,0.8v2.6
							C424.4,114.5,424.7,114.9,425.2,114.9z"/>
					</g>
				</g>
			</g>
		</g>
	</g>
	<g>
		
			<ellipse transform="matrix(0.7071 -0.7071 0.7071 0.7071 75.9841 425.5487)" class="st16" cx="551.7" cy="121.1" rx="41.8" ry="41.8"/>
		<g>
			
				<ellipse transform="matrix(0.7071 -0.7071 0.7071 0.7071 75.9841 425.5487)" class="st0" cx="551.7" cy="121.1" rx="28.6" ry="28.6"/>
			<path class="st7" d="M551.7,92.4c-15.8,0-28.6,12.8-28.6,28.6c0,15.8,12.8,28.6,28.6,28.6c15.8,0,28.6-12.8,28.6-28.6
				C580.3,105.2,567.5,92.4,551.7,92.4z M554.1,145.4v-3.9c0-0.7-0.6-1.3-1.3-1.3h-2.2c-0.7,0-1.3,0.6-1.3,1.3v3.9
				c-11.6-1.1-20.9-10.4-22-22h3.9c0.7,0,1.3-0.6,1.3-1.3V120c0-0.7-0.6-1.3-1.3-1.3h-3.9c1.1-11.6,10.4-20.9,22-22v3.9
				c0,0.7,0.6,1.3,1.3,1.3h2.2c0.7,0,1.3-0.6,1.3-1.3v-3.9c11.6,1.1,20.9,10.4,22,22h-3.9c-0.7,0-1.3,0.6-1.3,1.3v2.2
				c0,0.7,0.6,1.3,1.3,1.3h3.9C574.9,135.1,565.7,144.3,554.1,145.4z"/>
			<g>
				<text transform="matrix(1 0 0 1 534.0563 127.8743)" class="st30 st31 st32">24/7</text>
			</g>
		</g>
	</g>
</g>
</svg>
