<?xml version="1.0" encoding="utf-8"?>
<!-- Generator: Adobe Illustrator 24.2.1, SVG Export Plug-In . SVG Version: 6.00 Build 0)  -->
<svg version="1.1" xmlns="http://www.w3.org/2000/svg" xmlns:xlink="http://www.w3.org/1999/xlink" x="0px" y="0px"
	 viewBox="0 0 500 500" style="enable-background:new 0 0 500 500;" xml:space="preserve">
<style type="text/css">
	.st0{fill:#F5F5F5;}
	.st1{fill:#E0E0E0;}
	.st2{fill:#455A64;}
	.st3{fill:#37474F;}
	.st4{fill:#263238;}
	.st5{fill:#27DEBF;}
	.st6{opacity:0.8;fill:#FFFFFF;}
	.st7{opacity:0.5;fill:#FFFFFF;}
	.st8{opacity:0.6;fill:#FFFFFF;}
	.st9{opacity:0.3;}
	.st10{opacity:0.45;}
	.st11{opacity:0.2;}
	.st12{opacity:0.1;}
	.st13{fill:#F0F0F0;}
	.st14{opacity:0.2;fill:#263238;}
	.st15{opacity:0.6;}
	.st16{opacity:0.55;}
	.st17{fill:#FFA8A7;}
	.st18{fill:#F28F8F;}
	.st19{opacity:0.3;fill:#FFFFFF;}
	.st20{fill:#F0997A;}
	.st21{fill:#FFBDA7;}
	.st22{fill:#B16668;}
	.st23{opacity:0.4;}
	.st24{opacity:0.8;}
	.st25{fill:#FFFFFF;}
	.st26{fill:#FAFAFA;}
</style>
<g id="Floor">
	<ellipse id="Floor_19_" class="st0" cx="250" cy="339.4" rx="239.8" ry="138.4"/>
</g>
<g id="Shadows">
	<path id="Shadow_51_" class="st1" d="M309.4,436.3L479.8,338c2.3-1.3,2.3-3.5,0-4.9L238.4,193.7c-2.3-1.3-6.1-1.3-8.5,0L59.5,292
		c-2.3,1.3-2.3,3.5,0,4.9l241.4,139.4C303.3,437.7,307,437.7,309.4,436.3z"/>
	<path id="Shadow_50_" class="st1" d="M114.9,327.7l-43.5-25.1c-1.2-0.7-3.1-0.7-4.2,0l-49.6,28.6c-1.2,0.7-1.2,1.8,0,2.4L61,358.8
		c1.2,0.7,3.1,0.7,4.2,0l49.6-28.6C116,329.5,116.1,328.4,114.9,327.7z"/>
	<path id="Shadow_10_" class="st1" d="M135,437.9l-83.9-48.4c-1-0.6-1-1.5,0-2.1l65.5-37.8c1-0.6,2.6-0.6,3.6,0l83.9,48.4
		c1,0.6,1,1.5,0,2.1l-65.5,37.8C137.6,438.5,136,438.5,135,437.9z"/>
</g>
<g id="Bed_1_">
	<g id="Bed">
		<g>
			<g>
				<path class="st2" d="M87.6,305.2l-15.7-9.1c-1.6-0.9-2.8-3.1-2.8-4.9V206c0-1.8,1.3-4,2.8-4.9l158.8-91.6c1.6-0.9,4.1-0.9,5.7,0
					l15.7,9.1c1.6,0.9,2.8,3.1,2.8,4.9v85.2c0,1.8-1.3,4-2.8,4.9L93.3,305.2C91.7,306.1,89.1,306.1,87.6,305.2z"/>
				<path class="st3" d="M254.9,123.4l0,85.2c0,1.8-1.3,4-2.8,4.9L93.3,305.2c-1.6,0.9-2.8,0.2-2.8-1.6l0-85.2c0-1.8,1.3-4,2.8-4.9
					L252,121.8C253.6,120.9,254.9,121.6,254.9,123.4z"/>
				<path class="st4" d="M92.6,305.5c-1.6,0.6-3.7,0.5-5-0.3l-15.7-9.1c-1.6-0.9-2.8-3.1-2.8-4.9V206c0-0.9,0.3-1.9,0.8-2.8
					l21.4,12.3c-0.5,0.9-0.8,1.9-0.8,2.8v85.2C90.4,305.1,91.3,305.9,92.6,305.5z"/>
			</g>
			<g>
				<path class="st2" d="M318.9,395.5l-13.2-7.6c-0.8-0.5-2.1-0.5-2.8,0l-13.2,7.6c-0.4,0.2-0.7,0.6-1,1.1l0,0
					c-0.1,0.1-0.1,0.2-0.1,0.3c-0.2,0.4-0.3,0.8-0.3,1.1l0,21.4v0c0,0.9,0.6,1.9,1.3,2.4c0,0,0.1,0.1,0.1,0.1l13.2,7.6c0,0,0,0,0,0
					l0,0c0.1,0,0.1,0,0.2,0.1c0.2,0.1,0.3,0.1,0.5,0.2c0.2,0.1,0.5,0.1,0.8,0.1c0.5,0,1-0.1,1.4-0.3l13.2-7.6
					c0.8-0.5,1.4-1.6,1.4-2.5l0-21.4C320.3,397.1,319.7,396,318.9,395.5z"/>
				<path class="st3" d="M305.7,429.5l13.2-7.6c0.8-0.5,1.4-1.6,1.4-2.5l0-21.4c0-0.9-0.6-1.3-1.4-0.8l-13.2,7.6
					c-0.8,0.5-1.4,1.6-1.4,2.5l0,21.4C304.3,429.6,304.9,430,305.7,429.5z"/>
			</g>
			<g>
				<path class="st2" d="M462,313l-13.2-7.6c-0.8-0.5-2.1-0.5-2.8,0l-13.2,7.6c-0.4,0.2-0.7,0.6-1,1.1l0,0c0,0.1-0.1,0.2-0.1,0.3
					c-0.2,0.4-0.3,0.8-0.3,1.1l0,21.4v0c0,0.9,0.6,1.9,1.3,2.4c0,0,0.1,0.1,0.1,0.1l13.2,7.6c0,0,0,0,0,0l0,0c0.1,0,0.1,0,0.2,0.1
					c0.2,0.1,0.3,0.1,0.5,0.2c0.2,0.1,0.5,0.1,0.8,0.1c0.5,0,1-0.1,1.4-0.3l13.2-7.6c0.8-0.5,1.4-1.6,1.4-2.5l0-21.4
					C463.4,314.5,462.8,313.4,462,313z"/>
				<path class="st3" d="M448.8,346.9l13.2-7.6c0.8-0.5,1.4-1.6,1.4-2.5l0-21.4c0-0.9-0.6-1.3-1.4-0.8l-13.2,7.6
					c-0.8,0.5-1.4,1.6-1.4,2.5l0,21.4C447.4,347,448,347.4,448.8,346.9z"/>
			</g>
			<g>
				<path class="st2" d="M249.2,184.3L96.1,272.6c-3.1,1.8-5.7,6.2-5.7,9.9l0,5.4c0,3.6,2.6,8.1,5.7,9.9l202.5,116.9
					c3.1,1.8,8.3,1.8,11.4,0L463,326.3c3.1-1.8,5.7-6.2,5.7-9.9l0-5.4c0-3.6-2.6-8.1-5.7-9.9L260.6,184.3
					C257.4,182.5,252.3,182.5,249.2,184.3z"/>
				<path class="st4" d="M468.7,311.1v5.4c0,3.6-2.6,8.1-5.7,9.9L310,414.7c-1.6,0.9-3.6,1.4-5.7,1.4v-18.6c2.1,0,4.1-0.4,5.7-1.4
					L463,307.8c2.9-1.7,3.1-4.4,0.6-6.2C466.5,303.6,468.7,307.6,468.7,311.1z"/>
				<path class="st3" d="M96.1,279.2c-3-1.7-3.1-4.5-0.4-6.3c-2.9,2-5.3,6.1-5.3,9.6l0,5.4c0,3.6,2.6,8.1,5.7,9.9l202.5,116.9
					c1.6,0.9,3.6,1.4,5.7,1.4v-18.6c-2.1,0-4.1-0.4-5.7-1.4L96.1,279.2z"/>
			</g>
			<g>
				<path class="st5" d="M249.2,153.5L96.1,241.8c-3.1,1.8-5.7,6.2-5.7,9.9l0,11.5c0,3.6,2.6,8.1,5.7,9.9L298.6,390
					c3.1,1.8,8.3,1.8,11.4,0L463,301.6c3.1-1.8,5.7-6.2,5.7-9.9l0-11.5c0-3.6-2.6-8.1-5.7-9.9L260.6,153.5
					C257.4,151.7,252.3,151.7,249.2,153.5z"/>
				<path class="st6" d="M96.1,248.4l202.5,116.9c3.1,1.8,8.3,1.8,11.4,0L463,276.9c3.1-1.8,3.1-4.8,0-6.6L260.6,153.5
					c-3.1-1.8-8.3-1.8-11.4,0L96.1,241.8C93,243.6,93,246.6,96.1,248.4z"/>
				<path class="st7" d="M468.7,280.2v11.5c0,3.6-2.6,8.1-5.7,9.9L310,390c-1.6,0.9-3.6,1.4-5.7,1.4v-24.7c2.1,0,4.1-0.4,5.7-1.4
					L463,276.9c2.9-1.7,3.1-4.4,0.6-6.2C466.5,272.7,468.7,276.8,468.7,280.2z"/>
				<path class="st8" d="M96.1,248.4c-3-1.7-3.1-4.5-0.4-6.3c-2.9,2-5.3,6.1-5.3,9.6l0,11.5c0,3.6,2.6,8.1,5.7,9.9L298.6,390
					c1.6,0.9,3.6,1.4,5.7,1.4v-24.7c-2.1,0-4.1-0.4-5.7-1.4L96.1,248.4z"/>
			</g>
		</g>
		<g>
			<g>
				<path class="st5" d="M122.9,263.9l0,43.2l181.3,104.7v-45.1c-2.1,0.1-3.9-0.5-5.7-1.4L122.9,263.9z"/>
				<path class="st9" d="M122.9,263.9l0,43.2l181.3,104.7v-45.1c-2.1,0.1-3.9-0.5-5.7-1.4L122.9,263.9z"/>
			</g>
			<g>
				<path class="st5" d="M463,276.9c2.9-1.7,3.1-4.4,0.6-6.2c2.9,2,5.1,6.1,5.1,9.5v11.5v25.1l-164.5,94.9v-45.1
					c1.9,0,3.9-0.4,5.7-1.4L463,276.9z"/>
				<path class="st10" d="M463,276.9c2.9-1.7,3.1-4.4,0.6-6.2c2.9,2,5.1,6.1,5.1,9.5v11.5v25.1l-164.5,94.9v-45.1
					c1.9,0,3.9-0.4,5.7-1.4L463,276.9z"/>
			</g>
			<g>
				<path class="st5" d="M463,270.4L287.4,169l-164.5,94.9l175.6,101.4c3.1,1.8,8.3,1.8,11.4,0L463,276.9
					C466.2,275.1,466.2,272.2,463,270.4z"/>
				<path class="st11" d="M463,270.4L287.4,169l-164.5,94.9l175.6,101.4c3.1,1.8,8.3,1.8,11.4,0L463,276.9
					C466.2,275.1,466.2,272.2,463,270.4z"/>
				<polygon class="st11" points="144.3,276.3 144.3,319.6 147,321 147,277.8 				"/>
				<polygon class="st12" points="144.3,276.3 308.8,181.3 311.6,182.9 147,277.8 				"/>
			</g>
		</g>
		<g>
			<path class="st13" d="M287.4,179.5c1.9-6.8-0.9-10.3-4.6-16.6c-3.7-6.3-12.4-18.5-16-23.7c-3.6-5.2-7.5-10.3-9.6-11
				c-2.1-0.7-3.6-1.6-9.2,0.5c-5.6,2-17.3,9-31.8,17c-14.5,8-33.8,19.3-34.7,27.1c-0.6,4.8,24.9,47.4,31.1,48
				c13.8,1.4,28.3-8.9,36-13.5c12.8-7.7,22-13.4,30.8-19.4C283.4,185.1,286.5,182.7,287.4,179.5z"/>
			<path class="st1" d="M188.2,189.8c3.4,5.5,13.2,20.3,16.6,24.7c3.4,4.4,9.3,9.4,10.7,3.8c1.4-5.6-3.9-12.7-7.5-18.3
				c-3.6-5.6-13.6-18.8-16.8-23.1c-3.2-4.3-8.7-8.5-9.9-3.5C180,178.5,184.8,184.4,188.2,189.8z"/>
		</g>
		<g>
			<path class="st13" d="M210.1,224.6c1.9-6.8-0.9-10.3-4.6-16.6c-3.7-6.3-12.4-18.5-16-23.7c-3.6-5.2-7.5-10.3-9.6-11
				c-2.1-0.7-3.6-1.6-9.2,0.5c-5.6,2-17.3,9-31.8,17c-14.5,8-33.8,19.3-34.7,27.1c-0.6,4.8,24.9,47.4,31.1,48
				c13.8,1.4,28.3-8.9,36-13.5c12.8-7.7,22-13.4,30.8-19.4C206.2,230.2,209.3,227.7,210.1,224.6z"/>
			<path class="st1" d="M110.9,234.9c3.4,5.5,13.2,20.3,16.6,24.7c3.4,4.4,9.3,9.4,10.7,3.8c1.4-5.6-3.9-12.7-7.5-18.3
				c-3.6-5.6-13.6-18.8-16.8-23.1c-3.2-4.3-8.7-8.5-9.9-3.5C102.7,223.5,107.6,229.4,110.9,234.9z"/>
		</g>
	</g>
	<g id="Shadow_2_">
		<path id="Shadow_9_" class="st14" d="M145.8,217.9c-1.6,7.6-3.2,15.2-4.7,22.8c-0.8,4-1.4,8.9,1.8,11.4c4.3,3.4,11.7-0.7,16,2.8
			c1.8,1.5,2.5,3.9,3.3,6.1c3.7,10.1,12.7,17.5,22.4,22.1c9.7,4.6,20.4,6.8,30.8,9.4c4.4,1.1,8.7,2.3,12.6,4.6
			c5.2,3.1,9.3,7.8,14.1,11.4c6.6,4.9,14.5,7.6,21.5,11.7c1.3,0.8,2.3,1.9,3.6,2.7c1.7,0.9,3.7,1.6,5.4,2.5c3.6,2,6.8,4.5,9.6,7.4
			c1.2,1.2,2.2,2.5,3.6,3.5c1.6,1.2,3.6,1.9,5.6,2c3.5,0.2,7.2-1.8,8.1-5.1c0.7-2.6-0.4-5.3-2.3-7.3c-1.8-1.8-4-2.4-6-3.8
			c-1.9-1.3-3.7-2.3-5.8-3.3c-5-2.3-9.8-5.1-14-8.6c-4.5-3.8-8.1-8.5-12.1-12.8c-6.9-7.5-14.7-14.2-23.2-19.8
			c4.4-0.8,8.8,1.1,12.5,3.6c3.7,2.5,7,5.6,11.1,7.3c5,2.2,11.1,2.5,14.9,6.4c1.2,1.3,2.1,2.9,3.4,4.1c3.3,3,8.3,2.8,12.8,2.4
			c1.1-0.1,2.5-0.6,2.4-1.7c0-0.3-0.2-0.6-0.5-0.9c-10.4-14.2-25.1-24.6-40.2-33.7c-15.1-9.1-30.8-17.2-44.5-28.2
			c-13.1-10.5-23.9-23.4-37.2-33.7c-4.4-3.4-10.7-8.6-16.4-5C148.8,202,147.1,211.8,145.8,217.9z"/>
		<path id="Shadow_3_" class="st14" d="M224.4,226.2c2.7,5.3,6,10.3,10.6,14c4.6,3.7,10.7,5.8,16.5,4.6c0.5-0.1,1.1-0.3,1.5-0.6
			c1.7-1.4,0.3-4.1-1.4-5.5c-3.1-2.7-13-7.8-11-13.2c2.8,0.2,5.9,1.6,8.6,2.5c3.1,1,6.2,2,9.2,3.1c6.1,2.2,12.1,4.5,18.1,7.1
			c4.1,1.8,8.1,3.6,11.5,6.4c2.8,2.3,5.1,5.2,7.9,7.6c6.5,5.6,15,8.1,22.4,12.5c1.1,0.7,2.3,1.5,2.8,2.7c0.5,1.3,0.3,2.7,0.4,4.1
			c0.3,2.5,2,4.7,4.1,6.1c2.1,1.4,4.6,2.1,7,2.9c5.2,1.5,10.4,3.1,15.5,4.6c2,0.6,4.2,1.2,6.3,0.8c2.1-0.5,4-2.4,3.6-4.5
			c-0.2-1.4-1.3-2.4-2.4-3.3c-7.8-6.7-16.7-12.1-24.5-18.8c-3.9-3.3-7.6-6.8-10.9-10.6c-1.7-1.9-3.3-3.9-4.8-5.9
			c-0.8-1.1-2.8-5.6-4-6c8.5,3.3,16.8,8.9,24.6,13.8c1.6,1,3.1,2,4.3,3.3c2.5,2.9,3.3,7.1,6.2,9.6c1.4,1.1,3.1,1.8,4.8,2.4
			c8,2.9,15.9,6.7,24.6,6.1c1.1-0.1,2.3-0.3,2.9-1.2c0.8-1.4-0.6-3.1-1.9-4.1c-7-5.4-14.8-9.8-21.8-15.3c-8.1-6.4-15-14.4-21.1-22.7
			c-4.4-6-8.6-12.4-14.6-16.9c-3.5-2.7-7.6-4.7-11.6-6.6c-11-5.3-22.1-10.7-34-13.2c-5.3-1.1-10.8-1.7-15.6-4.2
			c-5.6-3-9.5-8.4-14.2-12.8c-4.6-4.4-11.1-8-17.2-6.1C207.5,174.6,218.5,214.6,224.4,226.2z"/>
		<path id="Shadow_1_" class="st14" d="M336.9,317.4c-1.7-1.9-3.4-5.1-2.8-7.8c5.7,2.9,11.9,3.8,18.2,3.4c6-0.4,11.9-2.5,17.4-5
			c1.1-0.5,2.3-1.1,3-2.1c0.5-0.7,0.7-1.7,1.2-2.4c0.5-0.7,1.2-1.1,1.9-1.7c0.6-0.6,1.2-1.4,1-2.2c3.7,0.7,7.4,1.6,11.1,2.5
			c1.9,0.5,3,1.3,4.3,2.7c1,1,2.7,2.5,4.2,1.4c1,0.7,2.6,0.4,3.2-0.7c0.2-0.4,0.4-0.9,0.7-1.2c0.2-0.2,0.6-0.4,0.7-0.7
			c0.2-0.5-0.2-1-0.6-1.3c-3.5-3.1-7.6-5.4-11.6-7.6c3.1-1.3,4.9-5.4,4.6-8.6c-0.3-3.5-2.7-6.5-5.6-8.4c-2.9-1.9-6.4-2.7-9.9-3.2
			c-6.4-0.8-13-0.3-19.1,1.9c-6.1,2.2-11.6,6-15.5,11.2c-1.4,1.9-2.6,4-3.9,6c-1.9,2.8-4.2,5.2-6.2,7.9c-3.2,4.4-5.2,9.6-2.6,14.8
			c2.2,4.3,7.1,7,11.9,6.9c0.1-0.4,0.1-0.7,0.2-1.1C340.6,320.6,338.5,319.3,336.9,317.4z"/>
	</g>
</g>
<g id="Night_Table">
	<g id="Nightstand_2_">
		<polygon id="XMLID_2083_" class="st5" points="104.8,332.3 97.3,328 104.8,325.8 		"/>
		<polygon id="XMLID_2082_" class="st15" points="104.8,332.3 97.3,328 104.8,325.8 		"/>
		<polygon id="XMLID_2081_" class="st5" points="67.2,347.5 67.2,354.4 23.9,329.4 23.9,322.5 		"/>
		<polygon id="XMLID_2080_" class="st15" points="67.2,347.5 67.2,354.4 23.9,329.4 23.9,322.5 		"/>
		<polygon id="XMLID_2079_" class="st5" points="20.2,268.3 63.4,293.4 63.4,349.7 20.2,324.7 		"/>
		<polygon id="XMLID_2073_" class="st16" points="20.2,268.3 63.4,293.4 63.4,349.7 20.2,324.7 		"/>
		<polygon id="XMLID_2071_" class="st5" points="63.4,293.4 112.3,265.2 112.3,321.5 63.4,349.7 		"/>
		<polygon id="XMLID_2059_" class="st10" points="63.4,293.4 112.3,265.2 112.3,321.5 63.4,349.7 		"/>
		<polygon id="XMLID_2057_" class="st5" points="112.3,265.2 69,240.1 20.2,268.3 63.4,293.4 		"/>
		<polygon id="XMLID_1909_" class="st9" points="112.3,265.2 69,240.1 20.2,268.3 63.4,293.4 		"/>
		<polygon id="XMLID_1167_" class="st5" points="67.2,295.5 108.5,271.7 108.5,284.7 67.2,308.5 		"/>
		<polygon id="XMLID_1166_" class="st11" points="67.2,295.5 108.5,271.7 108.5,284.7 67.2,308.5 		"/>
		<polygon id="XMLID_1165_" class="st11" points="67.2,312.9 108.5,289 108.5,319.3 67.2,343.2 		"/>
		<polygon id="XMLID_1164_" class="st5" points="67.2,354.4 70.9,352.3 70.9,345.4 67.2,347.5 		"/>
		<polygon id="XMLID_1162_" class="st16" points="67.2,354.4 70.9,352.3 70.9,345.4 67.2,347.5 		"/>
		<polygon id="XMLID_1105_" class="st5" points="104.8,332.3 108.5,330.2 108.5,323.7 104.8,325.8 		"/>
		<polygon id="XMLID_1104_" class="st16" points="104.8,332.3 108.5,330.2 108.5,323.7 104.8,325.8 		"/>
		<path id="XMLID_1093_" class="st3" d="M80,290.9c0,0.6,1.8,0,4-1.2l7-4c2.2-1.3,4-2.8,4-3.4l0-1.1l-15,8.7
			C80,289.8,80,290.3,80,290.9z"/>
		<polygon id="XMLID_1092_" class="st11" points="108.5,319.3 82.4,304.1 67.2,312.9 67.2,343.2 		"/>
	</g>
	<g id="Lamp_1_">
		<g id="XMLID_1087_">
			<g id="XMLID_1090_">
				<path id="XMLID_1091_" class="st4" d="M51.9,269.1c0-0.3,0-0.5-0.1-0.8c-0.5-3-3-6.2-4.8-7.2H37c-1.8,1-4.3,4.2-4.8,7.2
					c-0.1,0.3-0.1,0.5-0.1,0.8c0,0,0,0.1,0,0.1c0.1,1.4,1,2.8,2.9,3.8c3.9,2.2,10.1,2.2,14,0c1.8-1.1,2.8-2.4,2.9-3.8
					C51.9,269.3,51.9,269.2,51.9,269.1z"/>
			</g>
			<g id="XMLID_1088_">
				<path id="XMLID_1089_" class="st3" d="M37.3,261c-2.6,1.5-2.6,4,0,5.5c2.6,1.5,6.9,1.5,9.5,0c2.6-1.5,2.6-4,0-5.5
					C44.2,259.5,39.9,259.5,37.3,261z"/>
			</g>
		</g>
		<path id="XMLID_1086_" class="st2" d="M43.4,227.5h-2.7v35.2h0c0,0.2,0.1,0.5,0.4,0.6c0.5,0.3,1.4,0.3,1.9,0
			c0.3-0.2,0.4-0.4,0.4-0.6h0V227.5z"/>
		<g id="XMLID_915_">
			<g id="XMLID_1020_">
				<path id="XMLID_1082_" class="st5" d="M61.6,226.3L61.6,226.3l-9.2-23.5H31.7l-9.2,23.5h0c-1.3,3.7,0.5,7.6,5.4,10.5
					c7.8,4.5,20.4,4.5,28.2,0C61.1,233.9,62.9,230,61.6,226.3z"/>
				<path id="XMLID_1081_" class="st5" d="M34.5,208.4c4.1,2.4,10.8,2.4,15,0c4.1-2.4,4.1-6.3,0-8.6s-10.8-2.4-15,0
					S30.4,206.1,34.5,208.4z"/>
				<path id="XMLID_1077_" class="st8" d="M34.5,208.4c4.1,2.4,10.8,2.4,15,0c4.1-2.4,4.1-6.3,0-8.6s-10.8-2.4-15,0
					S30.4,206.1,34.5,208.4z"/>
				<path id="XMLID_1021_" class="st5" d="M42,208.7c-2.5,0-4.8-0.5-6.5-1.5c-1.5-0.9-2.3-2-2.3-3.1s0.8-2.2,2.3-3.1
					c1.7-1,4-1.5,6.5-1.5c2.5,0,4.8,0.5,6.5,1.5c1.5,0.9,2.3,2,2.3,3.1s-0.8,2.2-2.3,3.1C46.8,208.2,44.5,208.7,42,208.7z"/>
			</g>
		</g>
	</g>
</g>
<g id="Character_2">
	<g id="Character_2_">
		<g id="XMLID_2174_">
			<path class="st17" d="M373.5,261.5c-7.8-3.7-13.7-10.1-18.8-16.7c-3.6-6.1-21.2-35.3-24.3-39.4c-3.7-4.9-24.1-11.8-34.1-14.9
				c-3.3-1-21-4.9-21-4.9l-18.6-3.6c0,6.4-0.1,11.4,3.2,17.3c3.3,5.9,9.8,9.3,19.4,12.7c8,2.8,29.9,4.7,32.2,5.2c2.3,0.5,4.5,0,6,4
				c1.4,3.9,1.4,5.9,6.5,10.5c6.4,5.9,17.3,12.8,21.8,19.4c0.7,1.6,1,3.2,1,5c-0.1,6.6,5.5,5.8,9.6,9.1c2.3,1.8,3.9,3.8,6.7,4.7
				c2.5,0.8,5.4,1,8,0.6c2.4-0.3,6-1.7,7.3-3.9C380.3,263.7,376.2,262.8,373.5,261.5z"/>
			<path id="XMLID_2195_" class="st18" d="M318.7,218.3c-1.1-5.2-8.3-6.6-14.2-8.9c-5-2-30.2-10.7-30.2-10.7c1.4-4.4,1-10,1-10
				l-17.7,4.8c0.5,1.9,1.2,3.7,2.3,5.7c3.3,5.9,9.8,9.3,19.4,12.7c8,2.8,29.9,4.7,32.2,5.2c2.3,0.5,4.5,0,6,4
				c1.4,3.9,1.4,5.9,6.5,10.5C319.5,226.6,319.3,221.2,318.7,218.3z"/>
			<g>
				<path class="st5" d="M289.5,215c0,0,0.4-12.1,6.2-17.9c3.8-3.8,6.9-4.6,6.9-4.6s-2.8-1.3-13.6-4c-9.3-2.3-32.5-7-32.5-7
					s-3.9,15.8,9.6,25.2C279.5,216.2,289.5,215,289.5,215z"/>
				<path class="st19" d="M289.5,215c0,0,0.4-12.1,6.2-17.9c3.8-3.8,6.9-4.6,6.9-4.6s-2.8-1.3-13.6-4c-9.3-2.3-32.5-7-32.5-7
					s-3.9,15.8,9.6,25.2C279.5,216.2,289.5,215,289.5,215z"/>
				<path class="st12" d="M279.3,212c2.4,0.8,6.1,1.6,10.2,2.3c0.1-1.6,0.5-5.6,1.8-9.6c-8.3-2.9-17.1-5.9-17.1-5.9
					c1.4-4.4,1-10,1-10l-17.7,4.8c0.5,1.9,1.2,3.7,2.3,5.7C263.2,205.2,269.7,208.6,279.3,212z"/>
			</g>
			<path class="st17" d="M353.9,273.7c-7.7-3.9-13.8-10-18.9-16.5c-4-6.6-21.1-35.1-24.2-39.2c-4.9-6.5-39.6-17.4-39.6-17.4s0,0,0,0
				c0.2-0.4,2.1-4.6,3.1-10.1c0.2-1,0.3-2.9,0.3-3.9L236.9,198c1.3,7.3,2.6,11.5,5,15c0.4,0.6,0.8,1.2,1.2,1.7
				c4.2,5.3,9.3,8.1,16.6,9.8c8.2,2,29.9,4.7,32.2,5.2c2.3,0.5,4.5,0,6,4c1.5,3.9,1.4,5.9,6.5,10.5c6.4,5.9,17.3,12.7,21.8,19.4
				c0.7,1.6,1,3.2,1,5c-0.1,6.6,5.5,5.8,9.6,9.1c2.3,1.8,3.9,3.8,6.7,4.7c2.5,0.8,5.4,1,8,0.6c2.4-0.3,6-1.7,7.3-3.9
				C360.7,276.2,356.1,274.8,353.9,273.7z"/>
			<g>
				<path class="st5" d="M236.9,198.6c0,0,0.9,10.2,5.3,16.2c4.4,6,10.1,9.2,16.6,10.7c6.5,1.6,13.7,2.6,13.7,2.6s0.5-6-3.8-9.7
					c0,0,5.5-0.4,8.9-3.1c3.5-2.7,7.4-8.3,12-8.4c0,0-7.5-3.5-18.1-7c0,0,4.6-6.6,3.9-14.5L236.9,198.6z"/>
				<path class="st7" d="M236.9,198.6c0,0,0.9,10.2,5.3,16.2c4.4,6,10.1,9.2,16.6,10.7c6.5,1.6,13.7,2.6,13.7,2.6s0.5-6-3.8-9.7
					c0,0,5.5-0.4,8.9-3.1c3.5-2.7,7.4-8.3,12-8.4c0,0-7.5-3.5-18.1-7c0,0,4.6-6.6,3.9-14.5L236.9,198.6z"/>
			</g>
		</g>
		<path class="st17" d="M305.2,159.1c-3.5,2.6-10.4,8.1-16.5,12.4c-4.6-5.1-11.7-15-15.5-20.2c-5.6-7.6-11.2-10.7-15.8-9.3
			c0,0,0.8,4.2,1.9,7.9c0.9,3.3,3.5,13.6,3.5,13.6s18.1,18.7,20.9,21c2.9,2.3,5.5,2,7.6,0.6c1-0.6,9.2-7.7,12.4-10.6
			c1.6-1.4,8-7.6,9.6-8.9L305.2,159.1z"/>
		<g>
			<path class="st17" d="M303.9,160c2.9-2.2,3.1-4.3,7.3-6.7c2.7-1.5,4-2.9,6.9-3.6c1.9-0.5,4,1,3.7,1.5c-0.5,1.2-2.5,1.8-3.4,3.1
				c-1.1,1.5,0.1,2.3,2.6,2.9c1.6,0.3,5.4,1,10.4,2.3c2.4,0.6,2,4.9-2.8,6.8c-4.8,1.9-14-0.6-18.3,1.9
				C306,170.8,303.9,160,303.9,160z"/>
			<path class="st18" d="M331.4,159.6c-5-1.3-8.9-2-10.4-2.3c-1.4-0.3-2.4-0.7-2.8-1.3c-0.1,0-0.2,0.1-0.2,0.1
				c-0.8,0.5-2,0.5-2.9,0.7c-1.4,0.2-2.8,1-3.1,2.4c-0.2,0.8,0,1.7,0.5,2.4c0.5,0.7,1.3,1.1,2.1,1.5c1.8,0.9,3.7,1.8,5,3.4
				c0.2,0.2,0.3,0.4,0.5,0.6c3.1,0.1,6.3,0.1,8.5-0.7C333.4,164.5,333.8,160.2,331.4,159.6z"/>
			<g>
				<g>
					<path class="st20" d="M328,155.5c-0.4,0.1-0.7,0.2-1.1,0.3c-0.5,0.1-1,0.3-1.5,0.6c-0.4,0.3-0.7,0.7-0.9,1.1
						c-0.3,0.3-0.5,0.4-0.9,0.5c-0.9,0.2-1.9,0.1-2.6,0.7c-0.4,0.4-0.7,0.9-1.1,1.3c-0.7,0.6-1.7,0.8-2.6,0.6
						c-0.3,0-0.6-0.1-0.9-0.1c-0.7,0-1.3,0.6-2,0.5c-0.1,0-0.1,0-0.2,0c-1.2-0.2-1.7-1.3-1.5-2.4c0.2-0.9-0.3-1.4,0.3-2.1
						c0.6-0.7,1.5-1.2,2.4-1.2c0.2,0,0.4,0,0.6-0.1c0.3-0.1,0.4-0.4,0.6-0.7c0.4-0.8,1.1-1.6,2-1.8c0.5-0.1,1-0.1,1.5-0.2
						c0.9-0.3,1.5-1.2,2.4-1.3c0.2,0,0.5,0,0.7,0c0.9-0.1,1.1-1.4,1.9-1.9c0.6-0.4,1.4-0.3,2-0.5c0.8-0.3,1.4-1,2.3-1.1
						c0.9-0.1,1.8,0.4,2.2,1.2c0.4,0.6,0.6,1.3,0.6,2c0.1,0.7,0,1.4-0.5,1.9c-0.3,0.3-0.8,0.6-1.2,0.7c-0.3,0.1-0.5,0.2-0.7,0.4
						c-0.3,0.2-0.7,0.5-0.9,0.9C328.6,155.1,328.3,155.4,328,155.5z"/>
					<path class="st12" d="M331.6,152.8c0.3-0.3,0.4-0.6,0.5-0.9c-1.1,0.4-2.5-0.2-3.3,0.7c-0.4,0.5-0.5,1.3-1.1,1.5
						c-0.3,0.1-0.6,0-0.9,0c-0.9-0.1-1.8,0.3-2.4,1c-0.4,0.5-0.7,1.1-1.3,1.5c-0.6,0.4-1.5,0.2-2.2,0.2c-1.1,0.1-2.1,0.6-2.8,1.4
						c-0.2,0.3-0.4,0.5-0.7,0.7c-0.3,0.2-0.6,0.2-1,0.1c-0.4-0.1-0.9-0.1-1.3-0.1c-0.4,0-0.9,0.1-1.2-0.2c-0.3-0.2-0.4-0.5-0.5-0.9
						c-0.2-1.1,0.5-1.9,1.2-2.5c0,0,0,0,0,0c-0.7,0.2-1.3,0.6-1.7,1.1c-0.6,0.7-0.1,1.2-0.3,2.1c-0.3,1.2,0.3,2.3,1.5,2.4
						c0.1,0,0.1,0,0.2,0c0.8,0,1.3-0.5,2-0.5c0.3,0,0.6,0.1,0.9,0.1c0.9,0.1,2,0,2.6-0.6c0.4-0.4,0.7-0.9,1.1-1.3
						c0.7-0.6,1.7-0.5,2.6-0.7c0.4-0.1,0.7-0.2,0.9-0.5c0.3-0.4,0.6-0.8,0.9-1.1c0.4-0.3,0.9-0.5,1.5-0.6c0.4-0.1,0.7-0.1,1.1-0.3
						c0.3-0.1,0.6-0.4,0.8-0.7c0.2-0.4,0.5-0.7,0.9-0.9c0.2-0.2,0.5-0.3,0.7-0.4C330.8,153.3,331.3,153.1,331.6,152.8z"/>
				</g>
				<path class="st21" d="M314.1,161c3.2,1.1,8.8,4,14.9,11.8c3,3.8,5.8,10.6,8.5,4.7c1.1-2.3,1.5-5,1.6-7.5
					c0.2-3.1-0.2-6.3-1.2-9.3c-1.1-3.2-2.8-6.2-5.3-8.5c-0.2-0.2-0.4-0.3-0.6-0.5c-0.1,0.1-0.3,0.4-0.5,0.6
					c-0.1,0.2-0.3,0.3-0.5,0.4c-0.5,0.3-1.1,0.3-1.6,0.6c-0.4,0.3-0.7,0.7-1.1,1.1c-0.4,0.4-1,0.7-1.6,0.8c-0.4,0.1-0.9,0-1.3,0.2
					c-0.6,0.3-0.9,1.1-1.4,1.6c-0.6,0.6-1.4,0.7-2.2,0.8c-0.4,0-0.9,0.1-1.2,0.3c-0.8,0.4-1.2,1.2-1.9,1.6c-0.9,0.5-1.9,0.3-2.8,0.5
					C315.4,160.3,314.8,160.7,314.1,161z"/>
				<path class="st19" d="M332.7,152.1c-0.2-0.2-0.4-0.3-0.6-0.5c-0.1,0.1-0.3,0.4-0.5,0.6c-0.1,0.2-0.3,0.3-0.5,0.4
					c-0.5,0.3-1.1,0.3-1.6,0.6c-0.4,0.3-0.7,0.7-1.1,1.1c-0.4,0.4-1,0.7-1.6,0.8c-0.4,0.1-0.9,0-1.3,0.2c-0.6,0.3-0.9,1.1-1.4,1.6
					c-0.6,0.6-1.4,0.7-2.2,0.8c-0.4,0-0.9,0.1-1.2,0.3c-0.8,0.4-1.2,1.2-1.9,1.6c-0.6,0.4-1.4,0.4-2.1,0.4c0,0,0.1,0.1,0.1,0.1
					c3.3,1.4,6.3,3.2,8.9,5.7c2,2,3.8,4.3,5.3,6.7c0.8,1.2,1.5,2.4,2.3,3.7c0.6,1.1,1.2,2.3,2.3,3c0.2,0.1,0.3,0.2,0.5,0.2
					c0.5-0.4,0.9-1,1.4-2c1.1-2.3,1.5-5,1.6-7.5c0.2-3.1-0.2-6.3-1.2-9.3C337,157.4,335.2,154.5,332.7,152.1z"/>
				<path class="st22" d="M321.5,159.5c-0.3,0.6,0,1.4,0.4,1.8c0.5,0.5,1.2,0.7,1.8,0.8c0.6,0.1,1.3,0.2,1.9,0.1
					c0.6-0.2,1.2-0.7,1.3-1.3c0.1-0.7-0.4-1.3-0.9-1.7c-1-0.7-2.1-0.8-3.2-0.6C322.3,158.6,321.7,159.1,321.5,159.5z"/>
				<path class="st22" d="M333.3,161.3c-0.4,0.1-0.9,0.2-1.2,0.4c-0.4,0.3-0.6,0.7-0.6,1.1c0,1.5,2.4,2.3,3.6,2.3
					c0.5,0,1-0.1,1.4-0.4c1-0.6,0.7-1.8-0.1-2.5c-0.5-0.5-1.1-0.8-1.7-1C334.2,161.2,333.7,161.3,333.3,161.3z"/>
				<path class="st22" d="M334.6,168.1c1.1,0.2,2.2,1.1,2.5,2.2c0.2,0.5,0.1,1.2-0.3,1.6c-0.3,0.4-0.8,0.5-1.3,0.6
					c-1.2,0.1-2.8-0.4-3.4-1.5c-0.3-0.6-0.4-1.4,0-2C332.8,168.2,333.7,167.9,334.6,168.1z"/>
				<path class="st22" d="M333.8,157.6c0.6-0.2,1.1-0.6,0.8-1.4c-0.3-1.2-1.7-2.1-2.9-2.2c-1.5-0.1-2.5,1.2-1.5,2.5
					c0.4,0.5,1,0.9,1.7,1C332.4,157.6,333.2,157.7,333.8,157.6z"/>
			</g>
		</g>
		<path class="st17" d="M320.9,150.2c1.5,0.6,3.9,1,3.6,2c-0.3,1.1-2.6,2-4.1,1.5c-1.5-0.5-2.6-0.8-2.6-0.8L320.9,150.2z"/>
		<g>
			<path id="XMLID_2154_" class="st17" d="M238,146.1l-8.5,3c0,0,3.5,3.9,3.2,13.6c-0.1,4.5-1.5,7.2-3.2,9.9
				c-0.5,8.7,7.4,25.4,7.4,25.4s8.3,4.1,23.1-0.6c13-4.2,14-12.4,14-12.4l-8.1-3.4l0.4-8c0,0-0.7-9.6-2.9-17.4
				c-2.2-7.9-6.1-14.1-6.1-14.1l-6.5,1.2L238,146.1z"/>
			<path id="XMLID_2146_" class="st18" d="M236.9,198c0,0,3.5,1.7,10,1.6c1.1-1.1,1.2-2-1.6-2.2c-7.6-0.6-9.5-6.7-10.7-11
				c-1.3-4.3-2-11.7-2-11.7c0.8-2.1,1.3-7.5,1.3-7.5c-0.4,2.7-2.7,7.3-2.7,7.3l-0.1,7.7l0,0C233.1,190,236.9,198,236.9,198z"/>
			<path class="st2" d="M274.7,184.7l-6.7-2.6l-1.6-3.1l0.5-5.3c1.6-1.8,4.8-6.8,2.2-12.4c-0.5-1-1.4-2.3-2.6-3.7
				c-1.2-1.4-4.6-5-8.1-8.8c-1.9-2.1-3.6-4.5-5.5-5.9l-3.3,0.6c0,0,7.8,7.3,8,10.8c0.2,3.5-14,7.8-16.7,4.3c-2.7-3.5-4.6-8-7.2-11
				l-4.4,1.5c3.7,3.4,7.7,11.5,7,18.1c-0.8,6.6-5.4,10-5.4,10l-1,1c0,0,1,6.1,2.4,10.5c1.4,4.4,3.7,9.4,3.7,9.4s0.8,6.9,2.9,11.6
				c0.8-0.5,1.9-4.9,1.6-8.7c4.6,3,12.8,7.8,27.5-2.7C274.6,194,274.7,184.7,274.7,184.7z"/>
			<path class="st3" d="M261.9,202.2c-1.4,0.3-12,2.3-20-3.9c-8.5-6.7-9-19.3-9.4-22.6v0c-0.9,1-1.6,1.5-1.6,1.5l-1,1
				c0,0,1,6.1,2.4,10.5c1.4,4.4,3.7,9.4,3.7,9.4s0.8,6.9,2.9,11.6c0.8-0.5,1.9-4.9,1.6-8.7C244.6,203.7,251,207.5,261.9,202.2z"/>
		</g>
		<path class="st17" d="M251.5,233.7c-3.7-2.6-5.6-4.6-5.6-4.6c1.8,0.5,3.3,0.9,4.4,1c2.1,0,2.9-1.4,3-2.1c0.1-0.6-1.4-0.6-3.4-1.8
			c-2.6-1.5-4.2-2.9-7.3-3.8c-1.1-0.3-2-0.7-2.9-2.4c-2.2-4.6-9.6-24.6-9.6-24.6l1.2-21c0,0,7.8-15.7-1.6-25.4
			c-10.5,3.6-11.6,6.8-12.9,20.6c-1.2,12.3-2.7,22.3,0.1,30.1l0,0c0.8,2.7,1.9,5.7,3.2,8.4c2.1,4.2,11.6,21.8,14.5,25.2
			c6.2,7.3,10.8,9,15.7,8.8C257.8,241.9,256.5,237.2,251.5,233.7z"/>
		<g id="XMLID_2102_">
			<g>
				<path class="st5" d="M213.3,113.8c-2.6,2.1-4.2,5-4.4,8.4c-0.1,2,0.2,4,0.5,5.9c0.2,1.3,0.4,2.6,0.3,3.9c-0.3,2.3-1.7,4.1-2,6.4
					c-0.3,2.1,0.1,4.3,1.1,6.1c1.7,3.1,5.2,5.1,8.8,5.1c0.7,0,1.4-0.1,2.1-0.4c0.6-0.3,1.2-0.9,1.2-1.7c0.1-1.3-1.1-2.2-1.6-3.4
					c-0.8-1.5-0.5-3.4,0.2-5c0.7-1.6,1.6-3,2.2-4.6c0.7-2,0.7-4.3,0-6.3c-0.7-2-1.9-3.7-2.3-5.8c-0.5-2.9,0.6-6.3,3.2-7.7
					c-0.2-0.9-0.4-1.8-0.6-2.7C219.2,111.3,215.5,112.1,213.3,113.8z"/>
				<path class="st23" d="M213.3,113.8c-2.6,2.1-4.2,5-4.4,8.4c-0.1,2,0.2,4,0.5,5.9c0.2,1.3,0.4,2.6,0.3,3.9
					c-0.3,2.3-1.7,4.1-2,6.4c-0.3,2.1,0.1,4.3,1.1,6.1c1.7,3.1,5.2,5.1,8.8,5.1c0.7,0,1.4-0.1,2.1-0.4c0.6-0.3,1.2-0.9,1.2-1.7
					c0.1-1.3-1.1-2.2-1.6-3.4c-0.8-1.5-0.5-3.4,0.2-5c0.7-1.6,1.6-3,2.2-4.6c0.7-2,0.7-4.3,0-6.3c-0.7-2-1.9-3.7-2.3-5.8
					c-0.5-2.9,0.6-6.3,3.2-7.7c-0.2-0.9-0.4-1.8-0.6-2.7C219.2,111.3,215.5,112.1,213.3,113.8z"/>
			</g>
			<g id="XMLID_2140_">
				<path id="XMLID_2143_" class="st5" d="M250.1,100.4c-15.6-5.4-26.3,2.9-28.8,12.8c-1.6,6.6,0.8,14.6,5.5,18.4
					c1.5,1.3,3.1,2.5,4.4,4c1.2,1.3,2.7,2.5,3.7,2.6l-0.6-3.4c2.4,1.1,4.6,1.6,7.5,1.4l4-0.2c9.5-0.5,16.8-8.5,16.3-18l-0.1-1.1
					C261.6,109.5,257.3,102.9,250.1,100.4z"/>
			</g>
			<g id="XMLID_590_" class="st9">
				<path id="XMLID_1022_" d="M250.1,100.4c-15.6-5.4-26.3,2.9-28.8,12.8c-1.6,6.6,0.8,14.6,5.5,18.4c1.5,1.3,3.1,2.5,4.4,4
					c1.2,1.3,2.7,2.5,3.7,2.6l-0.6-3.4c2.4,1.1,4.6,1.6,7.5,1.4l4-0.2c9.5-0.5,16.8-8.5,16.3-18l-0.1-1.1
					C261.6,109.5,257.3,102.9,250.1,100.4z"/>
			</g>
			<g id="XMLID_2103_">
				<g id="XMLID_2120_">
					<path id="XMLID_2121_" class="st17" d="M254.5,107c2.3,1.2,5.5,6.7,6,18.7c0.4,10.1-2.7,12.8-4.3,13.7
						c-1.6,0.8-4.8,0.6-7.9,0.3l0.3,4.9c0,0,5.7,5.2,5.6,8c-0.1,2.8-7,4.5-11.1,2c-4.2-2.5-7.8-7-7.8-7l-0.8-14.5c0,0-1.7,1.9-5-0.6
						c-2.7-2.1-3.8-5.8-1.9-7.9c1.9-2.1,5.6-1.8,7.1,1c0,0,4.6-1,10.9-5C251.8,116.3,253.6,111.5,254.5,107z"/>
				</g>
				<g id="XMLID_2118_">
					<path id="XMLID_2119_" class="st4" d="M248.4,123.7c0.1,0.7-0.5,1.4-1.2,1.4c-0.7,0-1.3-0.5-1.4-1.2c-0.1-0.7,0.5-1.4,1.2-1.4
						C247.7,122.4,248.3,123,248.4,123.7z"/>
				</g>
				<g id="XMLID_2116_">
					<path id="XMLID_2117_" class="st18" d="M248.9,132.3l3,0.9c-0.2,0.9-1.1,1.3-1.9,1.1C249.2,134,248.7,133.1,248.9,132.3z"/>
				</g>
				<g id="XMLID_2114_">
					<path id="XMLID_2115_" class="st4" d="M258.8,119.5l-2.6-1.7c0.5-0.7,1.4-1,2.1-0.5C259,117.8,259.2,118.8,258.8,119.5z"/>
				</g>
				<g id="XMLID_2112_">
					<path id="XMLID_2113_" class="st4" d="M258.2,122.5c0.1,0.7-0.5,1.4-1.2,1.4c-0.7,0-1.3-0.5-1.4-1.2c-0.1-0.7,0.5-1.4,1.2-1.4
						C257.6,121.3,258.2,121.8,258.2,122.5z"/>
				</g>
				<g id="XMLID_2107_">
					<polygon id="XMLID_2109_" class="st18" points="252.5,121.3 252.6,129.6 256.6,128.3 					"/>
				</g>
				<g id="XMLID_2104_">
					<path id="XMLID_2105_" class="st18" d="M248.2,139.6c-3.3-0.2-10.1-1.7-11.3-4.3c0,0,0.5,1.6,2.6,3.2c2.1,1.6,8.9,3.1,8.9,3.1
						L248.2,139.6z"/>
				</g>
			</g>
		</g>
	</g>
</g>
<g id="Character_1">
	<g id="Character_1_">
		<path id="XMLID_515_" class="st17" d="M200.4,227.8l-16-51.4c15-3.1,18,8.7,21.1,19.1c3.5,11.9,6.4,23.3,6.4,23.3l29.4,14.9
			c0,0,3.2,6.9-10.2,5C217.6,236.9,200.4,227.8,200.4,227.8z"/>
		<g>
			<path id="XMLID_889_" class="st17" d="M295.3,292.4c-5.1-4.1-8.8-9.4-11.8-14.9c-2.2-4-6.4-16.2-7.9-20.4c-1.6-4.7-5-16-5-16
				s-14,13.1-14,13.2c2.2,3.4,11,15.3,11.7,21.1c0.2,1.2-0.2,2.9-0.5,3.8c-0.9,3.4-0.1,5.8,1.9,7.5c2,1.8,5.2,3,7,5.2
				c1.9,2.4,3.1,6,5.8,7.6c2.4,1.5,5,2.1,8.1,2.1c2.6,0,6.6-0.7,8.6-2.7C301.7,296.4,297.7,294.4,295.3,292.4z"/>
			<path class="st2" d="M271.6,240.4c-3.6-13.3-6.4-27.3-11.1-29.9c-5.6-3.1-8.9-1.7-34.6,10.5c-6.5,3.1-16.4,9.1-16.4,9.1
				l-36.8,30.3l36.9,1.1l40.5-22.9c1.8,11.4,7.9,18.4,12.8,25.8c0,0,8.5-0.5,13.1-6.1C276,258.4,273.9,249,271.6,240.4z"/>
			<path id="XMLID_2110_" class="st3" d="M217.4,257.1l-8.6-5.5c0,0,3.6-1.2,5.2-7.1c0.5,5.4-1.1,7.5-1.1,7.5l4.3,2.4
				c13.7-5.5,33-15.6,33-15.6L217.4,257.1z"/>
		</g>
		<g>
			<g>
				<path class="st17" d="M305.7,298.9c-0.9-0.2-1.7-0.2-2.5,0.1c-3.8,0.6-5.8,3.9-7.3,6.8c-1.1,2.1-2,4.3-3.2,6.4
					c-0.4,0.8-2.2,3.5-2.2,3.5s-6.2-4.9-9-7.6c-3.5-3.2-14.2-13.6-20.6-20c-9.8-9.9-12.8-12.8-20.9-17.4c-8.1-4.9-34.7-17.7-43-22.8
					c-7.6,3.8-16.3,4.2-20.3,11c-0.4,4.5,5.9,10.6,9.8,12.7c11.5,6.1,35.1,12.6,50.5,17.3c4.5,9,5.5,11.8,14.2,18.1
					c7.9,5.7,17.8,10.5,27.7,16.8c2,1.3,4.3,3.8,5.3,5.3c0.5,0.7,0.9,1.4,1.2,2.2c1.4,2.5,3.5,4,6.5,3.7c2-0.2,3.9-1.3,5.3-2.8
					c2.9-3.2,3.2-7.9,5.2-11.7c1.8-3.5,5.2-5.7,6-9.8C309.2,307.2,308.6,299.1,305.7,298.9z"/>
				<path class="st2" d="M166.1,252.1c2.2,6.7,5.7,14.6,18.4,22c12.8,7.4,51.4,17.4,51.4,17.4s3.4,5.6,6,8.2
					c6.2,6.2,19.2,13.8,19.2,13.8s1.3-10.4,11.6-13.8c0,0-17-19.2-23.7-24.6c-6.8-5.4-55.8-30.6-55.8-30.6L166.1,252.1z"/>
			</g>
		</g>
		<g id="XMLID_2099_">
			<path id="XMLID_2100_" class="st5" d="M156.9,184.1c0,0-1,3.2-1.9,12.5c-0.6,6.3-0.9,14.4,1.8,29.1c1.1,6.1,3.3,18.1,8.8,28.3
				c6.7,1.6,37.7-6,43.9-23.9c0,0-8.4-11.8-10.8-34.7c-1.3-12.5-4.3-19.8-14.7-18.9l-13.8,2.5L156.9,184.1z"/>
		</g>
		<g id="XMLID_1084_">
			<g id="XMLID_2090_">
				<path class="st4" d="M195.2,147.3c-0.6-7.9-7.5-13.8-15.4-13.2c-7.4,0.6-13,6.6-13.2,13.9l-6.8-4.2c0,0-2.4-0.2-4.1,1.8
					c-1.7,2-0.2,7.7,2.5,13.2c0,0,3,10.1,4,11.8c1,1.6,2.9,2,2.9,2l-0.6-6.2l25.9-3.5l-2.7-1.7C192.5,158.5,195.6,153.2,195.2,147.3
					z"/>
				<path id="XMLID_2095_" class="st17" d="M163.5,158.8c-0.8,0.6-2.1-0.9-3.2-1.9c-1.1-1-4.5-2.2-5.9,1.4c-1.4,3.7,2.1,8.2,4.8,8.8
					c4.6,1.1,5.1-1.9,5.1-1.9l1.6,16.3c4.2,4.1,17.5,2,14.7-1.6l-0.4-5c0,0,4.1,0.3,6.1-0.2c3.3-0.8,5.2-3.6,5.9-7.2
					c1.2-5.9,1.4-10.6-0.8-21.9c-2.5-12.3-17-11.4-24.4-5.8C159.5,145.4,163.5,158.8,163.5,158.8z"/>
				<path class="st4" d="M193.8,133.9c-1.1-0.5-2.4-0.5-3.5-0.2c0.2-1.8-1.2-3.5-2.8-4.1c-2-0.8-3.7-0.3-5.3,1.1
					c0.3-1.3-1-2.5-2.3-2.7c-1.3-0.2-2.6,0.3-3.8,0.9c-1.8,0.8-3.5,1.7-5.3,2.4c-3.2,1.3-6.6,2.1-9.5,4.1c-0.7,0.5-1.3,1-1.7,1.7
					c-0.6,1-0.8,2.2-0.6,3.3c0,0.4,0.1,0.7,0.2,1.1c-0.2-0.2-0.5-0.4-0.8-0.6c-1.4-0.6-3.1,0.1-3.7,1.5l5.1,2.2c-0.1,1-0.1,2-0.2,3
					c-0.1,2.6-0.4,5.7,0.3,8.3c0.1,0.3,0.2,0.7,0.5,0.9c1.1,0.9,2.9,3.4,3.3,3.3c1.4-0.1,1.5-6.2,2-9.9c0.5-4.1,0.7-5.6,2.3-5.6
					c0.1,0,0.2,0,0.4,0c2.7,0.2,5.3,0.1,8,0c3.2-0.1,6.3,0.2,9.5-0.6c3.4-0.8,6.6-2.5,8.8-5.2c0.5-0.6,1-1.4,1-2.2
					C195.8,135.5,194.9,134.4,193.8,133.9z"/>
				<path id="XMLID_2091_" class="st18" d="M180.2,175c0,0-7.5-0.9-10.2-2.1c-1.8-0.8-3.4-2.3-3.9-3.3c0,0,0.7,2.2,2.4,4
					c2.1,2.3,11.9,3.3,11.9,3.3L180.2,175z"/>
			</g>
			<g id="XMLID_1085_">
				<path id="XMLID_2089_" class="st4" d="M178.6,156c0.1,0.8-0.5,1.4-1.2,1.5c-0.7,0.1-1.4-0.5-1.4-1.3c-0.1-0.8,0.5-1.4,1.2-1.5
					C177.9,154.7,178.6,155.3,178.6,156z"/>
				<path id="XMLID_2088_" class="st4" d="M176.8,151l-2.8,2.4c-0.6-0.8-0.5-2,0.2-2.6C175,150.1,176.1,150.2,176.8,151z"/>
				<path id="XMLID_2087_" class="st18" d="M179.5,166.1l3.5,1c-0.3,1-1.3,1.6-2.2,1.3C179.8,168.2,179.2,167.1,179.5,166.1z"/>
				<path id="XMLID_2086_" class="st4" d="M190.7,151.2l-3-1.9c0.5-0.8,1.6-1.1,2.4-0.5C191,149.2,191.3,150.3,190.7,151.2z"/>
				<path id="XMLID_2085_" class="st4" d="M189.9,154.6c0.1,0.8-0.5,1.4-1.2,1.5c-0.7,0.1-1.4-0.5-1.4-1.3c-0.1-0.8,0.5-1.4,1.2-1.5
					C189.2,153.2,189.8,153.8,189.9,154.6z"/>
				<polygon id="XMLID_2084_" class="st18" points="183,155 183.8,164 189.1,162.4 				"/>
			</g>
		</g>
		<g id="XMLID_589_">
			<g>
				<path class="st20" d="M206,215.2c-0.4,0.1-0.8,0.2-1.2,0.3c-0.5,0.1-1.1,0.2-1.5,0.6c-0.4,0.3-0.7,0.7-1,1.1
					c-0.3,0.3-0.5,0.4-1,0.5c-0.9,0.1-2,0-2.8,0.6c-0.5,0.4-0.7,0.9-1.2,1.3c-0.7,0.7-1.8,0.7-2.8,0.5c-0.3-0.1-0.6-0.1-0.9-0.1
					c-0.7,0-1.4,0.5-2.2,0.5c-0.1,0-0.1,0-0.2,0c-1.3-0.2-1.7-1.4-1.4-2.6c0.2-0.9-0.2-1.5,0.4-2.2c0.6-0.8,1.6-1.2,2.6-1.2
					c0.2,0,0.4,0,0.6,0c0.3-0.1,0.5-0.4,0.6-0.7c0.5-0.8,1.2-1.6,2.1-1.8c0.5-0.1,1.1,0,1.6-0.2c0.9-0.3,1.6-1.2,2.6-1.2
					c0.3,0,0.5,0.1,0.8,0c0.9-0.1,1.2-1.4,2-1.9c0.6-0.4,1.4-0.3,2.2-0.5c0.8-0.2,1.5-0.9,2.4-1c0.9-0.1,1.8,0.5,2.3,1.3
					c0.3,0.6,0.5,1.4,0.6,2.1c0,0.7,0,1.5-0.6,2c-0.4,0.3-0.9,0.5-1.3,0.7c-0.3,0.1-0.6,0.2-0.8,0.4c-0.3,0.2-0.7,0.5-0.9,0.9
					C206.7,214.9,206.4,215.1,206,215.2z"/>
				<path class="st12" d="M209.9,212.5c0.6-0.5,0.7-1.2,0.6-2c0-0.3-0.1-0.7-0.2-1c-0.2,0.3-0.5,0.5-0.8,0.7c-0.6,0.4-1.3,0.5-1.8,1
					c-0.4,0.5-0.5,1.2-1,1.6c-0.8,0.7-2.2,0.1-3.2,0.5c-1,0.5-1.4,1.9-2.5,2.2c-0.7,0.2-1.4-0.3-2.1-0.3c-0.5,0-1,0.1-1.4,0.4
					c-0.4,0.3-0.6,0.7-1,0.9c-0.4,0.3-0.9,0.4-1.2,0.2c-0.3-0.2-0.4-0.7-0.3-1.1c0.1-0.4,0.3-0.7,0.5-1.1c0.3-0.7,0.2-1.6-0.1-2.3
					c-0.6,0.3-1.1,0.9-1.5,1.5c-0.2,0.3-0.3,0.6-0.6,0.7c-0.2,0.1-0.4,0-0.6,0c-1,0-2,0.4-2.6,1.2c-0.6,0.8-0.1,1.3-0.4,2.2
					c-0.3,1.2,0.2,2.4,1.4,2.6c0.1,0,0.1,0,0.2,0c0.8,0.1,1.4-0.5,2.2-0.5c0.3,0,0.6,0.1,0.9,0.1c1,0.2,2.1,0.1,2.8-0.5
					c0.4-0.4,0.7-1,1.2-1.3c0.8-0.6,1.8-0.5,2.8-0.6c0.4-0.1,0.7-0.1,1-0.5c0.3-0.4,0.6-0.8,1-1.1c0.4-0.3,1-0.5,1.5-0.6
					c0.4-0.1,0.8-0.1,1.2-0.3c0.4-0.1,0.7-0.4,0.8-0.7c0.2-0.4,0.6-0.7,0.9-0.9c0.2-0.2,0.5-0.3,0.8-0.4
					C209.1,213.1,209.5,212.9,209.9,212.5z"/>
			</g>
			<g id="XMLID_591_">
				<path id="XMLID_617_" class="st17" d="M178.8,237.1c3-1.3,7.8-3.1,11.4-3.9c2-0.4,4-0.8,5.9-1.4c3.2-1,6.2-2.1,10.2-8.1
					c0.7-1.1,1.1-2.9-0.1-3.8c-0.6-0.5-1.5-0.6-2.3-0.5c-1.9,0.1-3.8,0.6-5.7,0.8c-1.1,0.1-2.2,0.1-3.3,0.1c-0.5,0-0.9-0.1-1.3,0
					c-0.5,0.1-1,0.1-1.6,0.1c-0.4,0-0.6,0-0.6,0s0-0.2,0-0.2c0.3-1.4,1.7-2.5,2.3-3.9c0.5-1.2,0.8-3.1-0.1-4.1
					c-0.2-0.2-0.5-0.4-0.9-0.2c-0.1,0-0.4,0.3-0.8,0.9c-1,1.5-1.8,2.3-3.3,3.3c-1.3,0.9-2.7,1.9-3.7,3.1c-1.5,1.9-2.5,3.9-4.9,4.6
					c-5.6,1.7-24.1,6.1-24.1,6.1l3-20.9c0,0,3-15.4-2-25.2c-4.1,1-12.1,1.8-14.7,14.5c-2.3,11.3-4.5,35.5-2.8,44.3
					c0.8,4.2,5.3,4.6,12.8,3.4C159.4,245.2,176.8,237.9,178.8,237.1z"/>
			</g>
			<path class="st18" d="M206.2,223.8c0.7-1.1,1.1-2.9-0.1-3.8c-0.6-0.5-1.5-0.6-2.3-0.5c-1.9,0.1-3.8,0.6-5.7,0.8
				c-1.1,0.1-2.2,0.1-3.3,0.1c-0.5,0-0.9-0.1-1.3,0c-0.5,0.1-1,0.1-1.6,0.1c-0.4,0-0.6,0-0.6,0s0.9,2,3.2,3.8c1.7,1.2,3.6,4,4.3,6.6
				C201.1,229.8,203.4,228,206.2,223.8z"/>
		</g>
		<g>
			<path class="st21" d="M191.3,220.4c3.3,1.3,9.1,4.5,15.2,12.9c3,4.1,5.7,11.4,8.8,5.2c1.2-2.4,1.8-5.1,2-7.8
				c0.3-3.3,0-6.6-0.9-9.8c-1-3.4-2.7-6.6-5.2-9.1c-0.2-0.2-0.4-0.4-0.6-0.5c-0.1,0.1-0.4,0.4-0.5,0.6c-0.1,0.2-0.3,0.3-0.5,0.4
				c-0.5,0.3-1.2,0.3-1.7,0.6c-0.5,0.3-0.8,0.7-1.2,1.1c-0.5,0.4-1.1,0.7-1.7,0.7c-0.5,0.1-0.9,0-1.4,0.2c-0.7,0.3-1,1.1-1.5,1.6
				c-0.6,0.6-1.5,0.7-2.3,0.8c-0.4,0-0.9,0.1-1.3,0.2c-0.8,0.3-1.3,1.2-2.1,1.6c-0.9,0.5-2,0.3-3,0.4
				C192.6,219.8,192,220.1,191.3,220.4z"/>
			<path class="st19" d="M211.1,211.9c-0.2-0.2-0.4-0.4-0.6-0.5c-0.1,0.1-0.4,0.4-0.5,0.6c-0.1,0.2-0.3,0.3-0.5,0.4
				c-0.5,0.3-1.2,0.3-1.7,0.6c-0.5,0.3-0.8,0.7-1.2,1.1c-0.5,0.4-1.1,0.7-1.7,0.7c-0.5,0.1-0.9,0-1.4,0.2c-0.7,0.3-1,1.1-1.5,1.6
				c-0.6,0.6-1.5,0.7-2.3,0.8c-0.4,0-0.9,0.1-1.3,0.2c-0.8,0.3-1.3,1.2-2.1,1.6c-0.7,0.4-1.4,0.3-2.2,0.4c0,0,0.1,0.1,0.1,0.1
				c3.4,1.6,6.5,3.6,9.1,6.3c2.1,2.2,3.8,4.6,5.3,7.2c0.8,1.3,1.5,2.6,2.2,4c0.6,1.2,1.2,2.4,2.3,3.2c0.2,0.1,0.3,0.2,0.5,0.2
				c0.5-0.4,1-1,1.5-2c1.2-2.4,1.8-5.1,2-7.8c0.3-3.3,0-6.6-0.9-9.8C215.4,217.6,213.6,214.4,211.1,211.9z"/>
			<path class="st22" d="M200.1,219.2c-0.3,0.6-0.1,1.4,0.4,1.9c0.5,0.5,1.2,0.8,1.9,0.9c0.6,0.2,1.3,0.3,2,0.1
				c0.6-0.2,1.3-0.6,1.4-1.3c0.1-0.7-0.3-1.4-0.9-1.8c-1-0.8-2.2-0.9-3.4-0.8C200.9,218.3,200.3,218.8,200.1,219.2z"/>
			<path class="st22" d="M211.4,221.6c-0.5,0-0.9,0.1-1.3,0.4c-0.4,0.3-0.7,0.7-0.7,1.1c0,1.6,2.4,2.5,3.6,2.5c0.5,0,1-0.1,1.4-0.3
				c1-0.6,0.8-1.9,0-2.6c-0.5-0.5-1.1-0.9-1.8-1.1C212.3,221.5,211.8,221.5,211.4,221.6z"/>
			<path class="st22" d="M212.5,228.7c1.1,0.3,2.2,1.3,2.5,2.4c0.1,0.6,0,1.2-0.4,1.6c-0.4,0.4-0.9,0.5-1.4,0.6
				c-1.2,0.1-2.9-0.5-3.5-1.7c-0.3-0.7-0.3-1.5,0.1-2.1C210.5,228.7,211.5,228.5,212.5,228.7z"/>
			<path class="st22" d="M212,217.6c0.7-0.1,1.1-0.6,0.9-1.5c-0.3-1.3-1.7-2.3-3-2.4c-1.6-0.2-2.7,1.2-1.6,2.6c0.4,0.6,1,1,1.7,1.1
				C210.6,217.6,211.4,217.7,212,217.6z"/>
		</g>
	</g>
</g>
<g id="Pizza_1_">
	<g id="Pizza">
		<polygon class="st5" points="117.3,295 57.6,329.5 54,336.1 113.7,301.6 		"/>
		<polygon class="st11" points="117.3,295 57.6,329.5 54,336.1 113.7,301.6 		"/>
		<polygon class="st5" points="136.8,357.1 77.1,391.6 77.1,398.7 136.8,364.2 		"/>
		<polygon class="st11" points="136.8,357.1 77.1,391.6 77.1,398.7 136.8,364.2 		"/>
		<polygon class="st5" points="196.6,398.7 196.6,391.6 136.8,357.1 136.8,364.2 		"/>
		<polygon class="st12" points="196.6,398.7 196.6,391.6 136.8,357.1 136.8,364.2 		"/>
		<polygon class="st5" points="77.1,398.7 136.8,364.2 196.6,398.7 136.8,433.1 		"/>
		<polygon class="st7" points="77.1,398.7 136.8,364.2 196.6,398.7 136.8,433.1 		"/>
		<path class="st12" d="M95.7,394c-0.5,3.7,1.1,7.4,2.7,10.8c0.5,1.1,1,2.1,1.8,3c0.8,0.8,1.7,1.4,2.7,1.9c1.9,1.1,3.8,2.1,5.7,3.2
			c0.5,0.3,1.1,0.6,1.7,0.6c1.2,0.1,2.1-1.1,3.1-1.8c7.7-5.4,23.8-15.2,23.8-15.2s0.4,2.2,0.5,2.9c0.4,2.6,0.7,5.2,1,7.8
			c0.2,2.7,0.3,5.6-1.2,7.8c-0.6,0.8-1.4,1.6-1.5,2.6c-0.2,1.2,0.8,2.3,2,2.8c1.1,0.4,2.4,0.4,3.6,0.3c2.3-0.2,4.7-0.3,7-0.8
			c5.4-1.2,10.2-4.2,14.9-7.1c-1.5-1.6-3.6-2.4-5.6-3.3c-6.1-2.7-12-6.9-17-11.4c6.9,0.4,21.9,1.3,31.9,1.1c0.9,0,1.9-0.2,2.7-0.7
			c1.4-0.8,1.9-2.1,1.4-3.6c-0.3-0.7-0.8-1.3-1.3-1.9c-2.9-3.3-5.8-6.5-8.7-9.8c-1-1.1-1.9-2.2-3.1-3c-1.4-1-3-1.6-4.6-2.2
			c-5.1-1.9-10.3-3.8-15.7-3.6c-0.3,0-0.7,0-1,0.2c-0.4,0.3-0.6,0.8-0.7,1.2c-1.6,5.9,0,12.4-2.2,18.1c-0.2,0.4-0.4,0.9-0.8,1.1
			c-0.5,0.2-1.2-0.2-1.8-0.4c-5.2-1.6-10.1-2.9-15.3-4.5c-2-0.6-4-1.3-5.8-2.2c-2-1.1-3.7-2.5-5.8-3.4
			C103.7,381.7,96.5,387.8,95.7,394z"/>
		<g id="XMLID_826_">
			<path class="st21" d="M136.8,394.6l0.1,1.6c0,0,2.7,0.5,7.5,0.6c4.8,0.1,25.8,0.9,26.8,0.2c1.6-1-0.3-3.4-0.3-3.4l-33.2,0
				L136.8,394.6z"/>
			<path class="st21" d="M122.5,403.4c0.8-0.5,6.5-3.9,7.2-4.4c1.2-0.8,2.4-1.6,3.6-2.5c0.5-0.3,0.8-0.7,0.4-2c0,0-0.7-0.3-1.4-0.4
				c-1.5-0.2-3,0.2-4.5,0.6c-3.1,1-6.2,2.4-9.2,3.6c-2.3,0.9-4.7,1.7-6.7,3.1c-1.4,0.9-2.5,2.1-3.7,3.2c-0.7,0.7-1.4,1.5-1.6,2.4
				c-0.2,1.4,0.5,3.6,1.8,3.8C108.6,411,114.6,408.4,122.5,403.4z"/>
			<g id="XMLID_2261_">
				<path id="XMLID_2265_" class="st20" d="M162.8,379.6c0.9-0.5,2.3-0.6,3.2-0.1c0.9,0.5,1.5,0.9,2,1.5c0.8,0.9,1.9,0.9,4.3,2.6
					c2.4,1.7,2.3,2.7,2.7,3.6c0.4,0.8,0.1,1.8,0.4,2.6c0.3,0.8,1.1,1.5,1.4,2.3c0.4,0.8,0.5,1.6,0.3,2.5c-0.2,0.8-0.9,1.5-1.7,1.7
					c-0.3,0-0.5,0-0.8,0.1c-0.3,0.1-0.6,0.3-0.9,0.5c-0.7,0.4-1.7,0.8-2.4,0.4c-0.8-0.5-1-1.2-1-2.4c-0.3-0.9-1.4-1.9-2-2.7
					c-1.2-1.6-2.3-3.2-3.5-4.8c-0.3-0.4-4.3-6.2-4.4-6.1C160.5,381,162.8,379.6,162.8,379.6z"/>
				<path class="st12" d="M166.4,389.1c0.2,0.2,0.4,0.5,0.5,0.7c0.4,0.6,0.8,1.2,1.2,1.7c0.1,0.2,0.2,0.3,0.4,0.5c0,0,0,0,0,0.1
					c0.1,0.2,0.3,0.3,0.5,0.5c0.3,0.2,0.5,0.5,0.6,0.8c0.3,0.4,0.6,0.8,0.7,1.2c0,1.2,0.2,2,1,2.4c0.7,0.4,1.7,0,2.4-0.4
					c0.3-0.2,0.6-0.4,0.9-0.5c0.3-0.1,0.5-0.1,0.8-0.1c0.8-0.1,1.5-0.9,1.7-1.7c0.2-0.8,0-1.7-0.3-2.5c-0.2-0.4-0.5-0.7-0.7-1.1
					c0.2,0.6,0.1,1.5-0.4,1.8c-0.6,0.4-2.6,0.2-3.4-0.3c-0.8-0.4-0.5-1.8-0.8-2.4c-0.3-0.6-1.4-1.1-1.2-2.4c0.2-1.3-0.6-2.3-2.5-3
					c-1.9-0.6-2.2-1.4-2.9-2.3c-0.8-0.9-2.9-1.1-4.4-1.4c0.1,0,4.1,5.7,4.4,6.1C165.4,387.8,165.9,388.5,166.4,389.1z"/>
				<path id="XMLID_2263_" class="st21" d="M160.5,381c2.1,1.2,3.9,2.6,5.4,4.1c0,0,0,0,0.1,0.1c0.1,0.1,0.1,0.1,0.2,0.2
					c0,0,0,0,0,0c2.6,2.8,4.1,5.9,4.1,9.3h-33.5l2.4-1.4l0.9-0.5c0,0,0.1,0,0.1-0.1L160.5,381z"/>
				<path id="XMLID_2262_" class="st19" d="M160.5,381c2.1,1.2,3.9,2.6,5.4,4.1c0,0,0,0,0.1,0.1c0.1,0.1,0.1,0.1,0.2,0.2
					c0,0,0,0,0,0c2.6,2.8,4.1,5.9,4.1,9.3h-33.5l2.4-1.4l0.9-0.5c0,0,0.1,0,0.1-0.1L160.5,381z"/>
			</g>
			<g id="XMLID_2256_">
				<path id="XMLID_2260_" class="st20" d="M136.7,373.4c-0.1-0.7,0.9-1.3,2.2-1.4c1.2-0.1,2.2,0,3.3,0.2c1.7,0.3,2.4-0.1,6.2,0.1
					c0.9,0.1,1.9,0.1,2.6,0.4c0.8,0.3,1.7,0.4,2.6,0.6c0.2,0,0.5,0.1,0.7,0.2c1.9,0.5,2.8,1.8,4.8,2.2c0.1,0,0.3,0.1,0.5,0.1
					c0.2,0,0.3,0,0.5,0c2.5,0.1,4.3,2.8,3.3,3.4c-1,0.6-2.8,1.7-2.8,1.7l-23.7-5.7L136.7,373.4z"/>
				<path id="XMLID_2259_" class="st12" d="M136.8,375.3c1.4-0.4,3.2-1.1,4.8-0.8c1.6,0.3,2.8,0.7,4.9,0.4c2.1-0.3,3.9,0.1,5.4,1.1
					c1.4,1,2.9,0.9,3.8,1.2c0.9,0.3,2.3,1.4,3.5,1.4c1.1,0,2.8-0.7,2.7-1.2c0-0.5-1.3-1.3-2.4-1.6c0.2,0,0.3,0,0.5,0
					c2.5,0.1,4.3,2.8,3.3,3.4c-1,0.6-2.8,1.7-2.8,1.7L136.8,375.3z"/>
				<path id="XMLID_2258_" class="st21" d="M136.8,375.3c3,0,5.9,0.2,8.8,0.7c0,0,0.1,0,0.1,0c0.1,0,0.3,0,0.4,0.1c0,0,0,0,0,0
					c5.2,0.9,10.2,2.5,14.3,4.9l-23.7,13.7v-1.9V392c0,0,0-0.1,0-0.1L136.8,375.3z"/>
				<path id="XMLID_2257_" class="st19" d="M136.8,375.3c3,0,5.9,0.2,8.8,0.7c0,0,0.1,0,0.1,0c0.1,0,0.3,0,0.4,0.1c0,0,0,0,0,0
					c5.2,0.9,10.2,2.5,14.3,4.9l-23.7,13.7v-1.9V392c0,0,0-0.1,0-0.1L136.8,375.3z"/>
			</g>
			<g id="XMLID_2229_">
				<path id="XMLID_2255_" class="st20" d="M100,394.7c-1.3,0-2.9-0.4-3-1.1c-0.1-0.7,0.7-1.4,1-2c0.4-0.8,0-1.7,0-2.5
					c0-0.4,0.1-0.8,0.1-1.1c0.1-0.4,0.2-0.6,0.5-0.9c0.6-0.7,1.1-1.4,1.4-2.2c0.1-0.3,0.2-0.5,0.4-0.8c0.8-0.9,2.2-1,3-2
					c0.4-0.5,0.5-1.3,0.9-1.8c0.3-0.5,0.9-0.9,1.4-1.2c0.4-0.2,0.8-0.4,1.3-0.5c0.4-0.1,0.8-0.1,1.2-0.1c0.9,0.1,1.9,0.3,2.7,0.7
					c0.7,0.4,1.4,0.9,1.9,1.5c0.2,0.3,0.1,0.3,0,0.6c-0.3,0.4-0.6,0.9-0.9,1.3c-1.1,1.6-2.3,3.2-3.4,4.7c-1.2,1.7-2.4,3.3-3.6,5
					c-0.6,0.8-1.1,1.5-1.7,2.3L100,394.7z"/>
				<path class="st12" d="M108.6,387.3c0.5-0.7,1-1.5,1.6-2.2l2.9-4c0.1-0.1,0.1-0.2-0.1-0.4c-0.5-0.7-1.2-1.2-1.9-1.5
					c-0.9-0.4-1.8-0.6-2.7-0.7c-0.4,0-0.8,0-1.2,0.1c-0.5,0.1-0.9,0.3-1.3,0.5c-0.5,0.3-1.1,0.7-1.4,1.2c0,0.1-0.1,0.1-0.1,0.2
					c0.6-0.4,1.2-0.8,1.8-1c0.9-0.3,1.8-0.3,2.6,0.2c0.2,0.2,0.5,0.4,0.6,0.6c0.1,0.4,0,0.8-0.2,1.2c-0.5,1.1-1.7,1.4-2.5,2.2
					c-0.6,0.5-0.3,1.4-2.1,2.2c-1.7,0.8-2.4,1.9-1.9,3.1s-0.2,1.9-0.7,2.8c-0.5,0.9,0.7,2,1.4,2.8c0.6-0.8,1.1-1.5,1.7-2.3
					C106.2,390.7,107.4,389,108.6,387.3z"/>
				<path id="XMLID_2234_" class="st21" d="M103.3,394.7c0-1.7,0.4-3.4,1.2-5.1c0,0,0,0,0-0.1c0-0.1,0.1-0.2,0.1-0.2c0,0,0,0,0,0
					c1.5-3,4.4-5.9,8.5-8.2l23.7,13.7h-3.4h-1.2c-0.1,0-0.1,0-0.2,0L103.3,394.7z"/>
				<path id="XMLID_2231_" class="st19" d="M103.3,394.7c0-1.7,0.4-3.4,1.2-5.1c0,0,0,0,0-0.1c0-0.1,0.1-0.2,0.1-0.2c0,0,0,0,0,0
					c1.5-3,4.4-5.9,8.5-8.2l23.7,13.7h-3.4h-1.2c-0.1,0-0.1,0-0.2,0L103.3,394.7z"/>
			</g>
			<g id="XMLID_2210_">
				<path id="XMLID_2227_" class="st20" d="M110.9,409.7c-0.9,0.5-2.3,0.6-3.2,0.1c-0.9-0.5-1.5-0.9-2-1.5c-0.5-0.6-1.5-0.9-2.3-1.4
					c-1.5-0.8-2.5-1.5-3-2.7c-0.2-0.6-0.4-1.2-0.8-1.7c-0.4-0.6-1.1-1-1.2-1.7c-0.2-0.6,0-1.3-0.4-1.9c-0.1-0.1-0.1-0.2-0.2-0.2
					c-0.1-0.1-0.2-0.2-0.3-0.2c-1.7-1.1,0.3-3.9,1.7-3.9c1.4,0,4.2,0,4.2,0l9.8,13.7L110.9,409.7z"/>
				<path class="st20" d="M100.3,403.6c0,1.8,1,3.6,2.6,4.5c0.5,0.3,1.1,0.5,1.6,0.9c0.9,0.6,1.5,1.5,2.4,2.1c1.4,1,3.4,1,4.8,0
					c0.5-0.4,1-0.9,1.2-1.5c0.2-0.6,0.2-1.3-0.2-1.8"/>
				<path id="XMLID_2226_" class="st12" d="M113.1,408.3c-1.5-0.3-3.6-0.5-4.4-1.4c-0.8-0.9-1-1.6-2.9-2.3c-1.9-0.6-2.7-1.6-2.5-3
					c0.2-1.3-1-1.8-1.2-2.4c-0.2-0.6,0.1-1.9-0.8-2.4c-0.8-0.4-2.8-0.6-3.4-0.3c-0.5,0.3-0.7,1.4-0.2,2.1c-0.1-0.1-0.2-0.2-0.3-0.2
					c-1.7-1.1,0.3-3.9,1.7-3.9c1.4,0,4.2,0,4.2,0L113.1,408.3z"/>
				<path id="XMLID_2221_" class="st21" d="M113.1,408.3c-2.1-1.2-3.9-2.6-5.4-4.1c0,0,0,0-0.1-0.1c-0.1-0.1-0.1-0.1-0.2-0.2
					c0,0,0,0,0,0c-2.6-2.8-4.1-5.9-4.1-9.3l33.5,0l-2.4,1.4l-0.9,0.5c0,0-0.1,0-0.1,0.1L113.1,408.3z"/>
				<path id="XMLID_2220_" class="st19" d="M113.1,408.3c-2.1-1.2-3.9-2.6-5.4-4.1c0,0,0,0-0.1-0.1c-0.1-0.1-0.1-0.1-0.2-0.2
					c0,0,0,0,0,0c-2.6-2.8-4.1-5.9-4.1-9.3l33.5,0l-2.4,1.4l-0.9,0.5c0,0-0.1,0-0.1,0.1L113.1,408.3z"/>
			</g>
			<g id="XMLID_2204_">
				<path id="XMLID_2209_" class="st20" d="M164,410.8c0,0.1,0,0.1,0,0.2c0,1.3-1.1,2.4-2.3,2.7c-1,0.3-2.1,0.2-3,0.6
					c-1.1,0.5-1.8,1.5-2.9,1.8c-0.9,0.2-1.8-0.1-2.7,0.1c-0.6,0.2-1.1,0.6-1.7,0.8c-1.9,0.8-4-0.4-5.9,0.3c-0.6,0.3-1.2,0.7-1.8,0.9
					c-0.8,0.3-1.6,0.3-2.4,0.3c-1.2,0-2.4,0-3.6-0.3c-0.3-0.1-0.6-0.1-0.8-0.3c-0.5-0.4-0.8-1.1-0.8-1.7c0-0.8,0.2-1.7,0.8-2.2
					c0.3-0.3,0.7-0.3,1-0.4c0.5-0.1,0.9-0.2,1.4-0.3c2-0.5,4-1,6-1.4c2.4-0.6,4.8-1.1,7.1-1.7c1.9-0.5,3.9-0.9,5.8-1.4
					c1.5-0.4,3.1-1,4.6,0C163.6,409.3,164,410.1,164,410.8z"/>
				<path class="st12" d="M158.1,410.8c1.5-0.4,1.9-1.6,2.4-2.5c-0.1,0-0.2,0-0.4,0.1c-1,0.2-2,0.5-3,0.7c-2.5,0.6-5,1.2-7.5,1.8
					c-2.7,0.6-5.3,1.3-8,1.9c-0.9,0.2-1.7,0.4-2.6,0.6c-0.3,0.1-0.7,0.2-1,0.2l0,0c-0.1,0-0.1,0-0.2,0.1c-0.4,0.1-0.8,0.1-1,0.4
					c-0.5,0.6-0.8,1.5-0.8,2.2c0,0.7,0.2,1.3,0.8,1.7c0.2,0.2,0.5,0.2,0.8,0.3c1.2,0.3,2.4,0.3,3.6,0.3c0.8,0,1.7,0,2.4-0.3
					c0.2-0.1,0.4-0.2,0.6-0.3c-0.5,0.1-1.1,0.2-1.6,0.2c-0.4,0-0.9,0-1.3-0.2c-0.6-0.2-1.3-0.8-1.5-1.4c-0.2-0.6,0.2-1.2,0.7-1.6
					c0.8-0.5,3.1-0.3,4.1-0.4c1.1-0.1,1.9-0.8,4.1-0.7c2.3,0.1,4-0.3,5.1-1.4C155.2,411.4,156.6,411.3,158.1,410.8z"/>
				<path id="XMLID_2206_" class="st21" d="M160.5,408.3c-2.1,1.2-4.5,2.3-7.1,3.1c0,0-0.1,0-0.1,0c-0.1,0-0.3,0.1-0.4,0.1
					c0,0,0,0,0,0c-4.8,1.5-10.2,2.5-16,2.5l-0.1-19.4l2.4,1.4l0.9,0.5c0,0,0.1,0,0.1,0.1L160.5,408.3z"/>
				<path id="XMLID_2205_" class="st19" d="M160.5,408.3c-2.1,1.2-4.5,2.3-7.1,3.1c0,0-0.1,0-0.1,0c-0.1,0-0.3,0.1-0.4,0.1
					c0,0,0,0,0,0c-4.8,1.5-10.2,2.5-16,2.5l-0.1-19.4l2.4,1.4l0.9,0.5c0,0,0.1,0,0.1,0.1L160.5,408.3z"/>
			</g>
			<g id="XMLID_2151_" class="st12">
				<g id="XMLID_2199_">
					<path d="M146.2,376.1c5.2,0.9,10.2,2.5,14.3,4.9l-23.7,13.7v-1.9c0.1,0.4,1,0,5.4-2.5c6.1-3.5,13.9-8.3,14.5-9.1
						C157.3,380.3,149.6,376.8,146.2,376.1z"/>
				</g>
				<g id="XMLID_2197_">
					<path d="M104.7,389.2c1.5-3,4.4-5.9,8.5-8.2l23.7,13.7h-3.4c0.8-0.1,0-0.6-4.4-3.1c-6.1-3.5-14.3-8-15.7-8.4
						C112,382.8,105.8,387.3,104.7,389.2z"/>
				</g>
				<g id="XMLID_2194_">
					<path d="M107.4,403.9c-2.6-2.8-4.1-5.9-4.1-9.3l33.5,0l-2.4,1.4c0.5-0.4-0.7-0.4-7-0.4c-8.6,0-20,0.2-21.4,0.5
						C104.8,396.4,105.8,402.1,107.4,403.9z"/>
				</g>
				<g id="XMLID_2152_">
					<path d="M152.9,411.6c-4.8,1.5-10.2,2.5-16,2.5l-0.1-19.4l2.4,1.4c-0.6-0.3-0.7,0.4-0.7,4c0,5,0.3,11.5,0.9,12.3
						C139.9,413.1,149.7,412.5,152.9,411.6z"/>
				</g>
			</g>
			<g>
				<path id="XMLID_2149_" class="st22" d="M150.1,388.1c0.5,0.3,0.8,0.6,1,1c0.4,0.8,0.1,1.6-1,2.3c-1.5,0.9-4.1,0.9-5.6,0
					c-0.8-0.5-1.2-1.1-1.2-1.7c0-0.6,0.4-1.1,1.2-1.5C146.1,387.2,148.6,387.2,150.1,388.1z"/>
				<path id="XMLID_2147_" class="st22" d="M142.4,399.8c0.5,0.3,0.8,0.6,1,1c0.4,0.8,0.1,1.6-1,2.3c-1.5,0.9-4.1,0.9-5.6,0
					c-0.8-0.5-1.2-1.1-1.2-1.7c0-0.6,0.4-1.1,1.2-1.5C138.4,398.9,140.9,398.9,142.4,399.8z"/>
				<path id="XMLID_2142_" class="st22" d="M161.1,386.2c0.7,0,1.3,0.1,1.9,0.3c1.2,0.4,2.1,1.1,2.1,2c0,1.3-1.7,2.3-3.9,2.3
					c-1.1,0-2.2-0.3-2.9-0.7c-0.7-0.4-1.1-0.9-1.1-1.5C157.2,387.3,158.9,386.3,161.1,386.2z"/>
				<path id="XMLID_2106_" class="st22" d="M118.4,396.9c-0.5-0.3-0.8-0.6-1-1c-0.4-0.8,0-1.6,1-2.2c1.6-0.9,4.1-0.9,5.6,0
					c0.8,0.5,1.2,1.1,1.1,1.7c0,0.6-0.4,1.1-1.2,1.5C122.5,397.8,120,397.8,118.4,396.9z"/>
				<path id="XMLID_2101_" class="st22" d="M117.9,384.7c0.5,0.3,0.9,0.7,1.1,1.1c0.4,0.9-0.1,1.9-1.3,2.5c-1.8,1-4.7,0.9-6.4-0.1
					c-0.9-0.6-1.3-1.3-1.2-2c0.1-0.6,0.6-1.2,1.4-1.7C113.4,383.6,116.2,383.6,117.9,384.7z"/>
				<path id="XMLID_1074_" class="st22" d="M149.2,378c0.7,0,1.3,0.1,1.9,0.3c1.2,0.4,2.1,1.1,2.1,2c0,1.3-1.7,2.3-3.9,2.3
					c-1.1,0-2.2-0.3-2.9-0.7c-0.7-0.4-1.1-0.9-1.1-1.5C145.2,379,147,378,149.2,378z"/>
				<path id="XMLID_1027_" class="st22" d="M147,407.1c0.3-0.4,0.7-0.7,1.2-0.9c1.1-0.5,2.6-0.6,4-0.3c2,0.5,2.9,1.9,2,3
					c-0.5,0.6-1.3,1-2.3,1.2c-0.9,0.2-1.9,0.2-2.9-0.1C146.9,409.6,146.1,408.2,147,407.1z"/>
				<path id="XMLID_1026_" class="st22" d="M112.3,398.4c0.7,0,1.3,0.1,1.9,0.3c1.2,0.4,2.1,1.1,2.1,2c0,1.3-1.7,2.3-3.9,2.3
					c-1.1,0-2.2-0.3-2.9-0.7c-0.7-0.4-1.1-0.9-1.1-1.5C108.3,399.5,110.1,398.4,112.3,398.4z"/>
			</g>
		</g>
		<polygon class="st5" points="77.1,398.7 77.1,391.6 136.8,426.1 136.8,433.1 		"/>
		<polygon class="st12" points="77.1,398.7 77.1,391.6 136.8,426.1 136.8,433.1 		"/>
		<polygon class="st5" points="136.8,433.1 136.8,426.1 196.6,391.6 196.6,398.7 		"/>
		<polygon class="st5" points="77.1,391.6 136.8,357.1 113.7,301.6 54,336.1 		"/>
		<g>
			<polygon class="st5" points="54,336.1 77.1,391.6 80.7,385.1 57.6,329.5 			"/>
			<polygon class="st12" points="54,336.1 77.1,391.6 80.7,385.1 57.6,329.5 			"/>
		</g>
		<g>
			<polygon class="st5" points="113.7,301.6 136.8,357.1 140.4,350.6 117.3,295 			"/>
			<polygon class="st12" points="113.7,301.6 136.8,357.1 140.4,350.6 117.3,295 			"/>
		</g>
	</g>
</g>
<g id="Dog_1_">
	<g id="Dog">
		<path class="st4" d="M389.2,245.2c3.3-0.5,7.1,2.1,7.7,3.1c0.6,1-1.1,5.2-1.1,5.2L389.2,245.2z"/>
		<path class="st3" d="M385.6,271.2c1.7,3,6.2,7.1,6.1,11.8c-0.1,4.7-5.6,10-5.6,10l-8.5-3.3L385.6,271.2z"/>
		<path class="st3" d="M331,299.9c-1.1,1.2-4.6,5.8-3.5,13.6c1,7.1,7.3,10.5,11.9,11c2,0.2,1.8-1,0.3-1.6c-3.1-1.2-8.2-4-8.4-10.4
			c-0.2-6.4,3.4-9.2,3.4-9.2L331,299.9z"/>
		<path class="st3" d="M361.4,287.6c6.8,0.2,8.8,0.6,10.4,3.1c1.6,2.5-3.5,7-3.5,7s3.8-0.8,5.6,0c1.8,0.8,1,3.5-5.6,5.4
			c-6.6,1.9-12.8,2.6-12.8,2.6s-9.5-7.3-3.8-14.1C357.4,284.8,361.4,287.6,361.4,287.6z"/>
		<path class="st13" d="M347.3,286.6c1.3-4.7,4-8.9,8-11.7c9.6-6.7,21-11.8,30.5-4.7c0,2.8,0.1,6-0.7,9.3c-1,4-2.4,6.3-5.3,8.1
			c-1.7,1.1-8.3,2.8-10.6,3c-2.3,0.2-4.6,0.3-6.9,0.2c-1,0-2.1-0.1-3,0.4c-0.9,0.5-1.5,1.4-2.3,2c-1.5,1.3-3.6,1.6-5.5,1.7
			c-1.2,0.1-2.4,0.1-3.5-0.5c-1.1-0.6-1.7-1.9-1.5-3.1C346.7,289.8,346.8,288.2,347.3,286.6z"/>
		<path class="st1" d="M348,289.5l-1.5,1.5c0,0.1,0,0.2,0,0.4c-0.1,1.2,0.5,2.5,1.5,3.1c1,0.6,2.3,0.6,3.5,0.5c2-0.1,4-0.5,5.5-1.7
			c0.8-0.7,1.4-1.6,2.3-2c0.7-0.4,1.6-0.4,2.4-0.4C357,287.5,348,289.5,348,289.5z"/>
		<path class="st2" d="M399.1,256.9c-1.9-1.5-1.5-2-1.4-3.8c0.1-1.1-1.8-3.2-2.8-4.2c-2.9-3.2-6.7-5.2-11.5-3.7
			c-4.8,1.6-7.8,4.8-11.1,10.6c-1.5,2.7-1.6,4-2.8,5.3c-2.4,2.6-15.9,3.1-23,5.9c-6.8,2.7-15.9,9.6-17.6,17.7
			c-1.3,6.2-1.4,16.1,7.2,22.4c9.6,7,28,0.7,30.3-0.3c3.6-1.4,5.2-3.3,4.6-4.5c-0.6-1.2-2.9-1.6-5.3-1.2c-2.4,0.4-5.9,1.8-5.9,1.8
			c7.1-5.3,6.6-9.7,4-11.5c-4.9-3.4-14.6,0.6-14.6,0.6c0.2-1.6,0.9-3.7,2.1-5.5c1.2-1.8,5.4-5,8.8-3.6c3.4,1.3,4.7,4.8,9.1,9
			c4.4,4.3,14.8,6.5,17.3,6.8c2.5,0.4,4.7,1.5,6.2,2.8c1.5,1.3,2.6,3,4.3,3.6c1.4,0.4,2.2-1,2.2-1c2.3,0.6,2.4-1.4,2.4-1.4
			c0.9-1,0.3-2.6-1.6-4.6c-2.1-2.1-8.3-5.4-13.8-7.6c-5.5-2.2-6.8-3.3-8.9-7.4c-1.9-3.6-1.7-8.5-1.6-12c0-0.5,0-0.9,0.1-1.3
			c3.1,1,6.7,0.8,9.3-0.8c0.4-0.2,0.6-0.4,0.8-0.7c-0.1-0.8,0.5-2.4,1.7-2c1.3,0.4,3.3,1.4,4.7,2c0,0,0,0,0,0
			c0.3,0.1,0.5,0.2,0.8,0.3c3.3,1.2,5.5,0,6.2-1.4c3.4-0.4,5.3-3.7,5.5-4.3C405.6,261.1,401.1,258.6,399.1,256.9z"/>
		<path class="st12" d="M376.5,272.1c4.4,1.5,7.7,1,9.3,0.1c0-0.6,0-1.3,0-1.9c-0.7-0.5-1.5-1-2.2-1.4l-3.5,0.2l-6.4-2l-4.8-5
			C368.9,264.8,371.1,270.2,376.5,272.1z"/>
		<path class="st13" d="M399.1,257c-0.6-0.3-1.2-0.7-1.8-0.8c-0.8-0.1-1.7,0.1-2.2,0.7c-0.5,0.7-0.4,1.6-0.4,2.4
			c0,0.9,0.3,2.2-0.1,3c-0.3,0.8-1.6,1.5-2.4,1.8c-3.3,1.3-5.9-0.3-8.9-1.2c-1.7-0.5-3.9-1-5.4,0c-1.4,0.9-2.2,4-1.7,5.4
			c3.8,1.9,8.5,2.1,9.5,0c0,0,0.1-0.4,0.2-0.6c0.1-0.2,0.6-1.5,1.7-1.2c1.3,0.3,3.8,1.5,4.2,1.7c0.3,0.2,1,0.4,1.2,0.5
			c3.3,1.2,5.5-0.1,6.2-1.5c3.4-0.4,5.3-3.7,5.5-4.3C405.6,261.1,401.1,258.6,399.1,257z"/>
		<path id="XMLID_18180_" class="st5" d="M385.8,268.3c-2.6,1.6-8.1,1.3-11-1.3c-2.4-2.1-3.8-4-4.3-7c0,0-1.1,0.2-1.6,1.7
			c0.3,1.7,0.7,3.1,3.1,5.7c3.1,3.4,9.9,5.3,13.8,2.8C385.8,270.3,386,269.7,385.8,268.3z"/>
		<path id="XMLID_3477_" class="st4" d="M403.4,265c-1.1-0.1-2.2-0.4-2.6-1.2c-0.4-0.8-0.3-2,0.5-2.4c0.8-0.3,2.4-0.6,3.1-0.4
			c0.7,0.2,1.2,1.3,1.1,1.8C405.1,263.7,404.3,264.3,403.4,265z"/>
		<path class="st12" d="M399.2,267.3c-1.7,0.2-5.6-1.2-9-3.5c0,0,2.2,2.6,5.4,3.6C398.6,268.3,399.2,267.3,399.2,267.3z"/>
		<path class="st4" d="M389.2,255.6c0-0.7,0.6-1.3,1.3-1.3c0.7,0,1.3,0.6,1.3,1.3c0,0.7-0.6,1.3-1.3,1.3
			C389.7,256.9,389.2,256.3,389.2,255.6z"/>
		<path class="st4" d="M384.9,250.8c0.9-0.7,1.5-1.5,0.1-2.3c-1.3-0.8-3-2.1-5.7-1.6c-2,0.4-5.4,3.8-6.8,6.2c-1.4,2.4-1.6,5.1,0,6.9
			c0.6,0.7,1.1,1.6,1.3,2.6c0.2,1.3,0.3,2.4,1,3.2c2,2.3,4.6,1.1,5.7-1.3c1.1-2.5,1.7-6.9,2.4-9.6
			C383.5,252.2,384.3,251.2,384.9,250.8z"/>
	</g>
</g>
<g id="Window">
	<g id="Window_2_">
		<polygon id="XMLID_2202_" class="st2" points="415.1,165.6 411.3,167.7 316.5,113 320.3,110.8 		"/>
		<g id="XMLID_2196_">
			<g id="XMLID_2198_">
				<g id="XMLID_2200_">
					<polygon id="XMLID_2201_" class="st5" points="320.3,110.8 411.3,163.4 411.3,88.5 320.3,35.9 					"/>
				</g>
			</g>
		</g>
		<g id="XMLID_2155_" class="st24">
			<g id="XMLID_2156_">
				<g id="XMLID_2157_">
					<polygon id="XMLID_2158_" class="st25" points="320.3,110.8 411.3,163.4 411.3,88.5 320.3,35.9 					"/>
				</g>
			</g>
		</g>
		<polygon id="XMLID_2153_" class="st3" points="363.9,58.9 363.9,138.2 360.1,136 360.1,56.7 		"/>
		<polygon id="XMLID_2150_" class="st4" points="365.8,57.8 363.9,58.9 363.9,138.2 365.8,137.1 		"/>
		<polygon id="XMLID_2148_" class="st26" points="363.9,58.9 360.1,56.7 362,55.6 365.8,57.8 		"/>
		<path id="XMLID_2111_" class="st3" d="M312.7,115.2l102.4,59.1l0-88L312.7,27.2L312.7,115.2z M316.5,33.7l94.8,54.7l0,79.3
			L316.5,113V33.7z"/>
		<polygon id="XMLID_1083_" class="st4" points="316.5,113 320.3,110.8 320.3,35.9 316.5,33.7 		"/>
		<polygon id="XMLID_1076_" class="st2" points="312.7,27.2 316.5,25 418.9,84.1 415.1,86.3 		"/>
		<polygon id="XMLID_1075_" class="st4" points="418.9,84.1 415.1,86.3 415.1,174.3 418.9,172.1 		"/>
		<polygon id="XMLID_1052_" class="st4" points="363.9,61.1 360.1,58.9 360.1,61.1 363.9,63.3 		"/>
		<polygon id="XMLID_619_" points="363.9,63.3 365.8,62.2 363.9,61.1 		"/>
	</g>
</g>
</svg>
