<?xml version="1.0" encoding="utf-8"?>
<!-- Generator: Adobe Illustrator 24.2.1, SVG Export Plug-In . SVG Version: 6.00 Build 0)  -->
<svg version="1.1" id="_x3C_Layer_x3E_" xmlns="http://www.w3.org/2000/svg" xmlns:xlink="http://www.w3.org/1999/xlink" x="0px"
	 y="0px" viewBox="0 0 3000 2000" style="enable-background:new 0 0 3000 2000;" xml:space="preserve">
<style type="text/css">
	.st0{fill:#FFFFFF;}
	.st1{clip-path:url(#SVGID_2_);}
	.st2{fill:#DAE6FF;}
	.st3{fill:#E96F5F;}
	.st4{fill:#FFA089;}
	.st5{fill:#FF6760;}
	.st6{fill:#FF9F9D;}
	.st7{fill:#FF4A4A;}
	.st8{fill:#0C3172;}
	.st9{fill:#FFC3C5;}
	.st10{fill:#FF908D;}
	.st11{fill:#FFABAD;}
	.st12{fill:#FF8083;}
	.st13{fill:#E07965;}
	.st14{fill:#18189B;}
</style>
<rect class="st0" width="3000" height="2000"/>
<g>
	<defs>
		<path id="SVGID_1_" d="M2479.9,1771.6c-71.4,22.9-158.3,29.1-227.4,24.3c0,0-1269.7,122.3-1728.7-3.1
			c-339.7-92.8-298.7-423.2-194.7-634.7C434.2,944.2,158.3,530.8,601.9,291c255.2-137.9,484.1,82.8,925.2-80.1
			c398.3-147.1,912-15.5,1037.7,292.9c86.4,212.2-22.5,440.9,86.4,551.8C2827.9,1235.5,2746.6,1686.2,2479.9,1771.6z"/>
	</defs>
	<clipPath id="SVGID_2_">
		<use xlink:href="#SVGID_1_"  style="overflow:visible;"/>
	</clipPath>
	<g class="st1">
		<g>
			<path class="st2" d="M2479.9,1771.6c-71.4,22.9-158.3,29.1-227.4,24.3c0,0-1269.7,122.3-1728.7-3.1
				c-339.7-92.8-298.7-423.2-194.7-634.7C434.2,944.2,158.3,530.8,601.9,291c255.2-137.9,484.1,82.8,925.2-80.1
				c398.3-147.1,912-15.5,1037.7,292.9c86.4,212.2-22.5,440.9,86.4,551.8C2827.9,1235.5,2746.6,1686.2,2479.9,1771.6z"/>
		</g>
	</g>
	<g class="st1">
		<g>
			<g>
				<g>
					<path class="st3" d="M1565.6,1105.6c0,0-60.6,5.1-78.4-5.6c-17.9-10.7-65.6-48.5-87.5-52.7c-6.8-1.3-60.4-7.8-71.9,1.5
						c-7.8,6.3,3.1,31.7,30.3,35.5c47.3,6.6,67.1,30,82.4,44.5c26.1,24.8,42.6,37,27.4,31.2c0,0-44.1-24.6-65.2-30.7
						c-5.7-1.6-52.5-6.8-61.1,3.2c-4.7,5.4-2.3,29.3,39.4,37.4c27.4,5.3,38.2,26.3,51.4,43.9c11.4,15.2,31.8,74.9,31.8,74.9
						l69.6-40.8L1565.6,1105.6z"/>
				</g>
				<g>
					<path class="st4" d="M1323,1622.6c12.9-18.3,13.7-232.9,7.7-249.4c-15-40.7-1.9-145.3,21.5-225.9
						c12.7-43.9,15.7-101,15.6-123.1c-0.1-17.3-7.3-86.2,1.1-99.1c4.9-7.6,36-2.4,46.6,6.4c22.8,18.9,30.5,60.2,34.7,129
						c4,65.6,43.3,115.6,60,81.7c43.9-89.3-117.8-206.2-95.6-247.4c6-11.1,45.5,10.7,77.7,33.8c13.2,9.5,87.2,78.2,111.7,114.7
						c15.3,22.9,85.3,190.7,82.4,259.5c-1.3,31.7-114.4,213.6-118.7,218.7l0,0c-7.9,36.8,11.4,123.7,9,128.3
						C1475.9,1635.6,1392.5,1653.6,1323,1622.6z"/>
				</g>
				<g>
					
						<rect x="1265.6" y="518.6" transform="matrix(0.9447 0.3279 -0.3279 0.9447 345.5297 -442.7834)" class="st5" width="440.5" height="569.4"/>
					<g>
						<path class="st6" d="M1597.9,853.1c-22.1,63.6-91.5,97.2-155.1,75.2c-63.6-22.1-97.2-91.5-75.2-155.1
							c7.2-20.8,19.5-38.3,34.9-51.8c15.1-13.2,33.4-22.5,52.9-27c21.6-5,44.8-4.2,67.3,3.6c22.6,7.8,41.4,21.6,55.2,39
							c18.8,23.5,28.5,53.6,26.4,84.4C1603.6,832,1601.5,842.6,1597.9,853.1z"/>
						<path class="st7" d="M1604.4,821.4c-2.2,0.1-4.4-0.5-6.2-1.9c-2.9-2.2-4.2-5.9-6-9.1c-1.8-3.2-4.8-6.4-8.5-6
							c-3.1,0.3-5.4,3.1-6.3,6c-0.9,2.9-0.7,6.1-0.8,9.2c-0.3,14.3-6.7,28.4-17.2,38c-5.7,5.2-12.7,9.2-17.6,15.3
							c-5.6,6.9-8,15.8-12.9,23.2c-9.4,14.1-28.4,21.1-44.7,16.4c-1.4-0.4-2.6-15.8,6.8-36.9c3.4-7.7,18.7-19.5,12.2-29.2
							c-1.7-2.6-7-3.8-14.4-8.6c-0.6-0.4-6.8-14.2-6.7-25.5c0.1-9.8,6.6-18.6,14.7-24c3.4-2.3,7.3-4.1,11.4-4.3
							c10.9-0.5,18.9,10.2,29.2,13.8c5.4,1.9,11.3,1.8,16.9,3c3.2,0.7,6.9,1.6,9.2-0.6c3.7-3.5-0.5-10.7,2.8-14.7
							c-3.5-2.2-7.7-4.1-11.8-3.4c-4.1,0.7-7.9,4.7-6.9,8.8c0.2,0.9,0.7,1.9,0.4,2.8c-0.5,1.4-2.4,1.6-3.6,0.8
							c-1.2-0.8-1.8-2.2-2.3-3.6c-1.4-4-2.4-8.1-4.5-11.7c-2.1-3.6-5.5-6.8-9.7-7.3c-3.3-0.4-6.6,1-9.9,1c-3.3,0.1-7.3-2.2-6.9-5.5
							c0.4-3.5,4.7-4.6,7.9-6c2.9-1.3,5.5-3.5,6.7-6.5c1.2-3,0.6-6.6-1.7-8.8c-1.9-1.8-4.6-2.3-7-3.4c-2.4-1.1-4.7-3.4-4.2-5.9
							c0.6-3,4.5-4,7.4-3.2c2.9,0.7,5.6,2.5,8.6,2.8c1.8,0.2,3.6-0.2,5.5-0.1c9.5,0.3,16.9,11.7,26.2,9.9c6.1-1.2,10.9-9.4,17.3-9
							C1596.7,760.6,1606.5,790.6,1604.4,821.4z"/>
						<path class="st7" d="M1551.5,878.5c-1.1,0.8-2.2,1.6-3.4,2.5c-0.8,0.6-1.6,1.1-2.1,2c-1.1,1.7-0.3,4.3,1.5,5.2
							c1.8,0.9,4.3,0,5-1.9c0.5-1.2,0.4-2.6,1.4-3.4c2-1.6,7.7-0.2,5.2-4.1C1557.3,875.8,1553.7,876.8,1551.5,878.5z"/>
						<path class="st7" d="M1462.5,735.4c0.9,3.6,3.9,7.8,1.1,10.2c-2.5,2.1-6.9-0.3-10.1,0.9c-1.9,0.7-3.1,2.5-5,3.1
							c-1.6,0.6-3.6,0.2-5.1,0.9c-1.9,0.9-2.6,3.1-4.2,4.5c-4.9,4-13.6-2.7-19.3,0.3c-4.4,2.2-3.7,8.7-0.3,12.5
							c3.4,3.7,8.4,5.7,12.7,8.5c4.3,2.8,8.2,7.3,7.3,11.9c-1,4.8-7,8.7-4.9,13.3c0.6,1.4,2,2.5,3,3.7c2.7,3.2,3.4,7.5,2.1,11.2
							c-1.3,3.7-4.4,6.6-8.1,8.2c-2.4,1-5,1.4-7.4,2.4c-6.5,2.7-10.4,8.7-13.9,14.4c-4.3,7.1-8.6,14.5-10.1,22.7
							c-0.5,2.7-1,5.9-3.6,7.1c-3.1,1.4-7-1.1-8.4-4.2c-1.4-3-1.4-6.4-2.2-9.6c-1.5-6-6.1-11.2-7.7-17.3c-3.8-14.4,10.6-27.8,8-42.4
							c-0.5-3-1.8-6-2.3-9c-0.9-6.1,1.6-12.3,6.4-16.1c5.3-4.1,13.3-5.8,15.5-12c2.4-6.8-4.3-14.2-3.1-21.3c0.4-2.3,1.6-4.3,1.9-6.6
							c0.4-2.6-0.3-5.3-1.1-7.9c-0.3-1.1-0.7-2.3-1-3.5c15.1-13.2,33.4-22.5,52.9-27c0.2,0.4,0.3,0.9,0.4,1.5
							c0.6,5.4,1.5,7.5,6.7,11c4.6,3,9.2,6.1,13.8,9.1c2.6,1.7,5.5,4.3,4.4,6.9c-1.4,3.2-6.5,1.9-10.3,2.2
							C1465.2,725.5,1461.3,730.6,1462.5,735.4z"/>
						<path class="st7" d="M1490.7,724c0.3,2.1,0,4.2,0.1,6.3c0.1,2.1,0.8,4.4,2.6,5.5c1.4,0.8,3.2,0.8,4.8,0.2
							c1.5-0.6,2.8-1.7,4.1-2.7c2.4-2.1,4.7-4.4,6.9-6.8c1.2-1.3,2.4-2.8,2.6-4.6c0.2-1.6-0.3-3.1-0.9-4.6c-0.8-2-1.8-4.1-3.4-5.6
							c-2.3-2.1-5.7-2.8-8.8-3c-2.6-0.2-16.8-0.2-17,3.3c-0.1,1.4,4.7,4.3,5.6,5.3C1488.9,719.2,1490.3,721.4,1490.7,724z"/>
					</g>
					<g>
						<path class="st6" d="M1408.5,551.3l-5.8,16.9l-7.9-2.7l15.7-45.4l17.3,6c2.6,0.9,4.9,2.1,6.7,3.5c1.8,1.4,3.2,3,4.1,4.8
							c1,1.8,1.5,3.7,1.6,5.7c0.1,2-0.2,4.1-0.9,6.1c-0.8,2.2-1.8,4-3.2,5.5c-1.3,1.5-2.9,2.6-4.8,3.3c-1.8,0.7-3.9,1-6.1,1
							c-2.3-0.1-4.7-0.6-7.4-1.5L1408.5,551.3z M1410.7,545l9.5,3.3c1.5,0.5,2.9,0.8,4.1,0.8c1.2,0,2.3-0.2,3.2-0.7
							c0.9-0.4,1.7-1.1,2.4-1.9c0.6-0.8,1.2-1.8,1.6-2.9c0.4-1.1,0.6-2.1,0.6-3.2c0-1.1-0.2-2.1-0.6-3.1c-0.4-1-1.1-1.9-2.1-2.7
							c-0.9-0.8-2.2-1.5-3.7-2l-9.5-3.3L1410.7,545z"/>
						<path class="st6" d="M1459,575.9l-17.6-6.1l-7.3,9.3l-8.2-2.8l32.9-39.4l7.1,2.5l1.4,51.3l-8.2-2.9L1459,575.9z M1445.9,564.2
							l13.1,4.6l0-21.1L1445.9,564.2z"/>
						<path class="st6" d="M1500.2,588.9c0.3-0.9,0.5-1.8,0.4-2.6c0-0.8-0.3-1.6-0.8-2.5c-0.5-0.9-1.3-1.8-2.4-2.8
							c-1.1-1-2.5-2.1-4.2-3.4c-1.9-1.4-3.7-2.8-5.2-4.3c-1.5-1.5-2.8-3-3.7-4.5c-0.9-1.6-1.5-3.2-1.8-4.9c-0.2-1.7-0.1-3.5,0.6-5.3
							c0.6-1.8,1.6-3.4,2.9-4.6c1.3-1.3,2.9-2.2,4.7-2.8c1.8-0.6,3.8-0.9,6-0.9c2.2,0.1,4.5,0.5,6.9,1.3c2.6,0.9,4.7,2.1,6.5,3.5
							c1.8,1.4,3.1,3,4.1,4.8c1,1.8,1.5,3.6,1.7,5.5c0.2,1.9-0.1,3.8-0.7,5.7l-7.8-2.7c0.4-1.1,0.6-2.2,0.5-3.2c0-1-0.3-2-0.7-2.9
							c-0.5-0.9-1.2-1.8-2.1-2.5c-1-0.7-2.2-1.4-3.6-1.9c-1.4-0.5-2.6-0.7-3.8-0.8c-1.1,0-2.1,0.1-3,0.4c-0.9,0.3-1.6,0.8-2.2,1.5
							c-0.6,0.7-1,1.4-1.3,2.3c-0.6,1.7-0.3,3.4,0.9,5c1.2,1.7,3.3,3.6,6.2,5.6c2.3,1.6,4.2,3.2,5.8,4.8c1.6,1.6,2.7,3.1,3.6,4.7
							c0.8,1.6,1.3,3.2,1.4,4.8c0.1,1.7-0.2,3.4-0.8,5.2c-0.7,1.9-1.6,3.5-2.9,4.8c-1.3,1.3-2.8,2.2-4.6,2.8
							c-1.8,0.6-3.8,0.8-5.9,0.7c-2.2-0.1-4.5-0.6-7-1.5c-2.2-0.8-4.2-1.8-6.1-3.1c-1.9-1.3-3.5-2.9-4.8-4.7
							c-1.3-1.8-2.1-3.7-2.5-5.9c-0.4-2.1-0.2-4.4,0.6-6.8l7.9,2.7c-0.5,1.4-0.7,2.8-0.5,4c0.2,1.2,0.6,2.3,1.2,3.2
							c0.7,1,1.5,1.8,2.6,2.5c1.1,0.7,2.3,1.3,3.7,1.8c2.7,1,5,1.1,6.8,0.5C1498.4,592,1499.6,590.8,1500.2,588.9z"/>
						<path class="st6" d="M1538.7,602.3c0.3-0.9,0.5-1.8,0.4-2.6c0-0.8-0.3-1.6-0.8-2.5c-0.5-0.9-1.3-1.8-2.4-2.8
							c-1.1-1-2.5-2.1-4.2-3.4c-1.9-1.4-3.7-2.8-5.2-4.3c-1.5-1.5-2.8-3-3.7-4.5c-0.9-1.6-1.5-3.2-1.8-4.9c-0.3-1.7-0.1-3.5,0.6-5.3
							c0.6-1.8,1.6-3.4,2.9-4.6c1.3-1.3,2.9-2.2,4.7-2.8c1.8-0.6,3.8-0.9,6-0.9c2.2,0.1,4.5,0.5,6.9,1.3c2.6,0.9,4.7,2.1,6.5,3.5
							c1.8,1.4,3.1,3,4.1,4.8c1,1.8,1.5,3.6,1.7,5.5c0.2,1.9-0.1,3.8-0.7,5.7l-7.8-2.7c0.4-1.1,0.6-2.2,0.5-3.2c0-1-0.3-2-0.7-2.9
							c-0.5-0.9-1.2-1.8-2.1-2.5c-1-0.7-2.2-1.4-3.6-1.9c-1.4-0.5-2.6-0.7-3.8-0.8c-1.1,0-2.1,0.1-3,0.4c-0.9,0.3-1.6,0.8-2.2,1.5
							c-0.6,0.7-1,1.4-1.3,2.3c-0.6,1.7-0.3,3.4,0.9,5c1.2,1.7,3.3,3.6,6.2,5.6c2.3,1.6,4.2,3.2,5.8,4.8c1.6,1.6,2.7,3.1,3.6,4.7
							c0.8,1.6,1.3,3.2,1.4,4.9c0.1,1.7-0.2,3.4-0.8,5.2c-0.7,1.9-1.6,3.5-2.9,4.8c-1.3,1.3-2.8,2.2-4.6,2.8
							c-1.8,0.6-3.8,0.8-5.9,0.7c-2.2-0.1-4.5-0.6-7-1.5c-2.2-0.8-4.2-1.8-6.1-3.1c-1.9-1.3-3.5-2.9-4.8-4.7
							c-1.3-1.8-2.1-3.7-2.5-5.9c-0.4-2.1-0.2-4.4,0.6-6.8l7.9,2.7c-0.5,1.4-0.7,2.8-0.5,4c0.2,1.2,0.6,2.3,1.2,3.2
							c0.7,1,1.5,1.8,2.6,2.5c1.1,0.7,2.3,1.3,3.7,1.8c2.7,1,5,1.1,6.8,0.5C1536.9,605.4,1538.1,604.1,1538.7,602.3z"/>
						<path class="st6" d="M1563.2,605l-5.8,16.9l-7.9-2.7l15.7-45.4l17.3,6c2.6,0.9,4.9,2.1,6.7,3.5c1.8,1.4,3.2,3,4.1,4.8
							c1,1.8,1.5,3.7,1.6,5.7c0.1,2-0.2,4.1-0.9,6.1c-0.8,2.2-1.8,4-3.2,5.5c-1.3,1.5-2.9,2.6-4.8,3.3c-1.8,0.7-3.9,1-6.1,1
							c-2.3-0.1-4.7-0.6-7.4-1.5L1563.2,605z M1565.4,598.7l9.5,3.3c1.5,0.5,2.9,0.8,4.1,0.8c1.2,0,2.3-0.2,3.2-0.7
							c0.9-0.4,1.7-1.1,2.4-1.9c0.6-0.8,1.2-1.8,1.6-2.9c0.4-1.1,0.6-2.1,0.6-3.2c0-1.1-0.2-2.1-0.6-3.1c-0.4-1-1.1-1.9-2.1-2.7
							c-0.9-0.8-2.2-1.5-3.7-2l-9.5-3.3L1565.4,598.7z"/>
						<path class="st6" d="M1633.9,624.3c-1.2,3.4-2.7,6.4-4.6,8.8c-1.9,2.4-3.9,4.3-6.2,5.6c-2.3,1.3-4.8,2.1-7.4,2.3
							c-2.7,0.2-5.4-0.2-8.2-1.1c-2.8-1-5.1-2.4-7.1-4.2c-2-1.8-3.4-4-4.4-6.4c-1-2.5-1.5-5.2-1.5-8.3c0-3.1,0.6-6.3,1.8-9.7
							l0.8-2.3c1.2-3.4,2.7-6.4,4.6-8.8c1.9-2.4,4-4.3,6.3-5.6c2.3-1.3,4.8-2.1,7.5-2.3c2.7-0.2,5.4,0.2,8.2,1.1
							c2.8,1,5.2,2.4,7.1,4.2c2,1.8,3.4,4,4.4,6.5c1,2.5,1.5,5.3,1.4,8.3c0,3.1-0.7,6.3-1.9,9.8L1633.9,624.3z M1626.8,619.2
							c0.9-2.5,1.4-4.9,1.6-7c0.2-2.1,0-4-0.4-5.6c-0.5-1.6-1.3-3-2.4-4.2c-1.1-1.1-2.6-2-4.3-2.6c-1.7-0.6-3.3-0.8-4.9-0.6
							c-1.6,0.2-3.1,0.8-4.5,1.8c-1.4,1-2.7,2.4-3.9,4.1c-1.2,1.8-2.2,3.9-3.1,6.4l-0.8,2.4c-0.9,2.5-1.4,4.9-1.6,7
							c-0.2,2.1,0,4,0.5,5.7c0.5,1.7,1.3,3,2.4,4.2c1.1,1.1,2.5,2,4.2,2.6c3.5,1.2,6.6,0.8,9.4-1.2c2.8-2,5.1-5.6,6.9-10.7
							L1626.8,619.2z"/>
						<path class="st6" d="M1657,636.9l-8.8-3l-6.1,17.5l-7.9-2.7l15.7-45.4l15.9,5.5c2.6,0.9,4.8,2,6.6,3.3
							c1.8,1.3,3.2,2.8,4.2,4.4c1,1.6,1.6,3.4,1.7,5.4c0.1,2-0.2,4.1-1,6.3c-1.1,3-2.7,5.3-4.8,6.9c-2.2,1.5-4.8,2.4-7.8,2.6
							l3.6,22.4l-0.1,0.4l-8.4-2.9L1657,636.9z M1650.4,627.5l8.1,2.8c1.4,0.5,2.7,0.7,3.9,0.7c1.2,0,2.3-0.2,3.2-0.6
							c0.9-0.4,1.7-1,2.4-1.8c0.7-0.8,1.2-1.7,1.6-2.8c0.4-1.2,0.6-2.3,0.6-3.3c0-1.1-0.2-2-0.7-3c-0.5-0.9-1.1-1.7-2.1-2.5
							c-0.9-0.7-2.2-1.4-3.7-1.9l-8.1-2.8L1650.4,627.5z"/>
						<path class="st6" d="M1718.8,634.2l-14.1-4.9l-13.5,39l-7.8-2.7l13.5-39l-14-4.9l2.2-6.4l36,12.5L1718.8,634.2z"/>
					</g>
					<g>
						<path class="st6" d="M1428.3,969.9c-21.2-7.3-40.3-18.6-56.7-33.5c-15.9-14.4-28.8-31.5-38.2-50.9
							c-9.4-19.4-14.9-40.1-16.3-61.5c-1.5-22.2,1.5-44.1,8.9-65.3c7.3-21.2,18.6-40.3,33.5-56.7c14.4-15.9,31.5-28.8,50.9-38.2
							c19.4-9.4,40.1-14.9,61.5-16.3c22.2-1.5,44.1,1.5,65.3,8.9c21.2,7.3,40.3,18.6,56.7,33.5c15.9,14.4,28.8,31.5,38.2,50.9
							c9.4,19.4,14.9,40.1,16.3,61.5c1.5,22.2-1.5,44.1-8.9,65.3c-7.3,21.2-18.6,40.3-33.5,56.7c-14.4,15.9-31.5,28.8-50.9,38.2
							c-19.4,9.4-40.1,14.9-61.5,16.3C1471.5,980.2,1449.5,977.3,1428.3,969.9z M1536.5,658.1c-41.4-14.4-85.9-11.8-125.4,7.4
							c-39.4,19.1-69.1,52.5-83.5,93.9c-14.4,41.4-11.8,85.9,7.4,125.4c19.1,39.4,52.5,69.1,93.9,83.5
							c41.4,14.4,85.9,11.8,125.4-7.4c39.4-19.1,69.1-52.5,83.5-93.9c14.4-41.4,11.8-85.9-7.4-125.4
							C1611.3,702.1,1578,672.5,1536.5,658.1z"/>
					</g>
					<g>
						<path class="st6" d="M1447.1,1016.8l-62.5-21.7c-2-0.7-3.1-2.9-2.4-4.9l0,0c0.7-2,2.9-3.1,4.9-2.4l62.5,21.7
							c2,0.7,3.1,2.9,2.4,4.9l0,0C1451.3,1016.4,1449.1,1017.5,1447.1,1016.8z"/>
						<path class="st6" d="M1485.6,1049.6L1334,997c-2-0.7-3.1-2.9-2.4-4.9l0,0c0.7-2,2.9-3.1,4.9-2.4l151.6,52.6
							c2,0.7,3.1,2.9,2.4,4.9l0,0C1489.8,1049.3,1487.6,1050.3,1485.6,1049.6z"/>
					</g>
				</g>
				<g>
					<path class="st4" d="M1326.3,1355.1c-7.2-48.4,5.4-137.3,25.8-207.8c12.7-43.9,15.7-101,15.6-123.1c-0.1-17.3-7.3-86.2,1-99.1
						c4.9-7.6,36-2.4,46.6,6.4c22.8,18.9,30.5,60.2,34.7,129c4,65.6,18.8,93.5,39.5,113.6c7.1,6.9-43.2,102.3,25.7,91.1
						c34.6-5.7,85.2,92.4,69.2,107.6C1451.9,1498.4,1326.3,1355.1,1326.3,1355.1z"/>
				</g>
			</g>
		</g>
		<path class="st8" d="M1265.5,1883.8c0,0,30.9-296.1,45.6-297.8c14.6-1.6,55.3,42.3,174.4,32.2c37-3.1,90.8-19.1,97.3-19.1
			s52.1,278.2,52.1,278.2L1265.5,1883.8z"/>
	</g>
	<g class="st1">
		<g>
			<g>
				<g>
					<path class="st3" d="M2098.4,1228.6c0,0,60.5-6,76.1-19.7c15.6-13.8,55.7-59.6,76.5-67.7c6.5-2.5,58-18.6,71-11.6
						c8.8,4.8,2.7,31.7-23.4,40.4c-45.3,15.1-60.6,41.7-73,58.7c-21.1,29.1-35.2,44.1-21.3,35.6c0,0,38.9-32.2,58.5-42
						c5.3-2.7,50.4-16.2,60.7-7.9c5.6,4.5,7.6,28.4-32,43.9c-26,10.2-32.8,32.8-42.6,52.5c-8.5,17-17.7,79.4-17.7,79.4l-75.9-27.6
						L2098.4,1228.6z"/>
				</g>
				<g>
					<path class="st4" d="M2416.1,1861.1c-16-15.7-48.8-274.5-38.1-411.9c3.4-43.2-24.5-143.3-62.1-218.3
						c-20.5-40.9-33.7-96.5-37.7-118.2c-3.1-17.1-8.5-86.1-19-97.2c-6.2-6.5-35.9,4.1-44.7,14.8c-19,22.7-19.1,64.7-10.7,133.2
						c8,65.2-21.7,121.5-44.2,91.2c-59.3-79.8,78.4-224.1,49.2-260.6c-7.9-9.8-42.9,18.8-70.2,47.3c-11.3,11.7-71.6,92.7-89,133.1
						c-10.9,25.3-33.3,180-18,247.2c7,30.9,135.3,212.3,140.4,216.6l0,0c14.5,34.8,7.8,194.8,11,198.9
						C2279.2,1804.6,2353.3,1904.2,2416.1,1861.1z"/>
				</g>
				<g>
					<path class="st9" d="M2083.8,1225.2l300.8,47.9c6.4,1,12.2-1.9,12.9-6.4l101-634.6c0.7-4.5-3.9-9-10.3-10.1l-300.8-47.9
						c-6.4-1-12.2,1.9-12.9,6.4l-101,634.6C2072.8,1219.7,2077.4,1224.2,2083.8,1225.2z"/>
					<path class="st10" d="M2083.8,1225.2l24.7,3.9l103.6-651l-24.7-3.9c-6.4-1-12.2,1.9-12.9,6.4l-101,634.6
						C2072.8,1219.7,2077.4,1224.2,2083.8,1225.2z"/>
					
						<rect x="2238.2" y="745.1" transform="matrix(-0.1572 0.9876 -0.9876 -0.1572 3456.782 -1420.8175)" class="st11" width="192.9" height="39.1"/>
					
						<rect x="2276.6" y="799.1" transform="matrix(-0.1572 0.9876 -0.9876 -0.1572 3601.7017 -1436.6007)" class="st11" width="274.5" height="39.1"/>
					
						<rect x="2322.6" y="741.1" transform="matrix(-0.1572 0.9876 -0.9876 -0.1572 3503.3132 -1498.8478)" class="st12" width="137.3" height="8.7"/>
					
						<rect x="2237.6" y="727.6" transform="matrix(-0.1572 0.9876 -0.9876 -0.1572 3391.5298 -1430.5199)" class="st12" width="137.3" height="8.7"/>
					<path class="st11" d="M2255.9,637.5l-0.2,3.1c0,0.1,0,0.2,0,0.3l4.6,24.1c0.1,0.3,0,0.6-0.1,0.9l-15.4,32.1
						c-0.5,0.8-2.6-4.5-3.1-5.3c-5.4-8.8-18-36.3-23.7-46.7c-0.9-1.7-3.4-1.4-4,0.4c-0.3,0.9-0.3,1.8-0.1,2.7l13.7,49.7l-4.6,6.2
						c-0.7,0.9-0.5,2.2,0.4,2.8l4.8,3.6c0.9,0.7,2.1,0.5,2.8-0.4l1.8,6.4c0.1,0.3,0,0.6-0.1,0.9l-15,28.7c-1.3,2.5-1.7,5.5-1.2,8.3
						c0.2,1.1,0.5,2.4,0.7,3.5c0.5,2.4,2.9,3.8,5.2,3.2l1.2-0.3c3.8-1,7-3.6,8.7-7.2l11-23.4c0.2-0.5,0.7-0.7,1.2-0.7l10.4,0.6
						l-1,1.3c-0.7,0.9-0.5,2.2,0.4,2.8l4.8,3.6c0.9,0.7,2.2,0.5,2.8-0.4l5-6.6l16.3,1c1.3,0.1,2.6-0.2,3.8-0.9
						c1.4-0.8,3-1.7,2.9-2.1c-0.4-1.2-24.6-14.1-34.1-18.6c-0.5-0.3,1.6-4.9,1.8-5.4l12.6-32.1c0.2-0.4,0.6-0.7,1-0.7l9.7-0.7
						c1.1-0.1,2.1-0.5,2.9-1.3l0,0c0.6-0.5,0.5-1.4-0.1-1.9l-11.1-8.6c-0.3-0.2-0.5-0.6-0.5-1l0.2-3.5c0.1-1.1-1.2-1.7-2.1-1
						l-0.9,0.8l-11.2-18.8C2257.6,635.9,2256,636.3,2255.9,637.5z"/>
					<g>
						
							<rect x="2203.6" y="813.5" transform="matrix(-0.1572 0.9876 -0.9876 -0.1572 3379.3545 -1253.3395)" class="st11" width="41.8" height="3.6"/>
						
							<rect x="2216.8" y="811" transform="matrix(-0.1572 0.9876 -0.9876 -0.1572 3387.4221 -1265.4335)" class="st11" width="33.8" height="3.6"/>
						<g>
							
								<rect x="2169.2" y="825" transform="matrix(-0.1572 0.9876 -0.9876 -0.1572 3371.166 -1219.8289)" class="st11" width="73.8" height="7.2"/>
							
								<rect x="2211" y="847.4" transform="matrix(-0.1572 0.9876 -0.9876 -0.1572 3416.6987 -1217.5503)" class="st11" width="33.8" height="3.6"/>
							
								<rect x="2196" y="861.3" transform="matrix(-0.1572 0.9876 -0.9876 -0.1572 3417.7329 -1190.5455)" class="st11" width="41.8" height="3.6"/>
						</g>
					</g>
				</g>
				
					<rect x="2168.5" y="976.8" transform="matrix(0.9876 0.1572 -0.1572 0.9876 196.504 -334.3929)" class="st11" width="88" height="196.9"/>
				<g>
					<path class="st4" d="M2378.9,1430.6c-1.7-48.9-30.2-134.1-63-199.7c-20.5-40.9-33.8-96.5-37.7-118.2
						c-3.1-17.1-8.5-86.1-19-97.2c-6.2-6.5-35.9,4.2-44.7,14.8c-19,22.7-19.1,64.7-10.7,133.1c8,65.2-1.5,95.3-18.3,118.8
						c-5.8,8.1,61,92.8-8.8,94.2c-35,0.7-67,106.3-48.5,118.4C2281.4,1594.2,2378.9,1430.6,2378.9,1430.6z"/>
				</g>
			</g>
		</g>
	</g>
	<g class="st1">
		<g>
			<path class="st13" d="M535.6,1255c27.4,100.9,67.6,237.6,78.7,256.7c1.1,1.9,0.7,319.3-7.2,327.6c22.1,8.9,137.4,0.6,160.6,9.7
				l32.2-27.9c0,0,8.3-202.3,28.8-236.5c39.1-65,68.7-122.4,70.7-149.6c6-83.5-41.3-311.6-71.8-296.2c-20,10.1-18.3,30.8-15.8,65.5
				c4.1,55.9-0.8,125-20,114.6c-30.1-16.2-50.9-115.8-39-149.2c6.3-17.7,36.7-96,53.7-114.1c30.2-32,52.5-57.9,34-73.5
				c-4.7-4-38.8,21.4-53.4,33.5c-32.4,26.8-68.1,61.8-69.7,69.3c0,0,6.7-41.8,15.2-55.4c20-31.9,30.8-63.1,14.7-69.4
				c-10.2-4-50.1,30.3-85.2,104.6c-35.1,74.3-32.5,91.4-35.3,88.5c-1.1-1.1,1.4-31.7,6.9-65.7c3.6-22.5,5.5-45.9,11.6-67
				c7.5-25.8-2-53.8-15.7-55.6c-9.5-1.2-53.7,175.3-59.4,194.2c0,0-0.4-78.8-23.8-75.9C538.5,1084.2,523.2,1209.5,535.6,1255z"/>
		</g>
		<g>
			<path class="st9" d="M734.6,1220.6l268.6-81.8c5.7-1.7,9.3-6.4,8.1-10.5L838.8,561.6c-1.2-4-6.9-5.9-12.6-4.2l-268.6,81.8
				c-5.7,1.7-9.3,6.4-8.1,10.5L722,1216.4C723.3,1220.4,728.9,1222.3,734.6,1220.6z"/>
			<path class="st10" d="M734.6,1220.6l22.1-6.7l-177-581.4l-22.1,6.7c-5.7,1.7-9.3,6.4-8.1,10.5L722,1216.4
				C723.3,1220.4,728.9,1222.3,734.6,1220.6z"/>
			
				<rect x="667.6" y="719.5" transform="matrix(0.2912 0.9567 -0.9567 0.2912 1241.776 -201.0283)" class="st11" width="177.8" height="36"/>
			
				<rect x="717.4" y="732.2" transform="matrix(0.2912 0.9567 -0.9567 0.2912 1315.9214 -275.6351)" class="st11" width="253.1" height="36"/>
			
				<rect x="732.4" y="694.8" transform="matrix(0.2912 0.9567 -0.9567 0.2912 1232.4819 -265.9212)" class="st12" width="126.6" height="8"/>
			
				<rect x="656.5" y="717.9" transform="matrix(0.2912 0.9567 -0.9567 0.2912 1200.7675 -176.8694)" class="st12" width="126.6" height="8"/>
			<path class="st11" d="M640,664l1.1,2.6c0,0.1,0.1,0.2,0.1,0.3l13.5,18.1c0.2,0.2,0.2,0.5,0.2,0.8l0.2,32.9
				c-0.1,0.9-4-2.7-4.7-3.2c-8-5.1-29.5-22.8-38.5-29.1c-1.4-1-3.4,0.2-3.1,1.9c0.1,0.8,0.5,1.6,1,2.3l31.4,35.7l-1.3,7
				c-0.2,1,0.5,2,1.5,2.2l5.4,1c1,0.2,2-0.5,2.2-1.4l4,4.6c0.2,0.2,0.3,0.5,0.3,0.8l-0.9,29.9c-0.1,2.6,0.8,5.2,2.4,7.3
				c0.7,0.8,1.4,1.8,2,2.6c1.4,1.8,3.9,2,5.6,0.6l0.8-0.7c2.8-2.4,4.4-5.8,4.3-9.5l-0.3-23.8c0-0.5,0.3-0.9,0.7-1.1l8.9-3.7
				l-0.3,1.5c-0.2,1,0.5,2,1.5,2.2l5.4,1c1,0.2,2-0.5,2.2-1.5l1.4-7.5L701,732c1.1-0.5,2.1-1.3,2.8-2.3c0.9-1.3,1.8-2.7,1.6-2.9
				c-0.8-0.8-26.1-1.8-35.8-1.7c-0.6,0-0.6-4.7-0.6-5.2l-2.5-31.7c0-0.4,0.2-0.8,0.6-1l7.8-4.5c0.9-0.5,1.5-1.3,1.9-2.2l0,0
				c0.3-0.7-0.1-1.4-0.8-1.5l-12.7-2.6c-0.4-0.1-0.7-0.3-0.8-0.7l-1.3-3c-0.4-0.9-1.7-0.9-2.1,0l-0.4,1l-16.9-11.1
				C640.7,661.9,639.5,662.9,640,664z"/>
			<g>
				
					<rect x="666.5" y="822.4" transform="matrix(0.2912 0.9567 -0.9567 0.2912 1274.3134 -71.9273)" class="st11" width="38.5" height="3.3"/>
				
					<rect x="676.7" y="816.5" transform="matrix(0.2912 0.9567 -0.9567 0.2912 1273.3651 -82.3859)" class="st11" width="31.1" height="3.3"/>
				<g>
					
						<rect x="641.8" y="839.1" transform="matrix(0.2912 0.9567 -0.9567 0.2912 1284.9362 -49.4243)" class="st11" width="68" height="6.6"/>
					
						<rect x="686.6" y="849" transform="matrix(0.2912 0.9567 -0.9567 0.2912 1311.5079 -68.8015)" class="st11" width="31.1" height="3.3"/>
					
						<rect x="679.4" y="865" transform="matrix(0.2912 0.9567 -0.9567 0.2912 1324.3372 -54.1122)" class="st11" width="38.5" height="3.3"/>
				</g>
			</g>
		</g>
		<g>
			<path class="st13" d="M827.6,1138.7c-20,10.1-18.3,30.8-15.8,65.5c0.1,1.2,0.2,2.3,0.2,3.5c18.5,7.8,38.2,13,58.6,15.3
				C856.9,1170.4,840.7,1132,827.6,1138.7z"/>
		</g>
		<path class="st14" d="M580.6,1582c0,0-21-43.6,15.5-48.7c36.5-5.1,77.4,15.8,92.1,28.9s162.1-15.7,177.7,19
			c15.6,34.7-23.6,94.1-19.1,158c4.5,63.9-1,433.2-1,433.2l-285.5-102.5c0,0,28.8-239.2,40.5-306
			C612.6,1697.3,586.6,1606.6,580.6,1582z"/>
		
			<rect x="736.5" y="943.1" transform="matrix(0.9567 -0.2912 0.2912 0.9567 -269.5056 272.4323)" class="st11" width="88" height="196.9"/>
	</g>
</g>
</svg>
