<?xml version="1.0" encoding="utf-8"?>
<!-- Generator: Adobe Illustrator 24.2.1, SVG Export Plug-In . SVG Version: 6.00 Build 0)  -->
<svg version="1.1" id="_x3C_Layer_x3E_" xmlns="http://www.w3.org/2000/svg" xmlns:xlink="http://www.w3.org/1999/xlink" x="0px"
	 y="0px" viewBox="0 0 2760 1840" style="enable-background:new 0 0 2760 1840;" xml:space="preserve">
<style type="text/css">
	.st0{fill:#FFFFFF;}
	.st1{fill:#EBF3FA;}
	.st2{fill:#F8FCFF;}
	.st3{fill:#D2E0FF;}
	.st4{opacity:0.5;}
	.st5{fill:#CADBFC;}
	.st6{fill:#AEC3FF;}
	.st7{fill:#233862;}
	.st8{fill:#FFB27D;}
	.st9{fill:#F99746;}
	.st10{fill:#ED7D2B;}
	.st11{fill:#ED975D;}
	.st12{fill:#8C9DF4;}
	.st13{fill:#2B478B;}
	.st14{fill:#37547F;}
	.st15{fill:#152847;}
	.st16{fill:#ED985F;}
	.st17{fill:#2C3A64;}
	.st18{fill:#7489E2;}
	.st19{fill:#BDCEF9;}
	.st20{opacity:0.2;}
	.st21{fill:#6980E2;}
	.st22{fill:#82B378;}
	.st23{fill:#193054;}
	.st24{fill:#FF9E55;}
	.st25{fill:#2F4B77;}
	.st26{fill:#BDD1F9;}
	.st27{fill:#E8945B;}
	.st28{fill:#CB7D45;}
	.st29{fill:#F4A36C;}
	.st30{fill:#8FB5E2;}
	.st31{fill:#163560;}
	.st32{fill:#F78248;}
</style>
<rect class="st0" width="2760" height="1840"/>
<g>
	<g>
		<path class="st1" d="M282.4,1509.5l-0.2-0.4c0,0-0.2-0.4-0.2-0.5c-0.8-1.4-317.7-406.5,175.3-688.2
			c192.9-110.2-12-183.1,141.4-305.9c176.3-141,368.6,15.1,564.6-48.8c34.6-11.3,69.4-29.5,104.2-57.3
			c23.2-18.6,48.5-33.9,74.7-46.6c70.7-34,151.7-49.9,231-54.6c219-12.7,465.4,59.3,592.6,164.4c25.6,21.2,142,130.7,50.2,281.1
			c-58,95,184.8,185.8,271,294.3c146.1,183.8,98.9,327.9,50.6,404.6c-6.1,9.8-12.3,18.4-18.1,25.9c-17,22.1-30.8,34.3-31.3,35.2
			L282.4,1509.5z"/>
	</g>
	<g>
		<path class="st2" d="M1323.3,707.5H775.4c5.2-11.2,33.7-66.1,93.4-59.2c0,0,96.5-114.7,199.3-15.2c0,0,109.3-24.6,190.3,21.4
			C1294.1,674.8,1314,695.7,1323.3,707.5z"/>
	</g>
	<g>
		<path class="st2" d="M1981.4,607.1c0,0-18.4-44.5-64-40.3c0,0-65-74.7-136.6-11.9c0,0-74.8-17-130.8,11.7
			c-37.3,19.1-49.9,39.6-49.9,39.6L1981.4,607.1z"/>
	</g>
	<g>
		<path class="st2" d="M1731.7,463.4c0,0-21.1-54.7-73.7-49.5c0,0-74.8-91.8-157.2-14.5c0,0-86.1-20.8-150.6,14.5
			c-43,23.5-57.5,48.7-57.5,48.7L1731.7,463.4z"/>
	</g>
	<g>
		<g>
			<g>
				<g>
					<path class="st3" d="M991.1,998.6l-102.2,0l2.9-10.2c23.9-84.1,31.8-418.5,31.9-421.9l-3.2-7.9l43.4,0l-3.2,7.8
						c8.3,247.3,38.1,421.3,38.3,423.1l1.4,9.2L991.1,998.6z"/>
				</g>
			</g>
		</g>
		<g>
			<g>
				<rect x="874.5" y="995.4" class="st3" width="141.7" height="22.5"/>
			</g>
		</g>
		<g>
			<g>
				<rect x="819.2" y="1209.1" class="st3" width="252.2" height="25"/>
			</g>
		</g>
		<g>
			<g>
				<g>
					<path class="st3" d="M891.7,1011.2c0,0-28.1,142.3-53.8,197.9l53.7,0c0,0,32.5-121.7,37.5-197.9L891.7,1011.2z"/>
				</g>
			</g>
			<g>
				<g>
					<path class="st3" d="M999.1,1011.2c0,0,28,142.4,53.6,197.9l-53.7,0c0,0-32.4-121.8-37.4-197.9L999.1,1011.2z"/>
				</g>
			</g>
		</g>
		<g>
			<g>
				<g>
					<polygon class="st3" points="818.8,1234 722.2,1408.8 778.8,1408.8 873.9,1234 					"/>
				</g>
			</g>
			<g>
				<g>
					<polygon class="st3" points="1071.8,1234.1 1168.4,1409 1111.7,1408.9 1016.7,1234.1 					"/>
				</g>
			</g>
			<g>
				<g>
					<path class="st3" d="M1096.5,1347.7l-18.8-1.1c-17.8-43.8-70.2-75.6-132.1-75.6c-54.8,0-102.2,24.9-124.7,61l-22.9-1.3
						c0,0,58.1-109.2,60.6-109.2c2.5,0,179.8,3.2,179.8,3.2L1096.5,1347.7z"/>
				</g>
			</g>
		</g>
		<g>
			<g>
				<rect x="911.5" y="1047.4" class="st3" width="64.3" height="14.4"/>
			</g>
		</g>
		<g>
			<g>
				<polygon class="st3" points="920.4,558.4 928.6,531.4 955.5,531.5 963.6,558.4 				"/>
			</g>
		</g>
		<g>
			<g>
				<rect x="940.4" y="461.7" class="st3" width="3.2" height="79.3"/>
			</g>
		</g>
		<g class="st4">
			<path class="st3" d="M2487.1,1431.7l0.1-351.4c0,0-142.7-99.2-370.8-74.1l0,29.3l-144.1,0l-0.1,396L2487.1,1431.7z"/>
		</g>
		<g>
			<path class="st3" d="M1670.1,1027.2l-0.1,404.3l538.1,0.2l-47.7-126.7l10.4-8.5l0-36.2l-13.2,0l0-25.8l-65.5,2.7l-40.1-119.8
				l0-33.7l-53.3,0l-35-115.4l0-30.3l-26.8,0l-14.7-91.2l-20.6-6.6c0,0-120.6-16.8-231.4,47.3L1670.1,1027.2z"/>
		</g>
		<g>
			<path class="st1" d="M1746.3,970.3l-29.3,0l0-28.2c0-8.1,6.6-14.7,14.7-14.7l0,0c8.1,0,14.7,6.6,14.7,14.7L1746.3,970.3z"/>
		</g>
		<g>
			<path class="st1" d="M1831.8,1079.4l-44.6,0l0-42.9c0-12.3,10-22.3,22.3-22.3l0,0c12.3,0,22.3,10,22.3,22.3L1831.8,1079.4z"/>
		</g>
		<g>
			<path class="st1" d="M1761.6,1079.3l-44.6,0l0-42.9c0-12.3,10-22.3,22.3-22.3l0,0c12.3,0,22.3,10,22.3,22.3L1761.6,1079.3z"/>
		</g>
		<g>
			<path class="st1" d="M1831.8,1187.1l-44.6,0l0-42.9c0-12.3,10-22.3,22.3-22.3l0,0c12.3,0,22.3,10,22.3,22.3L1831.8,1187.1z"/>
		</g>
		<g>
			<path class="st1" d="M1761.5,1187l-44.6,0l0-42.9c0-12.3,10-22.3,22.3-22.3l0,0c12.3,0,22.3,10,22.3,22.3L1761.5,1187z"/>
		</g>
		<g>
			<path class="st3" d="M2366.9,1317.5l-58,0l0-55.7c0-16,13.1-29,29-29h0c16,0,29,13.1,29,29L2366.9,1317.5z"/>
		</g>
		<g>
			<path class="st3" d="M2458.6,1317.6l-58,0l0-55.7c0-16,13.1-29,29-29l0,0c16,0,29,13.1,29,29L2458.6,1317.6z"/>
		</g>
		<g>
			<path class="st3" d="M2366.9,1183.4l-58,0l0-55.7c0-16,13.1-29,29-29l0,0c16,0,29,13.1,29,29L2366.9,1183.4z"/>
		</g>
		<g>
			<path class="st3" d="M2458.6,1183.4l-58,0l0-55.7c0-16,13.1-29,29-29l0,0c16,0,29,13.1,29,29L2458.6,1183.4z"/>
		</g>
		<g>
			<g>
				<rect x="1365.8" y="752.5" class="st5" width="201.8" height="135.7"/>
			</g>
			<g>
				<path class="st1" d="M1415.9,820.3c0-28,22.7-50.7,50.8-50.7c28,0,50.7,22.7,50.7,50.8c0,28-22.7,50.7-50.8,50.7
					C1438.6,871.1,1415.9,848.3,1415.9,820.3z"/>
			</g>
			<g>
				<rect x="1386.1" y="689.5" class="st3" width="161" height="62.9"/>
			</g>
			<g>
				<polygon class="st5" points="1386.1,689.5 1416,604.2 1517.5,604.3 1547.1,689.5 				"/>
			</g>
			<g>
				<rect x="1416" y="519.9" class="st3" width="101.7" height="84.4"/>
			</g>
			<g>
				<path class="st5" d="M1463.8,394.4c0,0-8.9,83.3-50.9,125.4l108.1,0c0,0-35-28.8-47.6-125.4L1463.8,394.4z"/>
			</g>
			<g>
				<g>
					<path class="st1" d="M1449.1,592.5l-11.9,0l0-36.1c0-3.1,2.6-5.7,5.7-5.7h0.5c3.1,0,5.7,2.5,5.7,5.7L1449.1,592.5z"/>
				</g>
				<g>
					<path class="st1" d="M1472.2,592.5l-11.9,0l0-36.1c0-3.1,2.6-5.7,5.7-5.7h0.5c3.1,0,5.7,2.6,5.7,5.7L1472.2,592.5z"/>
				</g>
				<g>
					<path class="st1" d="M1496.6,592.5l-11.9,0l0-36.1c0-3.1,2.6-5.7,5.7-5.7l0.5,0c3.1,0,5.7,2.5,5.7,5.7L1496.6,592.5z"/>
				</g>
			</g>
			<g>
				<g>
					<path class="st1" d="M1475.2,741.9l-14.8,0l0-31.6c0-3.3,2.7-6,6-6l2.7,0c3.3,0,6,2.7,6,6L1475.2,741.9z"/>
				</g>
				<g>
					<path class="st1" d="M1500.1,741.9l-14.8,0l0-31.6c0-3.3,2.7-6,6-6l2.7,0c3.3,0,6,2.7,6,6L1500.1,741.9z"/>
				</g>
				<g>
					<path class="st1" d="M1524,741.9l-14.8,0l0-31.6c0-3.3,2.7-6,6-6l2.7,0c3.3,0,6,2.7,6,6L1524,741.9z"/>
				</g>
				<g>
					<path class="st1" d="M1448.2,741.9l-14.8,0l0-31.6c0-3.3,2.7-6,6-6l2.7,0c3.3,0,6,2.7,6,6L1448.2,741.9z"/>
				</g>
				<g>
					<path class="st1" d="M1421.2,741.9l-14.8,0l0-31.6c0-3.3,2.7-6,6-6l2.7,0c3.3,0,6,2.7,6,6L1421.2,741.9z"/>
				</g>
			</g>
			<g>
				<rect x="1372.4" y="888.2" class="st3" width="184.4" height="38.3"/>
			</g>
			<g>
				<rect x="1372.3" y="926.5" class="st3" width="184.4" height="533.9"/>
			</g>
		</g>
		<g>
			<path class="st6" d="M330.9,1509.5c0,0-20.7-149.1,153.9-195.9c174.6-46.8,218.8,89.2,218.8,89.2s59.8-33.4,113.3-9.3
				c0,0,76.2-70.7,219.2-43.6c0,0,53.1-117.3,195.7-109.2c89.5,5.1,169.9,109.4,169.9,109.4s84.6-116.8,236.4-15.1
				c0,0,76.8-45.1,152,0.1c0,0,66.7-22.6,106.4-4.5c0,0,99.9-24,155.5,55.7c0,0,135.7-40.7,228.6,23.6c0,0,32.7-19.6,70.9-12.8
				c0,0,46.2-22.8,95.3,0c49.2,22.9,45.1,69,45.1,69s68.6-12.6,74.7,46.6L330.9,1509.5z"/>
		</g>
		<g>
			<rect x="1467.1" y="350.7" class="st5" width="3" height="56.6"/>
		</g>
		<g>
			<path class="st5" d="M1463.2,350.7c0-3,2.4-5.4,5.4-5.4c3,0,5.4,2.4,5.4,5.4c0,3-2.4,5.4-5.4,5.4
				C1465.6,356.1,1463.2,353.7,1463.2,350.7z"/>
		</g>
	</g>
	<g>
		<path class="st2" d="M1831.6,487.9c0,0,9.6-23.7,32.5-21.1c0,0,33.3-39.6,68.7-5.3c0,0,37.7-8.5,65.6,7.4
			c18.6,10.6,24.8,21.7,24.8,21.7L1831.6,487.9z"/>
	</g>
	<g>
		<path class="st2" d="M627.1,611.6c0,0,9.7-24.1,33-21.4c0,0,33.8-40.1,69.7-5.3c0,0,38.3-8.6,66.6,7.5c18.9,10.7,25.1,22,25.1,22
			L627.1,611.6z"/>
	</g>
	<g>
		<g>
			<path class="st7" d="M1268.9,912.7c0,0-60.9-12.6-98.4,13.6c-27.4,19.2-17.4,198.8,9.1,207.9s69.3,0.6,69.3,0.6L1268.9,912.7z"/>
		</g>
		<g>
			<path class="st8" d="M1433.2,1017.7c0,0,1.3-12.4,4.1-15.9c2.8-3.5,6.1-13.4,8.5-11.8c2.4,1.6-0.9,8.6,1,10.9
				c2,2.3,21.9-5.1,23.5-2.4c1.7,2.7,2,11.8-5.1,15.4c-7.1,3.6-23.9,11.2-30.1,14.5C1431,1030.6,1433.2,1017.7,1433.2,1017.7z"/>
		</g>
		<g>
			<path class="st8" d="M1302,939.1c0,0-1,29.1,7.2,43.1s71.5,75.7,89.2,83.7c17.7,8,10.5-40.8,4.9-44.9
				C1397.7,1017,1340.9,916.7,1302,939.1z"/>
		</g>
		<g>
			<g>
				<path class="st9" d="M1393.3,1030.3c0,0-19.8,33.7-38.1,45.3c-1.4,0.9-2.9,1.6-4.6,2.2c-20.4,7.7-59.2-2.3-59.2-2.3l-5.2-13.6
					c0,0,15.4-4.6,34.8-7.6s38.9-62.2,59.3-74.5c9.5-5.7,12.1,28.4,12.8,43.5C1393.2,1027.5,1393.3,1030.3,1393.3,1030.3z"/>
			</g>
			<g>
				<path class="st10" d="M1393.3,1030.3c0,0-19.8,33.7-38.1,45.3c-1.4,0.9-2.9,1.6-4.6,2.2c0.6-0.6,19.6-20.7,20.6-33
					c1-12.6,10.2-26.2,19.4-24.2c1.2,0.3,2,1.2,2.5,2.7C1393.2,1027.5,1393.3,1030.3,1393.3,1030.3z"/>
			</g>
			<g>
				<path class="st7" d="M1435.3,921.5c0,0-16.8,9.9-6.5,29.1c0,0-14.7-2.7-17.9-7.1c0,0,0.4,1.8,0.9,2.8c0,0-13.5-3.1-17.9-8.7
					c-4.4-5.6,17.3-73.2,52.4-55.7c0,0,32.1,6,19.5,41.7c-12.6,35.7-0.7,38.8-0.7,38.8s-3.7,0.8-5.3,0.3c0,0-2.1-1.5-2.2-2.9
					c0,0-0.1,2.1,0.4,3c0,0-13.2-2.2-18.3-8.7C1434.5,947.4,1431.5,928.5,1435.3,921.5z"/>
			</g>
			<g>
				<path class="st8" d="M1411,978.9C1411,978.9,1411,978.9,1411,978.9C1410.9,978.9,1410.9,978.9,1411,978.9z"/>
			</g>
			<g>
				<path class="st8" d="M1451.9,967.2c0.5,4.4,1.1,8.4,1.3,10.3c0.6,4.2-39.6,1.5-42.2,1.5c1.8-0.8,7.2-18.1,9-24.7
					c2.1-8,3.7-16.6,3.7-16.6l28.4,1.8l1.7,0.1c-1,3.9-1.8,7.5-2.3,10.9c-0.1,0.5-0.1,0.9-0.2,1.4
					C1450.8,955.6,1451.3,961.7,1451.9,967.2z"/>
			</g>
			<g>
				<path class="st7" d="M1419.8,934.7c0,0-4.6-14.6-3.7-25.8c0.7-8,12.1-35.2,39.4-23.6c0,0,8,3,14.4,10.3
					c5.1,5.8,11.6,17.2-4.9,39.2l-4.8,7.7L1419.8,934.7z"/>
			</g>
			<g>
				<path class="st11" d="M1451.9,967.2c-19.9-5.8-28.3-28.8-28.3-28.8c8.4,0.3,19.3,6.1,27.9,12c-0.1,0.5-0.1,0.9-0.2,1.4
					C1450.8,955.6,1451.3,961.7,1451.9,967.2z"/>
			</g>
			<g>
				<path class="st8" d="M1453.3,959.1c0,0-35.9-8.9-30-31.1c5.9-22.3,5.2-38.4,28.4-33.7c23.2,4.7,25.3,14.4,25.2,22.3
					C1476.7,924.5,1462.8,960.9,1453.3,959.1z"/>
			</g>
			<g>
				<path class="st7" d="M1479,904c-10.7-16.9-23.4-18.7-23.5-18.7c-9.1-6.1-21.2,8.9-21.2,8.9c-6.6,15.3-20.6,21.4-20.6,21.4
					s5.4,5.7,21.5,5.9c4.9,0,9.9-2.1,14.4-5.2c-8.8,8.6-19,13.7-19,13.7c19.2-3.4,32.7-24.6,35.1-28.6c2.6,4.2,5.2,9,5.3,12
					c0.3,6.1-2,18,1.5,18.5C1472.6,932,1486.2,915.3,1479,904z"/>
			</g>
			<g>
				<path class="st0" d="M1447.7,944.9c0,0,0.4,3.4,2.6,4.2c2.2,0.8,7.9,2.3,8.5,1.9c0.6-0.4,2.7-3,2.7-3S1452.5,944.5,1447.7,944.9
					z"/>
			</g>
			<g>
				<path class="st8" d="M1434.2,1285.3c-0.5,1.9-0.9,3.8-1.4,5.7c-2.7,11.2-5.2,21.7-6.8,30.4c-2.1,11.4-2.6,19.8,0.1,23.3
					c11.1,14.6,0,130.6,0,130.6l-12.7,13.1c0,0-22-114.5-28-132.4c-2.7-8.2-6.7-43-10.2-78.5c-0.2-1.8-0.4-3.6-0.5-5.3
					c-0.6-6.2-1.2-12.4-1.7-18.5c-3.1-33.6-5.5-62.4-5.5-62.4s23.4-16.4,44.6-18.3c12.5-1.1,24.3,2.9,30.1,18.3
					C1450.7,1213.6,1442.1,1252.2,1434.2,1285.3z"/>
			</g>
			<g>
				<path class="st11" d="M1430.6,1293c-16.4-17.8-27.1-43.4-47.1-79.2c-1.7-18.2,12.7-35.5,28.7-40.9c12.5-1.1,24.3,2.9,30.1,18.3
					C1450.7,1213.6,1438.6,1259.9,1430.6,1293z"/>
			</g>
			<g>
				<path class="st9" d="M1483.2,983.6c-5.2-7.2-22.3-7.4-26.1-7.6c-2.8-0.2,2.4-11.9-2.5-13.2c-4-1.1-9.2,3.7-13.3,4.8
					c-8.3,2.2-20-3.6-24.2-4.9c-2.1-0.7-4.7,3.1-4.4,5.3c0.4,2.6-19.4,3.1-32.4,11.9c-7.3,4.9-5.2,45.5-5.1,45.5
					c-1.3,30.8,7.4,76.3,7.4,76.3c34.7,20.9,76.7,2.6,76.7,2.6s-0.8-4-0.6-5.1c0.1-0.9,0.9-7.6,1-8.3
					C1460,1089.1,1487.4,989.5,1483.2,983.6z"/>
			</g>
			<g>
				<path class="st8" d="M1582.9,1392.9l-4,16.5c0,0-115.5-59.7-130.4-71.2c-6-4.6-13.9-29.6-21.3-57.9
					c-10.9-42.2-20.6-91.6-20.6-91.6s16.2-62.3,59.5-24.1c25.9,22.8,21.9,66.8,19,100.9c-1.9,22.9-3.3,41.5,5.3,46.3
					c16.8,9.4,66,52.5,81.6,82.2L1582.9,1392.9z"/>
			</g>
			<g>
				<path class="st12" d="M1520.3,1229.4c0,0-11.3,3.2-28.2,6.8c-34.9,7.4-94,16.2-127.8,1.1c0,0,2.2-49.8,8.1-87.4
					c4.7-30.1,9.1-49.8,9.1-49.8s31.4,7.9,63.4,1.8c0.3-0.1,0.6-0.1,0.9-0.2c4.2-0.8,8.4-1.9,12.5-3.3c0,0,24.1,34.6,36.5,58.6
					C1503.4,1173.6,1520.3,1229.4,1520.3,1229.4z"/>
			</g>
			<g>
				<path class="st13" d="M1605.7,1399.3c0,0,0,0-0.1,0c-0.5-0.1-2.9-0.9-4.5-4.7c-1-2.5-1.3-4.5-2.3-7l-3.9-6.7
					c-4.1-5.4-5.5-4.1-5.5-4.1s-1.1,1.4-2.6,3.2c-2.6,3-6.6,7.1-9.4,8.2c-2,0.8-3.3,2-4,3.2c-1,1.5-1.2,2.8-1.2,2.8s8.4,1.5,7.6,5.6
					c-1.4,8-1.1,9.4-0.9,9.7l0,0.1c0,0,14.3,7.5,18.8,9c8.1,2.6,12.4,8.1,15,10.7c1.1,1,2.5,1.5,4,1.3c2.1-0.3,4.9-1,5.5-2.3
					L1605.7,1399.3z"/>
			</g>
			<g>
				<path class="st13" d="M1438.8,1494.2l-6.8,3.7c-2.5,0.9-4.5,1.1-7.1,2.1c-3.8,1.5-6.5,4.3-6.6,4.9c-1.9,7.8-4.8,7.6-4.8,7.6
					l-27.4,0c-1.3-0.6,0.9-6.2,2-7.2c2.6-2.6,10.4-1.3,13.2-9.3c1.6-4.5,9.5-18.6,9.5-18.6l0.1,0c0.3-0.1,1.7-0.4,9.7,1.2
					c4.1,0.8,5.8-7.5,5.8-7.5s1.3,0.3,2.7,1.3c1.1,0.8,2.3,2.1,3,4.1c1,2.9,5,7,7.9,9.7c1.8,1.6,3.1,2.7,3.1,2.7
					S1444.3,1490.2,1438.8,1494.2z"/>
			</g>
			<g>
				<g>
					<path class="st10" d="M1414.9,1109.3c-23.3,0-32.9-8-33.6-8.6l-1-12.5c0.2,0.2,31,20.5,79.4,2.5l-1,8.3
						C1440,1106,1427,1109.3,1414.9,1109.3z"/>
				</g>
			</g>
			<g>
				<path class="st8" d="M1459.5,980.9c0,0,79.7,2.7,95.2-1c15.5-3.7,53.3-24.2,53.3-24.2l5.6,10.5c0,0-37.8,34.1-58.9,40.3
					c-21.1,6.2-91.1,12.4-91.1,12.4L1459.5,980.9z"/>
			</g>
			<g>
				<path class="st14" d="M1612,978l-11.2,0c-2.2,0-4-1.8-4-4l0-39.4c0-2.2,1.8-4,4-4l11.2,0c2.2,0,4,1.8,3.9,4l0,39.4
					C1615.9,976.2,1614.2,978,1612,978z"/>
			</g>
			<g>
				<path class="st15" d="M1615.5,978l-11.2,0c-2.2,0-4-1.8-3.9-4l0-39.4c0-2.2,1.8-4,4-4l11.2,0c2.2,0,4,1.8,4,4l0,39.4
					C1619.4,976.2,1617.7,978,1615.5,978z"/>
			</g>
			<g>
				<path class="st8" d="M1623.5,944.6c0,0-9.8-8.9-12.7-5.6c-2.9,3.4,4.8,21.9,8.4,22.6C1622.7,962.2,1627.3,952.3,1623.5,944.6z"
					/>
			</g>
			<g>
				<path class="st0" d="M1593.2,934.3c0,0,7.7,0.8,8.6-3.5c0.9-4.3,0.9-10.3,0.9-10.3s0.4,12.5,3.6,13.6c3.2,1.1,7,1.1,7,1.1
					s-5.8,1-7.6,2.1c-2,1.3-3,5.1-2.9,7.3c0,0-0.3-5.1-3-7.6C1598.9,936.1,1595.7,934.9,1593.2,934.3z"/>
			</g>
			<g>
				<path class="st9" d="M1461.5,976.2c0,0,58.7,7.4,72.3,3.7c13.6-3.7,51.7-18,57.4-15.4c0,0,5.1,7.6,2.8,18.1
					c0,0-19.6,21-38.3,26.7c-18.6,5.7-77.8,10.5-82.6,29.2l-16.7-9.8c0,0-7.9-44.3-6.8-45.1C1450.9,982.9,1461.5,976.2,1461.5,976.2
					z"/>
			</g>
		</g>
		<g>
			<path class="st7" d="M1355.6,1510l-76.5,0c-5.5-3.7,1.5-40.1,1.5-40.1s20.9-7.9,24.5,8.2c3.6,16.1,26.6,21.2,38.8,23.2
				C1352.1,1502.7,1354.8,1507.3,1355.6,1510z"/>
		</g>
		<g>
			<path class="st9" d="M1333.3,1130.2c0,0-1.6,51.9-5.6,103.5c-5.5,70.1-20.4,243.8-20.4,243.8s-9.7,8.3-31.2,3.7
				c0,0-17.7-58.1-23.5-125.2c-0.1-1-0.2-2.1-0.3-3.1c-0.1-1.1-0.2-2.3-0.3-3.4c-2.5-34.9-5.8-89.2-8.4-134.6
				c-2.6-45.2-4.5-81.6-4.5-81.6L1333.3,1130.2z"/>
		</g>
		<g>
			<path class="st10" d="M1293.9,1175.8l-41.4,180.2c-0.1-1-0.2-2.1-0.3-3.1c-0.1-1.1-0.2-2.3-0.3-3.4c-2.5-34.9-5.8-89.2-8.4-134.6
				l1.6-7.8L1293.9,1175.8z"/>
		</g>
		<g>
			<path class="st7" d="M1242.1,1510l-76.5,0c-5.5-3.7,1.5-40.1,1.5-40.1s20.9-7.9,24.5,8.2c3.6,16.1,26.6,21.2,38.8,23.2
				C1238.7,1502.7,1241.3,1507.2,1242.1,1510z"/>
		</g>
		<g>
			<path class="st9" d="M1314.4,1124.4c0,0-54.7,136-72.2,187.5c-12.5,36.7-47.6,165.5-47.6,165.5s-15.3,4.6-28.1-4.3
				c0,0-7-128,13.4-168.7c16.5-32.8,3.5-204.7,60.3-206.2S1314.4,1124.4,1314.4,1124.4z"/>
		</g>
		<g>
			<path class="st12" d="M1331.1,1042.7c-2.9,47.2,5.1,95.9,5.1,95.9c-17.1,18.2-116.3,26.1-136,10.8c-4.6-3.6,10.4-29.9,12.7-82.6
				c1.4-31.9-2.6-58-3.3-70.7c-2.6-45.8-7.3-55.5,2.4-61.3c10.5-6.3,33.9-12.1,59-14.8c8.3-0.9,19.8,0.1,31.5,2.5
				c4,0.8,8,1.8,11.9,2.9c12,3.5,23.1,8.4,30,14.2c9.1,7.8,27.6,34.7,27.6,34.7s-24.8,33.6-37,39.4c-0.2,0.1-0.4,0.2-0.6,0.2
				C1332.7,1023.5,1331.7,1033.2,1331.1,1042.7C1331.1,1042.7,1331.1,1042.7,1331.1,1042.7z"/>
		</g>
		<g>
			<path class="st8" d="M1240.1,938.4c0,0-28.9,3.2-41.6,13.4c-12.7,10.2-67.6,78.6-73,97.3c-5.4,18.7,69,62.5,69,62.5l5.4-13.5
				c0,0-35.5-42.9-32.3-49C1170.9,1042.9,1267.8,973.7,1240.1,938.4z"/>
		</g>
		<g>
			<path class="st12" d="M1257.6,920c0,0-35.4,4.5-53.1,18.8c-8.2,6.6-38.2,42.9-38.2,42.9s7.9,33.2,49.5,37.4
				c42.3,4.2,40.5-65.4,40.5-65.4L1257.6,920z"/>
		</g>
		<g>
			<path class="st8" d="M1249.6,921.6c-1.1,2-0.8,4.3,0.6,6c4.2,5,15.4,13.1,41.4,8.1c8.9-1.7,10.2-8.5,3.7-14.4
				c-1.6-1.4-2.2-10.8-2.5-14.6c-0.5-8.7-1.4-13.5-1.4-13.5l-20-9.8l-19-9.4C1258.6,900.8,1252.7,916,1249.6,921.6z"/>
		</g>
		<g>
			<path class="st16" d="M1256.6,892.4c0,0,13.4,12.9,36.3,14.3c-0.5-8.7-1.4-13.5-1.4-13.5l-20-9.8L1256.6,892.4z"/>
		</g>
		<g>
			<path class="st8" d="M1299.5,892.4c0,0-41.9,15.3-51.1-10.5c-9.1-25.8-20.7-41.3,5.7-52.1c26.4-10.9,35.1-2.8,40.3,5.1
				C1299.6,842.6,1310.2,887.7,1299.5,892.4z"/>
		</g>
		<g>
			<path class="st17" d="M1222.8,832.4c-0.5-0.4-1.5-0.6-3.5-0.3c0,0,1.4-1.3,3.6-1.8c-0.1-2.9,0.4-8.1,5-10.3c0,0-2.3,1.9-2.1,4.9
				c4.5-6.8,15.2-17.4,49-14.9c41.3,3,33.1,20.3,25.6,25.9c-5.4,4-15.9,0.3-26.3,3.2c-10.4,2.8-9.5,18.5-12.7,21.2
				c-3.2,2.8-2.5-1.2-7.7-2.5c-5.3-1.3-4.2,6.8-1.8,11.8c2.4,4.9-3,13.1-3,13.1s0,0-8.1-6c-8.1-6-20.3-35.4-18.4-42.5
				C1222.4,833.7,1222.6,833,1222.8,832.4z"/>
		</g>
		<g>
			<path class="st0" d="M1301.2,874.2c0,0-0.9,5.4-6.6,6.8c-5.7,1.4-10-2.3-10-2.3S1293.5,873.1,1301.2,874.2z"/>
		</g>
		<g>
			<path class="st8" d="M1459.1,1080.9c0,0-18.5,9.6-15.1,17.4s15.6,5.4,19.1,0C1466.5,1092.9,1463.1,1079.4,1459.1,1080.9z"/>
		</g>
		<g>
			<path class="st8" d="M1200,1098.1c0,0,17.4-6.7,23.8-2.7c6.5,4.1,14.3,21.1,9.2,21.8c-5.1,0.7-16.9-7.5-19.7-5.6
				c-2.8,1.9-11.4,10.4-18.7,0L1200,1098.1z"/>
		</g>
		<g>
			<path class="st7" d="M1224,925.3c0,0,33.6,65.6-11.7,103.3l-0.4,17.9c0,0,27.5-14.4,37-45.2c11.5-37.5-6.5-80.5-6.5-80.5
				L1224,925.3z"/>
		</g>
		<g>
			<path class="st7" d="M1331.1,1042.6C1331.1,1042.7,1331.1,1042.7,1331.1,1042.6c-3.8-37.7-24.9-108.1-28.6-120.1
				c4,0.8,8,1.8,11.9,2.9c12.1,30.1,18.4,55,20.3,83.9c0.1,1.5,0.2,3,0.2,4.5C1335.1,1029.1,1331.4,1041.9,1331.1,1042.6z"/>
		</g>
	</g>
	<g>
		<g>
			<path class="st17" d="M1954,954.8c0,0-7.8,16.3-28.6,10.2c-20.8-6.1-36.1,13.5-25.2,21.9c10.9,8.4-23.5,7.7-30.3,25.4
				c-6.8,17.7-10.9,43.6,26.3,40.7c37.3-2.9,62.1-79.4,62.1-79.4L1954,954.8z"/>
		</g>
		<g>
			<path class="st10" d="M2002.8,899c4.1,16.6-8.4,34.1-28,38.9c-19.6,4.8-38.7-4.7-42.9-21.4c-4.1-16.6,8.4-34.1,28-38.9
				C1979.5,872.8,1998.7,882.4,2002.8,899z"/>
		</g>
		<g>
			<path class="st9" d="M2044.4,903.1c3.1,12.6-27.4,30.9-68.1,40.9c-40.7,10.1-76.2,8-79.3-4.5c-3.1-12.6,27.4-30.9,68.1-40.9
				C2005.8,888.5,2041.3,890.5,2044.4,903.1z"/>
		</g>
		<g>
			<path class="st10" d="M1984.3,934.1c-3.3,1.1-6.8,2.1-10.5,3c-17.3,4.3-32.9,4.7-40.4,1.7c-2.5-1-4.2-2.4-4.6-4.2
				c-0.6-2.3,0.9-5,4-7.8c6.3-5.7,19.2-11.6,34.7-15.4c14.7-3.6,28.2-4.5,36.6-2.8c4.7,1,7.8,2.8,8.4,5.4
				C2014,919.9,2002,928.3,1984.3,934.1z"/>
		</g>
		<g>
			<path class="st18" d="M2169.5,907.8c0,0,61-12.6,98.4,13.7c27.4,19.2,17.3,198.8-9.3,207.9c-26.5,9.1-69.3,0.5-69.3,0.5
				L2169.5,907.8z"/>
		</g>
		<g>
			
				<rect x="1849.6" y="1135.2" transform="matrix(0.2577 -0.9662 0.9662 0.2577 294.6404 2658.0938)" class="st13" width="55.4" height="4.1"/>
		</g>
		<g>
			<g>
				<path class="st8" d="M2154.3,942.6c8.9,2.3,16.7,0.7,23.1-2.3c5.8-2.7,10.4-6.7,13.6-10c3.3-3.4,5-6,5-6s-0.4-0.3-1-1
					c-3.3-3.4-13.8-16.1-16.1-40c0-0.3-2.2,0.7-5.5,2.3c-9.7,4.9-29,15.6-29.9,16.1c0,0,0,0,0,0s0.9,4.9,2.1,13.8
					c0.1,0.8,0.2,1.6,0.3,2.5c0.1,1,0.3,2.2,0.4,3.3C2147.5,930.7,2154.3,942.6,2154.3,942.6z"/>
			</g>
			<g>
				<path class="st11" d="M2145.6,915.6c16.2-0.1,33.7-28.2,33.7-28.2c-2-0.8-4-1.4-6-1.7c-9.7,4.9-29,15.6-29.9,16.1c0,0,0,0,0,0
					S2144.4,906.7,2145.6,915.6z"/>
			</g>
			<g>
				<g>
					<path class="st8" d="M2136.9,902.1c0,0,6.9,0.8,15.2-0.1c12.2-1.2,27.4-5.8,28.9-21.2c2.5-25.9,9.6-42.8-16.9-46.9
						c-14.2-2.2-22.5-0.5-27.6,2.8c-4.5,2.9-6.5,7-7.9,10.9C2125.6,856.1,2126.1,900.2,2136.9,902.1z"/>
				</g>
				<g>
					<path class="st17" d="M2123.3,833.6c-5.1,2.6-5.6,11.8,0.5,14.1c10.8,4.2,21.6-1,26.2-0.1c6.6,1.2,10.1,11,11,14.2
						c0.9,3.2,1.9,5.8,9.6,1.9c1.3-0.6,2.2-0.8,3-0.5c3.9,1.2,1.8,11.9,1,14.4c0,0-0.2,7.4,4.7,9.8c0.6,0.3,9.6,1.9,22.2-32.9
						c2-5.5,2.4-16.8-4.8-25.9c-7.2-9.1-25-18.3-42.7-14.1C2140,817.8,2134.2,828.1,2123.3,833.6z"/>
				</g>
				<g>
					<path class="st0" d="M2133,886.6c0,0,0.2,3.2,8,4c0,0,6.6,0.6,6.9-2.8C2148,887.8,2142.1,884.4,2133,886.6z"/>
				</g>
			</g>
		</g>
		<g>
			<path class="st7" d="M1866.6,1461.9c0,0-10.4,9.5-8.3,16.2c2,6.7,11.4,11.2,12.6,19.4s6.3,12.7,10.9,12.7c4.5,0,21.7,0,21.7,0
				s3.3-5.8-4.7-7.5c-8.1-1.7-11.1-11.4-10.6-20.3s-0.8-20.9-0.8-20.9l-17.2-4L1866.6,1461.9z"/>
		</g>
		<g>
			<path class="st7" d="M1954.2,1466.9c0,0-3.7,40,0.8,42.3l58.2-0.1c0,0,0-6.7-9.3-8.2c-9.3-1.5-25.8-7-28.5-19.2
				C1972.6,1469.5,1954.2,1466.9,1954.2,1466.9z"/>
		</g>
		<g>
			<path class="st10" d="M2001.9,1137.3c0,0,16.8,52.2,17.8,70s-32.2,252.6-33.5,260.8c-1.3,7.7-10.9,12.6-10.9,12.6
				s-4.4,2.6-10.7,0.8c-8.7-2.5-11.5-5.4-11.5-5.4s-13-167.5-4.9-227.3c8.1-59.8,8.2-111.6,8.2-111.6L2001.9,1137.3z"/>
		</g>
		<g>
			<path class="st9" d="M1930.8,1135.7c0,0-25.6,34.3-28,57.5c-2.4,23.2-3.8,104.8-8.9,127.4c-5.1,22.6-23.8,66.2-23.8,136.8
				c0,0,1.9,4,7.9,6.2c1.9,0.7,4.5,1.4,7,1.9c4.9,1.1,10-1.3,12.3-5.8c12.6-25.4,52.9-107.4,55-124.4c1.5-12,14.2-91.8,41.9-138.5
				c6.7-11.2-4.1-55.9-4.1-55.9L1930.8,1135.7z"/>
		</g>
		<g>
			<path class="st17" d="M2007.1,913.9l-7.2,6.4l-14.3,12.7l-1.3,1.1l-10.1,9l-20.5,18.1c0,0-1.8-9.7-7.4-8
				c-5,1.6-10.8-4.7-12.9-14.5c-0.8-3.6-1.1-7.7-0.6-12c5.8-5.3,17.4-10.8,31.5-14.6c1.1-0.3,2.1-0.6,3.2-0.8
				c9-2.2,17.5-3.4,24.6-3.6c4.6-0.1,8.7,0.1,11.9,0.8c1.2,2,2.1,3.7,2.6,4.6C2007,913.7,2007.1,913.9,2007.1,913.9z"/>
		</g>
		<g>
			<path class="st8" d="M1978.6,1045.2c-36.2,3.6-42.1-55.4-39.9-55.2c4.4-2.6,12.1-14.4,16.3-33.9l1.6,0.7l26.5,11.5
				c0,0-2.6,8.8-4.5,17.3c-1.2,5.5-2.1,10.9-1.8,13.5c0.1,0.8,5.7,3.7,5.7,3.7C1982.8,1003.4,1988.3,1044.2,1978.6,1045.2z"/>
		</g>
		<g>
			<path class="st12" d="M2020.8,1070.6c4,22.5,1.9,136.9,1.9,136.9c-73,19.4-128.3-6.4-128.3-6.4c0-31.3,4-112.5,11.2-159.9
				c6.9-45.3,35.2-52.9,35.2-52.9c34.1,28.7,36.3,4.7,36.3,4.7c13.3,5.9,25.1,10.6,31.6,18.6
				C2028.3,1035.6,2020.1,1067,2020.8,1070.6z"/>
		</g>
		<g>
			<path class="st16" d="M1983.1,968.3c0,0-2.6,8.8-4.5,17.3c-15.4-3.7-20.4-20-22-28.8L1983.1,968.3z"/>
		</g>
		<g>
			<path class="st8" d="M1986.5,977.3c0,0-36.8-7.1-31.7-30.6c5.1-23.5,3.8-40.2,27.5-36.7c23.7,3.6,26.3,13.5,26.5,21.7
				C2008.9,940,1996.2,978.6,1986.5,977.3z"/>
		</g>
		<g>
			<path class="st17" d="M2005.1,948c-3.6-0.3-1.7-12.8-2.2-19.2c-0.2-2.8-1.6-5.9-3-8.5c-0.9-1.7-1.9-3.2-2.6-4.2
				c-0.7,1.4-4.9,9.2-11.7,16.9c-3.2,3.6-7,7.2-11.4,10.1c-3.6,2.4-7.5,4.3-11.8,5.3c0,0,10.2-5.9,18.8-15.4
				c-4.5,3.4-9.4,6-14.4,6.2c-16.3,0.8-22.1-4.8-22.1-4.8s13.2-6.8,19.6-22.2c1.1-0.3,2.1-0.6,3.2-0.8c9-2.2,17.5-3.4,24.6-3.6
				c2.2,1.1,4.5,2.7,6.8,4.7c2-1.1,4.8-1.8,7.7,0.7c1.3,1.1,2.6,2.8,3.9,5.3C2016.7,930.9,2005.1,948,2005.1,948z"/>
		</g>
		<g>
			<path class="st0" d="M1980,961.2c0.4,0.1,3,4.9,8.3,5.7c5.3,0.8,6.7-3.3,6.7-3.3s-3.2-1.7-6.4-2.2
				C1985.4,960.9,1980,961.2,1980,961.2z"/>
		</g>
		<g>
			<path class="st9" d="M2107.8,934.6c-29.8,14.7-42,98-54.9,133.5c-11.7,31.9,64.7,26.2,64.7,26.2S2135.4,921,2107.8,934.6z"/>
		</g>
		<g>
			<path class="st7" d="M2085.9,1509.2l74.6,0c5.3-3.6-1.4-39.1-1.4-39.1s-20.4-7.7-23.9,8c-3.5,15.7-26,20.7-37.8,22.6
				C2089.3,1502.1,2086.7,1506.5,2085.9,1509.2z"/>
		</g>
		<g>
			<path class="st7" d="M2196.6,1509.3l74.6,0c5.3-3.6-1.4-39.1-1.4-39.1s-20.4-7.7-23.9,8c-3.5,15.7-26,20.7-37.8,22.6
				C2200,1502.1,2197.4,1506.6,2196.6,1509.3z"/>
		</g>
		<g>
			<path class="st13" d="M2106.1,1147.6c0,0,3.3,41.9,7.3,92.2c5.3,68.3,19.7,237.8,19.7,237.8s9.5,8.1,30.5,3.7
				c0,0,17.9-58.4,23.3-125.2c0.1-1.1,0.2-2.2,0.3-3.3c5-67.9,12.8-210.9,12.8-210.9L2106.1,1147.6z"/>
		</g>
		<g>
			<path class="st7" d="M2105,1133.1c0,0,4.5,56.3,8.4,106.6l73.4,116.3c0.1-1.1,0.2-2.2,0.3-3.3c5-67.9,12.8-210.9,12.8-210.9
				L2105,1133.1z"/>
		</g>
		<g>
			<path class="st13" d="M2126.4,1133.1c0,0,53.2,132.7,70.3,183c12.1,35.8,46.3,161.5,46.3,161.5s14.9,4.5,27.4-4.2
				c0,0,12.8-128.4-12.9-164.6c-13.6-19.2-3.3-199.6-58.7-201.2C2143.4,1106,2126.4,1133.1,2126.4,1133.1z"/>
		</g>
		<g>
			<path class="st9" d="M2234.6,1127.5c0.6,4.6-1.5,8.1-4.7,10.5c-2.8,2.2-6.5,3.6-10,4.4c0,0-7,1.5-15.7,3
				c-8.6,1.4-19,2.9-26.3,2.8c-37.4-0.3-68.7-11.3-68.7-11.3c-7,0-10.3-10.9-11.4-26.1c-0.8-10.3-0.6-22.6,0-34.8
				c0.2-4,0.4-7.9,0.7-11.8c0.5-7.7,1.1-15.1,1.6-21.6c0.5-6.1,0.9-11.5,1.2-15.7c0,0-1-29.1-0.6-54.8c0.3-18.4,3-33.4,5.6-36.1
				c7.5-7.9,36.8-14.6,41.2-15.3c0.3,0,0.5-0.1,0.5-0.1c17.8,10,41.9-3.5,41.9-3.5c0.5,0.1,1.1,0.2,1.6,0.3c0.5-0.1,2.7,0,5.9,0.5
				c5.7,0.7,14.4,2.4,22,5.3c4.7,1.8,9,4.1,11.7,6.9c8.2,8.5,0.8,60.4,0.8,60.4c0.5,13.2,0.7,28.9,0.8,45c0,0.9,0,1.7,0,2.6
				c0,6.9,0,13.8,0,20.7c0,18.4,0.1,36.2,0.7,50.2c0,0.4,0,0.9,0.1,1.3C2233.6,1117,2234,1122.9,2234.6,1127.5z"/>
		</g>
		<g>
			<path class="st10" d="M2105.8,1032.7l2.7,34.8l-32.8-17.8c0,0,20.1-9.5,21.6-27.2c1.5-17.7,5.7-30.9,5.7-30.9L2105.8,1032.7z"/>
		</g>
		<g>
			<path class="st12" d="M2132.5,924.3c-6.4,20.5-23.4,76.5-26.7,108.3c0,0,0,0,0,0c-0.2-0.7-4-12.9-3.8-27.5c0-1.4,0.1-2.8,0.2-4.3
				c1.7-25.3,7.3-47.3,17.5-73L2132.5,924.3z"/>
		</g>
		<g>
			<path class="st8" d="M2132.9,1041.8c0,0,10.1-4.9,18-5.2s29-3.1,27.1,0c-1.9,3.1-15.5,3-15.5,5.2c0,2.3-1.8,11.7-11.5,11.1
				s-13.4,0-13.4,0L2132.9,1041.8z"/>
		</g>
		<g>
			<path class="st12" d="M1940.8,988.3c0,0-28.3,5-42.6,22.3c-14.3,17.3-28,81.1-28,81.1s13.7,10.6,42.8,2.2l35.7-57.3L1940.8,988.3
				z"/>
		</g>
		<g>
			<path class="st12" d="M2002.9,1006c0,0,55.1,42.7,72.8,43.6c17.7,0.9,63.3-12.9,63.3-12.9l2.4,18.4c0,0-41.5,44.5-66,42
				c-24.5-2.5-73.2-20-73.2-20L2002.9,1006z"/>
		</g>
		<g>
			<path class="st19" d="M1978.5,1093.7c0.8,3.1,27.6,135.8,27.6,135.8l33.4-11.2l33.6,14.9l37.2-18.7l51.7,14.1l42.8-27.2
				l0.1-162.8l-42.8,25.9l-51.7-10.8l-47.9,24.4l-42-13.6L1978.5,1093.7z"/>
		</g>
		<g class="st20">
			<polygon class="st21" points="2020.5,1064.3 2039.5,1218.2 2006.1,1229.4 1978.5,1093.7 			"/>
		</g>
		<g class="st20">
			<polygon class="st21" points="2062.5,1077.9 2073.1,1233.1 2110.4,1214.4 2110.4,1053.6 			"/>
		</g>
		<g class="st20">
			<polygon class="st21" points="2162.1,1064.4 2162,1228.5 2204.8,1201.2 2204.9,1038.5 			"/>
		</g>
		<g>
			<path class="st10" d="M2229.9,1138c-6-1.7-17.6-7.4-18.8-14.4c-2.7-16.7,13.7-48.2,10.7-63c-3-14.8-18.4-52.1-10.7-52.1
				c7.7,0,21.3,26.9,21.3,26.9c0.1,26.2,0,53.6,0.8,73.5c0,0.4,0,0.9,0.1,1.3c0.3,6.8,0.7,12.7,1.3,17.2
				C2235.2,1132.1,2233.1,1135.5,2229.9,1138z"/>
		</g>
		<g>
			<path class="st8" d="M2228.5,1113.8c0,0-7.8,4.7-11.4,11.9c-2.8,5.5-3,9.8-5.7,12c-1.1,0.9-17.7,5.6-17.8,3.3
				c-0.3-8.4,9.9-10.2,11.2-13.5c0-0.1,0-0.2,0-0.3l0-12.8c3-3.1,11.6-5.6,11.6-5.6l9.2-8.6L2228.5,1113.8z"/>
		</g>
		<g>
			<path class="st9" d="M2226.7,926.8c0,0,13.5,3.8,29.3,34.5c15.7,30.7,48.6,90.4,35,110.2c-7,10.2-47.1,49.1-67.2,49.4
				c0,0-9.6-14.9-7.1-19.1c0,0,36.5-33.5,26-50.2c-10.2-16.2-40.4-70.7-41.8-87.8C2199.6,946.9,2226.7,926.8,2226.7,926.8z"/>
		</g>
		<g>
			<path class="st13" d="M1948,1178.9l-4.3,42.6c-0.4,3.8-3.8,6.6-7.6,6.2l-76.1-7.7c-3.8-0.4-6.6-3.8-6.2-7.6l4.3-42.6
				c0.1-1.4,0.7-2.7,1.5-3.7c0.2-0.3,0.5-0.6,0.8-0.8c1.4-1.2,3.3-1.9,5.3-1.7l76.1,7.7c1.9,0.2,3.5,1.1,4.6,2.5
				c0.2,0.3,0.4,0.5,0.6,0.8C1947.8,1175.9,1948.2,1177.3,1948,1178.9z"/>
		</g>
		<g>
			<path class="st18" d="M1896.5,1140.1L1896.5,1140.1c0,0,35.5,4.1,59.9-2.8l-58.7-16.8L1896.5,1140.1z"/>
		</g>
		<g>
			<path class="st18" d="M1936,1114.5c0,0-16.6-21.6-12.9-36.7c3.7-15.1,5.9-23.4,2.9-21.5c-3.1,1.9-11.4,39.1-11.4,39.1
				s-2.2,3.8-8.1,3.7c-5.9-0.1,5.4,12.8,5.4,12.8L1936,1114.5z"/>
		</g>
		<g>
			<path class="st12" d="M1947,1174.6c-16.1,17.3-31.4,26-45.5,26c-2.1,0-4.2-0.2-6.3-0.6c-20.1-3.9-31.9-25.8-35.6-33.9
				c0.2-0.3,0.5-0.6,0.8-0.8c3.4,7.7,15,29.9,35,33.7c15.5,3,32.6-5.5,51-25.2C1946.7,1174,1946.9,1174.3,1947,1174.6z"/>
		</g>
		<g>
			<path class="st9" d="M1898.5,1205.1l-3.8-0.4c-0.7-0.1-1.3-0.7-1.2-1.5l0.7-6.9c0.1-0.7,0.7-1.3,1.5-1.2l3.8,0.4
				c0.7,0.1,1.3,0.7,1.2,1.5l-0.7,6.9C1899.9,1204.6,1899.2,1205.1,1898.5,1205.1z"/>
		</g>
		<g>
			<g>
				<path class="st13" d="M1935.3,1170.8l-4-0.8c0.2-1.2,22.4-121.7-8.1-176.7l4.1-1.7c13.1,23.7,18.6,61.4,15.9,111.3
					C1941.2,1140,1935.3,1170.5,1935.3,1170.8z"/>
			</g>
		</g>
		<g>
			<path class="st8" d="M1886.4,1054.9c0,0-19.5,42.6-9.7,62.8c7.1,14.6,91.2,21.6,91.2,21.6l2.6-9.5c0,0-61.8-25.7-62.3-32.3
				c-0.5-6.5,8.2-29.4,8.2-29.4S1896.4,1055.4,1886.4,1054.9z"/>
		</g>
		<g>
			<path class="st8" d="M1985,1155.3c-3.3-1.1-4.9-5.1-9.4-9.4c-5.9-5.5-14.8-7.3-14.8-7.3l-1.9-13.8l11.6,5c0,0,9.8-0.7,13.4,1.6
				c1.1,0.7,2.2,1.5,3.2,2.2l1.3,6.4c-0.3,0-0.4,0.2-0.3,0.9c0.1,0.3,0.3,0.6,0.7,1c2.3,2.6,11.6,2.3,14.1,10.3
				C2003.5,1154.5,1986.3,1155.8,1985,1155.3z"/>
		</g>
		<g>
			<path class="st12" d="M1870.2,1091.6c0,0,16.1,14,40.4,6.3l10.8-36.4l-36.2-13.2L1870.2,1091.6z"/>
		</g>
		<g>
			<path class="st12" d="M2232.5,1058.7c-7.6-4.4-32.8-20.8-42.4-50.6c-12.2-37.7,3.2-80.3,7.1-90.2c5.7,0.7,14.4,2.4,22,5.3
				c-6,12.3-33.4,75.7,13.3,114.8C2232.5,1044.9,2232.5,1051.9,2232.5,1058.7z"/>
		</g>
	</g>
	<g>
		<path class="st22" d="M2410.6,1510.4H2344c-3.6-3,2.5-9.9,8.8-10.4c2.7-0.2,6.2,0.4,10.2,1.2c0.9-12.2,6.2-66.9,25.9-64.7
			c22.2,2.5,0,24.1-6.3,36.9c-4.6,9.5-9.5,23.1-11.8,29.5c1.8,0.4,3.7,0.8,5.6,1.1c2.9-9,13.9-39.4,27.8-37.6
			c16.3,2.1,9.8,14.2-1.8,21.5c-8.5,5.3-18.9,12.9-23.9,16.5c4.2,0.7,8.6,1.1,13,1C2402.9,1505.3,2408.4,1508.6,2410.6,1510.4z"/>
	</g>
	<g>
		<path class="st22" d="M1016.8,1505.8c-3.5-5.5-13.9-19.6-27.9-17.7c-15.2,2,16.8,12,26.5,17.8c-2.2,0-4-0.1-5.4-0.6
			c-6.5-2.3-17.7,2.1-21.3,3.7h62.2c-0.4-1.5-1.5-3.9-4.4-5.7c-1-0.6-3.1-0.7-5.7-0.5c3.7-4.4,6.3-18.3-4-14.7
			c-7.5,2.6-7.5,11.1-6.8,16.2c-1.6,0.3-3.2,0.5-4.8,0.7c-3.1-15.8-14.1-62-36.3-63.3c-22.5-1.3,19.1,48,32.9,63.7
			C1020.1,1505.6,1018.4,1505.8,1016.8,1505.8z"/>
	</g>
	<g>
		<g>
			<g>
				<path class="st0" d="M760.6,882.5c0,0-0.7,4.3-5.1,5.2c-8.1,1.5-10.7-3.6-10.7-3.6S754,880.2,760.6,882.5z"/>
			</g>
			<g>
				<g>
					<path class="st12" d="M723,912.7c0,0-60.9-12.6-98.4,13.6c-27.4,19.2-23.9,181.4,2.6,190.5c26.5,9.2,78.4-10.9,78.4-10.9
						L723,912.7z"/>
				</g>
				<g>
					<path class="st23" d="M776.4,1483.9c0,0,2.7,24.6,8.3,26.1l65.3-13.1c0,0-1.5-7.5-12.3-7.1c-10.8,0.4-30.5-2.1-36.3-15.1
						C795.5,1461.6,776.4,1483.9,776.4,1483.9z"/>
				</g>
				<g>
					<path class="st21" d="M699.5,1118.2c0,0-4.2,21.4-0.2,48.3c1.8,12.3,32,118.1,29.8,138.1c-5.6,51.5,42.3,183.7,42.3,183.7
						c4.5,4.7,17.8,9,39.5-7.1l-21.2-354L699.5,1118.2z"/>
				</g>
				<g>
					<path class="st8" d="M749.8,921c0,0,38.2,7.9,48,19.8c9.8,11.9,13.6,83.5,20.3,104.4c8,24.8-14.6,61.9-14.6,61.9l-37.7-18
						L749.8,921z"/>
				</g>
				<g class="st4">
					<path class="st16" d="M789,987.9c0,0,14.6,39.1,7,54.5c-7.6,15.5-15,6.5-15,6.5L789,987.9z"/>
				</g>
				<g>
					<path class="st23" d="M665.5,1481.8c0,0-2.7,24.6,2.4,27.2l66.6,1.5c0,0,0.2-7.7-10.5-9.7c-10.6-2-29.3-8.7-32.1-22.7
						C689,1464.2,665.5,1481.8,665.5,1481.8z"/>
				</g>
				<g>
					<path class="st8" d="M697.6,926.9c0,0,45.2,21,69.4,11.7c0,0-6.6-7.2-17.6-12.2c0.5-5,0.9-9.3,1-13c0.5-8.5,0.1-13.2,0.1-13.2
						l-17.4-11.8L716.7,877C720.3,911.8,697.6,926.9,697.6,926.9z"/>
				</g>
				<g class="st4">
					<path class="st16" d="M717.3,890.3c0,0,12.1,19,33.1,23.1c0.5-8.5,0.1-13.2,0.1-13.2l-17.4-11.8L717.3,890.3z"/>
				</g>
				<g>
					<path class="st8" d="M758,899.1c0,0-40.3,9.4-45.8-15.4c-5.5-24.8-14.5-40.3,11-47.4c25.5-7.1,32.6,1.3,36.5,9.1
						C763.7,853.3,768.4,896,758,899.1z"/>
				</g>
				<g>
					<path class="st17" d="M694,835.3c-0.4-0.4-1.3-0.7-3.2-0.7c0,0,1.5-1.1,3.5-1.2c0.2-2.7,1.3-7.4,5.8-8.9c0,0-2.4,1.5-2.5,4.3
						c4.9-5.8,15.9-10.5,47.3-10.1c41.4,0.5,29.6,27.7,24.5,31.2c-5.1,3.5-19.1-4.2-29-2.7c-9.9,1.5-10.8,15.9-14,18.1
						c-3.2,2.2-2.1-1.4-6.8-3.1c-4.7-1.8-4.6,5.8-3,10.7c1.7,4.8-4.2,11.7-4.2,11.7s0,0-6.8-6.4c-6.8-6.4-14.7-34.9-12.3-41.2
						C693.6,836.5,693.8,835.9,694,835.3z"/>
				</g>
				<g>
					<path class="st16" d="M747.7,1080.9c-0.1,1.7-0.9,3-1.7,3c-0.8-0.1-1.4-1.5-1.2-3.2s0.9-3,1.7-3
						C747.3,1077.7,747.9,1079.1,747.7,1080.9z"/>
				</g>
				<g>
					<path class="st12" d="M671.1,1105.9c0,0-8.8,20-10.8,47.1c-0.9,12.4,5.3,122.2-1.2,141.2c-16.8,49,1,188.5,1,188.5
						c3.3,5.6,15.4,12.6,40.1,1.8l57-350L671.1,1105.9z"/>
				</g>
				<g>
					<path class="st9" d="M706.7,917.7c0,0,38.8,19.6,43.2,3c0,0,40.2,7.1,47.9,20.1c7.7,13,17.2,61.4,17.2,61.4s-6.3,9.7-26.6,9.4
						l8,123.1c0,0-32.8,26.1-142.1,2.8l16.2-173.5L706.7,917.7z"/>
				</g>
				<g>
					<path class="st8" d="M684.9,925.7c0,0-32.3,5-40.1,22.3c-10.3,23.1-24.9,104.5-13.3,120.8c11.8,16.6,87.9,26.8,87.9,26.8
						l7.1-15.2c0,0-61.8-28.9-62-31.7c-0.3-2.9,3-42,11.8-61.7C683.9,969.8,684.9,925.7,684.9,925.7z"/>
				</g>
				<g>
					<path class="st7" d="M771.3,1077.1h-3.4c-1.4,0-2.6-1.2-2.6-2.6l0,0c0-1.4,1.2-2.6,2.6-2.6l3.4,0c1.4,0,2.6,1.2,2.6,2.6l0,0
						C773.9,1076,772.7,1077.1,771.3,1077.1z"/>
				</g>
				<g>
					<path class="st9" d="M706.7,917.7c0,0-50,12.5-59.3,23.9c-9.3,11.4-20.9,56.5-20.9,56.5s20.7,15.7,46.7,11.8
						c26-3.9,31.4-57.4,31.4-58.5C704.6,950.4,706.7,917.7,706.7,917.7z"/>
				</g>
				<g>
					<g>
						<path class="st7" d="M782.9,1110.4l-34.1,0c-3.3,0-5.9-2.7-5.9-5.9l0-22.7c0-3.3,2.7-5.9,5.9-5.9l34.1,0
							c3.3,0,5.9,2.7,5.9,5.9l0,22.7C788.9,1107.8,786.2,1110.4,782.9,1110.4z"/>
					</g>
					<g>
						<path class="st12" d="M787.4,1110.4l-27.8,0c-3,0-5.4-2.4-5.4-5.4l0-23.7c0-3,2.4-5.4,5.4-5.4l27.8,0c3,0,5.4,2.4,5.4,5.4
							l0,23.7C792.8,1108,790.4,1110.4,787.4,1110.4z"/>
					</g>
					<g>
						<path class="st24" d="M784.8,1078.7c0-0.8,0.6-1.5,1.2-1.5c0.7,0,1.2,0.7,1.2,1.5c0,0.8-0.6,1.5-1.2,1.5
							C785.4,1080.2,784.8,1079.5,784.8,1078.7z"/>
					</g>
					<g>
						<path class="st7" d="M782.2,1078.7c0-0.5,0.3-0.9,0.8-0.9c0.4,0,0.8,0.4,0.8,0.9c0,0.5-0.3,0.9-0.8,0.9
							S782.2,1079.2,782.2,1078.7z"/>
					</g>
					<g>
						<path class="st7" d="M785.9,1075.9l-4.3,0l0-1.2c0-0.3,0.2-0.5,0.5-0.5l3.4,0c0.3,0,0.5,0.2,0.5,0.5V1075.9z"/>
					</g>
					<g>
						<polygon class="st7" points="769.9,1082.6 796,1078.3 796,1103.5 770.8,1100.6 						"/>
					</g>
					<g>
						<path class="st25" d="M785.7,1090.9c0-6.9,4.6-12.6,10.4-12.6c5.7,0,10.4,5.6,10.4,12.6c0,6.9-4.6,12.6-10.4,12.6
							C790.3,1103.5,785.7,1097.8,785.7,1090.9z"/>
					</g>
					<g>
						<path class="st7" d="M764.1,1091.6c0-5,2.8-9,6.2-9c3.4,0,6.2,4,6.2,9c0,5-2.8,9-6.2,9
							C766.9,1100.6,764.1,1096.6,764.1,1091.6z"/>
					</g>
					<g>
						<path class="st12" d="M803.9,1090.9c0,5-3.4,9.1-7.5,9.1c-0.2,0-0.4,0-0.5,0c-3.9-0.3-7-4.3-7-9.1c0-0.9,0.1-1.8,0.3-2.7
							c0.6-2.5,2.1-4.5,4-5.6c1-0.6,2.1-0.9,3.2-0.9c4.1,0,7.4,3.9,7.5,8.8C803.9,1090.7,803.9,1090.8,803.9,1090.9z"/>
					</g>
					<g>
						<path class="st26" d="M794.2,1085.5c0,2-1.4,3.7-3,3.7c-0.8,0-1.5-0.3-2-0.9c0.6-2.5,2.1-4.5,4-5.6
							C793.8,1083.3,794.2,1084.3,794.2,1085.5z"/>
					</g>
					<g>
						<path class="st26" d="M803.9,1090.9c0,5-3.4,9.1-7.5,9.1c-0.2,0-0.4,0-0.5,0c-1-1.2-1.6-2.9-1.6-4.8c0-3.7,2.5-6.8,5.6-6.8
							c1.6,0,3.1,0.8,4.1,2.1C803.9,1090.7,803.9,1090.8,803.9,1090.9z"/>
					</g>
				</g>
				<g>
					<path class="st8" d="M726.5,1080.4c0,0,9.1-1.9,15.4,1c6.2,2.9,16.5,2.4,16,5.5c-0.5,3.1-16.8,3-14.3,5.4
						c2.5,2.3,24.6,10.9,18.5,17.5c-6.1,6.6-20.1,5.4-24.3,2.9c-4.2-2.5-20.3-18.6-20.3-18.6L726.5,1080.4z"/>
				</g>
				<g>
					<path class="st8" d="M803.6,1107.1c-1.6,2.8-9.3,7.6-13.9,7.6c-4.6,0-10.4-1.6-8.6-6.4c1.8-4.9,6.2-7.1,12.7-6.5
						C795.8,1102,805.9,1103.1,803.6,1107.1z"/>
				</g>
				<g>
					<g>
						<path class="st7" d="M769.9,1075.7c-0.3,0-0.6-0.1-0.8-0.2c-19.8-12.6-37-42.9-51.2-90.1c-10.5-35-15.4-66.7-15.4-67
							c-0.1-0.8,0.5-1.6,1.3-1.7c0.8-0.1,1.6,0.4,1.7,1.3c0.2,1.2,18.5,120.1,62.1,152.8c-3.5-16.4-16.6-83.2-14.8-149.2
							c0-0.8,0.7-1.5,1.5-1.5c0,0,0,0,0,0c0.8,0,1.5,0.7,1.5,1.6c-2,75.2,15.4,151.5,15.5,152.2c0.1,0.6-0.1,1.2-0.6,1.6
							C770.5,1075.6,770.2,1075.7,769.9,1075.7z"/>
					</g>
				</g>
				<g>
					<path class="st12" d="M678.2,925.2c0,0,33.6,65.6-11.7,103.3l-0.4,17.9c0,0,27.5-14.4,37-45.2c11.5-37.5-6-85-6-85L678.2,925.2
						z"/>
				</g>
				<g>
					<path class="st12" d="M789.7,1032.1C789.7,1032.1,789.7,1032.1,789.7,1032.1c-3.8-37.7-27.4-97.5-31.1-109.5
						c4.8-0.2,10.7,0.7,14.1,3.9c12.1,30.1,18.7,43.4,20.6,72.3c0.1,1.5,0.2,3,0.2,4.5C793.7,1018.5,789.9,1031.3,789.7,1032.1z"/>
				</g>
			</g>
		</g>
		<g>
			<g>
				<path class="st8" d="M564.6,1012.2c0,0,15.2,73.6,22.4,87.7c6.7,13.2,38.3,39.7,38.3,39.7l-5,9.5c0,0-36.5-7.5-48.4-23
					c-11.9-15.5-21.5-52.9-21.5-52.9L564.6,1012.2z"/>
			</g>
			<g>
				<g>
					<path class="st8" d="M440.2,1471.1l-11.4-3.7c0,0-2.3-30.8,2.7-67.8c3.2-23.4,9.1-48.8,19.7-69.1c4.8-9.2,10.6-17.4,17.6-23.9
						c0,0,8.7-20.2,20.3-47.3c12.8-30.1,93.2-38.9,47.3,24.1c-9.4,12.9-19.5,35.7-31.6,49.5c-20.7,23.6-35.3,51.2-45.3,75.5
						C445.1,1443.1,440.2,1471.1,440.2,1471.1z"/>
				</g>
				<g>
					<path class="st8" d="M458,1506.6c-0.9,0.7-11-5.7-23.1-16.8c-10.9-10-16.8-21.3-16-22.1c0.7-0.6,1.3-1.3,2-2
						c2.5-2.6,5-5.7,5.8-9.3c0.5-2,1-4.7,1.6-7.7c1.6-8.6,3.4-19,3.4-19l15.7,12.5c0,0-0.1,0.2-0.1,0.7c-0.7,3.7-3.6,20.9-1.3,28.3
						c2.6,8.8,3.5,17.3,9.1,24c0.6,0.7,1.3,1.5,1.9,2.2c0.5,0.6,1,1.2,1.5,1.8C462.9,1504.5,459.4,1505.6,458,1506.6z"/>
				</g>
			</g>
			<g>
				<path class="st8" d="M590.7,1485.7l-11.6,2.8c0,0-18.2-25-33.4-59c-9.6-21.6-17.9-46.2-19.6-69.1c-0.8-10.4-0.2-20.4,2.3-29.6
					c0,0-3.2-21.8-7.7-50.9c-4.9-32.3-11.3-73.6-16.3-104l3-0.9l49.3-28.8c0,0,22.7,51.7,16.8,129.4c-1.2,15.9,2.2,40.6-0.8,58.7
					c-5.2,31-3,62.1,1.2,88C580.2,1459.3,590.7,1485.7,590.7,1485.7z"/>
			</g>
			<g>
				<path class="st13" d="M477.3,1122.1c0,0-27.9,55.2-44.3,114.1c-16.3,58.9-42.7,116.7-42.7,116.7s73.4,58.8,200.4,31.7
					c0,0-12.4-219-35.7-260.6C555.1,1124,502.5,1131.4,477.3,1122.1z"/>
			</g>
			<g>
				<g>
					
						<rect x="376.8" y="1052.7" transform="matrix(0.4158 -0.9095 0.9095 0.4158 -697.2756 1024.0613)" class="st10" width="143.3" height="4.1"/>
				</g>
			</g>
			<g>
				<path class="st8" d="M564.4,1045.4c-1.9-29.4-24.6-61-24.6-61s-0.8-0.1-2.2-0.2c-0.8-0.1-1.5-0.6-1.7-1.3
					c-0.8-2.3-1.1-7.4-1.1-12.7c0-8.1,0.6-16.7,0.6-16.7l-27.3-5.4l-1.6-0.3c0,13.7-2.6,24-5.4,29.8c-1.3,2.7-4,4.6-7,5
					c-5.9,0.8-45,68.6-50.3,98.3c-2.9,16.5-5.7,26.9-6.3,32.1c-1,8.2,24.9,13.8,28.2-1.6c1.1-5,3.7-15.1,6.7-26.4
					c0.5-1.7,0.9-3.4,1.4-5.2C479.2,1094.3,566.3,1074.8,564.4,1045.4z"/>
			</g>
			<g>
				<path class="st27" d="M535.4,961.8c0,0-0.3,8.6-0.4,16.7c-15.3-0.4-23.6-14.4-26.9-22.1L535.4,961.8z"/>
			</g>
			<g>
				<path class="st28" d="M471.7,1073.9c6.8,18.7,10.2,26.3,10.1,33.4c21.6-33.4,60.6-38.4,60.6-38.4l-74-8.5
					C469,1065,470.1,1069.5,471.7,1073.9z"/>
			</g>
			<g>
				<path class="st12" d="M553.1,1118c-0.6,0-0.1,1.4,1,4c1.7,4-12.5,5.4-29.1,4.7c-18.6-0.8-40.3-4.2-46.1-9.6c0,0-0.1-0.1-0.1-0.1
					c-9.2-7.2-8.8-12.1-9.4-20.9c-4,1.1-21-3.7-29-14.7c6.1-29.9,6.7-67.2,23.7-88.4c6.3-7.9,32.2-11.2,32.2-11.2s3.9,11.4,11,16
					c11.4,7.5,27,11.1,30-1.5c1.2-4.8,1.1-10.6,0.1-12.3c0-0.1,2.3,0.2,2.3,0.2c5.4,0.7,12.1,2.9,15.4,5.3
					c9.3,6.8,15.3,15.4,15.8,36.3C571.2,1033.8,579.3,1119.5,553.1,1118z"/>
			</g>
			<g>
				<path class="st8" d="M632.4,1505.6c-0.9,2-62.2-9.4-61.6-11.6c0.2-0.7,0.4-1.3,0.5-2.1c0,0,0,0,0,0c0.9-3.7,1.5-7.9,0.2-11.7
					c-0.7-1.9-1.6-4.5-2.7-7.3c-3.1-8.1-7.1-17.9-7.1-17.9l19.9,2.3c0,0,0.1,0.2,0.3,0.7c1.4,3.5,8,19.6,13.8,24.8
					c6.6,5.8,11.6,12.2,19.3,15.2c0.4,0.1,0.7,0.3,1.1,0.4c0.9,0.3,1.9,0.6,2.8,0.9C626.2,1501.7,633.2,1503.8,632.4,1505.6z"/>
			</g>
			<g>
				<path class="st18" d="M525,1126.8c-18.6-0.8-40.3-4.2-46.1-9.6c0,0-0.1-0.1-0.1-0.1c-9.2-7.2-8.8-12.1-9.4-20.9
					c0,0,6.1,0.9,10.6-1.9c0,0,2.3-31.6,4-37.3c1.8-5.6-0.1,44.3,6.5,51.1C496.9,1114.6,527.8,1120,525,1126.8z"/>
			</g>
			<g>
				<path class="st7" d="M478.9,1117.1c0,0,35.7,14.9,74.3,0.9l2,6c0,0-39.6,13.8-77.8-1.9L478.9,1117.1z"/>
			</g>
			<g>
				<g>
					<path class="st15" d="M547.7,896.3c0,0-37.4-40.8-54.8-12.7c0,0-13.7,6.5-17.6,30.5c-4,24.5,10.9,44.8,19,39.9
						c5.2-3.2,11.5,1.4,11.5,1.4L547.7,896.3z"/>
				</g>
				<g>
					<path class="st29" d="M539.7,964.6c0,0-39.6,2.6-40.8-22.1c-1.2-24.7-7.1-40.9,18.1-43.6c25.2-2.7,30.6,6.5,33,14.6
						C552.4,921.6,550,963.3,539.7,964.6z"/>
				</g>
				<g>
					<path class="st0" d="M531.3,950.3c0,0,0.8,2.9,8,2.1c0,0,6.1-0.7,5.7-3.9C545,948.6,539,946.6,531.3,950.3z"/>
				</g>
				<g>
					<g>
						<path class="st10" d="M434.2,920.3c0,0,121.1-54.3,152.3-59c31.2-4.7,41.6-5.8,36.6,5.2c-4.9,11-35.1,56.1-87.1,62.2
							c-52,6.1-71.9,26.1-101,24.2c-29.2-1.9-38-9.9-26.5-18.9C420,925,434.2,920.3,434.2,920.3z"/>
					</g>
					<g>
						<path class="st9" d="M471.1,916.3c0,0-2.6-35.6,4.9-46.2c7.6-10.6,24.2-4.5,34.9-12.2c10.7-7.7,42.4,29.8,42.4,29.8
							S520.2,915.9,471.1,916.3z"/>
					</g>
				</g>
			</g>
			<g>
				<path class="st10" d="M497.4,1140.9l-2.1-0.3l-52.8,73.8c0,0,32.1,2.1,47.3-6.2c15.2-8.3,14.5-63.4,14.5-63.4L497.4,1140.9z"/>
			</g>
			<g>
				<path class="st9" d="M416.7,1116.7c0,0,49.7,22.1,80.7,24.2c0,0-13.8,66.9-44.9,72.4c-31,5.5-63.5-16.6-62.1-33.8
					C391.9,1162.3,416.7,1116.7,416.7,1116.7z"/>
			</g>
			<g>
				<path class="st30" d="M497.4,1140.9c0,0,5.9-3,6.9,3.9C504.3,1144.8,497.9,1143.5,497.4,1140.9z"/>
			</g>
			<g>
				<path class="st8" d="M437.5,1113.6c0,0,6.3,42.9,21.8,72.3l11.4-2.6l-4.9-72C465.7,1111.3,452.5,1102.9,437.5,1113.6z"/>
			</g>
			<g>
				<path class="st8" d="M469.1,1180.2c0,0,9.8,2.6,13.2,4.9c3.4,2.3,5.4,12,2.1,16c-2.1,2.5-8.4-5.6-12.2-5.6
					c-3.9,0-11.9-2.3-12.9-9.6C458.2,1178.7,469.1,1180.2,469.1,1180.2z"/>
			</g>
			<g>
				<path class="st8" d="M470,1180.4c0,0,5.2,0.8,11.6,0.6c0,0,0.7,1.1-1,1.6c-1.7,0.5-5.7,0.9-5.7,0.9l-5.2-3.4L470,1180.4z"/>
			</g>
			<g>
				<path class="st13" d="M632.4,1505.6c-0.9,2-6.2,6.5-20.9,5.3c-14.6-1.3-12.6-1.4-23.1-1c-10.5,0.5-18.8-2.5-18.8-9.1
					c0-2.3,0.6-4.6,1.2-6.7c0.2-0.7,0.4-1.3,0.5-2.1c0,0,0,0,0,0c0.2-0.2,1.9-0.5,16.5,4.9c10.7,3.9,21.2,2.4,27,1.1
					c0.4,0.1,0.7,0.3,1.1,0.4c0.9,0.3,1.9,0.6,2.8,0.9C626.2,1501.7,633.2,1503.8,632.4,1505.6z"/>
			</g>
			<g>
				<path class="st13" d="M466.5,1508.6c-1.8,1.3-10.6,4.9-22.4-3.9c-11.8-8.8-9.9-9.1-19-14.3c-9.2-5.2-14.2-12.1-10.7-17.7
					c1.2-2,5.9-6.4,6.6-7.1c0,0,6.7,8,12.6,19c4.8,8.9,16.8,13.5,25,14.6C465.3,1503.3,467.9,1507.6,466.5,1508.6z"/>
			</g>
			<g>
				<g>
					<path class="st10" d="M500.4,1143c-1.1,0-2-0.9-2.1-2c0-0.4-1.2-37.2-3.9-74.6c-4.9-67.5-10.3-78.3-12.4-79.8
						c-0.9-0.7-1.1-1.9-0.5-2.9c0.7-0.9,2-1.1,2.9-0.5c3.7,2.6,9.1,14,14.1,82.8c2.7,37.5,3.9,74.4,3.9,74.7
						C502.5,1142,501.6,1142.9,500.4,1143C500.5,1143,500.4,1143,500.4,1143z"/>
				</g>
			</g>
			<g>
				<path class="st12" d="M562.3,996.1c0,0,15,13.6,19.7,84.6c0,0-6.7,9.9-17.5,7.7C553.7,1086.3,562.3,996.1,562.3,996.1z"/>
			</g>
			<g>
				<path class="st8" d="M625.3,1139.5c0,0,14.8,2.4,17.6,5.5c2.8,3.1,9.4,14.2,6.9,14.6c-5.3,0.7-11.5-6.7-15.6-6.1
					c-4.1,0.5-8.3,1.2-13.8-4.4C616,1144.7,625.3,1139.5,625.3,1139.5z"/>
			</g>
			<g>
				<path class="st8" d="M625.9,1153c0,0,6.9,3.9,8.5,4.9c3.3,2.1,0.5-3.9-3.3-8.2C627.3,1145.4,625.9,1153,625.9,1153z"/>
			</g>
		</g>
	</g>
	<g>
		<g>
			<path class="st22" d="M1702.6,1460.2c3.6,1.4,16.3,0.3,16.7-0.7c0.4-1-7.9-10.7-11.5-12.1c-3.6-1.4-7.6,0.3-9.1,3.8
				C1697.3,1454.7,1699,1458.7,1702.6,1460.2z"/>
		</g>
		<g>
			<path class="st22" d="M1734.6,1466.2c-2,3.3-2.9,16-2,16.6c0.9,0.6,11.8-6.1,13.8-9.4s1-7.6-2.3-9.6S1736.6,1462.9,1734.6,1466.2
				z"/>
		</g>
		<g>
			<path class="st22" d="M1717.5,1491.2c3.7,1.2,16.3-1,16.6-2c0.3-1-8.7-10.1-12.4-11.2c-3.7-1.2-7.6,0.9-8.7,4.5
				C1711.8,1486.1,1713.8,1490,1717.5,1491.2z"/>
		</g>
		<g>
			<g>
				<path class="st22" d="M1736,1503.5c0-0.3-1.4-29.1-17.2-44l0.3-0.4c15.9,15,17.3,44,17.4,44.3L1736,1503.5z"/>
			</g>
		</g>
		<g>
			<path class="st22" d="M1788.7,1460.8c-2.2,1.5-11,2.4-11.4,1.8c-0.4-0.6,3.9-8.4,6.1-9.8s5.2-0.9,6.7,1.3
				C1791.5,1456.3,1790.9,1459.3,1788.7,1460.8z"/>
		</g>
		<g>
			<path class="st22" d="M1767.8,1469.3c1.8,2,4.2,10.5,3.6,11c-0.6,0.5-8.9-2.5-10.7-4.4c-1.8-2-1.7-5,0.3-6.8
				C1762.9,1467.3,1766,1467.4,1767.8,1469.3z"/>
		</g>
		<g>
			<path class="st22" d="M1782.9,1483.9c-2.3,1.3-11.2,1.6-11.5,0.9c-0.4-0.7,4.5-8,6.8-9.3c2.3-1.3,5.3-0.5,6.6,1.9
				S1785.2,1482.6,1782.9,1483.9z"/>
		</g>
		<g>
			<g>
				<path class="st22" d="M1772,1494.8c0-0.2-3.1-20,5.6-32.3l-0.3-0.2c-8.7,12.4-5.7,32.3-5.6,32.5L1772,1494.8z"/>
			</g>
		</g>
		<g>
			<g>
				<path class="st22" d="M1756.4,1501.8l-1-0.2c-4-51.2-19.6-87.9-19.8-88.4l0.9-0.4C1736.7,1413.3,1752.4,1450.3,1756.4,1501.8z"
					/>
			</g>
		</g>
		<g>
			<g>
				<path class="st0" d="M1724.9,1408.1c1.9,2.2,11,5.7,11.6,5.1c0.6-0.5-1.7-9.9-3.7-12.1c-1.9-2.2-5.3-2.4-7.4-0.5
					C1723.2,1402.6,1723,1405.9,1724.9,1408.1z"/>
			</g>
			<g>
				<path class="st0" d="M1738.8,1400.5c-1.7,2.3-3.3,11.9-2.7,12.4c0.7,0.5,9.4-3.7,11.1-6.1c1.7-2.3,1.3-5.6-1.1-7.4
					C1743.8,1397.7,1740.5,1398.1,1738.8,1400.5z"/>
			</g>
			<g>
				<path class="st0" d="M1749.2,1410.6c-2.8-0.8-12.3,1.3-12.5,2.1c-0.2,0.8,6.9,7.4,9.7,8.1c2.8,0.8,5.7-0.9,6.5-3.7
					C1753.6,1414.3,1752,1411.4,1749.2,1410.6z"/>
			</g>
			<g>
				<path class="st0" d="M1742.8,1423.3c-0.3-2.9-5.5-11-6.4-11c-0.8,0.1-4.4,9.1-4.1,12c0.3,2.9,2.9,5,5.8,4.7
					C1740.9,1428.8,1743,1426.2,1742.8,1423.3z"/>
			</g>
			<g>
				<path class="st0" d="M1728.4,1422.7c2.6-1.4,8.1-9.3,7.7-10c-0.4-0.7-10.1-0.7-12.6,0.7c-2.6,1.4-3.6,4.5-2.2,7.1
					C1722.6,1423,1725.8,1424,1728.4,1422.7z"/>
			</g>
			<g>
				<path class="st31" d="M1734.4,1412.4c0.1-0.9,1-1.6,2-1.4c0.9,0.2,1.6,1,1.4,2c-0.2,0.9-1,1.6-2,1.4
					C1734.9,1414.2,1734.3,1413.3,1734.4,1412.4z"/>
			</g>
		</g>
		<g>
			<path class="st22" d="M1756.1,1449.5c-2.9,3.5-6,18.3-5,19.1c1,0.8,14.8-5.2,17.7-8.7c2.9-3.5,2.3-8.7-1.2-11.6
				C1764.1,1445.4,1758.9,1445.9,1756.1,1449.5z"/>
		</g>
		<g>
			<g>
				<path class="st22" d="M1699.4,1507l-0.7,0c-7.1-33.6-20.7-56.6-20.9-56.9l0.6-0.3C1678.5,1450.1,1692.2,1473.2,1699.4,1507z"/>
			</g>
		</g>
		<g>
			<g>
				<path class="st0" d="M1670.3,1447.6c1.5,1.3,7.8,2.8,8.1,2.4c0.4-0.4-2-6.4-3.5-7.7c-1.5-1.3-3.7-1.1-5,0.3
					C1668.7,1444.1,1668.8,1446.3,1670.3,1447.6z"/>
			</g>
			<g>
				<path class="st0" d="M1678.8,1441.3c-0.9,1.7-1.2,8.2-0.7,8.5c0.5,0.3,5.9-3.3,6.8-5c0.9-1.7,0.3-3.9-1.4-4.8
					C1681.9,1439,1679.7,1439.6,1678.8,1441.3z"/>
			</g>
			<g>
				<path class="st0" d="M1686.6,1447.2c-1.9-0.3-8,1.9-8.1,2.5c-0.1,0.6,5.2,4.3,7.2,4.5s3.7-1.1,4-3
					C1689.9,1449.2,1688.5,1447.4,1686.6,1447.2z"/>
			</g>
			<g>
				<path class="st0" d="M1683.4,1456.1c-0.4-1.9-4.6-6.8-5.2-6.7s-2.1,6.4-1.7,8.3s2.3,3.1,4.2,2.6
					C1682.7,1459.9,1683.9,1458,1683.4,1456.1z"/>
			</g>
			<g>
				<path class="st0" d="M1673.9,1457c1.6-1.1,4.6-6.9,4.3-7.3c-0.3-0.5-6.7,0.4-8.3,1.6c-1.6,1.1-2,3.3-0.8,4.9
					C1670.1,1457.7,1672.3,1458.1,1673.9,1457z"/>
			</g>
			<g>
				<path class="st31" d="M1677,1449.6c0-0.6,0.6-1.1,1.2-1.1c0.6,0,1.1,0.6,1.1,1.2c0,0.6-0.6,1.1-1.2,1.1
					C1677.4,1450.8,1676.9,1450.3,1677,1449.6z"/>
			</g>
		</g>
		<g>
			<path class="st22" d="M1694.6,1472.3c-1.6,2.6-2.3,12.7-1.6,13.1c0.7,0.5,9.4-4.8,11-7.4c1.6-2.6,0.8-6-1.8-7.6
				C1699.6,1468.9,1696.2,1469.7,1694.6,1472.3z"/>
		</g>
		<g>
			<g>
				<path class="st22" d="M1807.9,1502.6l0.9-0.1c3.5-45.6,17.4-78.3,17.6-78.7l-0.8-0.4C1825.5,1423.8,1811.4,1456.7,1807.9,1502.6
					z"/>
			</g>
		</g>
		<g>
			<g>
				<path class="st0" d="M1835.9,1419.1c-1.7,1.9-9.8,5.1-10.3,4.6c-0.6-0.5,1.6-8.9,3.3-10.8c1.7-1.9,4.7-2.1,6.6-0.4
					C1837.4,1414.2,1837.6,1417.2,1835.9,1419.1z"/>
			</g>
			<g>
				<path class="st0" d="M1823.6,1412.4c1.5,2.1,3,10.6,2.4,11c-0.6,0.4-8.3-3.3-9.9-5.4c-1.5-2.1-1.1-5,1-6.6
					C1819.1,1409.8,1822,1410.3,1823.6,1412.4z"/>
			</g>
			<g>
				<path class="st0" d="M1814.3,1421.4c2.5-0.7,10.9,1.1,11.1,1.8c0.2,0.7-6.2,6.5-8.7,7.2c-2.5,0.7-5.1-0.8-5.8-3.3
					C1810.4,1424.7,1811.8,1422.1,1814.3,1421.4z"/>
			</g>
			<g>
				<path class="st0" d="M1820,1432.7c0.3-2.6,4.9-9.8,5.7-9.8c0.7,0.1,3.9,8.1,3.7,10.7c-0.3,2.6-2.5,4.5-5.1,4.2
					C1821.7,1437.6,1819.8,1435.3,1820,1432.7z"/>
			</g>
			<g>
				<path class="st0" d="M1832.8,1432.1c-2.3-1.2-7.2-8.3-6.9-8.9c0.3-0.7,9-0.6,11.3,0.6c2.3,1.2,3.2,4,2,6.3
					C1838,1432.4,1835.1,1433.3,1832.8,1432.1z"/>
			</g>
			<g>
				<path class="st31" d="M1827.5,1423c-0.1-0.8-0.9-1.4-1.8-1.3c-0.8,0.1-1.4,0.9-1.3,1.8c0.1,0.8,0.9,1.4,1.8,1.3
					C1827,1424.6,1827.6,1423.8,1827.5,1423z"/>
			</g>
		</g>
		<g>
			<path class="st22" d="M1805.9,1468.2c2.6,3.1,5.3,16.3,4.4,17c-0.9,0.7-13.2-4.7-15.8-7.8c-2.6-3.1-2.1-7.8,1.1-10.3
				C1798.7,1464.6,1803.3,1465.1,1805.9,1468.2z"/>
		</g>
		<g>
			<path class="st22" d="M1663.3,1510.6c0,0,5.1-13.3,23.4-14.1c18.4-0.8,31,10,46.2,5c15.2-5,40.3-16.3,64-8.8
				c23.7,7.5,27.8,17.9,27.8,17.9H1663.3z"/>
		</g>
	</g>
	<g>
		<g>
			<g>
				<path class="st22" d="M1082.2,1510l-1-0.2c-4.1-52.8-20.2-90.8-20.4-91.3l0.9-0.4C1061.9,1418.7,1078.2,1456.8,1082.2,1510z"/>
			</g>
		</g>
		<g>
			<g>
				<path class="st0" d="M1049.8,1413.2c2,2.3,11.3,5.9,12,5.3c0.6-0.6-1.8-10.3-3.8-12.5c-2-2.3-5.4-2.5-7.7-0.5
					C1048,1407.5,1047.8,1411,1049.8,1413.2z"/>
			</g>
			<g>
				<path class="st0" d="M1064.1,1405.4c-1.8,2.4-3.4,12.3-2.7,12.8c0.7,0.5,9.7-3.9,11.5-6.3s1.3-5.8-1.1-7.6
					S1065.9,1403,1064.1,1405.4z"/>
			</g>
			<g>
				<path class="st0" d="M1074.8,1415.9c-2.9-0.8-12.7,1.3-12.9,2.1c-0.2,0.8,7.1,7.6,10,8.4c2.9,0.8,5.9-0.9,6.7-3.8
					C1079.4,1419.7,1077.7,1416.7,1074.8,1415.9z"/>
			</g>
			<g>
				<path class="st0" d="M1068.2,1428.9c-0.3-3-5.7-11.4-6.6-11.3c-0.9,0.1-4.6,9.4-4.3,12.4c0.3,3,3,5.2,5.9,4.9
					C1066.3,1434.6,1068.5,1431.9,1068.2,1428.9z"/>
			</g>
			<g>
				<path class="st0" d="M1053.3,1428.3c2.7-1.4,8.4-9.6,8-10.3c-0.4-0.8-10.4-0.7-13.1,0.7c-2.7,1.4-3.7,4.7-2.3,7.4
					C1047.4,1428.7,1050.7,1429.7,1053.3,1428.3z"/>
			</g>
			<g>
				<path class="st32" d="M1059.6,1417.7c0.2-1,1.1-1.6,2.1-1.5c1,0.2,1.6,1.1,1.5,2.1c-0.2,1-1.1,1.6-2.1,1.5
					C1060.1,1419.6,1059.4,1418.6,1059.6,1417.7z"/>
			</g>
		</g>
		<g>
			<path class="st22" d="M1077.3,1433.2c-3,3.6-6.2,18.9-5.1,19.7c1,0.8,15.3-5.4,18.3-9c3-3.6,2.4-9-1.2-11.9
				C1085.6,1429,1080.3,1429.6,1077.3,1433.2z"/>
		</g>
		<g>
			<path class="st22" d="M1070.1,1477c3.1,1.5,9.9,10.6,9.4,11.5c-0.4,0.9-11.8,1.1-14.9-0.4c-3.1-1.5-4.3-5.2-2.9-8.3
				C1063.3,1476.8,1067,1475.5,1070.1,1477z"/>
		</g>
	</g>
	<g>
		<g>
			<g>
				<path class="st22" d="M1111.8,1510l1.2-0.2c4.7-60.7,23.2-104.2,23.5-104.8l-1.1-0.5C1135.1,1405.1,1116.5,1449,1111.8,1510z"/>
			</g>
		</g>
		<g>
			<g>
				<path class="st0" d="M1149.1,1398.9c-2.3,2.6-13,6.8-13.7,6.1c-0.7-0.7,2.1-11.8,4.3-14.4c2.3-2.6,6.2-2.8,8.8-0.5
					S1151.3,1396.3,1149.1,1398.9z"/>
			</g>
			<g>
				<path class="st0" d="M1132.7,1389.9c2.1,2.8,3.9,14.1,3.1,14.7s-11.1-4.4-13.2-7.2s-1.5-6.7,1.3-8.7
					C1126.7,1386.5,1130.6,1387.1,1132.7,1389.9z"/>
			</g>
			<g>
				<path class="st0" d="M1120.4,1401.9c3.3-0.9,14.6,1.5,14.8,2.4c0.3,1-8.2,8.7-11.5,9.6c-3.3,0.9-6.8-1.1-7.7-4.4
					C1115.1,1406.3,1117,1402.8,1120.4,1401.9z"/>
			</g>
			<g>
				<path class="st0" d="M1127.9,1416.9c0.3-3.4,6.6-13.1,7.5-13c1,0.1,5.2,10.8,4.9,14.2c-0.3,3.4-3.4,6-6.8,5.6
					C1130.1,1423.4,1127.6,1420.4,1127.9,1416.9z"/>
			</g>
			<g>
				<path class="st0" d="M1145,1416.2c-3.1-1.6-9.6-11-9.2-11.9c0.5-0.9,11.9-0.8,15,0.8s4.2,5.4,2.6,8.4S1148,1417.8,1145,1416.2z"
					/>
			</g>
			<g>
				<path class="st32" d="M1137.8,1404c-0.2-1.1-1.2-1.9-2.4-1.7c-1.1,0.2-1.9,1.2-1.7,2.4c0.2,1.1,1.2,1.9,2.4,1.7
					C1137.2,1406.2,1138,1405.1,1137.8,1404z"/>
			</g>
		</g>
		<g>
			<path class="st22" d="M1112.2,1448c3.4,4.2,7.1,21.7,5.9,22.7c-1.2,1-17.6-6.2-21-10.4s-2.8-10.3,1.4-13.7
				S1108.8,1443.8,1112.2,1448z"/>
		</g>
		<g>
			<path class="st22" d="M1125.8,1472.2c-3.5,1.7-11.3,12.2-10.8,13.2c0.5,1,13.5,1.3,17.1-0.4c3.5-1.7,5-6,3.3-9.5
				S1129.3,1470.4,1125.8,1472.2z"/>
		</g>
	</g>
	<g>
		<path class="st7" d="M2640.2,1516.4l-2494.4-0.8c-1.6,0-3-1.3-3-3l0-1.3c0-1.6,1.3-3,3-3l2494.4,0.8c1.6,0,3,1.3,3,3v1.3
			C2643.2,1515.1,2641.8,1516.4,2640.2,1516.4z"/>
	</g>
</g>
</svg>
